<?xml version="1.0" encoding="us-ascii" standalone="no"?><svg xmlns="http://www.w3.org/2000/svg" xmlns:xlink="http://www.w3.org/1999/xlink" contentStyleType="text/css" height="2004px" preserveAspectRatio="none" style="width:1486px;height:2004px;background:#FFFFFF;" version="1.1" viewBox="0 0 1486 2004" width="1486px" zoomAndPan="magnify"><defs/><g><!--cluster ????????--><g id="cluster_&#1054;&#1073;&#1091;&#1095;&#1077;&#1085;&#1080;&#1077;"><path d="M9.5,1333 L91.5,1333 A3.75,3.75 0 0 1 94,1335.5 L101,1355.2969 L608,1355.2969 A2.5,2.5 0 0 1 610.5,1357.7969 L610.5,1543.5 A2.5,2.5 0 0 1 608,1546 L9.5,1546 A2.5,2.5 0 0 1 7,1543.5 L7,1335.5 A2.5,2.5 0 0 1 9.5,1333 " fill="none" style="stroke:#000000;stroke-width:1.5;"/><line style="stroke:#000000;stroke-width:1.5;" x1="7" x2="101" y1="1355.2969" y2="1355.2969"/><text fill="#000000" font-family="sans-serif" font-size="14" font-weight="bold" lengthAdjust="spacing" textLength="81" x="11" y="1347.9951">&#1054;&#1073;&#1091;&#1095;&#1077;&#1085;&#1080;&#1077;</text></g><!--cluster ????????????--><g id="cluster_&#1055;&#1086;&#1083;&#1100;&#1079;&#1086;&#1074;&#1072;&#1090;&#1077;&#1083;&#1080;"><path d="M8.5,208 L124.5,208 A3.75,3.75 0 0 1 127,210.5 L134,230.2969 L288.5,230.2969 A2.5,2.5 0 0 1 291,232.7969 L291,383.5 A2.5,2.5 0 0 1 288.5,386 L8.5,386 A2.5,2.5 0 0 1 6,383.5 L6,210.5 A2.5,2.5 0 0 1 8.5,208 " fill="none" style="stroke:#000000;stroke-width:1.5;"/><line style="stroke:#000000;stroke-width:1.5;" x1="6" x2="134" y1="230.2969" y2="230.2969"/><text fill="#000000" font-family="sans-serif" font-size="14" font-weight="bold" lengthAdjust="spacing" textLength="115" x="10" y="222.9951">&#1055;&#1086;&#1083;&#1100;&#1079;&#1086;&#1074;&#1072;&#1090;&#1077;&#1083;&#1080;</text></g><!--cluster ??????? ???????--><g id="cluster_&#1048;&#1075;&#1088;&#1086;&#1074;&#1099;&#1077; &#1082;&#1086;&#1084;&#1085;&#1072;&#1090;&#1099;"><path d="M17,1042 L165,1042 A3.75,3.75 0 0 1 167.5,1044.5 L174.5,1064.2969 L616,1064.2969 A2.5,2.5 0 0 1 618.5,1066.7969 L618.5,1298.5 A2.5,2.5 0 0 1 616,1301 L17,1301 A2.5,2.5 0 0 1 14.5,1298.5 L14.5,1044.5 A2.5,2.5 0 0 1 17,1042 " fill="none" style="stroke:#000000;stroke-width:1.5;"/><line style="stroke:#000000;stroke-width:1.5;" x1="14.5" x2="174.5" y1="1064.2969" y2="1064.2969"/><text fill="#000000" font-family="sans-serif" font-size="14" font-weight="bold" lengthAdjust="spacing" textLength="147" x="18.5" y="1056.9951">&#1048;&#1075;&#1088;&#1086;&#1074;&#1099;&#1077; &#1082;&#1086;&#1084;&#1085;&#1072;&#1090;&#1099;</text></g><!--cluster ?????: ???????, ????????, ???????????, ???????--><g id="cluster_&#1050;&#1085;&#1080;&#1075;&#1080;: &#1073;&#1072;&#1079;&#1086;&#1074;&#1099;&#1077;, &#1089;&#1077;&#1090;&#1090;&#1080;&#1085;&#1075;&#1072;, &#1087;&#1088;&#1080;&#1082;&#1083;&#1102;&#1095;&#1077;&#1085;&#1080;&#1081;, &#1093;&#1086;&#1091;&#1084;&#1073;&#1088;&#1102;"><path d="M696.5,1260 L1113.5,1260 A3.75,3.75 0 0 1 1116,1262.5 L1123,1282.2969 L1418.5,1282.2969 A2.5,2.5 0 0 1 1421,1284.7969 L1421,1516.5 A2.5,2.5 0 0 1 1418.5,1519 L696.5,1519 A2.5,2.5 0 0 1 694,1516.5 L694,1262.5 A2.5,2.5 0 0 1 696.5,1260 " fill="none" style="stroke:#000000;stroke-width:1.5;"/><line style="stroke:#000000;stroke-width:1.5;" x1="694" x2="1123" y1="1282.2969" y2="1282.2969"/><text fill="#000000" font-family="sans-serif" font-size="14" font-weight="bold" lengthAdjust="spacing" textLength="416" x="698" y="1274.9951">&#1050;&#1085;&#1080;&#1075;&#1080;: &#1073;&#1072;&#1079;&#1086;&#1074;&#1099;&#1077;, &#1089;&#1077;&#1090;&#1090;&#1080;&#1085;&#1075;&#1072;, &#1087;&#1088;&#1080;&#1082;&#1083;&#1102;&#1095;&#1077;&#1085;&#1080;&#1081;, &#1093;&#1086;&#1091;&#1084;&#1073;&#1088;&#1102;</text></g><!--cluster ???????????--><g id="cluster_&#1055;&#1088;&#1086;&#1093;&#1086;&#1078;&#1076;&#1077;&#1085;&#1080;&#1077;"><path d="M717,977 L834,977 A3.75,3.75 0 0 1 836.5,979.5 L843.5,999.2969 L1476.5,999.2969 A2.5,2.5 0 0 1 1479,1001.7969 L1479,1233.5 A2.5,2.5 0 0 1 1476.5,1236 L717,1236 A2.5,2.5 0 0 1 714.5,1233.5 L714.5,979.5 A2.5,2.5 0 0 1 717,977 " fill="none" style="stroke:#000000;stroke-width:1.5;"/><line style="stroke:#000000;stroke-width:1.5;" x1="714.5" x2="843.5" y1="999.2969" y2="999.2969"/><text fill="#000000" font-family="sans-serif" font-size="14" font-weight="bold" lengthAdjust="spacing" textLength="116" x="718.5" y="991.9951">&#1055;&#1088;&#1086;&#1093;&#1086;&#1078;&#1076;&#1077;&#1085;&#1080;&#1077;</text></g><!--cluster ?????????--><g id="cluster_&#1055;&#1086;&#1076;&#1089;&#1082;&#1072;&#1079;&#1082;&#1080;"><path d="M35.5,6 L125.5,6 A3.75,3.75 0 0 1 128,8.5 L135,28.2969 L261.5,28.2969 A2.5,2.5 0 0 1 264,30.7969 L264,181.5 A2.5,2.5 0 0 1 261.5,184 L35.5,184 A2.5,2.5 0 0 1 33,181.5 L33,8.5 A2.5,2.5 0 0 1 35.5,6 " fill="none" style="stroke:#000000;stroke-width:1.5;"/><line style="stroke:#000000;stroke-width:1.5;" x1="33" x2="135" y1="28.2969" y2="28.2969"/><text fill="#000000" font-family="sans-serif" font-size="14" font-weight="bold" lengthAdjust="spacing" textLength="89" x="37" y="20.9951">&#1055;&#1086;&#1076;&#1089;&#1082;&#1072;&#1079;&#1082;&#1080;</text></g><!--entity ?????????????? ????????--><g id="elem_&#1056;&#1077;&#1076;&#1072;&#1082;&#1090;&#1080;&#1088;&#1086;&#1074;&#1072;&#1085;&#1080;&#1077; &#1086;&#1073;&#1091;&#1095;&#1077;&#1085;&#1080;&#1103;"><rect fill="#F1F1F1" height="46.2969" rx="2.5" ry="2.5" style="stroke:#181818;stroke-width:0.5;" width="235" x="31" y="1457"/><rect fill="#F1F1F1" height="10" style="stroke:#181818;stroke-width:0.5;" width="15" x="246" y="1462"/><rect fill="#F1F1F1" height="2" style="stroke:#181818;stroke-width:0.5;" width="4" x="244" y="1464"/><rect fill="#F1F1F1" height="2" style="stroke:#181818;stroke-width:0.5;" width="4" x="244" y="1468"/><text fill="#000000" font-family="sans-serif" font-size="14" lengthAdjust="spacing" textLength="195" x="46" y="1489.9951">&#1056;&#1077;&#1076;&#1072;&#1082;&#1090;&#1080;&#1088;&#1086;&#1074;&#1072;&#1085;&#1080;&#1077; &#1086;&#1073;&#1091;&#1095;&#1077;&#1085;&#1080;&#1103;</text></g><!--entity ???????? ?????????--><g id="elem_&#1054;&#1073;&#1091;&#1095;&#1077;&#1085;&#1080;&#1077; &#1088;&#1077;&#1076;&#1072;&#1082;&#1090;&#1086;&#1088;&#1072;"><rect fill="#F1F1F1" height="46.2969" rx="2.5" ry="2.5" style="stroke:#181818;stroke-width:0.5;" width="194" x="51.5" y="1376"/><rect fill="#F1F1F1" height="10" style="stroke:#181818;stroke-width:0.5;" width="15" x="225.5" y="1381"/><rect fill="#F1F1F1" height="2" style="stroke:#181818;stroke-width:0.5;" width="4" x="223.5" y="1383"/><rect fill="#F1F1F1" height="2" style="stroke:#181818;stroke-width:0.5;" width="4" x="223.5" y="1387"/><text fill="#000000" font-family="sans-serif" font-size="14" lengthAdjust="spacing" textLength="154" x="66.5" y="1408.9951">&#1054;&#1073;&#1091;&#1095;&#1077;&#1085;&#1080;&#1077; &#1088;&#1077;&#1076;&#1072;&#1082;&#1090;&#1086;&#1088;&#1072;</text></g><!--entity ???????? ??????--><g id="elem_&#1054;&#1073;&#1091;&#1095;&#1077;&#1085;&#1080;&#1077; &#1080;&#1075;&#1088;&#1086;&#1082;&#1072;"><rect fill="#F1F1F1" height="46.2969" rx="2.5" ry="2.5" style="stroke:#181818;stroke-width:0.5;" width="165" x="410" y="1457"/><rect fill="#F1F1F1" height="10" style="stroke:#181818;stroke-width:0.5;" width="15" x="555" y="1462"/><rect fill="#F1F1F1" height="2" style="stroke:#181818;stroke-width:0.5;" width="4" x="553" y="1464"/><rect fill="#F1F1F1" height="2" style="stroke:#181818;stroke-width:0.5;" width="4" x="553" y="1468"/><text fill="#000000" font-family="sans-serif" font-size="14" lengthAdjust="spacing" textLength="125" x="425" y="1489.9951">&#1054;&#1073;&#1091;&#1095;&#1077;&#1085;&#1080;&#1077; &#1080;&#1075;&#1088;&#1086;&#1082;&#1072;</text></g><!--entity ???????? ????????--><g id="elem_&#1054;&#1073;&#1091;&#1095;&#1077;&#1085;&#1080;&#1077; &#1074;&#1077;&#1076;&#1091;&#1097;&#1077;&#1075;&#1086;"><rect fill="#F1F1F1" height="46.2969" rx="2.5" ry="2.5" style="stroke:#181818;stroke-width:0.5;" width="188" x="398.5" y="1376"/><rect fill="#F1F1F1" height="10" style="stroke:#181818;stroke-width:0.5;" width="15" x="566.5" y="1381"/><rect fill="#F1F1F1" height="2" style="stroke:#181818;stroke-width:0.5;" width="4" x="564.5" y="1383"/><rect fill="#F1F1F1" height="2" style="stroke:#181818;stroke-width:0.5;" width="4" x="564.5" y="1387"/><text fill="#000000" font-family="sans-serif" font-size="14" lengthAdjust="spacing" textLength="148" x="413.5" y="1408.9951">&#1054;&#1073;&#1091;&#1095;&#1077;&#1085;&#1080;&#1077; &#1074;&#1077;&#1076;&#1091;&#1097;&#1077;&#1075;&#1086;</text></g><!--entity ??????????????--><g id="elem_&#1040;&#1091;&#1090;&#1077;&#1085;&#1090;&#1080;&#1092;&#1080;&#1082;&#1072;&#1094;&#1080;&#1103;"><rect fill="#F1F1F1" height="46.2969" rx="2.5" ry="2.5" style="stroke:#181818;stroke-width:0.5;" width="166" x="65.5" y="243"/><rect fill="#F1F1F1" height="10" style="stroke:#181818;stroke-width:0.5;" width="15" x="211.5" y="248"/><rect fill="#F1F1F1" height="2" style="stroke:#181818;stroke-width:0.5;" width="4" x="209.5" y="250"/><rect fill="#F1F1F1" height="2" style="stroke:#181818;stroke-width:0.5;" width="4" x="209.5" y="254"/><text fill="#000000" font-family="sans-serif" font-size="14" lengthAdjust="spacing" textLength="126" x="80.5" y="275.9951">&#1040;&#1091;&#1090;&#1077;&#1085;&#1090;&#1080;&#1092;&#1080;&#1082;&#1072;&#1094;&#1080;&#1103;</text></g><!--entity ?????????? ??????????????--><g id="elem_&#1059;&#1087;&#1088;&#1072;&#1074;&#1083;&#1077;&#1085;&#1080;&#1077; &#1087;&#1086;&#1083;&#1100;&#1079;&#1086;&#1074;&#1072;&#1090;&#1077;&#1083;&#1103;&#1084;&#1080;"><rect fill="#F1F1F1" height="46.2969" rx="2.5" ry="2.5" style="stroke:#181818;stroke-width:0.5;" width="253" x="22" y="324"/><rect fill="#F1F1F1" height="10" style="stroke:#181818;stroke-width:0.5;" width="15" x="255" y="329"/><rect fill="#F1F1F1" height="2" style="stroke:#181818;stroke-width:0.5;" width="4" x="253" y="331"/><rect fill="#F1F1F1" height="2" style="stroke:#181818;stroke-width:0.5;" width="4" x="253" y="335"/><text fill="#000000" font-family="sans-serif" font-size="14" lengthAdjust="spacing" textLength="213" x="37" y="356.9951">&#1059;&#1087;&#1088;&#1072;&#1074;&#1083;&#1077;&#1085;&#1080;&#1077; &#1087;&#1086;&#1083;&#1100;&#1079;&#1086;&#1074;&#1072;&#1090;&#1077;&#1083;&#1103;&#1084;&#1080;</text></g><!--entity ???????? ???????--><g id="elem_&#1057;&#1086;&#1079;&#1076;&#1072;&#1085;&#1080;&#1077; &#1082;&#1086;&#1084;&#1085;&#1072;&#1090;&#1099;"><rect fill="#F1F1F1" height="46.2969" rx="2.5" ry="2.5" style="stroke:#181818;stroke-width:0.5;" width="180" x="58.5" y="1239"/><rect fill="#F1F1F1" height="10" style="stroke:#181818;stroke-width:0.5;" width="15" x="218.5" y="1244"/><rect fill="#F1F1F1" height="2" style="stroke:#181818;stroke-width:0.5;" width="4" x="216.5" y="1246"/><rect fill="#F1F1F1" height="2" style="stroke:#181818;stroke-width:0.5;" width="4" x="216.5" y="1250"/><text fill="#000000" font-family="sans-serif" font-size="14" lengthAdjust="spacing" textLength="140" x="73.5" y="1271.9951">&#1057;&#1086;&#1079;&#1076;&#1072;&#1085;&#1080;&#1077; &#1082;&#1086;&#1084;&#1085;&#1072;&#1090;&#1099;</text></g><!--entity ????? ??????--><g id="elem_&#1055;&#1086;&#1080;&#1089;&#1082; &#1082;&#1086;&#1084;&#1085;&#1072;&#1090;"><rect fill="#F1F1F1" height="46.2969" rx="2.5" ry="2.5" style="stroke:#181818;stroke-width:0.5;" width="141" x="78" y="1158"/><rect fill="#F1F1F1" height="10" style="stroke:#181818;stroke-width:0.5;" width="15" x="199" y="1163"/><rect fill="#F1F1F1" height="2" style="stroke:#181818;stroke-width:0.5;" width="4" x="197" y="1165"/><rect fill="#F1F1F1" height="2" style="stroke:#181818;stroke-width:0.5;" width="4" x="197" y="1169"/><text fill="#000000" font-family="sans-serif" font-size="14" lengthAdjust="spacing" textLength="101" x="93" y="1190.9951">&#1055;&#1086;&#1080;&#1089;&#1082; &#1082;&#1086;&#1084;&#1085;&#1072;&#1090;</text></g><!--entity ????????????? ? ???????--><g id="elem_&#1055;&#1088;&#1080;&#1089;&#1086;&#1077;&#1076;&#1080;&#1085;&#1077;&#1085;&#1080;&#1077; &#1082; &#1082;&#1086;&#1084;&#1085;&#1072;&#1090;&#1077;"><rect fill="#F1F1F1" height="46.2969" rx="2.5" ry="2.5" style="stroke:#181818;stroke-width:0.5;" width="236" x="30.5" y="1077"/><rect fill="#F1F1F1" height="10" style="stroke:#181818;stroke-width:0.5;" width="15" x="246.5" y="1082"/><rect fill="#F1F1F1" height="2" style="stroke:#181818;stroke-width:0.5;" width="4" x="244.5" y="1084"/><rect fill="#F1F1F1" height="2" style="stroke:#181818;stroke-width:0.5;" width="4" x="244.5" y="1088"/><text fill="#000000" font-family="sans-serif" font-size="14" lengthAdjust="spacing" textLength="196" x="45.5" y="1109.9951">&#1055;&#1088;&#1080;&#1089;&#1086;&#1077;&#1076;&#1080;&#1085;&#1077;&#1085;&#1080;&#1077; &#1082; &#1082;&#1086;&#1084;&#1085;&#1072;&#1090;&#1077;</text></g><!--entity ????? ?? ???????--><g id="elem_&#1042;&#1099;&#1093;&#1086;&#1076; &#1080;&#1079; &#1082;&#1086;&#1084;&#1085;&#1072;&#1090;&#1099;"><rect fill="#F1F1F1" height="46.2969" rx="2.5" ry="2.5" style="stroke:#181818;stroke-width:0.5;" width="176" x="404.5" y="1239"/><rect fill="#F1F1F1" height="10" style="stroke:#181818;stroke-width:0.5;" width="15" x="560.5" y="1244"/><rect fill="#F1F1F1" height="2" style="stroke:#181818;stroke-width:0.5;" width="4" x="558.5" y="1246"/><rect fill="#F1F1F1" height="2" style="stroke:#181818;stroke-width:0.5;" width="4" x="558.5" y="1250"/><text fill="#000000" font-family="sans-serif" font-size="14" lengthAdjust="spacing" textLength="136" x="419.5" y="1271.9951">&#1042;&#1099;&#1093;&#1086;&#1076; &#1080;&#1079; &#1082;&#1086;&#1084;&#1085;&#1072;&#1090;&#1099;</text></g><!--entity ????????????? ???????--><g id="elem_&#1040;&#1088;&#1093;&#1080;&#1074;&#1080;&#1088;&#1086;&#1074;&#1072;&#1085;&#1080;&#1077; &#1082;&#1086;&#1084;&#1085;&#1072;&#1090;&#1099;"><rect fill="#F1F1F1" height="46.2969" rx="2.5" ry="2.5" style="stroke:#181818;stroke-width:0.5;" width="220" x="382.5" y="1158"/><rect fill="#F1F1F1" height="10" style="stroke:#181818;stroke-width:0.5;" width="15" x="582.5" y="1163"/><rect fill="#F1F1F1" height="2" style="stroke:#181818;stroke-width:0.5;" width="4" x="580.5" y="1165"/><rect fill="#F1F1F1" height="2" style="stroke:#181818;stroke-width:0.5;" width="4" x="580.5" y="1169"/><text fill="#000000" font-family="sans-serif" font-size="14" lengthAdjust="spacing" textLength="180" x="397.5" y="1190.9951">&#1040;&#1088;&#1093;&#1080;&#1074;&#1080;&#1088;&#1086;&#1074;&#1072;&#1085;&#1080;&#1077; &#1082;&#1086;&#1084;&#1085;&#1072;&#1090;&#1099;</text></g><!--entity ???????? ???????? ???????--><g id="elem_&#1057;&#1086;&#1079;&#1076;&#1072;&#1085;&#1080;&#1077; &#1080;&#1075;&#1088;&#1086;&#1074;&#1086;&#1075;&#1086; &#1086;&#1073;&#1098;&#1077;&#1082;&#1090;&#1072;"><rect fill="#F1F1F1" height="46.2969" rx="2.5" ry="2.5" style="stroke:#181818;stroke-width:0.5;" width="249" x="735.5" y="1457"/><rect fill="#F1F1F1" height="10" style="stroke:#181818;stroke-width:0.5;" width="15" x="964.5" y="1462"/><rect fill="#F1F1F1" height="2" style="stroke:#181818;stroke-width:0.5;" width="4" x="962.5" y="1464"/><rect fill="#F1F1F1" height="2" style="stroke:#181818;stroke-width:0.5;" width="4" x="962.5" y="1468"/><text fill="#000000" font-family="sans-serif" font-size="14" lengthAdjust="spacing" textLength="209" x="750.5" y="1489.9951">&#1057;&#1086;&#1079;&#1076;&#1072;&#1085;&#1080;&#1077; &#1080;&#1075;&#1088;&#1086;&#1074;&#1086;&#1075;&#1086; &#1086;&#1073;&#1098;&#1077;&#1082;&#1090;&#1072;</text></g><!--entity ?????????????? ???????? ???????--><g id="elem_&#1056;&#1077;&#1076;&#1072;&#1082;&#1090;&#1080;&#1088;&#1086;&#1074;&#1072;&#1085;&#1080;&#1077; &#1080;&#1075;&#1088;&#1086;&#1074;&#1086;&#1075;&#1086; &#1086;&#1073;&#1098;&#1077;&#1082;&#1090;&#1072;"><rect fill="#F1F1F1" height="46.2969" rx="2.5" ry="2.5" style="stroke:#181818;stroke-width:0.5;" width="300" x="710" y="1376"/><rect fill="#F1F1F1" height="10" style="stroke:#181818;stroke-width:0.5;" width="15" x="990" y="1381"/><rect fill="#F1F1F1" height="2" style="stroke:#181818;stroke-width:0.5;" width="4" x="988" y="1383"/><rect fill="#F1F1F1" height="2" style="stroke:#181818;stroke-width:0.5;" width="4" x="988" y="1387"/><text fill="#000000" font-family="sans-serif" font-size="14" lengthAdjust="spacing" textLength="260" x="725" y="1408.9951">&#1056;&#1077;&#1076;&#1072;&#1082;&#1090;&#1080;&#1088;&#1086;&#1074;&#1072;&#1085;&#1080;&#1077; &#1080;&#1075;&#1088;&#1086;&#1074;&#1086;&#1075;&#1086; &#1086;&#1073;&#1098;&#1077;&#1082;&#1090;&#1072;</text></g><!--entity ???????? ???????? ???????--><g id="elem_&#1059;&#1076;&#1072;&#1083;&#1077;&#1085;&#1080;&#1077; &#1080;&#1075;&#1088;&#1086;&#1074;&#1086;&#1075;&#1086; &#1086;&#1073;&#1098;&#1077;&#1082;&#1090;&#1072;"><rect fill="#F1F1F1" height="46.2969" rx="2.5" ry="2.5" style="stroke:#181818;stroke-width:0.5;" width="248" x="736" y="1295"/><rect fill="#F1F1F1" height="10" style="stroke:#181818;stroke-width:0.5;" width="15" x="964" y="1300"/><rect fill="#F1F1F1" height="2" style="stroke:#181818;stroke-width:0.5;" width="4" x="962" y="1302"/><rect fill="#F1F1F1" height="2" style="stroke:#181818;stroke-width:0.5;" width="4" x="962" y="1306"/><text fill="#000000" font-family="sans-serif" font-size="14" lengthAdjust="spacing" textLength="208" x="751" y="1327.9951">&#1059;&#1076;&#1072;&#1083;&#1077;&#1085;&#1080;&#1077; &#1080;&#1075;&#1088;&#1086;&#1074;&#1086;&#1075;&#1086; &#1086;&#1073;&#1098;&#1077;&#1082;&#1090;&#1072;</text></g><!--entity ????????? ???????? ???????--><g id="elem_&#1055;&#1086;&#1083;&#1091;&#1095;&#1077;&#1085;&#1080;&#1077; &#1080;&#1075;&#1088;&#1086;&#1074;&#1086;&#1075;&#1086; &#1086;&#1073;&#1098;&#1077;&#1082;&#1090;&#1072;"><rect fill="#F1F1F1" height="46.2969" rx="2.5" ry="2.5" style="stroke:#181818;stroke-width:0.5;" width="256" x="1138.5" y="1457"/><rect fill="#F1F1F1" height="10" style="stroke:#181818;stroke-width:0.5;" width="15" x="1374.5" y="1462"/><rect fill="#F1F1F1" height="2" style="stroke:#181818;stroke-width:0.5;" width="4" x="1372.5" y="1464"/><rect fill="#F1F1F1" height="2" style="stroke:#181818;stroke-width:0.5;" width="4" x="1372.5" y="1468"/><text fill="#000000" font-family="sans-serif" font-size="14" lengthAdjust="spacing" textLength="216" x="1153.5" y="1489.9951">&#1055;&#1086;&#1083;&#1091;&#1095;&#1077;&#1085;&#1080;&#1077; &#1080;&#1075;&#1088;&#1086;&#1074;&#1086;&#1075;&#1086; &#1086;&#1073;&#1098;&#1077;&#1082;&#1090;&#1072;</text></g><!--entity ????? ?????? ??????? ????????--><g id="elem_&#1055;&#1086;&#1080;&#1089;&#1082; &#1089;&#1087;&#1080;&#1089;&#1082;&#1072; &#1080;&#1075;&#1088;&#1086;&#1074;&#1099;&#1093; &#1086;&#1073;&#1098;&#1077;&#1082;&#1090;&#1086;&#1074;"><rect fill="#F1F1F1" height="46.2969" rx="2.5" ry="2.5" style="stroke:#181818;stroke-width:0.5;" width="277" x="1128" y="1376"/><rect fill="#F1F1F1" height="10" style="stroke:#181818;stroke-width:0.5;" width="15" x="1385" y="1381"/><rect fill="#F1F1F1" height="2" style="stroke:#181818;stroke-width:0.5;" width="4" x="1383" y="1383"/><rect fill="#F1F1F1" height="2" style="stroke:#181818;stroke-width:0.5;" width="4" x="1383" y="1387"/><text fill="#000000" font-family="sans-serif" font-size="14" lengthAdjust="spacing" textLength="237" x="1143" y="1408.9951">&#1055;&#1086;&#1080;&#1089;&#1082; &#1089;&#1087;&#1080;&#1089;&#1082;&#1072; &#1080;&#1075;&#1088;&#1086;&#1074;&#1099;&#1093; &#1086;&#1073;&#1098;&#1077;&#1082;&#1090;&#1086;&#1074;</text></g><!--entity ???????? ???????????--><g id="elem_&#1057;&#1086;&#1079;&#1076;&#1072;&#1085;&#1080;&#1077; &#1087;&#1088;&#1086;&#1093;&#1086;&#1078;&#1076;&#1077;&#1085;&#1080;&#1103;"><rect fill="#F1F1F1" height="46.2969" rx="2.5" ry="2.5" style="stroke:#181818;stroke-width:0.5;" width="217" x="751.5" y="1174"/><rect fill="#F1F1F1" height="10" style="stroke:#181818;stroke-width:0.5;" width="15" x="948.5" y="1179"/><rect fill="#F1F1F1" height="2" style="stroke:#181818;stroke-width:0.5;" width="4" x="946.5" y="1181"/><rect fill="#F1F1F1" height="2" style="stroke:#181818;stroke-width:0.5;" width="4" x="946.5" y="1185"/><text fill="#000000" font-family="sans-serif" font-size="14" lengthAdjust="spacing" textLength="177" x="766.5" y="1206.9951">&#1057;&#1086;&#1079;&#1076;&#1072;&#1085;&#1080;&#1077; &#1087;&#1088;&#1086;&#1093;&#1086;&#1078;&#1076;&#1077;&#1085;&#1080;&#1103;</text></g><!--entity ????????? ???????? ???????--><g id="elem_&#1043;&#1077;&#1085;&#1077;&#1088;&#1072;&#1094;&#1080;&#1103; &#1080;&#1075;&#1088;&#1086;&#1074;&#1086;&#1075;&#1086; &#1086;&#1073;&#1098;&#1077;&#1082;&#1090;&#1072;"><rect fill="#F1F1F1" height="46.2969" rx="2.5" ry="2.5" style="stroke:#181818;stroke-width:0.5;" width="256" x="732" y="1093"/><rect fill="#F1F1F1" height="10" style="stroke:#181818;stroke-width:0.5;" width="15" x="968" y="1098"/><rect fill="#F1F1F1" height="2" style="stroke:#181818;stroke-width:0.5;" width="4" x="966" y="1100"/><rect fill="#F1F1F1" height="2" style="stroke:#181818;stroke-width:0.5;" width="4" x="966" y="1104"/><text fill="#000000" font-family="sans-serif" font-size="14" lengthAdjust="spacing" textLength="216" x="747" y="1125.9951">&#1043;&#1077;&#1085;&#1077;&#1088;&#1072;&#1094;&#1080;&#1103; &#1080;&#1075;&#1088;&#1086;&#1074;&#1086;&#1075;&#1086; &#1086;&#1073;&#1098;&#1077;&#1082;&#1090;&#1072;</text></g><!--entity ????????? ???????? ???????--><g id="elem_&#1048;&#1079;&#1084;&#1077;&#1085;&#1077;&#1085;&#1080;&#1077; &#1080;&#1075;&#1088;&#1086;&#1074;&#1086;&#1075;&#1086; &#1086;&#1073;&#1098;&#1077;&#1082;&#1090;&#1072;"><rect fill="#F1F1F1" height="46.2969" rx="2.5" ry="2.5" style="stroke:#181818;stroke-width:0.5;" width="259" x="730.5" y="1012"/><rect fill="#F1F1F1" height="10" style="stroke:#181818;stroke-width:0.5;" width="15" x="969.5" y="1017"/><rect fill="#F1F1F1" height="2" style="stroke:#181818;stroke-width:0.5;" width="4" x="967.5" y="1019"/><rect fill="#F1F1F1" height="2" style="stroke:#181818;stroke-width:0.5;" width="4" x="967.5" y="1023"/><text fill="#000000" font-family="sans-serif" font-size="14" lengthAdjust="spacing" textLength="219" x="745.5" y="1044.9951">&#1048;&#1079;&#1084;&#1077;&#1085;&#1077;&#1085;&#1080;&#1077; &#1080;&#1075;&#1088;&#1086;&#1074;&#1086;&#1075;&#1086; &#1086;&#1073;&#1098;&#1077;&#1082;&#1090;&#1072;</text></g><!--entity ?????? ?? ????????? ???????? ???????--><g id="elem_&#1047;&#1072;&#1087;&#1080;&#1089;&#1100; &#1086;&#1073; &#1080;&#1079;&#1084;&#1077;&#1085;&#1077;&#1085;&#1080;&#1080; &#1080;&#1075;&#1088;&#1086;&#1074;&#1086;&#1075;&#1086; &#1086;&#1073;&#1098;&#1077;&#1082;&#1090;&#1072;"><rect fill="#F1F1F1" height="46.2969" rx="2.5" ry="2.5" style="stroke:#181818;stroke-width:0.5;" width="335" x="1099" y="1174"/><rect fill="#F1F1F1" height="10" style="stroke:#181818;stroke-width:0.5;" width="15" x="1414" y="1179"/><rect fill="#F1F1F1" height="2" style="stroke:#181818;stroke-width:0.5;" width="4" x="1412" y="1181"/><rect fill="#F1F1F1" height="2" style="stroke:#181818;stroke-width:0.5;" width="4" x="1412" y="1185"/><text fill="#000000" font-family="sans-serif" font-size="14" lengthAdjust="spacing" textLength="295" x="1114" y="1206.9951">&#1047;&#1072;&#1087;&#1080;&#1089;&#1100; &#1086;&#1073; &#1080;&#1079;&#1084;&#1077;&#1085;&#1077;&#1085;&#1080;&#1080; &#1080;&#1075;&#1088;&#1086;&#1074;&#1086;&#1075;&#1086; &#1086;&#1073;&#1098;&#1077;&#1082;&#1090;&#1072;</text></g><!--entity ????????? ??????? ?? ??????? ???????--><g id="elem_&#1055;&#1086;&#1083;&#1091;&#1095;&#1077;&#1085;&#1080;&#1077; &#1079;&#1072;&#1087;&#1080;&#1089;&#1077;&#1081; &#1086;&#1073; &#1080;&#1075;&#1088;&#1086;&#1074;&#1086;&#1084; &#1086;&#1073;&#1098;&#1077;&#1082;&#1090;&#1077;"><rect fill="#F1F1F1" height="46.2969" rx="2.5" ry="2.5" style="stroke:#181818;stroke-width:0.5;" width="337" x="1098" y="1093"/><rect fill="#F1F1F1" height="10" style="stroke:#181818;stroke-width:0.5;" width="15" x="1415" y="1098"/><rect fill="#F1F1F1" height="2" style="stroke:#181818;stroke-width:0.5;" width="4" x="1413" y="1100"/><rect fill="#F1F1F1" height="2" style="stroke:#181818;stroke-width:0.5;" width="4" x="1413" y="1104"/><text fill="#000000" font-family="sans-serif" font-size="14" lengthAdjust="spacing" textLength="297" x="1113" y="1125.9951">&#1055;&#1086;&#1083;&#1091;&#1095;&#1077;&#1085;&#1080;&#1077; &#1079;&#1072;&#1087;&#1080;&#1089;&#1077;&#1081; &#1086;&#1073; &#1080;&#1075;&#1088;&#1086;&#1074;&#1086;&#1084; &#1086;&#1073;&#1098;&#1077;&#1082;&#1090;&#1077;</text></g><!--entity ????????? ????????? ?????? ??????? ????????--><g id="elem_&#1055;&#1086;&#1083;&#1091;&#1095;&#1077;&#1085;&#1080;&#1077; &#1089;&#1086;&#1089;&#1090;&#1086;&#1103;&#1085;&#1080;&#1103; &#1089;&#1087;&#1080;&#1089;&#1082;&#1072; &#1080;&#1075;&#1088;&#1086;&#1074;&#1099;&#1093; &#1086;&#1073;&#1098;&#1077;&#1082;&#1090;&#1086;&#1074;"><rect fill="#F1F1F1" height="46.2969" rx="2.5" ry="2.5" style="stroke:#181818;stroke-width:0.5;" width="393" x="1070" y="1012"/><rect fill="#F1F1F1" height="10" style="stroke:#181818;stroke-width:0.5;" width="15" x="1443" y="1017"/><rect fill="#F1F1F1" height="2" style="stroke:#181818;stroke-width:0.5;" width="4" x="1441" y="1019"/><rect fill="#F1F1F1" height="2" style="stroke:#181818;stroke-width:0.5;" width="4" x="1441" y="1023"/><text fill="#000000" font-family="sans-serif" font-size="14" lengthAdjust="spacing" textLength="353" x="1085" y="1044.9951">&#1055;&#1086;&#1083;&#1091;&#1095;&#1077;&#1085;&#1080;&#1077; &#1089;&#1086;&#1089;&#1090;&#1086;&#1103;&#1085;&#1080;&#1103; &#1089;&#1087;&#1080;&#1089;&#1082;&#1072; &#1080;&#1075;&#1088;&#1086;&#1074;&#1099;&#1093; &#1086;&#1073;&#1098;&#1077;&#1082;&#1090;&#1086;&#1074;</text></g><!--entity ?????? ?????????--><g id="elem_&#1047;&#1072;&#1087;&#1088;&#1086;&#1089; &#1087;&#1086;&#1076;&#1089;&#1082;&#1072;&#1079;&#1086;&#1082;"><rect fill="#F1F1F1" height="46.2969" rx="2.5" ry="2.5" style="stroke:#181818;stroke-width:0.5;" width="173" x="62" y="41"/><rect fill="#F1F1F1" height="10" style="stroke:#181818;stroke-width:0.5;" width="15" x="215" y="46"/><rect fill="#F1F1F1" height="2" style="stroke:#181818;stroke-width:0.5;" width="4" x="213" y="48"/><rect fill="#F1F1F1" height="2" style="stroke:#181818;stroke-width:0.5;" width="4" x="213" y="52"/><text fill="#000000" font-family="sans-serif" font-size="14" lengthAdjust="spacing" textLength="133" x="77" y="73.9951">&#1047;&#1072;&#1087;&#1088;&#1086;&#1089; &#1087;&#1086;&#1076;&#1089;&#1082;&#1072;&#1079;&#1086;&#1082;</text></g><!--entity ????????? ?????????--><g id="elem_&#1053;&#1072;&#1089;&#1090;&#1088;&#1086;&#1081;&#1082;&#1072; &#1087;&#1086;&#1076;&#1089;&#1082;&#1072;&#1079;&#1086;&#1082;"><rect fill="#F1F1F1" height="46.2969" rx="2.5" ry="2.5" style="stroke:#181818;stroke-width:0.5;" width="199" x="49" y="122"/><rect fill="#F1F1F1" height="10" style="stroke:#181818;stroke-width:0.5;" width="15" x="228" y="127"/><rect fill="#F1F1F1" height="2" style="stroke:#181818;stroke-width:0.5;" width="4" x="226" y="129"/><rect fill="#F1F1F1" height="2" style="stroke:#181818;stroke-width:0.5;" width="4" x="226" y="133"/><text fill="#000000" font-family="sans-serif" font-size="14" lengthAdjust="spacing" textLength="159" x="64" y="154.9951">&#1053;&#1072;&#1089;&#1090;&#1088;&#1086;&#1081;&#1082;&#1072; &#1087;&#1086;&#1076;&#1089;&#1082;&#1072;&#1079;&#1086;&#1082;</text></g><!--entity IO--><g id="elem_IO"><ellipse cx="148.5" cy="1659" fill="#F1F1F1" rx="8" ry="8" style="stroke:#181818;stroke-width:0.5;"/><path d="M148.5,1667 L148.5,1694 M135.5,1675 L161.5,1675 M148.5,1694 L135.5,1709 M148.5,1694 L161.5,1709 " fill="none" style="stroke:#181818;stroke-width:0.5;"/><text fill="#000000" font-family="sans-serif" font-size="14" lengthAdjust="spacing" textLength="85" x="106" y="1723.4951">&#1048;&#1085;&#1090;&#1077;&#1088;&#1092;&#1077;&#1081;&#1089;</text><text fill="#000000" font-family="sans-serif" font-size="14" lengthAdjust="spacing" textLength="79" x="106" y="1739.792">&#1074;&#1083;&#1072;&#1076;&#1077;&#1083;&#1100;&#1094;&#1072;</text></g><!--entity IE--><g id="elem_IE"><ellipse cx="148.5" cy="1787" fill="#F1F1F1" rx="8" ry="8" style="stroke:#181818;stroke-width:0.5;"/><path d="M148.5,1795 L148.5,1822 M135.5,1803 L161.5,1803 M148.5,1822 L135.5,1837 M148.5,1822 L161.5,1837 " fill="none" style="stroke:#181818;stroke-width:0.5;"/><text fill="#000000" font-family="sans-serif" font-size="14" lengthAdjust="spacing" textLength="85" x="106" y="1851.4951">&#1048;&#1085;&#1090;&#1077;&#1088;&#1092;&#1077;&#1081;&#1089;</text><text fill="#000000" font-family="sans-serif" font-size="14" lengthAdjust="spacing" textLength="79" x="106" y="1867.792">&#1088;&#1077;&#1076;&#1072;&#1082;&#1090;&#1086;&#1088;&#1072;</text></g><!--entity IP--><g id="elem_IP"><ellipse cx="148.5" cy="1915" fill="#F1F1F1" rx="8" ry="8" style="stroke:#181818;stroke-width:0.5;"/><path d="M148.5,1923 L148.5,1950 M135.5,1931 L161.5,1931 M148.5,1950 L135.5,1965 M148.5,1950 L161.5,1965 " fill="none" style="stroke:#181818;stroke-width:0.5;"/><text fill="#000000" font-family="sans-serif" font-size="14" lengthAdjust="spacing" textLength="85" x="106" y="1979.4951">&#1048;&#1085;&#1090;&#1077;&#1088;&#1092;&#1077;&#1081;&#1089;</text><text fill="#000000" font-family="sans-serif" font-size="14" lengthAdjust="spacing" textLength="50" x="106" y="1995.792">&#1080;&#1075;&#1088;&#1086;&#1082;&#1072;</text></g><!--entity ID--><g id="elem_ID"><ellipse cx="492.5" cy="1659" fill="#F1F1F1" rx="8" ry="8" style="stroke:#181818;stroke-width:0.5;"/><path d="M492.5,1667 L492.5,1694 M479.5,1675 L505.5,1675 M492.5,1694 L479.5,1709 M492.5,1694 L505.5,1709 " fill="none" style="stroke:#181818;stroke-width:0.5;"/><text fill="#000000" font-family="sans-serif" font-size="14" lengthAdjust="spacing" textLength="85" x="450" y="1723.4951">&#1048;&#1085;&#1090;&#1077;&#1088;&#1092;&#1077;&#1081;&#1089;</text><text fill="#000000" font-family="sans-serif" font-size="14" lengthAdjust="spacing" textLength="73" x="450" y="1739.792">&#1074;&#1077;&#1076;&#1091;&#1097;&#1077;&#1075;&#1086;</text></g><!--entity Discord--><g id="elem_Discord"><path d="M115.3178,989.1899 C117.8731,984.2335 122.1562,983.0665 126.1728,987.5007 C129.7662,981.1635 135.2666,982.0034 139.1129,987.2173 C141.756,982.0347 147.3524,981.4058 150.6455,986.4869 C153.3004,982.3822 157.0703,981.987 159.7451,986.4659 C164.2813,980.8828 169.9175,982.5546 172.3693,988.708 C176.9112,982.9693 180.3392,983.2764 183.6411,989.8438 C191.044,992.7304 191.1853,999.1059 186.0458,1004.1071 C191.6483,1010.1114 189.8591,1014.9809 183.1503,1018.5102 C182.5798,1025.36 176.8799,1026.7816 172.1861,1022.6133 C170.9021,1028.6934 165.7196,1030.1919 161.2045,1026.1024 C158.4153,1032.1904 153.9341,1033.337 149.0213,1028.4626 C144.1265,1032.7084 141.1237,1031.9052 139.1558,1025.6998 C134.3293,1030.0528 129.1361,1029.0716 127.5734,1022.3014 C123.3428,1027.1409 118.9942,1025.7088 116.8636,1020.1405 C107.6873,1018.3159 105.852,1011.8064 110.8889,1004.5388 C105.2817,998.4032 106.6367,991.2028 115.3178,989.1899 " fill="#F1F1F1" style="stroke:#181818;stroke-width:0.5;"/><text fill="#000000" font-family="sans-serif" font-size="14" lengthAdjust="spacing" textLength="53" x="122" y="1007.9951">Discord</text></g><!--entity OAuth2-?????????--><g id="elem_OAuth2-&#1087;&#1088;&#1086;&#1074;&#1072;&#1081;&#1076;&#1077;&#1088;"><path d="M74.2263,907.4404 C78.5892,901.2985 82.7296,902.3131 86.5022,908.0505 C90.4516,901.1191 94.5469,901.5204 99.3493,907.1801 C103.0588,901.9542 107.4529,901.0528 111.0807,907.2639 C114.8732,900.402 119.8033,898.7451 125.2819,905.5062 C129.1586,900.2387 132.5554,900.647 136.1356,905.8145 C139.364,898.9784 145.8066,899.074 149.7557,905.0483 C153.5219,899.1821 158.4166,899.3457 161.9723,905.2664 C166.4562,898.9018 171.9517,900.0542 175.843,905.9375 C178.8572,900.3152 184.3947,901.6986 187.0837,906.2952 C191.3238,900.0044 197.6574,901.0691 200.47,907.7664 C203.8871,901.5879 209.7609,902.804 212.61,908.3544 C216.382,901.5241 221.2241,901.8235 225.8489,907.4478 C233.6969,910.8721 235.6494,917.5166 229.2145,923.8683 C235.364,930.1246 231.8766,936.629 224.4623,938.4712 C221.6391,945.2957 216.7422,945.542 211.8613,940.6922 C208.3329,946.2204 203.6148,946.3304 199.5067,941.3754 C197.2504,948.9506 191.3048,948.7035 186.4207,944.2292 C183.2293,950.9815 178.3388,951.1957 174.3281,944.994 C171.3431,950.7726 165.527,952.7367 161.3253,946.2879 C158.9301,952.9957 155.5609,953.4712 150.5147,948.8084 C144.7236,955.8105 140.1987,954.492 136.1104,947.104 C132.0356,952.4307 127.1973,951.4647 124.9651,945.3146 C120.084,950.7063 116.1752,951.2636 112.549,944.0759 C107.0796,950.9099 102.1988,948.7605 98.6256,942.117 C94.2888,947.296 89.8253,946.349 86.623,940.8426 C82.8215,945.2684 77.1708,944.9045 74.7653,939.2073 C64.6704,937.8008 61.2597,932.5286 66.5488,923.2171 C61.5463,915.4795 63.5257,907.5365 74.2263,907.4404 " fill="#F1F1F1" style="stroke:#181818;stroke-width:0.5;"/><text fill="#000000" font-family="sans-serif" font-size="14" lengthAdjust="spacing" textLength="137" x="80" y="926.9951">OAuth2-&#1087;&#1088;&#1086;&#1074;&#1072;&#1081;&#1076;&#1077;&#1088;</text></g><g id="elem_GMN8"><path d="M335,990.5 L335,999 L190.07,1003 L335,1007 L335,1015.6328 A0,0 0 0 0 335,1015.6328 L650,1015.6328 A0,0 0 0 0 650,1015.6328 L650,1000.5 L640,990.5 L335,990.5 A0,0 0 0 0 335,990.5 " fill="#FEFFDD" style="stroke:#181818;stroke-width:0.5;"/><path d="M640,990.5 L640,1000.5 L650,1000.5 L640,990.5 " fill="#FEFFDD" style="stroke:#181818;stroke-width:0.5;"/><text fill="#000000" font-family="sans-serif" font-size="13" lengthAdjust="spacing" textLength="294" x="341" y="1007.5669">&#1090;&#1077;&#1082;&#1089;&#1090;&#1086;&#1074;&#1099;&#1081; &#1080; &#1075;&#1086;&#1083;&#1086;&#1089;&#1086;&#1074;&#1086;&#1081; &#1082;&#1072;&#1085;&#1072;&#1083;&#1099; &#1085;&#1072; &#1089;&#1077;&#1088;&#1074;&#1077;&#1088;&#1077;</text></g><g id="elem_GMN11"><path d="M367,909.5 L367,918 L232.29,922 L367,926 L367,934.6328 A0,0 0 0 0 367,934.6328 L618,934.6328 A0,0 0 0 0 618,934.6328 L618,919.5 L608,909.5 L367,909.5 A0,0 0 0 0 367,909.5 " fill="#FEFFDD" style="stroke:#181818;stroke-width:0.5;"/><path d="M608,909.5 L608,919.5 L618,919.5 L608,909.5 " fill="#FEFFDD" style="stroke:#181818;stroke-width:0.5;"/><text fill="#000000" font-family="sans-serif" font-size="13" lengthAdjust="spacing" textLength="230" x="373" y="926.5669">&#1074;&#1085;&#1077;&#1096;&#1085;&#1080;&#1081; &#1089;&#1077;&#1088;&#1074;&#1080;&#1089; &#1072;&#1091;&#1090;&#1077;&#1085;&#1090;&#1080;&#1092;&#1080;&#1082;&#1072;&#1094;&#1080;&#1080;</text></g><!--entity ????????????, ?????,\n??????? ???????,\n????????? ?????????--><g id="elem_&#1055;&#1086;&#1083;&#1100;&#1079;&#1086;&#1074;&#1072;&#1090;&#1077;&#1083;&#1080;, &#1087;&#1088;&#1072;&#1074;&#1072;,\n&#1080;&#1075;&#1088;&#1086;&#1074;&#1099;&#1077; &#1082;&#1086;&#1084;&#1085;&#1072;&#1090;&#1099;,\n&#1086;&#1073;&#1091;&#1095;&#1072;&#1102;&#1097;&#1080;&#1077; &#1084;&#1072;&#1090;&#1077;&#1088;&#1080;&#1072;&#1083;&#1099;"><path d="M397,1789 C397,1779 492.5,1779 492.5,1779 C492.5,1779 588,1779 588,1789 L588,1846.8906 C588,1856.8906 492.5,1856.8906 492.5,1856.8906 C492.5,1856.8906 397,1856.8906 397,1846.8906 L397,1789 " fill="#F1F1F1" style="stroke:#181818;stroke-width:0.5;"/><path d="M397,1789 C397,1799 492.5,1799 492.5,1799 C492.5,1799 588,1799 588,1789 " fill="none" style="stroke:#181818;stroke-width:0.5;"/><text fill="#000000" font-family="sans-serif" font-size="14" lengthAdjust="spacing" textLength="159" x="407" y="1815.9951">&#1055;&#1086;&#1083;&#1100;&#1079;&#1086;&#1074;&#1072;&#1090;&#1077;&#1083;&#1080;, &#1087;&#1088;&#1072;&#1074;&#1072;,</text><text fill="#000000" font-family="sans-serif" font-size="14" lengthAdjust="spacing" textLength="134" x="407" y="1832.292">&#1080;&#1075;&#1088;&#1086;&#1074;&#1099;&#1077; &#1082;&#1086;&#1084;&#1085;&#1072;&#1090;&#1099;,</text><text fill="#000000" font-family="sans-serif" font-size="14" lengthAdjust="spacing" textLength="171" x="407" y="1848.5889">&#1086;&#1073;&#1091;&#1095;&#1072;&#1102;&#1097;&#1080;&#1077; &#1084;&#1072;&#1090;&#1077;&#1088;&#1080;&#1072;&#1083;&#1099;</text></g><!--entity ????????? ?????????--><g id="elem_&#1054;&#1073;&#1091;&#1095;&#1072;&#1102;&#1097;&#1080;&#1077; &#1084;&#1072;&#1090;&#1077;&#1088;&#1080;&#1072;&#1083;&#1099;"><path d="M396,1580.5 C396,1570.5 492.5,1570.5 492.5,1570.5 C492.5,1570.5 589,1570.5 589,1580.5 L589,1605.7969 C589,1615.7969 492.5,1615.7969 492.5,1615.7969 C492.5,1615.7969 396,1615.7969 396,1605.7969 L396,1580.5 " fill="#F1F1F1" style="stroke:#181818;stroke-width:0.5;"/><path d="M396,1580.5 C396,1590.5 492.5,1590.5 492.5,1590.5 C492.5,1590.5 589,1590.5 589,1580.5 " fill="none" style="stroke:#181818;stroke-width:0.5;"/><text fill="#000000" font-family="sans-serif" font-size="14" lengthAdjust="spacing" textLength="173" x="406" y="1607.4951">&#1054;&#1073;&#1091;&#1095;&#1072;&#1102;&#1097;&#1080;&#1077; &#1084;&#1072;&#1090;&#1077;&#1088;&#1080;&#1072;&#1083;&#1099;</text></g><g id="elem_bookDb"><path d="M397,775.5 L397,830.8984 L588,830.8984 L588,785.5 L578,775.5 L397,775.5 " fill="#FEFFDD" style="stroke:#181818;stroke-width:0.5;"/><path d="M578,775.5 L578,785.5 L588,785.5 L578,775.5 " fill="#FEFFDD" style="stroke:#181818;stroke-width:1.0;"/><text fill="#000000" font-family="sans-serif" font-size="13" lengthAdjust="spacing" textLength="170" x="403" y="792.5669">&#1054;&#1073;&#1098;&#1077;&#1082;&#1090;&#1099; &#1089;&#1086; &#1089;&#1074;&#1086;&#1081;&#1089;&#1090;&#1074;&#1072;&#1084;&#1080;,</text><text fill="#000000" font-family="sans-serif" font-size="13" lengthAdjust="spacing" textLength="136" x="403" y="807.6997">&#1087;&#1086;&#1080;&#1089;&#1082;, &#1092;&#1080;&#1083;&#1100;&#1090;&#1088;&#1072;&#1094;&#1080;&#1103;,</text><text fill="#000000" font-family="sans-serif" font-size="13" lengthAdjust="spacing" textLength="92" x="403" y="822.8325">&#1086;&#1073;&#1098;&#1077;&#1076;&#1080;&#1085;&#1077;&#1085;&#1080;&#1077;</text></g><!--entity D&D 5--><g id="elem_D&amp;D 5"><path d="M115,748.5 C115,738.5 148.5,738.5 148.5,738.5 C148.5,738.5 182,738.5 182,748.5 L182,773.7969 C182,783.7969 148.5,783.7969 148.5,783.7969 C148.5,783.7969 115,783.7969 115,773.7969 L115,748.5 " fill="#F1F1F1" style="stroke:#181818;stroke-width:0.5;"/><path d="M115,748.5 C115,758.5 148.5,758.5 148.5,758.5 C148.5,758.5 182,758.5 182,748.5 " fill="none" style="stroke:#181818;stroke-width:0.5;"/><text fill="#000000" font-family="sans-serif" font-size="14" lengthAdjust="spacing" textLength="47" x="125" y="775.4951">D&amp;D 5</text></g><!--entity Pathfinder 2--><g id="elem_Pathfinder 2"><path d="M97,828.5 C97,818.5 148.5,818.5 148.5,818.5 C148.5,818.5 200,818.5 200,828.5 L200,853.7969 C200,863.7969 148.5,863.7969 148.5,863.7969 C148.5,863.7969 97,863.7969 97,853.7969 L97,828.5 " fill="#F1F1F1" style="stroke:#181818;stroke-width:0.5;"/><path d="M97,828.5 C97,838.5 148.5,838.5 148.5,838.5 C148.5,838.5 200,838.5 200,828.5 " fill="none" style="stroke:#181818;stroke-width:0.5;"/><text fill="#000000" font-family="sans-serif" font-size="14" lengthAdjust="spacing" textLength="83" x="107" y="855.4951">Pathfinder 2</text></g><!--entity ?????, ??????? ?? ?????--><g id="elem_&#1050;&#1072;&#1088;&#1090;&#1099;, &#1086;&#1073;&#1098;&#1077;&#1082;&#1090;&#1099; &#1085;&#1072; &#1082;&#1072;&#1088;&#1090;&#1077;"><path d="M44.5,668.5 C44.5,658.5 148.5,658.5 148.5,658.5 C148.5,658.5 252.5,658.5 252.5,668.5 L252.5,693.7969 C252.5,703.7969 148.5,703.7969 148.5,703.7969 C148.5,703.7969 44.5,703.7969 44.5,693.7969 L44.5,668.5 " fill="#F1F1F1" style="stroke:#181818;stroke-width:0.5;"/><path d="M44.5,668.5 C44.5,678.5 148.5,678.5 148.5,678.5 C148.5,678.5 252.5,678.5 252.5,668.5 " fill="none" style="stroke:#181818;stroke-width:0.5;"/><text fill="#000000" font-family="sans-serif" font-size="14" lengthAdjust="spacing" textLength="188" x="54.5" y="695.4951">&#1050;&#1072;&#1088;&#1090;&#1099;, &#1086;&#1073;&#1098;&#1077;&#1082;&#1090;&#1099; &#1085;&#1072; &#1082;&#1072;&#1088;&#1090;&#1077;</text></g><g id="elem_GMN52"><path d="M426.5,661 L426.5,677 L252.58,681 L426.5,685 L426.5,701.2656 A0,0 0 0 0 426.5,701.2656 L558.5,701.2656 A0,0 0 0 0 558.5,701.2656 L558.5,671 L548.5,661 L426.5,661 A0,0 0 0 0 426.5,661 " fill="#FEFFDD" style="stroke:#181818;stroke-width:0.5;"/><path d="M548.5,661 L548.5,671 L558.5,671 L548.5,661 " fill="#FEFFDD" style="stroke:#181818;stroke-width:0.5;"/><text fill="#000000" font-family="sans-serif" font-size="13" lengthAdjust="spacing" textLength="49" x="432.5" y="678.0669">&#1092;&#1072;&#1081;&#1083;&#1099;,</text><text fill="#000000" font-family="sans-serif" font-size="13" lengthAdjust="spacing" textLength="111" x="432.5" y="693.1997">&#1088;&#1072;&#1079;&#1084;&#1077;&#1088;&#1099; &#1076;&#1086; 1&#1052;&#1073;</text></g><!--entity ???????--><g id="elem_&#1061;&#1088;&#1086;&#1085;&#1080;&#1082;&#1072;"><path d="M108,585.5 C108,575.5 148.5,575.5 148.5,575.5 C148.5,575.5 189,575.5 189,585.5 L189,610.7969 C189,620.7969 148.5,620.7969 148.5,620.7969 C148.5,620.7969 108,620.7969 108,610.7969 L108,585.5 " fill="#F1F1F1" style="stroke:#181818;stroke-width:0.5;"/><path d="M108,585.5 C108,595.5 148.5,595.5 148.5,595.5 C148.5,595.5 189,595.5 189,585.5 " fill="none" style="stroke:#181818;stroke-width:0.5;"/><text fill="#000000" font-family="sans-serif" font-size="14" lengthAdjust="spacing" textLength="61" x="118" y="612.4951">&#1061;&#1088;&#1086;&#1085;&#1080;&#1082;&#1072;</text></g><g id="elem_GMN56"><path d="M407,570.5 L407,594 L189.07,598 L407,602 L407,625.8984 A0,0 0 0 0 407,625.8984 L578,625.8984 A0,0 0 0 0 578,625.8984 L578,580.5 L568,570.5 L407,570.5 A0,0 0 0 0 407,570.5 " fill="#FEFFDD" style="stroke:#181818;stroke-width:0.5;"/><path d="M568,570.5 L568,580.5 L578,580.5 L568,570.5 " fill="#FEFFDD" style="stroke:#181818;stroke-width:0.5;"/><text fill="#000000" font-family="sans-serif" font-size="13" lengthAdjust="spacing" textLength="150" x="413" y="587.5669">&#1074;&#1089;&#1077; &#1080;&#1075;&#1088;&#1086;&#1074;&#1099;&#1077; &#1089;&#1086;&#1073;&#1099;&#1090;&#1080;&#1103;,</text><text fill="#000000" font-family="sans-serif" font-size="13" lengthAdjust="spacing" textLength="107" x="413" y="602.6997">&#1084;&#1085;&#1086;&#1075;&#1086; &#1076;&#1077;&#1090;&#1072;&#1083;&#1077;&#1081;,</text><text fill="#000000" font-family="sans-serif" font-size="13" lengthAdjust="spacing" textLength="98" x="413" y="617.8325">&#1084;&#1085;&#1086;&#1075;&#1086; &#1079;&#1072;&#1087;&#1080;&#1089;&#1077;&#1081;</text></g><!--entity ?????? ???????????--><g id="elem_&#1044;&#1072;&#1085;&#1085;&#1099;&#1077; &#1087;&#1088;&#1086;&#1093;&#1086;&#1078;&#1076;&#1077;&#1085;&#1080;&#1103;"><path d="M57,495.5 C57,485.5 148.5,485.5 148.5,485.5 C148.5,485.5 240,485.5 240,495.5 L240,520.7969 C240,530.7969 148.5,530.7969 148.5,530.7969 C148.5,530.7969 57,530.7969 57,520.7969 L57,495.5 " fill="#F1F1F1" style="stroke:#181818;stroke-width:0.5;"/><path d="M57,495.5 C57,505.5 148.5,505.5 148.5,505.5 C148.5,505.5 240,505.5 240,495.5 " fill="none" style="stroke:#181818;stroke-width:0.5;"/><text fill="#000000" font-family="sans-serif" font-size="14" lengthAdjust="spacing" textLength="163" x="67" y="522.4951">&#1044;&#1072;&#1085;&#1085;&#1099;&#1077; &#1087;&#1088;&#1086;&#1093;&#1086;&#1078;&#1076;&#1077;&#1085;&#1080;&#1103;</text></g><g id="elem_GMN60"><path d="M434,480.5 L434,504 L240.25,508 L434,512 L434,535.8984 A0,0 0 0 0 434,535.8984 L551,535.8984 A0,0 0 0 0 551,535.8984 L551,490.5 L541,480.5 L434,480.5 A0,0 0 0 0 434,480.5 " fill="#FEFFDD" style="stroke:#181818;stroke-width:0.5;"/><path d="M541,480.5 L541,490.5 L551,490.5 L541,480.5 " fill="#FEFFDD" style="stroke:#181818;stroke-width:0.5;"/><text fill="#000000" font-family="sans-serif" font-size="13" lengthAdjust="spacing" textLength="92" x="440" y="497.5669">&#1087;&#1072;&#1090;&#1095; &#1093;&#1088;&#1086;&#1085;&#1080;&#1082;&#1080;</text><text fill="#000000" font-family="sans-serif" font-size="13" lengthAdjust="spacing" textLength="82" x="440" y="512.6997">&#1087;&#1086; &#1082;&#1072;&#1078;&#1076;&#1086;&#1084;&#1091;</text><text fill="#000000" font-family="sans-serif" font-size="13" lengthAdjust="spacing" textLength="96" x="440" y="527.8325">&#1087;&#1088;&#1086;&#1093;&#1086;&#1078;&#1076;&#1077;&#1085;&#1080;&#1102;</text></g><!--entity ?????? ?????????--><g id="elem_&#1044;&#1072;&#1085;&#1085;&#1099;&#1077; &#1087;&#1086;&#1076;&#1089;&#1082;&#1072;&#1079;&#1086;&#1082;"><path d="M69,415.5 C69,405.5 148.5,405.5 148.5,405.5 C148.5,405.5 228,405.5 228,415.5 L228,440.7969 C228,450.7969 148.5,450.7969 148.5,450.7969 C148.5,450.7969 69,450.7969 69,440.7969 L69,415.5 " fill="#F1F1F1" style="stroke:#181818;stroke-width:0.5;"/><path d="M69,415.5 C69,425.5 148.5,425.5 148.5,425.5 C148.5,425.5 228,425.5 228,415.5 " fill="none" style="stroke:#181818;stroke-width:0.5;"/><text fill="#000000" font-family="sans-serif" font-size="14" lengthAdjust="spacing" textLength="139" x="79" y="442.4951">&#1044;&#1072;&#1085;&#1085;&#1099;&#1077; &#1087;&#1086;&#1076;&#1089;&#1082;&#1072;&#1079;&#1086;&#1082;</text></g><g id="elem_GMN64"><path d="M376,415.5 L376,424 L228.39,428 L376,432 L376,440.6328 A0,0 0 0 0 376,440.6328 L609,440.6328 A0,0 0 0 0 609,440.6328 L609,425.5 L599,415.5 L376,415.5 A0,0 0 0 0 376,415.5 " fill="#FEFFDD" style="stroke:#181818;stroke-width:0.5;"/><path d="M599,415.5 L599,425.5 L609,425.5 L599,415.5 " fill="#FEFFDD" style="stroke:#181818;stroke-width:0.5;"/><text fill="#000000" font-family="sans-serif" font-size="13" lengthAdjust="spacing" textLength="212" x="382" y="432.5669">&#1048;&#1090;&#1086;&#1075;&#1086;&#1074;&#1099;&#1077; &#1096;&#1072;&#1073;&#1083;&#1086;&#1085;&#1099; &#1089;&#1086;&#1086;&#1073;&#1097;&#1077;&#1085;&#1080;&#1081;</text></g><!--link D&D 5 to bookDb--><g id="link_D&amp;D 5_bookDb"><path d="M182.29,765.03 C231.19,771.03 325.14,782.57 396.7,791.36 " fill="none" id="D&amp;D 5-bookDb" style="stroke:#181818;stroke-width:1.0;stroke-dasharray:7.0,7.0;"/></g><!--link Pathfinder 2 to bookDb--><g id="link_Pathfinder 2_bookDb"><path d="M200.33,835.35 C251.97,829.61 333.16,820.59 396.71,813.53 " fill="none" id="Pathfinder 2-bookDb" style="stroke:#181818;stroke-width:1.0;stroke-dasharray:7.0,7.0;"/></g><!--link ???????? to ????????? ?????????--><g id="link_&#1054;&#1073;&#1091;&#1095;&#1077;&#1085;&#1080;&#1077;_&#1054;&#1073;&#1091;&#1095;&#1072;&#1102;&#1097;&#1080;&#1077; &#1084;&#1072;&#1090;&#1077;&#1088;&#1080;&#1072;&#1083;&#1099;"><path d="M200.1185,1546.1405 C200.4291,1546.1905 200.7408,1546.2406 201.0535,1546.2909 C211.0616,1547.9004 222.1603,1549.6853 234.0112,1551.5913 C281.415,1559.215 340.855,1568.775 390.68,1576.79 " fill="none" id="&#1054;&#1073;&#1091;&#1095;&#1077;&#1085;&#1080;&#1077;-to-&#1054;&#1073;&#1091;&#1095;&#1072;&#1102;&#1097;&#1080;&#1077; &#1084;&#1072;&#1090;&#1077;&#1088;&#1080;&#1072;&#1083;&#1099;" style="stroke:#181818;stroke-width:1.0;"/><polygon fill="#181818" points="395.69,1577.59,387.4447,1572.2034,390.7542,1576.7911,386.1665,1580.1007,395.69,1577.59" style="stroke:#181818;stroke-width:1.0;"/></g><!--SRC=[fLP9Jzj05BxxLunyw0cGYjGBXqgLqaDFS6yvc2H018ghO4uLKX9AMO80jPMAK4jReTwpDfFzBypyetxlZHqlMKW54ex7yvPllhVDVdRR4vuh2hcTNKzaSeLisikvUSj9Usv1sEfM3NHPjNHHVrGjrT6bTtbLLprLLKsiU_fIVr9LMpW7uitwF2LTn5iJQbti3B7obLxFzIHL0w93rGt4Dnu11X_wM9_Zjw66HYLbfVVTmuomKxc3j5l8sC5w_TMXjxkwh4RieWvi7JgKBjfMtlMoFYNkTgYv9iWbZb2YGwYwhgYEK5AGCt0or2KsDAIlWAm6-E_fYg0NWKtO9ep4HTB5R31h0ii1Ni_mb30zDYHrIQWgpakWY0q9BYHvHb2aafRrtadlEJjPq7MlQX0y9K5ijMpnmHBuUwj-HU8YnyvPI60HqTBNcxvEmfYO3EuioMX4PyeamhXf7KKEyfEerfUgRP3osNjAXWUwcKL8YF-1QQvo8e-zZgOPrjUghsGSmQr_10f_Ym8zXCo0D7GbXF4RdzjCYcy_9XSWeTCWZAeRsn_lme_af29w9MN1s5fCGRK2bS-wea-mqIIgspEytg1gJh1VdunuGluecaDtBDHG4YbPWqex8679v6IP68TCGrMN15DCtFVqrJYu7KW2dJw6Znf0NCtXAyWKgYTaWKd62ow_SfWySzDtCHCFRA0tcQFprKmYJatknnLDpF4OcLVqXr2RGXZNnST4B2WrXXpflzo94rKzmUPeKZwiXo_yWPgANoYB7kKMJlf6-Vyu-0PaV7HzoHAShJ5JyWbnQ0VMQJACxOV6-d5JhTccgFXCjqSdOCwU53GgJAC9ZDrers92E4Obquf2EJJB0E0F10Xes6F709WY2vyPntEsd8Cv3TElK6g2rQN8g9tMrMW_60LLbFEveRblh76Tyw2petxl5rBWCMY4VTumBubrUl0ePVgfgD682SWeA1_q4khkT0SfXwaROBr8zao-3MovxbvgAm8pzImbNjYM_xkoCY6muNYxsxby9biGgv2BBSVYqNFV0KcHMOkbGt0Du6bK91gYrumrEWlD_1wppO7XUe0e59lWuxdwhcfHHtyuNWCpuEB64CLIh1Wvg3n9QaZKSa0KHTYlBRfibFq-s4dinUef2k4hDvY1IPcfBIQ1QyG9TOef404lJLJDdObqaNhwc3vEiNWrst-o4XA-Rxac6o4TPn2iqRsDB1XsY9_pO5XPrfHxq_BooqMJ-ny0]--></g></svg>