<?xml version="1.0" encoding="us-ascii" standalone="no"?><svg xmlns="http://www.w3.org/2000/svg" xmlns:xlink="http://www.w3.org/1999/xlink" contentStyleType="text/css" height="479px" preserveAspectRatio="none" style="width:975px;height:479px;background:#FFFFFF;" version="1.1" viewBox="0 0 975 479" width="975px" zoomAndPan="magnify"><defs/><g><rect fill="#F1F1F1" height="52.5938" rx="12.5" ry="12.5" style="stroke:#181818;stroke-width:1.5;" width="148" x="10" y="212.4141"/><text fill="#000000" font-family="sans-serif" font-size="14" lengthAdjust="spacing" textLength="128" x="20" y="235.4092">&#1060;&#1091;&#1085;&#1082;&#1094;&#1080;&#1086;&#1085;&#1072;&#1083;&#1100;&#1085;&#1099;&#1077;</text><text fill="#000000" font-family="sans-serif" font-size="14" lengthAdjust="spacing" textLength="87" x="20" y="251.7061">&#1090;&#1088;&#1077;&#1073;&#1086;&#1074;&#1072;&#1085;&#1080;&#1103;</text><text fill="#000000" font-family="sans-serif" font-size="14" lengthAdjust="spacing" textLength="108" x="211" y="43.292">&#1055;&#1086;&#1083;&#1100;&#1079;&#1086;&#1074;&#1072;&#1090;&#1077;&#1083;&#1102;</text><text fill="#000000" font-family="sans-serif" font-size="14" lengthAdjust="spacing" textLength="59" x="211" y="59.5889">&#1076;&#1086; &#1080;&#1075;&#1088;&#1099;</text><text fill="#000000" font-family="sans-serif" font-size="14" lengthAdjust="spacing" textLength="297" x="372" y="23.9951">&#1072;&#1091;&#1090;&#1077;&#1085;&#1090;&#1080;&#1092;&#1080;&#1082;&#1072;&#1094;&#1080;&#1103; &#1095;&#1077;&#1088;&#1077;&#1079; &#1074;&#1085;&#1077;&#1096;&#1085;&#1080;&#1081; &#1089;&#1077;&#1088;&#1074;&#1080;&#1089;</text><path d="M319,46.5938 L329,46.5938 C344,46.5938 344,19.1484 359,19.1484 L369,19.1484 " fill="none" style="stroke:#181818;stroke-width:1.0;"/><text fill="#000000" font-family="sans-serif" font-size="14" lengthAdjust="spacing" textLength="254" x="372" y="42.292">&#1087;&#1086;&#1080;&#1089;&#1082; &#1082;&#1086;&#1084;&#1087;&#1072;&#1085;&#1080;&#1080; &#1076;&#1083;&#1103; &#1087;&#1088;&#1086;&#1093;&#1086;&#1078;&#1076;&#1077;&#1085;&#1080;&#1103;</text><path d="M319,46.5938 L329,46.5938 C344,46.5938 344,37.4453 359,37.4453 L369,37.4453 " fill="none" style="stroke:#181818;stroke-width:1.0;"/><text fill="#000000" font-family="sans-serif" font-size="14" lengthAdjust="spacing" textLength="305" x="372" y="60.5889">&#1080;&#1084;&#1087;&#1086;&#1088;&#1090; &#1087;&#1077;&#1088;&#1089;&#1086;&#1085;&#1072;&#1078;&#1077;&#1081; &#1080;&#1079; &#1076;&#1088;&#1091;&#1075;&#1080;&#1093; &#1087;&#1083;&#1072;&#1090;&#1092;&#1086;&#1088;&#1084;</text><path d="M319,46.5938 L329,46.5938 C344,46.5938 344,55.7422 359,55.7422 L369,55.7422 " fill="none" style="stroke:#181818;stroke-width:1.0;"/><text fill="#000000" font-family="sans-serif" font-size="14" lengthAdjust="spacing" textLength="591" x="372" y="78.8857">&#1101;&#1082;&#1089;&#1087;&#1086;&#1088;&#1090; &#1087;&#1077;&#1088;&#1089;&#1086;&#1085;&#1072;&#1078;&#1077;&#1081;, &#1087;&#1088;&#1086;&#1093;&#1086;&#1078;&#1076;&#1077;&#1085;&#1080;&#1103; (&#1074;&#1089;&#1077; &#1087;&#1077;&#1088;&#1089;&#1086;&#1085;&#1072;&#1078;&#1080;), &#1078;&#1091;&#1088;&#1085;&#1072;&#1083;&#1072; (&#1086;&#1076;&#1080;&#1085; &#1087;&#1077;&#1088;&#1089;&#1086;&#1085;&#1072;&#1078;)</text><path d="M319,46.5938 L329,46.5938 C344,46.5938 344,74.0391 359,74.0391 L369,74.0391 " fill="none" style="stroke:#181818;stroke-width:1.0;"/><path d="M158,238.7109 L168,238.7109 C183,238.7109 183,46.5938 198,46.5938 L208,46.5938 " fill="none" style="stroke:#181818;stroke-width:1.0;"/><text fill="#000000" font-family="sans-serif" font-size="14" lengthAdjust="spacing" textLength="76" x="211" y="125.6279">&#1042;&#1077;&#1076;&#1091;&#1097;&#1077;&#1084;&#1091;</text><text fill="#000000" font-family="sans-serif" font-size="14" lengthAdjust="spacing" textLength="59" x="211" y="141.9248">&#1076;&#1086; &#1080;&#1075;&#1088;&#1099;</text><text fill="#000000" font-family="sans-serif" font-size="14" lengthAdjust="spacing" textLength="342" x="340" y="133.7764">&#1080;&#1085;&#1089;&#1090;&#1088;&#1091;&#1084;&#1077;&#1085;&#1090;&#1099; &#1076;&#1083;&#1103; &#1089;&#1086;&#1079;&#1076;&#1072;&#1085;&#1080;&#1103; &#1080; &#1088;&#1077;&#1076;&#1072;&#1082;&#1090;&#1080;&#1088;&#1086;&#1074;&#1072;&#1085;&#1080;&#1103;</text><text fill="#000000" font-family="sans-serif" font-size="14" lengthAdjust="spacing" textLength="70" x="735" y="97.1826">&#1082;&#1072;&#1084;&#1087;&#1072;&#1085;&#1080;&#1080;</text><path d="M682,128.9297 L692,128.9297 C707,128.9297 707,92.3359 722,92.3359 L732,92.3359 " fill="none" style="stroke:#181818;stroke-width:1.0;"/><text fill="#000000" font-family="sans-serif" font-size="14" lengthAdjust="spacing" textLength="45" x="735" y="115.4795">&#1082;&#1072;&#1088;&#1090;&#1099;</text><path d="M682,128.9297 L692,128.9297 C707,128.9297 707,110.6328 722,110.6328 L732,110.6328 " fill="none" style="stroke:#181818;stroke-width:1.0;"/><text fill="#000000" font-family="sans-serif" font-size="14" lengthAdjust="spacing" textLength="92" x="735" y="133.7764">&#1087;&#1077;&#1088;&#1089;&#1086;&#1085;&#1072;&#1078;&#1077;&#1081;</text><path d="M682,128.9297 L692,128.9297 C707,128.9297 707,128.9297 722,128.9297 L732,128.9297 " fill="none" style="stroke:#181818;stroke-width:1.0;"/><text fill="#000000" font-family="sans-serif" font-size="14" lengthAdjust="spacing" textLength="82" x="735" y="152.0732">&#1087;&#1088;&#1077;&#1076;&#1084;&#1077;&#1090;&#1086;&#1074;</text><path d="M682,128.9297 L692,128.9297 C707,128.9297 707,147.2266 722,147.2266 L732,147.2266 " fill="none" style="stroke:#181818;stroke-width:1.0;"/><text fill="#000000" font-family="sans-serif" font-size="14" lengthAdjust="spacing" textLength="59" x="735" y="170.3701">&#1089;&#1102;&#1078;&#1077;&#1090;&#1072;</text><path d="M682,128.9297 L692,128.9297 C707,128.9297 707,165.5234 722,165.5234 L732,165.5234 " fill="none" style="stroke:#181818;stroke-width:1.0;"/><path d="M287,128.9297 L297,128.9297 C312,128.9297 312,128.9297 327,128.9297 L337,128.9297 " fill="none" style="stroke:#181818;stroke-width:1.0;"/><text fill="#000000" font-family="sans-serif" font-size="14" lengthAdjust="spacing" textLength="194" x="340" y="152.0732">&#1080;&#1084;&#1087;&#1086;&#1088;&#1090;/&#1101;&#1082;&#1089;&#1087;&#1086;&#1088;&#1090; &#1082;&#1086;&#1085;&#1090;&#1077;&#1085;&#1090;&#1072;</text><path d="M287,128.9297 L297,128.9297 C312,128.9297 312,147.2266 327,147.2266 L337,147.2266 " fill="none" style="stroke:#181818;stroke-width:1.0;"/><path d="M158,238.7109 L168,238.7109 C183,238.7109 183,128.9297 198,128.9297 L208,128.9297 " fill="none" style="stroke:#181818;stroke-width:1.0;"/><text fill="#000000" font-family="sans-serif" font-size="14" lengthAdjust="spacing" textLength="50" x="211" y="253.7061">&#1048;&#1075;&#1088;&#1086;&#1082;&#1091;</text><text fill="#000000" font-family="sans-serif" font-size="14" lengthAdjust="spacing" textLength="67" x="211" y="270.0029">&#1076;&#1083;&#1103; &#1080;&#1075;&#1088;&#1099;</text><text fill="#000000" font-family="sans-serif" font-size="14" lengthAdjust="spacing" textLength="132" x="331" y="188.667">&#1083;&#1080;&#1089;&#1090;&#1099; &#1087;&#1077;&#1088;&#1089;&#1086;&#1085;&#1072;&#1078;&#1072;</text><path d="M278,257.0078 L288,257.0078 C303,257.0078 303,183.8203 318,183.8203 L328,183.8203 " fill="none" style="stroke:#181818;stroke-width:1.0;"/><text fill="#000000" font-family="sans-serif" font-size="14" lengthAdjust="spacing" textLength="126" x="331" y="206.9639">&#1082;&#1072;&#1088;&#1090;&#1072; &#1084;&#1077;&#1089;&#1090;&#1085;&#1086;&#1089;&#1090;&#1080;</text><path d="M278,257.0078 L288,257.0078 C303,257.0078 303,202.1172 318,202.1172 L328,202.1172 " fill="none" style="stroke:#181818;stroke-width:1.0;"/><text fill="#000000" font-family="sans-serif" font-size="14" lengthAdjust="spacing" textLength="166" x="331" y="225.2607">&#1086;&#1073;&#1091;&#1095;&#1077;&#1085;&#1080;&#1077; &#1085;&#1072;&#1095;&#1080;&#1085;&#1072;&#1102;&#1097;&#1080;&#1093;</text><path d="M278,257.0078 L288,257.0078 C303,257.0078 303,220.4141 318,220.4141 L328,220.4141 " fill="none" style="stroke:#181818;stroke-width:1.0;"/><text fill="#000000" font-family="sans-serif" font-size="14" lengthAdjust="spacing" textLength="316" x="331" y="243.5576">&#1080;&#1085;&#1089;&#1090;&#1088;&#1091;&#1084;&#1077;&#1085;&#1090;&#1099; &#1076;&#1083;&#1103; &#1091;&#1087;&#1088;&#1072;&#1074;&#1083;&#1077;&#1085;&#1080;&#1103; &#1087;&#1077;&#1088;&#1089;&#1086;&#1085;&#1072;&#1078;&#1077;&#1084;</text><path d="M278,257.0078 L288,257.0078 C303,257.0078 303,238.7109 318,238.7109 L328,238.7109 " fill="none" style="stroke:#181818;stroke-width:1.0;"/><text fill="#000000" font-family="sans-serif" font-size="14" lengthAdjust="spacing" textLength="217" x="331" y="298.4482">&#1095;&#1072;&#1090; &#1082;&#1072;&#1084;&#1087;&#1072;&#1085;&#1080;&#1080; &#1076;&#1083;&#1103; &#1091;&#1095;&#1072;&#1089;&#1090;&#1085;&#1080;&#1082;&#1086;&#1074;</text><text fill="#000000" font-family="sans-serif" font-size="14" lengthAdjust="spacing" textLength="43" x="601" y="261.8545">&#1090;&#1077;&#1082;&#1089;&#1090;</text><path d="M548,293.6016 L558,293.6016 C573,293.6016 573,257.0078 588,257.0078 L598,257.0078 " fill="none" style="stroke:#181818;stroke-width:1.0;"/><text fill="#000000" font-family="sans-serif" font-size="14" lengthAdjust="spacing" textLength="70" x="601" y="280.1514">&#1089;&#1084;&#1072;&#1081;&#1083;&#1080;&#1082;&#1080;</text><path d="M548,293.6016 L558,293.6016 C573,293.6016 573,275.3047 588,275.3047 L598,275.3047 " fill="none" style="stroke:#181818;stroke-width:1.0;"/><text fill="#000000" font-family="sans-serif" font-size="14" lengthAdjust="spacing" textLength="326" x="601" y="298.4482">&#1089;&#1090;&#1080;&#1082;&#1077;&#1088;&#1099; (&#1082;&#1072;&#1088;&#1090;&#1080;&#1085;&#1082;&#1080; &#1089; &#1101;&#1084;&#1086;&#1094;&#1080;&#1103;&#1084;&#1080; &#1080;&#1083;&#1080; &#1084;&#1077;&#1084;&#1072;&#1084;&#1080;)</text><path d="M548,293.6016 L558,293.6016 C573,293.6016 573,293.6016 588,293.6016 L598,293.6016 " fill="none" style="stroke:#181818;stroke-width:1.0;"/><text fill="#000000" font-family="sans-serif" font-size="14" lengthAdjust="spacing" textLength="171" x="601" y="316.7451">&#1088;&#1077;&#1072;&#1082;&#1094;&#1080;&#1080; &#1085;&#1072; &#1089;&#1086;&#1086;&#1073;&#1097;&#1077;&#1085;&#1080;&#1103;</text><path d="M548,293.6016 L558,293.6016 C573,293.6016 573,311.8984 588,311.8984 L598,311.8984 " fill="none" style="stroke:#181818;stroke-width:1.0;"/><text fill="#000000" font-family="sans-serif" font-size="14" lengthAdjust="spacing" textLength="303" x="601" y="335.042">&#1075;&#1086;&#1083;&#1086;&#1089;&#1086;&#1074;&#1086;&#1077; &#1086;&#1073;&#1097;&#1077;&#1085;&#1080;&#1077; &#1074; &#1088;&#1077;&#1072;&#1083;&#1100;&#1085;&#1086;&#1084; &#1074;&#1088;&#1077;&#1084;&#1077;&#1085;&#1080;</text><path d="M548,293.6016 L558,293.6016 C573,293.6016 573,330.1953 588,330.1953 L598,330.1953 " fill="none" style="stroke:#181818;stroke-width:1.0;"/><path d="M278,257.0078 L288,257.0078 C303,257.0078 303,293.6016 318,293.6016 L328,293.6016 " fill="none" style="stroke:#181818;stroke-width:1.0;"/><text fill="#000000" font-family="sans-serif" font-size="14" lengthAdjust="spacing" textLength="212" x="331" y="316.7451">&#1079;&#1074;&#1091;&#1082;&#1086;&#1074;&#1099;&#1077; &#1101;&#1092;&#1092;&#1077;&#1082;&#1090;&#1099; &#1080; &#1084;&#1091;&#1079;&#1099;&#1082;&#1072;</text><path d="M278,257.0078 L288,257.0078 C303,257.0078 303,311.8984 318,311.8984 L328,311.8984 " fill="none" style="stroke:#181818;stroke-width:1.0;"/><path d="M158,238.7109 L168,238.7109 C183,238.7109 183,257.0078 198,257.0078 L208,257.0078 " fill="none" style="stroke:#181818;stroke-width:1.0;"/><text fill="#000000" font-family="sans-serif" font-size="14" lengthAdjust="spacing" textLength="76" x="211" y="400.0811">&#1042;&#1077;&#1076;&#1091;&#1097;&#1077;&#1084;&#1091;</text><text fill="#000000" font-family="sans-serif" font-size="14" lengthAdjust="spacing" textLength="67" x="211" y="416.3779">&#1076;&#1083;&#1103; &#1080;&#1075;&#1088;&#1099;</text><text fill="#000000" font-family="sans-serif" font-size="14" lengthAdjust="spacing" textLength="155" x="340" y="380.7842">&#1087;&#1086;&#1076;&#1089;&#1082;&#1072;&#1079;&#1082;&#1080; &#1074;&#1077;&#1076;&#1091;&#1097;&#1077;&#1084;&#1091;</text><text fill="#000000" font-family="sans-serif" font-size="14" lengthAdjust="spacing" textLength="408" x="548" y="353.3389">&#1090;&#1080;&#1087;&#1080;&#1095;&#1085;&#1099;&#1077; &#1088;&#1077;&#1072;&#1082;&#1094;&#1080;&#1080; &#1080;&#1075;&#1088;&#1086;&#1074;&#1086;&#1075;&#1086; &#1084;&#1080;&#1088;&#1072; &#1085;&#1072; &#1076;&#1077;&#1081;&#1089;&#1090;&#1074;&#1080;&#1103; &#1080;&#1075;&#1088;&#1086;&#1082;&#1086;&#1074;</text><path d="M495,375.9375 L505,375.9375 C520,375.9375 520,348.4922 535,348.4922 L545,348.4922 " fill="none" style="stroke:#181818;stroke-width:1.0;"/><text fill="#000000" font-family="sans-serif" font-size="14" lengthAdjust="spacing" textLength="389" x="548" y="371.6357">&#1084;&#1086;&#1076;&#1077;&#1083;&#1080;&#1088;&#1086;&#1074;&#1072;&#1085;&#1080;&#1077; &#1093;&#1072;&#1088;&#1072;&#1082;&#1090;&#1077;&#1088;&#1072; &#1080; &#1087;&#1086;&#1074;&#1077;&#1076;&#1077;&#1085;&#1080;&#1103; &#1087;&#1077;&#1088;&#1089;&#1086;&#1085;&#1072;&#1078;&#1077;&#1081;</text><path d="M495,375.9375 L505,375.9375 C520,375.9375 520,366.7891 535,366.7891 L545,366.7891 " fill="none" style="stroke:#181818;stroke-width:1.0;"/><text fill="#000000" font-family="sans-serif" font-size="14" lengthAdjust="spacing" textLength="300" x="548" y="389.9326">&#1085;&#1072;&#1089;&#1090;&#1088;&#1086;&#1081;&#1082;&#1072; &#1087;&#1086;&#1076; &#1089;&#1074;&#1086;&#1081; &#1089;&#1090;&#1080;&#1083;&#1100; &#1074;&#1077;&#1076;&#1077;&#1085;&#1080;&#1103; &#1080;&#1075;&#1088;&#1099;</text><path d="M495,375.9375 L505,375.9375 C520,375.9375 520,385.0859 535,385.0859 L545,385.0859 " fill="none" style="stroke:#181818;stroke-width:1.0;"/><text fill="#000000" font-family="sans-serif" font-size="14" lengthAdjust="spacing" textLength="271" x="548" y="408.2295">&#1080;&#1084;&#1080;&#1090;&#1072;&#1094;&#1080;&#1102; &#1089;&#1090;&#1080;&#1083;&#1103; &#1086;&#1087;&#1088;&#1077;&#1076;&#1077;&#1083;&#1077;&#1085;&#1085;&#1086;&#1075;&#1086; &#1044;&#1052;</text><path d="M495,375.9375 L505,375.9375 C520,375.9375 520,403.3828 535,403.3828 L545,403.3828 " fill="none" style="stroke:#181818;stroke-width:1.0;"/><path d="M287,403.3828 L297,403.3828 C312,403.3828 312,375.9375 327,375.9375 L337,375.9375 " fill="none" style="stroke:#181818;stroke-width:1.0;"/><text fill="#000000" font-family="sans-serif" font-size="14" lengthAdjust="spacing" textLength="316" x="340" y="426.5264">&#1075;&#1077;&#1085;&#1077;&#1088;&#1072;&#1090;&#1086;&#1088;/&#1082;&#1086;&#1085;&#1089;&#1090;&#1088;&#1091;&#1082;&#1090;&#1086;&#1088; &#1080;&#1075;&#1088;&#1086;&#1074;&#1099;&#1093; &#1086;&#1073;&#1098;&#1077;&#1082;&#1090;&#1086;&#1074;</text><path d="M287,403.3828 L297,403.3828 C312,403.3828 312,421.6797 327,421.6797 L337,421.6797 " fill="none" style="stroke:#181818;stroke-width:1.0;"/><text fill="#000000" font-family="sans-serif" font-size="14" lengthAdjust="spacing" textLength="199" x="340" y="444.8232">&#1084;&#1086;&#1076;&#1091;&#1083;&#1100; &#1089; &#1087;&#1088;&#1072;&#1074;&#1080;&#1083;&#1072;&#1084;&#1080; D&amp;D 5</text><path d="M287,403.3828 L297,403.3828 C312,403.3828 312,439.9766 327,439.9766 L337,439.9766 " fill="none" style="stroke:#181818;stroke-width:1.0;"/><text fill="#000000" font-family="sans-serif" font-size="14" lengthAdjust="spacing" textLength="235" x="340" y="463.1201">&#1084;&#1086;&#1076;&#1091;&#1083;&#1100; &#1089; &#1087;&#1088;&#1072;&#1074;&#1080;&#1083;&#1072;&#1084;&#1080; Pathfinder 2</text><path d="M287,403.3828 L297,403.3828 C312,403.3828 312,458.2734 327,458.2734 L337,458.2734 " fill="none" style="stroke:#181818;stroke-width:1.0;"/><path d="M158,238.7109 L168,238.7109 C183,238.7109 183,403.3828 198,403.3828 L208,403.3828 " fill="none" style="stroke:#181818;stroke-width:1.0;"/><!--SRC=[ZLLTJnD157tVNp5FXX9HFjHeduYY9aWZ0U79nAooOXFOacLBubjB-H2ha1WVV33nnH-m54gds-xo5sR-aUVUsMbBYuINRlVEkNVkd7FkxEnsw0RXPj5VstItd76X_kgQIbIi3vHKAVv5ggE_gKJNLVEjhtTrHJNLALOQM4cKr2VE-FWxeVuWHC2MMTAxW7NqyLjVdQjKeDQPhkWwi0IET8q12NwbtiDgZDW1LHFwK3LvavP0eGGlNsWVrHQwoYiDmAfPeKliXZSL2rH8LHS1xaf9WNqxAASkaPBgVQnU8DJizKpfaZDITBPBjL0TjSoXBm1j4m9jd2DUKsT8t2TOXuw7hf6dkgQI_Wx6gZVMklkVLiIOQj39HfDa3ZaNeAfYP50Hi2aofKf6q3aZmm-KFKVA4PvTNRkUVkJhAac9KtMD3Bfk2UEIBRnayW8kM0-An2nOPKX-BWe51_aV21CbPcyZsGWrlQLi7_I4VR17je1cZmc9O3IgtFrXyia9ISzVaI7c5p60XJWZXRrnbPOEMSbGCToatJOx3PJW9e468EMdp22fEWN_XqPUaXKLy2hvUGnXuA9RwL1ZFY8mtUbvvHhsh0CFoPKZClIhCS0qB9cY7hl4L4nBFRfH8L9j8WH8sLTXbmFKGHrMj6JGqM9oIPNce0i-U9BnJz8PE_IWutMvDPcpzKZiABjf9FDap4SC7WrEAd5rHlSBKStUIudO0HozDcn5lg_eDa2CGrq3obXl8Lep3D2bXfxr7gQPE63wgLi0MbYChNkk6wjh74JNqJbTH-YYnPoWrokPVSubq1AY9AQ98J9aPbSwwXbDS9VdBZ8qyUtHPa4QsOnQUmy8Ir8midDrPccxVT8k6-YcAInD_zpmJORhZMjY3CMbstJcZ01IaVfkMyj0435STu0uEy-I1ekzSzpFF26TxSNGp4OXiQpyLByTwuycVomg_Et1JN0_kmViWCKcF42jhjDzJYxwQjItt5dga4MjmzUzKIGxiul5t9qvyV3Mw4Kt_FGH7ral4DFEh8UlRVR5THOtN3zSAIo87I_OBfPyCNLlUd9wvjxCs9jFPL5m0p7vH4nFvcScyrEFHM7vbQ3bd3FsSd51R9VAmGTFh1Mtmw3ulXmYF-VCkpkkM2hxON7JoulNMvu_F_VA1iHpVwSObFnDpm-T-TL27_3emSJJOYYMlG2TYDM2C-TzTCiR8J8-bDQA_dfUhBnvCV7OMN3zzRAxZjf1sNbMGjtWSruihVm3]--></g></svg>