<?xml version="1.0" encoding="us-ascii" standalone="no"?><svg xmlns="http://www.w3.org/2000/svg" contentStyleType="text/css"     height="479px" preserveAspectRatio="none" style="width:982px;height:479px;background:#FFFFFF;" version="1.1"     viewBox="0 0 982 479" width="982px" zoomAndPan="magnify">    <defs/>    <g>        <rect fill="#F1F1F1" height="52.5938" rx="12.5" ry="12.5" style="stroke:#181818;stroke-width:1.5;" width="149"              x="10" y="212.4141"/>        <text fill="#000000" font-family="sans-serif" font-size="14" lengthAdjust="spacing" textLength="129" x="20"              y="235.4092">&#1060;&#1091;&#1085;&#1082;&#1094;&#1080;&#1086;&#1085;&#1072;&#1083;&#1100;&#1085;&#1099;&#1077;        </text>        <text fill="#000000" font-family="sans-serif" font-size="14" lengthAdjust="spacing" textLength="87" x="20"              y="251.7061">&#1090;&#1088;&#1077;&#1073;&#1086;&#1074;&#1072;&#1085;&#1080;&#1103;        </text>        <text fill="#000000" font-family="sans-serif" font-size="14" lengthAdjust="spacing" textLength="108" x="212"              y="43.292">&#1055;&#1086;&#1083;&#1100;&#1079;&#1086;&#1074;&#1072;&#1090;&#1077;&#1083;&#1102;        </text>        <text fill="#000000" font-family="sans-serif" font-size="14" lengthAdjust="spacing" textLength="59" x="212"              y="59.5889">&#1076;&#1086; &#1080;&#1075;&#1088;&#1099;        </text>        <text fill="#000000" font-family="sans-serif" font-size="14" lengthAdjust="spacing" textLength="296" x="373"              y="23.9951">&#1072;&#1091;&#1090;&#1077;&#1085;&#1090;&#1080;&#1092;&#1080;&#1082;&#1072;&#1094;&#1080;&#1103;            &#1095;&#1077;&#1088;&#1077;&#1079; &#1074;&#1085;&#1077;&#1096;&#1085;&#1080;&#1081; &#1089;&#1077;&#1088;&#1074;&#1080;&#1089;        </text>        <path d="M320,46.5938 L330,46.5938 C345,46.5938 345,19.1484 360,19.1484 L370,19.1484 " fill="none"              style="stroke:#181818;stroke-width:1.0;"/>        <text fill="#000000" font-family="sans-serif" font-size="14" lengthAdjust="spacing" textLength="257" x="373"              y="42.292">&#1087;&#1086;&#1080;&#1089;&#1082; &#1082;&#1086;&#1084;&#1087;&#1072;&#1085;&#1080;&#1080;            &#1076;&#1083;&#1103; &#1087;&#1088;&#1086;&#1093;&#1086;&#1078;&#1076;&#1077;&#1085;&#1080;&#1103;        </text>        <path d="M320,46.5938 L330,46.5938 C345,46.5938 345,37.4453 360,37.4453 L370,37.4453 " fill="none"              style="stroke:#181818;stroke-width:1.0;"/>        <text fill="#000000" font-family="sans-serif" font-size="14" lengthAdjust="spacing" textLength="307" x="373"              y="60.5889">&#1080;&#1084;&#1087;&#1086;&#1088;&#1090; &#1087;&#1077;&#1088;&#1089;&#1086;&#1085;&#1072;&#1078;&#1077;&#1081;            &#1080;&#1079; &#1076;&#1088;&#1091;&#1075;&#1080;&#1093; &#1087;&#1083;&#1072;&#1090;&#1092;&#1086;&#1088;&#1084;        </text>        <path d="M320,46.5938 L330,46.5938 C345,46.5938 345,55.7422 360,55.7422 L370,55.7422 " fill="none"              style="stroke:#181818;stroke-width:1.0;"/>        <text fill="#000000" font-family="sans-serif" font-size="14" lengthAdjust="spacing" textLength="597" x="373"              y="78.8857">&#1101;&#1082;&#1089;&#1087;&#1086;&#1088;&#1090; &#1087;&#1077;&#1088;&#1089;&#1086;&#1085;&#1072;&#1078;&#1077;&#1081;,            &#1087;&#1088;&#1086;&#1093;&#1086;&#1078;&#1076;&#1077;&#1085;&#1080;&#1103; (&#1074;&#1089;&#1077; &#1087;&#1077;&#1088;&#1089;&#1086;&#1085;&#1072;&#1078;&#1080;),            &#1078;&#1091;&#1088;&#1085;&#1072;&#1083;&#1072; (&#1086;&#1076;&#1080;&#1085; &#1087;&#1077;&#1088;&#1089;&#1086;&#1085;&#1072;&#1078;)        </text>        <path d="M320,46.5938 L330,46.5938 C345,46.5938 345,74.0391 360,74.0391 L370,74.0391 " fill="none"              style="stroke:#181818;stroke-width:1.0;"/>        <path d="M159,238.7109 L169,238.7109 C184,238.7109 184,46.5938 199,46.5938 L209,46.5938 " fill="none"              style="stroke:#181818;stroke-width:1.0;"/>        <text fill="#000000" font-family="sans-serif" font-size="14" lengthAdjust="spacing" textLength="78" x="212"              y="125.6279">&#1042;&#1077;&#1076;&#1091;&#1097;&#1077;&#1084;&#1091;        </text>        <text fill="#000000" font-family="sans-serif" font-size="14" lengthAdjust="spacing" textLength="59" x="212"              y="141.9248">&#1076;&#1086; &#1080;&#1075;&#1088;&#1099;        </text>        <text fill="#000000" font-family="sans-serif" font-size="14" lengthAdjust="spacing" textLength="343" x="343"              y="133.7764">&#1080;&#1085;&#1089;&#1090;&#1088;&#1091;&#1084;&#1077;&#1085;&#1090;&#1099; &#1076;&#1083;&#1103;            &#1089;&#1086;&#1079;&#1076;&#1072;&#1085;&#1080;&#1103; &#1080; &#1088;&#1077;&#1076;&#1072;&#1082;&#1090;&#1080;&#1088;&#1086;&#1074;&#1072;&#1085;&#1080;&#1103;        </text>        <text fill="#000000" font-family="sans-serif" font-size="14" lengthAdjust="spacing" textLength="73" x="739"              y="97.1826">&#1082;&#1072;&#1084;&#1087;&#1072;&#1085;&#1080;&#1080;        </text>        <path d="M686,128.9297 L696,128.9297 C711,128.9297 711,92.3359 726,92.3359 L736,92.3359 " fill="none"              style="stroke:#181818;stroke-width:1.0;"/>        <text fill="#000000" font-family="sans-serif" font-size="14" lengthAdjust="spacing" textLength="45" x="739"              y="115.4795">&#1082;&#1072;&#1088;&#1090;&#1099;        </text>        <path d="M686,128.9297 L696,128.9297 C711,128.9297 711,110.6328 726,110.6328 L736,110.6328 " fill="none"              style="stroke:#181818;stroke-width:1.0;"/>        <text fill="#000000" font-family="sans-serif" font-size="14" lengthAdjust="spacing" textLength="93" x="739"              y="133.7764">&#1087;&#1077;&#1088;&#1089;&#1086;&#1085;&#1072;&#1078;&#1077;&#1081;        </text>        <path d="M686,128.9297 L696,128.9297 C711,128.9297 711,128.9297 726,128.9297 L736,128.9297 " fill="none"              style="stroke:#181818;stroke-width:1.0;"/>        <text fill="#000000" font-family="sans-serif" font-size="14" lengthAdjust="spacing" textLength="82" x="739"              y="152.0732">&#1087;&#1088;&#1077;&#1076;&#1084;&#1077;&#1090;&#1086;&#1074;        </text>        <path d="M686,128.9297 L696,128.9297 C711,128.9297 711,147.2266 726,147.2266 L736,147.2266 " fill="none"              style="stroke:#181818;stroke-width:1.0;"/>        <text fill="#000000" font-family="sans-serif" font-size="14" lengthAdjust="spacing" textLength="59" x="739"              y="170.3701">&#1089;&#1102;&#1078;&#1077;&#1090;&#1072;        </text>        <path d="M686,128.9297 L696,128.9297 C711,128.9297 711,165.5234 726,165.5234 L736,165.5234 " fill="none"              style="stroke:#181818;stroke-width:1.0;"/>        <path d="M290,128.9297 L300,128.9297 C315,128.9297 315,128.9297 330,128.9297 L340,128.9297 " fill="none"              style="stroke:#181818;stroke-width:1.0;"/>        <text fill="#000000" font-family="sans-serif" font-size="14" lengthAdjust="spacing" textLength="192" x="343"              y="152.0732">&#1080;&#1084;&#1087;&#1086;&#1088;&#1090;/&#1101;&#1082;&#1089;&#1087;&#1086;&#1088;&#1090;            &#1082;&#1086;&#1085;&#1090;&#1077;&#1085;&#1090;&#1072;        </text>        <path d="M290,128.9297 L300,128.9297 C315,128.9297 315,147.2266 330,147.2266 L340,147.2266 " fill="none"              style="stroke:#181818;stroke-width:1.0;"/>        <path d="M159,238.7109 L169,238.7109 C184,238.7109 184,128.9297 199,128.9297 L209,128.9297 " fill="none"              style="stroke:#181818;stroke-width:1.0;"/>        <text fill="#000000" font-family="sans-serif" font-size="14" lengthAdjust="spacing" textLength="51" x="212"              y="253.7061">&#1048;&#1075;&#1088;&#1086;&#1082;&#1091;        </text>        <text fill="#000000" font-family="sans-serif" font-size="14" lengthAdjust="spacing" textLength="67" x="212"              y="270.0029">&#1076;&#1083;&#1103; &#1080;&#1075;&#1088;&#1099;        </text>        <text fill="#000000" font-family="sans-serif" font-size="14" lengthAdjust="spacing" textLength="133" x="332"              y="188.667">&#1083;&#1080;&#1089;&#1090;&#1099; &#1087;&#1077;&#1088;&#1089;&#1086;&#1085;&#1072;&#1078;&#1072;        </text>        <path d="M279,257.0078 L289,257.0078 C304,257.0078 304,183.8203 319,183.8203 L329,183.8203 " fill="none"              style="stroke:#181818;stroke-width:1.0;"/>        <text fill="#000000" font-family="sans-serif" font-size="14" lengthAdjust="spacing" textLength="126" x="332"              y="206.9639">&#1082;&#1072;&#1088;&#1090;&#1072; &#1084;&#1077;&#1089;&#1090;&#1085;&#1086;&#1089;&#1090;&#1080;        </text>        <path d="M279,257.0078 L289,257.0078 C304,257.0078 304,202.1172 319,202.1172 L329,202.1172 " fill="none"              style="stroke:#181818;stroke-width:1.0;"/>        <text fill="#000000" font-family="sans-serif" font-size="14" lengthAdjust="spacing" textLength="169" x="332"              y="225.2607">&#1086;&#1073;&#1091;&#1095;&#1077;&#1085;&#1080;&#1077; &#1085;&#1072;&#1095;&#1080;&#1085;&#1072;&#1102;&#1097;&#1080;&#1093;        </text>        <path d="M279,257.0078 L289,257.0078 C304,257.0078 304,220.4141 319,220.4141 L329,220.4141 " fill="none"              style="stroke:#181818;stroke-width:1.0;"/>        <text fill="#000000" font-family="sans-serif" font-size="14" lengthAdjust="spacing" textLength="320" x="332"              y="243.5576">&#1080;&#1085;&#1089;&#1090;&#1088;&#1091;&#1084;&#1077;&#1085;&#1090;&#1099; &#1076;&#1083;&#1103;            &#1091;&#1087;&#1088;&#1072;&#1074;&#1083;&#1077;&#1085;&#1080;&#1103; &#1087;&#1077;&#1088;&#1089;&#1086;&#1085;&#1072;&#1078;&#1077;&#1084;        </text>        <path d="M279,257.0078 L289,257.0078 C304,257.0078 304,238.7109 319,238.7109 L329,238.7109 " fill="none"              style="stroke:#181818;stroke-width:1.0;"/>        <text fill="#000000" font-family="sans-serif" font-size="14" lengthAdjust="spacing" textLength="221" x="332"              y="298.4482">&#1095;&#1072;&#1090; &#1082;&#1072;&#1084;&#1087;&#1072;&#1085;&#1080;&#1080; &#1076;&#1083;&#1103;            &#1091;&#1095;&#1072;&#1089;&#1090;&#1085;&#1080;&#1082;&#1086;&#1074;        </text>        <text fill="#000000" font-family="sans-serif" font-size="14" lengthAdjust="spacing" textLength="41" x="606"              y="261.8545">&#1090;&#1077;&#1082;&#1089;&#1090;        </text>        <path d="M553,293.6016 L563,293.6016 C578,293.6016 578,257.0078 593,257.0078 L603,257.0078 " fill="none"              style="stroke:#181818;stroke-width:1.0;"/>        <text fill="#000000" font-family="sans-serif" font-size="14" lengthAdjust="spacing" textLength="72" x="606"              y="280.1514">&#1089;&#1084;&#1072;&#1081;&#1083;&#1080;&#1082;&#1080;        </text>        <path d="M553,293.6016 L563,293.6016 C578,293.6016 578,275.3047 593,275.3047 L603,275.3047 " fill="none"              style="stroke:#181818;stroke-width:1.0;"/>        <text fill="#000000" font-family="sans-serif" font-size="14" lengthAdjust="spacing" textLength="331" x="606"              y="298.4482">&#1089;&#1090;&#1080;&#1082;&#1077;&#1088;&#1099; (&#1082;&#1072;&#1088;&#1090;&#1080;&#1085;&#1082;&#1080;            &#1089; &#1101;&#1084;&#1086;&#1094;&#1080;&#1103;&#1084;&#1080; &#1080;&#1083;&#1080; &#1084;&#1077;&#1084;&#1072;&#1084;&#1080;)        </text>        <path d="M553,293.6016 L563,293.6016 C578,293.6016 578,293.6016 593,293.6016 L603,293.6016 " fill="none"              style="stroke:#181818;stroke-width:1.0;"/>        <text fill="#000000" font-family="sans-serif" font-size="14" lengthAdjust="spacing" textLength="172" x="606"              y="316.7451">&#1088;&#1077;&#1072;&#1082;&#1094;&#1080;&#1080; &#1085;&#1072; &#1089;&#1086;&#1086;&#1073;&#1097;&#1077;&#1085;&#1080;&#1103;        </text>        <path d="M553,293.6016 L563,293.6016 C578,293.6016 578,311.8984 593,311.8984 L603,311.8984 " fill="none"              style="stroke:#181818;stroke-width:1.0;"/>        <text fill="#000000" font-family="sans-serif" font-size="14" lengthAdjust="spacing" textLength="305" x="606"              y="335.042">&#1075;&#1086;&#1083;&#1086;&#1089;&#1086;&#1074;&#1086;&#1077; &#1086;&#1073;&#1097;&#1077;&#1085;&#1080;&#1077;            &#1074; &#1088;&#1077;&#1072;&#1083;&#1100;&#1085;&#1086;&#1084; &#1074;&#1088;&#1077;&#1084;&#1077;&#1085;&#1080;        </text>        <path d="M553,293.6016 L563,293.6016 C578,293.6016 578,330.1953 593,330.1953 L603,330.1953 " fill="none"              style="stroke:#181818;stroke-width:1.0;"/>        <path d="M279,257.0078 L289,257.0078 C304,257.0078 304,293.6016 319,293.6016 L329,293.6016 " fill="none"              style="stroke:#181818;stroke-width:1.0;"/>        <text fill="#000000" font-family="sans-serif" font-size="14" lengthAdjust="spacing" textLength="211" x="332"              y="316.7451">&#1079;&#1074;&#1091;&#1082;&#1086;&#1074;&#1099;&#1077; &#1101;&#1092;&#1092;&#1077;&#1082;&#1090;&#1099;            &#1080; &#1084;&#1091;&#1079;&#1099;&#1082;&#1072;        </text>        <path d="M279,257.0078 L289,257.0078 C304,257.0078 304,311.8984 319,311.8984 L329,311.8984 " fill="none"              style="stroke:#181818;stroke-width:1.0;"/>        <path d="M159,238.7109 L169,238.7109 C184,238.7109 184,257.0078 199,257.0078 L209,257.0078 " fill="none"              style="stroke:#181818;stroke-width:1.0;"/>        <text fill="#000000" font-family="sans-serif" font-size="14" lengthAdjust="spacing" textLength="78" x="212"              y="400.0811">&#1042;&#1077;&#1076;&#1091;&#1097;&#1077;&#1084;&#1091;        </text>        <text fill="#000000" font-family="sans-serif" font-size="14" lengthAdjust="spacing" textLength="67" x="212"              y="416.3779">&#1076;&#1083;&#1103; &#1080;&#1075;&#1088;&#1099;        </text>        <text fill="#000000" font-family="sans-serif" font-size="14" lengthAdjust="spacing" textLength="157" x="343"              y="380.7842">&#1087;&#1086;&#1076;&#1089;&#1082;&#1072;&#1079;&#1082;&#1080; &#1074;&#1077;&#1076;&#1091;&#1097;&#1077;&#1084;&#1091;        </text>        <text fill="#000000" font-family="sans-serif" font-size="14" lengthAdjust="spacing" textLength="410" x="553"              y="353.3389">&#1090;&#1080;&#1087;&#1080;&#1095;&#1085;&#1099;&#1077; &#1088;&#1077;&#1072;&#1082;&#1094;&#1080;&#1080;            &#1080;&#1075;&#1088;&#1086;&#1074;&#1086;&#1075;&#1086; &#1084;&#1080;&#1088;&#1072; &#1085;&#1072; &#1076;&#1077;&#1081;&#1089;&#1090;&#1074;&#1080;&#1103;            &#1080;&#1075;&#1088;&#1086;&#1082;&#1086;&#1074;        </text>        <path d="M500,375.9375 L510,375.9375 C525,375.9375 525,348.4922 540,348.4922 L550,348.4922 " fill="none"              style="stroke:#181818;stroke-width:1.0;"/>        <text fill="#000000" font-family="sans-serif" font-size="14" lengthAdjust="spacing" textLength="395" x="553"              y="371.6357">&#1084;&#1086;&#1076;&#1077;&#1083;&#1080;&#1088;&#1086;&#1074;&#1072;&#1085;&#1080;&#1077;            &#1093;&#1072;&#1088;&#1072;&#1082;&#1090;&#1077;&#1088;&#1072; &#1080; &#1087;&#1086;&#1074;&#1077;&#1076;&#1077;&#1085;&#1080;&#1103;            &#1087;&#1077;&#1088;&#1089;&#1086;&#1085;&#1072;&#1078;&#1077;&#1081;        </text>        <path d="M500,375.9375 L510,375.9375 C525,375.9375 525,366.7891 540,366.7891 L550,366.7891 " fill="none"              style="stroke:#181818;stroke-width:1.0;"/>        <text fill="#000000" font-family="sans-serif" font-size="14" lengthAdjust="spacing" textLength="300" x="553"              y="389.9326">&#1085;&#1072;&#1089;&#1090;&#1088;&#1086;&#1081;&#1082;&#1072; &#1087;&#1086;&#1076; &#1089;&#1074;&#1086;&#1081;            &#1089;&#1090;&#1080;&#1083;&#1100; &#1074;&#1077;&#1076;&#1077;&#1085;&#1080;&#1103; &#1080;&#1075;&#1088;&#1099;        </text>        <path d="M500,375.9375 L510,375.9375 C525,375.9375 525,385.0859 540,385.0859 L550,385.0859 " fill="none"              style="stroke:#181818;stroke-width:1.0;"/>        <text fill="#000000" font-family="sans-serif" font-size="14" lengthAdjust="spacing" textLength="270" x="553"              y="408.2295">&#1080;&#1084;&#1080;&#1090;&#1072;&#1094;&#1080;&#1102; &#1089;&#1090;&#1080;&#1083;&#1103;            &#1086;&#1087;&#1088;&#1077;&#1076;&#1077;&#1083;&#1077;&#1085;&#1085;&#1086;&#1075;&#1086; &#1044;&#1052;        </text>        <path d="M500,375.9375 L510,375.9375 C525,375.9375 525,403.3828 540,403.3828 L550,403.3828 " fill="none"              style="stroke:#181818;stroke-width:1.0;"/>        <path d="M290,403.3828 L300,403.3828 C315,403.3828 315,375.9375 330,375.9375 L340,375.9375 " fill="none"              style="stroke:#181818;stroke-width:1.0;"/>        <text fill="#000000" font-family="sans-serif" font-size="14" lengthAdjust="spacing" textLength="315" x="343"              y="426.5264">&#1075;&#1077;&#1085;&#1077;&#1088;&#1072;&#1090;&#1086;&#1088;/&#1082;&#1086;&#1085;&#1089;&#1090;&#1088;&#1091;&#1082;&#1090;&#1086;&#1088;            &#1080;&#1075;&#1088;&#1086;&#1074;&#1099;&#1093; &#1086;&#1073;&#1098;&#1077;&#1082;&#1090;&#1086;&#1074;        </text>        <path d="M290,403.3828 L300,403.3828 C315,403.3828 315,421.6797 330,421.6797 L340,421.6797 " fill="none"              style="stroke:#181818;stroke-width:1.0;"/>        <text fill="#000000" font-family="sans-serif" font-size="14" lengthAdjust="spacing" textLength="203" x="343"              y="444.8232">&#1084;&#1086;&#1076;&#1091;&#1083;&#1100; &#1089; &#1087;&#1088;&#1072;&#1074;&#1080;&#1083;&#1072;&#1084;&#1080;            D&amp;D 5        </text>        <path d="M290,403.3828 L300,403.3828 C315,403.3828 315,439.9766 330,439.9766 L340,439.9766 " fill="none"              style="stroke:#181818;stroke-width:1.0;"/>        <text fill="#000000" font-family="sans-serif" font-size="14" lengthAdjust="spacing" textLength="243" x="343"              y="463.1201">&#1084;&#1086;&#1076;&#1091;&#1083;&#1100; &#1089; &#1087;&#1088;&#1072;&#1074;&#1080;&#1083;&#1072;&#1084;&#1080;            Pathfinder 2        </text>        <path d="M290,403.3828 L300,403.3828 C315,403.3828 315,458.2734 330,458.2734 L340,458.2734 " fill="none"              style="stroke:#181818;stroke-width:1.0;"/>        <path d="M159,238.7109 L169,238.7109 C184,238.7109 184,403.3828 199,403.3828 L209,403.3828 " fill="none"              style="stroke:#181818;stroke-width:1.0;"/><!--SRC=[ZLNBRjD05DtxAsQ5cefIMXw2h2e88FKXAafP8I7JkYKITIh7gSGkQIW50aL2B5WWiU43J1xDn8dDBypy4UVUyIHf4b2bgexld7ldpZddZbVAeHk41qL_zy0zTEQ5-gNhAb6nVgUaIl4hKdtzIIMweJhFVNsigwgZVcEbYPL4IVt5cPz_8THFX0ZODKlw6B2-FdlkgxPA1MgrT5KtW2LmfEiCIF1VwhTOZH5xHzM4FbKTtgGhK2Z1otlQH_M4hl5A4x1QLkWFTiERYWKgf6g007UbfC2-VPHJVv2IwXEidYFK6VPCwP8pKdHsJBLG7RNCeSy1xH42RRGHhwiM4ay8rgVZeMlagO6ff3-3iTf_QrtzHojYJZNfPDD9CeUSSr1LDJAe2DWKcL8bK-YSaU4hohQHyW7FWQxFfX_vkaPIubG38uDkMCAuP1SlcRo02zQ38Z4BLfsGduj2mN7-ny94YTdRI3P5pN0fsmSzOH_iaIsWsJD28XXDAxSuIJuv8HdwApB4V2S6i11dfB0tBjBI9oiPAYQRjDjcfu4It2JG0AJyb1aaLR_1_wcHbsH51RnAVfv16BZeKZhKcOy8JFU7Nfd1ddNWARboIePHDGQOXYLJD6INc8ffQKWtAaIgHuG0AKSg77E0EcZ0YfOCEbfCBgdH70p01qyoVaawOvyUTBm1joPpjXw97MKtZMIUZFc8mG_ZaqfSjUX-8QhPUoaHEuQZrwQjoFSLtGQ8SMXWG1dhNKJhXW6wrD2pVejf9WwOVkeMW2uMO-kUMMCrmq5q7RNfEa8NNUO4lLx8774kWPOG9J5DJ90XCxlIKLiqmGEUkyZGnBT7ZmLfPZDgxJqcB4d1oFx5cQNjJaYxRA0xfh0q_NF3_pFSS5mJOoWktQCpPmIGYjHtpre6WeZ9kcF4sNcMD5ZidRDHvXVIsLuCdMmK4ilAD_N3iVxeyCUYojyUt0IBsJrW1omsuJ5gTOFkStBHHwE-vSvIXong7RuUZYBPcLqi2bSAujQbqPjk-6eF7ral4ClEYeUlRVR5TJPVktwulR4kZhoWN2pvOkdQylNb6zVkpZsjU6ArWi0DiRoKfx-ROcDhJT1opfbxjBakogLAiEE9tM8v38elAo7oSywgU-IA9nK_B1vuUV7uqFDN2sis81xuHyMWv1zuVkYiFjiO0MxVNBXN3CMM5w0JyMp3ANXxRkLrY8oTqcxHty-BxQSF5-uuwww_Nt7tKJkeEFTBg1kyoOidsty1]-->    </g></svg>