<?xml version="1.0" encoding="us-ascii" standalone="no"?>
<svg xmlns="http://www.w3.org/2000/svg" contentStyleType="text/css"
     height="436px" preserveAspectRatio="none" style="width:1137px;height:436px;background:#FFFFFF;" version="1.1"
     viewBox="0 0 1137 436" width="1137px" zoomAndPan="magnify">
    <defs/>
    <g>
        <rect fill="#F1F1F1" height="68.8906" rx="12.5" ry="12.5" style="stroke:#181818;stroke-width:1.5;" width="167"
              x="10" y="182.9746"/>
        <text fill="#000000" font-family="sans-serif" font-size="14" lengthAdjust="spacing" textLength="75" x="20"
              y="205.9697">&#1047;&#1085;&#1072;&#1095;&#1080;&#1084;&#1099;&#1077;
        </text>
        <text fill="#000000" font-family="sans-serif" font-size="14" lengthAdjust="spacing" textLength="147" x="20"
              y="222.2666">&#1085;&#1077;&#1092;&#1091;&#1085;&#1082;&#1094;&#1080;&#1086;&#1085;&#1072;&#1083;&#1100;&#1085;&#1099;&#1077;
        </text>
        <text fill="#000000" font-family="sans-serif" font-size="14" lengthAdjust="spacing" textLength="87" x="20"
              y="238.5635">&#1090;&#1088;&#1077;&#1073;&#1086;&#1074;&#1072;&#1085;&#1080;&#1103;
        </text>
        <rect fill="#F1F1F1" height="36.2969" rx="12.5" ry="12.5" style="stroke:#181818;stroke-width:1.5;" width="143"
              x="227" y="23.8711"/>
        <text fill="#000000" font-family="sans-serif" font-size="14" lengthAdjust="spacing" textLength="123" x="237"
              y="46.8662">&#1069;&#1088;&#1075;&#1086;&#1085;&#1086;&#1084;&#1080;&#1095;&#1085;&#1086;&#1089;&#1090;&#1100;
        </text>
        <text fill="#000000" font-family="sans-serif" font-size="14" lengthAdjust="spacing" textLength="259" x="423"
              y="23.9951">&#1058;&#1077;&#1084;&#1087; &#1080;&#1075;&#1088;&#1099;, &#1074;&#1088;&#1077;&#1084;&#1103;
            &#1093;&#1086;&#1076;&#1072; &#1087;&#1077;&#1088;&#1089;&#1086;&#1085;&#1072;&#1078;&#1072;
        </text>
        <text fill="#000000" font-family="sans-serif" font-size="14" lengthAdjust="spacing" textLength="226" x="735"
              y="23.9951">&#1085;&#1077; &#1073;&#1086;&#1083;&#1077;&#1077; 30 &#1089;&#1077;&#1082;&#1091;&#1085;&#1076;
            &#1074; &#1089;&#1088;&#1077;&#1076;&#1085;&#1077;&#1084;
        </text>
        <path d="M682,19.1484 L692,19.1484 C707,19.1484 707,19.1484 722,19.1484 L732,19.1484 " fill="none"
              style="stroke:#181818;stroke-width:1.0;"/>
        <path d="M370,42.0195 L380,42.0195 C395,42.0195 395,19.1484 410,19.1484 L420,19.1484 " fill="none"
              style="stroke:#181818;stroke-width:1.0;"/>
        <text fill="#000000" font-family="sans-serif" font-size="14" lengthAdjust="spacing" textLength="257" x="423"
              y="51.4404">&#1042;&#1088;&#1077;&#1084;&#1103; &#1089;&#1086;&#1079;&#1076;&#1072;&#1085;&#1080;&#1103;
            &#1080;&#1075;&#1088;&#1086;&#1074;&#1086;&#1075;&#1086; &#1086;&#1073;&#1098;&#1077;&#1082;&#1090;&#1072;
        </text>
        <text fill="#000000" font-family="sans-serif" font-size="14" lengthAdjust="spacing" textLength="255" x="733"
              y="42.292">&#1085;&#1077; &#1073;&#1086;&#1083;&#1077;&#1077; 30 &#1089;&#1077;&#1082;&#1091;&#1085;&#1076;
            &#1074;&#1086; &#1074;&#1088;&#1077;&#1084;&#1103; &#1080;&#1075;&#1088;&#1099;
        </text>
        <path d="M680,46.5938 L690,46.5938 C705,46.5938 705,37.4453 720,37.4453 L730,37.4453 " fill="none"
              style="stroke:#181818;stroke-width:1.0;"/>
        <text fill="#000000" font-family="sans-serif" font-size="14" lengthAdjust="spacing" textLength="192" x="733"
              y="60.5889">&#1085;&#1077; &#1073;&#1086;&#1083;&#1077;&#1077; 2 &#1084;&#1080;&#1085;&#1091;&#1090;
            &#1076;&#1086; &#1080;&#1075;&#1088;&#1099;
        </text>
        <path d="M680,46.5938 L690,46.5938 C705,46.5938 705,55.7422 720,55.7422 L730,55.7422 " fill="none"
              style="stroke:#181818;stroke-width:1.0;"/>
        <path d="M370,42.0195 L380,42.0195 C395,42.0195 395,46.5938 410,46.5938 L420,46.5938 " fill="none"
              style="stroke:#181818;stroke-width:1.0;"/>
        <text fill="#000000" font-family="sans-serif" font-size="14" lengthAdjust="spacing" textLength="172" x="423"
              y="69.7373">&#1054;&#1090;&#1079;&#1099;&#1074;&#1099; &#1087;&#1086;&#1083;&#1100;&#1079;&#1086;&#1074;&#1072;&#1090;&#1077;&#1083;&#1077;&#1081;
        </text>
        <path d="M370,42.0195 L380,42.0195 C395,42.0195 395,64.8906 410,64.8906 L420,64.8906 " fill="none"
              style="stroke:#181818;stroke-width:1.0;"/>
        <path d="M177,217.4199 L187,217.4199 C202,217.4199 202,42.0195 217,42.0195 L227,42.0195 " fill="none"
              style="stroke:#181818;stroke-width:1.0;"/>
        <rect fill="#F1F1F1" height="36.2969" rx="12.5" ry="12.5" style="stroke:#181818;stroke-width:1.5;" width="115"
              x="227" y="80.168"/>
        <text fill="#000000" font-family="sans-serif" font-size="14" lengthAdjust="spacing" textLength="95" x="237"
              y="103.1631">&#1044;&#1086;&#1089;&#1090;&#1091;&#1087;&#1085;&#1086;&#1089;&#1090;&#1100;
        </text>
        <text fill="#000000" font-family="sans-serif" font-size="14" lengthAdjust="spacing" textLength="267" x="395"
              y="103.1631">&#1055;&#1088;&#1086;&#1094;&#1077;&#1085;&#1090; &#1085;&#1077;&#1086;&#1073;&#1088;&#1072;&#1073;&#1086;&#1090;&#1072;&#1085;&#1085;&#1099;&#1093;
            &#1079;&#1072;&#1087;&#1088;&#1086;&#1089;&#1086;&#1074;
        </text>
        <text fill="#000000" font-family="sans-serif" font-size="14" lengthAdjust="spacing" textLength="73" x="715"
              y="103.1631">&#1084;&#1077;&#1085;&#1077;&#1077; 1%
        </text>
        <path d="M662,98.3164 L672,98.3164 C687,98.3164 687,98.3164 702,98.3164 L712,98.3164 " fill="none"
              style="stroke:#181818;stroke-width:1.0;"/>
        <path d="M342,98.3164 L352,98.3164 C367,98.3164 367,98.3164 382,98.3164 L392,98.3164 " fill="none"
              style="stroke:#181818;stroke-width:1.0;"/>
        <path d="M177,217.4199 L187,217.4199 C202,217.4199 202,98.3164 217,98.3164 L227,98.3164 " fill="none"
              style="stroke:#181818;stroke-width:1.0;"/>
        <rect fill="#F1F1F1" height="36.2969" rx="12.5" ry="12.5" style="stroke:#181818;stroke-width:1.5;" width="172"
              x="227" y="136.4648"/>
        <text fill="#000000" font-family="sans-serif" font-size="14" lengthAdjust="spacing" textLength="152" x="237"
              y="159.46">&#1054;&#1090;&#1082;&#1072;&#1079;&#1086;&#1091;&#1089;&#1090;&#1086;&#1081;&#1095;&#1080;&#1074;&#1086;&#1089;&#1090;&#1100;
        </text>
        <text fill="#000000" font-family="sans-serif" font-size="14" lengthAdjust="spacing" textLength="386" x="452"
              y="150.3115">&#1057;&#1088;&#1077;&#1076;&#1085;&#1077;&#1077; &#1074;&#1088;&#1077;&#1084;&#1103; &#1093;&#1086;&#1076;&#1072;
            &#1087;&#1077;&#1088;&#1089;&#1086;&#1085;&#1072;&#1078;&#1072; &#1087;&#1088;&#1080; &#1086;&#1090;&#1082;&#1072;&#1079;&#1077;
            &#1084;&#1086;&#1076;&#1091;&#1083;&#1103;
        </text>
        <text fill="#000000" font-family="sans-serif" font-size="14" lengthAdjust="spacing" textLength="234" x="891"
              y="150.3115">&#1085;&#1077; &#1084;&#1077;&#1085;&#1103;&#1077;&#1090;&#1089;&#1103; &#1073;&#1086;&#1083;&#1077;&#1077;,
            &#1095;&#1077;&#1084; &#1085;&#1072; 30%
        </text>
        <path d="M838,145.4648 L848,145.4648 C863,145.4648 863,145.4648 878,145.4648 L888,145.4648 " fill="none"
              style="stroke:#181818;stroke-width:1.0;"/>
        <path d="M399,154.6133 L409,154.6133 C424,154.6133 424,145.4648 439,145.4648 L449,145.4648 " fill="none"
              style="stroke:#181818;stroke-width:1.0;"/>
        <text fill="#000000" font-family="sans-serif" font-size="14" lengthAdjust="spacing" textLength="360" x="452"
              y="168.6084">&#1054;&#1090;&#1079;&#1099;&#1074;&#1099; &#1087;&#1086;&#1083;&#1100;&#1079;&#1086;&#1074;&#1072;&#1090;&#1077;&#1083;&#1077;&#1081;
            &#1079;&#1072; &#1087;&#1088;&#1086;&#1073;&#1083;&#1077;&#1084;&#1085;&#1099;&#1077; &#1087;&#1077;&#1088;&#1080;&#1086;&#1076;&#1099;
        </text>
        <path d="M399,154.6133 L409,154.6133 C424,154.6133 424,163.7617 439,163.7617 L449,163.7617 " fill="none"
              style="stroke:#181818;stroke-width:1.0;"/>
        <path d="M177,217.4199 L187,217.4199 C202,217.4199 202,154.6133 217,154.6133 L227,154.6133 " fill="none"
              style="stroke:#181818;stroke-width:1.0;"/>
        <rect fill="#F1F1F1" height="36.2969" rx="12.5" ry="12.5" style="stroke:#181818;stroke-width:1.5;" width="123"
              x="227" y="201.207"/>
        <text fill="#000000" font-family="sans-serif" font-size="14" lengthAdjust="spacing" textLength="103" x="237"
              y="224.2021">&#1054;&#1090;&#1079;&#1099;&#1074;&#1095;&#1080;&#1074;&#1086;&#1089;&#1090;&#1100;
        </text>
        <text fill="#000000" font-family="sans-serif" font-size="14" lengthAdjust="spacing" textLength="194" x="403"
              y="224.2021">&#1042;&#1088;&#1077;&#1084;&#1103; &#1086;&#1073;&#1088;&#1072;&#1073;&#1086;&#1090;&#1082;&#1080;
            &#1079;&#1072;&#1087;&#1088;&#1086;&#1089;&#1072;
        </text>
        <text fill="#000000" font-family="sans-serif" font-size="14" lengthAdjust="spacing" textLength="172" x="650"
              y="196.7568">&#1055;&#1086;&#1080;&#1089;&#1082; &#1087;&#1086; &#1082;&#1086;&#1084;&#1087;&#1077;&#1085;&#1076;&#1080;&#1091;&#1084;&#1091;
        </text>
        <text fill="#000000" font-family="sans-serif" font-size="14" lengthAdjust="spacing" textLength="127" x="875"
              y="196.7568">&#1084;&#1077;&#1085;&#1077;&#1077; 1 &#1089;&#1077;&#1082;&#1091;&#1085;&#1076;&#1099;
        </text>
        <path d="M822,191.9102 L832,191.9102 C847,191.9102 847,191.9102 862,191.9102 L872,191.9102 " fill="none"
              style="stroke:#181818;stroke-width:1.0;"/>
        <path d="M597,219.3555 L607,219.3555 C622,219.3555 622,191.9102 637,191.9102 L647,191.9102 " fill="none"
              style="stroke:#181818;stroke-width:1.0;"/>
        <text fill="#000000" font-family="sans-serif" font-size="14" lengthAdjust="spacing" textLength="159" x="650"
              y="215.0537">&#1044;&#1077;&#1081;&#1089;&#1090;&#1074;&#1080;&#1077; &#1087;&#1077;&#1088;&#1089;&#1086;&#1085;&#1072;&#1078;&#1072;
        </text>
        <text fill="#000000" font-family="sans-serif" font-size="14" lengthAdjust="spacing" textLength="127" x="862"
              y="215.0537">&#1084;&#1077;&#1085;&#1077;&#1077; 1 &#1089;&#1077;&#1082;&#1091;&#1085;&#1076;&#1099;
        </text>
        <path d="M809,210.207 L819,210.207 C834,210.207 834,210.207 849,210.207 L859,210.207 " fill="none"
              style="stroke:#181818;stroke-width:1.0;"/>
        <path d="M597,219.3555 L607,219.3555 C622,219.3555 622,210.207 637,210.207 L647,210.207 " fill="none"
              style="stroke:#181818;stroke-width:1.0;"/>
        <text fill="#000000" font-family="sans-serif" font-size="14" lengthAdjust="spacing" textLength="230" x="650"
              y="233.3506">&#1054;&#1087;&#1088;&#1086;&#1089; &#1080;&#1079;&#1084;&#1077;&#1085;&#1077;&#1085;&#1080;&#1081;
            &#1074; &#1086;&#1082;&#1088;&#1091;&#1078;&#1077;&#1085;&#1080;&#1080;
        </text>
        <text fill="#000000" font-family="sans-serif" font-size="14" lengthAdjust="spacing" textLength="116" x="933"
              y="233.3506">&#1084;&#1077;&#1085;&#1077;&#1077; 2 &#1089;&#1077;&#1082;&#1091;&#1085;&#1076;
        </text>
        <path d="M880,228.5039 L890,228.5039 C905,228.5039 905,228.5039 920,228.5039 L930,228.5039 " fill="none"
              style="stroke:#181818;stroke-width:1.0;"/>
        <path d="M597,219.3555 L607,219.3555 C622,219.3555 622,228.5039 637,228.5039 L647,228.5039 " fill="none"
              style="stroke:#181818;stroke-width:1.0;"/>
        <text fill="#000000" font-family="sans-serif" font-size="14" lengthAdjust="spacing" textLength="271" x="650"
              y="251.6475">&#1042;&#1088;&#1077;&#1084;&#1103; &#1075;&#1077;&#1085;&#1077;&#1088;&#1072;&#1094;&#1080;&#1080;
            &#1087;&#1086;&#1088;&#1094;&#1080;&#1080; &#1087;&#1086;&#1076;&#1089;&#1082;&#1072;&#1079;&#1086;&#1082;
        </text>
        <text fill="#000000" font-family="sans-serif" font-size="14" lengthAdjust="spacing" textLength="116" x="974"
              y="251.6475">&#1084;&#1077;&#1085;&#1077;&#1077; 5 &#1089;&#1077;&#1082;&#1091;&#1085;&#1076;
        </text>
        <path d="M921,246.8008 L931,246.8008 C946,246.8008 946,246.8008 961,246.8008 L971,246.8008 " fill="none"
              style="stroke:#181818;stroke-width:1.0;"/>
        <path d="M597,219.3555 L607,219.3555 C622,219.3555 622,246.8008 637,246.8008 L647,246.8008 " fill="none"
              style="stroke:#181818;stroke-width:1.0;"/>
        <path d="M350,219.3555 L360,219.3555 C375,219.3555 375,219.3555 390,219.3555 L400,219.3555 " fill="none"
              style="stroke:#181818;stroke-width:1.0;"/>
        <text fill="#000000" font-family="sans-serif" font-size="14" lengthAdjust="spacing" textLength="172" x="403"
              y="242.499">&#1054;&#1090;&#1079;&#1099;&#1074;&#1099; &#1087;&#1086;&#1083;&#1100;&#1079;&#1086;&#1074;&#1072;&#1090;&#1077;&#1083;&#1077;&#1081;
        </text>
        <path d="M350,219.3555 L360,219.3555 C375,219.3555 375,237.6523 390,237.6523 L400,237.6523 " fill="none"
              style="stroke:#181818;stroke-width:1.0;"/>
        <path d="M177,217.4199 L187,217.4199 C202,217.4199 202,219.3555 217,219.3555 L227,219.3555 " fill="none"
              style="stroke:#181818;stroke-width:1.0;"/>
        <rect fill="#F1F1F1" height="36.2969" rx="12.5" ry="12.5" style="stroke:#181818;stroke-width:1.5;" width="177"
              x="227" y="265.9492"/>
        <text fill="#000000" font-family="sans-serif" font-size="14" lengthAdjust="spacing" textLength="157" x="237"
              y="288.9443">&#1055;&#1088;&#1086;&#1080;&#1079;&#1074;&#1086;&#1076;&#1080;&#1090;&#1077;&#1083;&#1100;&#1085;&#1086;&#1089;&#1090;&#1100;
        </text>
        <text fill="#000000" font-family="sans-serif" font-size="14" lengthAdjust="spacing" textLength="358" x="457"
              y="270.6475">&#1050;&#1086;&#1083;&#1080;&#1095;&#1077;&#1089;&#1090;&#1074;&#1086; &#1086;&#1076;&#1085;&#1086;&#1074;&#1088;&#1077;&#1084;&#1077;&#1085;&#1085;&#1086;
            &#1080;&#1075;&#1088;&#1072;&#1102;&#1097;&#1080;&#1093; &#1082;&#1072;&#1084;&#1087;&#1072;&#1085;&#1080;&#1081;
        </text>
        <text fill="#000000" font-family="sans-serif" font-size="14" lengthAdjust="spacing" textLength="41" x="868"
              y="270.6475">&#1076;&#1086; 50
        </text>
        <path d="M815,265.8008 L825,265.8008 C840,265.8008 840,265.8008 855,265.8008 L865,265.8008 " fill="none"
              style="stroke:#181818;stroke-width:1.0;"/>
        <path d="M404,284.0977 L414,284.0977 C429,284.0977 429,265.8008 444,265.8008 L454,265.8008 " fill="none"
              style="stroke:#181818;stroke-width:1.0;"/>
        <text fill="#000000" font-family="sans-serif" font-size="14" lengthAdjust="spacing" textLength="235" x="457"
              y="288.9443">&#1050;&#1086;&#1083;&#1080;&#1095;&#1077;&#1089;&#1090;&#1074;&#1086; &#1079;&#1072;&#1087;&#1088;&#1086;&#1089;&#1086;&#1074;
            &#1074; &#1089;&#1077;&#1082;&#1091;&#1085;&#1076;&#1091;
        </text>
        <text fill="#000000" font-family="sans-serif" font-size="14" lengthAdjust="spacing" textLength="41" x="745"
              y="288.9443">&#1076;&#1086; 20
        </text>
        <path d="M692,284.0977 L702,284.0977 C717,284.0977 717,284.0977 732,284.0977 L742,284.0977 " fill="none"
              style="stroke:#181818;stroke-width:1.0;"/>
        <path d="M404,284.0977 L414,284.0977 C429,284.0977 429,284.0977 444,284.0977 L454,284.0977 " fill="none"
              style="stroke:#181818;stroke-width:1.0;"/>
        <text fill="#000000" font-family="sans-serif" font-size="14" lengthAdjust="spacing" textLength="172" x="457"
              y="307.2412">&#1054;&#1090;&#1079;&#1099;&#1074;&#1099; &#1087;&#1086;&#1083;&#1100;&#1079;&#1086;&#1074;&#1072;&#1090;&#1077;&#1083;&#1077;&#1081;
        </text>
        <path d="M404,284.0977 L414,284.0977 C429,284.0977 429,302.3945 444,302.3945 L454,302.3945 " fill="none"
              style="stroke:#181818;stroke-width:1.0;"/>
        <path d="M177,217.4199 L187,217.4199 C202,217.4199 202,284.0977 217,284.0977 L227,284.0977 " fill="none"
              style="stroke:#181818;stroke-width:1.0;"/>
        <rect fill="#F1F1F1" height="36.2969" rx="12.5" ry="12.5" style="stroke:#181818;stroke-width:1.5;" width="168"
              x="227" y="322.2461"/>
        <text fill="#000000" font-family="sans-serif" font-size="14" lengthAdjust="spacing" textLength="148" x="237"
              y="345.2412">&#1057;&#1086;&#1087;&#1088;&#1086;&#1074;&#1086;&#1078;&#1076;&#1072;&#1077;&#1084;&#1086;&#1089;&#1090;&#1100;
        </text>
        <text fill="#000000" font-family="sans-serif" font-size="14" lengthAdjust="spacing" textLength="226" x="448"
              y="326.9443">&#1042;&#1088;&#1077;&#1084;&#1103; &#1076;&#1080;&#1072;&#1075;&#1085;&#1086;&#1089;&#1090;&#1080;&#1082;&#1080;
            &#1087;&#1088;&#1086;&#1073;&#1083;&#1077;&#1084;&#1099;
        </text>
        <text fill="#000000" font-family="sans-serif" font-size="14" lengthAdjust="spacing" textLength="90" x="727"
              y="326.9443">&#1076;&#1086; 10 &#1084;&#1080;&#1085;&#1091;&#1090;
        </text>
        <path d="M674,322.0977 L684,322.0977 C699,322.0977 699,322.0977 714,322.0977 L724,322.0977 " fill="none"
              style="stroke:#181818;stroke-width:1.0;"/>
        <path d="M395,340.3945 L405,340.3945 C420,340.3945 420,322.0977 435,322.0977 L445,322.0977 " fill="none"
              style="stroke:#181818;stroke-width:1.0;"/>
        <text fill="#000000" font-family="sans-serif" font-size="14" lengthAdjust="spacing" textLength="333" x="448"
              y="345.2412">&#1042;&#1088;&#1077;&#1084;&#1103; &#1092;&#1086;&#1088;&#1084;&#1080;&#1088;&#1086;&#1074;&#1072;&#1085;&#1080;&#1103;
            &#1087;&#1086;&#1089;&#1090;&#1072;&#1085;&#1086;&#1074;&#1082;&#1080; &#1076;&#1083;&#1103; &#1092;&#1080;&#1082;&#1089;&#1072;
        </text>
        <text fill="#000000" font-family="sans-serif" font-size="14" lengthAdjust="spacing" textLength="90" x="834"
              y="345.2412">&#1076;&#1086; 10 &#1084;&#1080;&#1085;&#1091;&#1090;
        </text>
        <path d="M781,340.3945 L791,340.3945 C806,340.3945 806,340.3945 821,340.3945 L831,340.3945 " fill="none"
              style="stroke:#181818;stroke-width:1.0;"/>
        <path d="M395,340.3945 L405,340.3945 C420,340.3945 420,340.3945 435,340.3945 L445,340.3945 " fill="none"
              style="stroke:#181818;stroke-width:1.0;"/>
        <text fill="#000000" font-family="sans-serif" font-size="14" lengthAdjust="spacing" textLength="419" x="448"
              y="363.5381">&#1055;&#1088;&#1086;&#1094;&#1077;&#1085;&#1090; &#1072;&#1074;&#1090;&#1086;&#1084;&#1072;&#1090;&#1080;&#1095;&#1077;&#1089;&#1082;&#1080;
            &#1089;&#1086;&#1079;&#1076;&#1072;&#1085;&#1085;&#1099;&#1093; &#1087;&#1086;&#1089;&#1090;&#1072;&#1085;&#1086;&#1074;&#1086;&#1082;
            &#1085;&#1072; &#1092;&#1080;&#1082;&#1089;
        </text>
        <text fill="#000000" font-family="sans-serif" font-size="14" lengthAdjust="spacing" textLength="54" x="920"
              y="363.5381">&#1076;&#1086; 50%
        </text>
        <path d="M867,358.6914 L877,358.6914 C892,358.6914 892,358.6914 907,358.6914 L917,358.6914 " fill="none"
              style="stroke:#181818;stroke-width:1.0;"/>
        <path d="M395,340.3945 L405,340.3945 C420,340.3945 420,358.6914 435,358.6914 L445,358.6914 " fill="none"
              style="stroke:#181818;stroke-width:1.0;"/>
        <path d="M177,217.4199 L187,217.4199 C202,217.4199 202,340.3945 217,340.3945 L227,340.3945 " fill="none"
              style="stroke:#181818;stroke-width:1.0;"/>
        <rect fill="#F1F1F1" height="36.2969" rx="12.5" ry="12.5" style="stroke:#181818;stroke-width:1.5;" width="136"
              x="227" y="378.543"/>
        <text fill="#000000" font-family="sans-serif" font-size="14" lengthAdjust="spacing" textLength="116" x="237"
              y="401.5381">&#1057;&#1086;&#1074;&#1084;&#1077;&#1089;&#1090;&#1080;&#1084;&#1086;&#1089;&#1090;&#1100;
        </text>
        <text fill="#000000" font-family="sans-serif" font-size="14" lengthAdjust="spacing" textLength="363" x="416"
              y="392.3896">&#1055;&#1088;&#1086;&#1094;&#1077;&#1085;&#1090; &#1086;&#1093;&#1074;&#1072;&#1090;&#1072;
            &#1101;&#1082;&#1089;&#1087;&#1086;&#1088;&#1090;&#1072; &#1080;&#1079; &#1089;&#1090;&#1086;&#1088;&#1086;&#1085;&#1085;&#1077;&#1081;
            &#1089;&#1080;&#1089;&#1090;&#1077;&#1084;&#1099;
        </text>
        <text fill="#000000" font-family="sans-serif" font-size="14" lengthAdjust="spacing" textLength="80" x="832"
              y="392.3896">&#1073;&#1086;&#1083;&#1077;&#1077; 95%
        </text>
        <path d="M779,387.543 L789,387.543 C804,387.543 804,387.543 819,387.543 L829,387.543 " fill="none"
              style="stroke:#181818;stroke-width:1.0;"/>
        <path d="M363,396.6914 L373,396.6914 C388,396.6914 388,387.543 403,387.543 L413,387.543 " fill="none"
              style="stroke:#181818;stroke-width:1.0;"/>
        <text fill="#000000" font-family="sans-serif" font-size="14" lengthAdjust="spacing" textLength="438" x="416"
              y="410.6865">&#1055;&#1088;&#1086;&#1094;&#1077;&#1085;&#1090; &#1086;&#1093;&#1074;&#1072;&#1090;&#1072;
            &#1101;&#1082;&#1089;&#1087;&#1086;&#1088;&#1090;&#1072; &#1080;&#1079; &#1074;&#1099;&#1073;&#1088;&#1072;&#1085;&#1085;&#1099;&#1093;
            &#1089;&#1090;&#1086;&#1088;&#1086;&#1085;&#1085;&#1080;&#1093; &#1089;&#1080;&#1089;&#1090;&#1077;&#1084;
        </text>
        <text fill="#000000" font-family="sans-serif" font-size="14" lengthAdjust="spacing" textLength="80" x="907"
              y="410.6865">&#1073;&#1086;&#1083;&#1077;&#1077; 95%
        </text>
        <path d="M854,405.8398 L864,405.8398 C879,405.8398 879,405.8398 894,405.8398 L904,405.8398 " fill="none"
              style="stroke:#181818;stroke-width:1.0;"/>
        <path d="M363,396.6914 L373,396.6914 C388,396.6914 388,405.8398 403,405.8398 L413,405.8398 " fill="none"
              style="stroke:#181818;stroke-width:1.0;"/>
        <path d="M177,217.4199 L187,217.4199 C202,217.4199 202,396.6914 217,396.6914 L227,396.6914 " fill="none"
              style="stroke:#181818;stroke-width:1.0;"/><!--SRC=[dLPRInjH47xVNp4lWagL6BLKdwIrBNYXuksfK5BTIa0t4ZT2tsAYbLPReGY5FYZslH0tMLrZBd_Xd7_KRsPtivlLY1O2oPupCzyttrmsKpjs9czlPQtrhSosCKZgbsggYZvKdche8-M-j_3iwdrTndTTVy5vYotKhJvMJTz2btHHkUeIDmvkcihJ9yOWOlt5ULNiMwg1qqF-fVTWVupxmG-a_i2leTg4i5LTr4VFI3aIhA5FI1_0hwOgfDgWKDHx0VILgh0x-uCR2V0jV5mQJH6iN11bkZK4mxF4gx6fQWImFoCC3dhDA3xlW8caqcBoXAzB_Ks2bfu0p9vHAc5-FTpJnFf0px8k4SYqkXnWVmRiQwZjw2DMeoNoN_k2uygLE3SY-caWSHbsIRdFEJCKqGLKILX8TaLa3pAS7yvGLNr0Y5vHRR5dYPoGUOETXVH8d-0njJfimGRqWGRh6saW9u5-4Qk4-yX2at3mIDZvC2wJW3qol9L6YnGLSle4GKf0Feb9_8n02MXiM46v-fuahAZXKu5USjRmkp-WB6DHatB5OzwdGjHx2Uthd6PSzKwpdSFImq5TA18iUPxQKeaQRie8LnRZH8MwcZBglbFEIKhbWA3RQxuU5-mivCizUzrnm3InRWvdMKVmCiBwfzuzmTDTmSFGCQcglYdB9Kl84oaGDte0gRsm4rNz7f3nEo1FcooP7adIaNxr_7jUX8aQ_vQsuuNd1ZBB7gd99WpwNcWrEwCEj1_wAtmEI9BW-bPy5KCvU2-Cfnw2ICoil_zYHIl7GwLJJvVW0gVjpdgyaht9kVHiSQW4asge49wapRicAUebfZMIYYt3k_jwdwikRvDY_7tZjyDUiCBuGd1gl2BO2RZnYUe5b5YG5MXIac5Z8GAn9NBNUoFOc4a6BHvONZSXVdSX-pgAEjmDWJoDXrTs2xlIBml2VfUa_3dW0-vDybUmgDEKnhzXifuSTuaTlNucnll-5usR9jXYeGu90fuSHGJkXvyoyGya-1TYB6ncB7jbVevspVnEDcVHo70wbHuTdkXVBfWqKy31AAL79lapHlDBiyJN0qR_suKvsiaLycichMTtx7psOy66_u0nazdDq6B1ihDRvYIzspQjcUdPy81UMxlPVCxQCYtRc5cTZmoUZmszpDgqPER1X5RdZMdpKwQmQSDZBRUUjJOcQMNvpT0BOovZRHGo6uYTBnYlSeYR_pn9Yol_0000]-->
    </g>
</svg>
