<?xml version="1.0" encoding="us-ascii" standalone="no"?><svg xmlns="http://www.w3.org/2000/svg" xmlns:xlink="http://www.w3.org/1999/xlink" contentStyleType="text/css" height="436px" preserveAspectRatio="none" style="width:1130px;height:436px;background:#FFFFFF;" version="1.1" viewBox="0 0 1130 436" width="1130px" zoomAndPan="magnify"><defs/><g><rect fill="#F1F1F1" height="68.8906" rx="12.5" ry="12.5" style="stroke:#181818;stroke-width:1.5;" width="166" x="10" y="182.9746"/><text fill="#000000" font-family="sans-serif" font-size="14" lengthAdjust="spacing" textLength="73" x="20" y="205.9697">&#1047;&#1085;&#1072;&#1095;&#1080;&#1084;&#1099;&#1077;</text><text fill="#000000" font-family="sans-serif" font-size="14" lengthAdjust="spacing" textLength="146" x="20" y="222.2666">&#1085;&#1077;&#1092;&#1091;&#1085;&#1082;&#1094;&#1080;&#1086;&#1085;&#1072;&#1083;&#1100;&#1085;&#1099;&#1077;</text><text fill="#000000" font-family="sans-serif" font-size="14" lengthAdjust="spacing" textLength="87" x="20" y="238.5635">&#1090;&#1088;&#1077;&#1073;&#1086;&#1074;&#1072;&#1085;&#1080;&#1103;</text><rect fill="#F1F1F1" height="36.2969" rx="12.5" ry="12.5" style="stroke:#181818;stroke-width:1.5;" width="143" x="226" y="23.8711"/><text fill="#000000" font-family="sans-serif" font-size="14" lengthAdjust="spacing" textLength="123" x="236" y="46.8662">&#1069;&#1088;&#1075;&#1086;&#1085;&#1086;&#1084;&#1080;&#1095;&#1085;&#1086;&#1089;&#1090;&#1100;</text><text fill="#000000" font-family="sans-serif" font-size="14" lengthAdjust="spacing" textLength="253" x="422" y="23.9951">&#1058;&#1077;&#1084;&#1087; &#1080;&#1075;&#1088;&#1099;, &#1074;&#1088;&#1077;&#1084;&#1103; &#1093;&#1086;&#1076;&#1072; &#1087;&#1077;&#1088;&#1089;&#1086;&#1085;&#1072;&#1078;&#1072;</text><text fill="#000000" font-family="sans-serif" font-size="14" lengthAdjust="spacing" textLength="224" x="728" y="23.9951">&#1085;&#1077; &#1073;&#1086;&#1083;&#1077;&#1077; 30 &#1089;&#1077;&#1082;&#1091;&#1085;&#1076; &#1074; &#1089;&#1088;&#1077;&#1076;&#1085;&#1077;&#1084;</text><path d="M675,19.1484 L685,19.1484 C700,19.1484 700,19.1484 715,19.1484 L725,19.1484 " fill="none" style="stroke:#181818;stroke-width:1.0;"/><path d="M369,42.0195 L379,42.0195 C394,42.0195 394,19.1484 409,19.1484 L419,19.1484 " fill="none" style="stroke:#181818;stroke-width:1.0;"/><text fill="#000000" font-family="sans-serif" font-size="14" lengthAdjust="spacing" textLength="256" x="422" y="51.4404">&#1042;&#1088;&#1077;&#1084;&#1103; &#1089;&#1086;&#1079;&#1076;&#1072;&#1085;&#1080;&#1103; &#1080;&#1075;&#1088;&#1086;&#1074;&#1086;&#1075;&#1086; &#1086;&#1073;&#1098;&#1077;&#1082;&#1090;&#1072;</text><text fill="#000000" font-family="sans-serif" font-size="14" lengthAdjust="spacing" textLength="253" x="731" y="42.292">&#1085;&#1077; &#1073;&#1086;&#1083;&#1077;&#1077; 30 &#1089;&#1077;&#1082;&#1091;&#1085;&#1076; &#1074;&#1086; &#1074;&#1088;&#1077;&#1084;&#1103; &#1080;&#1075;&#1088;&#1099;</text><path d="M678,46.5938 L688,46.5938 C703,46.5938 703,37.4453 718,37.4453 L728,37.4453 " fill="none" style="stroke:#181818;stroke-width:1.0;"/><text fill="#000000" font-family="sans-serif" font-size="14" lengthAdjust="spacing" textLength="191" x="731" y="60.5889">&#1085;&#1077; &#1073;&#1086;&#1083;&#1077;&#1077; 2 &#1084;&#1080;&#1085;&#1091;&#1090; &#1076;&#1086; &#1080;&#1075;&#1088;&#1099;</text><path d="M678,46.5938 L688,46.5938 C703,46.5938 703,55.7422 718,55.7422 L728,55.7422 " fill="none" style="stroke:#181818;stroke-width:1.0;"/><path d="M369,42.0195 L379,42.0195 C394,42.0195 394,46.5938 409,46.5938 L419,46.5938 " fill="none" style="stroke:#181818;stroke-width:1.0;"/><text fill="#000000" font-family="sans-serif" font-size="14" lengthAdjust="spacing" textLength="175" x="422" y="69.7373">&#1054;&#1090;&#1079;&#1099;&#1074;&#1099; &#1087;&#1086;&#1083;&#1100;&#1079;&#1086;&#1074;&#1072;&#1090;&#1077;&#1083;&#1077;&#1081;</text><path d="M369,42.0195 L379,42.0195 C394,42.0195 394,64.8906 409,64.8906 L419,64.8906 " fill="none" style="stroke:#181818;stroke-width:1.0;"/><path d="M176,217.4199 L186,217.4199 C201,217.4199 201,42.0195 216,42.0195 L226,42.0195 " fill="none" style="stroke:#181818;stroke-width:1.0;"/><rect fill="#F1F1F1" height="36.2969" rx="12.5" ry="12.5" style="stroke:#181818;stroke-width:1.5;" width="117" x="226" y="80.168"/><text fill="#000000" font-family="sans-serif" font-size="14" lengthAdjust="spacing" textLength="97" x="236" y="103.1631">&#1044;&#1086;&#1089;&#1090;&#1091;&#1087;&#1085;&#1086;&#1089;&#1090;&#1100;</text><text fill="#000000" font-family="sans-serif" font-size="14" lengthAdjust="spacing" textLength="265" x="396" y="103.1631">&#1055;&#1088;&#1086;&#1094;&#1077;&#1085;&#1090; &#1085;&#1077;&#1086;&#1073;&#1088;&#1072;&#1073;&#1086;&#1090;&#1072;&#1085;&#1085;&#1099;&#1093; &#1079;&#1072;&#1087;&#1088;&#1086;&#1089;&#1086;&#1074;</text><text fill="#000000" font-family="sans-serif" font-size="14" lengthAdjust="spacing" textLength="72" x="714" y="103.1631">&#1084;&#1077;&#1085;&#1077;&#1077; 1%</text><path d="M661,98.3164 L671,98.3164 C686,98.3164 686,98.3164 701,98.3164 L711,98.3164 " fill="none" style="stroke:#181818;stroke-width:1.0;"/><path d="M343,98.3164 L353,98.3164 C368,98.3164 368,98.3164 383,98.3164 L393,98.3164 " fill="none" style="stroke:#181818;stroke-width:1.0;"/><path d="M176,217.4199 L186,217.4199 C201,217.4199 201,98.3164 216,98.3164 L226,98.3164 " fill="none" style="stroke:#181818;stroke-width:1.0;"/><rect fill="#F1F1F1" height="36.2969" rx="12.5" ry="12.5" style="stroke:#181818;stroke-width:1.5;" width="174" x="226" y="136.4648"/><text fill="#000000" font-family="sans-serif" font-size="14" lengthAdjust="spacing" textLength="154" x="236" y="159.46">&#1054;&#1090;&#1082;&#1072;&#1079;&#1086;&#1091;&#1089;&#1090;&#1086;&#1081;&#1095;&#1080;&#1074;&#1086;&#1089;&#1090;&#1100;</text><text fill="#000000" font-family="sans-serif" font-size="14" lengthAdjust="spacing" textLength="380" x="453" y="150.3115">&#1057;&#1088;&#1077;&#1076;&#1085;&#1077;&#1077; &#1074;&#1088;&#1077;&#1084;&#1103; &#1093;&#1086;&#1076;&#1072; &#1087;&#1077;&#1088;&#1089;&#1086;&#1085;&#1072;&#1078;&#1072; &#1087;&#1088;&#1080; &#1086;&#1090;&#1082;&#1072;&#1079;&#1077; &#1084;&#1086;&#1076;&#1091;&#1083;&#1103;</text><text fill="#000000" font-family="sans-serif" font-size="14" lengthAdjust="spacing" textLength="232" x="886" y="150.3115">&#1085;&#1077; &#1084;&#1077;&#1085;&#1103;&#1077;&#1090;&#1089;&#1103; &#1073;&#1086;&#1083;&#1077;&#1077;, &#1095;&#1077;&#1084; &#1085;&#1072; 30%</text><path d="M833,145.4648 L843,145.4648 C858,145.4648 858,145.4648 873,145.4648 L883,145.4648 " fill="none" style="stroke:#181818;stroke-width:1.0;"/><path d="M400,154.6133 L410,154.6133 C425,154.6133 425,145.4648 440,145.4648 L450,145.4648 " fill="none" style="stroke:#181818;stroke-width:1.0;"/><text fill="#000000" font-family="sans-serif" font-size="14" lengthAdjust="spacing" textLength="362" x="453" y="168.6084">&#1054;&#1090;&#1079;&#1099;&#1074;&#1099; &#1087;&#1086;&#1083;&#1100;&#1079;&#1086;&#1074;&#1072;&#1090;&#1077;&#1083;&#1077;&#1081; &#1079;&#1072; &#1087;&#1088;&#1086;&#1073;&#1083;&#1077;&#1084;&#1085;&#1099;&#1077; &#1087;&#1077;&#1088;&#1080;&#1086;&#1076;&#1099;</text><path d="M400,154.6133 L410,154.6133 C425,154.6133 425,163.7617 440,163.7617 L450,163.7617 " fill="none" style="stroke:#181818;stroke-width:1.0;"/><path d="M176,217.4199 L186,217.4199 C201,217.4199 201,154.6133 216,154.6133 L226,154.6133 " fill="none" style="stroke:#181818;stroke-width:1.0;"/><rect fill="#F1F1F1" height="36.2969" rx="12.5" ry="12.5" style="stroke:#181818;stroke-width:1.5;" width="126" x="226" y="201.207"/><text fill="#000000" font-family="sans-serif" font-size="14" lengthAdjust="spacing" textLength="106" x="236" y="224.2021">&#1054;&#1090;&#1079;&#1099;&#1074;&#1095;&#1080;&#1074;&#1086;&#1089;&#1090;&#1100;</text><text fill="#000000" font-family="sans-serif" font-size="14" lengthAdjust="spacing" textLength="192" x="405" y="224.2021">&#1042;&#1088;&#1077;&#1084;&#1103; &#1086;&#1073;&#1088;&#1072;&#1073;&#1086;&#1090;&#1082;&#1080; &#1079;&#1072;&#1087;&#1088;&#1086;&#1089;&#1072;</text><text fill="#000000" font-family="sans-serif" font-size="14" lengthAdjust="spacing" textLength="167" x="650" y="196.7568">&#1055;&#1086;&#1080;&#1089;&#1082; &#1087;&#1086; &#1082;&#1086;&#1084;&#1087;&#1077;&#1085;&#1076;&#1080;&#1091;&#1084;&#1091;</text><text fill="#000000" font-family="sans-serif" font-size="14" lengthAdjust="spacing" textLength="125" x="870" y="196.7568">&#1084;&#1077;&#1085;&#1077;&#1077; 1 &#1089;&#1077;&#1082;&#1091;&#1085;&#1076;&#1099;</text><path d="M817,191.9102 L827,191.9102 C842,191.9102 842,191.9102 857,191.9102 L867,191.9102 " fill="none" style="stroke:#181818;stroke-width:1.0;"/><path d="M597,219.3555 L607,219.3555 C622,219.3555 622,191.9102 637,191.9102 L647,191.9102 " fill="none" style="stroke:#181818;stroke-width:1.0;"/><text fill="#000000" font-family="sans-serif" font-size="14" lengthAdjust="spacing" textLength="159" x="650" y="215.0537">&#1044;&#1077;&#1081;&#1089;&#1090;&#1074;&#1080;&#1077; &#1087;&#1077;&#1088;&#1089;&#1086;&#1085;&#1072;&#1078;&#1072;</text><text fill="#000000" font-family="sans-serif" font-size="14" lengthAdjust="spacing" textLength="125" x="862" y="215.0537">&#1084;&#1077;&#1085;&#1077;&#1077; 1 &#1089;&#1077;&#1082;&#1091;&#1085;&#1076;&#1099;</text><path d="M809,210.207 L819,210.207 C834,210.207 834,210.207 849,210.207 L859,210.207 " fill="none" style="stroke:#181818;stroke-width:1.0;"/><path d="M597,219.3555 L607,219.3555 C622,219.3555 622,210.207 637,210.207 L647,210.207 " fill="none" style="stroke:#181818;stroke-width:1.0;"/><text fill="#000000" font-family="sans-serif" font-size="14" lengthAdjust="spacing" textLength="229" x="650" y="233.3506">&#1054;&#1087;&#1088;&#1086;&#1089; &#1080;&#1079;&#1084;&#1077;&#1085;&#1077;&#1085;&#1080;&#1081; &#1074; &#1086;&#1082;&#1088;&#1091;&#1078;&#1077;&#1085;&#1080;&#1080;</text><text fill="#000000" font-family="sans-serif" font-size="14" lengthAdjust="spacing" textLength="114" x="932" y="233.3506">&#1084;&#1077;&#1085;&#1077;&#1077; 2 &#1089;&#1077;&#1082;&#1091;&#1085;&#1076;</text><path d="M879,228.5039 L889,228.5039 C904,228.5039 904,228.5039 919,228.5039 L929,228.5039 " fill="none" style="stroke:#181818;stroke-width:1.0;"/><path d="M597,219.3555 L607,219.3555 C622,219.3555 622,228.5039 637,228.5039 L647,228.5039 " fill="none" style="stroke:#181818;stroke-width:1.0;"/><text fill="#000000" font-family="sans-serif" font-size="14" lengthAdjust="spacing" textLength="269" x="650" y="251.6475">&#1042;&#1088;&#1077;&#1084;&#1103; &#1075;&#1077;&#1085;&#1077;&#1088;&#1072;&#1094;&#1080;&#1080; &#1087;&#1086;&#1088;&#1094;&#1080;&#1080; &#1087;&#1086;&#1076;&#1089;&#1082;&#1072;&#1079;&#1086;&#1082;</text><text fill="#000000" font-family="sans-serif" font-size="14" lengthAdjust="spacing" textLength="114" x="972" y="251.6475">&#1084;&#1077;&#1085;&#1077;&#1077; 5 &#1089;&#1077;&#1082;&#1091;&#1085;&#1076;</text><path d="M919,246.8008 L929,246.8008 C944,246.8008 944,246.8008 959,246.8008 L969,246.8008 " fill="none" style="stroke:#181818;stroke-width:1.0;"/><path d="M597,219.3555 L607,219.3555 C622,219.3555 622,246.8008 637,246.8008 L647,246.8008 " fill="none" style="stroke:#181818;stroke-width:1.0;"/><path d="M352,219.3555 L362,219.3555 C377,219.3555 377,219.3555 392,219.3555 L402,219.3555 " fill="none" style="stroke:#181818;stroke-width:1.0;"/><text fill="#000000" font-family="sans-serif" font-size="14" lengthAdjust="spacing" textLength="175" x="405" y="242.499">&#1054;&#1090;&#1079;&#1099;&#1074;&#1099; &#1087;&#1086;&#1083;&#1100;&#1079;&#1086;&#1074;&#1072;&#1090;&#1077;&#1083;&#1077;&#1081;</text><path d="M352,219.3555 L362,219.3555 C377,219.3555 377,237.6523 392,237.6523 L402,237.6523 " fill="none" style="stroke:#181818;stroke-width:1.0;"/><path d="M176,217.4199 L186,217.4199 C201,217.4199 201,219.3555 216,219.3555 L226,219.3555 " fill="none" style="stroke:#181818;stroke-width:1.0;"/><rect fill="#F1F1F1" height="36.2969" rx="12.5" ry="12.5" style="stroke:#181818;stroke-width:1.5;" width="179" x="226" y="265.9492"/><text fill="#000000" font-family="sans-serif" font-size="14" lengthAdjust="spacing" textLength="159" x="236" y="288.9443">&#1055;&#1088;&#1086;&#1080;&#1079;&#1074;&#1086;&#1076;&#1080;&#1090;&#1077;&#1083;&#1100;&#1085;&#1086;&#1089;&#1090;&#1100;</text><text fill="#000000" font-family="sans-serif" font-size="14" lengthAdjust="spacing" textLength="354" x="458" y="270.6475">&#1050;&#1086;&#1083;&#1080;&#1095;&#1077;&#1089;&#1090;&#1074;&#1086; &#1086;&#1076;&#1085;&#1086;&#1074;&#1088;&#1077;&#1084;&#1077;&#1085;&#1085;&#1086; &#1080;&#1075;&#1088;&#1072;&#1102;&#1097;&#1080;&#1093; &#1082;&#1072;&#1084;&#1087;&#1072;&#1085;&#1080;&#1081;</text><text fill="#000000" font-family="sans-serif" font-size="14" lengthAdjust="spacing" textLength="41" x="865" y="270.6475">&#1076;&#1086; 50</text><path d="M812,265.8008 L822,265.8008 C837,265.8008 837,265.8008 852,265.8008 L862,265.8008 " fill="none" style="stroke:#181818;stroke-width:1.0;"/><path d="M405,284.0977 L415,284.0977 C430,284.0977 430,265.8008 445,265.8008 L455,265.8008 " fill="none" style="stroke:#181818;stroke-width:1.0;"/><text fill="#000000" font-family="sans-serif" font-size="14" lengthAdjust="spacing" textLength="234" x="458" y="288.9443">&#1050;&#1086;&#1083;&#1080;&#1095;&#1077;&#1089;&#1090;&#1074;&#1086; &#1079;&#1072;&#1087;&#1088;&#1086;&#1089;&#1086;&#1074; &#1074; &#1089;&#1077;&#1082;&#1091;&#1085;&#1076;&#1091;</text><text fill="#000000" font-family="sans-serif" font-size="14" lengthAdjust="spacing" textLength="41" x="745" y="288.9443">&#1076;&#1086; 20</text><path d="M692,284.0977 L702,284.0977 C717,284.0977 717,284.0977 732,284.0977 L742,284.0977 " fill="none" style="stroke:#181818;stroke-width:1.0;"/><path d="M405,284.0977 L415,284.0977 C430,284.0977 430,284.0977 445,284.0977 L455,284.0977 " fill="none" style="stroke:#181818;stroke-width:1.0;"/><text fill="#000000" font-family="sans-serif" font-size="14" lengthAdjust="spacing" textLength="175" x="458" y="307.2412">&#1054;&#1090;&#1079;&#1099;&#1074;&#1099; &#1087;&#1086;&#1083;&#1100;&#1079;&#1086;&#1074;&#1072;&#1090;&#1077;&#1083;&#1077;&#1081;</text><path d="M405,284.0977 L415,284.0977 C430,284.0977 430,302.3945 445,302.3945 L455,302.3945 " fill="none" style="stroke:#181818;stroke-width:1.0;"/><path d="M176,217.4199 L186,217.4199 C201,217.4199 201,284.0977 216,284.0977 L226,284.0977 " fill="none" style="stroke:#181818;stroke-width:1.0;"/><rect fill="#F1F1F1" height="36.2969" rx="12.5" ry="12.5" style="stroke:#181818;stroke-width:1.5;" width="167" x="226" y="322.2461"/><text fill="#000000" font-family="sans-serif" font-size="14" lengthAdjust="spacing" textLength="147" x="236" y="345.2412">&#1057;&#1086;&#1087;&#1088;&#1086;&#1074;&#1086;&#1078;&#1076;&#1072;&#1077;&#1084;&#1086;&#1089;&#1090;&#1100;</text><text fill="#000000" font-family="sans-serif" font-size="14" lengthAdjust="spacing" textLength="224" x="446" y="326.9443">&#1042;&#1088;&#1077;&#1084;&#1103; &#1076;&#1080;&#1072;&#1075;&#1085;&#1086;&#1089;&#1090;&#1080;&#1082;&#1080; &#1087;&#1088;&#1086;&#1073;&#1083;&#1077;&#1084;&#1099;</text><text fill="#000000" font-family="sans-serif" font-size="14" lengthAdjust="spacing" textLength="89" x="723" y="326.9443">&#1076;&#1086; 10 &#1084;&#1080;&#1085;&#1091;&#1090;</text><path d="M670,322.0977 L680,322.0977 C695,322.0977 695,322.0977 710,322.0977 L720,322.0977 " fill="none" style="stroke:#181818;stroke-width:1.0;"/><path d="M393,340.3945 L403,340.3945 C418,340.3945 418,322.0977 433,322.0977 L443,322.0977 " fill="none" style="stroke:#181818;stroke-width:1.0;"/><text fill="#000000" font-family="sans-serif" font-size="14" lengthAdjust="spacing" textLength="331" x="446" y="345.2412">&#1042;&#1088;&#1077;&#1084;&#1103; &#1092;&#1086;&#1088;&#1084;&#1080;&#1088;&#1086;&#1074;&#1072;&#1085;&#1080;&#1103; &#1087;&#1086;&#1089;&#1090;&#1072;&#1085;&#1086;&#1074;&#1082;&#1080; &#1076;&#1083;&#1103; &#1092;&#1080;&#1082;&#1089;&#1072;</text><text fill="#000000" font-family="sans-serif" font-size="14" lengthAdjust="spacing" textLength="89" x="830" y="345.2412">&#1076;&#1086; 10 &#1084;&#1080;&#1085;&#1091;&#1090;</text><path d="M777,340.3945 L787,340.3945 C802,340.3945 802,340.3945 817,340.3945 L827,340.3945 " fill="none" style="stroke:#181818;stroke-width:1.0;"/><path d="M393,340.3945 L403,340.3945 C418,340.3945 418,340.3945 433,340.3945 L443,340.3945 " fill="none" style="stroke:#181818;stroke-width:1.0;"/><text fill="#000000" font-family="sans-serif" font-size="14" lengthAdjust="spacing" textLength="358" x="446" y="363.5381">&#1055;&#1088;&#1086;&#1094;&#1077;&#1085;&#1090; &#1087;&#1086;&#1089;&#1090;&#1072;&#1085;&#1086;&#1074;&#1086;&#1082;, &#1089;&#1086;&#1079;&#1076;&#1072;&#1085;&#1085;&#1099;&#1093; &#1072;&#1074;&#1090;&#1086;&#1084;&#1072;&#1090;&#1080;&#1095;&#1077;&#1089;&#1082;&#1080;</text><text fill="#000000" font-family="sans-serif" font-size="14" lengthAdjust="spacing" textLength="54" x="857" y="363.5381">&#1076;&#1086; 50%</text><path d="M804,358.6914 L814,358.6914 C829,358.6914 829,358.6914 844,358.6914 L854,358.6914 " fill="none" style="stroke:#181818;stroke-width:1.0;"/><path d="M393,340.3945 L403,340.3945 C418,340.3945 418,358.6914 433,358.6914 L443,358.6914 " fill="none" style="stroke:#181818;stroke-width:1.0;"/><path d="M176,217.4199 L186,217.4199 C201,217.4199 201,340.3945 216,340.3945 L226,340.3945 " fill="none" style="stroke:#181818;stroke-width:1.0;"/><rect fill="#F1F1F1" height="36.2969" rx="12.5" ry="12.5" style="stroke:#181818;stroke-width:1.5;" width="136" x="226" y="378.543"/><text fill="#000000" font-family="sans-serif" font-size="14" lengthAdjust="spacing" textLength="116" x="236" y="401.5381">&#1057;&#1086;&#1074;&#1084;&#1077;&#1089;&#1090;&#1080;&#1084;&#1086;&#1089;&#1090;&#1100;</text><text fill="#000000" font-family="sans-serif" font-size="14" lengthAdjust="spacing" textLength="363" x="415" y="392.3896">&#1055;&#1088;&#1086;&#1094;&#1077;&#1085;&#1090; &#1086;&#1093;&#1074;&#1072;&#1090;&#1072; &#1101;&#1082;&#1089;&#1087;&#1086;&#1088;&#1090;&#1072; &#1080;&#1079; &#1089;&#1090;&#1086;&#1088;&#1086;&#1085;&#1085;&#1077;&#1081; &#1089;&#1080;&#1089;&#1090;&#1077;&#1084;&#1099;</text><text fill="#000000" font-family="sans-serif" font-size="14" lengthAdjust="spacing" textLength="80" x="831" y="392.3896">&#1073;&#1086;&#1083;&#1077;&#1077; 95%</text><path d="M778,387.543 L788,387.543 C803,387.543 803,387.543 818,387.543 L828,387.543 " fill="none" style="stroke:#181818;stroke-width:1.0;"/><path d="M362,396.6914 L372,396.6914 C387,396.6914 387,387.543 402,387.543 L412,387.543 " fill="none" style="stroke:#181818;stroke-width:1.0;"/><text fill="#000000" font-family="sans-serif" font-size="14" lengthAdjust="spacing" textLength="435" x="415" y="410.6865">&#1055;&#1088;&#1086;&#1094;&#1077;&#1085;&#1090; &#1086;&#1093;&#1074;&#1072;&#1090;&#1072; &#1101;&#1082;&#1089;&#1087;&#1086;&#1088;&#1090;&#1072; &#1080;&#1079; &#1074;&#1099;&#1073;&#1088;&#1072;&#1085;&#1085;&#1099;&#1093; &#1089;&#1090;&#1086;&#1088;&#1086;&#1085;&#1085;&#1080;&#1093; &#1089;&#1080;&#1089;&#1090;&#1077;&#1084;</text><text fill="#000000" font-family="sans-serif" font-size="14" lengthAdjust="spacing" textLength="80" x="903" y="410.6865">&#1073;&#1086;&#1083;&#1077;&#1077; 95%</text><path d="M850,405.8398 L860,405.8398 C875,405.8398 875,405.8398 890,405.8398 L900,405.8398 " fill="none" style="stroke:#181818;stroke-width:1.0;"/><path d="M362,396.6914 L372,396.6914 C387,396.6914 387,405.8398 402,405.8398 L412,405.8398 " fill="none" style="stroke:#181818;stroke-width:1.0;"/><path d="M176,217.4199 L186,217.4199 C201,217.4199 201,396.6914 216,396.6914 L226,396.6914 " fill="none" style="stroke:#181818;stroke-width:1.0;"/><!--SRC=[dLPTJnDH47tVNp4l9430b286-cGKDK4Q2GXF9cQ5YaraQvOjYM_z08cYaXWI4nyq-cvIjrrOIZ_-mht_o3EpkztjsXhngTsvCsVEd9axkxVt7TDszehMpfxvofWczLbrLKCVArzrz8dodbXuzlIXhkEthT_0tcCFTQNVgsxWeMkweZpr2oSkJhhArwV6DB1-mjuK_vxgm7hC_tGL_kznFlsKr0_4TLIV0DlK5NqoGyeLi8u-9Ns4k9PgaEg3GaLNmzJdgi7X70zk98cl4EFHV8RWvO4eqsq13C-2rs9NrGdJVefpCEW5PmbuXqoab1wJ9_pyqky4j7QDn1mPbnBLDoOyIwmFzAph6e5CRoW0_b-H-m9gk_g4rUY9_1U1u3Zo1ETIH3yB9Qx3BottDwuCJVIGgYOifBeAgWSPhWysT5KV4T0RgY_-B94RCUzmi92Ucv1yJAqDNx01VMI3zwKCa9lA_ZtH2UyV6qt2mITX5wJnc0JyKU6L35gig93Jfm2f8VDfGk8P0YLaOyS6sZLnBM55ZO0Az19R9vZ-aB9SYvQqAuavIeLuzbBQjxdCfEg3OVi6Jn-6jb0aUF9zwaidMZYf0wukpgaE3GrbF7rdN9EqoWL1Rzpz-ZUmhn5VdjcBGG1k4-lcSfLjWDS16rZz4U3P8V08EY5LCt1bkMG9-I85SEC7aAf6awZQ8v8i_97aUZTBReyKwSgy-i4vBy9KZx_8sF72yqAPPO-qP1E6So-qkeEhZcmVzLl4794KmVrj12f6Sl1UMCZyBKNgpWRxBz6qUX8gcxc-1DzXxG_MuxdiJQvbx8X39RWq8uNm96C-T9FYMM9QSvd4ClnpNnzor-LjKac-Ru9ng8OhZ0yaJujN10SXR_96ZKkKMf1fJCpLpF0h8roM3OXNarl9YeLTOGh3lPiOYEZo08IATFw-fNjOZq4d6gG_I1t1wBE1nv62hIk2T6NMBvcaB-OXVUCtpjB2nFzcupa95rTKVug0BwQOmEZqjmluw0W_F8orbwRbREPNwQ1WxnTB5itTo6QoypVc9n-_A5FUj2cpX8dDpMToSukKttX8V3nbJ3vOMwNzKjdUBj1EST-nYy_A3kAdZ1NpmAJrikKKzmevUlIgOAqiFumCTCywADebQwzWESRALZvsk7LpzaxHeOs23IQqbJUM2y_Dyai74TkbdQArcwFDn_Td5urLqzejcxl0jil6tH9mxTSvMj_y3G00]--></g></svg>