<?xml version="1.0" encoding="us-ascii" standalone="no"?><svg xmlns="http://www.w3.org/2000/svg" xmlns:xlink="http://www.w3.org/1999/xlink" contentStyleType="text/css" height="1775px" preserveAspectRatio="none" style="width:784px;height:1775px;background:#FFFFFF;" version="1.1" viewBox="0 0 784 1775" width="784px" zoomAndPan="magnify"><defs/><g><!--cluster Users--><g id="cluster_Users"><rect fill="none" height="184" rx="2.5" ry="2.5" style="stroke:#181818;stroke-width:1.0;" width="267" x="201.5" y="7"/><text fill="#000000" font-family="sans-serif" font-size="14" font-weight="bold" lengthAdjust="spacing" textLength="115" x="277.5" y="21.9951">&#1055;&#1086;&#1083;&#1100;&#1079;&#1086;&#1074;&#1072;&#1090;&#1077;&#1083;&#1080;</text></g><!--cluster Rooms--><g id="cluster_Rooms"><rect fill="none" height="368" rx="2.5" ry="2.5" style="stroke:#181818;stroke-width:1.0;" width="299" x="185.5" y="616"/><text fill="#000000" font-family="sans-serif" font-size="14" font-weight="bold" lengthAdjust="spacing" textLength="147" x="261.5" y="630.9951">&#1048;&#1075;&#1088;&#1086;&#1074;&#1099;&#1077; &#1082;&#1086;&#1084;&#1085;&#1072;&#1090;&#1099;</text></g><!--cluster Education--><g id="cluster_Education"><rect fill="none" height="179" rx="2.5" ry="2.5" style="stroke:#181818;stroke-width:1.0;" width="252" x="209" y="215"/><text fill="#000000" font-family="sans-serif" font-size="14" font-weight="bold" lengthAdjust="spacing" textLength="81" x="294.5" y="229.9951">&#1054;&#1073;&#1091;&#1095;&#1077;&#1085;&#1080;&#1077;</text></g><!--cluster Content--><g id="cluster_Content"><rect fill="none" height="174" rx="2.5" ry="2.5" style="stroke:#181818;stroke-width:1.0;" width="423" x="124" y="418"/><text fill="#000000" font-family="sans-serif" font-size="14" font-weight="bold" lengthAdjust="spacing" textLength="407" x="132" y="432.9951">&#1050;&#1086;&#1085;&#1090;&#1077;&#1085;&#1090; &#1082;&#1085;&#1080;&#1075;, &#1089;&#1077;&#1090;&#1090;&#1080;&#1085;&#1075;&#1086;&#1074;, &#1087;&#1088;&#1080;&#1082;&#1083;&#1102;&#1095;&#1077;&#1085;&#1080;&#1081;, &#1093;&#1086;&#1091;&#1084;&#1073;&#1088;&#1102;</text></g><!--cluster Campaigns--><g id="cluster_Campaigns"><rect fill="none" height="555" rx="2.5" ry="2.5" style="stroke:#181818;stroke-width:1.0;" width="302" x="184" y="1008"/><text fill="#000000" font-family="sans-serif" font-size="14" font-weight="bold" lengthAdjust="spacing" textLength="182" x="244" y="1022.9951">&#1044;&#1072;&#1085;&#1085;&#1099;&#1077; &#1087;&#1088;&#1086;&#1093;&#1086;&#1078;&#1076;&#1077;&#1085;&#1080;&#1103;</text></g><!--cluster Hints--><g id="cluster_Hints"><rect fill="none" height="182" rx="2.5" ry="2.5" style="stroke:#181818;stroke-width:1.0;" width="246" x="212" y="1587"/><text fill="#000000" font-family="sans-serif" font-size="14" font-weight="bold" lengthAdjust="spacing" textLength="89" x="290.5" y="1601.9951">&#1055;&#1086;&#1076;&#1089;&#1082;&#1072;&#1079;&#1082;&#1080;</text></g><g id="elem_Auth"><ellipse cx="335.2481" cy="151.8496" fill="#F1F1F1" rx="102.2481" ry="22.8496" style="stroke:#181818;stroke-width:0.5;"/><text fill="#000000" font-family="sans-serif" font-size="14" lengthAdjust="spacing" textLength="169" x="250.7481" y="154.6963">&#1040;&#1091;&#1090;&#1077;&#1085;&#1090;&#1080;&#1092;&#1080;&#1094;&#1080;&#1088;&#1086;&#1074;&#1072;&#1090;&#1100;&#1089;&#1103;</text></g><g id="elem_ManageUsers"><ellipse cx="334.9942" cy="67.8988" fill="#F1F1F1" rx="117.4942" ry="25.8988" style="stroke:#181818;stroke-width:0.5;"/><text fill="#000000" font-family="sans-serif" font-size="14" lengthAdjust="spacing" textLength="202" x="233.9942" y="70.7455">&#1059;&#1087;&#1088;&#1072;&#1074;&#1083;&#1103;&#1090;&#1100; &#1087;&#1086;&#1083;&#1100;&#1079;&#1086;&#1074;&#1072;&#1090;&#1077;&#1083;&#1103;&#1084;&#1080;</text></g><g id="elem_ManageRoom"><ellipse cx="335.0217" cy="939.1043" fill="#F1F1F1" rx="133.5217" ry="29.1043" style="stroke:#181818;stroke-width:0.5;"/><text fill="#000000" font-family="sans-serif" font-size="14" lengthAdjust="spacing" textLength="236" x="217.0217" y="941.951">&#1059;&#1087;&#1088;&#1072;&#1074;&#1083;&#1103;&#1090;&#1100; &#1080;&#1075;&#1088;&#1086;&#1074;&#1099;&#1084;&#1080; &#1082;&#1086;&#1084;&#1085;&#1072;&#1090;&#1072;&#1084;&#1080;</text></g><g id="elem_SearchRoom"><ellipse cx="335.0935" cy="675.8187" fill="#F1F1F1" rx="109.5935" ry="24.3187" style="stroke:#181818;stroke-width:0.5;"/><text fill="#000000" font-family="sans-serif" font-size="14" lengthAdjust="spacing" textLength="185" x="242.5935" y="678.6654">&#1048;&#1089;&#1082;&#1072;&#1090;&#1100; &#1080;&#1075;&#1088;&#1086;&#1074;&#1099;&#1077; &#1082;&#1086;&#1084;&#1085;&#1072;&#1090;&#1099;</text></g><g id="elem_JoinRoom"><ellipse cx="334.7717" cy="762.0543" fill="#F1F1F1" rx="120.7717" ry="26.5543" style="stroke:#181818;stroke-width:0.5;"/><text fill="#000000" font-family="sans-serif" font-size="14" lengthAdjust="spacing" textLength="209" x="230.2717" y="764.901">&#1042;&#1089;&#1090;&#1091;&#1087;&#1072;&#1090;&#1100; &#1074; &#1080;&#1075;&#1088;&#1086;&#1074;&#1091;&#1102; &#1082;&#1086;&#1084;&#1085;&#1072;&#1090;&#1091;</text></g><g id="elem_LeaveRoom"><ellipse cx="335.0602" cy="849.212" fill="#F1F1F1" rx="116.5602" ry="25.712" style="stroke:#181818;stroke-width:0.5;"/><text fill="#000000" font-family="sans-serif" font-size="14" lengthAdjust="spacing" textLength="200" x="235.0602" y="852.0587">&#1055;&#1086;&#1082;&#1080;&#1076;&#1072;&#1090;&#1100; &#1080;&#1075;&#1088;&#1086;&#1074;&#1091;&#1102; &#1082;&#1086;&#1084;&#1085;&#1072;&#1090;&#1091;</text></g><g id="elem_Learn"><ellipse cx="335.0118" cy="355.9024" fill="#F1F1F1" rx="95.0118" ry="21.4024" style="stroke:#181818;stroke-width:0.5;"/><text fill="#000000" font-family="sans-serif" font-size="14" lengthAdjust="spacing" textLength="153" x="258.5118" y="358.749">&#1055;&#1088;&#1086;&#1093;&#1086;&#1076;&#1080;&#1090;&#1100; &#1086;&#1073;&#1091;&#1095;&#1077;&#1085;&#1080;&#1077;</text></g><g id="elem_EditLearn"><ellipse cx="335.0557" cy="274.9111" fill="#F1F1F1" rx="110.0557" ry="24.4111" style="stroke:#181818;stroke-width:0.5;"/><text fill="#000000" font-family="sans-serif" font-size="14" lengthAdjust="spacing" textLength="186" x="242.0557" y="277.7578">&#1056;&#1077;&#1076;&#1072;&#1082;&#1090;&#1080;&#1088;&#1086;&#1074;&#1072;&#1090;&#1100; &#1086;&#1073;&#1091;&#1095;&#1077;&#1085;&#1080;&#1077;</text></g><g id="elem_ReadContent"><ellipse cx="335.0998" cy="556.22" fill="#FF0000" rx="86.5998" ry="19.72" style="stroke:#181818;stroke-width:0.5;"/><text fill="#000000" font-family="sans-serif" font-size="14" lengthAdjust="spacing" textLength="134" x="268.0998" y="559.0666">&#1055;&#1086;&#1083;&#1091;&#1095;&#1072;&#1090;&#1100; &#1082;&#1086;&#1085;&#1090;&#1077;&#1085;&#1090;</text></g><g id="elem_EditContent"><ellipse cx="334.8276" cy="476.7655" fill="#F1F1F1" rx="106.8276" ry="23.7655" style="stroke:#181818;stroke-width:0.5;"/><text fill="#000000" font-family="sans-serif" font-size="14" lengthAdjust="spacing" textLength="179" x="245.3276" y="479.6122">&#1056;&#1077;&#1076;&#1072;&#1082;&#1090;&#1080;&#1088;&#1086;&#1074;&#1072;&#1090;&#1100; &#1082;&#1086;&#1085;&#1090;&#1077;&#1085;&#1090;</text></g><g id="elem_GetState"><ellipse cx="335.0617" cy="1246.2123" fill="#FF0000" rx="124.0617" ry="27.2123" style="stroke:#181818;stroke-width:0.5;"/><text fill="#000000" font-family="sans-serif" font-size="14" lengthAdjust="spacing" textLength="216" x="227.0617" y="1249.059">&#1055;&#1086;&#1083;&#1091;&#1095;&#1072;&#1090;&#1100; &#1089;&#1086;&#1089;&#1090;&#1086;&#1103;&#1085;&#1080;&#1077; &#1086;&#1073;&#1098;&#1077;&#1082;&#1090;&#1072;</text></g><g id="elem_ChangeState"><ellipse cx="334.9616" cy="1333.9923" fill="#FF0000" rx="117.9616" ry="25.9923" style="stroke:#181818;stroke-width:0.5;"/><text fill="#000000" font-family="sans-serif" font-size="14" lengthAdjust="spacing" textLength="203" x="233.4616" y="1336.839">&#1052;&#1077;&#1085;&#1103;&#1090;&#1100; &#1089;&#1086;&#1089;&#1090;&#1086;&#1103;&#1085;&#1080;&#1077; &#1086;&#1073;&#1098;&#1077;&#1082;&#1090;&#1072;</text></g><g id="elem_Generate"><ellipse cx="334.9476" cy="1424.8895" fill="#FF0000" rx="134.9476" ry="29.3895" style="stroke:#181818;stroke-width:0.5;"/><text fill="#000000" font-family="sans-serif" font-size="14" lengthAdjust="spacing" textLength="239" x="215.4476" y="1427.7362">&#1043;&#1077;&#1085;&#1077;&#1088;&#1080;&#1088;&#1086;&#1074;&#1072;&#1090;&#1100; &#1080;&#1075;&#1088;&#1086;&#1074;&#1099;&#1077; &#1086;&#1073;&#1098;&#1077;&#1082;&#1090;&#1099;</text></g><g id="elem_ImportChar"><ellipse cx="334.9942" cy="1068.8988" fill="#F1F1F1" rx="117.4942" ry="25.8988" style="stroke:#181818;stroke-width:0.5;"/><text fill="#000000" font-family="sans-serif" font-size="14" lengthAdjust="spacing" textLength="202" x="233.9942" y="1071.7455">&#1048;&#1084;&#1087;&#1086;&#1088;&#1090;&#1080;&#1088;&#1086;&#1074;&#1072;&#1090;&#1100; &#1087;&#1077;&#1088;&#1089;&#1086;&#1085;&#1072;&#1078;&#1072;</text></g><g id="elem_ExportChar"><ellipse cx="334.8027" cy="1156.9605" fill="#F1F1F1" rx="120.3027" ry="26.4605" style="stroke:#181818;stroke-width:0.5;"/><text fill="#000000" font-family="sans-serif" font-size="14" lengthAdjust="spacing" textLength="208" x="230.8027" y="1159.8072">&#1069;&#1082;&#1089;&#1087;&#1086;&#1088;&#1090;&#1080;&#1088;&#1086;&#1074;&#1072;&#1090;&#1100; &#1087;&#1077;&#1088;&#1089;&#1086;&#1085;&#1072;&#1078;&#1072;</text></g><g id="elem_ExportHistory"><ellipse cx="335.2278" cy="1517.8456" fill="#F1F1F1" rx="129.7278" ry="28.3456" style="stroke:#181818;stroke-width:0.5;"/><text fill="#000000" font-family="sans-serif" font-size="14" lengthAdjust="spacing" textLength="228" x="221.2278" y="1520.6922">&#1069;&#1082;&#1089;&#1087;&#1086;&#1088;&#1090;&#1080;&#1088;&#1086;&#1074;&#1072;&#1090;&#1100; &#1087;&#1088;&#1086;&#1093;&#1086;&#1078;&#1076;&#1077;&#1085;&#1080;&#1077;</text></g><g id="elem_AskHint"><ellipse cx="334.8276" cy="1645.7655" fill="#FF0000" rx="106.8276" ry="23.7655" style="stroke:#181818;stroke-width:0.5;"/><text fill="#000000" font-family="sans-serif" font-size="14" lengthAdjust="spacing" textLength="179" x="245.3276" y="1648.6122">&#1047;&#1072;&#1087;&#1088;&#1072;&#1096;&#1080;&#1074;&#1072;&#1090;&#1100; &#1087;&#1086;&#1076;&#1089;&#1082;&#1072;&#1079;&#1082;&#1080;</text></g><g id="elem_TuneHint"><ellipse cx="334.9911" cy="1728.8982" fill="#F1F1F1" rx="104.9911" ry="23.3982" style="stroke:#181818;stroke-width:0.5;"/><text fill="#000000" font-family="sans-serif" font-size="14" lengthAdjust="spacing" textLength="175" x="247.4911" y="1731.7449">&#1053;&#1072;&#1089;&#1090;&#1088;&#1072;&#1080;&#1074;&#1072;&#1090;&#1100; &#1087;&#1086;&#1076;&#1089;&#1082;&#1072;&#1079;&#1082;&#1080;</text></g><!--entity UO--><g id="elem_UO"><ellipse cx="43" cy="80.5" fill="#0000FF" rx="8" ry="8" style="stroke:#0000FF;stroke-width:2.0;"/><path d="M43,88.5 L43,115.5 M30,96.5 L56,96.5 M43,115.5 L30,130.5 M43,115.5 L56,130.5 " fill="none" style="stroke:#0000FF;stroke-width:2.0;"/><text fill="#0000FF" font-family="sans-serif" font-size="14" lengthAdjust="spacing" textLength="74" x="6" y="146.4951">&#1042;&#1083;&#1072;&#1076;&#1077;&#1083;&#1077;&#1094;</text></g><!--entity UE--><g id="elem_UE"><ellipse cx="43" cy="326.5" fill="#800000" rx="8" ry="8" style="stroke:#800000;stroke-width:2.0;"/><path d="M43,334.5 L43,361.5 M30,342.5 L56,342.5 M43,361.5 L30,376.5 M43,361.5 L56,376.5 " fill="none" style="stroke:#800000;stroke-width:2.0;"/><text fill="#800000" font-family="sans-serif" font-size="14" lengthAdjust="spacing" textLength="71" x="7.5" y="392.4951">&#1056;&#1077;&#1076;&#1072;&#1082;&#1090;&#1086;&#1088;</text></g><!--entity UP--><g id="elem_UP"><ellipse cx="43" cy="819.5" fill="#FFA500" rx="8" ry="8" style="stroke:#FFA500;stroke-width:2.0;"/><path d="M43,827.5 L43,854.5 M30,835.5 L56,835.5 M43,854.5 L30,869.5 M43,854.5 L56,869.5 " fill="none" style="stroke:#FFA500;stroke-width:2.0;"/><text fill="#FFA500" font-family="sans-serif" font-size="14" lengthAdjust="spacing" textLength="43" x="21.5" y="885.4951">&#1048;&#1075;&#1088;&#1086;&#1082;</text></g><!--entity UD--><g id="elem_UD"><ellipse cx="43" cy="1260.5" fill="#008000" rx="8" ry="8" style="stroke:#008000;stroke-width:2.0;"/><path d="M43,1268.5 L43,1295.5 M30,1276.5 L56,1276.5 M43,1295.5 L30,1310.5 M43,1295.5 L56,1310.5 " fill="none" style="stroke:#008000;stroke-width:2.0;"/><text fill="#008000" font-family="sans-serif" font-size="14" lengthAdjust="spacing" textLength="68" x="9" y="1326.4951">&#1042;&#1077;&#1076;&#1091;&#1097;&#1080;&#1081;</text></g><g id="elem_GMN38"><path d="M591,543.5 L591,552 L421.78,556 L591,560 L591,568.6328 A0,0 0 0 0 591,568.6328 L777,568.6328 A0,0 0 0 0 777,568.6328 L777,553.5 L767,543.5 L591,543.5 A0,0 0 0 0 591,543.5 " fill="#FEFFDD" style="stroke:#181818;stroke-width:0.5;"/><path d="M767,543.5 L767,553.5 L777,553.5 L767,543.5 " fill="#FEFFDD" style="stroke:#181818;stroke-width:0.5;"/><text fill="#000000" font-family="sans-serif" font-size="13" lengthAdjust="spacing" textLength="165" x="597" y="560.5669">&#1053;&#1091;&#1078;&#1085;&#1086; &#1073;&#1099;&#1089;&#1090;&#1088;&#1086;&#1076;&#1077;&#1081;&#1089;&#1090;&#1074;&#1080;&#1077;</text></g><g id="elem_GMN56"><path d="M591,1233.5 L591,1242 L459.32,1246 L591,1250 L591,1258.6328 A0,0 0 0 0 591,1258.6328 L777,1258.6328 A0,0 0 0 0 777,1258.6328 L777,1243.5 L767,1233.5 L591,1233.5 A0,0 0 0 0 591,1233.5 " fill="#FEFFDD" style="stroke:#181818;stroke-width:0.5;"/><path d="M767,1233.5 L767,1243.5 L777,1243.5 L767,1233.5 " fill="#FEFFDD" style="stroke:#181818;stroke-width:0.5;"/><text fill="#000000" font-family="sans-serif" font-size="13" lengthAdjust="spacing" textLength="165" x="597" y="1250.5669">&#1053;&#1091;&#1078;&#1085;&#1086; &#1073;&#1099;&#1089;&#1090;&#1088;&#1086;&#1076;&#1077;&#1081;&#1089;&#1090;&#1074;&#1080;&#1077;</text></g><g id="elem_GMN59"><path d="M591,1321.5 L591,1330 L453.48,1334 L591,1338 L591,1346.6328 A0,0 0 0 0 591,1346.6328 L777,1346.6328 A0,0 0 0 0 777,1346.6328 L777,1331.5 L767,1321.5 L591,1321.5 A0,0 0 0 0 591,1321.5 " fill="#FEFFDD" style="stroke:#181818;stroke-width:0.5;"/><path d="M767,1321.5 L767,1331.5 L777,1331.5 L767,1321.5 " fill="#FEFFDD" style="stroke:#181818;stroke-width:0.5;"/><text fill="#000000" font-family="sans-serif" font-size="13" lengthAdjust="spacing" textLength="165" x="597" y="1338.5669">&#1053;&#1091;&#1078;&#1085;&#1086; &#1073;&#1099;&#1089;&#1090;&#1088;&#1086;&#1076;&#1077;&#1081;&#1089;&#1090;&#1074;&#1080;&#1077;</text></g><g id="elem_GMN62"><path d="M591,1412.5 L591,1421 L470.16,1425 L591,1429 L591,1437.6328 A0,0 0 0 0 591,1437.6328 L777,1437.6328 A0,0 0 0 0 777,1437.6328 L777,1422.5 L767,1412.5 L591,1412.5 A0,0 0 0 0 591,1412.5 " fill="#FEFFDD" style="stroke:#181818;stroke-width:0.5;"/><path d="M767,1412.5 L767,1422.5 L777,1422.5 L767,1412.5 " fill="#FEFFDD" style="stroke:#181818;stroke-width:0.5;"/><text fill="#000000" font-family="sans-serif" font-size="13" lengthAdjust="spacing" textLength="165" x="597" y="1429.5669">&#1053;&#1091;&#1078;&#1085;&#1086; &#1073;&#1099;&#1089;&#1090;&#1088;&#1086;&#1076;&#1077;&#1081;&#1089;&#1090;&#1074;&#1080;&#1077;</text></g><g id="elem_GMN70"><path d="M591,1633.5 L591,1642 L442.47,1646 L591,1650 L591,1658.6328 A0,0 0 0 0 591,1658.6328 L777,1658.6328 A0,0 0 0 0 777,1658.6328 L777,1643.5 L767,1633.5 L591,1633.5 A0,0 0 0 0 591,1633.5 " fill="#FEFFDD" style="stroke:#181818;stroke-width:0.5;"/><path d="M767,1633.5 L767,1643.5 L777,1643.5 L767,1633.5 " fill="#FEFFDD" style="stroke:#181818;stroke-width:0.5;"/><text fill="#000000" font-family="sans-serif" font-size="13" lengthAdjust="spacing" textLength="165" x="597" y="1650.5669">&#1053;&#1091;&#1078;&#1085;&#1086; &#1073;&#1099;&#1089;&#1090;&#1088;&#1086;&#1076;&#1077;&#1081;&#1089;&#1090;&#1074;&#1080;&#1077;</text></g><!--link UO to Auth--><g id="link_UO_Auth"><path d="M80.14,115.23 C120.82,121.13 188.44,130.92 243.66,138.92 " fill="none" id="UO-to-Auth" style="stroke:#0000FF;stroke-width:1.0;"/><polygon fill="#0000FF" points="248.63,139.64,240.2946,134.3939,243.6814,138.9249,239.1504,142.3117,248.63,139.64" style="stroke:#0000FF;stroke-width:1.0;"/></g><!--link UE to Auth--><g id="link_UE_Auth"><path d="M59.1,316.34 C70.98,289.82 89.92,255.91 116,234 C155.13,201.13 208.75,180.73 253.02,168.5 " fill="none" id="UE-to-Auth" style="stroke:#800000;stroke-width:1.0;"/><polygon fill="#800000" points="258.1,167.12,248.3696,165.5973,253.2719,168.4199,250.4494,173.3222,258.1,167.12" style="stroke:#800000;stroke-width:1.0;"/></g><!--link UP to Auth--><g id="link_UP_Auth"><path d="M47.5,809.41 C59.33,677.02 98.16,256.81 116,234 C145.99,195.66 195.96,175.25 240.51,164.38 " fill="none" id="UP-to-Auth" style="stroke:#FFA500;stroke-width:1.0;"/><polygon fill="#FFA500" points="245.63,163.17,235.948,161.3646,240.7661,164.3287,237.802,169.1468,245.63,163.17" style="stroke:#FFA500;stroke-width:1.0;"/></g><!--link UD to Auth--><g id="link_UD_Auth"><path d="M48.26,1250.24 C55.59,1180.58 70.73,1031.88 80,906 C85.49,831.43 71.81,294.32 116,234 C144.65,194.9 194.27,174.43 238.94,163.73 " fill="none" id="UD-to-Auth" style="stroke:#008000;stroke-width:1.0;"/><polygon fill="#008000" points="244.08,162.53,234.4043,160.6914,239.2122,163.672,236.2315,168.4799,244.08,162.53" style="stroke:#008000;stroke-width:1.0;"/></g><!--link UO to ManageUsers--><g id="link_UO_ManageUsers"><path d="M80.14,104.77 C117.8,99.31 178.53,90.52 231.16,82.89 " fill="none" id="UO-to-ManageUsers" style="stroke:#0000FF;stroke-width:1.0;"/><polygon fill="#0000FF" points="236.22,82.16,226.7329,79.5152,231.2734,82.8891,227.8995,87.4297,236.22,82.16" style="stroke:#0000FF;stroke-width:1.0;"/></g><!--link UD to ManageRoom--><g id="link_UD_ManageRoom"><path d="M44.33,1250.11 C46.91,1193.66 59.67,1090.3 116,1027 C145.59,993.74 189.54,972.85 230.24,959.83 " fill="none" id="UD-to-ManageRoom" style="stroke:#008000;stroke-width:1.0;"/><polygon fill="#008000" points="235.18,958.28,225.3977,957.1365,230.4061,959.7665,227.7761,964.7748,235.18,958.28" style="stroke:#008000;stroke-width:1.0;"/></g><!--link UP to SearchRoom--><g id="link_UP_SearchRoom"><path d="M55.6,809.27 C66.39,779.5 85.47,740.22 116,718 C146.07,696.11 184.45,684.75 220.6,679.1 " fill="none" id="UP-to-SearchRoom" style="stroke:#FFA500;stroke-width:1.0;"/><polygon fill="#FFA500" points="225.91,678.31,216.4166,675.688,220.9652,679.051,217.6022,683.5996,225.91,678.31" style="stroke:#FFA500;stroke-width:1.0;"/></g><!--link UP to JoinRoom--><g id="link_UP_JoinRoom"><path d="M64.76,834.01 C78.65,824.66 97.67,813.09 116,806 C150.5,792.67 189.7,783.15 225.26,776.46 " fill="none" id="UP-to-JoinRoom" style="stroke:#FFA500;stroke-width:1.0;"/><polygon fill="#FFA500" points="230.48,775.5,220.9002,773.2137,225.5643,776.4145,222.3635,781.0787,230.48,775.5" style="stroke:#FFA500;stroke-width:1.0;"/></g><!--link UP to LeaveRoom--><g id="link_UP_LeaveRoom"><path d="M64.86,855.99 C98.71,860.86 167.86,862.64 227.58,861.34 " fill="none" id="UP-to-LeaveRoom" style="stroke:#FFA500;stroke-width:1.0;"/><polygon fill="#FFA500" points="232.6,861.22,223.5109,857.4267,227.6013,861.3343,223.6938,865.4246,232.6,861.22" style="stroke:#FFA500;stroke-width:1.0;"/></g><!--link UP to LeaveRoom--><g id="link_UP_LeaveRoom"><path d="M64.86,841.59 C99.03,836.4 169.15,834.53 229.25,835.97 " fill="none" id="UP-to-LeaveRoom-1" style="stroke:#FFA500;stroke-width:1.0;"/><polygon fill="#FFA500" points="234.3,836.1,225.4061,831.8693,229.3017,835.9711,225.1999,839.8667,234.3,836.1" style="stroke:#FFA500;stroke-width:1.0;"/></g><!--link UE to Learn--><g id="link_UE_Learn"><path d="M78.69,356 C117.07,356 180.64,356 234.75,356 " fill="none" id="UE-to-Learn" style="stroke:#800000;stroke-width:1.0;"/><polygon fill="#800000" points="239.95,356,230.95,352,234.95,356,230.95,360,239.95,356" style="stroke:#800000;stroke-width:1.0;"/></g><!--link UE to EditLearn--><g id="link_UE_EditLearn"><path d="M78.52,334.52 C90.09,328.09 103.28,321.55 116,317 C153.43,303.62 196.07,294.2 233.66,287.73 " fill="none" id="UE-to-EditLearn" style="stroke:#800000;stroke-width:1.0;"/><polygon fill="#800000" points="238.69,286.87,229.1445,284.4443,233.7615,287.7128,230.4931,292.3299,238.69,286.87" style="stroke:#800000;stroke-width:1.0;"/></g><!--link UP to Learn--><g id="link_UP_Learn"><path d="M46,809.26 C51.38,717.3 69.09,493.37 116,437 C148.27,398.22 200.97,378 246.47,367.46 " fill="none" id="UP-to-Learn" style="stroke:#FFA500;stroke-width:1.0;"/><polygon fill="#FFA500" points="251.41,366.35,241.75,364.4306,246.5328,367.4513,243.5121,372.2341,251.41,366.35" style="stroke:#FFA500;stroke-width:1.0;"/></g><!--link UD to Learn--><g id="link_UD_Learn"><path d="M47.93,1250.49 C54.79,1180.91 69.26,1031.93 80,906 C84.44,853.92 84.54,478.74 116,437 C146.19,396.95 198.41,376.69 244.17,366.45 " fill="none" id="UD-to-Learn" style="stroke:#008000;stroke-width:1.0;"/><polygon fill="#008000" points="249.15,365.37,239.5076,363.3638,244.2631,366.4274,241.1995,371.1829,249.15,365.37" style="stroke:#008000;stroke-width:1.0;"/></g><!--link UE to ReadContent--><g id="link_UE_ReadContent"><path d="M50.64,395.54 C59.1,433.04 77.54,487.99 116,518 C152.09,546.16 201.81,556.34 244.66,559.17 " fill="none" id="UE-to-ReadContent" style="stroke:#800000;stroke-width:1.0;"/><polygon fill="#800000" points="249.85,559.48,241.1065,554.9467,244.859,559.1797,240.626,562.9322,249.85,559.48" style="stroke:#800000;stroke-width:1.0;"/></g><!--link UE to EditContent--><g id="link_UE_EditContent"><path d="M78.73,375.42 C90.42,381.67 103.64,388.41 116,394 C167.09,417.1 226.68,439.5 270.64,455.19 " fill="none" id="UE-to-EditContent" style="stroke:#800000;stroke-width:1.0;"/><polygon fill="#800000" points="275.38,456.87,268.2523,450.0733,270.6719,455.1865,265.5587,457.6062,275.38,456.87" style="stroke:#800000;stroke-width:1.0;"/></g><!--link UP to ReadContent--><g id="link_UP_ReadContent"><path d="M47.1,809.33 C52.86,761.86 69.29,682.8 116,635 C152.92,597.22 209.26,577.41 255.42,567.08 " fill="none" id="UP-to-ReadContent" style="stroke:#FFA500;stroke-width:1.0;"/><polygon fill="#FFA500" points="260.43,565.99,250.7821,564.0107,255.5461,567.061,252.4957,571.825,260.43,565.99" style="stroke:#FFA500;stroke-width:1.0;"/></g><!--link UD to ReadContent--><g id="link_UD_ReadContent"><path d="M47.79,1250.36 C61.24,1110.41 106.4,647.21 116,635 C148.23,594.01 203.65,574.27 250.55,564.78 " fill="none" id="UD-to-ReadContent" style="stroke:#008000;stroke-width:1.0;"/><polygon fill="#008000" points="255.64,563.78,246.0401,561.5796,250.7327,564.7386,247.5738,569.4312,255.64,563.78" style="stroke:#008000;stroke-width:1.0;"/></g><!--link UP to GetState--><g id="link_UP_GetState"><path d="M46.72,888.6 C53.21,971.1 72.43,1157.35 116,1201 C139.78,1224.82 172.61,1237.64 205.58,1244.19 " fill="none" id="UP-to-GetState" style="stroke:#FFA500;stroke-width:1.0;"/><polygon fill="#FFA500" points="210.87,1245.19,202.7692,1239.5885,205.9569,1244.2617,201.2838,1247.4494,210.87,1245.19" style="stroke:#FFA500;stroke-width:1.0;"/></g><!--link UP to ChangeState--><g id="link_UP_ChangeState"><path d="M44.9,888.78 C47.94,986.21 61.03,1232.94 116,1290 C140.96,1315.91 176.62,1328.78 211.9,1334.69 " fill="none" id="UP-to-ChangeState" style="stroke:#FFA500;stroke-width:1.0;"/><polygon fill="#FFA500" points="217.1,1335.51,208.8268,1330.1664,212.1601,1334.7368,207.5897,1338.0701,217.1,1335.51" style="stroke:#FFA500;stroke-width:1.0;"/></g><!--link UP to ImportChar--><g id="link_UP_ImportChar"><path d="M56.63,888.71 C67.93,918.51 87.2,958.42 116,984 C152.19,1016.15 201.92,1036.78 244.74,1049.66 " fill="none" id="UP-to-ImportChar" style="stroke:#FFA500;stroke-width:1.0;"/><polygon fill="#FFA500" points="249.66,1051.11,242.1802,1044.7028,244.8689,1049.6798,239.8919,1052.3686,249.66,1051.11" style="stroke:#FFA500;stroke-width:1.0;"/></g><!--link UP to ExportChar--><g id="link_UP_ExportChar"><path d="M49.71,888.63 C59.99,954.33 83.59,1081.59 116,1112 C141.25,1135.69 175.53,1148.31 209.42,1154.71 " fill="none" id="UP-to-ExportChar" style="stroke:#FFA500;stroke-width:1.0;"/><polygon fill="#FFA500" points="214.42,1155.61,206.2722,1150.0771,209.4993,1154.7231,204.8532,1157.9502,214.42,1155.61" style="stroke:#FFA500;stroke-width:1.0;"/></g><!--link UD to Generate--><g id="link_UD_Generate"><path d="M68.27,1329.86 C80.56,1346.83 96.92,1365.35 116,1377 C143.24,1393.63 175.51,1404.53 206.76,1411.66 " fill="none" id="UD-to-Generate" style="stroke:#008000;stroke-width:1.0;"/><polygon fill="#008000" points="211.76,1412.77,203.8457,1406.908,206.8797,1411.6823,202.1054,1414.7164,211.76,1412.77" style="stroke:#008000;stroke-width:1.0;"/></g><!--link UD to GetState--><g id="link_UD_GetState"><path d="M77.27,1284.95 C113.88,1279.4 174.59,1270.19 227.79,1262.11 " fill="none" id="UD-to-GetState" style="stroke:#008000;stroke-width:1.0;"/><polygon fill="#008000" points="232.92,1261.34,223.4255,1258.722,227.9755,1262.0831,224.6144,1266.6332,232.92,1261.34" style="stroke:#008000;stroke-width:1.0;"/></g><!--link UD to ChangeState--><g id="link_UD_ChangeState"><path d="M77.27,1295.05 C114.88,1300.75 177.96,1310.32 232.17,1318.55 " fill="none" id="UD-to-ChangeState" style="stroke:#008000;stroke-width:1.0;"/><polygon fill="#008000" points="237.39,1319.34,229.0994,1314.0234,232.4476,1318.5829,227.8881,1321.9312,237.39,1319.34" style="stroke:#008000;stroke-width:1.0;"/></g><!--link UD to ExportHistory--><g id="link_UD_ExportHistory"><path d="M48.71,1329.7 C55.84,1371.47 73.41,1436.06 116,1472 C140.34,1492.54 171.58,1504.63 202.76,1511.58 " fill="none" id="UD-to-ExportHistory" style="stroke:#008000;stroke-width:1.0;"/><polygon fill="#008000" points="207.76,1512.65,199.8095,1506.8371,202.8731,1511.5926,198.1176,1514.6562,207.76,1512.65" style="stroke:#008000;stroke-width:1.0;"/></g><!--link UD to AskHint--><g id="link_UD_AskHint"><path d="M43.64,1329.58 C45.25,1387.88 56.67,1497.03 116,1563 C148.33,1598.95 197.93,1619.42 241.65,1631.03 " fill="none" id="UD-to-AskHint" style="stroke:#008000;stroke-width:1.0;"/><polygon fill="#008000" points="246.68,1632.34,238.9568,1626.2283,241.8369,1631.0971,236.9682,1633.9772,246.68,1632.34" style="stroke:#008000;stroke-width:1.0;"/></g><!--link UD to TuneHint--><g id="link_UD_TuneHint"><path d="M45.67,1329.83 C50.3,1420.22 66.43,1636.89 116,1687 C144.6,1715.91 186.66,1728.13 226.22,1732.5 " fill="none" id="UD-to-TuneHint" style="stroke:#008000;stroke-width:1.0;"/><polygon fill="#008000" points="231.53,1733.04,222.9894,1728.1351,226.5565,1732.5255,222.1662,1736.0927,231.53,1733.04" style="stroke:#008000;stroke-width:1.0;"/></g><!--SRC=[dPRjQXD158R_voe68_X7lG0BeZJ1AagB7nUm9cEocEoMpQOe8gIjtosDg60HjOA_XTWccYPjSWipT-Gx7xixazbGsy8scvavpvppddCcqw2FOXA79F9hzPXK_OXMOZyC2WMl4eSHESS-i37hiJuRu7F0NvqZNeiyM2RdyHGVDjfqeU47z4hwTlbXsAWknFH9BCTIp0y0-W2D-0QRy8x2b84fasBJYy8mK23ZtK2fqHIsomvuXqtOI65MW5aXnJ3oWfhsntWtC6hK20q-yKt-bWtPeKALW2gHOYsYL3kKlHeWELWe2B50R530zk3Fc6-pl_ZSPps4AHGRAcoBHYtoh43mrsxHYjSI5k-njLXrZFz3_WBFApoTn9vlytNUbVRNst5znlWdcs9f3ql7l2iM4pRDyu1tsP7sueuNU3KgVP4mPF3IfQiIhbAfHil6gDPTZgyOurf8ELuonfKk1jpOK-_nt9OjIUK-ts83maPuFMB7ClujwVNTC6owskM4FpH82DbYOQMjWg3E87VvEanwBYpNhNlKYohr7Cm7P6s3Ro8R6hLlqZRvZatRbBHReH_ai4HDZM3TTzsQ0xfDlRKiE9sRB6GhGogXMI1sMjLiubZUNBfNEZcJs-_iD_nyBKeSdW-aW-Lgk-A94yP9wPw8ZBz4I7sqWGntaWF0hb4mOseUBbO7vIFALJ_EC7EZCRf1hhRRGKsagBnUqHDki-W9bOiPqRx0vUFaN10f5duVN2IepW52Ge0OEH0XNYIo2OPOC-OxQOo7M0iLKO97YBt3TsJCYs4Gqo1sLPU7Xb182pOozrSTIBrgObwCQFN_nNTPGY_DCcMqjiXNENTwnRLsrRQc4ys3CARwHozyP2wvGjWtQFS7Mau81DoI_ToHPJbWX-8R0aGfsMdx10ME4QOyBgPfAV-HLaYBFiaNlUQgvzU2rec9GBudShC9Zd1PkwgOtu4dfEv9tWqQtuizX9AJcAzIz-ufQ8jreTrSu4SPoa3Kd9tdcTFI0ElJyWODQ3I7keiwdOexWLi_Kx6PS5sSST1IUNcpkHf6CNoDPaY_iEFwwLZb9sTYkVbDZXR9M_9Rk64yDMiqIvHxa5gokzDPl7cpMGHvjPy9RnpyfHcFd2dB8MVMYd5UHoNq_sydszvmuQo89FOpThHeoBww4-1ADTBNXoK_YDtc_OmryaB2tm1ar5mUudhhiQ3azS8tM2hdUYTpxhS3Aa3MDInXErbBLizBcBOyXLWN8jeCrwYI9FscxfV9j_JdFXsHzxbizNBsMYxejslj0FVjnxJw3m00]--></g></svg>