<?xml version="1.0" encoding="us-ascii" standalone="no"?><svg xmlns="http://www.w3.org/2000/svg" xmlns:xlink="http://www.w3.org/1999/xlink" contentStyleType="text/css" height="1345px" preserveAspectRatio="none" style="width:547px;height:1345px;background:#FFFFFF;" version="1.1" viewBox="0 0 547 1345" width="547px" zoomAndPan="magnify"><defs/><g><!--cluster Users--><g id="cluster_Users"><rect fill="none" height="176" rx="2.5" ry="2.5" style="stroke:#181818;stroke-width:1.0;" width="236" x="211.5" y="7"/><text fill="#000000" font-family="sans-serif" font-size="14" font-weight="bold" lengthAdjust="spacing" textLength="115" x="272" y="21.9951">&#1055;&#1086;&#1083;&#1100;&#1079;&#1086;&#1074;&#1072;&#1090;&#1077;&#1083;&#1080;</text></g><!--cluster Rooms--><g id="cluster_Rooms"><rect fill="none" height="203" rx="2.5" ry="2.5" style="stroke:#181818;stroke-width:1.0;" width="305" x="177" y="207"/><text fill="#000000" font-family="sans-serif" font-size="14" font-weight="bold" lengthAdjust="spacing" textLength="147" x="256" y="221.9951">&#1048;&#1075;&#1088;&#1086;&#1074;&#1099;&#1077; &#1082;&#1086;&#1084;&#1085;&#1072;&#1090;&#1099;</text></g><!--cluster Education--><g id="cluster_Education"><rect fill="none" height="95" rx="2.5" ry="2.5" style="stroke:#181818;stroke-width:1.0;" width="222" x="218.5" y="434"/><text fill="#000000" font-family="sans-serif" font-size="14" font-weight="bold" lengthAdjust="spacing" textLength="81" x="289" y="448.9951">&#1054;&#1073;&#1091;&#1095;&#1077;&#1085;&#1080;&#1077;</text></g><!--cluster Content--><g id="cluster_Content"><rect fill="none" height="91" rx="2.5" ry="2.5" style="stroke:#181818;stroke-width:1.0;" width="423" x="118" y="553"/><text fill="#000000" font-family="sans-serif" font-size="14" font-weight="bold" lengthAdjust="spacing" textLength="407" x="126" y="567.9951">&#1050;&#1086;&#1085;&#1090;&#1077;&#1085;&#1090; &#1082;&#1085;&#1080;&#1075;, &#1089;&#1077;&#1090;&#1090;&#1080;&#1085;&#1075;&#1086;&#1074;, &#1087;&#1088;&#1080;&#1082;&#1083;&#1102;&#1095;&#1077;&#1085;&#1080;&#1081;, &#1093;&#1086;&#1091;&#1084;&#1073;&#1088;&#1102;</text></g><!--cluster Campaigns--><g id="cluster_Campaigns"><rect fill="none" height="465" rx="2.5" ry="2.5" style="stroke:#181818;stroke-width:1.0;" width="302" x="178.5" y="668"/><text fill="#000000" font-family="sans-serif" font-size="14" font-weight="bold" lengthAdjust="spacing" textLength="182" x="238.5" y="682.9951">&#1044;&#1072;&#1085;&#1085;&#1099;&#1077; &#1087;&#1088;&#1086;&#1093;&#1086;&#1078;&#1076;&#1077;&#1085;&#1080;&#1103;</text></g><!--cluster Hints--><g id="cluster_Hints"><rect fill="none" height="182" rx="2.5" ry="2.5" style="stroke:#181818;stroke-width:1.0;" width="246" x="206.5" y="1157"/><text fill="#000000" font-family="sans-serif" font-size="14" font-weight="bold" lengthAdjust="spacing" textLength="89" x="285" y="1171.9951">&#1055;&#1086;&#1076;&#1089;&#1082;&#1072;&#1079;&#1082;&#1080;</text></g><g id="elem_Auth"><ellipse cx="329.7481" cy="64.8496" fill="#F1F1F1" rx="102.2481" ry="22.8496" style="stroke:#181818;stroke-width:0.5;"/><text fill="#000000" font-family="sans-serif" font-size="14" lengthAdjust="spacing" textLength="169" x="245.2481" y="67.6963">&#1040;&#1091;&#1090;&#1077;&#1085;&#1090;&#1080;&#1092;&#1080;&#1094;&#1080;&#1088;&#1086;&#1074;&#1072;&#1090;&#1100;&#1089;&#1103;</text></g><g id="elem_Logout"><ellipse cx="329.5673" cy="145.2135" fill="#F1F1F1" rx="99.0673" ry="22.2135" style="stroke:#181818;stroke-width:0.5;"/><text fill="#000000" font-family="sans-serif" font-size="14" lengthAdjust="spacing" textLength="162" x="248.5673" y="148.0601">&#1042;&#1099;&#1093;&#1086;&#1076;&#1080;&#1090;&#1100; &#1080;&#1079; &#1089;&#1080;&#1089;&#1090;&#1077;&#1084;&#1099;</text></g><g id="elem_EditRoom"><ellipse cx="329.3751" cy="272.175" fill="#F1F1F1" rx="136.3751" ry="29.675" style="stroke:#181818;stroke-width:0.5;"/><text fill="#000000" font-family="sans-serif" font-size="14" lengthAdjust="spacing" textLength="242" x="208.3751" y="275.0217">&#1056;&#1077;&#1076;&#1072;&#1082;&#1090;&#1080;&#1088;&#1086;&#1074;&#1072;&#1090;&#1100; &#1080;&#1075;&#1088;&#1086;&#1074;&#1091;&#1102; &#1082;&#1086;&#1084;&#1085;&#1072;&#1090;&#1091;</text></g><g id="elem_ArchiveRoom"><ellipse cx="329.649" cy="365.1298" fill="#F1F1F1" rx="131.149" ry="28.6298" style="stroke:#181818;stroke-width:0.5;"/><text fill="#000000" font-family="sans-serif" font-size="14" lengthAdjust="spacing" textLength="231" x="214.149" y="367.9765">&#1040;&#1088;&#1093;&#1080;&#1074;&#1080;&#1088;&#1086;&#1074;&#1072;&#1090;&#1100; &#1080;&#1075;&#1088;&#1086;&#1074;&#1091;&#1102; &#1082;&#1086;&#1084;&#1085;&#1072;&#1090;&#1091;</text></g><g id="elem_Learn"><ellipse cx="329.5118" cy="490.9024" fill="#F1F1F1" rx="95.0118" ry="21.4024" style="stroke:#181818;stroke-width:0.5;"/><text fill="#000000" font-family="sans-serif" font-size="14" lengthAdjust="spacing" textLength="153" x="253.0118" y="493.749">&#1055;&#1088;&#1086;&#1093;&#1086;&#1076;&#1080;&#1090;&#1100; &#1086;&#1073;&#1091;&#1095;&#1077;&#1085;&#1080;&#1077;</text></g><g id="elem_ReadContent"><ellipse cx="329.5998" cy="608.22" fill="#FF0000" rx="86.5998" ry="19.72" style="stroke:#181818;stroke-width:0.5;"/><text fill="#000000" font-family="sans-serif" font-size="14" lengthAdjust="spacing" textLength="134" x="262.5998" y="611.0666">&#1055;&#1086;&#1083;&#1091;&#1095;&#1072;&#1090;&#1100; &#1082;&#1086;&#1085;&#1090;&#1077;&#1085;&#1090;</text></g><g id="elem_GetState"><ellipse cx="329.5617" cy="730.2123" fill="#FF0000" rx="124.0617" ry="27.2123" style="stroke:#181818;stroke-width:0.5;"/><text fill="#000000" font-family="sans-serif" font-size="14" lengthAdjust="spacing" textLength="216" x="221.5617" y="733.059">&#1055;&#1086;&#1083;&#1091;&#1095;&#1072;&#1090;&#1100; &#1089;&#1086;&#1089;&#1090;&#1086;&#1103;&#1085;&#1080;&#1077; &#1086;&#1073;&#1098;&#1077;&#1082;&#1090;&#1072;</text></g><g id="elem_ChangeState"><ellipse cx="329.4616" cy="817.9923" fill="#FF0000" rx="117.9616" ry="25.9923" style="stroke:#181818;stroke-width:0.5;"/><text fill="#000000" font-family="sans-serif" font-size="14" lengthAdjust="spacing" textLength="203" x="227.9616" y="820.839">&#1052;&#1077;&#1085;&#1103;&#1090;&#1100; &#1089;&#1086;&#1089;&#1090;&#1086;&#1103;&#1085;&#1080;&#1077; &#1086;&#1073;&#1098;&#1077;&#1082;&#1090;&#1072;</text></g><g id="elem_Generate"><ellipse cx="329.4476" cy="908.8895" fill="#FF0000" rx="134.9476" ry="29.3895" style="stroke:#181818;stroke-width:0.5;"/><text fill="#000000" font-family="sans-serif" font-size="14" lengthAdjust="spacing" textLength="239" x="209.9476" y="911.7362">&#1043;&#1077;&#1085;&#1077;&#1088;&#1080;&#1088;&#1086;&#1074;&#1072;&#1090;&#1100; &#1080;&#1075;&#1088;&#1086;&#1074;&#1099;&#1077; &#1086;&#1073;&#1098;&#1077;&#1082;&#1090;&#1099;</text></g><g id="elem_EditChar"><ellipse cx="329.5937" cy="999.1187" fill="#F1F1F1" rx="116.0937" ry="25.6187" style="stroke:#181818;stroke-width:0.5;"/><text fill="#000000" font-family="sans-serif" font-size="14" lengthAdjust="spacing" textLength="199" x="230.0937" y="1001.9654">&#1056;&#1077;&#1076;&#1072;&#1082;&#1090;&#1080;&#1088;&#1086;&#1074;&#1072;&#1090;&#1100; &#1087;&#1077;&#1088;&#1089;&#1086;&#1085;&#1072;&#1078;&#1072;</text></g><g id="elem_ExportHistory"><ellipse cx="329.7278" cy="1087.8456" fill="#F1F1F1" rx="129.7278" ry="28.3456" style="stroke:#181818;stroke-width:0.5;"/><text fill="#000000" font-family="sans-serif" font-size="14" lengthAdjust="spacing" textLength="228" x="215.7278" y="1090.6922">&#1069;&#1082;&#1089;&#1087;&#1086;&#1088;&#1090;&#1080;&#1088;&#1086;&#1074;&#1072;&#1090;&#1100; &#1087;&#1088;&#1086;&#1093;&#1086;&#1078;&#1076;&#1077;&#1085;&#1080;&#1077;</text></g><g id="elem_AskHint"><ellipse cx="329.3276" cy="1215.7655" fill="#FF0000" rx="106.8276" ry="23.7655" style="stroke:#181818;stroke-width:0.5;"/><text fill="#000000" font-family="sans-serif" font-size="14" lengthAdjust="spacing" textLength="179" x="239.8276" y="1218.6122">&#1047;&#1072;&#1087;&#1088;&#1072;&#1096;&#1080;&#1074;&#1072;&#1090;&#1100; &#1087;&#1086;&#1076;&#1089;&#1082;&#1072;&#1079;&#1082;&#1080;</text></g><g id="elem_TuneHint"><ellipse cx="329.4911" cy="1298.8982" fill="#F1F1F1" rx="104.9911" ry="23.3982" style="stroke:#181818;stroke-width:0.5;"/><text fill="#000000" font-family="sans-serif" font-size="14" lengthAdjust="spacing" textLength="175" x="241.9911" y="1301.7449">&#1053;&#1072;&#1089;&#1090;&#1088;&#1072;&#1080;&#1074;&#1072;&#1090;&#1100; &#1087;&#1086;&#1076;&#1089;&#1082;&#1072;&#1079;&#1082;&#1080;</text></g><!--entity UD--><g id="elem_UD"><ellipse cx="40" cy="700.5" fill="#008000" rx="8" ry="8" style="stroke:#008000;stroke-width:2.0;"/><path d="M40,708.5 L40,735.5 M27,716.5 L53,716.5 M40,735.5 L27,750.5 M40,735.5 L53,750.5 " fill="none" style="stroke:#008000;stroke-width:2.0;"/><text fill="#008000" font-family="sans-serif" font-size="14" lengthAdjust="spacing" textLength="68" x="6" y="766.4951">&#1042;&#1077;&#1076;&#1091;&#1097;&#1080;&#1081;</text></g><!--link UD to Auth--><g id="link_UD_Auth"><path d="M42.67,690.35 C48.52,559.59 70.01,147.94 110,105 C139.36,73.47 184.7,61.85 226.49,58.75 " fill="none" id="UD-to-Auth" style="stroke:#008000;stroke-width:1.0;"/><polygon fill="#008000" points="231.56,58.42,222.3164,55.0205,226.5708,58.7488,222.8425,63.0032,231.56,58.42" style="stroke:#008000;stroke-width:1.0;"/></g><!--link UD to Logout--><g id="link_UD_Logout"><path d="M41.32,690.28 C42.95,584.21 52.68,297.48 110,226 C140.95,187.4 192.2,167.2 237.28,156.62 " fill="none" id="UD-to-Logout" style="stroke:#008000;stroke-width:1.0;"/><polygon fill="#008000" points="242.18,155.5,232.5147,153.6075,237.3059,156.6149,234.2985,161.4061,242.18,155.5" style="stroke:#008000;stroke-width:1.0;"/></g><!--link UD to EditRoom--><g id="link_UD_EditRoom"><path d="M42.16,690.25 C45.71,597.74 59.45,371.9 110,319 C130.9,297.12 159.35,284.21 188.8,276.83 " fill="none" id="UD-to-EditRoom" style="stroke:#008000;stroke-width:1.0;"/><polygon fill="#008000" points="193.92,275.61,184.233,273.8316,189.0594,276.7823,186.1087,281.6086,193.92,275.61" style="stroke:#008000;stroke-width:1.0;"/></g><!--link UD to ArchiveRoom--><g id="link_UD_ArchiveRoom"><path d="M40.14,690.03 C41.01,631.12 51.12,520.67 110,453 C139.47,419.13 183.85,398.12 224.93,385.18 " fill="none" id="UD-to-ArchiveRoom" style="stroke:#008000;stroke-width:1.0;"/><polygon fill="#008000" points="229.92,383.64,220.1419,382.4616,225.1408,385.1094,222.493,390.1083,229.92,383.64" style="stroke:#008000;stroke-width:1.0;"/></g><!--link UD to Learn--><g id="link_UD_Learn"><path d="M49.09,690.16 C58.21,654.73 76.39,603.76 110,572 C147.67,536.41 202.34,516.16 247.57,504.81 " fill="none" id="UD-to-Learn" style="stroke:#008000;stroke-width:1.0;"/><polygon fill="#008000" points="252.47,503.6,242.7733,501.8754,247.6159,504.7992,244.6921,509.6419,252.47,503.6" style="stroke:#008000;stroke-width:1.0;"/></g><!--link UD to ReadContent--><g id="link_UD_ReadContent"><path d="M74.23,707.32 C85.33,700.29 97.94,692.86 110,687 C162.86,661.33 226.33,639.29 271.2,625.06 " fill="none" id="UD-to-ReadContent" style="stroke:#008000;stroke-width:1.0;"/><polygon fill="#008000" points="276.03,623.54,266.2447,622.4232,271.2601,625.0395,268.6439,630.055,276.03,623.54" style="stroke:#008000;stroke-width:1.0;"/></g><!--link UD to Generate--><g id="link_UD_Generate"><path d="M51.95,769.79 C62.15,799.38 80.35,838.41 110,861 C134.78,879.88 165.48,891.64 195.96,898.89 " fill="none" id="UD-to-Generate" style="stroke:#008000;stroke-width:1.0;"/><polygon fill="#008000" points="200.85,900.02,192.985,894.092,195.979,898.8915,191.1794,901.8855,200.85,900.02" style="stroke:#008000;stroke-width:1.0;"/></g><!--link UD to GetState--><g id="link_UD_GetState"><path d="M74.26,730 C105.42,730 154.03,730 200.42,730 " fill="none" id="UD-to-GetState" style="stroke:#008000;stroke-width:1.0;"/><polygon fill="#008000" points="205.49,730,196.49,726,200.49,730,196.49,734,205.49,730" style="stroke:#008000;stroke-width:1.0;"/></g><!--link UD to ChangeState--><g id="link_UD_ChangeState"><path d="M74.04,754.56 C85.02,761.75 97.61,769.01 110,774 C144.89,788.07 184.79,797.79 220.87,804.45 " fill="none" id="UD-to-ChangeState" style="stroke:#008000;stroke-width:1.0;"/><polygon fill="#008000" points="226.16,805.41,218.0122,799.8771,221.2393,804.5231,216.5932,807.7502,226.16,805.41" style="stroke:#008000;stroke-width:1.0;"/></g><!--link UD to EditChar--><g id="link_UD_EditChar"><path d="M41.37,769.55 C44.11,820.45 56.87,908.03 110,956 C136.74,980.14 172.95,992.4 208.21,998.24 " fill="none" id="UD-to-EditChar" style="stroke:#008000;stroke-width:1.0;"/><polygon fill="#008000" points="213.4,999.05,205.1245,993.71,208.4598,998.279,203.8908,1001.6143,213.4,999.05" style="stroke:#008000;stroke-width:1.0;"/></g><!--link UD to ExportHistory--><g id="link_UD_ExportHistory"><path d="M44.48,769.67 C51.9,844.9 71.81,1004.19 110,1042 C132.88,1064.65 163.92,1077.45 195.4,1084.4 " fill="none" id="UD-to-ExportHistory" style="stroke:#008000;stroke-width:1.0;"/><polygon fill="#008000" points="200.46,1085.46,192.4771,1079.6917,195.5673,1084.4299,190.829,1087.5201,200.46,1085.46" style="stroke:#008000;stroke-width:1.0;"/></g><!--link UD to AskHint--><g id="link_UD_AskHint"><path d="M42.87,769.51 C47.9,859.81 64.55,1077.78 110,1133 C140.54,1170.11 189.59,1190.64 233.49,1202 " fill="none" id="UD-to-AskHint" style="stroke:#008000;stroke-width:1.0;"/><polygon fill="#008000" points="238.54,1203.27,230.7999,1197.1797,233.6935,1202.0405,228.8327,1204.9341,238.54,1203.27" style="stroke:#008000;stroke-width:1.0;"/></g><!--link UD to TuneHint--><g id="link_UD_TuneHint"><path d="M40.44,769.67 C39.73,879.97 43.88,1186.81 110,1257 C138.33,1287.07 181.12,1299.35 221.35,1303.45 " fill="none" id="UD-to-TuneHint" style="stroke:#008000;stroke-width:1.0;"/><polygon fill="#008000" points="226.75,1303.95,218.1678,1299.1182,221.7723,1303.478,217.4126,1307.0825,226.75,1303.95" style="stroke:#008000;stroke-width:1.0;"/></g><!--SRC=[KypCIyufJKbLA2rEJKuiJYtMAoZDpU7YAahDpIzBLGXrXRFyuQm00000]--></g></svg>