<?xml version="1.0" encoding="us-ascii" standalone="no"?><svg xmlns="http://www.w3.org/2000/svg" xmlns:xlink="http://www.w3.org/1999/xlink" contentStyleType="text/css" height="1526px" preserveAspectRatio="none" style="width:547px;height:1526px;background:#FFFFFF;" version="1.1" viewBox="0 0 547 1526" width="547px" zoomAndPan="magnify"><defs/><g><!--cluster Users--><g id="cluster_Users"><rect fill="none" height="176" rx="2.5" ry="2.5" style="stroke:#181818;stroke-width:1.0;" width="236" x="211.5" y="7"/><text fill="#000000" font-family="sans-serif" font-size="14" font-weight="bold" lengthAdjust="spacing" textLength="115" x="272" y="21.9951">&#1055;&#1086;&#1083;&#1100;&#1079;&#1086;&#1074;&#1072;&#1090;&#1077;&#1083;&#1080;</text></g><!--cluster Rooms--><g id="cluster_Rooms"><rect fill="none" height="384" rx="2.5" ry="2.5" style="stroke:#181818;stroke-width:1.0;" width="305" x="177" y="207"/><text fill="#000000" font-family="sans-serif" font-size="14" font-weight="bold" lengthAdjust="spacing" textLength="265" x="197" y="221.9951">&#1048;&#1075;&#1088;&#1086;&#1074;&#1099;&#1077; &#1082;&#1086;&#1084;&#1085;&#1072;&#1090;&#1099;/&#1087;&#1088;&#1086;&#1093;&#1086;&#1078;&#1076;&#1077;&#1085;&#1080;&#1103;</text></g><!--cluster Education--><g id="cluster_Education"><rect fill="none" height="95" rx="2.5" ry="2.5" style="stroke:#181818;stroke-width:1.0;" width="222" x="218.5" y="615"/><text fill="#000000" font-family="sans-serif" font-size="14" font-weight="bold" lengthAdjust="spacing" textLength="81" x="289" y="629.9951">&#1054;&#1073;&#1091;&#1095;&#1077;&#1085;&#1080;&#1077;</text></g><!--cluster Content--><g id="cluster_Content"><rect fill="none" height="91" rx="2.5" ry="2.5" style="stroke:#181818;stroke-width:1.0;" width="423" x="118" y="734"/><text fill="#000000" font-family="sans-serif" font-size="14" font-weight="bold" lengthAdjust="spacing" textLength="407" x="126" y="748.9951">&#1050;&#1086;&#1085;&#1090;&#1077;&#1085;&#1090; &#1082;&#1085;&#1080;&#1075;, &#1089;&#1077;&#1090;&#1090;&#1080;&#1085;&#1075;&#1086;&#1074;, &#1087;&#1088;&#1080;&#1082;&#1083;&#1102;&#1095;&#1077;&#1085;&#1080;&#1081;, &#1093;&#1086;&#1091;&#1084;&#1073;&#1088;&#1102;</text></g><!--cluster Campaigns--><g id="cluster_Campaigns"><rect fill="none" height="465" rx="2.5" ry="2.5" style="stroke:#181818;stroke-width:1.0;" width="302" x="178.5" y="849"/><text fill="#000000" font-family="sans-serif" font-size="14" font-weight="bold" lengthAdjust="spacing" textLength="205" x="227" y="863.9951">&#1057;&#1086;&#1089;&#1090;&#1086;&#1103;&#1085;&#1080;&#1077; &#1087;&#1088;&#1086;&#1093;&#1086;&#1078;&#1076;&#1077;&#1085;&#1080;&#1103;</text></g><!--cluster Hints--><g id="cluster_Hints"><rect fill="none" height="182" rx="2.5" ry="2.5" style="stroke:#181818;stroke-width:1.0;" width="246" x="206.5" y="1338"/><text fill="#000000" font-family="sans-serif" font-size="14" font-weight="bold" lengthAdjust="spacing" textLength="89" x="285" y="1352.9951">&#1055;&#1086;&#1076;&#1089;&#1082;&#1072;&#1079;&#1082;&#1080;</text></g><g id="elem_Auth"><ellipse cx="329.7481" cy="64.8496" fill="#F1F1F1" rx="102.2481" ry="22.8496" style="stroke:#181818;stroke-width:0.5;"/><text fill="#000000" font-family="sans-serif" font-size="14" lengthAdjust="spacing" textLength="169" x="245.2481" y="67.6963">&#1040;&#1091;&#1090;&#1077;&#1085;&#1090;&#1080;&#1092;&#1080;&#1094;&#1080;&#1088;&#1086;&#1074;&#1072;&#1090;&#1100;&#1089;&#1103;</text></g><g id="elem_Logout"><ellipse cx="329.5673" cy="145.2135" fill="#F1F1F1" rx="99.0673" ry="22.2135" style="stroke:#181818;stroke-width:0.5;"/><text fill="#000000" font-family="sans-serif" font-size="14" lengthAdjust="spacing" textLength="162" x="248.5673" y="148.0601">&#1042;&#1099;&#1093;&#1086;&#1076;&#1080;&#1090;&#1100; &#1080;&#1079; &#1089;&#1080;&#1089;&#1090;&#1077;&#1084;&#1099;</text></g><g id="elem_CreateRoom"><ellipse cx="329.334" cy="268.8668" fill="#F1F1F1" rx="119.834" ry="26.3668" style="stroke:#181818;stroke-width:0.5;"/><text fill="#000000" font-family="sans-serif" font-size="14" lengthAdjust="spacing" textLength="207" x="225.834" y="271.7135">&#1057;&#1086;&#1079;&#1076;&#1072;&#1074;&#1072;&#1090;&#1100; &#1080;&#1075;&#1088;&#1086;&#1074;&#1091;&#1102; &#1082;&#1086;&#1084;&#1085;&#1072;&#1090;&#1091;</text></g><g id="elem_EditRoom"><ellipse cx="329.3751" cy="360.175" fill="#F1F1F1" rx="136.3751" ry="29.675" style="stroke:#181818;stroke-width:0.5;"/><text fill="#000000" font-family="sans-serif" font-size="14" lengthAdjust="spacing" textLength="242" x="208.3751" y="363.0217">&#1056;&#1077;&#1076;&#1072;&#1082;&#1090;&#1080;&#1088;&#1086;&#1074;&#1072;&#1090;&#1100; &#1080;&#1075;&#1088;&#1086;&#1074;&#1091;&#1102; &#1082;&#1086;&#1084;&#1085;&#1072;&#1090;&#1091;</text></g><g id="elem_ArchiveRoom"><ellipse cx="329.649" cy="453.1298" fill="#F1F1F1" rx="131.149" ry="28.6298" style="stroke:#181818;stroke-width:0.5;"/><text fill="#000000" font-family="sans-serif" font-size="14" lengthAdjust="spacing" textLength="231" x="214.149" y="455.9765">&#1040;&#1088;&#1093;&#1080;&#1074;&#1080;&#1088;&#1086;&#1074;&#1072;&#1090;&#1100; &#1080;&#1075;&#1088;&#1086;&#1074;&#1091;&#1102; &#1082;&#1086;&#1084;&#1085;&#1072;&#1090;&#1091;</text></g><g id="elem_RestoreRoom"><ellipse cx="329.5975" cy="545.8195" fill="#F1F1F1" rx="132.0975" ry="28.8195" style="stroke:#181818;stroke-width:0.5;"/><text fill="#000000" font-family="sans-serif" font-size="14" lengthAdjust="spacing" textLength="233" x="213.0975" y="548.6662">&#1042;&#1086;&#1089;&#1089;&#1090;&#1072;&#1085;&#1086;&#1074;&#1080;&#1090;&#1100; &#1080;&#1075;&#1088;&#1086;&#1074;&#1091;&#1102; &#1082;&#1086;&#1084;&#1085;&#1072;&#1090;&#1091;</text></g><g id="elem_Learn"><ellipse cx="329.5118" cy="671.9024" fill="#F1F1F1" rx="95.0118" ry="21.4024" style="stroke:#181818;stroke-width:0.5;"/><text fill="#000000" font-family="sans-serif" font-size="14" lengthAdjust="spacing" textLength="153" x="253.0118" y="674.749">&#1055;&#1088;&#1086;&#1093;&#1086;&#1076;&#1080;&#1090;&#1100; &#1086;&#1073;&#1091;&#1095;&#1077;&#1085;&#1080;&#1077;</text></g><g id="elem_ReadContent"><ellipse cx="329.5998" cy="789.22" fill="#FF0000" rx="86.5998" ry="19.72" style="stroke:#181818;stroke-width:0.5;"/><text fill="#000000" font-family="sans-serif" font-size="14" lengthAdjust="spacing" textLength="134" x="262.5998" y="792.0666">&#1055;&#1086;&#1083;&#1091;&#1095;&#1072;&#1090;&#1100; &#1082;&#1086;&#1085;&#1090;&#1077;&#1085;&#1090;</text></g><g id="elem_GetState"><ellipse cx="329.5617" cy="911.2123" fill="#FF0000" rx="124.0617" ry="27.2123" style="stroke:#181818;stroke-width:0.5;"/><text fill="#000000" font-family="sans-serif" font-size="14" lengthAdjust="spacing" textLength="216" x="221.5617" y="914.059">&#1055;&#1086;&#1083;&#1091;&#1095;&#1072;&#1090;&#1100; &#1089;&#1086;&#1089;&#1090;&#1086;&#1103;&#1085;&#1080;&#1077; &#1086;&#1073;&#1098;&#1077;&#1082;&#1090;&#1072;</text></g><g id="elem_ChangeState"><ellipse cx="329.4616" cy="998.9923" fill="#FF0000" rx="117.9616" ry="25.9923" style="stroke:#181818;stroke-width:0.5;"/><text fill="#000000" font-family="sans-serif" font-size="14" lengthAdjust="spacing" textLength="203" x="227.9616" y="1001.839">&#1052;&#1077;&#1085;&#1103;&#1090;&#1100; &#1089;&#1086;&#1089;&#1090;&#1086;&#1103;&#1085;&#1080;&#1077; &#1086;&#1073;&#1098;&#1077;&#1082;&#1090;&#1072;</text></g><g id="elem_Generate"><ellipse cx="329.4476" cy="1089.8895" fill="#FF0000" rx="134.9476" ry="29.3895" style="stroke:#181818;stroke-width:0.5;"/><text fill="#000000" font-family="sans-serif" font-size="14" lengthAdjust="spacing" textLength="239" x="209.9476" y="1092.7362">&#1043;&#1077;&#1085;&#1077;&#1088;&#1080;&#1088;&#1086;&#1074;&#1072;&#1090;&#1100; &#1080;&#1075;&#1088;&#1086;&#1074;&#1099;&#1077; &#1086;&#1073;&#1098;&#1077;&#1082;&#1090;&#1099;</text></g><g id="elem_EditChar"><ellipse cx="329.5937" cy="1180.1187" fill="#F1F1F1" rx="116.0937" ry="25.6187" style="stroke:#181818;stroke-width:0.5;"/><text fill="#000000" font-family="sans-serif" font-size="14" lengthAdjust="spacing" textLength="199" x="230.0937" y="1182.9654">&#1056;&#1077;&#1076;&#1072;&#1082;&#1090;&#1080;&#1088;&#1086;&#1074;&#1072;&#1090;&#1100; &#1087;&#1077;&#1088;&#1089;&#1086;&#1085;&#1072;&#1078;&#1072;</text></g><g id="elem_ExportHistory"><ellipse cx="329.7278" cy="1268.8456" fill="#F1F1F1" rx="129.7278" ry="28.3456" style="stroke:#181818;stroke-width:0.5;"/><text fill="#000000" font-family="sans-serif" font-size="14" lengthAdjust="spacing" textLength="228" x="215.7278" y="1271.6922">&#1069;&#1082;&#1089;&#1087;&#1086;&#1088;&#1090;&#1080;&#1088;&#1086;&#1074;&#1072;&#1090;&#1100; &#1087;&#1088;&#1086;&#1093;&#1086;&#1078;&#1076;&#1077;&#1085;&#1080;&#1077;</text></g><g id="elem_AskHint"><ellipse cx="329.3276" cy="1396.7655" fill="#FF0000" rx="106.8276" ry="23.7655" style="stroke:#181818;stroke-width:0.5;"/><text fill="#000000" font-family="sans-serif" font-size="14" lengthAdjust="spacing" textLength="179" x="239.8276" y="1399.6122">&#1047;&#1072;&#1087;&#1088;&#1072;&#1096;&#1080;&#1074;&#1072;&#1090;&#1100; &#1087;&#1086;&#1076;&#1089;&#1082;&#1072;&#1079;&#1082;&#1080;</text></g><g id="elem_TuneHint"><ellipse cx="329.4911" cy="1479.8982" fill="#F1F1F1" rx="104.9911" ry="23.3982" style="stroke:#181818;stroke-width:0.5;"/><text fill="#000000" font-family="sans-serif" font-size="14" lengthAdjust="spacing" textLength="175" x="241.9911" y="1482.7449">&#1053;&#1072;&#1089;&#1090;&#1088;&#1072;&#1080;&#1074;&#1072;&#1090;&#1100; &#1087;&#1086;&#1076;&#1089;&#1082;&#1072;&#1079;&#1082;&#1080;</text></g><!--entity UD--><g id="elem_UD"><ellipse cx="40" cy="759.5" fill="#008000" rx="8" ry="8" style="stroke:#008000;stroke-width:2.0;"/><path d="M40,767.5 L40,794.5 M27,775.5 L53,775.5 M40,794.5 L27,809.5 M40,794.5 L53,809.5 " fill="none" style="stroke:#008000;stroke-width:2.0;"/><text fill="#008000" font-family="sans-serif" font-size="14" lengthAdjust="spacing" textLength="68" x="6" y="825.4951">&#1042;&#1077;&#1076;&#1091;&#1097;&#1080;&#1081;</text></g><!--link UD to Auth--><g id="link_UD_Auth"><path d="M42.28,749.05 C47.09,609.91 66.15,152.54 110,105 C139.34,73.2 184.92,61.59 226.89,58.58 " fill="none" id="UD-to-Auth" style="stroke:#008000;stroke-width:1.0;"/><polygon fill="#008000" points="231.98,58.26,222.7462,54.8341,226.9899,58.5746,223.2495,62.8183,231.98,58.26" style="stroke:#008000;stroke-width:1.0;"/></g><!--link UD to Logout--><g id="link_UD_Logout"><path d="M40.67,749.27 C40.51,634.78 45.81,307.21 110,226 C140.68,187.18 191.91,166.97 237.06,156.44 " fill="none" id="UD-to-Logout" style="stroke:#008000;stroke-width:1.0;"/><polygon fill="#008000" points="241.97,155.33,232.3047,153.4375,237.0959,156.4449,234.0885,161.2361,241.97,155.33" style="stroke:#008000;stroke-width:1.0;"/></g><!--link UD to CreateRoom--><g id="link_UD_CreateRoom"><path d="M41.1,749.14 C42.2,646.27 50.8,375.53 110,313 C134.47,287.15 169.56,274.2 204.48,268.21 " fill="none" id="UD-to-CreateRoom" style="stroke:#008000;stroke-width:1.0;"/><polygon fill="#008000" points="209.63,267.38,200.1054,264.8737,204.6946,268.1811,201.3872,272.7703,209.63,267.38" style="stroke:#008000;stroke-width:1.0;"/></g><!--link UD to EditRoom--><g id="link_UD_EditRoom"><path d="M42.72,749.44 C47.35,661.86 63.08,455.5 110,407 C131.04,385.25 159.54,372.39 189,365.02 " fill="none" id="UD-to-EditRoom" style="stroke:#008000;stroke-width:1.0;"/><polygon fill="#008000" points="194.12,363.8,184.438,361.9946,189.2561,364.9587,186.292,369.7768,194.12,363.8" style="stroke:#008000;stroke-width:1.0;"/></g><!--link UD to ArchiveRoom--><g id="link_UD_ArchiveRoom"><path d="M45.21,749.36 C53.56,678.32 74.55,533.53 110,499 C132.67,476.92 163.1,464.24 194.03,457.22 " fill="none" id="UD-to-ArchiveRoom" style="stroke:#008000;stroke-width:1.0;"/><polygon fill="#008000" points="199,456.14,189.3576,454.1338,194.1131,457.1974,191.0495,461.9529,199,456.14" style="stroke:#008000;stroke-width:1.0;"/></g><!--link UD to RestoreRoom--><g id="link_UD_RestoreRoom"><path d="M49.68,749.45 C59.13,714.87 77.46,665.39 110,634 C143.02,602.15 189.06,581.31 230.37,567.95 " fill="none" id="UD-to-RestoreRoom" style="stroke:#008000;stroke-width:1.0;"/><polygon fill="#008000" points="235.38,566.36,225.5907,565.2783,230.6156,567.8766,228.0173,572.9014,235.38,566.36" style="stroke:#008000;stroke-width:1.0;"/></g><!--link UD to Learn--><g id="link_UD_Learn"><path d="M74.28,770.56 C85.48,764.64 98.15,758.26 110,753 C163.33,729.31 225.93,706.6 270.43,691.29 " fill="none" id="UD-to-Learn" style="stroke:#008000;stroke-width:1.0;"/><polygon fill="#008000" points="275.22,689.65,265.408,688.7988,270.4925,691.2782,268.0131,696.3627,275.22,689.65" style="stroke:#008000;stroke-width:1.0;"/></g><!--link UD to ReadContent--><g id="link_UD_ReadContent"><path d="M74.26,789 C114,789 182.12,789 237.85,789 " fill="none" id="UD-to-ReadContent" style="stroke:#008000;stroke-width:1.0;"/><polygon fill="#008000" points="242.86,789,233.86,785,237.86,789,233.86,793,242.86,789" style="stroke:#008000;stroke-width:1.0;"/></g><!--link UD to GetState--><g id="link_UD_GetState"><path d="M74.34,807.3 C85.55,813.21 98.2,819.62 110,825 C159.39,847.53 216.51,869.88 259.96,886.16 " fill="none" id="UD-to-GetState" style="stroke:#008000;stroke-width:1.0;"/><polygon fill="#008000" points="264.65,887.91,257.6091,881.0234,259.9637,886.1669,254.8201,888.5215,264.65,887.91" style="stroke:#008000;stroke-width:1.0;"/></g><!--link UD to ChangeState--><g id="link_UD_ChangeState"><path d="M46.63,828.51 C54.22,866.74 71.54,923.4 110,955 C137.14,977.3 172.51,989.32 206.86,995.54 " fill="none" id="UD-to-ChangeState" style="stroke:#008000;stroke-width:1.0;"/><polygon fill="#008000" points="211.92,996.42,203.7231,990.9601,206.9915,995.5772,202.3745,998.8457,211.92,996.42" style="stroke:#008000;stroke-width:1.0;"/></g><!--link UD to Generate--><g id="link_UD_Generate"><path d="M46.73,828.6 C56.74,892.16 79.28,1012.78 110,1042 C132.28,1063.19 161.68,1075.87 191.66,1083.27 " fill="none" id="UD-to-Generate" style="stroke:#008000;stroke-width:1.0;"/><polygon fill="#008000" points="196.86,1084.5,189.0115,1078.5501,191.9922,1083.358,187.1843,1086.3386,196.86,1084.5" style="stroke:#008000;stroke-width:1.0;"/></g><!--link UD to EditChar--><g id="link_UD_EditChar"><path d="M43.44,828.79 C49.31,910.7 67.02,1094.08 110,1137 C135.88,1162.84 172.47,1175.46 208.32,1181.09 " fill="none" id="UD-to-EditChar" style="stroke:#008000;stroke-width:1.0;"/><polygon fill="#008000" points="213.6,1181.87,205.2795,1176.6003,208.6534,1181.1409,204.1129,1184.5148,213.6,1181.87" style="stroke:#008000;stroke-width:1.0;"/></g><!--link UD to ExportHistory--><g id="link_UD_ExportHistory"><path d="M41.75,828.82 C44.42,925.09 56.43,1166.69 110,1223 C132.32,1246.46 163.34,1259.51 195,1266.44 " fill="none" id="UD-to-ExportHistory" style="stroke:#008000;stroke-width:1.0;"/><polygon fill="#008000" points="200.09,1267.5,192.1071,1261.7317,195.1973,1266.4699,190.459,1269.5601,200.09,1267.5" style="stroke:#008000;stroke-width:1.0;"/></g><!--link UD to AskHint--><g id="link_UD_AskHint"><path d="M41.1,828.75 C42.17,937.86 50.55,1238.84 110,1314 C139.69,1351.54 188.41,1372.11 232.32,1383.37 " fill="none" id="UD-to-AskHint" style="stroke:#008000;stroke-width:1.0;"/><polygon fill="#008000" points="237.37,1384.63,229.5921,1378.5881,232.5159,1383.4308,227.6733,1386.3546,237.37,1384.63" style="stroke:#008000;stroke-width:1.0;"/></g><!--link UD to TuneHint--><g id="link_UD_TuneHint"><path d="M42.51,828.75 C47.98,962.89 68.64,1393.01 110,1438 C138.15,1468.62 181.27,1480.91 221.79,1484.88 " fill="none" id="UD-to-TuneHint" style="stroke:#008000;stroke-width:1.0;"/><polygon fill="#008000" points="227.23,1485.36,218.6192,1480.5794,222.2496,1484.9176,217.9114,1488.548,227.23,1485.36" style="stroke:#008000;stroke-width:1.0;"/></g><!--SRC=[KypCIyufJKbLA2rEJKuiJYtMAoZDpU7YAahDpIzBLGXrXRFyuQm00000]--></g></svg>