<?xml version="1.0" encoding="us-ascii" standalone="no"?><svg xmlns="http://www.w3.org/2000/svg" xmlns:xlink="http://www.w3.org/1999/xlink" contentStyleType="text/css" height="1356px" preserveAspectRatio="none" style="width:521px;height:1356px;background:#FFFFFF;" version="1.1" viewBox="0 0 521 1356" width="521px" zoomAndPan="magnify"><defs/><g><!--cluster Users--><g id="cluster_Users"><rect fill="none" height="251" rx="2.5" ry="2.5" style="stroke:#181818;stroke-width:1.0;" width="236" x="186" y="7"/><text fill="#000000" font-family="sans-serif" font-size="14" font-weight="bold" lengthAdjust="spacing" textLength="115" x="246.5" y="21.9951">&#1055;&#1086;&#1083;&#1100;&#1079;&#1086;&#1074;&#1072;&#1090;&#1077;&#1083;&#1080;</text></g><!--cluster Rooms--><g id="cluster_Rooms"><rect fill="none" height="275" rx="2.5" ry="2.5" style="stroke:#181818;stroke-width:1.0;" width="281" x="164" y="282"/><text fill="#000000" font-family="sans-serif" font-size="14" font-weight="bold" lengthAdjust="spacing" textLength="265" x="172" y="296.9951">&#1048;&#1075;&#1088;&#1086;&#1074;&#1099;&#1077; &#1082;&#1086;&#1084;&#1085;&#1072;&#1090;&#1099;/&#1087;&#1088;&#1086;&#1093;&#1086;&#1078;&#1076;&#1077;&#1085;&#1080;&#1103;</text></g><!--cluster Education--><g id="cluster_Education"><rect fill="none" height="95" rx="2.5" ry="2.5" style="stroke:#181818;stroke-width:1.0;" width="222" x="193" y="581"/><text fill="#000000" font-family="sans-serif" font-size="14" font-weight="bold" lengthAdjust="spacing" textLength="81" x="263.5" y="595.9951">&#1054;&#1073;&#1091;&#1095;&#1077;&#1085;&#1080;&#1077;</text></g><!--cluster Content--><g id="cluster_Content"><rect fill="none" height="91" rx="2.5" ry="2.5" style="stroke:#181818;stroke-width:1.0;" width="423" x="92.5" y="700"/><text fill="#000000" font-family="sans-serif" font-size="14" font-weight="bold" lengthAdjust="spacing" textLength="407" x="100.5" y="714.9951">&#1050;&#1086;&#1085;&#1090;&#1077;&#1085;&#1090; &#1082;&#1085;&#1080;&#1075;, &#1089;&#1077;&#1090;&#1090;&#1080;&#1085;&#1075;&#1086;&#1074;, &#1087;&#1088;&#1080;&#1082;&#1083;&#1102;&#1095;&#1077;&#1085;&#1080;&#1081;, &#1093;&#1086;&#1091;&#1084;&#1073;&#1088;&#1102;</text></g><!--cluster Campaigns--><g id="cluster_Campaigns"><rect fill="none" height="535" rx="2.5" ry="2.5" style="stroke:#181818;stroke-width:1.0;" width="280" x="164" y="815"/><text fill="#000000" font-family="sans-serif" font-size="14" font-weight="bold" lengthAdjust="spacing" textLength="205" x="201.5" y="829.9951">&#1057;&#1086;&#1089;&#1090;&#1086;&#1103;&#1085;&#1080;&#1077; &#1087;&#1088;&#1086;&#1093;&#1086;&#1078;&#1076;&#1077;&#1085;&#1080;&#1103;</text></g><g id="elem_Register"><ellipse cx="303.9744" cy="61.8949" fill="#F1F1F1" rx="87.4744" ry="19.8949" style="stroke:#181818;stroke-width:0.5;"/><text fill="#000000" font-family="sans-serif" font-size="14" lengthAdjust="spacing" textLength="136" x="235.9744" y="64.7416">&#1056;&#1077;&#1075;&#1080;&#1089;&#1090;&#1088;&#1080;&#1088;&#1086;&#1074;&#1072;&#1090;&#1100;&#1089;&#1103;</text></g><g id="elem_Auth"><ellipse cx="304.2481" cy="139.8496" fill="#F1F1F1" rx="102.2481" ry="22.8496" style="stroke:#181818;stroke-width:0.5;"/><text fill="#000000" font-family="sans-serif" font-size="14" lengthAdjust="spacing" textLength="169" x="219.7481" y="142.6963">&#1040;&#1091;&#1090;&#1077;&#1085;&#1090;&#1080;&#1092;&#1080;&#1094;&#1080;&#1088;&#1086;&#1074;&#1072;&#1090;&#1100;&#1089;&#1103;</text></g><g id="elem_Logout"><ellipse cx="304.0673" cy="220.2135" fill="#F1F1F1" rx="99.0673" ry="22.2135" style="stroke:#181818;stroke-width:0.5;"/><text fill="#000000" font-family="sans-serif" font-size="14" lengthAdjust="spacing" textLength="162" x="223.0673" y="223.0601">&#1042;&#1099;&#1093;&#1086;&#1076;&#1080;&#1090;&#1100; &#1080;&#1079; &#1089;&#1080;&#1089;&#1090;&#1077;&#1084;&#1099;</text></g><g id="elem_SearchRoom"><ellipse cx="304.0935" cy="341.8187" fill="#F1F1F1" rx="109.5935" ry="24.3187" style="stroke:#181818;stroke-width:0.5;"/><text fill="#000000" font-family="sans-serif" font-size="14" lengthAdjust="spacing" textLength="185" x="211.5935" y="344.6654">&#1048;&#1089;&#1082;&#1072;&#1090;&#1100; &#1080;&#1075;&#1088;&#1086;&#1074;&#1099;&#1077; &#1082;&#1086;&#1084;&#1085;&#1072;&#1090;&#1099;</text></g><g id="elem_JoinRoom"><ellipse cx="303.7717" cy="428.0543" fill="#F1F1F1" rx="120.7717" ry="26.5543" style="stroke:#181818;stroke-width:0.5;"/><text fill="#000000" font-family="sans-serif" font-size="14" lengthAdjust="spacing" textLength="209" x="199.2717" y="430.901">&#1042;&#1089;&#1090;&#1091;&#1087;&#1072;&#1090;&#1100; &#1074; &#1080;&#1075;&#1088;&#1086;&#1074;&#1091;&#1102; &#1082;&#1086;&#1084;&#1085;&#1072;&#1090;&#1091;</text></g><g id="elem_LeaveRoom"><ellipse cx="304.0602" cy="515.212" fill="#F1F1F1" rx="116.5602" ry="25.712" style="stroke:#181818;stroke-width:0.5;"/><text fill="#000000" font-family="sans-serif" font-size="14" lengthAdjust="spacing" textLength="200" x="204.0602" y="518.0587">&#1055;&#1086;&#1082;&#1080;&#1076;&#1072;&#1090;&#1100; &#1080;&#1075;&#1088;&#1086;&#1074;&#1091;&#1102; &#1082;&#1086;&#1084;&#1085;&#1072;&#1090;&#1091;</text></g><g id="elem_Learn"><ellipse cx="304.0118" cy="637.9024" fill="#F1F1F1" rx="95.0118" ry="21.4024" style="stroke:#181818;stroke-width:0.5;"/><text fill="#000000" font-family="sans-serif" font-size="14" lengthAdjust="spacing" textLength="153" x="227.5118" y="640.749">&#1055;&#1088;&#1086;&#1093;&#1086;&#1076;&#1080;&#1090;&#1100; &#1086;&#1073;&#1091;&#1095;&#1077;&#1085;&#1080;&#1077;</text></g><g id="elem_ReadContent"><ellipse cx="304.0998" cy="755.22" fill="#FF0000" rx="86.5998" ry="19.72" style="stroke:#181818;stroke-width:0.5;"/><text fill="#000000" font-family="sans-serif" font-size="14" lengthAdjust="spacing" textLength="134" x="237.0998" y="758.0666">&#1055;&#1086;&#1083;&#1091;&#1095;&#1072;&#1090;&#1100; &#1082;&#1086;&#1085;&#1090;&#1077;&#1085;&#1090;</text></g><g id="elem_GetState"><ellipse cx="304.0617" cy="877.2123" fill="#FF0000" rx="124.0617" ry="27.2123" style="stroke:#181818;stroke-width:0.5;"/><text fill="#000000" font-family="sans-serif" font-size="14" lengthAdjust="spacing" textLength="216" x="196.0617" y="880.059">&#1055;&#1086;&#1083;&#1091;&#1095;&#1072;&#1090;&#1100; &#1089;&#1086;&#1089;&#1090;&#1086;&#1103;&#1085;&#1080;&#1077; &#1086;&#1073;&#1098;&#1077;&#1082;&#1090;&#1072;</text></g><g id="elem_ChangeState"><ellipse cx="303.9616" cy="964.9923" fill="#FF0000" rx="117.9616" ry="25.9923" style="stroke:#181818;stroke-width:0.5;"/><text fill="#000000" font-family="sans-serif" font-size="14" lengthAdjust="spacing" textLength="203" x="202.4616" y="967.839">&#1052;&#1077;&#1085;&#1103;&#1090;&#1100; &#1089;&#1086;&#1089;&#1090;&#1086;&#1103;&#1085;&#1080;&#1077; &#1086;&#1073;&#1098;&#1077;&#1082;&#1090;&#1072;</text></g><g id="elem_CreateChar"><ellipse cx="303.9738" cy="1048.8948" fill="#F1F1F1" rx="99.9738" ry="22.3948" style="stroke:#181818;stroke-width:0.5;"/><text fill="#000000" font-family="sans-serif" font-size="14" lengthAdjust="spacing" textLength="164" x="221.9738" y="1051.7414">&#1057;&#1086;&#1079;&#1076;&#1072;&#1074;&#1072;&#1090;&#1100; &#1087;&#1077;&#1088;&#1089;&#1086;&#1085;&#1072;&#1078;&#1072;</text></g><g id="elem_EditChar"><ellipse cx="304.0937" cy="1132.1187" fill="#F1F1F1" rx="116.0937" ry="25.6187" style="stroke:#181818;stroke-width:0.5;"/><text fill="#000000" font-family="sans-serif" font-size="14" lengthAdjust="spacing" textLength="199" x="204.5937" y="1134.9654">&#1056;&#1077;&#1076;&#1072;&#1082;&#1090;&#1080;&#1088;&#1086;&#1074;&#1072;&#1090;&#1100; &#1087;&#1077;&#1088;&#1089;&#1086;&#1085;&#1072;&#1078;&#1072;</text></g><g id="elem_ImportChar"><ellipse cx="303.9942" cy="1218.8988" fill="#F1F1F1" rx="117.4942" ry="25.8988" style="stroke:#181818;stroke-width:0.5;"/><text fill="#000000" font-family="sans-serif" font-size="14" lengthAdjust="spacing" textLength="202" x="202.9942" y="1221.7455">&#1048;&#1084;&#1087;&#1086;&#1088;&#1090;&#1080;&#1088;&#1086;&#1074;&#1072;&#1090;&#1100; &#1087;&#1077;&#1088;&#1089;&#1086;&#1085;&#1072;&#1078;&#1072;</text></g><g id="elem_ExportChar"><ellipse cx="303.8027" cy="1306.9605" fill="#F1F1F1" rx="120.3027" ry="26.4605" style="stroke:#181818;stroke-width:0.5;"/><text fill="#000000" font-family="sans-serif" font-size="14" lengthAdjust="spacing" textLength="208" x="199.8027" y="1309.8072">&#1069;&#1082;&#1089;&#1087;&#1086;&#1088;&#1090;&#1080;&#1088;&#1086;&#1074;&#1072;&#1090;&#1100; &#1087;&#1077;&#1088;&#1089;&#1086;&#1085;&#1072;&#1078;&#1072;</text></g><!--entity UP--><g id="elem_UP"><ellipse cx="27.5" cy="667.5" fill="#FFA500" rx="8" ry="8" style="stroke:#FFA500;stroke-width:2.0;"/><path d="M27.5,675.5 L27.5,702.5 M14.5,683.5 L40.5,683.5 M27.5,702.5 L14.5,717.5 M27.5,702.5 L40.5,717.5 " fill="none" style="stroke:#FFA500;stroke-width:2.0;"/><text fill="#FFA500" font-family="sans-serif" font-size="14" lengthAdjust="spacing" textLength="43" x="6" y="733.4951">&#1048;&#1075;&#1088;&#1086;&#1082;</text></g><!--link UP to Register--><g id="link_UP_Register"><path d="M29.46,657.29 C32.91,530.29 46.55,139.89 84.5,99 C118.22,62.68 173.32,53.54 219.75,53.43 " fill="none" id="UP-to-Register" style="stroke:#FFA500;stroke-width:1.0;"/><polygon fill="#FFA500" points="224.79,53.45,215.813,49.3986,219.7901,53.4214,215.7673,57.3985,224.79,53.45" style="stroke:#FFA500;stroke-width:1.0;"/></g><!--link UP to Auth--><g id="link_UP_Auth"><path d="M30.11,657.11 C35.14,541.93 52.16,214.8 84.5,180 C113.89,148.38 159.36,136.76 201.23,133.7 " fill="none" id="UP-to-Auth" style="stroke:#FFA500;stroke-width:1.0;"/><polygon fill="#FFA500" points="206.31,133.37,197.0664,129.9705,201.3208,133.6988,197.5925,137.9532,206.31,133.37" style="stroke:#FFA500;stroke-width:1.0;"/></g><!--link UP to Logout--><g id="link_UP_Logout"><path d="M29.09,657.21 C31.19,567.94 40.78,355.27 84.5,301 C115.54,262.47 166.79,242.27 211.85,231.68 " fill="none" id="UP-to-Logout" style="stroke:#FFA500;stroke-width:1.0;"/><polygon fill="#FFA500" points="216.75,230.56,207.0859,228.6614,211.8752,231.6718,208.8648,236.4611,216.75,230.56" style="stroke:#FFA500;stroke-width:1.0;"/></g><!--link UP to SearchRoom--><g id="link_UP_SearchRoom"><path d="M30.16,657.23 C34.15,581.79 46.93,422.06 84.5,384 C112.03,356.11 152.05,343.73 190.34,338.95 " fill="none" id="UP-to-SearchRoom" style="stroke:#FFA500;stroke-width:1.0;"/><polygon fill="#FFA500" points="195.49,338.35,186.0838,335.4305,190.5243,338.935,187.0198,343.3756,195.49,338.35" style="stroke:#FFA500;stroke-width:1.0;"/></g><!--link UP to JoinRoom--><g id="link_UP_JoinRoom"><path d="M33.26,657.34 C40.98,599.79 58.09,497.24 84.5,472 C109.56,448.05 143.84,435.47 177.82,429.24 " fill="none" id="UP-to-JoinRoom" style="stroke:#FFA500;stroke-width:1.0;"/><polygon fill="#FFA500" points="182.83,428.37,173.2777,425.9712,177.9039,429.2267,174.6485,433.8529,182.83,428.37" style="stroke:#FFA500;stroke-width:1.0;"/></g><!--link UP to LeaveRoom--><g id="link_UP_LeaveRoom"><path d="M43.9,657.31 C53.16,637.83 66.64,615.32 84.5,600 C121.76,568.04 172.4,547.32 215.55,534.36 " fill="none" id="UP-to-LeaveRoom" style="stroke:#FFA500;stroke-width:1.0;"/><polygon fill="#FFA500" points="220.51,532.89,210.7464,531.5968,215.7139,534.3031,213.0075,539.2706,220.51,532.89" style="stroke:#FFA500;stroke-width:1.0;"/></g><!--link UP to Learn--><g id="link_UP_Learn"><path d="M49.13,692.57 C86.91,684.45 168.88,666.83 229.5,653.8 " fill="none" id="UP-to-Learn" style="stroke:#FFA500;stroke-width:1.0;"/><polygon fill="#FFA500" points="234.57,652.71,224.9276,650.7038,229.6831,653.7674,226.6195,658.5229,234.57,652.71" style="stroke:#FFA500;stroke-width:1.0;"/></g><!--link UP to ReadContent--><g id="link_UP_ReadContent"><path d="M49.13,701.36 C88.12,709.6 174.18,727.78 235.28,740.69 " fill="none" id="UP-to-ReadContent" style="stroke:#FFA500;stroke-width:1.0;"/><polygon fill="#FFA500" points="240.37,741.77,232.4033,735.9794,235.4802,740.7263,230.7333,743.8031,240.37,741.77" style="stroke:#FFA500;stroke-width:1.0;"/></g><!--link UP to GetState--><g id="link_UP_GetState"><path d="M44.88,736.84 C54.18,755.38 67.42,776.49 84.5,791 C121.07,822.07 170.21,842.75 212.62,856.03 " fill="none" id="UP-to-GetState" style="stroke:#FFA500;stroke-width:1.0;"/><polygon fill="#FFA500" points="217.5,857.53,210.073,851.0617,212.7208,856.0606,207.7219,858.7084,217.5,857.53" style="stroke:#FFA500;stroke-width:1.0;"/></g><!--link UP to ChangeState--><g id="link_UP_ChangeState"><path d="M33.35,736.96 C41.13,794.35 58.26,895.95 84.5,921 C110.31,945.64 145.88,958.24 180.82,964.27 " fill="none" id="UP-to-ChangeState" style="stroke:#FFA500;stroke-width:1.0;"/><polygon fill="#FFA500" points="185.97,965.12,177.7399,959.7103,181.0365,964.3073,176.4395,967.6039,185.97,965.12" style="stroke:#FFA500;stroke-width:1.0;"/></g><!--link UP to CreateChar--><g id="link_UP_CreateChar"><path d="M30.18,736.53 C34.21,811.52 47.06,970.28 84.5,1008 C114.74,1038.47 159.96,1050.2 201.42,1053.72 " fill="none" id="UP-to-CreateChar" style="stroke:#FFA500;stroke-width:1.0;"/><polygon fill="#FFA500" points="206.45,1054.11,197.7853,1049.4277,201.4649,1053.7243,197.1683,1057.4039,206.45,1054.11" style="stroke:#FFA500;stroke-width:1.0;"/></g><!--link UP to EditChar--><g id="link_UP_EditChar"><path d="M28.56,736.57 C29.54,825.81 36.94,1038.88 84.5,1089 C109.99,1115.86 147,1128.64 183.33,1134.12 " fill="none" id="UP-to-EditChar" style="stroke:#FFA500;stroke-width:1.0;"/><polygon fill="#FFA500" points="188.69,1134.88,180.3377,1129.6609,183.7391,1134.1809,179.2191,1137.5823,188.69,1134.88" style="stroke:#FFA500;stroke-width:1.0;"/></g><!--link UP to ImportChar--><g id="link_UP_ImportChar"><path d="M30.5,736.56 C36.36,845.33 54.96,1142.93 84.5,1175 C109.3,1201.92 145.61,1214.96 181.53,1220.69 " fill="none" id="UP-to-ImportChar" style="stroke:#FFA500;stroke-width:1.0;"/><polygon fill="#FFA500" points="186.83,1221.48,178.5244,1216.1868,181.8855,1220.7369,177.3355,1224.098,186.83,1221.48" style="stroke:#FFA500;stroke-width:1.0;"/></g><!--link UP to ExportChar--><g id="link_UP_ExportChar"><path d="M29.75,736.6 C33.97,858.62 49.41,1223.05 84.5,1262 C108.4,1288.54 143.44,1301.79 178.48,1307.9 " fill="none" id="UP-to-ExportChar" style="stroke:#FFA500;stroke-width:1.0;"/><polygon fill="#FFA500" points="183.65,1308.75,175.4224,1303.3364,178.7169,1307.935,174.1183,1311.2294,183.65,1308.75" style="stroke:#FFA500;stroke-width:1.0;"/></g><!--SRC=[KypCIyufJKbLA2rEJKuiJYtMAoZDpU7YAahDpIzBLGXrWRDSuIn_0000]--></g></svg>