<?xml version="1.0" encoding="us-ascii" standalone="no"?><svg xmlns="http://www.w3.org/2000/svg" xmlns:xlink="http://www.w3.org/1999/xlink" contentStyleType="text/css" height="1444px" preserveAspectRatio="none" style="width:521px;height:1444px;background:#FFFFFF;" version="1.1" viewBox="0 0 521 1444" width="521px" zoomAndPan="magnify"><defs/><g><!--cluster Users--><g id="cluster_Users"><rect fill="none" height="251" rx="2.5" ry="2.5" style="stroke:#181818;stroke-width:1.0;" width="236" x="186" y="7"/><text fill="#000000" font-family="sans-serif" font-size="14" font-weight="bold" lengthAdjust="spacing" textLength="115" x="246.5" y="21.9951">&#1055;&#1086;&#1083;&#1100;&#1079;&#1086;&#1074;&#1072;&#1090;&#1077;&#1083;&#1080;</text></g><!--cluster Rooms--><g id="cluster_Rooms"><rect fill="none" height="363" rx="2.5" ry="2.5" style="stroke:#181818;stroke-width:1.0;" width="274" x="167" y="282"/><text fill="#000000" font-family="sans-serif" font-size="14" font-weight="bold" lengthAdjust="spacing" textLength="147" x="230.5" y="296.9951">&#1048;&#1075;&#1088;&#1086;&#1074;&#1099;&#1077; &#1082;&#1086;&#1084;&#1085;&#1072;&#1090;&#1099;</text></g><!--cluster Education--><g id="cluster_Education"><rect fill="none" height="95" rx="2.5" ry="2.5" style="stroke:#181818;stroke-width:1.0;" width="222" x="193" y="669"/><text fill="#000000" font-family="sans-serif" font-size="14" font-weight="bold" lengthAdjust="spacing" textLength="81" x="263.5" y="683.9951">&#1054;&#1073;&#1091;&#1095;&#1077;&#1085;&#1080;&#1077;</text></g><!--cluster Content--><g id="cluster_Content"><rect fill="none" height="91" rx="2.5" ry="2.5" style="stroke:#181818;stroke-width:1.0;" width="423" x="92.5" y="788"/><text fill="#000000" font-family="sans-serif" font-size="14" font-weight="bold" lengthAdjust="spacing" textLength="407" x="100.5" y="802.9951">&#1050;&#1086;&#1085;&#1090;&#1077;&#1085;&#1090; &#1082;&#1085;&#1080;&#1075;, &#1089;&#1077;&#1090;&#1090;&#1080;&#1085;&#1075;&#1086;&#1074;, &#1087;&#1088;&#1080;&#1082;&#1083;&#1102;&#1095;&#1077;&#1085;&#1080;&#1081;, &#1093;&#1086;&#1091;&#1084;&#1073;&#1088;&#1102;</text></g><!--cluster Campaigns--><g id="cluster_Campaigns"><rect fill="none" height="535" rx="2.5" ry="2.5" style="stroke:#181818;stroke-width:1.0;" width="280" x="164" y="903"/><text fill="#000000" font-family="sans-serif" font-size="14" font-weight="bold" lengthAdjust="spacing" textLength="182" x="213" y="917.9951">&#1044;&#1072;&#1085;&#1085;&#1099;&#1077; &#1087;&#1088;&#1086;&#1093;&#1086;&#1078;&#1076;&#1077;&#1085;&#1080;&#1103;</text></g><g id="elem_Register"><ellipse cx="303.9744" cy="61.8949" fill="#F1F1F1" rx="87.4744" ry="19.8949" style="stroke:#181818;stroke-width:0.5;"/><text fill="#000000" font-family="sans-serif" font-size="14" lengthAdjust="spacing" textLength="136" x="235.9744" y="64.7416">&#1056;&#1077;&#1075;&#1080;&#1089;&#1090;&#1088;&#1080;&#1088;&#1086;&#1074;&#1072;&#1090;&#1100;&#1089;&#1103;</text></g><g id="elem_Auth"><ellipse cx="304.2481" cy="139.8496" fill="#F1F1F1" rx="102.2481" ry="22.8496" style="stroke:#181818;stroke-width:0.5;"/><text fill="#000000" font-family="sans-serif" font-size="14" lengthAdjust="spacing" textLength="169" x="219.7481" y="142.6963">&#1040;&#1091;&#1090;&#1077;&#1085;&#1090;&#1080;&#1092;&#1080;&#1094;&#1080;&#1088;&#1086;&#1074;&#1072;&#1090;&#1100;&#1089;&#1103;</text></g><g id="elem_Logout"><ellipse cx="304.0673" cy="220.2135" fill="#F1F1F1" rx="99.0673" ry="22.2135" style="stroke:#181818;stroke-width:0.5;"/><text fill="#000000" font-family="sans-serif" font-size="14" lengthAdjust="spacing" textLength="162" x="223.0673" y="223.0601">&#1042;&#1099;&#1093;&#1086;&#1076;&#1080;&#1090;&#1100; &#1080;&#1079; &#1089;&#1080;&#1089;&#1090;&#1077;&#1084;&#1099;</text></g><g id="elem_CreateRoom"><ellipse cx="303.834" cy="343.8668" fill="#F1F1F1" rx="119.834" ry="26.3668" style="stroke:#181818;stroke-width:0.5;"/><text fill="#000000" font-family="sans-serif" font-size="14" lengthAdjust="spacing" textLength="207" x="200.334" y="346.7135">&#1057;&#1086;&#1079;&#1076;&#1072;&#1074;&#1072;&#1090;&#1100; &#1080;&#1075;&#1088;&#1086;&#1074;&#1091;&#1102; &#1082;&#1086;&#1084;&#1085;&#1072;&#1090;&#1091;</text></g><g id="elem_SearchRoom"><ellipse cx="304.0935" cy="429.8187" fill="#F1F1F1" rx="109.5935" ry="24.3187" style="stroke:#181818;stroke-width:0.5;"/><text fill="#000000" font-family="sans-serif" font-size="14" lengthAdjust="spacing" textLength="185" x="211.5935" y="432.6654">&#1048;&#1089;&#1082;&#1072;&#1090;&#1100; &#1080;&#1075;&#1088;&#1086;&#1074;&#1099;&#1077; &#1082;&#1086;&#1084;&#1085;&#1072;&#1090;&#1099;</text></g><g id="elem_JoinRoom"><ellipse cx="303.7717" cy="516.0543" fill="#F1F1F1" rx="120.7717" ry="26.5543" style="stroke:#181818;stroke-width:0.5;"/><text fill="#000000" font-family="sans-serif" font-size="14" lengthAdjust="spacing" textLength="209" x="199.2717" y="518.901">&#1042;&#1089;&#1090;&#1091;&#1087;&#1072;&#1090;&#1100; &#1074; &#1080;&#1075;&#1088;&#1086;&#1074;&#1091;&#1102; &#1082;&#1086;&#1084;&#1085;&#1072;&#1090;&#1091;</text></g><g id="elem_LeaveRoom"><ellipse cx="304.0602" cy="603.212" fill="#F1F1F1" rx="116.5602" ry="25.712" style="stroke:#181818;stroke-width:0.5;"/><text fill="#000000" font-family="sans-serif" font-size="14" lengthAdjust="spacing" textLength="200" x="204.0602" y="606.0587">&#1055;&#1086;&#1082;&#1080;&#1076;&#1072;&#1090;&#1100; &#1080;&#1075;&#1088;&#1086;&#1074;&#1091;&#1102; &#1082;&#1086;&#1084;&#1085;&#1072;&#1090;&#1091;</text></g><g id="elem_Learn"><ellipse cx="304.0118" cy="725.9024" fill="#F1F1F1" rx="95.0118" ry="21.4024" style="stroke:#181818;stroke-width:0.5;"/><text fill="#000000" font-family="sans-serif" font-size="14" lengthAdjust="spacing" textLength="153" x="227.5118" y="728.749">&#1055;&#1088;&#1086;&#1093;&#1086;&#1076;&#1080;&#1090;&#1100; &#1086;&#1073;&#1091;&#1095;&#1077;&#1085;&#1080;&#1077;</text></g><g id="elem_ReadContent"><ellipse cx="304.0998" cy="843.22" fill="#FF0000" rx="86.5998" ry="19.72" style="stroke:#181818;stroke-width:0.5;"/><text fill="#000000" font-family="sans-serif" font-size="14" lengthAdjust="spacing" textLength="134" x="237.0998" y="846.0666">&#1055;&#1086;&#1083;&#1091;&#1095;&#1072;&#1090;&#1100; &#1082;&#1086;&#1085;&#1090;&#1077;&#1085;&#1090;</text></g><g id="elem_GetState"><ellipse cx="304.0617" cy="965.2123" fill="#FF0000" rx="124.0617" ry="27.2123" style="stroke:#181818;stroke-width:0.5;"/><text fill="#000000" font-family="sans-serif" font-size="14" lengthAdjust="spacing" textLength="216" x="196.0617" y="968.059">&#1055;&#1086;&#1083;&#1091;&#1095;&#1072;&#1090;&#1100; &#1089;&#1086;&#1089;&#1090;&#1086;&#1103;&#1085;&#1080;&#1077; &#1086;&#1073;&#1098;&#1077;&#1082;&#1090;&#1072;</text></g><g id="elem_ChangeState"><ellipse cx="303.9616" cy="1052.9923" fill="#FF0000" rx="117.9616" ry="25.9923" style="stroke:#181818;stroke-width:0.5;"/><text fill="#000000" font-family="sans-serif" font-size="14" lengthAdjust="spacing" textLength="203" x="202.4616" y="1055.839">&#1052;&#1077;&#1085;&#1103;&#1090;&#1100; &#1089;&#1086;&#1089;&#1090;&#1086;&#1103;&#1085;&#1080;&#1077; &#1086;&#1073;&#1098;&#1077;&#1082;&#1090;&#1072;</text></g><g id="elem_CreateChar"><ellipse cx="303.9738" cy="1136.8948" fill="#F1F1F1" rx="99.9738" ry="22.3948" style="stroke:#181818;stroke-width:0.5;"/><text fill="#000000" font-family="sans-serif" font-size="14" lengthAdjust="spacing" textLength="164" x="221.9738" y="1139.7414">&#1057;&#1086;&#1079;&#1076;&#1072;&#1074;&#1072;&#1090;&#1100; &#1087;&#1077;&#1088;&#1089;&#1086;&#1085;&#1072;&#1078;&#1072;</text></g><g id="elem_EditChar"><ellipse cx="304.0937" cy="1220.1187" fill="#F1F1F1" rx="116.0937" ry="25.6187" style="stroke:#181818;stroke-width:0.5;"/><text fill="#000000" font-family="sans-serif" font-size="14" lengthAdjust="spacing" textLength="199" x="204.5937" y="1222.9654">&#1056;&#1077;&#1076;&#1072;&#1082;&#1090;&#1080;&#1088;&#1086;&#1074;&#1072;&#1090;&#1100; &#1087;&#1077;&#1088;&#1089;&#1086;&#1085;&#1072;&#1078;&#1072;</text></g><g id="elem_ImportChar"><ellipse cx="303.9942" cy="1306.8988" fill="#F1F1F1" rx="117.4942" ry="25.8988" style="stroke:#181818;stroke-width:0.5;"/><text fill="#000000" font-family="sans-serif" font-size="14" lengthAdjust="spacing" textLength="202" x="202.9942" y="1309.7455">&#1048;&#1084;&#1087;&#1086;&#1088;&#1090;&#1080;&#1088;&#1086;&#1074;&#1072;&#1090;&#1100; &#1087;&#1077;&#1088;&#1089;&#1086;&#1085;&#1072;&#1078;&#1072;</text></g><g id="elem_ExportChar"><ellipse cx="303.8027" cy="1394.9605" fill="#F1F1F1" rx="120.3027" ry="26.4605" style="stroke:#181818;stroke-width:0.5;"/><text fill="#000000" font-family="sans-serif" font-size="14" lengthAdjust="spacing" textLength="208" x="199.8027" y="1397.8072">&#1069;&#1082;&#1089;&#1087;&#1086;&#1088;&#1090;&#1080;&#1088;&#1086;&#1074;&#1072;&#1090;&#1100; &#1087;&#1077;&#1088;&#1089;&#1086;&#1085;&#1072;&#1078;&#1072;</text></g><!--entity UP--><g id="elem_UP"><ellipse cx="27.5" cy="635.5" fill="#FFA500" rx="8" ry="8" style="stroke:#FFA500;stroke-width:2.0;"/><path d="M27.5,643.5 L27.5,670.5 M14.5,651.5 L40.5,651.5 M27.5,670.5 L14.5,685.5 M27.5,670.5 L40.5,685.5 " fill="none" style="stroke:#FFA500;stroke-width:2.0;"/><text fill="#FFA500" font-family="sans-serif" font-size="14" lengthAdjust="spacing" textLength="43" x="6" y="701.4951">&#1048;&#1075;&#1088;&#1086;&#1082;</text></g><!--link UP to Register--><g id="link_UP_Register"><path d="M29.69,625.28 C33.72,502.88 48.67,137.4 84.5,99 C118.25,62.84 173.21,53.66 219.56,53.49 " fill="none" id="UP-to-Register" style="stroke:#FFA500;stroke-width:1.0;"/><polygon fill="#FFA500" points="224.59,53.51,215.6015,49.4843,219.59,53.4957,215.5786,57.4843,224.59,53.51" style="stroke:#FFA500;stroke-width:1.0;"/></g><!--link UP to Auth--><g id="link_UP_Auth"><path d="M30.41,625.23 C36.06,515.13 54.24,212.33 84.5,180 C113.94,148.55 159.29,136.93 201.06,133.82 " fill="none" id="UP-to-Auth" style="stroke:#FFA500;stroke-width:1.0;"/><polygon fill="#FFA500" points="206.14,133.48,196.8964,130.0805,201.1508,133.8088,197.4225,138.0632,206.14,133.48" style="stroke:#FFA500;stroke-width:1.0;"/></g><!--link UP to Logout--><g id="link_UP_Logout"><path d="M29.65,625.28 C32.84,541.46 44.44,350.11 84.5,301 C115.83,262.58 167.23,242.39 212.31,231.77 " fill="none" id="UP-to-Logout" style="stroke:#FFA500;stroke-width:1.0;"/><polygon fill="#FFA500" points="217.21,230.64,207.5394,228.7745,212.339,231.7685,209.345,236.568,217.21,230.64" style="stroke:#FFA500;stroke-width:1.0;"/></g><!--link UP to CreateRoom--><g id="link_UP_CreateRoom"><path d="M31.22,625.29 C36.73,556.85 51.62,420.86 84.5,388 C109.42,363.1 144.24,350.35 178.77,344.25 " fill="none" id="UP-to-CreateRoom" style="stroke:#FFA500;stroke-width:1.0;"/><polygon fill="#FFA500" points="183.86,343.4,174.3214,340.9475,178.9292,344.2289,175.6477,348.8367,183.86,343.4" style="stroke:#FFA500;stroke-width:1.0;"/></g><!--link UP to SearchRoom--><g id="link_UP_SearchRoom"><path d="M28.49,625.47 C30.73,581.42 41.44,511.25 84.5,472 C112.91,446.1 152.26,433.99 189.75,428.86 " fill="none" id="UP-to-SearchRoom" style="stroke:#FFA500;stroke-width:1.0;"/><polygon fill="#FFA500" points="194.78,428.21,185.3403,425.4007,189.8215,428.853,186.3692,433.3342,194.78,428.21" style="stroke:#FFA500;stroke-width:1.0;"/></g><!--link UP to JoinRoom--><g id="link_UP_JoinRoom"><path d="M40.19,625.38 C48.85,602.86 62.95,576.03 84.5,560 C111.94,539.58 146.49,528.01 179.96,521.62 " fill="none" id="UP-to-JoinRoom" style="stroke:#FFA500;stroke-width:1.0;"/><polygon fill="#FFA500" points="184.89,520.72,175.3102,518.4337,179.9743,521.6345,176.7735,526.2987,184.89,520.72" style="stroke:#FFA500;stroke-width:1.0;"/></g><!--link UP to LeaveRoom--><g id="link_UP_LeaveRoom"><path d="M49.13,667.47 C90,664.25 182.59,644.53 243.93,627.04 " fill="none" id="UP-to-LeaveRoom" style="stroke:#FFA500;stroke-width:1.0;"/><polygon fill="#FFA500" points="249.03,625.57,239.2747,624.2155,244.2251,626.953,241.4876,631.9034,249.03,625.57" style="stroke:#FFA500;stroke-width:1.0;"/></g><!--link UP to LeaveRoom--><g id="link_UP_LeaveRoom"><path d="M49.13,652.79 C79.63,641.15 138.93,625.85 192.55,614.68 " fill="none" id="UP-to-LeaveRoom-1" style="stroke:#FFA500;stroke-width:1.0;"/><polygon fill="#FFA500" points="197.73,613.61,188.1048,611.5229,192.8344,614.6263,189.731,619.3559,197.73,613.61" style="stroke:#FFA500;stroke-width:1.0;"/></g><!--link UP to Learn--><g id="link_UP_Learn"><path d="M49.13,669.58 C87.09,678.02 169.67,696.37 230.38,709.86 " fill="none" id="UP-to-Learn" style="stroke:#FFA500;stroke-width:1.0;"/><polygon fill="#FFA500" points="235.45,710.99,227.5157,705.155,230.5661,709.919,225.8021,712.9693,235.45,710.99" style="stroke:#FFA500;stroke-width:1.0;"/></g><!--link UP to ReadContent--><g id="link_UP_ReadContent"><path d="M43.12,704.71 C52.29,724.86 65.95,748.33 84.5,764 C125.82,798.91 183.82,818.93 229.67,830.07 " fill="none" id="UP-to-ReadContent" style="stroke:#FFA500;stroke-width:1.0;"/><polygon fill="#FFA500" points="234.64,831.25,226.8081,825.2783,229.7754,830.0945,224.9592,833.0618,234.64,831.25" style="stroke:#FFA500;stroke-width:1.0;"/></g><!--link UP to GetState--><g id="link_UP_GetState"><path d="M28.54,704.69 C30.69,751.82 41.16,830.17 84.5,879 C114.92,913.28 160.76,934.03 202.61,946.53 " fill="none" id="UP-to-GetState" style="stroke:#FFA500;stroke-width:1.0;"/><polygon fill="#FFA500" points="207.43,947.94,199.91,941.58,202.63,946.54,197.67,949.26,207.43,947.94" style="stroke:#FFA500;stroke-width:1.0;"/></g><!--link UP to ChangeState--><g id="link_UP_ChangeState"><path d="M29.46,704.55 C32.28,785.51 43.15,966.08 84.5,1009 C109.58,1035.03 145.44,1047.92 180.89,1053.8 " fill="none" id="UP-to-ChangeState" style="stroke:#FFA500;stroke-width:1.0;"/><polygon fill="#FFA500" points="186.11,1054.62,177.8368,1049.2764,181.1701,1053.8468,176.5997,1057.1801,186.11,1054.62" style="stroke:#FFA500;stroke-width:1.0;"/></g><!--link UP to CreateChar--><g id="link_UP_CreateChar"><path d="M27.95,704.55 C27.47,800.18 31.7,1040.14 84.5,1096 C114.37,1127.6 160.27,1139.33 202.31,1142.55 " fill="none" id="UP-to-CreateChar" style="stroke:#FFA500;stroke-width:1.0;"/><polygon fill="#FFA500" points="207.41,1142.91,198.7056,1138.302,202.4218,1142.567,198.1568,1146.2831,207.41,1142.91" style="stroke:#FFA500;stroke-width:1.0;"/></g><!--link UP to EditChar--><g id="link_UP_EditChar"><path d="M30.18,704.89 C35.37,819.27 52.71,1142.38 84.5,1177 C109.73,1204.48 146.99,1217.36 183.62,1222.73 " fill="none" id="UP-to-EditChar" style="stroke:#FFA500;stroke-width:1.0;"/><polygon fill="#FFA500" points="189.02,1223.47,180.655,1218.2712,184.0674,1222.7829,179.5557,1226.1953,189.02,1223.47" style="stroke:#FFA500;stroke-width:1.0;"/></g><!--link UP to ImportChar--><g id="link_UP_ImportChar"><path d="M29.51,704.66 C33.12,831.52 47.18,1221.53 84.5,1263 C109.11,1290.35 145.58,1303.45 181.7,1309.12 " fill="none" id="UP-to-ImportChar" style="stroke:#FFA500;stroke-width:1.0;"/><polygon fill="#FFA500" points="187.02,1309.9,178.6973,1304.6338,182.0731,1309.1729,177.534,1312.5488,187.02,1309.9" style="stroke:#FFA500;stroke-width:1.0;"/></g><!--link UP to ExportChar--><g id="link_UP_ExportChar"><path d="M29.02,704.96 C31.21,844.1 41.64,1301.59 84.5,1350 C108.24,1376.81 143.32,1390.13 178.47,1396.2 " fill="none" id="UP-to-ExportChar" style="stroke:#FFA500;stroke-width:1.0;"/><polygon fill="#FFA500" points="183.66,1397.04,175.4172,1391.6497,178.7246,1396.2389,174.1354,1399.5463,183.66,1397.04" style="stroke:#FFA500;stroke-width:1.0;"/></g><!--SRC=[KypCIyufJKbLA2rEJKuiJYtMAoZDpU7YAahDpIzBLGXrWRDSuIn_0000]--></g></svg>