<?xml version="1.0" encoding="us-ascii" standalone="no"?><svg xmlns="http://www.w3.org/2000/svg" xmlns:xlink="http://www.w3.org/1999/xlink" contentStyleType="text/css" height="2513px" preserveAspectRatio="none" style="width:552px;height:2513px;background:#FFFFFF;" version="1.1" viewBox="0 0 552 2513" width="552px" zoomAndPan="magnify"><defs/><g><!--cluster Users--><g id="cluster_Users"><rect fill="none" height="338" rx="2.5" ry="2.5" style="stroke:#181818;stroke-width:1.0;" width="267" x="201" y="7"/><text fill="#000000" font-family="sans-serif" font-size="14" font-weight="bold" lengthAdjust="spacing" textLength="115" x="277" y="21.9951">&#1055;&#1086;&#1083;&#1100;&#1079;&#1086;&#1074;&#1072;&#1090;&#1077;&#1083;&#1080;</text></g><!--cluster Rooms--><g id="cluster_Rooms"><rect fill="none" height="642" rx="2.5" ry="2.5" style="stroke:#181818;stroke-width:1.0;" width="305" x="182" y="1659"/><text fill="#000000" font-family="sans-serif" font-size="14" font-weight="bold" lengthAdjust="spacing" textLength="265" x="202" y="1673.9951">&#1048;&#1075;&#1088;&#1086;&#1074;&#1099;&#1077; &#1082;&#1086;&#1084;&#1085;&#1072;&#1090;&#1099;/&#1087;&#1088;&#1086;&#1093;&#1086;&#1078;&#1076;&#1077;&#1085;&#1080;&#1103;</text></g><!--cluster Education--><g id="cluster_Education"><rect fill="none" height="179" rx="2.5" ry="2.5" style="stroke:#181818;stroke-width:1.0;" width="252" x="208.5" y="709"/><text fill="#000000" font-family="sans-serif" font-size="14" font-weight="bold" lengthAdjust="spacing" textLength="81" x="294" y="723.9951">&#1054;&#1073;&#1091;&#1095;&#1077;&#1085;&#1080;&#1077;</text></g><!--cluster Content--><g id="cluster_Content"><rect fill="none" height="316" rx="2.5" ry="2.5" style="stroke:#181818;stroke-width:1.0;" width="423" x="123.5" y="369"/><text fill="#000000" font-family="sans-serif" font-size="14" font-weight="bold" lengthAdjust="spacing" textLength="407" x="131.5" y="383.9951">&#1050;&#1086;&#1085;&#1090;&#1077;&#1085;&#1090; &#1082;&#1085;&#1080;&#1075;, &#1089;&#1077;&#1090;&#1090;&#1080;&#1085;&#1075;&#1086;&#1074;, &#1087;&#1088;&#1080;&#1082;&#1083;&#1102;&#1095;&#1077;&#1085;&#1080;&#1081;, &#1093;&#1086;&#1091;&#1084;&#1073;&#1088;&#1102;</text></g><!--cluster Campaigns--><g id="cluster_Campaigns"><rect fill="none" height="723" rx="2.5" ry="2.5" style="stroke:#181818;stroke-width:1.0;" width="302" x="183.5" y="912"/><text fill="#000000" font-family="sans-serif" font-size="14" font-weight="bold" lengthAdjust="spacing" textLength="205" x="232" y="926.9951">&#1057;&#1086;&#1089;&#1090;&#1086;&#1103;&#1085;&#1080;&#1077; &#1087;&#1088;&#1086;&#1093;&#1086;&#1078;&#1076;&#1077;&#1085;&#1080;&#1103;</text></g><!--cluster Hints--><g id="cluster_Hints"><rect fill="none" height="182" rx="2.5" ry="2.5" style="stroke:#181818;stroke-width:1.0;" width="246" x="211.5" y="2325"/><text fill="#000000" font-family="sans-serif" font-size="14" font-weight="bold" lengthAdjust="spacing" textLength="89" x="290" y="2339.9951">&#1055;&#1086;&#1076;&#1089;&#1082;&#1072;&#1079;&#1082;&#1080;</text></g><g id="elem_Register"><ellipse cx="334.4744" cy="308.8949" fill="#F1F1F1" rx="87.4744" ry="19.8949" style="stroke:#181818;stroke-width:0.5;"/><text fill="#000000" font-family="sans-serif" font-size="14" lengthAdjust="spacing" textLength="136" x="266.4744" y="311.7416">&#1056;&#1077;&#1075;&#1080;&#1089;&#1090;&#1088;&#1080;&#1088;&#1086;&#1074;&#1072;&#1090;&#1100;&#1089;&#1103;</text></g><g id="elem_Auth"><ellipse cx="334.7481" cy="230.8496" fill="#F1F1F1" rx="102.2481" ry="22.8496" style="stroke:#181818;stroke-width:0.5;"/><text fill="#000000" font-family="sans-serif" font-size="14" lengthAdjust="spacing" textLength="169" x="250.2481" y="233.6963">&#1040;&#1091;&#1090;&#1077;&#1085;&#1090;&#1080;&#1092;&#1080;&#1094;&#1080;&#1088;&#1086;&#1074;&#1072;&#1090;&#1100;&#1089;&#1103;</text></g><g id="elem_ManageUsers"><ellipse cx="334.4942" cy="67.8988" fill="#F1F1F1" rx="117.4942" ry="25.8988" style="stroke:#181818;stroke-width:0.5;"/><text fill="#000000" font-family="sans-serif" font-size="14" lengthAdjust="spacing" textLength="202" x="233.4942" y="70.7455">&#1059;&#1087;&#1088;&#1072;&#1074;&#1083;&#1103;&#1090;&#1100; &#1087;&#1086;&#1083;&#1100;&#1079;&#1086;&#1074;&#1072;&#1090;&#1077;&#1083;&#1103;&#1084;&#1080;</text></g><g id="elem_Logout"><ellipse cx="334.5673" cy="151.2135" fill="#F1F1F1" rx="99.0673" ry="22.2135" style="stroke:#181818;stroke-width:0.5;"/><text fill="#000000" font-family="sans-serif" font-size="14" lengthAdjust="spacing" textLength="162" x="253.5673" y="154.0601">&#1042;&#1099;&#1093;&#1086;&#1076;&#1080;&#1090;&#1100; &#1080;&#1079; &#1089;&#1080;&#1089;&#1090;&#1077;&#1084;&#1099;</text></g><g id="elem_CreateRoom"><ellipse cx="334.334" cy="1978.8668" fill="#F1F1F1" rx="119.834" ry="26.3668" style="stroke:#181818;stroke-width:0.5;"/><text fill="#000000" font-family="sans-serif" font-size="14" lengthAdjust="spacing" textLength="207" x="230.834" y="1981.7135">&#1057;&#1086;&#1079;&#1076;&#1072;&#1074;&#1072;&#1090;&#1100; &#1080;&#1075;&#1088;&#1086;&#1074;&#1091;&#1102; &#1082;&#1086;&#1084;&#1085;&#1072;&#1090;&#1091;</text></g><g id="elem_EditRoom"><ellipse cx="334.3751" cy="2070.175" fill="#F1F1F1" rx="136.3751" ry="29.675" style="stroke:#181818;stroke-width:0.5;"/><text fill="#000000" font-family="sans-serif" font-size="14" lengthAdjust="spacing" textLength="242" x="213.3751" y="2073.0217">&#1056;&#1077;&#1076;&#1072;&#1082;&#1090;&#1080;&#1088;&#1086;&#1074;&#1072;&#1090;&#1100; &#1080;&#1075;&#1088;&#1086;&#1074;&#1091;&#1102; &#1082;&#1086;&#1084;&#1085;&#1072;&#1090;&#1091;</text></g><g id="elem_ArchiveRoom"><ellipse cx="334.649" cy="2163.1298" fill="#F1F1F1" rx="131.149" ry="28.6298" style="stroke:#181818;stroke-width:0.5;"/><text fill="#000000" font-family="sans-serif" font-size="14" lengthAdjust="spacing" textLength="231" x="219.149" y="2165.9765">&#1040;&#1088;&#1093;&#1080;&#1074;&#1080;&#1088;&#1086;&#1074;&#1072;&#1090;&#1100; &#1080;&#1075;&#1088;&#1086;&#1074;&#1091;&#1102; &#1082;&#1086;&#1084;&#1085;&#1072;&#1090;&#1091;</text></g><g id="elem_RestoreRoom"><ellipse cx="334.5975" cy="2255.8195" fill="#F1F1F1" rx="132.0975" ry="28.8195" style="stroke:#181818;stroke-width:0.5;"/><text fill="#000000" font-family="sans-serif" font-size="14" lengthAdjust="spacing" textLength="233" x="218.0975" y="2258.6662">&#1042;&#1086;&#1089;&#1089;&#1090;&#1072;&#1085;&#1086;&#1074;&#1080;&#1090;&#1100; &#1080;&#1075;&#1088;&#1086;&#1074;&#1091;&#1102; &#1082;&#1086;&#1084;&#1085;&#1072;&#1090;&#1091;</text></g><g id="elem_SearchRoom"><ellipse cx="334.5935" cy="1718.8187" fill="#F1F1F1" rx="109.5935" ry="24.3187" style="stroke:#181818;stroke-width:0.5;"/><text fill="#000000" font-family="sans-serif" font-size="14" lengthAdjust="spacing" textLength="185" x="242.0935" y="1721.6654">&#1048;&#1089;&#1082;&#1072;&#1090;&#1100; &#1080;&#1075;&#1088;&#1086;&#1074;&#1099;&#1077; &#1082;&#1086;&#1084;&#1085;&#1072;&#1090;&#1099;</text></g><g id="elem_JoinRoom"><ellipse cx="334.2717" cy="1805.0543" fill="#F1F1F1" rx="120.7717" ry="26.5543" style="stroke:#181818;stroke-width:0.5;"/><text fill="#000000" font-family="sans-serif" font-size="14" lengthAdjust="spacing" textLength="209" x="229.7717" y="1807.901">&#1042;&#1089;&#1090;&#1091;&#1087;&#1072;&#1090;&#1100; &#1074; &#1080;&#1075;&#1088;&#1086;&#1074;&#1091;&#1102; &#1082;&#1086;&#1084;&#1085;&#1072;&#1090;&#1091;</text></g><g id="elem_LeaveRoom"><ellipse cx="334.5602" cy="1892.212" fill="#F1F1F1" rx="116.5602" ry="25.712" style="stroke:#181818;stroke-width:0.5;"/><text fill="#000000" font-family="sans-serif" font-size="14" lengthAdjust="spacing" textLength="200" x="234.5602" y="1895.0587">&#1055;&#1086;&#1082;&#1080;&#1076;&#1072;&#1090;&#1100; &#1080;&#1075;&#1088;&#1086;&#1074;&#1091;&#1102; &#1082;&#1086;&#1084;&#1085;&#1072;&#1090;&#1091;</text></g><g id="elem_Learn"><ellipse cx="334.5118" cy="849.9024" fill="#F1F1F1" rx="95.0118" ry="21.4024" style="stroke:#181818;stroke-width:0.5;"/><text fill="#000000" font-family="sans-serif" font-size="14" lengthAdjust="spacing" textLength="153" x="258.0118" y="852.749">&#1055;&#1088;&#1086;&#1093;&#1086;&#1076;&#1080;&#1090;&#1100; &#1086;&#1073;&#1091;&#1095;&#1077;&#1085;&#1080;&#1077;</text></g><g id="elem_EditLearn"><ellipse cx="334.5557" cy="768.9111" fill="#F1F1F1" rx="110.0557" ry="24.4111" style="stroke:#181818;stroke-width:0.5;"/><text fill="#000000" font-family="sans-serif" font-size="14" lengthAdjust="spacing" textLength="186" x="241.5557" y="771.7578">&#1056;&#1077;&#1076;&#1072;&#1082;&#1090;&#1080;&#1088;&#1086;&#1074;&#1072;&#1090;&#1100; &#1086;&#1073;&#1091;&#1095;&#1077;&#1085;&#1080;&#1077;</text></g><g id="elem_ReadContent"><ellipse cx="334.5998" cy="649.22" fill="#FF0000" rx="86.5998" ry="19.72" style="stroke:#181818;stroke-width:0.5;"/><text fill="#000000" font-family="sans-serif" font-size="14" lengthAdjust="spacing" textLength="134" x="267.5998" y="652.0666">&#1055;&#1086;&#1083;&#1091;&#1095;&#1072;&#1090;&#1100; &#1082;&#1086;&#1085;&#1090;&#1077;&#1085;&#1090;</text></g><g id="elem_CreateContent"><ellipse cx="334.4996" cy="425.0999" fill="#F1F1F1" rx="90.9996" ry="20.5999" style="stroke:#181818;stroke-width:0.5;"/><text fill="#000000" font-family="sans-serif" font-size="14" lengthAdjust="spacing" textLength="144" x="262.4996" y="427.9466">&#1057;&#1086;&#1079;&#1076;&#1072;&#1074;&#1072;&#1090;&#1100; &#1082;&#1086;&#1085;&#1090;&#1077;&#1085;&#1090;</text></g><g id="elem_EditContent"><ellipse cx="334.4128" cy="500.9826" fill="#F1F1F1" rx="87.9128" ry="19.9826" style="stroke:#181818;stroke-width:0.5;"/><text fill="#000000" font-family="sans-serif" font-size="14" lengthAdjust="spacing" textLength="137" x="265.9128" y="503.8292">&#1048;&#1079;&#1084;&#1077;&#1085;&#1103;&#1090;&#1100; &#1082;&#1086;&#1085;&#1090;&#1077;&#1085;&#1090;</text></g><g id="elem_DeleteContent"><ellipse cx="334.6379" cy="575.0276" fill="#F1F1F1" rx="83.1379" ry="19.0276" style="stroke:#181818;stroke-width:0.5;"/><text fill="#000000" font-family="sans-serif" font-size="14" lengthAdjust="spacing" textLength="126" x="271.0914" y="578.0594">&#1059;&#1076;&#1072;&#1083;&#1103;&#1090;&#1100; &#1082;&#1086;&#1085;&#1090;&#1077;&#1085;&#1090;</text></g><g id="elem_GetState"><ellipse cx="334.5617" cy="1405.2123" fill="#FF0000" rx="124.0617" ry="27.2123" style="stroke:#181818;stroke-width:0.5;"/><text fill="#000000" font-family="sans-serif" font-size="14" lengthAdjust="spacing" textLength="216" x="226.5617" y="1408.059">&#1055;&#1086;&#1083;&#1091;&#1095;&#1072;&#1090;&#1100; &#1089;&#1086;&#1089;&#1090;&#1086;&#1103;&#1085;&#1080;&#1077; &#1086;&#1073;&#1098;&#1077;&#1082;&#1090;&#1072;</text></g><g id="elem_ChangeState"><ellipse cx="334.4616" cy="1229.9923" fill="#FF0000" rx="117.9616" ry="25.9923" style="stroke:#181818;stroke-width:0.5;"/><text fill="#000000" font-family="sans-serif" font-size="14" lengthAdjust="spacing" textLength="203" x="232.9616" y="1232.839">&#1052;&#1077;&#1085;&#1103;&#1090;&#1100; &#1089;&#1086;&#1089;&#1090;&#1086;&#1103;&#1085;&#1080;&#1077; &#1086;&#1073;&#1098;&#1077;&#1082;&#1090;&#1072;</text></g><g id="elem_Generate"><ellipse cx="334.4476" cy="1496.8895" fill="#FF0000" rx="134.9476" ry="29.3895" style="stroke:#181818;stroke-width:0.5;"/><text fill="#000000" font-family="sans-serif" font-size="14" lengthAdjust="spacing" textLength="239" x="214.9476" y="1499.7362">&#1043;&#1077;&#1085;&#1077;&#1088;&#1080;&#1088;&#1086;&#1074;&#1072;&#1090;&#1100; &#1080;&#1075;&#1088;&#1086;&#1074;&#1099;&#1077; &#1086;&#1073;&#1098;&#1077;&#1082;&#1090;&#1099;</text></g><g id="elem_CreateChar"><ellipse cx="334.4738" cy="969.8948" fill="#F1F1F1" rx="99.9738" ry="22.3948" style="stroke:#181818;stroke-width:0.5;"/><text fill="#000000" font-family="sans-serif" font-size="14" lengthAdjust="spacing" textLength="164" x="252.4738" y="972.7414">&#1057;&#1086;&#1079;&#1076;&#1072;&#1074;&#1072;&#1090;&#1100; &#1087;&#1077;&#1088;&#1089;&#1086;&#1085;&#1072;&#1078;&#1072;</text></g><g id="elem_EditChar"><ellipse cx="334.5937" cy="1317.1187" fill="#F1F1F1" rx="116.0937" ry="25.6187" style="stroke:#181818;stroke-width:0.5;"/><text fill="#000000" font-family="sans-serif" font-size="14" lengthAdjust="spacing" textLength="199" x="235.0937" y="1319.9654">&#1056;&#1077;&#1076;&#1072;&#1082;&#1090;&#1080;&#1088;&#1086;&#1074;&#1072;&#1090;&#1100; &#1087;&#1077;&#1088;&#1089;&#1086;&#1085;&#1072;&#1078;&#1072;</text></g><g id="elem_ImportChar"><ellipse cx="334.4942" cy="1053.8988" fill="#F1F1F1" rx="117.4942" ry="25.8988" style="stroke:#181818;stroke-width:0.5;"/><text fill="#000000" font-family="sans-serif" font-size="14" lengthAdjust="spacing" textLength="202" x="233.4942" y="1056.7455">&#1048;&#1084;&#1087;&#1086;&#1088;&#1090;&#1080;&#1088;&#1086;&#1074;&#1072;&#1090;&#1100; &#1087;&#1077;&#1088;&#1089;&#1086;&#1085;&#1072;&#1078;&#1072;</text></g><g id="elem_ExportChar"><ellipse cx="334.3027" cy="1141.9605" fill="#F1F1F1" rx="120.3027" ry="26.4605" style="stroke:#181818;stroke-width:0.5;"/><text fill="#000000" font-family="sans-serif" font-size="14" lengthAdjust="spacing" textLength="208" x="230.3027" y="1144.8072">&#1069;&#1082;&#1089;&#1087;&#1086;&#1088;&#1090;&#1080;&#1088;&#1086;&#1074;&#1072;&#1090;&#1100; &#1087;&#1077;&#1088;&#1089;&#1086;&#1085;&#1072;&#1078;&#1072;</text></g><g id="elem_ExportHistory"><ellipse cx="334.7278" cy="1589.8456" fill="#F1F1F1" rx="129.7278" ry="28.3456" style="stroke:#181818;stroke-width:0.5;"/><text fill="#000000" font-family="sans-serif" font-size="14" lengthAdjust="spacing" textLength="228" x="220.7278" y="1592.6922">&#1069;&#1082;&#1089;&#1087;&#1086;&#1088;&#1090;&#1080;&#1088;&#1086;&#1074;&#1072;&#1090;&#1100; &#1087;&#1088;&#1086;&#1093;&#1086;&#1078;&#1076;&#1077;&#1085;&#1080;&#1077;</text></g><g id="elem_AskHint"><ellipse cx="334.3276" cy="2383.7655" fill="#FF0000" rx="106.8276" ry="23.7655" style="stroke:#181818;stroke-width:0.5;"/><text fill="#000000" font-family="sans-serif" font-size="14" lengthAdjust="spacing" textLength="179" x="244.8276" y="2386.6122">&#1047;&#1072;&#1087;&#1088;&#1072;&#1096;&#1080;&#1074;&#1072;&#1090;&#1100; &#1087;&#1086;&#1076;&#1089;&#1082;&#1072;&#1079;&#1082;&#1080;</text></g><g id="elem_TuneHint"><ellipse cx="334.4911" cy="2466.8982" fill="#F1F1F1" rx="104.9911" ry="23.3982" style="stroke:#181818;stroke-width:0.5;"/><text fill="#000000" font-family="sans-serif" font-size="14" lengthAdjust="spacing" textLength="175" x="246.9911" y="2469.7449">&#1053;&#1072;&#1089;&#1090;&#1088;&#1072;&#1080;&#1074;&#1072;&#1090;&#1100; &#1087;&#1086;&#1076;&#1089;&#1082;&#1072;&#1079;&#1082;&#1080;</text></g><!--entity UO--><g id="elem_UO"><ellipse cx="43" cy="121.5" fill="#0000FF" rx="8" ry="8" style="stroke:#0000FF;stroke-width:2.0;"/><path d="M43,129.5 L43,156.5 M30,137.5 L56,137.5 M43,156.5 L30,171.5 M43,156.5 L56,171.5 " fill="none" style="stroke:#0000FF;stroke-width:2.0;"/><text fill="#0000FF" font-family="sans-serif" font-size="14" lengthAdjust="spacing" textLength="74" x="6" y="187.4951">&#1042;&#1083;&#1072;&#1076;&#1077;&#1083;&#1077;&#1094;</text></g><!--entity UE--><g id="elem_UE"><ellipse cx="43" cy="508.5" fill="#800000" rx="8" ry="8" style="stroke:#800000;stroke-width:2.0;"/><path d="M43,516.5 L43,543.5 M30,524.5 L56,524.5 M43,543.5 L30,558.5 M43,543.5 L56,558.5 " fill="none" style="stroke:#800000;stroke-width:2.0;"/><text fill="#800000" font-family="sans-serif" font-size="14" lengthAdjust="spacing" textLength="71" x="7.5" y="574.4951">&#1056;&#1077;&#1076;&#1072;&#1082;&#1090;&#1086;&#1088;</text></g><!--entity UP--><g id="elem_UP"><ellipse cx="43" cy="1068.5" fill="#FFA500" rx="8" ry="8" style="stroke:#FFA500;stroke-width:2.0;"/><path d="M43,1076.5 L43,1103.5 M30,1084.5 L56,1084.5 M43,1103.5 L30,1118.5 M43,1103.5 L56,1118.5 " fill="none" style="stroke:#FFA500;stroke-width:2.0;"/><text fill="#FFA500" font-family="sans-serif" font-size="14" lengthAdjust="spacing" textLength="43" x="21.5" y="1134.4951">&#1048;&#1075;&#1088;&#1086;&#1082;</text></g><!--entity UD--><g id="elem_UD"><ellipse cx="43" cy="1467.5" fill="#008000" rx="8" ry="8" style="stroke:#008000;stroke-width:2.0;"/><path d="M43,1475.5 L43,1502.5 M30,1483.5 L56,1483.5 M43,1502.5 L30,1517.5 M43,1502.5 L56,1517.5 " fill="none" style="stroke:#008000;stroke-width:2.0;"/><text fill="#008000" font-family="sans-serif" font-size="14" lengthAdjust="spacing" textLength="68" x="9" y="1533.4951">&#1042;&#1077;&#1076;&#1091;&#1097;&#1080;&#1081;</text></g><!--link UP to Register--><g id="link_UP_Register"><path d="M46.81,1058.48 C57.32,913.05 94.71,414.69 115.5,388 C147.3,347.17 202.15,327.43 248.86,317.89 " fill="none" id="UP-to-Register" style="stroke:#FFA500;stroke-width:1.0;"/><polygon fill="#FFA500" points="253.94,316.88,244.334,314.7066,249.0355,317.8523,245.8897,322.5538,253.94,316.88" style="stroke:#FFA500;stroke-width:1.0;"/></g><!--link UD to Auth--><g id="link_UD_Auth"><path d="M49.02,1457.32 C56.88,1393.66 72.03,1264.71 80,1155 C83.56,1105.98 83.29,308.12 115.5,271 C144.16,237.98 190.33,226.39 232.81,223.71 " fill="none" id="UD-to-Auth" style="stroke:#008000;stroke-width:1.0;"/><polygon fill="#008000" points="237.97,223.43,228.7659,219.9252,232.9774,223.7018,229.2008,227.9133,237.97,223.43" style="stroke:#008000;stroke-width:1.0;"/></g><!--link UE to Auth--><g id="link_UE_Auth"><path d="M49.36,498.5 C59.21,431.94 82.26,301.67 115.5,271 C145.74,243.09 188.76,231.52 228.61,227.51 " fill="none" id="UE-to-Auth" style="stroke:#800000;stroke-width:1.0;"/><polygon fill="#800000" points="233.95,227.01,224.6126,223.8775,228.9723,227.482,225.3678,231.8418,233.95,227.01" style="stroke:#800000;stroke-width:1.0;"/></g><!--link UO to Auth--><g id="link_UO_Auth"><path d="M80.08,173.54 C91.12,179.64 103.51,185.72 115.5,190 C154.64,203.96 199.52,213.44 238.34,219.73 " fill="none" id="UO-to-Auth" style="stroke:#0000FF;stroke-width:1.0;"/><polygon fill="#0000FF" points="243.53,220.56,235.2696,215.1967,238.592,219.7751,234.0136,223.0975,243.53,220.56" style="stroke:#0000FF;stroke-width:1.0;"/></g><!--link UP to Auth--><g id="link_UP_Auth"><path d="M46.78,1058.35 C58.26,895.47 102.07,285.78 115.5,271 C144.54,239.06 189.99,227.43 231.9,224.44 " fill="none" id="UP-to-Auth" style="stroke:#FFA500;stroke-width:1.0;"/><polygon fill="#FFA500" points="236.99,224.12,227.7568,220.6925,231.9998,224.4337,228.2587,228.6767,236.99,224.12" style="stroke:#FFA500;stroke-width:1.0;"/></g><!--link UO to ManageUsers--><g id="link_UO_ManageUsers"><path d="M80.05,127.93 C91.08,121.67 103.49,115.42 115.5,111 C150.96,97.96 191.19,88.6 227.35,82.02 " fill="none" id="UO-to-ManageUsers" style="stroke:#0000FF;stroke-width:1.0;"/><polygon fill="#0000FF" points="232.66,81.07,223.0944,78.725,227.7388,81.9544,224.5094,86.5988,232.66,81.07" style="stroke:#0000FF;stroke-width:1.0;"/></g><!--link UD to Logout--><g id="link_UD_Logout"><path d="M49.06,1457.32 C56.99,1393.67 72.22,1264.73 80,1155 C83.8,1101.49 80.32,230.5 115.5,190 C145.24,155.76 193.86,144.8 237.64,142.93 " fill="none" id="UD-to-Logout" style="stroke:#008000;stroke-width:1.0;"/><polygon fill="#008000" points="242.68,142.75,233.5482,139.0607,237.6829,142.9213,233.8223,147.056,242.68,142.75" style="stroke:#008000;stroke-width:1.0;"/></g><!--link UE to Logout--><g id="link_UE_Logout"><path d="M46.66,498.45 C53.01,416.56 71.88,232.51 115.5,190 C146.39,159.89 192.07,148.68 233.65,145.59 " fill="none" id="UE-to-Logout" style="stroke:#800000;stroke-width:1.0;"/><polygon fill="#800000" points="238.7,145.25,229.4468,141.8769,233.7118,145.593,229.9956,149.858,238.7,145.25" style="stroke:#800000;stroke-width:1.0;"/></g><!--link UO to Logout--><g id="link_UO_Logout"><path d="M80.08,151 C117.52,151 177.83,151 230.22,151 " fill="none" id="UO-to-Logout" style="stroke:#0000FF;stroke-width:1.0;"/><polygon fill="#0000FF" points="235.26,151,226.26,147,230.26,151,226.26,155,235.26,151" style="stroke:#0000FF;stroke-width:1.0;"/></g><!--link UP to Logout--><g id="link_UP_Logout"><path d="M46.81,1058.21 C59.12,884.17 108.08,198.18 115.5,190 C145.52,156.87 193.24,145.79 236.39,143.57 " fill="none" id="UP-to-Logout" style="stroke:#FFA500;stroke-width:1.0;"/><polygon fill="#FFA500" points="241.63,143.34,232.4665,139.7302,236.6346,143.5547,232.8101,147.7228,241.63,143.34" style="stroke:#FFA500;stroke-width:1.0;"/></g><!--link UD to CreateRoom--><g id="link_UD_CreateRoom"><path d="M44.89,1536.51 C47.91,1633.27 60.91,1878.33 115.5,1935 C140.01,1960.44 174.85,1973.32 209.5,1979.36 " fill="none" id="UD-to-CreateRoom" style="stroke:#008000;stroke-width:1.0;"/><polygon fill="#008000" points="214.61,1980.2,206.3799,1974.7903,209.6765,1979.3873,205.0795,1982.6839,214.61,1980.2" style="stroke:#008000;stroke-width:1.0;"/></g><!--link UD to EditRoom--><g id="link_UD_EditRoom"><path d="M43.73,1536.53 C43.82,1646.46 50.08,1952.32 115.5,2023 C136.01,2045.16 164.26,2058.18 193.62,2065.57 " fill="none" id="UD-to-EditRoom" style="stroke:#008000;stroke-width:1.0;"/><polygon fill="#008000" points="198.73,2066.8,190.902,2060.8232,193.8661,2065.6413,189.048,2068.6054,198.73,2066.8" style="stroke:#008000;stroke-width:1.0;"/></g><!--link UD to ArchiveRoom--><g id="link_UD_ArchiveRoom"><path d="M45.92,1536.76 C52.56,1666.85 76.33,2074 115.5,2117 C137.01,2140.61 167.33,2153.78 198.53,2160.78 " fill="none" id="UD-to-ArchiveRoom" style="stroke:#008000;stroke-width:1.0;"/><polygon fill="#008000" points="203.55,2161.85,195.5833,2156.0594,198.6602,2160.8063,193.9133,2163.8831,203.55,2161.85" style="stroke:#008000;stroke-width:1.0;"/></g><!--link UD to RestoreRoom--><g id="link_UD_RestoreRoom"><path d="M45.29,1536.56 C50.3,1678.8 70.44,2158.57 115.5,2209 C136.68,2232.7 166.7,2246.04 197.71,2253.21 " fill="none" id="UD-to-RestoreRoom" style="stroke:#008000;stroke-width:1.0;"/><polygon fill="#008000" points="202.7,2254.31,194.7657,2248.475,197.8161,2253.239,193.0521,2256.2893,202.7,2254.31" style="stroke:#008000;stroke-width:1.0;"/></g><!--link UP to SearchRoom--><g id="link_UP_SearchRoom"><path d="M48.15,1137.55 C60.98,1258.32 100.03,1615.38 115.5,1635 C144.94,1672.34 193.13,1693.09 236.73,1704.63 " fill="none" id="UP-to-SearchRoom" style="stroke:#FFA500;stroke-width:1.0;"/><polygon fill="#FFA500" points="241.75,1705.92,234.0268,1699.8083,236.9069,1704.6771,232.0382,1707.5572,241.75,1705.92" style="stroke:#FFA500;stroke-width:1.0;"/></g><!--link UP to JoinRoom--><g id="link_UP_JoinRoom"><path d="M48.22,1137.88 C63.37,1280.89 114.17,1759.54 115.5,1761 C139.31,1787.1 173.95,1800.16 208.63,1806.18 " fill="none" id="UP-to-JoinRoom" style="stroke:#FFA500;stroke-width:1.0;"/><polygon fill="#FFA500" points="213.75,1807.01,205.5224,1801.5964,208.8169,1806.195,204.2183,1809.4894,213.75,1807.01" style="stroke:#FFA500;stroke-width:1.0;"/></g><!--link UP to LeaveRoom--><g id="link_UP_LeaveRoom"><path d="M48.42,1137.73 C55.46,1201.46 69.49,1330.5 80,1440 C84.36,1485.41 85.04,1815.05 115.5,1849 C140.3,1876.64 177.28,1889.57 213.76,1894.95 " fill="none" id="UP-to-LeaveRoom" style="stroke:#FFA500;stroke-width:1.0;"/><polygon fill="#FFA500" points="219.14,1895.69,210.775,1890.4912,214.1874,1895.0029,209.6757,1898.4153,219.14,1895.69" style="stroke:#FFA500;stroke-width:1.0;"/></g><!--link UD to Learn--><g id="link_UD_Learn"><path d="M47.9,1457.09 C60.32,1331.55 99.08,951.71 115.5,931 C146.78,891.55 199.32,871.31 244.98,860.93 " fill="none" id="UD-to-Learn" style="stroke:#008000;stroke-width:1.0;"/><polygon fill="#008000" points="249.94,859.83,240.2921,857.8507,245.0561,860.901,242.0057,865.665,249.94,859.83" style="stroke:#008000;stroke-width:1.0;"/></g><!--link UE to Learn--><g id="link_UE_Learn"><path d="M49.1,577.59 C58.67,645.4 81.45,779.54 115.5,811 C147.86,840.9 194.93,851.84 237.06,854.81 " fill="none" id="UE-to-Learn" style="stroke:#800000;stroke-width:1.0;"/><polygon fill="#800000" points="242.17,855.14,233.4395,850.5817,237.1799,854.8254,232.9362,858.5659,242.17,855.14" style="stroke:#800000;stroke-width:1.0;"/></g><!--link UP to Learn--><g id="link_UP_Learn"><path d="M51.55,1058.43 C60.64,1020.93 79.42,965.37 115.5,931 C152.88,895.4 207.29,875.16 252.4,863.81 " fill="none" id="UP-to-Learn" style="stroke:#FFA500;stroke-width:1.0;"/><polygon fill="#FFA500" points="257.29,862.61,247.5933,860.8854,252.4359,863.8092,249.5121,868.6519,257.29,862.61" style="stroke:#FFA500;stroke-width:1.0;"/></g><!--link UE to EditLearn--><g id="link_UE_EditLearn"><path d="M54.39,577.6 C64.86,610.38 84.04,656.11 115.5,685 C151.81,718.35 202.8,738.97 246.33,751.43 " fill="none" id="UE-to-EditLearn" style="stroke:#800000;stroke-width:1.0;"/><polygon fill="#800000" points="251.33,752.83,243.7529,746.5381,246.5176,751.4734,241.5823,754.238,251.33,752.83" style="stroke:#800000;stroke-width:1.0;"/></g><!--link UE to ReadContent--><g id="link_UE_ReadContent"><path d="M74.5,577.85 C86.03,590.31 100.11,602.91 115.5,611 C154.55,631.54 202.43,641.29 243.37,645.81 " fill="none" id="UE-to-ReadContent" style="stroke:#800000;stroke-width:1.0;"/><polygon fill="#800000" points="248.58,646.36,240.0533,641.4309,243.608,645.8314,239.2075,649.386,248.58,646.36" style="stroke:#800000;stroke-width:1.0;"/></g><!--link UP to ReadContent--><g id="link_UP_ReadContent"><path d="M46.79,1058.18 C53.51,973.13 73.27,777.43 115.5,728 C149.5,688.21 205.19,668.46 251.77,658.66 " fill="none" id="UP-to-ReadContent" style="stroke:#FFA500;stroke-width:1.0;"/><polygon fill="#FFA500" points="256.83,657.62,247.2119,655.5004,251.931,658.6198,248.8116,663.3389,256.83,657.62" style="stroke:#FFA500;stroke-width:1.0;"/></g><!--link UD to ReadContent--><g id="link_UD_ReadContent"><path d="M48.47,1457.27 C55.57,1393.55 69.68,1264.52 80,1155 C84.46,1107.6 86.57,765.81 115.5,728 C147.12,686.66 202.41,666.93 249.39,657.52 " fill="none" id="UD-to-ReadContent" style="stroke:#008000;stroke-width:1.0;"/><polygon fill="#008000" points="254.49,656.53,244.8963,654.3026,249.5801,657.4748,246.4079,662.1585,254.49,656.53" style="stroke:#008000;stroke-width:1.0;"/></g><!--link UE to CreateContent--><g id="link_UE_CreateContent"><path d="M73.27,498.23 C84.97,485.05 99.48,471.57 115.5,463 C153.03,442.94 198.9,433.12 238.87,428.44 " fill="none" id="UE-to-CreateContent" style="stroke:#800000;stroke-width:1.0;"/><polygon fill="#800000" points="244.21,427.84,234.8205,424.8672,239.2411,428.3969,235.7115,432.8175,244.21,427.84" style="stroke:#800000;stroke-width:1.0;"/></g><!--link UE to EditContent--><g id="link_UE_EditContent"><path d="M78.63,533.57 C121.25,528.13 194.98,518.7 252.21,511.39 " fill="none" id="UE-to-EditContent" style="stroke:#800000;stroke-width:1.0;"/><polygon fill="#800000" points="257.34,510.73,247.9083,507.8939,252.3797,511.359,248.9147,515.8304,257.34,510.73" style="stroke:#800000;stroke-width:1.0;"/></g><!--link UE to DeleteContent--><g id="link_UE_DeleteContent"><path d="M78.63,542.43 C122.34,548.01 198.78,557.78 256.57,565.17 " fill="none" id="UE-to-DeleteContent" style="stroke:#800000;stroke-width:1.0;"/><polygon fill="#800000" points="261.76,565.83,253.3492,560.7058,256.8015,565.187,252.3203,568.6393,261.76,565.83" style="stroke:#800000;stroke-width:1.0;"/></g><!--link UD to GetState--><g id="link_UD_GetState"><path d="M77.08,1471.51 C88.7,1463.59 102.19,1455.51 115.5,1450 C148.94,1436.16 187.08,1426.42 222.02,1419.64 " fill="none" id="UD-to-GetState" style="stroke:#008000;stroke-width:1.0;"/><polygon fill="#008000" points="227.15,1418.66,217.5626,1416.4057,222.2374,1419.591,219.0521,1424.2658,227.15,1418.66" style="stroke:#008000;stroke-width:1.0;"/></g><!--link UP to GetState--><g id="link_UP_GetState"><path d="M49.7,1137.74 C59.9,1203.26 83.28,1329.74 115.5,1360 C139.9,1382.91 172.75,1395.47 205.53,1402.06 " fill="none" id="UP-to-GetState" style="stroke:#FFA500;stroke-width:1.0;"/><polygon fill="#FFA500" points="210.79,1403.07,202.7049,1397.4458,205.8796,1402.1279,201.1975,1405.3025,210.79,1403.07" style="stroke:#FFA500;stroke-width:1.0;"/></g><!--link UD to ChangeState--><g id="link_UD_ChangeState"><path d="M45.11,1457.1 C48.77,1406.74 62.93,1321.03 115.5,1274 C141.76,1250.51 177,1238.17 211.49,1232.02 " fill="none" id="UD-to-ChangeState" style="stroke:#008000;stroke-width:1.0;"/><polygon fill="#008000" points="216.57,1231.16,207.0245,1228.7343,211.6415,1232.0028,208.3731,1236.6199,216.57,1231.16" style="stroke:#008000;stroke-width:1.0;"/></g><!--link UP to ChangeState--><g id="link_UP_ChangeState"><path d="M64.76,1133.99 C77.18,1152.33 94.61,1173.37 115.5,1186 C145.73,1204.28 182.2,1215.11 216.59,1221.49 " fill="none" id="UP-to-ChangeState" style="stroke:#FFA500;stroke-width:1.0;"/><polygon fill="#FFA500" points="221.65,1222.4,213.5022,1216.8671,216.7293,1221.5131,212.0832,1224.7402,221.65,1222.4" style="stroke:#FFA500;stroke-width:1.0;"/></g><!--link UD to Generate--><g id="link_UD_Generate"><path d="M77.21,1497 C106.31,1497 150.68,1497 194.36,1497 " fill="none" id="UD-to-Generate" style="stroke:#008000;stroke-width:1.0;"/><polygon fill="#008000" points="199.41,1497,190.41,1493,194.41,1497,190.41,1501,199.41,1497" style="stroke:#008000;stroke-width:1.0;"/></g><!--link UP to CreateChar--><g id="link_UP_CreateChar"><path d="M64.68,1061.86 C77.07,1043.48 94.5,1022.44 115.5,1010 C149.87,989.63 192.23,979.2 230.43,974.01 " fill="none" id="UP-to-CreateChar" style="stroke:#FFA500;stroke-width:1.0;"/><polygon fill="#FFA500" points="235.55,973.34,226.1103,970.5307,230.5915,973.983,227.1392,978.4642,235.55,973.34" style="stroke:#FFA500;stroke-width:1.0;"/></g><!--link UP to EditChar--><g id="link_UP_EditChar"><path d="M49.27,1137.75 C56.78,1178.04 74.53,1239.11 115.5,1273 C142.94,1295.69 178.89,1307.75 213.67,1313.88 " fill="none" id="UP-to-EditChar" style="stroke:#FFA500;stroke-width:1.0;"/><polygon fill="#FFA500" points="218.79,1314.74,210.5777,1309.3033,213.8592,1313.9111,209.2514,1317.1925,218.79,1314.74" style="stroke:#FFA500;stroke-width:1.0;"/></g><!--link UP to ImportChar--><g id="link_UP_ImportChar"><path d="M64.82,1094.84 C99.5,1089.57 171.27,1078.66 231.92,1069.44 " fill="none" id="UP-to-ImportChar" style="stroke:#FFA500;stroke-width:1.0;"/><polygon fill="#FFA500" points="237.01,1068.67,227.5081,1066.0788,232.0676,1069.4271,228.7194,1073.9866,237.01,1068.67" style="stroke:#FFA500;stroke-width:1.0;"/></g><!--link UD to EditChar--><g id="link_UD_EditChar"><path d="M54.36,1457.44 C64.65,1426.14 83.6,1383.87 115.5,1360 C143.76,1338.86 179.67,1327.33 214.15,1321.26 " fill="none" id="UD-to-EditChar" style="stroke:#008000;stroke-width:1.0;"/><polygon fill="#008000" points="219.23,1320.4,209.6914,1317.9475,214.2992,1321.2289,211.0177,1325.8367,219.23,1320.4" style="stroke:#008000;stroke-width:1.0;"/></g><!--link UP to ExportChar--><g id="link_UP_ExportChar"><path d="M64.82,1101.16 C99.12,1106.38 169.71,1117.11 229.93,1126.26 " fill="none" id="UP-to-ExportChar" style="stroke:#FFA500;stroke-width:1.0;"/><polygon fill="#FFA500" points="234.98,1127.03,226.6744,1121.7368,230.0355,1126.2869,225.4855,1129.648,234.98,1127.03" style="stroke:#FFA500;stroke-width:1.0;"/></g><!--link UD to ExportHistory--><g id="link_UD_ExportHistory"><path d="M77.09,1522.46 C88.71,1530.37 102.2,1538.46 115.5,1544 C147.92,1557.5 184.76,1567.22 218.81,1574.13 " fill="none" id="UD-to-ExportHistory" style="stroke:#008000;stroke-width:1.0;"/><polygon fill="#008000" points="223.81,1575.13,215.7756,1569.4336,218.9082,1574.1439,214.1979,1577.2765,223.81,1575.13" style="stroke:#008000;stroke-width:1.0;"/></g><!--link UD to AskHint--><g id="link_UD_AskHint"><path d="M45.08,1536.58 C49.61,1689.94 68.99,2239.54 115.5,2301 C144.27,2339.01 192.67,2359.62 236.57,2370.78 " fill="none" id="UD-to-AskHint" style="stroke:#008000;stroke-width:1.0;"/><polygon fill="#008000" points="241.63,2372.03,233.8521,2365.9881,236.7759,2370.8308,231.9333,2373.7546,241.63,2372.03" style="stroke:#008000;stroke-width:1.0;"/></g><!--link UD to TuneHint--><g id="link_UD_TuneHint"><path d="M44.27,1536.5 C45.8,1704.97 55.58,2357.87 115.5,2425 C143.26,2456.1 186.46,2468.42 227.12,2472.27 " fill="none" id="UD-to-TuneHint" style="stroke:#008000;stroke-width:1.0;"/><polygon fill="#008000" points="232.58,2472.74,223.9556,2467.9839,227.5984,2472.3118,223.2705,2475.9545,232.58,2472.74" style="stroke:#008000;stroke-width:1.0;"/></g><!--SRC=[dLTHRnj547xthpZLIBoqy4ubH1HRBQWeKGi_u6elzgdsNNMthefGfQI1GaaLL-61206bwZEIIMpYsexp5tR_4REpktTpjtkjGoJ7ws_klczcTcPkRy2-uG5FWZJgzNdGZLBMuL4IDnfXXoTfS4qSYwMOYAcOmVTCFhiMX5dmzKxm0NoQzmSZTdCGnUoJVFNH_MJGlSdPOuvOJlCN44o1Q26VYhNSqpHje6a7pM6O9aciYSYQK6aq9piHPt9FhCL2q-m2pMxGJD8mxXb_o9hGQ9I41Zx90_bSpCLRJTK2gbRGxAMC6OUA9I52iD5GoGB60GEoL-3FKhuGv_1zAYOGfihONDDcBCs2xne1_8qorWapPb9o9kPoNpw5QEOO4TufNm0snZllibwKSPRYhH3aZHkVvfYDk4Bx4Y9IuXVmVow_Xy-p6lAj4UzhuXOIgzycTWst2Mos0F4TWkCk4-yqwlNiZRW4FoRWnrAEbIU1kFHbJOx5ocJkop0EUmppHwK9J3meb8xbeVm1AASGEUhCnNaWztMoGM8b3v7-Jj9BHfpcG2EUB5Y3cmThgMR2uYONJyhrOcluL1wAMI0Mi5o92zoXmuynKMiCuL_ilGjmtLH4aWpTMdeDLvvZWvbDLY5RWGDvL1OuGARjb8MSAJwQW0AbIIXNhMtaKbbjeDZkHhogPp6_sakv1rcOWyPLjRRIJZzwv8H7OB_YCUHz7yja0dnhLDvCyIxBOAuuYWJsAvv0OIxSkDooG9LxB8GG2X5TQmLQqtl7E6OEeE6CqEa64NsHH75LoM8rEceCBe1vkl56tM4XtIRJEnQiQvy_nJz0-ADk3J4pvJNgXEhfvRJ7gxoTyecmzX20QXgNfe42VCD0utGMx5A3DpNlw9orDvg84uVQURUKnIjv-GsuBkpyL-bMX6VNrV2RWHOe0tAcjAy7E6NcSCrI7kNYR-5QI1IKoWgSsfD7UbOaCMSnTnEByrkvRY9PK7tJ5c7NtjvCMPU6KxAvsIoPIKxppY9cNsTvfgBhdnvuXeSwLpAKt2Ez2_mh91lNyQijyx0Jk8Rx3Ng-h6TkiG7pUbuor5NAQnnqwZGsrbKNlEEfinqE7uPHByxUMm5GQ0wlAk-VWKzL_WJvRZ5-ZqDsIKNeFIqCfEbsAoPlU_rEjc4p9xRxYiRlHydck5AoUhtv1TCtgnxid05Fl383_XQBMUfFZJLiMEkNIb-bGirRsD89hVT-M3fK5kZLfvTV1mkyecAn6eqJwALBzNgmgSRdmuT9wgWKQ8tEtn35_jMKse_BIgrAF4w953VyBoVSJhIF1UIz7Qb3nRSbNwZ1ElJ4VKcPwkC65Cl27B9lHp5t6_jNk0RFw_8dF81DYXExIx6LFL0iJitckAza_m1E_V8pUR_2LwEOAIhARZ4IxOSf6oQFc8uf_wLV8Eol_9oG8tYeBgxUAPRjXbbzDehX9V01w_u7]--></g></svg>