<?xml version="1.0" encoding="us-ascii" standalone="no"?><svg xmlns="http://www.w3.org/2000/svg" xmlns:xlink="http://www.w3.org/1999/xlink" contentStyleType="text/css" height="100px" preserveAspectRatio="none" style="width:305px;height:100px;background:#FFFFFF;" version="1.1" viewBox="0 0 305 100" width="305px" zoomAndPan="magnify"><defs/><g><!--cluster Generator--><g id="cluster_Generator"><path d="M8.5,6 L108.5,6 A3.75,3.75 0 0 1 111,8.5 L118,28.2969 L295.5,28.2969 A2.5,2.5 0 0 1 298,30.7969 L298,90.5 A2.5,2.5 0 0 1 295.5,93 L8.5,93 A2.5,2.5 0 0 1 6,90.5 L6,8.5 A2.5,2.5 0 0 1 8.5,6 " fill="none" style="stroke:#000000;stroke-width:1.5;"/><line style="stroke:#000000;stroke-width:1.5;" x1="6" x2="118" y1="28.2969" y2="28.2969"/><text fill="#000000" font-family="sans-serif" font-size="14" font-weight="bold" lengthAdjust="spacing" textLength="99" x="10" y="20.9951">&#1043;&#1077;&#1085;&#1077;&#1088;&#1072;&#1090;&#1086;&#1088;&#1099;</text></g><!--entity ???????????? ??????? ???????--><g id="elem_&#1043;&#1077;&#1085;&#1077;&#1088;&#1080;&#1088;&#1086;&#1074;&#1072;&#1090;&#1100; &#1080;&#1075;&#1088;&#1086;&#1074;&#1099;&#1077; &#1086;&#1073;&#1098;&#1077;&#1082;&#1090;&#1099;"><rect fill="#FFA500" height="36.2969" rx="2.5" ry="2.5" style="stroke:#181818;stroke-width:0.5;" width="259" x="22.5" y="41"/><text fill="#000000" font-family="sans-serif" font-size="14" lengthAdjust="spacing" textLength="239" x="32.5" y="63.9951">&#1043;&#1077;&#1085;&#1077;&#1088;&#1080;&#1088;&#1086;&#1074;&#1072;&#1090;&#1100; &#1080;&#1075;&#1088;&#1086;&#1074;&#1099;&#1077; &#1086;&#1073;&#1098;&#1077;&#1082;&#1090;&#1099;</text></g><!--SRC=[AqXCpavCJrLGkZ3vmjOBUozilTXmOSF5fWlxBZPSx5PII2nMS4_DIorABCalKgZcKW22ejJaaiIyz1nKFJk0UD-5JI2z5tiKBkoui1aYSB7xmbO586FZnIwWsbr0MQ2folb5G1DIkMe1]--></g></svg>