<?xml version="1.0" encoding="us-ascii" standalone="no"?><svg xmlns="http://www.w3.org/2000/svg" xmlns:xlink="http://www.w3.org/1999/xlink" contentStyleType="text/css" height="100px" preserveAspectRatio="none" style="width:539px;height:100px;background:#FFFFFF;" version="1.1" viewBox="0 0 539 100" width="539px" zoomAndPan="magnify"><defs/><g><!--cluster Object--><g id="cluster_Object"><path d="M8.5,6 L157.5,6 A3.75,3.75 0 0 1 160,8.5 L167,28.2969 L529.5,28.2969 A2.5,2.5 0 0 1 532,30.7969 L532,90.5 A2.5,2.5 0 0 1 529.5,93 L8.5,93 A2.5,2.5 0 0 1 6,90.5 L6,8.5 A2.5,2.5 0 0 1 8.5,6 " fill="none" style="stroke:#000000;stroke-width:1.5;"/><line style="stroke:#000000;stroke-width:1.5;" x1="6" x2="167" y1="28.2969" y2="28.2969"/><text fill="#000000" font-family="sans-serif" font-size="14" font-weight="bold" lengthAdjust="spacing" textLength="148" x="10" y="20.9951">&#1048;&#1075;&#1088;&#1086;&#1074;&#1099;&#1077; &#1086;&#1073;&#1098;&#1077;&#1082;&#1090;&#1099;</text></g><!--entity ???????? ????????? ???????--><g id="elem_&#1055;&#1086;&#1083;&#1091;&#1095;&#1072;&#1090;&#1100; &#1089;&#1086;&#1089;&#1090;&#1086;&#1103;&#1085;&#1080;&#1077; &#1086;&#1073;&#1098;&#1077;&#1082;&#1090;&#1072;"><rect fill="#FFA500" height="36.2969" rx="2.5" ry="2.5" style="stroke:#181818;stroke-width:0.5;" width="236" x="280" y="41"/><text fill="#000000" font-family="sans-serif" font-size="14" lengthAdjust="spacing" textLength="216" x="290" y="63.9951">&#1055;&#1086;&#1083;&#1091;&#1095;&#1072;&#1090;&#1100; &#1089;&#1086;&#1089;&#1090;&#1086;&#1103;&#1085;&#1080;&#1077; &#1086;&#1073;&#1098;&#1077;&#1082;&#1090;&#1072;</text></g><!--entity ?????? ????????? ???????--><g id="elem_&#1052;&#1077;&#1085;&#1103;&#1090;&#1100; &#1089;&#1086;&#1089;&#1090;&#1086;&#1103;&#1085;&#1080;&#1077; &#1086;&#1073;&#1098;&#1077;&#1082;&#1090;&#1072;"><rect fill="#FFA500" height="36.2969" rx="2.5" ry="2.5" style="stroke:#181818;stroke-width:0.5;" width="223" x="21.5" y="41"/><text fill="#000000" font-family="sans-serif" font-size="14" lengthAdjust="spacing" textLength="203" x="31.5" y="63.9951">&#1052;&#1077;&#1085;&#1103;&#1090;&#1100; &#1089;&#1086;&#1089;&#1090;&#1086;&#1103;&#1085;&#1080;&#1077; &#1086;&#1073;&#1098;&#1077;&#1082;&#1090;&#1072;</text></g><!--SRC=[AqXCpavCJrLGkZ3ZmkQB3HVsNTXqiVl2LWKWO-F5hWjRB-ows7InMqaXiLZ1FoahDRb4ePfB0GYAWCp4lFGSaCxvGCMxBpPVRB-m0QYuH-5YuuLz5nilDW79_WjxB-n0C-x21YK5vVmYeEvK3AFc09NilTXFgZ6r0000]--></g></svg>