<?xml version="1.0" encoding="us-ascii" standalone="no"?><svg xmlns="http://www.w3.org/2000/svg" xmlns:xlink="http://www.w3.org/1999/xlink" contentStyleType="text/css" height="395px" preserveAspectRatio="none" style="width:621px;height:395px;background:#FFFFFF;" version="1.1" viewBox="0 0 621 395" width="621px" zoomAndPan="magnify"><defs/><g><rect fill="#FFFAFA" height="383.3594" style="stroke:#181818;stroke-width:0.5;" width="368.5" x="244.5" y="6"/><text fill="#000000" font-family="sans-serif" font-size="13" font-weight="bold" lengthAdjust="spacing" textLength="90" x="381.25" y="18.0669">&#1055;&#1083;&#1072;&#1090;&#1092;&#1086;&#1088;&#1084;&#1072;</text><line style="stroke:#181818;stroke-width:0.5;stroke-dasharray:5.0,5.0;" x1="60" x2="60" y1="87.4297" y2="310.0625"/><line style="stroke:#181818;stroke-width:0.5;stroke-dasharray:5.0,5.0;" x1="292.5" x2="292.5" y1="87.4297" y2="310.0625"/><line style="stroke:#181818;stroke-width:0.5;stroke-dasharray:5.0,5.0;" x1="372.5" x2="372.5" y1="87.4297" y2="310.0625"/><line style="stroke:#181818;stroke-width:0.5;stroke-dasharray:5.0,5.0;" x1="536" x2="536" y1="87.4297" y2="310.0625"/><text fill="#000000" font-family="sans-serif" font-size="14" lengthAdjust="spacing" textLength="104" x="5" y="84.1279">&#1055;&#1086;&#1083;&#1100;&#1079;&#1086;&#1074;&#1072;&#1090;&#1077;&#1083;&#1100;</text><ellipse cx="60" cy="19.6328" fill="#E2E2F0" rx="8" ry="8" style="stroke:#181818;stroke-width:0.5;"/><path d="M60,27.6328 L60,54.6328 M47,35.6328 L73,35.6328 M60,54.6328 L47,69.6328 M60,54.6328 L73,69.6328 " fill="none" style="stroke:#181818;stroke-width:0.5;"/><text fill="#000000" font-family="sans-serif" font-size="14" lengthAdjust="spacing" textLength="104" x="5" y="322.0576">&#1055;&#1086;&#1083;&#1100;&#1079;&#1086;&#1074;&#1072;&#1090;&#1077;&#1083;&#1100;</text><ellipse cx="60" cy="333.8594" fill="#E2E2F0" rx="8" ry="8" style="stroke:#181818;stroke-width:0.5;"/><path d="M60,341.8594 L60,368.8594 M47,349.8594 L73,349.8594 M60,368.8594 L47,383.8594 M60,368.8594 L73,383.8594 " fill="none" style="stroke:#181818;stroke-width:0.5;"/><rect fill="#E2E2F0" height="30.2969" rx="2.5" ry="2.5" style="stroke:#181818;stroke-width:0.5;" width="89" x="248.5" y="56.1328"/><text fill="#000000" font-family="sans-serif" font-size="14" lengthAdjust="spacing" textLength="75" x="255.5" y="76.1279">API Gatway</text><rect fill="#E2E2F0" height="30.2969" rx="2.5" ry="2.5" style="stroke:#181818;stroke-width:0.5;" width="89" x="248.5" y="309.0625"/><text fill="#000000" font-family="sans-serif" font-size="14" lengthAdjust="spacing" textLength="75" x="255.5" y="329.0576">API Gatway</text><rect fill="#E2E2F0" height="30.2969" rx="2.5" ry="2.5" style="stroke:#181818;stroke-width:0.5;" width="51" x="347.5" y="56.1328"/><text fill="#000000" font-family="sans-serif" font-size="14" lengthAdjust="spacing" textLength="37" x="354.5" y="76.1279">&#1071;&#1076;&#1088;&#1086;</text><rect fill="#E2E2F0" height="30.2969" rx="2.5" ry="2.5" style="stroke:#181818;stroke-width:0.5;" width="51" x="347.5" y="309.0625"/><text fill="#000000" font-family="sans-serif" font-size="14" lengthAdjust="spacing" textLength="37" x="354.5" y="329.0576">&#1071;&#1076;&#1088;&#1086;</text><text fill="#000000" font-family="sans-serif" font-size="14" lengthAdjust="spacing" textLength="139" x="464" y="84.1279">&#1041;&#1044; &#1087;&#1086;&#1083;&#1100;&#1079;&#1086;&#1074;&#1072;&#1090;&#1077;&#1083;&#1077;&#1081;</text><path d="M518.5,35.1328 C518.5,25.1328 536.5,25.1328 536.5,25.1328 C536.5,25.1328 554.5,25.1328 554.5,35.1328 L554.5,61.1328 C554.5,71.1328 536.5,71.1328 536.5,71.1328 C536.5,71.1328 518.5,71.1328 518.5,61.1328 L518.5,35.1328 " fill="#E2E2F0" style="stroke:#181818;stroke-width:1.5;"/><path d="M518.5,35.1328 C518.5,45.1328 536.5,45.1328 536.5,45.1328 C536.5,45.1328 554.5,45.1328 554.5,35.1328 " fill="none" style="stroke:#181818;stroke-width:1.5;"/><text fill="#000000" font-family="sans-serif" font-size="14" lengthAdjust="spacing" textLength="139" x="464" y="322.0576">&#1041;&#1044; &#1087;&#1086;&#1083;&#1100;&#1079;&#1086;&#1074;&#1072;&#1090;&#1077;&#1083;&#1077;&#1081;</text><path d="M518.5,335.3594 C518.5,325.3594 536.5,325.3594 536.5,325.3594 C536.5,325.3594 554.5,325.3594 554.5,335.3594 L554.5,361.3594 C554.5,371.3594 536.5,371.3594 536.5,371.3594 C536.5,371.3594 518.5,371.3594 518.5,361.3594 L518.5,335.3594 " fill="#E2E2F0" style="stroke:#181818;stroke-width:1.5;"/><path d="M518.5,335.3594 C518.5,345.3594 536.5,345.3594 536.5,345.3594 C536.5,345.3594 554.5,345.3594 554.5,335.3594 " fill="none" style="stroke:#181818;stroke-width:1.5;"/><rect fill="#EEEEEE" height="3" style="stroke:#EEEEEE;stroke-width:1.0;" width="614" x="0" y="117.9961"/><line style="stroke:#000000;stroke-width:1.0;" x1="0" x2="614" y1="117.9961" y2="117.9961"/><line style="stroke:#000000;stroke-width:1.0;" x1="0" x2="614" y1="120.9961" y2="120.9961"/><rect fill="#EEEEEE" height="23.1328" style="stroke:#000000;stroke-width:2.0;" width="171" x="221.5" y="107.4297"/><text fill="#000000" font-family="sans-serif" font-size="13" font-weight="bold" lengthAdjust="spacing" textLength="157" x="227.5" y="123.4966">&#1048;&#1079;&#1084;&#1077;&#1085;&#1077;&#1085;&#1080;&#1077; &#1087;&#1088;&#1086;&#1092;&#1080;&#1083;&#1103;</text><polygon fill="#181818" points="281,157.6953,291,161.6953,281,165.6953,285,161.6953" style="stroke:#181818;stroke-width:1.0;"/><line style="stroke:#181818;stroke-width:1.0;" x1="60" x2="287" y1="161.6953" y2="161.6953"/><text fill="#000000" font-family="sans-serif" font-size="13" lengthAdjust="spacing" textLength="185" x="67" y="156.6294">&#1079;&#1072;&#1087;&#1088;&#1086;&#1089; &#1080;&#1079;&#1084;&#1077;&#1085;&#1077;&#1085;&#1080;&#1103; &#1087;&#1088;&#1086;&#1092;&#1080;&#1083;&#1103;</text><polygon fill="#181818" points="361,171.6953,371,175.6953,361,179.6953,365,175.6953" style="stroke:#181818;stroke-width:1.0;"/><line style="stroke:#181818;stroke-width:1.0;" x1="293" x2="367" y1="175.6953" y2="175.6953"/><rect fill="none" height="39.1016" style="stroke:#000000;stroke-width:1.5;" width="610" x="2" y="183.6953"/><path d="M2,183.6953 L68,183.6953 L68,190.6953 L58,200.6953 L2,200.6953 L2,183.6953 " fill="#EEEEEE" style="stroke:#000000;stroke-width:2.0;"/><text fill="#000000" font-family="sans-serif" font-size="13" font-weight="bold" lengthAdjust="spacing" textLength="21" x="15" y="197.7622">ref</text><text fill="#000000" font-family="sans-serif" font-size="12" lengthAdjust="spacing" textLength="592" x="11" y="215.834">&#1089;&#1094;&#1077;&#1085;&#1072;&#1088;&#1080;&#1081; &#1072;&#1074;&#1090;&#1086;&#1088;&#1080;&#1079;&#1072;&#1094;&#1080;&#1080;, &#1085;&#1091;&#1078;&#1085;&#1099; &#1087;&#1088;&#1072;&#1074;&#1072; &#1088;&#1077;&#1076;&#1072;&#1082;&#1090;&#1080;&#1088;&#1086;&#1074;&#1072;&#1085;&#1080;&#1103; &#1085;&#1077;&#1082;&#1086;&#1090;&#1086;&#1088;&#1099;&#1093; &#1087;&#1086;&#1083;&#1077;&#1081; &#1089;&#1074;&#1086;&#1077;&#1075;&#1086; &#1087;&#1088;&#1086;&#1092;&#1080;&#1083;&#1103;</text><polygon fill="#181818" points="384,244.9297,374,248.9297,384,252.9297,380,248.9297" style="stroke:#181818;stroke-width:1.0;"/><polygon fill="#181818" points="524.5,244.9297,534.5,248.9297,524.5,252.9297,528.5,248.9297" style="stroke:#181818;stroke-width:1.0;"/><line style="stroke:#181818;stroke-width:1.0;" x1="378" x2="530.5" y1="248.9297" y2="248.9297"/><text fill="#000000" font-family="sans-serif" font-size="13" lengthAdjust="spacing" textLength="135" x="390" y="243.8638">&#1080;&#1079;&#1084;&#1077;&#1085;&#1077;&#1085;&#1080;&#1077; &#1087;&#1088;&#1086;&#1092;&#1080;&#1083;&#1103;</text><polygon fill="#181818" points="304,258.9297,294,262.9297,304,266.9297,300,262.9297" style="stroke:#181818;stroke-width:1.0;"/><line style="stroke:#181818;stroke-width:1.0;" x1="298" x2="372" y1="262.9297" y2="262.9297"/><polygon fill="#181818" points="71,288.0625,61,292.0625,71,296.0625,67,292.0625" style="stroke:#181818;stroke-width:1.0;"/><line style="stroke:#181818;stroke-width:1.0;" x1="65" x2="292" y1="292.0625" y2="292.0625"/><text fill="#000000" font-family="sans-serif" font-size="13" lengthAdjust="spacing" textLength="209" x="77" y="286.9966">&#1087;&#1088;&#1080;&#1079;&#1085;&#1072;&#1082; &#1091;&#1089;&#1087;&#1077;&#1096;&#1085;&#1086;&#1089;&#1090;&#1080; &#1086;&#1087;&#1077;&#1088;&#1072;&#1094;&#1080;&#1080;</text><!--SRC=[RP7DJi9058NtynGtk2qlG2o9niIuynK660qRIjeAkWDHOu89CN7XpaUmGQhbhxp2dJVotA4b0LrCv- -SSxyxrSqu2Ad27vppqhxm3-Of9_QUKzbNI4Tq4vbGDO9RWcefT_Q1SplW5ITq57M2lkhgC6utsrtTYQboSdb1vphkwpldljQnmNfVmvyyGqBk5CqWDAgbOztGaS7TAxyHR_u3mfZlaCvEbUcq261A-Jw_Gxg2OEr6nYaof0HWCoHDV5-9grelW6e4Gr9eXWJHdjzE3logy5NhZZSqLnJqJEXGlB9BppNZ5NmriaFxvF8IH6Ky9rISefVSRL4Vrnbd7l7QZlWRt_6sR29D4nOfpx1Pm9C9ZHoNU4AwG9IBisFxMBoQl18gGvfZ-SNvOIV2ICVL-WxpiFa_ZxUrm57-pMAc8gIsrKlCMd39ZW2muTG-um3lA_m47ZaQb6t_0W00]--></g></svg>