<?xml version="1.0" encoding="us-ascii" standalone="no"?><svg xmlns="http://www.w3.org/2000/svg" xmlns:xlink="http://www.w3.org/1999/xlink" contentStyleType="text/css" height="351px" preserveAspectRatio="none" style="width:782px;height:351px;background:#FFFFFF;" version="1.1" viewBox="0 0 782 351" width="782px" zoomAndPan="magnify"><defs/><g><rect fill="#FFFAFA" height="339.2578" style="stroke:#181818;stroke-width:0.5;" width="510" x="264.5" y="6"/><text fill="#000000" font-family="sans-serif" font-size="13" font-weight="bold" lengthAdjust="spacing" textLength="90" x="472" y="18.0669">&#1055;&#1083;&#1072;&#1090;&#1092;&#1086;&#1088;&#1084;&#1072;</text><line style="stroke:#181818;stroke-width:0.5;stroke-dasharray:5.0,5.0;" x1="60" x2="60" y1="87.4297" y2="265.9609"/><line style="stroke:#181818;stroke-width:0.5;stroke-dasharray:5.0,5.0;" x1="312.5" x2="312.5" y1="87.4297" y2="265.9609"/><line style="stroke:#181818;stroke-width:0.5;stroke-dasharray:5.0,5.0;" x1="392.5" x2="392.5" y1="87.4297" y2="265.9609"/><line style="stroke:#181818;stroke-width:0.5;stroke-dasharray:5.0,5.0;" x1="697.5" x2="697.5" y1="87.4297" y2="265.9609"/><text fill="#000000" font-family="sans-serif" font-size="14" lengthAdjust="spacing" textLength="104" x="5" y="84.1279">&#1055;&#1086;&#1083;&#1100;&#1079;&#1086;&#1074;&#1072;&#1090;&#1077;&#1083;&#1100;</text><ellipse cx="60" cy="19.6328" fill="#E2E2F0" rx="8" ry="8" style="stroke:#181818;stroke-width:0.5;"/><path d="M60,27.6328 L60,54.6328 M47,35.6328 L73,35.6328 M60,54.6328 L47,69.6328 M60,54.6328 L73,69.6328 " fill="none" style="stroke:#181818;stroke-width:0.5;"/><text fill="#000000" font-family="sans-serif" font-size="14" lengthAdjust="spacing" textLength="104" x="5" y="277.9561">&#1055;&#1086;&#1083;&#1100;&#1079;&#1086;&#1074;&#1072;&#1090;&#1077;&#1083;&#1100;</text><ellipse cx="60" cy="289.7578" fill="#E2E2F0" rx="8" ry="8" style="stroke:#181818;stroke-width:0.5;"/><path d="M60,297.7578 L60,324.7578 M47,305.7578 L73,305.7578 M60,324.7578 L47,339.7578 M60,324.7578 L73,339.7578 " fill="none" style="stroke:#181818;stroke-width:0.5;"/><rect fill="#E2E2F0" height="30.2969" rx="2.5" ry="2.5" style="stroke:#181818;stroke-width:0.5;" width="89" x="268.5" y="56.1328"/><text fill="#000000" font-family="sans-serif" font-size="14" lengthAdjust="spacing" textLength="75" x="275.5" y="76.1279">API Gatway</text><rect fill="#E2E2F0" height="30.2969" rx="2.5" ry="2.5" style="stroke:#181818;stroke-width:0.5;" width="89" x="268.5" y="264.9609"/><text fill="#000000" font-family="sans-serif" font-size="14" lengthAdjust="spacing" textLength="75" x="275.5" y="284.9561">API Gatway</text><rect fill="#E2E2F0" height="30.2969" rx="2.5" ry="2.5" style="stroke:#181818;stroke-width:0.5;" width="51" x="367.5" y="56.1328"/><text fill="#000000" font-family="sans-serif" font-size="14" lengthAdjust="spacing" textLength="37" x="374.5" y="76.1279">&#1071;&#1076;&#1088;&#1086;</text><rect fill="#E2E2F0" height="30.2969" rx="2.5" ry="2.5" style="stroke:#181818;stroke-width:0.5;" width="51" x="367.5" y="264.9609"/><text fill="#000000" font-family="sans-serif" font-size="14" lengthAdjust="spacing" textLength="37" x="374.5" y="284.9561">&#1071;&#1076;&#1088;&#1086;</text><text fill="#000000" font-family="sans-serif" font-size="14" lengthAdjust="spacing" textLength="139" x="625.5" y="84.1279">&#1041;&#1044; &#1087;&#1086;&#1083;&#1100;&#1079;&#1086;&#1074;&#1072;&#1090;&#1077;&#1083;&#1077;&#1081;</text><path d="M680,35.1328 C680,25.1328 698,25.1328 698,25.1328 C698,25.1328 716,25.1328 716,35.1328 L716,61.1328 C716,71.1328 698,71.1328 698,71.1328 C698,71.1328 680,71.1328 680,61.1328 L680,35.1328 " fill="#E2E2F0" style="stroke:#181818;stroke-width:1.5;"/><path d="M680,35.1328 C680,45.1328 698,45.1328 698,45.1328 C698,45.1328 716,45.1328 716,35.1328 " fill="none" style="stroke:#181818;stroke-width:1.5;"/><text fill="#000000" font-family="sans-serif" font-size="14" lengthAdjust="spacing" textLength="139" x="625.5" y="277.9561">&#1041;&#1044; &#1087;&#1086;&#1083;&#1100;&#1079;&#1086;&#1074;&#1072;&#1090;&#1077;&#1083;&#1077;&#1081;</text><path d="M680,291.2578 C680,281.2578 698,281.2578 698,281.2578 C698,281.2578 716,281.2578 716,291.2578 L716,317.2578 C716,327.2578 698,327.2578 698,327.2578 C698,327.2578 680,327.2578 680,317.2578 L680,291.2578 " fill="#E2E2F0" style="stroke:#181818;stroke-width:1.5;"/><path d="M680,291.2578 C680,301.2578 698,301.2578 698,301.2578 C698,301.2578 716,301.2578 716,291.2578 " fill="none" style="stroke:#181818;stroke-width:1.5;"/><rect fill="#EEEEEE" height="3" style="stroke:#EEEEEE;stroke-width:1.0;" width="775.5" x="0" y="117.9961"/><line style="stroke:#000000;stroke-width:1.0;" x1="0" x2="775.5" y1="117.9961" y2="117.9961"/><line style="stroke:#000000;stroke-width:1.0;" x1="0" x2="775.5" y1="120.9961" y2="120.9961"/><rect fill="#EEEEEE" height="23.1328" style="stroke:#000000;stroke-width:2.0;" width="64" x="355.75" y="107.4297"/><text fill="#000000" font-family="sans-serif" font-size="13" font-weight="bold" lengthAdjust="spacing" textLength="50" x="361.75" y="123.4966">&#1042;&#1099;&#1093;&#1086;&#1076;</text><polygon fill="#181818" points="301,157.6953,311,161.6953,301,165.6953,305,161.6953" style="stroke:#181818;stroke-width:1.0;"/><line style="stroke:#181818;stroke-width:1.0;" x1="60" x2="307" y1="161.6953" y2="161.6953"/><text fill="#000000" font-family="sans-serif" font-size="13" lengthAdjust="spacing" textLength="229" x="67" y="156.6294">&#1079;&#1072;&#1087;&#1088;&#1086;&#1089; &#1080;&#1079;&#1084;&#1077;&#1085;&#1077;&#1085;&#1080;&#1103; &#1087;&#1086;&#1083;&#1077;&#1081; &#1087;&#1088;&#1086;&#1092;&#1080;&#1083;&#1103;</text><polygon fill="#181818" points="381,171.6953,391,175.6953,381,179.6953,385,175.6953" style="stroke:#181818;stroke-width:1.0;"/><line style="stroke:#181818;stroke-width:1.0;" x1="313" x2="387" y1="175.6953" y2="175.6953"/><polygon fill="#181818" points="324,185.6953,314,189.6953,324,193.6953,320,189.6953" style="stroke:#181818;stroke-width:1.0;"/><line style="stroke:#181818;stroke-width:1.0;" x1="318" x2="392" y1="189.6953" y2="189.6953"/><polygon fill="#181818" points="71,214.8281,61,218.8281,71,222.8281,67,218.8281" style="stroke:#181818;stroke-width:1.0;"/><line style="stroke:#181818;stroke-width:1.0;" x1="65" x2="312" y1="218.8281" y2="218.8281"/><text fill="#000000" font-family="sans-serif" font-size="13" lengthAdjust="spacing" textLength="216" x="77" y="213.7622">&#1088;&#1077;&#1076;&#1080;&#1088;&#1077;&#1082;&#1090; &#1085;&#1072; &#1075;&#1083;&#1072;&#1074;&#1085;&#1091;&#1102; &#1089;&#1090;&#1088;&#1072;&#1085;&#1080;&#1094;&#1091;</text><polygon fill="#181818" points="404,243.9609,394,247.9609,404,251.9609,400,247.9609" style="stroke:#181818;stroke-width:1.0;"/><polygon fill="#181818" points="686,243.9609,696,247.9609,686,251.9609,690,247.9609" style="stroke:#181818;stroke-width:1.0;"/><line style="stroke:#181818;stroke-width:1.0;" x1="398" x2="692" y1="247.9609" y2="247.9609"/><text fill="#000000" font-family="sans-serif" font-size="13" lengthAdjust="spacing" textLength="281" x="410" y="242.895">&#1086;&#1090;&#1084;&#1077;&#1090;&#1082;&#1072; &#1089;&#1077;&#1089;&#1089;&#1080;&#1080; &#1082;&#1072;&#1082; &#1079;&#1072;&#1074;&#1077;&#1088;&#1096;&#1077;&#1085;&#1085;&#1086;&#1081; &#1074; &#1092;&#1086;&#1085;&#1077;</text><!--SRC=[RL71IiD04BtlLmpnt1yefc0fY3T_OPi6wIKfIQHwQzegWc9HlFi9XffYR9hq5sR-o3Tf50KFExkpy-RDUxlMIyA877xbcajvu0_iQyvapXlD7R8nNSP-P8RX5G5LQasMNCkCTvpHKHo4KpEnKJBsnXCR9EISd9_HgKsczhhflh29Z_DV3Bzn3eQwGNXXv9kHJUpGnZvgJ_n2lFzF4DRdZwH1t_Z1Y23C6DVbPxcN6u1prpLQxlJQoLq2ISPxdISfSO5q1wQgMOMisc5AJYri2LGfAzDIKATtKAb1aszJl-ewiqletd0ELjstCYUCo8ZVzU7WevA5F9AaUCCPBdJyhImEjCSjoQ0FnJKCGoJY5lsIufWY5boGtl3sO6gD-vdSDKugc821DUdtgBil]--></g></svg>