<?xml version="1.0" encoding="us-ascii" standalone="no"?><svg xmlns="http://www.w3.org/2000/svg" xmlns:xlink="http://www.w3.org/1999/xlink" contentStyleType="text/css" height="954px" preserveAspectRatio="none" style="width:983px;height:954px;background:#FFFFFF;" version="1.1" viewBox="0 0 983 954" width="983px" zoomAndPan="magnify"><defs/><g><rect fill="#FFFAFA" height="942.0625" style="stroke:#181818;stroke-width:0.5;" width="551" x="278.5" y="6"/><text fill="#000000" font-family="sans-serif" font-size="13" font-weight="bold" lengthAdjust="spacing" textLength="90" x="506.5" y="18.0669">&#1055;&#1083;&#1072;&#1090;&#1092;&#1086;&#1088;&#1084;&#1072;</text><rect fill="none" height="118.5313" style="stroke:#000000;stroke-width:1.5;" width="936.5" x="20" y="219.8281"/><rect fill="#FFE4E1" height="412.0078" style="stroke:#000000;stroke-width:1.5;" width="956.5" x="10" y="352.3594"/><rect fill="#F0FFF0" height="43.9375" style="stroke:none;stroke-width:1.0;" width="956.5" x="10" y="441.7578"/><rect fill="#FFFAFA" height="278.6719" style="stroke:none;stroke-width:1.0;" width="956.5" x="10" y="485.6953"/><rect fill="#F0FFF0" height="220.7344" style="stroke:#000000;stroke-width:1.5;" width="936.5" x="20" y="536.6328"/><rect fill="#FFE4E1" height="116.2031" style="stroke:none;stroke-width:1.0;" width="936.5" x="20" y="641.1641"/><line style="stroke:#181818;stroke-width:0.5;stroke-dasharray:5.0,5.0;" x1="85" x2="85" y1="87.4297" y2="868.7656"/><line style="stroke:#181818;stroke-width:0.5;stroke-dasharray:5.0,5.0;" x1="326.5" x2="326.5" y1="87.4297" y2="868.7656"/><line style="stroke:#181818;stroke-width:0.5;stroke-dasharray:5.0,5.0;" x1="406.5" x2="406.5" y1="87.4297" y2="868.7656"/><line style="stroke:#181818;stroke-width:0.5;stroke-dasharray:5.0,5.0;" x1="752.5" x2="752.5" y1="87.4297" y2="868.7656"/><line style="stroke:#181818;stroke-width:0.5;stroke-dasharray:5.0,5.0;" x1="890.5" x2="890.5" y1="87.4297" y2="868.7656"/><text fill="#000000" font-family="sans-serif" font-size="14" lengthAdjust="spacing" textLength="104" x="30" y="84.1279">&#1055;&#1086;&#1083;&#1100;&#1079;&#1086;&#1074;&#1072;&#1090;&#1077;&#1083;&#1100;</text><ellipse cx="85" cy="19.6328" fill="#E2E2F0" rx="8" ry="8" style="stroke:#181818;stroke-width:0.5;"/><path d="M85,27.6328 L85,54.6328 M72,35.6328 L98,35.6328 M85,54.6328 L72,69.6328 M85,54.6328 L98,69.6328 " fill="none" style="stroke:#181818;stroke-width:0.5;"/><text fill="#000000" font-family="sans-serif" font-size="14" lengthAdjust="spacing" textLength="104" x="30" y="880.7607">&#1055;&#1086;&#1083;&#1100;&#1079;&#1086;&#1074;&#1072;&#1090;&#1077;&#1083;&#1100;</text><ellipse cx="85" cy="892.5625" fill="#E2E2F0" rx="8" ry="8" style="stroke:#181818;stroke-width:0.5;"/><path d="M85,900.5625 L85,927.5625 M72,908.5625 L98,908.5625 M85,927.5625 L72,942.5625 M85,927.5625 L98,942.5625 " fill="none" style="stroke:#181818;stroke-width:0.5;"/><rect fill="#E2E2F0" height="30.2969" rx="2.5" ry="2.5" style="stroke:#181818;stroke-width:0.5;" width="89" x="282.5" y="56.1328"/><text fill="#000000" font-family="sans-serif" font-size="14" lengthAdjust="spacing" textLength="75" x="289.5" y="76.1279">API Gatway</text><rect fill="#E2E2F0" height="30.2969" rx="2.5" ry="2.5" style="stroke:#181818;stroke-width:0.5;" width="89" x="282.5" y="867.7656"/><text fill="#000000" font-family="sans-serif" font-size="14" lengthAdjust="spacing" textLength="75" x="289.5" y="887.7607">API Gatway</text><rect fill="#E2E2F0" height="30.2969" rx="2.5" ry="2.5" style="stroke:#181818;stroke-width:0.5;" width="51" x="381.5" y="56.1328"/><text fill="#000000" font-family="sans-serif" font-size="14" lengthAdjust="spacing" textLength="37" x="388.5" y="76.1279">&#1071;&#1076;&#1088;&#1086;</text><rect fill="#E2E2F0" height="30.2969" rx="2.5" ry="2.5" style="stroke:#181818;stroke-width:0.5;" width="51" x="381.5" y="867.7656"/><text fill="#000000" font-family="sans-serif" font-size="14" lengthAdjust="spacing" textLength="37" x="388.5" y="887.7607">&#1071;&#1076;&#1088;&#1086;</text><text fill="#000000" font-family="sans-serif" font-size="14" lengthAdjust="spacing" textLength="139" x="680.5" y="84.1279">&#1041;&#1044; &#1087;&#1086;&#1083;&#1100;&#1079;&#1086;&#1074;&#1072;&#1090;&#1077;&#1083;&#1077;&#1081;</text><path d="M735,35.1328 C735,25.1328 753,25.1328 753,25.1328 C753,25.1328 771,25.1328 771,35.1328 L771,61.1328 C771,71.1328 753,71.1328 753,71.1328 C753,71.1328 735,71.1328 735,61.1328 L735,35.1328 " fill="#E2E2F0" style="stroke:#181818;stroke-width:1.5;"/><path d="M735,35.1328 C735,45.1328 753,45.1328 753,45.1328 C753,45.1328 771,45.1328 771,35.1328 " fill="none" style="stroke:#181818;stroke-width:1.5;"/><text fill="#000000" font-family="sans-serif" font-size="14" lengthAdjust="spacing" textLength="139" x="680.5" y="880.7607">&#1041;&#1044; &#1087;&#1086;&#1083;&#1100;&#1079;&#1086;&#1074;&#1072;&#1090;&#1077;&#1083;&#1077;&#1081;</text><path d="M735,894.0625 C735,884.0625 753,884.0625 753,884.0625 C753,884.0625 771,884.0625 771,894.0625 L771,920.0625 C771,930.0625 753,930.0625 753,930.0625 C753,930.0625 735,930.0625 735,920.0625 L735,894.0625 " fill="#E2E2F0" style="stroke:#181818;stroke-width:1.5;"/><path d="M735,894.0625 C735,904.0625 753,904.0625 753,904.0625 C753,904.0625 771,904.0625 771,894.0625 " fill="none" style="stroke:#181818;stroke-width:1.5;"/><text fill="#000000" font-family="sans-serif" font-size="14" lengthAdjust="spacing" textLength="105" x="835.5" y="84.1279">oAuth2 &#1089;&#1077;&#1088;&#1074;&#1080;&#1089;</text><path d="M870.5,43.1328 L870.5,67.1328 M870.5,55.1328 L887.5,55.1328 " fill="none" style="stroke:#181818;stroke-width:0.5;"/><ellipse cx="899.5" cy="55.1328" fill="#E2E2F0" rx="12" ry="12" style="stroke:#181818;stroke-width:0.5;"/><text fill="#000000" font-family="sans-serif" font-size="14" lengthAdjust="spacing" textLength="105" x="835.5" y="880.7607">oAuth2 &#1089;&#1077;&#1088;&#1074;&#1080;&#1089;</text><path d="M870.5,888.0625 L870.5,912.0625 M870.5,900.0625 L887.5,900.0625 " fill="none" style="stroke:#181818;stroke-width:0.5;"/><ellipse cx="899.5" cy="900.0625" fill="#E2E2F0" rx="12" ry="12" style="stroke:#181818;stroke-width:0.5;"/><rect fill="#EEEEEE" height="3" style="stroke:#EEEEEE;stroke-width:1.0;" width="976.5" x="0" y="117.9961"/><line style="stroke:#000000;stroke-width:1.0;" x1="0" x2="976.5" y1="117.9961" y2="117.9961"/><line style="stroke:#000000;stroke-width:1.0;" x1="0" x2="976.5" y1="120.9961" y2="120.9961"/><rect fill="#EEEEEE" height="23.1328" style="stroke:#000000;stroke-width:2.0;" width="147" x="414.75" y="107.4297"/><text fill="#000000" font-family="sans-serif" font-size="13" font-weight="bold" lengthAdjust="spacing" textLength="128" x="420.75" y="123.4966">&#1040;&#1091;&#1090;&#1077;&#1085;&#1090;&#1080;&#1092;&#1080;&#1082;&#1072;&#1094;&#1080;&#1103;</text><ellipse cx="84.5" cy="160.9453" fill="none" rx="4" ry="4" style="stroke:#181818;stroke-width:1.5;"/><polygon fill="#181818" points="315,157.6953,325,161.6953,315,165.6953,319,161.6953" style="stroke:#181818;stroke-width:1.0;"/><line style="stroke:#181818;stroke-width:1.0;" x1="89" x2="321" y1="161.6953" y2="161.6953"/><text fill="#000000" font-family="sans-serif" font-size="13" lengthAdjust="spacing" textLength="167" x="92" y="156.6294">&#1079;&#1072;&#1087;&#1088;&#1086;&#1089; &#1072;&#1091;&#1090;&#1077;&#1085;&#1090;&#1080;&#1092;&#1080;&#1082;&#1072;&#1094;&#1080;&#1080;</text><polygon fill="#181818" points="395,171.6953,405,175.6953,395,179.6953,399,175.6953" style="stroke:#181818;stroke-width:1.0;"/><line style="stroke:#181818;stroke-width:1.0;" x1="327" x2="401" y1="175.6953" y2="175.6953"/><polygon fill="#181818" points="879,200.8281,889,204.8281,879,208.8281,883,204.8281" style="stroke:#181818;stroke-width:1.0;"/><line style="stroke:#181818;stroke-width:1.0;" x1="407" x2="885" y1="204.8281" y2="204.8281"/><text fill="#000000" font-family="sans-serif" font-size="13" lengthAdjust="spacing" textLength="264" x="414" y="199.7622">&#1079;&#1072;&#1087;&#1088;&#1086;&#1089; &#1072;&#1091;&#1090;&#1077;&#1085;&#1090;&#1080;&#1092;&#1080;&#1082;&#1072;&#1094;&#1080;&#1080; &#1091; &#1087;&#1088;&#1086;&#1074;&#1072;&#1081;&#1076;&#1077;&#1088;&#1072;</text><path d="M20,219.8281 L84,219.8281 L84,226.9609 L74,236.9609 L20,236.9609 L20,219.8281 " fill="#EEEEEE" style="stroke:#000000;stroke-width:1.5;"/><rect fill="none" height="118.5313" style="stroke:#000000;stroke-width:1.5;" width="936.5" x="20" y="219.8281"/><text fill="#000000" font-family="sans-serif" font-size="13" font-weight="bold" lengthAdjust="spacing" textLength="19" x="35" y="232.895">alt</text><text fill="#000000" font-family="sans-serif" font-size="11" font-weight="bold" lengthAdjust="spacing" textLength="343" x="99" y="232.0386">[&#1087;&#1086;&#1083;&#1100;&#1079;&#1086;&#1074;&#1072;&#1090;&#1077;&#1083;&#1100; &#1085;&#1077; &#1072;&#1091;&#1090;&#1077;&#1085;&#1090;&#1080;&#1092;&#1080;&#1094;&#1080;&#1088;&#1086;&#1074;&#1072;&#1085; &#1074; &#1087;&#1088;&#1086;&#1074;&#1072;&#1081;&#1076;&#1077;&#1088;&#1077;]</text><polygon fill="#181818" points="418,254.0938,408,258.0938,418,262.0938,414,258.0938" style="stroke:#181818;stroke-width:1.0;"/><line style="stroke:#181818;stroke-width:1.0;" x1="412" x2="890" y1="258.0938" y2="258.0938"/><text fill="#000000" font-family="sans-serif" font-size="13" lengthAdjust="spacing" textLength="180" x="424" y="253.0278">&#1088;&#1077;&#1076;&#1080;&#1088;&#1077;&#1082;&#1090; &#1085;&#1072; &#1092;&#1086;&#1088;&#1084;&#1091; &#1074;&#1074;&#1086;&#1076;&#1072;</text><polygon fill="#181818" points="338,268.0938,328,272.0938,338,276.0938,334,272.0938" style="stroke:#181818;stroke-width:1.0;"/><line style="stroke:#181818;stroke-width:1.0;" x1="332" x2="406" y1="272.0938" y2="272.0938"/><polygon fill="#181818" points="96,297.2266,86,301.2266,96,305.2266,92,301.2266" style="stroke:#181818;stroke-width:1.0;"/><line style="stroke:#181818;stroke-width:1.0;" x1="90" x2="326" y1="301.2266" y2="301.2266"/><text fill="#000000" font-family="sans-serif" font-size="13" lengthAdjust="spacing" textLength="180" x="102" y="296.1606">&#1088;&#1077;&#1076;&#1080;&#1088;&#1077;&#1082;&#1090; &#1085;&#1072; &#1092;&#1086;&#1088;&#1084;&#1091; &#1074;&#1074;&#1086;&#1076;&#1072;</text><polygon fill="#181818" points="879,326.3594,889,330.3594,879,334.3594,883,330.3594" style="stroke:#181818;stroke-width:1.0;"/><line style="stroke:#181818;stroke-width:1.0;" x1="85" x2="885" y1="330.3594" y2="330.3594"/><text fill="#000000" font-family="sans-serif" font-size="13" lengthAdjust="spacing" textLength="507" x="92" y="325.2935">&#1082;&#1086;&#1088;&#1088;&#1077;&#1082;&#1090;&#1085;&#1099;&#1077; &#1091;&#1095;&#1077;&#1090;&#1085;&#1099;&#1077; &#1076;&#1072;&#1085;&#1085;&#1099;&#1077;, &#1087;&#1088;&#1080; &#1085;&#1077;&#1082;&#1086;&#1088;&#1088;&#1077;&#1082;&#1090;&#1085;&#1099;&#1093; &#1089;&#1074;&#1086;&#1103; &#1083;&#1086;&#1075;&#1080;&#1082;&#1072; &#1087;&#1088;&#1086;&#1074;&#1072;&#1081;&#1076;&#1077;&#1088;&#1072;</text><path d="M10,352.3594 L74,352.3594 L74,359.4922 L64,369.4922 L10,369.4922 L10,352.3594 " fill="#EEEEEE" style="stroke:#000000;stroke-width:1.5;"/><rect fill="none" height="412.0078" style="stroke:#000000;stroke-width:1.5;" width="956.5" x="10" y="352.3594"/><text fill="#000000" font-family="sans-serif" font-size="13" font-weight="bold" lengthAdjust="spacing" textLength="19" x="25" y="365.4263">alt</text><text fill="#000000" font-family="sans-serif" font-size="11" font-weight="bold" lengthAdjust="spacing" textLength="187" x="89" y="364.5698">[&#1085;&#1077;&#1080;&#1079;&#1074;&#1077;&#1089;&#1090;&#1085;&#1099;&#1081; &#1087;&#1086;&#1083;&#1100;&#1079;&#1086;&#1074;&#1072;&#1090;&#1077;&#1083;&#1100;]</text><polygon fill="#181818" points="418,386.625,408,390.625,418,394.625,414,390.625" style="stroke:#181818;stroke-width:1.0;"/><line style="stroke:#181818;stroke-width:1.0;" x1="412" x2="890" y1="390.625" y2="390.625"/><text fill="#000000" font-family="sans-serif" font-size="13" lengthAdjust="spacing" textLength="189" x="424" y="385.5591">&#1085;&#1077;&#1080;&#1079;&#1074;&#1077;&#1089;&#1090;&#1085;&#1099;&#1081; &#1087;&#1086;&#1083;&#1100;&#1079;&#1086;&#1074;&#1072;&#1090;&#1077;&#1083;&#1100;</text><polygon fill="#181818" points="338,400.625,328,404.625,338,408.625,334,404.625" style="stroke:#181818;stroke-width:1.0;"/><line style="stroke:#181818;stroke-width:1.0;" x1="332" x2="406" y1="404.625" y2="404.625"/><line style="stroke:#181818;stroke-width:2.0;" x1="92" x2="102" y1="428.7578" y2="438.7578"/><line style="stroke:#181818;stroke-width:2.0;" x1="92" x2="102" y1="438.7578" y2="428.7578"/><line style="stroke:#181818;stroke-width:1.0;" x1="97" x2="326" y1="433.7578" y2="433.7578"/><text fill="#000000" font-family="sans-serif" font-size="13" lengthAdjust="spacing" textLength="70" x="102" y="428.6919">401 &#1086;&#1090;&#1074;&#1077;&#1090;</text><line style="stroke:#000000;stroke-width:1.0;stroke-dasharray:2.0,2.0;" x1="10" x2="966.5" y1="442.7578" y2="442.7578"/><text fill="#000000" font-family="sans-serif" font-size="11" font-weight="bold" lengthAdjust="spacing" textLength="282" x="15" y="452.9683">[&#1087;&#1086;&#1083;&#1100;&#1079;&#1086;&#1074;&#1072;&#1090;&#1077;&#1083;&#1100; &#1080;&#1079;&#1074;&#1077;&#1089;&#1090;&#1077;&#1085;, &#1088;&#1072;&#1079;&#1088;&#1077;&#1096;&#1077;&#1085;&#1080;&#1103; &#1077;&#1089;&#1090;&#1100;]</text><polygon fill="#181818" points="418,473.6953,408,477.6953,418,481.6953,414,477.6953" style="stroke:#181818;stroke-width:1.0;"/><line style="stroke:#181818;stroke-width:1.0;" x1="412" x2="890" y1="477.6953" y2="477.6953"/><text fill="#000000" font-family="sans-serif" font-size="13" lengthAdjust="spacing" textLength="102" x="424" y="472.6294">&#1090;&#1086;&#1082;&#1077;&#1085; &#1076;&#1086;&#1089;&#1090;&#1091;&#1087;&#1072;</text><line style="stroke:#000000;stroke-width:1.0;stroke-dasharray:2.0,2.0;" x1="10" x2="966.5" y1="486.6953" y2="486.6953"/><text fill="#000000" font-family="sans-serif" font-size="11" font-weight="bold" lengthAdjust="spacing" textLength="297" x="15" y="496.9058">[&#1087;&#1086;&#1083;&#1100;&#1079;&#1086;&#1074;&#1072;&#1090;&#1077;&#1083;&#1100; &#1080;&#1079;&#1074;&#1077;&#1089;&#1090;&#1077;&#1085;, &#1085;&#1086; &#1088;&#1072;&#1079;&#1088;&#1077;&#1096;&#1077;&#1085;&#1080;&#1081; &#1085;&#1077;&#1090;]</text><polygon fill="#181818" points="96,517.6328,86,521.6328,96,525.6328,92,521.6328" style="stroke:#181818;stroke-width:1.0;"/><line style="stroke:#181818;stroke-width:1.0;" x1="90" x2="890" y1="521.6328" y2="521.6328"/><text fill="#000000" font-family="sans-serif" font-size="13" lengthAdjust="spacing" textLength="132" x="102" y="516.5669">&#1079;&#1072;&#1087;&#1088;&#1086;&#1089; &#1088;&#1072;&#1079;&#1088;&#1077;&#1096;&#1077;&#1085;&#1080;&#1081;</text><path d="M20,536.6328 L84,536.6328 L84,543.7656 L74,553.7656 L20,553.7656 L20,536.6328 " fill="#EEEEEE" style="stroke:#000000;stroke-width:1.5;"/><rect fill="none" height="220.7344" style="stroke:#000000;stroke-width:1.5;" width="936.5" x="20" y="536.6328"/><text fill="#000000" font-family="sans-serif" font-size="13" font-weight="bold" lengthAdjust="spacing" textLength="19" x="35" y="549.6997">alt</text><text fill="#000000" font-family="sans-serif" font-size="11" font-weight="bold" lengthAdjust="spacing" textLength="82" x="99" y="548.8433">[&#1088;&#1072;&#1079;&#1088;&#1077;&#1096;&#1072;&#1077;&#1090;]</text><polygon fill="#181818" points="879,570.8984,889,574.8984,879,578.8984,883,574.8984" style="stroke:#181818;stroke-width:1.0;"/><line style="stroke:#181818;stroke-width:1.0;" x1="85" x2="885" y1="574.8984" y2="574.8984"/><text fill="#000000" font-family="sans-serif" font-size="13" lengthAdjust="spacing" textLength="193" x="92" y="569.8325">&#1087;&#1088;&#1077;&#1076;&#1086;&#1089;&#1090;&#1072;&#1074;&#1083;&#1103;&#1077;&#1090; &#1088;&#1072;&#1079;&#1088;&#1077;&#1096;&#1077;&#1085;&#1080;&#1103;</text><polygon fill="#181818" points="418,600.0313,408,604.0313,418,608.0313,414,604.0313" style="stroke:#181818;stroke-width:1.0;"/><line style="stroke:#181818;stroke-width:1.0;" x1="412" x2="890" y1="604.0313" y2="604.0313"/><text fill="#000000" font-family="sans-serif" font-size="13" lengthAdjust="spacing" textLength="102" x="424" y="598.9653">&#1090;&#1086;&#1082;&#1077;&#1085; &#1076;&#1086;&#1089;&#1090;&#1091;&#1087;&#1072;</text><polygon fill="#181818" points="418,629.1641,408,633.1641,418,637.1641,414,633.1641" style="stroke:#181818;stroke-width:1.0;"/><polygon fill="#181818" points="741,629.1641,751,633.1641,741,637.1641,745,633.1641" style="stroke:#181818;stroke-width:1.0;"/><line style="stroke:#181818;stroke-width:1.0;" x1="412" x2="747" y1="633.1641" y2="633.1641"/><text fill="#000000" font-family="sans-serif" font-size="13" lengthAdjust="spacing" textLength="322" x="424" y="628.0981">&#1089;&#1086;&#1079;&#1076;&#1072;&#1085;&#1080;&#1077; &#1087;&#1088;&#1086;&#1092;&#1080;&#1083;&#1103; &#1087;&#1086;&#1083;&#1100;&#1079;&#1086;&#1074;&#1072;&#1090;&#1077;&#1083;&#1103;, &#1077;&#1089;&#1083;&#1080; &#1077;&#1075;&#1086; &#1085;&#1077;&#1090;</text><line style="stroke:#000000;stroke-width:1.0;stroke-dasharray:2.0,2.0;" x1="20" x2="956.5" y1="642.1641" y2="642.1641"/><text fill="#000000" font-family="sans-serif" font-size="11" font-weight="bold" lengthAdjust="spacing" textLength="82" x="25" y="652.3745">[&#1079;&#1072;&#1087;&#1088;&#1077;&#1097;&#1072;&#1077;&#1090;]</text><polygon fill="#181818" points="879,673.1016,889,677.1016,879,681.1016,883,677.1016" style="stroke:#181818;stroke-width:1.0;"/><line style="stroke:#181818;stroke-width:1.0;" x1="85" x2="885" y1="677.1016" y2="677.1016"/><text fill="#000000" font-family="sans-serif" font-size="13" lengthAdjust="spacing" textLength="160" x="92" y="672.0356">&#1086;&#1090;&#1082;&#1083;&#1086;&#1085;&#1103;&#1077;&#1090; &#1088;&#1072;&#1079;&#1088;&#1077;&#1096;&#1077;&#1085;&#1080;&#1103;</text><polygon fill="#181818" points="418,702.2344,408,706.2344,418,710.2344,414,706.2344" style="stroke:#181818;stroke-width:1.0;"/><line style="stroke:#181818;stroke-width:1.0;" x1="412" x2="890" y1="706.2344" y2="706.2344"/><text fill="#000000" font-family="sans-serif" font-size="13" lengthAdjust="spacing" textLength="147" x="424" y="701.1685">&#1089;&#1086;&#1086;&#1073;&#1097;&#1077;&#1085;&#1080;&#1077; &#1086;&#1073; &#1086;&#1090;&#1082;&#1072;&#1079;&#1077;</text><polygon fill="#181818" points="338,716.2344,328,720.2344,338,724.2344,334,720.2344" style="stroke:#181818;stroke-width:1.0;"/><line style="stroke:#181818;stroke-width:1.0;" x1="332" x2="406" y1="720.2344" y2="720.2344"/><line style="stroke:#181818;stroke-width:2.0;" x1="92" x2="102" y1="744.3672" y2="754.3672"/><line style="stroke:#181818;stroke-width:2.0;" x1="92" x2="102" y1="754.3672" y2="744.3672"/><line style="stroke:#181818;stroke-width:1.0;" x1="97" x2="326" y1="749.3672" y2="749.3672"/><text fill="#000000" font-family="sans-serif" font-size="13" lengthAdjust="spacing" textLength="70" x="102" y="744.3013">401 &#1086;&#1090;&#1074;&#1077;&#1090;</text><polygon fill="#181818" points="418,788.5,408,792.5,418,796.5,414,792.5" style="stroke:#181818;stroke-width:1.0;"/><polygon fill="#181818" points="741,788.5,751,792.5,741,796.5,745,792.5" style="stroke:#181818;stroke-width:1.0;"/><line style="stroke:#181818;stroke-width:1.0;" x1="412" x2="747" y1="792.5" y2="792.5"/><text fill="#000000" font-family="sans-serif" font-size="13" lengthAdjust="spacing" textLength="264" x="424" y="787.4341">&#1089;&#1086;&#1079;&#1076;&#1072;&#1085;&#1080;&#1077;/&#1086;&#1073;&#1085;&#1086;&#1074;&#1083;&#1077;&#1085;&#1080;&#1077; &#1076;&#1072;&#1085;&#1085;&#1099;&#1093; &#1074; &#1089;&#1077;&#1089;&#1089;&#1080;&#1080;</text><polygon fill="#181818" points="338,802.5,328,806.5,338,810.5,334,806.5" style="stroke:#181818;stroke-width:1.0;"/><line style="stroke:#181818;stroke-width:1.0;" x1="332" x2="406" y1="806.5" y2="806.5"/><ellipse cx="84.5" cy="850.0156" fill="none" rx="4" ry="4" style="stroke:#181818;stroke-width:1.5;"/><polygon fill="#181818" points="101.5,846.7656,91.5,850.7656,101.5,854.7656,97.5,850.7656" style="stroke:#181818;stroke-width:1.0;"/><line style="stroke:#181818;stroke-width:1.0;" x1="99.5" x2="326" y1="850.7656" y2="850.7656"/><text fill="#000000" font-family="sans-serif" font-size="13" lengthAdjust="spacing" textLength="98" x="102" y="830.5669">&#1074;&#1093;&#1086;&#1076; &#1091;&#1089;&#1087;&#1077;&#1096;&#1077;&#1085;,</text><text fill="#000000" font-family="sans-serif" font-size="13" lengthAdjust="spacing" textLength="218" x="102" y="845.6997">&#1088;&#1077;&#1076;&#1080;&#1088;&#1077;&#1082;&#1090; &#1085;&#1072; &#1094;&#1077;&#1083;&#1077;&#1074;&#1091;&#1102; &#1089;&#1090;&#1088;&#1072;&#1085;&#1080;&#1094;&#1091;</text><!--SRC=[dLLDRzD04BtlhnWbro0-nAaYIAqg0GSa15SksyQ2I5LS9QxQt9g45X0L1OaxFm5ZQjLDYVCNPlyHRyRUDA5Elrh5oTepi- -zUJkscr7OfHh_v9pFtH6VuZlXs0qvbNMDR8zsUa7NR8HxXAXpUUO-SExs-I_7L7_J2NVDjkr6xStsjkr4L5jzzOAUsMZNzZNxdOq2_5wCuLzyWWgvHco6tS2qR6GtR2_0i-_yWtXQ1GYVincazJKJT5e4O02tqsdPRfzguUfEzFuHkG6dg9zmvWQQ45gvRqopIVpDZRJS1DSCN38UOuD3_3wcPjD8RGhlFVN8LmWWOfuANZSWX2v9vyoKAOHiPIKNMHJRtw8IkH4LWSAUp_X42SN6RaLBn757n1DEAyegDrzgGfnKbKuDuQy0wl6la3n0GARVOpUKBMBo1X2G2VvpXCIQxmdxhikzEL54sziNrOxCgpYMI9yDdbz06wG_WeXVIZBAwg9HyCrKdyl9xa3yWWtHVtWivpz59weR0CyPxKBzPRiNzL-7yApMpT2E14634iFPqZvLAdsN6bUhlLVA_VZ1GmAveLOUcc0BYElFmqxGRmMxLvXf7WpSr92-nNmgqhbFSaTFJ140G9UiCqJ1iSH9CtAD6c6tk4GWa-CsksE_l0A2Q3HHOekg5jmN3bnLicPfEsUAB8J5izALJfoMNbPw24u0_bXIAiMQrRcvLZv3M_savBM-jYAMpS6ki7acZYzeoXWvbxvKAtlSq8x1vpWEAQoUpyjNT6REs5w-r7s-JWfns5ZFp-HE4WYVd7zZezGpmjBNHQ5oH2qp_etChoHnWkLphQJt1O3OJjfwWMesMJ0uC4lrNJF0LLu0_mEx01HwHoRkG6QR3Am1cbHgqtZRMJ8M3yitNuA4hwJMs2yGkaCtCly0]--></g></svg>