<?xml version="1.0" encoding="us-ascii" standalone="no"?><svg xmlns="http://www.w3.org/2000/svg" xmlns:xlink="http://www.w3.org/1999/xlink" contentStyleType="text/css" height="597px" preserveAspectRatio="none" style="width:1095px;height:597px;background:#FFFFFF;" version="1.1" viewBox="0 0 1095 597" width="1095px" zoomAndPan="magnify"><defs/><g><rect fill="#FFFAFA" height="585.9922" style="stroke:#181818;stroke-width:0.5;" width="769" x="317.5" y="6"/><text fill="#000000" font-family="sans-serif" font-size="13" font-weight="bold" lengthAdjust="spacing" textLength="90" x="654.5" y="18.0669">&#1055;&#1083;&#1072;&#1090;&#1092;&#1086;&#1088;&#1084;&#1072;</text><rect fill="#F0FFF0" height="153.3359" style="stroke:#000000;stroke-width:1.5;" width="609" x="10" y="248.9609"/><rect fill="#FFE4E1" height="57.9375" style="stroke:none;stroke-width:1.0;" width="609" x="10" y="344.3594"/><line style="stroke:#181818;stroke-width:0.5;stroke-dasharray:5.0,5.0;" x1="75" x2="75" y1="87.4297" y2="512.6953"/><line style="stroke:#181818;stroke-width:0.5;stroke-dasharray:5.0,5.0;" x1="365.5" x2="365.5" y1="87.4297" y2="512.6953"/><line style="stroke:#181818;stroke-width:0.5;stroke-dasharray:5.0,5.0;" x1="445.5" x2="445.5" y1="87.4297" y2="512.6953"/><line style="stroke:#181818;stroke-width:0.5;stroke-dasharray:5.0,5.0;" x1="741.5" x2="741.5" y1="87.4297" y2="512.6953"/><line style="stroke:#181818;stroke-width:0.5;stroke-dasharray:5.0,5.0;" x1="900.5" x2="900.5" y1="87.4297" y2="512.6953"/><line style="stroke:#181818;stroke-width:0.5;stroke-dasharray:5.0,5.0;" x1="1034.5" x2="1034.5" y1="87.4297" y2="512.6953"/><text fill="#000000" font-family="sans-serif" font-size="14" lengthAdjust="spacing" textLength="104" x="20" y="84.1279">&#1055;&#1086;&#1083;&#1100;&#1079;&#1086;&#1074;&#1072;&#1090;&#1077;&#1083;&#1100;</text><ellipse cx="75" cy="19.6328" fill="#E2E2F0" rx="8" ry="8" style="stroke:#181818;stroke-width:0.5;"/><path d="M75,27.6328 L75,54.6328 M62,35.6328 L88,35.6328 M75,54.6328 L62,69.6328 M75,54.6328 L88,69.6328 " fill="none" style="stroke:#181818;stroke-width:0.5;"/><text fill="#000000" font-family="sans-serif" font-size="14" lengthAdjust="spacing" textLength="104" x="20" y="524.6904">&#1055;&#1086;&#1083;&#1100;&#1079;&#1086;&#1074;&#1072;&#1090;&#1077;&#1083;&#1100;</text><ellipse cx="75" cy="536.4922" fill="#E2E2F0" rx="8" ry="8" style="stroke:#181818;stroke-width:0.5;"/><path d="M75,544.4922 L75,571.4922 M62,552.4922 L88,552.4922 M75,571.4922 L62,586.4922 M75,571.4922 L88,586.4922 " fill="none" style="stroke:#181818;stroke-width:0.5;"/><rect fill="#E2E2F0" height="30.2969" rx="2.5" ry="2.5" style="stroke:#181818;stroke-width:0.5;" width="89" x="321.5" y="56.1328"/><text fill="#000000" font-family="sans-serif" font-size="14" lengthAdjust="spacing" textLength="75" x="328.5" y="76.1279">API Gatway</text><rect fill="#E2E2F0" height="30.2969" rx="2.5" ry="2.5" style="stroke:#181818;stroke-width:0.5;" width="89" x="321.5" y="511.6953"/><text fill="#000000" font-family="sans-serif" font-size="14" lengthAdjust="spacing" textLength="75" x="328.5" y="531.6904">API Gatway</text><rect fill="#E2E2F0" height="30.2969" rx="2.5" ry="2.5" style="stroke:#181818;stroke-width:0.5;" width="51" x="420.5" y="56.1328"/><text fill="#000000" font-family="sans-serif" font-size="14" lengthAdjust="spacing" textLength="37" x="427.5" y="76.1279">&#1071;&#1076;&#1088;&#1086;</text><rect fill="#E2E2F0" height="30.2969" rx="2.5" ry="2.5" style="stroke:#181818;stroke-width:0.5;" width="51" x="420.5" y="511.6953"/><text fill="#000000" font-family="sans-serif" font-size="14" lengthAdjust="spacing" textLength="37" x="427.5" y="531.6904">&#1071;&#1076;&#1088;&#1086;</text><text fill="#000000" font-family="sans-serif" font-size="14" lengthAdjust="spacing" textLength="139" x="669.5" y="84.1279">&#1041;&#1044; &#1087;&#1086;&#1083;&#1100;&#1079;&#1086;&#1074;&#1072;&#1090;&#1077;&#1083;&#1077;&#1081;</text><path d="M724,35.1328 C724,25.1328 742,25.1328 742,25.1328 C742,25.1328 760,25.1328 760,35.1328 L760,61.1328 C760,71.1328 742,71.1328 742,71.1328 C742,71.1328 724,71.1328 724,61.1328 L724,35.1328 " fill="#E2E2F0" style="stroke:#181818;stroke-width:1.5;"/><path d="M724,35.1328 C724,45.1328 742,45.1328 742,45.1328 C742,45.1328 760,45.1328 760,35.1328 " fill="none" style="stroke:#181818;stroke-width:1.5;"/><text fill="#000000" font-family="sans-serif" font-size="14" lengthAdjust="spacing" textLength="139" x="669.5" y="524.6904">&#1041;&#1044; &#1087;&#1086;&#1083;&#1100;&#1079;&#1086;&#1074;&#1072;&#1090;&#1077;&#1083;&#1077;&#1081;</text><path d="M724,537.9922 C724,527.9922 742,527.9922 742,527.9922 C742,527.9922 760,527.9922 760,537.9922 L760,563.9922 C760,573.9922 742,573.9922 742,573.9922 C742,573.9922 724,573.9922 724,563.9922 L724,537.9922 " fill="#E2E2F0" style="stroke:#181818;stroke-width:1.5;"/><path d="M724,537.9922 C724,547.9922 742,547.9922 742,547.9922 C742,547.9922 760,547.9922 760,537.9922 " fill="none" style="stroke:#181818;stroke-width:1.5;"/><path d="M829.5,61.1328 L971.5,61.1328 C976.5,61.1328 976.5,74.2813 976.5,74.2813 C976.5,74.2813 976.5,87.4297 971.5,87.4297 L829.5,87.4297 C824.5,87.4297 824.5,74.2813 824.5,74.2813 C824.5,74.2813 824.5,61.1328 829.5,61.1328 " fill="#E2E2F0" style="stroke:#181818;stroke-width:0.5;"/><path d="M971.5,61.1328 C966.5,61.1328 966.5,74.2813 966.5,74.2813 C966.5,87.4297 971.5,87.4297 971.5,87.4297 " fill="none" style="stroke:#181818;stroke-width:0.5;"/><text fill="#000000" font-family="sans-serif" font-size="14" lengthAdjust="spacing" textLength="132" x="829.5" y="79.1279">&#1054;&#1095;&#1077;&#1088;&#1077;&#1076;&#1100; &#1089;&#1086;&#1073;&#1099;&#1090;&#1080;&#1081;</text><path d="M829.5,511.6953 L971.5,511.6953 C976.5,511.6953 976.5,524.8438 976.5,524.8438 C976.5,524.8438 976.5,537.9922 971.5,537.9922 L829.5,537.9922 C824.5,537.9922 824.5,524.8438 824.5,524.8438 C824.5,524.8438 824.5,511.6953 829.5,511.6953 " fill="#E2E2F0" style="stroke:#181818;stroke-width:0.5;"/><path d="M971.5,511.6953 C966.5,511.6953 966.5,524.8438 966.5,524.8438 C966.5,537.9922 971.5,537.9922 971.5,537.9922 " fill="none" style="stroke:#181818;stroke-width:0.5;"/><text fill="#000000" font-family="sans-serif" font-size="14" lengthAdjust="spacing" textLength="132" x="829.5" y="529.6904">&#1054;&#1095;&#1077;&#1088;&#1077;&#1076;&#1100; &#1089;&#1086;&#1073;&#1099;&#1090;&#1080;&#1081;</text><text fill="#000000" font-family="sans-serif" font-size="14" lengthAdjust="spacing" textLength="90" x="986.5" y="84.1279">&#1041;&#1044; &#1089;&#1086;&#1073;&#1099;&#1090;&#1080;&#1081;</text><path d="M1016.5,35.1328 C1016.5,25.1328 1034.5,25.1328 1034.5,25.1328 C1034.5,25.1328 1052.5,25.1328 1052.5,35.1328 L1052.5,61.1328 C1052.5,71.1328 1034.5,71.1328 1034.5,71.1328 C1034.5,71.1328 1016.5,71.1328 1016.5,61.1328 L1016.5,35.1328 " fill="#E2E2F0" style="stroke:#181818;stroke-width:1.5;"/><path d="M1016.5,35.1328 C1016.5,45.1328 1034.5,45.1328 1034.5,45.1328 C1034.5,45.1328 1052.5,45.1328 1052.5,35.1328 " fill="none" style="stroke:#181818;stroke-width:1.5;"/><text fill="#000000" font-family="sans-serif" font-size="14" lengthAdjust="spacing" textLength="90" x="986.5" y="524.6904">&#1041;&#1044; &#1089;&#1086;&#1073;&#1099;&#1090;&#1080;&#1081;</text><path d="M1016.5,537.9922 C1016.5,527.9922 1034.5,527.9922 1034.5,527.9922 C1034.5,527.9922 1052.5,527.9922 1052.5,537.9922 L1052.5,563.9922 C1052.5,573.9922 1034.5,573.9922 1034.5,573.9922 C1034.5,573.9922 1016.5,573.9922 1016.5,563.9922 L1016.5,537.9922 " fill="#E2E2F0" style="stroke:#181818;stroke-width:1.5;"/><path d="M1016.5,537.9922 C1016.5,547.9922 1034.5,547.9922 1034.5,547.9922 C1034.5,547.9922 1052.5,547.9922 1052.5,537.9922 " fill="none" style="stroke:#181818;stroke-width:1.5;"/><rect fill="#EEEEEE" height="3" style="stroke:#EEEEEE;stroke-width:1.0;" width="1088.5" x="0" y="117.9961"/><line style="stroke:#000000;stroke-width:1.0;" x1="0" x2="1088.5" y1="117.9961" y2="117.9961"/><line style="stroke:#000000;stroke-width:1.0;" x1="0" x2="1088.5" y1="120.9961" y2="120.9961"/><rect fill="#EEEEEE" height="23.1328" style="stroke:#000000;stroke-width:2.0;" width="117" x="485.75" y="107.4297"/><text fill="#000000" font-family="sans-serif" font-size="13" font-weight="bold" lengthAdjust="spacing" textLength="98" x="491.75" y="123.4966">&#1040;&#1074;&#1090;&#1086;&#1088;&#1080;&#1079;&#1072;&#1094;&#1080;&#1103;</text><ellipse cx="74.5" cy="160.9453" fill="none" rx="4" ry="4" style="stroke:#181818;stroke-width:1.5;"/><polygon fill="#181818" points="354,157.6953,364,161.6953,354,165.6953,358,161.6953" style="stroke:#181818;stroke-width:1.0;"/><line style="stroke:#181818;stroke-width:1.0;" x1="79" x2="360" y1="161.6953" y2="161.6953"/><text fill="#000000" font-family="sans-serif" font-size="13" lengthAdjust="spacing" textLength="209" x="82" y="156.6294">&#1085;&#1077;&#1082;&#1080;&#1081; &#1079;&#1072;&#1087;&#1088;&#1086;&#1089; &#1090;&#1088;&#1077;&#1073;&#1091;&#1102;&#1097;&#1080;&#1081; &#1087;&#1088;&#1072;&#1074;</text><polygon fill="#181818" points="434,171.6953,444,175.6953,434,179.6953,438,175.6953" style="stroke:#181818;stroke-width:1.0;"/><line style="stroke:#181818;stroke-width:1.0;" x1="366" x2="440" y1="175.6953" y2="175.6953"/><polygon fill="#181818" points="457,200.8281,447,204.8281,457,208.8281,453,204.8281" style="stroke:#181818;stroke-width:1.0;"/><polygon fill="#181818" points="730,200.8281,740,204.8281,730,208.8281,734,204.8281" style="stroke:#181818;stroke-width:1.0;"/><line style="stroke:#181818;stroke-width:1.0;" x1="451" x2="736" y1="204.8281" y2="204.8281"/><text fill="#000000" font-family="sans-serif" font-size="13" lengthAdjust="spacing" textLength="272" x="463" y="199.7622">&#1087;&#1086;&#1083;&#1091;&#1095;&#1077;&#1085;&#1080;&#1077; &#1089;&#1077;&#1089;&#1089;&#1080;&#1080;, &#1087;&#1086;&#1083;&#1100;&#1079;&#1086;&#1074;&#1072;&#1090;&#1077;&#1083;&#1103; &#1080; &#1087;&#1088;&#1072;&#1074;</text><polygon fill="#181818" points="888.5,229.9609,898.5,233.9609,888.5,237.9609,892.5,233.9609" style="stroke:#181818;stroke-width:1.0;"/><line style="stroke:#181818;stroke-width:1.0;" x1="446" x2="894.5" y1="233.9609" y2="233.9609"/><text fill="#000000" font-family="sans-serif" font-size="13" lengthAdjust="spacing" textLength="228" x="453" y="228.895">&#1089;&#1086;&#1073;&#1099;&#1090;&#1080;&#1077; &#1074; &#1086;&#1095;&#1077;&#1088;&#1077;&#1076;&#1100; &#1085;&#1072; &#1086;&#1073;&#1088;&#1072;&#1073;&#1086;&#1090;&#1082;&#1091;</text><path d="M10,248.9609 L74,248.9609 L74,256.0938 L64,266.0938 L10,266.0938 L10,248.9609 " fill="#EEEEEE" style="stroke:#000000;stroke-width:1.5;"/><rect fill="none" height="153.3359" style="stroke:#000000;stroke-width:1.5;" width="609" x="10" y="248.9609"/><text fill="#000000" font-family="sans-serif" font-size="13" font-weight="bold" lengthAdjust="spacing" textLength="19" x="25" y="262.0278">alt</text><text fill="#000000" font-family="sans-serif" font-size="11" font-weight="bold" lengthAdjust="spacing" textLength="81" x="89" y="261.1714">[&#1077;&#1089;&#1090;&#1100; &#1087;&#1088;&#1072;&#1074;&#1072;]</text><path d="M282,271.0938 L282,296.0938 L609,296.0938 L609,281.0938 L599,271.0938 L282,271.0938 " fill="#FEFFDD" style="stroke:#181818;stroke-width:0.5;"/><path d="M599,271.0938 L599,281.0938 L609,281.0938 L599,271.0938 " fill="#FEFFDD" style="stroke:#181818;stroke-width:0.5;"/><text fill="#000000" font-family="sans-serif" font-size="13" lengthAdjust="spacing" textLength="306" x="288" y="288.1606">&#1079;&#1072;&#1074;&#1080;&#1089;&#1103;&#1097;&#1072;&#1103; &#1086;&#1090; &#1082;&#1086;&#1085;&#1082;&#1088;&#1077;&#1090;&#1085;&#1086;&#1075;&#1086; &#1089;&#1094;&#1077;&#1085;&#1072;&#1088;&#1080;&#1103; &#1083;&#1086;&#1075;&#1080;&#1082;&#1072;</text><polygon fill="#181818" points="377,303.2266,367,307.2266,377,311.2266,373,307.2266" style="stroke:#181818;stroke-width:1.0;"/><line style="stroke:#181818;stroke-width:1.0;" x1="371" x2="445" y1="307.2266" y2="307.2266"/><ellipse cx="74.5" cy="335.6094" fill="none" rx="4" ry="4" style="stroke:#181818;stroke-width:1.5;"/><polygon fill="#181818" points="91.5,332.3594,81.5,336.3594,91.5,340.3594,87.5,336.3594" style="stroke:#181818;stroke-width:1.0;"/><line style="stroke:#181818;stroke-width:1.0;" x1="89.5" x2="365" y1="336.3594" y2="336.3594"/><text fill="#000000" font-family="sans-serif" font-size="13" lengthAdjust="spacing" textLength="267" x="92" y="331.2935">&#1087;&#1088;&#1077;&#1076;&#1091;&#1089;&#1084;&#1086;&#1090;&#1088;&#1077;&#1085;&#1085;&#1099;&#1081; &#1083;&#1086;&#1075;&#1080;&#1082;&#1086;&#1081; &#1082;&#1086;&#1076; &#1086;&#1090;&#1074;&#1077;&#1090;&#1072;</text><line style="stroke:#000000;stroke-width:1.0;stroke-dasharray:2.0,2.0;" x1="10" x2="619" y1="345.3594" y2="345.3594"/><text fill="#000000" font-family="sans-serif" font-size="11" font-weight="bold" lengthAdjust="spacing" textLength="67" x="15" y="355.5698">[&#1085;&#1077;&#1090; &#1087;&#1088;&#1072;&#1074;]</text><polygon fill="#181818" points="377,361.1641,367,365.1641,377,369.1641,373,365.1641" style="stroke:#181818;stroke-width:1.0;"/><line style="stroke:#181818;stroke-width:1.0;" x1="371" x2="445" y1="365.1641" y2="365.1641"/><line style="stroke:#181818;stroke-width:2.0;" x1="82" x2="92" y1="389.2969" y2="399.2969"/><line style="stroke:#181818;stroke-width:2.0;" x1="82" x2="92" y1="399.2969" y2="389.2969"/><line style="stroke:#181818;stroke-width:1.0;" x1="87" x2="365" y1="394.2969" y2="394.2969"/><text fill="#000000" font-family="sans-serif" font-size="13" lengthAdjust="spacing" textLength="70" x="92" y="389.231">403 &#1086;&#1090;&#1074;&#1077;&#1090;</text><path d="M26,414.2969 L26,439.2969 L1083,439.2969 L1083,424.2969 L1073,414.2969 L26,414.2969 " fill="#FEFFDD" style="stroke:#181818;stroke-width:0.5;"/><path d="M1073,414.2969 L1073,424.2969 L1083,424.2969 L1073,414.2969 " fill="#FEFFDD" style="stroke:#181818;stroke-width:0.5;"/><text fill="#000000" font-family="sans-serif" font-size="13" lengthAdjust="spacing" textLength="130" x="485.25" y="431.3638">&#1085;&#1077;&#1082;&#1086;&#1090;&#1086;&#1088;&#1086;&#1077; &#1074;&#1088;&#1077;&#1084;&#1103;...</text><polygon fill="#181818" points="457,461.5625,447,465.5625,457,469.5625,453,465.5625" style="stroke:#181818;stroke-width:1.0;"/><line style="stroke:#181818;stroke-width:1.0;" x1="451" x2="899.5" y1="465.5625" y2="465.5625"/><text fill="#000000" font-family="sans-serif" font-size="13" lengthAdjust="spacing" textLength="154" x="463" y="460.4966">&#1089;&#1086;&#1073;&#1099;&#1090;&#1080;&#1077; &#1085;&#1072; &#1086;&#1073;&#1088;&#1072;&#1073;&#1086;&#1090;&#1082;&#1091;</text><polygon fill="#181818" points="1022.5,490.6953,1032.5,494.6953,1022.5,498.6953,1026.5,494.6953" style="stroke:#181818;stroke-width:1.0;"/><line style="stroke:#181818;stroke-width:1.0;" x1="446" x2="1028.5" y1="494.6953" y2="494.6953"/><text fill="#000000" font-family="sans-serif" font-size="13" lengthAdjust="spacing" textLength="128" x="453" y="489.6294">&#1089;&#1086;&#1073;&#1099;&#1090;&#1080;&#1077; &#1085;&#1072; &#1079;&#1072;&#1087;&#1080;&#1089;&#1100;</text><!--SRC=[XLBRYXD147tlhoYILms2FWKZA8Bw87ZvWjwaaS0olJlJsMpUJ2AAR30AFkidECdku6mkixzG_KUUwibiDhh1WRdqrAbJfqwLRZiRKur_Si5BF-7VUCyvzIFEv5mZdL0lCR4wiAS4r59Y_WCN_ZslEANwsyZsrP6ENRVTFTAHezhZLo_ecNPzFGZPxxGp-Dx5y2- -04CH46qR6zNHJX_en23sZRyJNzqc2FVbjQIdJzHnp_GauuV_n1duCh1Eo0-HC_DdoCatU7DY8lTQq7yNsWS6kuawXBQLQhM8l_8S46axXwRKV-JSJwdLKYA5xDr7LQDDuZM4B8IE1CfNqgaV4emJYJC_zb_yvp8kiPJdQfDCu0bso8CUubHssgmC6KkdA91p9j8pFyGpv_pE7iUWaVDjcK0BrgqVpLq7Ck8vGUrDFr4kfO0HaXcY8rxuiTA7ZkhFRMG67TEde6Kay4qnJXNXYgmpP4zWaXHlbfRCuTxGJ-52AWh1I72iGAM5b4M1DKxdN40Th9QEKx5UmCiGoO4l2rGzLOic_xPssk1WirGb_OpHxqegXlEQr_vC1h5bBUGehuiW35f5JwhC8PQc_hARkC4RYqyPi-YklFs_bjEDbWVtxj-WbZrJmINTZcsIN2zGiLcu8ambo5tvQQFHKDlnLGlpxnZt36rd0sInRiqBQnjcD55_0000]--></g></svg>