<?xml version="1.0" encoding="us-ascii" standalone="no"?><svg xmlns="http://www.w3.org/2000/svg" xmlns:xlink="http://www.w3.org/1999/xlink" contentStyleType="text/css" height="675px" preserveAspectRatio="none" style="width:926px;height:675px;background:#FFFFFF;" version="1.1" viewBox="0 0 926 675" width="926px" zoomAndPan="magnify"><defs/><g><rect fill="#FFFAFA" height="663.4531" style="stroke:#181818;stroke-width:0.5;" width="548" x="370.5" y="6"/><text fill="#000000" font-family="sans-serif" font-size="13" font-weight="bold" lengthAdjust="spacing" textLength="90" x="597" y="18.0669">&#1055;&#1083;&#1072;&#1090;&#1092;&#1086;&#1088;&#1084;&#1072;</text><line style="stroke:#181818;stroke-width:0.5;stroke-dasharray:5.0,5.0;" x1="147" x2="147" y1="87.4297" y2="590.1563"/><line style="stroke:#181818;stroke-width:0.5;stroke-dasharray:5.0,5.0;" x1="418.5" x2="418.5" y1="87.4297" y2="590.1563"/><line style="stroke:#181818;stroke-width:0.5;stroke-dasharray:5.0,5.0;" x1="498.5" x2="498.5" y1="87.4297" y2="590.1563"/><line style="stroke:#181818;stroke-width:0.5;stroke-dasharray:5.0,5.0;" x1="731.5" x2="731.5" y1="87.4297" y2="590.1563"/><line style="stroke:#181818;stroke-width:0.5;stroke-dasharray:5.0,5.0;" x1="864.5" x2="864.5" y1="87.4297" y2="590.1563"/><text fill="#000000" font-family="sans-serif" font-size="14" lengthAdjust="spacing" textLength="104" x="92" y="84.1279">&#1055;&#1086;&#1083;&#1100;&#1079;&#1086;&#1074;&#1072;&#1090;&#1077;&#1083;&#1100;</text><ellipse cx="147" cy="19.6328" fill="#E2E2F0" rx="8" ry="8" style="stroke:#181818;stroke-width:0.5;"/><path d="M147,27.6328 L147,54.6328 M134,35.6328 L160,35.6328 M147,54.6328 L134,69.6328 M147,54.6328 L160,69.6328 " fill="none" style="stroke:#181818;stroke-width:0.5;"/><text fill="#000000" font-family="sans-serif" font-size="14" lengthAdjust="spacing" textLength="104" x="92" y="602.1514">&#1055;&#1086;&#1083;&#1100;&#1079;&#1086;&#1074;&#1072;&#1090;&#1077;&#1083;&#1100;</text><ellipse cx="147" cy="613.9531" fill="#E2E2F0" rx="8" ry="8" style="stroke:#181818;stroke-width:0.5;"/><path d="M147,621.9531 L147,648.9531 M134,629.9531 L160,629.9531 M147,648.9531 L134,663.9531 M147,648.9531 L160,663.9531 " fill="none" style="stroke:#181818;stroke-width:0.5;"/><rect fill="#E2E2F0" height="30.2969" rx="2.5" ry="2.5" style="stroke:#181818;stroke-width:0.5;" width="89" x="374.5" y="56.1328"/><text fill="#000000" font-family="sans-serif" font-size="14" lengthAdjust="spacing" textLength="75" x="381.5" y="76.1279">API Gatway</text><rect fill="#E2E2F0" height="30.2969" rx="2.5" ry="2.5" style="stroke:#181818;stroke-width:0.5;" width="89" x="374.5" y="589.1563"/><text fill="#000000" font-family="sans-serif" font-size="14" lengthAdjust="spacing" textLength="75" x="381.5" y="609.1514">API Gatway</text><rect fill="#E2E2F0" height="30.2969" rx="2.5" ry="2.5" style="stroke:#181818;stroke-width:0.5;" width="51" x="473.5" y="56.1328"/><text fill="#000000" font-family="sans-serif" font-size="14" lengthAdjust="spacing" textLength="37" x="480.5" y="76.1279">&#1071;&#1076;&#1088;&#1086;</text><rect fill="#E2E2F0" height="30.2969" rx="2.5" ry="2.5" style="stroke:#181818;stroke-width:0.5;" width="51" x="473.5" y="589.1563"/><text fill="#000000" font-family="sans-serif" font-size="14" lengthAdjust="spacing" textLength="37" x="480.5" y="609.1514">&#1071;&#1076;&#1088;&#1086;</text><text fill="#000000" font-family="sans-serif" font-size="14" lengthAdjust="spacing" textLength="139" x="659.5" y="84.1279">&#1041;&#1044; &#1087;&#1086;&#1083;&#1100;&#1079;&#1086;&#1074;&#1072;&#1090;&#1077;&#1083;&#1077;&#1081;</text><path d="M714,35.1328 C714,25.1328 732,25.1328 732,25.1328 C732,25.1328 750,25.1328 750,35.1328 L750,61.1328 C750,71.1328 732,71.1328 732,71.1328 C732,71.1328 714,71.1328 714,61.1328 L714,35.1328 " fill="#E2E2F0" style="stroke:#181818;stroke-width:1.5;"/><path d="M714,35.1328 C714,45.1328 732,45.1328 732,45.1328 C732,45.1328 750,45.1328 750,35.1328 " fill="none" style="stroke:#181818;stroke-width:1.5;"/><text fill="#000000" font-family="sans-serif" font-size="14" lengthAdjust="spacing" textLength="139" x="659.5" y="602.1514">&#1041;&#1044; &#1087;&#1086;&#1083;&#1100;&#1079;&#1086;&#1074;&#1072;&#1090;&#1077;&#1083;&#1077;&#1081;</text><path d="M714,615.4531 C714,605.4531 732,605.4531 732,605.4531 C732,605.4531 750,605.4531 750,615.4531 L750,641.4531 C750,651.4531 732,651.4531 732,651.4531 C732,651.4531 714,651.4531 714,641.4531 L714,615.4531 " fill="#E2E2F0" style="stroke:#181818;stroke-width:1.5;"/><path d="M714,615.4531 C714,625.4531 732,625.4531 732,625.4531 C732,625.4531 750,625.4531 750,615.4531 " fill="none" style="stroke:#181818;stroke-width:1.5;"/><text fill="#000000" font-family="sans-serif" font-size="14" lengthAdjust="spacing" textLength="94" x="814.5" y="84.1279">&#1041;&#1044; &#1086;&#1073;&#1091;&#1095;&#1077;&#1085;&#1080;&#1103;</text><path d="M846.5,35.1328 C846.5,25.1328 864.5,25.1328 864.5,25.1328 C864.5,25.1328 882.5,25.1328 882.5,35.1328 L882.5,61.1328 C882.5,71.1328 864.5,71.1328 864.5,71.1328 C864.5,71.1328 846.5,71.1328 846.5,61.1328 L846.5,35.1328 " fill="#E2E2F0" style="stroke:#181818;stroke-width:1.5;"/><path d="M846.5,35.1328 C846.5,45.1328 864.5,45.1328 864.5,45.1328 C864.5,45.1328 882.5,45.1328 882.5,35.1328 " fill="none" style="stroke:#181818;stroke-width:1.5;"/><text fill="#000000" font-family="sans-serif" font-size="14" lengthAdjust="spacing" textLength="94" x="814.5" y="602.1514">&#1041;&#1044; &#1086;&#1073;&#1091;&#1095;&#1077;&#1085;&#1080;&#1103;</text><path d="M846.5,615.4531 C846.5,605.4531 864.5,605.4531 864.5,605.4531 C864.5,605.4531 882.5,605.4531 882.5,615.4531 L882.5,641.4531 C882.5,651.4531 864.5,651.4531 864.5,651.4531 C864.5,651.4531 846.5,651.4531 846.5,641.4531 L846.5,615.4531 " fill="#E2E2F0" style="stroke:#181818;stroke-width:1.5;"/><path d="M846.5,615.4531 C846.5,625.4531 864.5,625.4531 864.5,625.4531 C864.5,625.4531 882.5,625.4531 882.5,615.4531 " fill="none" style="stroke:#181818;stroke-width:1.5;"/><rect fill="#EEEEEE" height="3" style="stroke:#EEEEEE;stroke-width:1.0;" width="919.5" x="0" y="117.9961"/><line style="stroke:#000000;stroke-width:1.0;" x1="0" x2="919.5" y1="117.9961" y2="117.9961"/><line style="stroke:#000000;stroke-width:1.0;" x1="0" x2="919.5" y1="120.9961" y2="120.9961"/><rect fill="#EEEEEE" height="23.1328" style="stroke:#000000;stroke-width:2.0;" width="286" x="316.75" y="107.4297"/><text fill="#000000" font-family="sans-serif" font-size="13" font-weight="bold" lengthAdjust="spacing" textLength="267" x="322.75" y="123.4966">&#1055;&#1086;&#1083;&#1091;&#1095;&#1077;&#1085;&#1080;&#1077; &#1089;&#1087;&#1080;&#1089;&#1082;&#1072; &#1096;&#1072;&#1075;&#1086;&#1074; &#1086;&#1073;&#1091;&#1095;&#1077;&#1085;&#1080;&#1103;</text><polygon fill="#181818" points="407,157.6953,417,161.6953,407,165.6953,411,161.6953" style="stroke:#181818;stroke-width:1.0;"/><line style="stroke:#181818;stroke-width:1.0;" x1="147" x2="413" y1="161.6953" y2="161.6953"/><text fill="#000000" font-family="sans-serif" font-size="13" lengthAdjust="spacing" textLength="209" x="154" y="156.6294">&#1079;&#1072;&#1087;&#1088;&#1086;&#1089; &#1089;&#1087;&#1080;&#1089;&#1082;&#1072; &#1096;&#1072;&#1075;&#1086;&#1074; &#1086;&#1073;&#1091;&#1095;&#1077;&#1085;&#1080;&#1103;</text><polygon fill="#181818" points="487,171.6953,497,175.6953,487,179.6953,491,175.6953" style="stroke:#181818;stroke-width:1.0;"/><line style="stroke:#181818;stroke-width:1.0;" x1="419" x2="493" y1="175.6953" y2="175.6953"/><polygon fill="#181818" points="720,200.8281,730,204.8281,720,208.8281,724,204.8281" style="stroke:#181818;stroke-width:1.0;"/><line style="stroke:#181818;stroke-width:1.0;" x1="499" x2="726" y1="204.8281" y2="204.8281"/><text fill="#000000" font-family="sans-serif" font-size="13" lengthAdjust="spacing" textLength="209" x="506" y="199.7622">&#1079;&#1072;&#1087;&#1088;&#1086;&#1089; &#1089;&#1087;&#1080;&#1089;&#1082;&#1072; &#1096;&#1072;&#1075;&#1086;&#1074; &#1086;&#1073;&#1091;&#1095;&#1077;&#1085;&#1080;&#1103;</text><polygon fill="#181818" points="430,214.8281,420,218.8281,430,222.8281,426,218.8281" style="stroke:#181818;stroke-width:1.0;"/><line style="stroke:#181818;stroke-width:1.0;" x1="424" x2="498" y1="218.8281" y2="218.8281"/><polygon fill="#181818" points="158,243.9609,148,247.9609,158,251.9609,154,247.9609" style="stroke:#181818;stroke-width:1.0;"/><line style="stroke:#181818;stroke-width:1.0;" x1="152" x2="418" y1="247.9609" y2="247.9609"/><text fill="#000000" font-family="sans-serif" font-size="13" lengthAdjust="spacing" textLength="159" x="164" y="242.895">&#1089;&#1087;&#1080;&#1089;&#1086;&#1082; &#1096;&#1072;&#1075;&#1086;&#1074; &#1086;&#1073;&#1091;&#1095;&#1077;&#1085;&#1080;&#1103;</text><rect fill="#EEEEEE" height="3" style="stroke:#EEEEEE;stroke-width:1.0;" width="919.5" x="0" y="276.5273"/><line style="stroke:#000000;stroke-width:1.0;" x1="0" x2="919.5" y1="276.5273" y2="276.5273"/><line style="stroke:#000000;stroke-width:1.0;" x1="0" x2="919.5" y1="279.5273" y2="279.5273"/><rect fill="#EEEEEE" height="23.1328" style="stroke:#000000;stroke-width:2.0;" width="240" x="339.75" y="265.9609"/><text fill="#000000" font-family="sans-serif" font-size="13" font-weight="bold" lengthAdjust="spacing" textLength="226" x="345.75" y="282.0278">&#1055;&#1088;&#1086;&#1093;&#1086;&#1078;&#1076;&#1077;&#1085;&#1080;&#1077; &#1096;&#1072;&#1075;&#1072; &#1086;&#1073;&#1091;&#1095;&#1077;&#1085;&#1080;&#1103;</text><polygon fill="#181818" points="407,316.2266,417,320.2266,407,324.2266,411,320.2266" style="stroke:#181818;stroke-width:1.0;"/><line style="stroke:#181818;stroke-width:1.0;" x1="147" x2="413" y1="320.2266" y2="320.2266"/><text fill="#000000" font-family="sans-serif" font-size="13" lengthAdjust="spacing" textLength="248" x="154" y="315.1606">&#1079;&#1072;&#1087;&#1088;&#1086;&#1089; &#1089;&#1086;&#1076;&#1077;&#1088;&#1078;&#1080;&#1084;&#1086;&#1075;&#1086; &#1096;&#1072;&#1075;&#1072; &#1086;&#1073;&#1091;&#1095;&#1077;&#1085;&#1080;&#1103;</text><polygon fill="#181818" points="487,330.2266,497,334.2266,487,338.2266,491,334.2266" style="stroke:#181818;stroke-width:1.0;"/><line style="stroke:#181818;stroke-width:1.0;" x1="419" x2="493" y1="334.2266" y2="334.2266"/><polygon fill="#181818" points="852.5,359.3594,862.5,363.3594,852.5,367.3594,856.5,363.3594" style="stroke:#181818;stroke-width:1.0;"/><line style="stroke:#181818;stroke-width:1.0;" x1="499" x2="858.5" y1="363.3594" y2="363.3594"/><text fill="#000000" font-family="sans-serif" font-size="13" lengthAdjust="spacing" textLength="248" x="506" y="358.2935">&#1079;&#1072;&#1087;&#1088;&#1086;&#1089; &#1089;&#1086;&#1076;&#1077;&#1088;&#1078;&#1080;&#1084;&#1086;&#1075;&#1086; &#1096;&#1072;&#1075;&#1072; &#1086;&#1073;&#1091;&#1095;&#1077;&#1085;&#1080;&#1103;</text><polygon fill="#181818" points="430,373.3594,420,377.3594,430,381.3594,426,377.3594" style="stroke:#181818;stroke-width:1.0;"/><line style="stroke:#181818;stroke-width:1.0;" x1="424" x2="498" y1="377.3594" y2="377.3594"/><polygon fill="#181818" points="158,402.4922,148,406.4922,158,410.4922,154,406.4922" style="stroke:#181818;stroke-width:1.0;"/><line style="stroke:#181818;stroke-width:1.0;" x1="152" x2="418" y1="406.4922" y2="406.4922"/><text fill="#000000" font-family="sans-serif" font-size="13" lengthAdjust="spacing" textLength="191" x="164" y="401.4263">&#1089;&#1086;&#1076;&#1077;&#1088;&#1078;&#1080;&#1084;&#1086;&#1077; &#1096;&#1072;&#1075;&#1072; &#1086;&#1073;&#1091;&#1095;&#1077;&#1085;&#1080;&#1103;</text><path d="M5,419.4922 L5,459.4922 L290,459.4922 L290,429.4922 L280,419.4922 L5,419.4922 " fill="#FEFFDD" style="stroke:#181818;stroke-width:0.5;"/><path d="M280,419.4922 L280,429.4922 L290,429.4922 L280,419.4922 " fill="#FEFFDD" style="stroke:#181818;stroke-width:0.5;"/><text fill="#000000" font-family="sans-serif" font-size="13" lengthAdjust="spacing" textLength="169" x="11" y="436.5591">&#1086;&#1090;&#1086;&#1073;&#1088;&#1072;&#1078;&#1077;&#1085;&#1080;&#1077; &#1087;&#1086;&#1076;&#1089;&#1082;&#1072;&#1079;&#1086;&#1082;</text><text fill="#000000" font-family="sans-serif" font-size="13" lengthAdjust="spacing" textLength="264" x="11" y="451.6919">&#1074;&#1099;&#1087;&#1086;&#1083;&#1085;&#1077;&#1085;&#1080;&#1077; &#1088;&#1077;&#1082;&#1086;&#1084;&#1077;&#1085;&#1076;&#1091;&#1077;&#1084;&#1099;&#1093; &#1076;&#1077;&#1081;&#1089;&#1090;&#1074;&#1080;&#1081;</text><polygon fill="#181818" points="407,481.8906,417,485.8906,407,489.8906,411,485.8906" style="stroke:#181818;stroke-width:1.0;"/><line style="stroke:#181818;stroke-width:1.0;" x1="147" x2="413" y1="485.8906" y2="485.8906"/><text fill="#000000" font-family="sans-serif" font-size="13" lengthAdjust="spacing" textLength="174" x="154" y="480.8247">&#1086;&#1090;&#1084;&#1077;&#1090;&#1082;&#1072; &#1096;&#1072;&#1075;&#1072; &#1080;&#1079;&#1091;&#1095;&#1077;&#1085;&#1085;&#1099;&#1084;</text><polygon fill="#181818" points="487,495.8906,497,499.8906,487,503.8906,491,499.8906" style="stroke:#181818;stroke-width:1.0;"/><line style="stroke:#181818;stroke-width:1.0;" x1="419" x2="493" y1="499.8906" y2="499.8906"/><polygon fill="#181818" points="720,525.0234,730,529.0234,720,533.0234,724,529.0234" style="stroke:#181818;stroke-width:1.0;"/><line style="stroke:#181818;stroke-width:1.0;" x1="499" x2="726" y1="529.0234" y2="529.0234"/><text fill="#000000" font-family="sans-serif" font-size="13" lengthAdjust="spacing" textLength="174" x="506" y="523.9575">&#1086;&#1090;&#1084;&#1077;&#1090;&#1082;&#1072; &#1096;&#1072;&#1075;&#1072; &#1080;&#1079;&#1091;&#1095;&#1077;&#1085;&#1085;&#1099;&#1084;</text><polygon fill="#181818" points="430,539.0234,420,543.0234,430,547.0234,426,543.0234" style="stroke:#181818;stroke-width:1.0;"/><line style="stroke:#181818;stroke-width:1.0;" x1="424" x2="498" y1="543.0234" y2="543.0234"/><polygon fill="#181818" points="158,568.1563,148,572.1563,158,576.1563,154,572.1563" style="stroke:#181818;stroke-width:1.0;"/><line style="stroke:#181818;stroke-width:1.0;" x1="152" x2="418" y1="572.1563" y2="572.1563"/><text fill="#000000" font-family="sans-serif" font-size="13" lengthAdjust="spacing" textLength="209" x="164" y="567.0903">&#1087;&#1088;&#1080;&#1079;&#1085;&#1072;&#1082; &#1091;&#1089;&#1087;&#1077;&#1096;&#1085;&#1086;&#1089;&#1090;&#1080; &#1086;&#1087;&#1077;&#1088;&#1072;&#1094;&#1080;&#1080;</text><!--SRC=[fLFRJi9047tVhzZWipz0Wed6nFZcBopG61BJab95txY8cc1YJ7pt4wnOe9HIVc7sZpmxXO9oZJRfjjizSsREcQagUOuhS_HE2OtrCmtnx96lMzGt-vnKDNbTirnHT6ubK6DpfkyfqGsAoPS7DTkfYwfolKgfKbMs9tF75-VoJ7brTSVHbygpyFuJGnyKW25XHCbnBL5MdYggceMpLtgJD5rN4EvHLjBfoKfGGf-whHy1cr2eNnXwPIdN1jQoon8YX2WKPcep9FMbRY9ZY3M2AFr4FdsPn2kKib0G9hayF9ehoqiKwTFKwD7DlPd4BDmmiGDcCPjKsrzPvonpsvUo6EByWYcXQ2iJ6yNfEpWRKB0mAutoLsBsCISnHDWEG1LZX-oR2JUQDElgV-dtSUitunRzmdOyIpeti81_6eaBXRKOrq3G8FEG1pn86yf37gNedkwcimzSvdS3hn4-nlmfq6qyOztL7SbT6UacSlI07V6OcohMDC8K0WQiIqC44I4DCn4Jf8ztZ-R-L3iTvkOX3X6-cSWs3sWVd1FJKwG8ZSzJxe6l7u0DnJS0]--></g></svg>