<?xml version="1.0" encoding="us-ascii" standalone="no"?><svg xmlns="http://www.w3.org/2000/svg" xmlns:xlink="http://www.w3.org/1999/xlink" contentStyleType="text/css" height="368px" preserveAspectRatio="none" style="width:720px;height:368px;background:#FFFFFF;" version="1.1" viewBox="0 0 720 368" width="720px" zoomAndPan="magnify"><defs/><g><!--cluster encounterMode--><g id="cluster_encounterMode"><rect fill="none" height="199" rx="2.5" ry="2.5" style="stroke:#181818;stroke-width:1.0;" width="449" x="265" y="163"/><text fill="#000000" font-family="sans-serif" font-size="14" font-weight="bold" lengthAdjust="spacing" textLength="175" x="402" y="177.9951">&#1056;&#1077;&#1078;&#1080;&#1084; &#1089;&#1090;&#1086;&#1083;&#1082;&#1085;&#1086;&#1074;&#1077;&#1085;&#1080;&#1103;</text></g><!--entity act--><g id="elem_act"><rect fill="#F1F1F1" height="36.2969" rx="2.5" ry="2.5" style="stroke:#181818;stroke-width:0.5;" width="258" x="370" y="206"/><text fill="#000000" font-family="sans-serif" font-size="14" lengthAdjust="spacing" textLength="238" x="380" y="228.9951">&#1044;&#1077;&#1081;&#1089;&#1090;&#1074;&#1080;&#1103; &#1087;&#1077;&#1088;&#1089;&#1086;&#1085;&#1072;&#1078;&#1072; &#1074; &#1089;&#1074;&#1086;&#1081; &#1093;&#1086;&#1076;</text></g><!--entity checks--><g id="elem_checks"><rect fill="#F1F1F1" height="36.2969" rx="2.5" ry="2.5" style="stroke:#181818;stroke-width:0.5;" width="183" x="297.5" y="302"/><text fill="#000000" font-family="sans-serif" font-size="14" lengthAdjust="spacing" textLength="163" x="307.5" y="324.9951">&#1055;&#1088;&#1086;&#1074;&#1077;&#1088;&#1082;&#1080; &#1074; &#1095;&#1091;&#1078;&#1086;&#1081; &#1093;&#1086;&#1076;</text></g><!--entity react--><g id="elem_react"><rect fill="#F1F1F1" height="36.2969" rx="2.5" ry="2.5" style="stroke:#181818;stroke-width:0.5;" width="174" x="516" y="302"/><text fill="#000000" font-family="sans-serif" font-size="14" lengthAdjust="spacing" textLength="154" x="526" y="324.9951">&#1056;&#1077;&#1072;&#1082;&#1094;&#1080;&#1080; &#1074; &#1095;&#1091;&#1078;&#1086;&#1081; &#1093;&#1086;&#1076;</text></g><!--entity exploreMode--><g id="elem_exploreMode"><rect fill="#F1F1F1" height="36.2969" rx="2.5" ry="2.5" style="stroke:#181818;stroke-width:0.5;" width="178" x="7" y="103"/><text fill="#000000" font-family="sans-serif" font-size="14" lengthAdjust="spacing" textLength="158" x="17" y="125.9951">&#1056;&#1077;&#1078;&#1080;&#1084; &#1080;&#1089;&#1089;&#1083;&#1077;&#1076;&#1086;&#1074;&#1072;&#1085;&#1080;&#1103;</text></g><!--entity travelMode--><g id="elem_travelMode"><rect fill="#F1F1F1" height="36.2969" rx="2.5" ry="2.5" style="stroke:#181818;stroke-width:0.5;" width="172" x="10" y="206"/><text fill="#000000" font-family="sans-serif" font-size="14" lengthAdjust="spacing" textLength="152" x="20" y="228.9951">&#1056;&#1077;&#1078;&#1080;&#1084; &#1087;&#1091;&#1090;&#1077;&#1096;&#1077;&#1089;&#1090;&#1074;&#1080;&#1103;</text></g><!--entity downtimeMode--><g id="elem_downtimeMode"><rect fill="#F1F1F1" height="36.2969" rx="2.5" ry="2.5" style="stroke:#181818;stroke-width:0.5;" width="128" x="32" y="7"/><text fill="#000000" font-family="sans-serif" font-size="14" lengthAdjust="spacing" textLength="108" x="42" y="29.9951">&#1056;&#1077;&#1078;&#1080;&#1084; &#1086;&#1090;&#1076;&#1099;&#1093;&#1072;</text></g><!--entity init--><g id="elem_init"><rect fill="#F1F1F1" height="36.2969" rx="2.5" ry="2.5" style="stroke:#181818;stroke-width:0.5;" width="217" x="220.5" y="103"/><text fill="#000000" font-family="sans-serif" font-size="14" lengthAdjust="spacing" textLength="197" x="230.5" y="125.9951">&#1054;&#1087;&#1088;&#1077;&#1076;&#1077;&#1083;&#1077;&#1085;&#1080;&#1077; &#1080;&#1085;&#1080;&#1094;&#1080;&#1072;&#1090;&#1080;&#1074;&#1099;</text></g><!--link act to checks--><g id="link_act_checks"><path d="M475.25,245.3 C456.92,260.96 431.65,282.55 413.21,298.31 " fill="none" id="act-checks" style="stroke:#181818;stroke-width:1.0;"/><polygon fill="#181818" points="479.08,242.02,469.6435,244.8401,475.2837,245.274,474.8499,250.9141,479.08,242.02" style="stroke:#181818;stroke-width:1.0;"/><polygon fill="#181818" points="409.14,301.79,418.5826,298.9904,412.9433,298.5443,413.3894,292.9051,409.14,301.79" style="stroke:#181818;stroke-width:1.0;"/></g><!--link act to react--><g id="link_act_react"><path d="M522.17,245.94 C539.49,261.59 563.04,282.88 580.25,298.44 " fill="none" id="act-react" style="stroke:#181818;stroke-width:1.0;"/><polygon fill="#181818" points="518.08,242.24,522.0574,251.25,521.7829,245.5998,527.4331,245.3253,518.08,242.24" style="stroke:#181818;stroke-width:1.0;"/><polygon fill="#181818" points="584.05,301.87,580.0726,292.86,580.3471,298.5102,574.6969,298.7847,584.05,301.87" style="stroke:#181818;stroke-width:1.0;"/></g><!--link checks to react--><g id="link_checks_react"><path d="M485.79,320 C494.11,320 502.43,320 510.75,320 " fill="none" id="checks-react" style="stroke:#181818;stroke-width:1.0;"/><polygon fill="#181818" points="480.54,320,489.54,324,485.54,320,489.54,316,480.54,320" style="stroke:#181818;stroke-width:1.0;"/><polygon fill="#181818" points="515.94,320,506.94,316,510.94,320,506.94,324,515.94,320" style="stroke:#181818;stroke-width:1.0;"/></g><!--link downtimeMode to exploreMode--><g id="link_downtimeMode_exploreMode"><path d="M96,48.66 C96,63.52 96,82.85 96,97.64 " fill="none" id="downtimeMode-exploreMode" style="stroke:#181818;stroke-width:1.0;"/><polygon fill="#181818" points="96,43.24,92,52.24,96,48.24,100,52.24,96,43.24" style="stroke:#181818;stroke-width:1.0;"/><polygon fill="#181818" points="96,102.87,100,93.87,96,97.87,92,93.87,96,102.87" style="stroke:#181818;stroke-width:1.0;"/></g><!--link exploreMode to init--><g id="link_exploreMode_init"><path d="M185.2,121 C195.16,121 205.13,121 215.09,121 " fill="none" id="exploreMode-to-init" style="stroke:#181818;stroke-width:1.0;"/><polygon fill="#181818" points="220.3,121,211.3,117,215.3,121,211.3,125,220.3,121" style="stroke:#181818;stroke-width:1.0;"/></g><!--link exploreMode to travelMode--><g id="link_exploreMode_travelMode"><path d="M96,144.15 C96,160.95 96,183.95 96,200.77 " fill="none" id="exploreMode-travelMode" style="stroke:#181818;stroke-width:1.0;"/><polygon fill="#181818" points="96,139.13,92,148.13,96,144.13,100,148.13,96,139.13" style="stroke:#181818;stroke-width:1.0;"/><polygon fill="#181818" points="96,205.78,100,196.78,96,200.78,92,196.78,96,205.78" style="stroke:#181818;stroke-width:1.0;"/></g><!--link init to encounterMode--><g id="link_init_encounterMode"><path d="M288.23,139.09 C285.48,141.42 283.01,144.05 281,147 C278.685,150.4 276.8133,154.0909 275.3114,157.9525 C274.936,158.9179 274.5836,159.8939 274.2533,160.8788 C274.0881,161.3712 273.9284,161.8658 273.7741,162.3624 C273.7355,162.4865 273.6972,162.6108 273.6593,162.7352 " fill="none" id="init-to-encounterMode" style="stroke:#181818;stroke-width:1.0;"/><polygon fill="#181818" points="273.6593,162.7352,280.1099,155.2928,275.1173,157.9525,272.4576,152.9599,273.6593,162.7352" style="stroke:#181818;stroke-width:1.0;"/></g><!--reverse link exploreMode to encounterMode--><g id="link_exploreMode_encounterMode"><path d="M187.15,141.05 C191.24,142.86 195.21,144.84 199,147 C218.835,158.315 236.8175,176.5 250.0875,192.245 C253.405,196.1813 256.428,199.965 259.1117,203.4508 C260.4536,205.1937 261.7107,206.8621 262.8773,208.4378 C263.4607,209.2257 264.0214,209.9903 264.5589,210.7296 C264.6932,210.9144 264.8261,211.0976 264.9576,211.2792 " fill="none" id="exploreMode-backto-encounterMode" style="stroke:#181818;stroke-width:1.0;"/><polygon fill="#181818" points="182.3,139.01,189.0425,146.1891,186.9082,140.9503,192.1469,138.816,182.3,139.01" style="stroke:#181818;stroke-width:1.0;"/></g><!--SRC=[XL9BJiD03DtFAKRTvmQ86x11uW1HEeA8aA0qV2I4r53naRfWmneuGXGbg4rfSWNxHhoua4oe2f4y7ddydlqSnyPBtF0uC7f4hzJmb4egO2lOcXPKQXouy0DyndSuSvwFj3lHVkWdAhRmxy1y8E5JSuhC6YGLi3Nb6p9-5fm9lUWYJ4ny48sDlb4QdqtpWkobCEGjHbD39Kyv1T6QCbJ8DEKeWUUQbfhluGfXThraY-qDagG3-8eM0dta6MX-WRqJuvrEjl2jg8mgqVy7EZO_nU7rdkFisuHTh4_Rl29ws8LlTqmJKqWXToM_fjMIsTEyFW-Ys7pFSYT5mpCCjEGdM3TQ8KXYzz84_-5hO0gUGt4cg75q5IR-MLzN3I8YrcfDsMsAPDaUEogGlXdL9cYXiVT53RV7EHhM-G80]--></g></svg>