<?xml version="1.0" encoding="us-ascii" standalone="no"?><svg xmlns="http://www.w3.org/2000/svg" xmlns:xlink="http://www.w3.org/1999/xlink" contentStyleType="text/css" height="241px" preserveAspectRatio="none" style="width:733px;height:241px;background:#FFFFFF;" version="1.1" viewBox="0 0 733 241" width="733px" zoomAndPan="magnify"><defs/><g><!--entity searchRoom--><g id="elem_searchRoom"><rect fill="#F1F1F1" height="36.2969" rx="2.5" ry="2.5" style="stroke:#181818;stroke-width:0.5;" width="148" x="128" y="7"/><text fill="#000000" font-family="sans-serif" font-size="14" lengthAdjust="spacing" textLength="128" x="138" y="29.9951">&#1048;&#1089;&#1082;&#1072;&#1090;&#1100; &#1082;&#1072;&#1084;&#1087;&#1072;&#1085;&#1080;&#1102;</text></g><!--entity viewRoom--><g id="elem_viewRoom"><rect fill="#F1F1F1" height="36.2969" rx="2.5" ry="2.5" style="stroke:#181818;stroke-width:0.5;" width="211" x="208.5" y="103"/><text fill="#000000" font-family="sans-serif" font-size="14" lengthAdjust="spacing" textLength="191" x="218.5" y="125.9951">&#1055;&#1088;&#1086;&#1089;&#1084;&#1072;&#1090;&#1088;&#1080;&#1074;&#1072;&#1090;&#1100; &#1082;&#1072;&#1084;&#1087;&#1072;&#1085;&#1080;&#1102;</text></g><!--entity joinRoom--><g id="elem_joinRoom"><rect fill="#F1F1F1" height="36.2969" rx="2.5" ry="2.5" style="stroke:#181818;stroke-width:0.5;" width="272" x="455" y="103"/><text fill="#000000" font-family="sans-serif" font-size="14" lengthAdjust="spacing" textLength="252" x="465" y="125.9951">&#1047;&#1072;&#1087;&#1088;&#1086;&#1089; &#1085;&#1072; &#1074;&#1089;&#1090;&#1091;&#1087;&#1083;&#1077;&#1085;&#1080;&#1077; &#1074; &#1082;&#1072;&#1084;&#1087;&#1072;&#1085;&#1080;&#1102;</text></g><!--entity importHero--><g id="elem_importHero"><rect fill="#F1F1F1" height="36.2969" rx="2.5" ry="2.5" style="stroke:#181818;stroke-width:0.5;" width="162" x="33" y="199"/><text fill="#000000" font-family="sans-serif" font-size="14" lengthAdjust="spacing" textLength="142" x="43" y="221.9951">&#1048;&#1084;&#1087;&#1086;&#1088;&#1090; &#1087;&#1077;&#1088;&#1089;&#1086;&#1085;&#1072;&#1078;&#1072;</text></g><!--entity createHero--><g id="elem_createHero"><rect fill="#F1F1F1" height="36.2969" rx="2.5" ry="2.5" style="stroke:#181818;stroke-width:0.5;" width="168" x="230" y="199"/><text fill="#000000" font-family="sans-serif" font-size="14" lengthAdjust="spacing" textLength="148" x="240" y="221.9951">&#1057;&#1086;&#1079;&#1076;&#1072;&#1090;&#1100; &#1087;&#1077;&#1088;&#1089;&#1086;&#1085;&#1072;&#1078;&#1072;</text></g><!--entity play--><g id="elem_play"><rect fill="#F1F1F1" height="36.2969" rx="2.5" ry="2.5" style="stroke:#181818;stroke-width:0.5;" width="92" x="433" y="199"/><text fill="#000000" font-family="sans-serif" font-size="14" lengthAdjust="spacing" textLength="72" x="443" y="221.9951">&#1048;&#1075;&#1088;&#1072;&#1090;&#1100; [*]</text></g><!--entity leave--><g id="elem_leave"><rect fill="#F1F1F1" height="36.2969" rx="2.5" ry="2.5" style="stroke:#181818;stroke-width:0.5;" width="166" x="7" y="103"/><text fill="#000000" font-family="sans-serif" font-size="14" lengthAdjust="spacing" textLength="146" x="17" y="125.9951">&#1055;&#1086;&#1082;&#1080;&#1085;&#1091;&#1090;&#1100; &#1082;&#1072;&#1084;&#1087;&#1072;&#1085;&#1080;&#1102;</text></g><!--link searchRoom to viewRoom--><g id="link_searchRoom_viewRoom"><path d="M222.28,43.02 C241.19,58.89 269.43,82.59 289.57,99.5 " fill="none" id="searchRoom-to-viewRoom" style="stroke:#181818;stroke-width:1.0;"/><polygon fill="#181818" points="293.49,102.79,289.1691,93.9396,289.6606,99.575,284.0252,100.0666,293.49,102.79" style="stroke:#181818;stroke-width:1.0;"/></g><!--link viewRoom to joinRoom--><g id="link_viewRoom_joinRoom"><path d="M424.98,121 C433.24,121 441.49,121 449.74,121 " fill="none" id="viewRoom-joinRoom" style="stroke:#181818;stroke-width:1.0;"/><polygon fill="#181818" points="419.77,121,428.77,125,424.77,121,428.77,117,419.77,121" style="stroke:#181818;stroke-width:1.0;"/><polygon fill="#181818" points="454.88,121,445.88,117,449.88,121,445.88,125,454.88,121" style="stroke:#181818;stroke-width:1.0;"/></g><!--reverse link leave to viewRoom--><g id="link_leave_viewRoom"><path d="M178.35,121 C188.35,121 198.35,121 208.34,121 " fill="none" id="leave-backto-viewRoom" style="stroke:#181818;stroke-width:1.0;"/><polygon fill="#181818" points="173.12,121,182.1314,124.9743,178.12,120.9857,182.1085,116.9743,173.12,121" style="stroke:#181818;stroke-width:1.0;"/></g><!--reverse link searchRoom to leave--><g id="link_searchRoom_leave"><path d="M177.82,46.3 C157.74,63.15 129.5,86.85 110.51,102.79 " fill="none" id="searchRoom-backto-leave" style="stroke:#181818;stroke-width:1.0;"/><polygon fill="#181818" points="181.72,43.02,172.2552,45.7434,177.8906,46.235,177.3991,51.8704,181.72,43.02" style="stroke:#181818;stroke-width:1.0;"/></g><!--link viewRoom to importHero--><g id="link_viewRoom_importHero"><path d="M273.02,141.26 C238.49,157.49 189.33,180.59 154.84,196.8 " fill="none" id="viewRoom-importHero" style="stroke:#181818;stroke-width:1.0;"/><polygon fill="#181818" points="277.78,139.02,267.9336,139.2404,273.2575,141.1524,271.3455,146.4764,277.78,139.02" style="stroke:#181818;stroke-width:1.0;"/><polygon fill="#181818" points="150.29,198.95,160.1367,198.7416,154.8151,196.8231,156.7336,191.5015,150.29,198.95" style="stroke:#181818;stroke-width:1.0;"/></g><!--link viewRoom to createHero--><g id="link_viewRoom_createHero"><path d="M314,144.66 C314,159.52 314,178.85 314,193.64 " fill="none" id="viewRoom-createHero" style="stroke:#181818;stroke-width:1.0;"/><polygon fill="#181818" points="314,139.24,310,148.24,314,144.24,318,148.24,314,139.24" style="stroke:#181818;stroke-width:1.0;"/><polygon fill="#181818" points="314,198.87,318,189.87,314,193.87,310,189.87,314,198.87" style="stroke:#181818;stroke-width:1.0;"/></g><!--link viewRoom to play--><g id="link_viewRoom_play"><path d="M348.54,141.68 C376.77,157.76 416.47,180.38 444.64,196.43 " fill="none" id="viewRoom-play" style="stroke:#181818;stroke-width:1.0;"/><polygon fill="#181818" points="343.88,139.02,349.7237,146.9479,348.2256,141.493,353.6805,139.9949,343.88,139.02" style="stroke:#181818;stroke-width:1.0;"/><polygon fill="#181818" points="449.06,198.95,443.236,191.0077,444.7205,196.4662,439.262,197.9508,449.06,198.95" style="stroke:#181818;stroke-width:1.0;"/></g><!--SRC=[VP71Qi9054Nt-Oh1fV3-eCow2rT2LwMB8JpQbEZ862pT9RejtJOxyG-2RLgn6d_XpH_rPK9q9DRDS7dSS-7UCHWcQlmOe-XHRZFQKc7dzatKWdPqu7TF6_lU4segfgXC-3JKUXGOZrlQb2fcTuvDQKFhQocp25yw6HziEJGvWhs5eBNDE6F1y2-LDKub7oz7Fkjet8dCdQsogPqB5YMBZAewdBwfS5mqccYJtABHP-IARJ_qrPQup8O6LO8TDgTFhj6Gz_q7Pvt4wlLyCSxQSgEzNVo_KungXa5m6Xr07hThnGqCGHxhjrSOW6nmzy8TIE_lJYn8Rm7_x9NpptMHFm00]--></g></svg>