<?xml version="1.0" encoding="us-ascii" standalone="no"?><svg xmlns="http://www.w3.org/2000/svg" xmlns:xlink="http://www.w3.org/1999/xlink" contentStyleType="text/css" height="464px" preserveAspectRatio="none" style="width:960px;height:464px;background:#FFFFFF;" version="1.1" viewBox="0 0 960 464" width="960px" zoomAndPan="magnify"><defs/><g><!--cluster encounterMode--><g id="cluster_encounterMode"><rect fill="none" height="295" rx="2.5" ry="2.5" style="stroke:#181818;stroke-width:1.0;" width="689" x="265" y="163"/><text fill="#000000" font-family="sans-serif" font-size="14" font-weight="bold" lengthAdjust="spacing" textLength="175" x="522" y="177.9951">&#1056;&#1077;&#1078;&#1080;&#1084; &#1089;&#1090;&#1086;&#1083;&#1082;&#1085;&#1086;&#1074;&#1077;&#1085;&#1080;&#1103;</text></g><!--entity hint--><g id="elem_hint"><rect fill="#F1F1F1" height="36.2969" rx="2.5" ry="2.5" style="stroke:#181818;stroke-width:0.5;" width="153" x="625.5" y="398"/><text fill="#000000" font-family="sans-serif" font-size="14" lengthAdjust="spacing" textLength="133" x="635.5" y="420.9951">&#1047;&#1072;&#1087;&#1088;&#1086;&#1089; &#1087;&#1086;&#1076;&#1089;&#1082;&#1072;&#1079;&#1086;&#1082;</text></g><!--entity npcAct--><g id="elem_npcAct"><rect fill="#F1F1F1" height="36.2969" rx="2.5" ry="2.5" style="stroke:#181818;stroke-width:0.5;" width="205" x="383.5" y="206"/><text fill="#000000" font-family="sans-serif" font-size="14" lengthAdjust="spacing" textLength="185" x="393.5" y="228.9951">&#1044;&#1077;&#1081;&#1089;&#1090;&#1074;&#1080;&#1103; NPC &#1074; &#1089;&#1074;&#1086;&#1081; &#1093;&#1086;&#1076;</text></g><!--entity playerChecks--><g id="elem_playerChecks"><rect fill="#F1F1F1" height="36.2969" rx="2.5" ry="2.5" style="stroke:#181818;stroke-width:0.5;" width="307" x="623.5" y="206"/><text fill="#000000" font-family="sans-serif" font-size="14" lengthAdjust="spacing" textLength="287" x="633.5" y="228.9951">&#1054;&#1073;&#1088;&#1072;&#1073;&#1086;&#1090;&#1082;&#1072; &#1088;&#1077;&#1072;&#1082;&#1094;&#1080;&#1081; &#1080; &#1087;&#1088;&#1086;&#1074;&#1077;&#1088;&#1086;&#1082; &#1080;&#1075;&#1088;&#1086;&#1082;&#1072;</text></g><!--entity playerAct--><g id="elem_playerAct"><rect fill="#F1F1F1" height="36.2969" rx="2.5" ry="2.5" style="stroke:#181818;stroke-width:0.5;" width="229" x="663.5" y="302"/><text fill="#000000" font-family="sans-serif" font-size="14" lengthAdjust="spacing" textLength="209" x="673.5" y="324.9951">&#1054;&#1073;&#1088;&#1072;&#1073;&#1086;&#1090;&#1082;&#1072; &#1076;&#1077;&#1081;&#1089;&#1090;&#1074;&#1080;&#1081; &#1080;&#1075;&#1088;&#1086;&#1082;&#1072;</text></g><!--entity npcChecks--><g id="elem_npcChecks"><rect fill="#F1F1F1" height="36.2969" rx="2.5" ry="2.5" style="stroke:#181818;stroke-width:0.5;" width="294" x="297" y="302"/><text fill="#000000" font-family="sans-serif" font-size="14" lengthAdjust="spacing" textLength="274" x="307" y="324.9951">&#1054;&#1054;&#1073;&#1088;&#1072;&#1073;&#1086;&#1090;&#1082;&#1072; &#1088;&#1077;&#1072;&#1082;&#1094;&#1080;&#1081; &#1080; &#1087;&#1088;&#1086;&#1074;&#1077;&#1088;&#1086;&#1082; npc</text></g><!--entity exploreMode--><g id="elem_exploreMode"><rect fill="#F1F1F1" height="36.2969" rx="2.5" ry="2.5" style="stroke:#181818;stroke-width:0.5;" width="178" x="7" y="103"/><text fill="#000000" font-family="sans-serif" font-size="14" lengthAdjust="spacing" textLength="158" x="17" y="125.9951">&#1056;&#1077;&#1078;&#1080;&#1084; &#1080;&#1089;&#1089;&#1083;&#1077;&#1076;&#1086;&#1074;&#1072;&#1085;&#1080;&#1103;</text></g><!--entity travelMode--><g id="elem_travelMode"><rect fill="#F1F1F1" height="36.2969" rx="2.5" ry="2.5" style="stroke:#181818;stroke-width:0.5;" width="172" x="10" y="206"/><text fill="#000000" font-family="sans-serif" font-size="14" lengthAdjust="spacing" textLength="152" x="20" y="228.9951">&#1056;&#1077;&#1078;&#1080;&#1084; &#1087;&#1091;&#1090;&#1077;&#1096;&#1077;&#1089;&#1090;&#1074;&#1080;&#1103;</text></g><!--entity downtimeMode--><g id="elem_downtimeMode"><rect fill="#F1F1F1" height="36.2969" rx="2.5" ry="2.5" style="stroke:#181818;stroke-width:0.5;" width="128" x="32" y="7"/><text fill="#000000" font-family="sans-serif" font-size="14" lengthAdjust="spacing" textLength="108" x="42" y="29.9951">&#1056;&#1077;&#1078;&#1080;&#1084; &#1086;&#1090;&#1076;&#1099;&#1093;&#1072;</text></g><!--entity init--><g id="elem_init"><rect fill="#F1F1F1" height="36.2969" rx="2.5" ry="2.5" style="stroke:#181818;stroke-width:0.5;" width="217" x="220.5" y="103"/><text fill="#000000" font-family="sans-serif" font-size="14" lengthAdjust="spacing" textLength="197" x="230.5" y="125.9951">&#1054;&#1087;&#1088;&#1077;&#1076;&#1077;&#1083;&#1077;&#1085;&#1080;&#1077; &#1080;&#1085;&#1080;&#1094;&#1080;&#1072;&#1090;&#1080;&#1074;&#1099;</text></g><!--link npcAct to playerChecks--><g id="link_npcAct_playerChecks"><path d="M593.72,224 C601.85,224 609.99,224 618.12,224 " fill="none" id="npcAct-playerChecks" style="stroke:#181818;stroke-width:1.0;"/><polygon fill="#181818" points="588.59,224,597.59,228,593.59,224,597.59,220,588.59,224" style="stroke:#181818;stroke-width:1.0;"/><polygon fill="#181818" points="623.18,224,614.18,220,618.18,224,614.18,228,623.18,224" style="stroke:#181818;stroke-width:1.0;"/></g><!--link playerAct to npcChecks--><g id="link_playerAct_npcChecks"><path d="M658.13,320 C637.48,320 616.83,320 596.19,320 " fill="none" id="playerAct-npcChecks" style="stroke:#181818;stroke-width:1.0;"/><polygon fill="#181818" points="663.38,320,654.38,316,658.38,320,654.38,324,663.38,320" style="stroke:#181818;stroke-width:1.0;"/><polygon fill="#181818" points="591.1,320,600.1,324,596.1,320,600.1,316,591.1,320" style="stroke:#181818;stroke-width:1.0;"/></g><!--link playerChecks to playerAct--><g id="link_playerChecks_playerAct"><path d="M777.18,242.24 C777.35,257.48 777.58,279.81 777.76,296.46 " fill="none" id="playerChecks-to-playerAct" style="stroke:#181818;stroke-width:1.0;"/><polygon fill="#181818" points="777.82,301.87,781.7169,292.8249,777.7629,296.8703,773.7174,292.9163,777.82,301.87" style="stroke:#181818;stroke-width:1.0;"/></g><!--link npcChecks to npcAct--><g id="link_npcChecks_npcAct"><path d="M451.65,301.87 C458.51,286.53 468.6,263.95 476.07,247.23 " fill="none" id="npcChecks-to-npcAct" style="stroke:#181818;stroke-width:1.0;"/><polygon fill="#181818" points="478.3,242.24,470.9685,248.8164,476.2547,246.8025,478.2685,252.0888,478.3,242.24" style="stroke:#181818;stroke-width:1.0;"/></g><!--link npcAct to hint--><g id="link_npcAct_hint"><path d="M519.57,242.13 C545.49,256.24 581.46,277.81 609,302 C642.79,331.68 674.31,374.34 690.55,397.84 " fill="none" id="npcAct-hint" style="stroke:#181818;stroke-width:1.0;stroke-dasharray:7.0,7.0;"/></g><!--link playerAct to hint--><g id="link_playerAct_hint"><path d="M764.06,338.24 C750.35,355.2 729.53,380.95 715.85,397.87 " fill="none" id="playerAct-hint" style="stroke:#181818;stroke-width:1.0;stroke-dasharray:7.0,7.0;"/></g><!--link playerChecks to hint--><g id="link_playerChecks_hint"><path d="M826.3,242.13 C875.06,261.89 938.56,296.97 910,338 C880.52,380.35 824.91,399.46 778.61,408.06 " fill="none" id="playerChecks-hint" style="stroke:#181818;stroke-width:1.0;stroke-dasharray:7.0,7.0;"/></g><!--link npcChecks to hint--><g id="link_npcChecks_hint"><path d="M490.72,338.02 C537.33,355.01 608.55,380.95 655.19,397.95 " fill="none" id="npcChecks-hint" style="stroke:#181818;stroke-width:1.0;stroke-dasharray:7.0,7.0;"/></g><!--link downtimeMode to exploreMode--><g id="link_downtimeMode_exploreMode"><path d="M96,48.66 C96,63.52 96,82.85 96,97.64 " fill="none" id="downtimeMode-exploreMode" style="stroke:#181818;stroke-width:1.0;"/><polygon fill="#181818" points="96,43.24,92,52.24,96,48.24,100,52.24,96,43.24" style="stroke:#181818;stroke-width:1.0;"/><polygon fill="#181818" points="96,102.87,100,93.87,96,97.87,92,93.87,96,102.87" style="stroke:#181818;stroke-width:1.0;"/></g><!--link exploreMode to init--><g id="link_exploreMode_init"><path d="M185.2,121 C195.16,121 205.13,121 215.09,121 " fill="none" id="exploreMode-to-init" style="stroke:#181818;stroke-width:1.0;"/><polygon fill="#181818" points="220.3,121,211.3,117,215.3,121,211.3,125,220.3,121" style="stroke:#181818;stroke-width:1.0;"/></g><!--link exploreMode to travelMode--><g id="link_exploreMode_travelMode"><path d="M96,144.15 C96,160.95 96,183.95 96,200.77 " fill="none" id="exploreMode-travelMode" style="stroke:#181818;stroke-width:1.0;"/><polygon fill="#181818" points="96,139.13,92,148.13,96,144.13,100,148.13,96,139.13" style="stroke:#181818;stroke-width:1.0;"/><polygon fill="#181818" points="96,205.78,100,196.78,96,200.78,92,196.78,96,205.78" style="stroke:#181818;stroke-width:1.0;"/></g><!--link init to encounterMode--><g id="link_init_encounterMode"><path d="M288.23,139.09 C285.48,141.42 283.01,144.05 281,147 C278.685,150.4 276.8133,154.0909 275.3114,157.9525 C274.936,158.9179 274.5836,159.8939 274.2533,160.8788 C274.0881,161.3712 273.9284,161.8658 273.7741,162.3624 C273.7355,162.4865 273.6972,162.6108 273.6593,162.7352 " fill="none" id="init-to-encounterMode" style="stroke:#181818;stroke-width:1.0;"/><polygon fill="#181818" points="273.6593,162.7352,280.1099,155.2928,275.1173,157.9525,272.4576,152.9599,273.6593,162.7352" style="stroke:#181818;stroke-width:1.0;"/></g><!--reverse link exploreMode to encounterMode--><g id="link_exploreMode_encounterMode"><path d="M187.15,141.05 C191.24,142.86 195.21,144.84 199,147 C218.835,158.315 236.8175,176.5 250.0875,192.245 C253.405,196.1813 256.428,199.965 259.1117,203.4508 C260.4536,205.1937 261.7107,206.8621 262.8773,208.4378 C263.4607,209.2257 264.0214,209.9903 264.5589,210.7296 C264.6932,210.9144 264.8261,211.0976 264.9576,211.2792 " fill="none" id="exploreMode-backto-encounterMode" style="stroke:#181818;stroke-width:1.0;"/><polygon fill="#181818" points="182.3,139.01,189.0425,146.1891,186.9082,140.9503,192.1469,138.816,182.3,139.01" style="stroke:#181818;stroke-width:1.0;"/></g><!--SRC=[dLDDIiD05Dxd58_kqnCKGRfMHF008HriC2ObZN-8O2gAq8KRmLtn26birQQQNk7DZNppaYOJqg9Oc6GwUT_FVFCc47PeUSUkW1PES2LlSOup6aiQt_Y9Sw07JUG3lMCvecSYnosmXk1uJcW46lwLCEzKy0KoeigCI5B2PfZaPFA9SSAp_JCl5C6UtnDmRHX0Fvtd1MDsaia8S4NucOo8ASOFcgVCqNUyi85x9fa5IoTA3FOFke09cQ7_6Iv0tYikndi3UzTkCanmIhenJabxf2I10uanvVqlA0p8hQazyJjL0RtbKuoPVE1QLoBezeLzClo31ETT-cQHZOIR3V_BCcr_7ODcCmy5EkQXkTFSH6cYAAXZzN8mI_pQSrdCtxJq2yrskphIIgYvMf3e7ohgzUhDbgwafeYe6PRSuYgEME_Aou7h1wBeoQqKAtb7CS_b8usoqvWW3AnpuVw6LuSqasDgnVneU_w55pgdbQvHM-cek3HhXcwJZu5leRxAaCgCeGeuzTgzC-gtq3ogw_m0]--></g></svg>