<?xml version="1.0" encoding="us-ascii" standalone="no"?><svg xmlns="http://www.w3.org/2000/svg" xmlns:xlink="http://www.w3.org/1999/xlink" contentStyleType="text/css" height="932px" preserveAspectRatio="none" style="width:1303px;height:932px;background:#FFFFFF;" version="1.1" viewBox="0 0 1303 932" width="1303px" zoomAndPan="magnify"><defs/><g><rect fill="#FFFAFA" height="920.9922" style="stroke:#181818;stroke-width:0.5;" width="889" x="275.5" y="6"/><text fill="#000000" font-family="sans-serif" font-size="13" font-weight="bold" lengthAdjust="spacing" textLength="90" x="672.5" y="18.0669">&#1055;&#1083;&#1072;&#1090;&#1092;&#1086;&#1088;&#1084;&#1072;</text><rect fill="none" height="103.3984" style="stroke:#000000;stroke-width:1.5;" width="360.5" x="79" y="365.1641"/><line style="stroke:#181818;stroke-width:0.5;stroke-dasharray:5.0,5.0;" x1="42" x2="42" y1="87.4297" y2="847.6953"/><line style="stroke:#181818;stroke-width:0.5;stroke-dasharray:5.0,5.0;" x1="113" x2="113" y1="87.4297" y2="847.6953"/><line style="stroke:#181818;stroke-width:0.5;stroke-dasharray:5.0,5.0;" x1="323.5" x2="323.5" y1="87.4297" y2="847.6953"/><line style="stroke:#181818;stroke-width:0.5;stroke-dasharray:5.0,5.0;" x1="403.5" x2="403.5" y1="87.4297" y2="847.6953"/><line style="stroke:#181818;stroke-width:0.5;stroke-dasharray:5.0,5.0;" x1="547.5" x2="547.5" y1="87.4297" y2="847.6953"/><line style="stroke:#181818;stroke-width:0.5;stroke-dasharray:5.0,5.0;" x1="733.5" x2="733.5" y1="87.4297" y2="847.6953"/><line style="stroke:#181818;stroke-width:0.5;stroke-dasharray:5.0,5.0;" x1="862.5" x2="862.5" y1="87.4297" y2="847.6953"/><line style="stroke:#181818;stroke-width:0.5;stroke-dasharray:5.0,5.0;" x1="956.5" x2="956.5" y1="87.4297" y2="847.6953"/><line style="stroke:#181818;stroke-width:0.5;stroke-dasharray:5.0,5.0;" x1="1045.5" x2="1045.5" y1="87.4297" y2="847.6953"/><line style="stroke:#181818;stroke-width:0.5;stroke-dasharray:5.0,5.0;" x1="1130.5" x2="1130.5" y1="87.4297" y2="847.6953"/><line style="stroke:#181818;stroke-width:0.5;stroke-dasharray:5.0,5.0;" x1="1192.5" x2="1192.5" y1="87.4297" y2="847.6953"/><line style="stroke:#181818;stroke-width:0.5;stroke-dasharray:5.0,5.0;" x1="1258.5" x2="1258.5" y1="87.4297" y2="847.6953"/><text fill="#000000" font-family="sans-serif" font-size="14" lengthAdjust="spacing" textLength="68" x="5" y="84.1279">&#1042;&#1077;&#1076;&#1091;&#1097;&#1080;&#1081;</text><ellipse cx="42" cy="19.6328" fill="#E2E2F0" rx="8" ry="8" style="stroke:#181818;stroke-width:0.5;"/><path d="M42,27.6328 L42,54.6328 M29,35.6328 L55,35.6328 M42,54.6328 L29,69.6328 M42,54.6328 L55,69.6328 " fill="none" style="stroke:#181818;stroke-width:0.5;"/><text fill="#000000" font-family="sans-serif" font-size="14" lengthAdjust="spacing" textLength="68" x="5" y="859.6904">&#1042;&#1077;&#1076;&#1091;&#1097;&#1080;&#1081;</text><ellipse cx="42" cy="871.4922" fill="#E2E2F0" rx="8" ry="8" style="stroke:#181818;stroke-width:0.5;"/><path d="M42,879.4922 L42,906.4922 M29,887.4922 L55,887.4922 M42,906.4922 L29,921.4922 M42,906.4922 L55,921.4922 " fill="none" style="stroke:#181818;stroke-width:0.5;"/><text fill="#000000" font-family="sans-serif" font-size="14" lengthAdjust="spacing" textLength="43" x="89" y="84.1279">&#1048;&#1075;&#1088;&#1086;&#1082;</text><ellipse cx="113.5" cy="19.6328" fill="#E2E2F0" rx="8" ry="8" style="stroke:#181818;stroke-width:0.5;"/><path d="M113.5,27.6328 L113.5,54.6328 M100.5,35.6328 L126.5,35.6328 M113.5,54.6328 L100.5,69.6328 M113.5,54.6328 L126.5,69.6328 " fill="none" style="stroke:#181818;stroke-width:0.5;"/><text fill="#000000" font-family="sans-serif" font-size="14" lengthAdjust="spacing" textLength="43" x="89" y="859.6904">&#1048;&#1075;&#1088;&#1086;&#1082;</text><ellipse cx="113.5" cy="871.4922" fill="#E2E2F0" rx="8" ry="8" style="stroke:#181818;stroke-width:0.5;"/><path d="M113.5,879.4922 L113.5,906.4922 M100.5,887.4922 L126.5,887.4922 M113.5,906.4922 L100.5,921.4922 M113.5,906.4922 L126.5,921.4922 " fill="none" style="stroke:#181818;stroke-width:0.5;"/><rect fill="#E2E2F0" height="30.2969" rx="2.5" ry="2.5" style="stroke:#181818;stroke-width:0.5;" width="89" x="279.5" y="56.1328"/><text fill="#000000" font-family="sans-serif" font-size="14" lengthAdjust="spacing" textLength="75" x="286.5" y="76.1279">API Gatway</text><rect fill="#E2E2F0" height="30.2969" rx="2.5" ry="2.5" style="stroke:#181818;stroke-width:0.5;" width="89" x="279.5" y="846.6953"/><text fill="#000000" font-family="sans-serif" font-size="14" lengthAdjust="spacing" textLength="75" x="286.5" y="866.6904">API Gatway</text><rect fill="#E2E2F0" height="30.2969" rx="2.5" ry="2.5" style="stroke:#181818;stroke-width:0.5;" width="51" x="378.5" y="56.1328"/><text fill="#000000" font-family="sans-serif" font-size="14" lengthAdjust="spacing" textLength="37" x="385.5" y="76.1279">&#1071;&#1076;&#1088;&#1086;</text><rect fill="#E2E2F0" height="30.2969" rx="2.5" ry="2.5" style="stroke:#181818;stroke-width:0.5;" width="51" x="378.5" y="846.6953"/><text fill="#000000" font-family="sans-serif" font-size="14" lengthAdjust="spacing" textLength="37" x="385.5" y="866.6904">&#1071;&#1076;&#1088;&#1086;</text><path d="M444.5,61.1328 L650.5,61.1328 C655.5,61.1328 655.5,74.2813 655.5,74.2813 C655.5,74.2813 655.5,87.4297 650.5,87.4297 L444.5,87.4297 C439.5,87.4297 439.5,74.2813 439.5,74.2813 C439.5,74.2813 439.5,61.1328 444.5,61.1328 " fill="#E2E2F0" style="stroke:#181818;stroke-width:0.5;"/><path d="M650.5,61.1328 C645.5,61.1328 645.5,74.2813 645.5,74.2813 C645.5,87.4297 650.5,87.4297 650.5,87.4297 " fill="none" style="stroke:#181818;stroke-width:0.5;"/><text fill="#000000" font-family="sans-serif" font-size="14" lengthAdjust="spacing" textLength="196" x="444.5" y="79.1279">&#1054;&#1095;&#1077;&#1088;&#1077;&#1076;&#1100; &#1080;&#1075;&#1088;&#1086;&#1074;&#1099;&#1093; &#1089;&#1086;&#1073;&#1099;&#1090;&#1080;&#1081;</text><path d="M444.5,846.6953 L650.5,846.6953 C655.5,846.6953 655.5,859.8438 655.5,859.8438 C655.5,859.8438 655.5,872.9922 650.5,872.9922 L444.5,872.9922 C439.5,872.9922 439.5,859.8438 439.5,859.8438 C439.5,859.8438 439.5,846.6953 444.5,846.6953 " fill="#E2E2F0" style="stroke:#181818;stroke-width:0.5;"/><path d="M650.5,846.6953 C645.5,846.6953 645.5,859.8438 645.5,859.8438 C645.5,872.9922 650.5,872.9922 650.5,872.9922 " fill="none" style="stroke:#181818;stroke-width:0.5;"/><text fill="#000000" font-family="sans-serif" font-size="14" lengthAdjust="spacing" textLength="196" x="444.5" y="864.6904">&#1054;&#1095;&#1077;&#1088;&#1077;&#1076;&#1100; &#1080;&#1075;&#1088;&#1086;&#1074;&#1099;&#1093; &#1089;&#1086;&#1073;&#1099;&#1090;&#1080;&#1081;</text><text fill="#000000" font-family="sans-serif" font-size="14" lengthAdjust="spacing" textLength="130" x="665.5" y="84.1279">&#1041;&#1044; &#1089;&#1086;&#1073;&#1099;&#1090;&#1080;&#1081; &#1080;&#1075;&#1088;&#1099;</text><path d="M715.5,35.1328 C715.5,25.1328 733.5,25.1328 733.5,25.1328 C733.5,25.1328 751.5,25.1328 751.5,35.1328 L751.5,61.1328 C751.5,71.1328 733.5,71.1328 733.5,71.1328 C733.5,71.1328 715.5,71.1328 715.5,61.1328 L715.5,35.1328 " fill="#E2E2F0" style="stroke:#181818;stroke-width:1.5;"/><path d="M715.5,35.1328 C715.5,45.1328 733.5,45.1328 733.5,45.1328 C733.5,45.1328 751.5,45.1328 751.5,35.1328 " fill="none" style="stroke:#181818;stroke-width:1.5;"/><text fill="#000000" font-family="sans-serif" font-size="14" lengthAdjust="spacing" textLength="130" x="665.5" y="859.6904">&#1041;&#1044; &#1089;&#1086;&#1073;&#1099;&#1090;&#1080;&#1081; &#1080;&#1075;&#1088;&#1099;</text><path d="M715.5,872.9922 C715.5,862.9922 733.5,862.9922 733.5,862.9922 C733.5,862.9922 751.5,862.9922 751.5,872.9922 L751.5,898.9922 C751.5,908.9922 733.5,908.9922 733.5,908.9922 C733.5,908.9922 715.5,908.9922 715.5,898.9922 L715.5,872.9922 " fill="#E2E2F0" style="stroke:#181818;stroke-width:1.5;"/><path d="M715.5,872.9922 C715.5,882.9922 733.5,882.9922 733.5,882.9922 C733.5,882.9922 751.5,882.9922 751.5,872.9922 " fill="none" style="stroke:#181818;stroke-width:1.5;"/><text fill="#000000" font-family="sans-serif" font-size="14" lengthAdjust="spacing" textLength="97" x="811.5" y="84.1279">&#1041;&#1044; &#1086;&#1073;&#1098;&#1077;&#1082;&#1090;&#1086;&#1074;</text><path d="M845,35.1328 C845,25.1328 863,25.1328 863,25.1328 C863,25.1328 881,25.1328 881,35.1328 L881,61.1328 C881,71.1328 863,71.1328 863,71.1328 C863,71.1328 845,71.1328 845,61.1328 L845,35.1328 " fill="#E2E2F0" style="stroke:#181818;stroke-width:1.5;"/><path d="M845,35.1328 C845,45.1328 863,45.1328 863,45.1328 C863,45.1328 881,45.1328 881,35.1328 " fill="none" style="stroke:#181818;stroke-width:1.5;"/><text fill="#000000" font-family="sans-serif" font-size="14" lengthAdjust="spacing" textLength="97" x="811.5" y="859.6904">&#1041;&#1044; &#1086;&#1073;&#1098;&#1077;&#1082;&#1090;&#1086;&#1074;</text><path d="M845,872.9922 C845,862.9922 863,862.9922 863,862.9922 C863,862.9922 881,862.9922 881,872.9922 L881,898.9922 C881,908.9922 863,908.9922 863,908.9922 C863,908.9922 845,908.9922 845,898.9922 L845,872.9922 " fill="#E2E2F0" style="stroke:#181818;stroke-width:1.5;"/><path d="M845,872.9922 C845,882.9922 863,882.9922 863,882.9922 C863,882.9922 881,882.9922 881,872.9922 " fill="none" style="stroke:#181818;stroke-width:1.5;"/><text fill="#000000" font-family="sans-serif" font-size="14" lengthAdjust="spacing" textLength="59" x="924.5" y="84.1279">&#1041;&#1044; &#1082;&#1085;&#1080;&#1075;</text><path d="M939,35.1328 C939,25.1328 957,25.1328 957,25.1328 C957,25.1328 975,25.1328 975,35.1328 L975,61.1328 C975,71.1328 957,71.1328 957,71.1328 C957,71.1328 939,71.1328 939,61.1328 L939,35.1328 " fill="#E2E2F0" style="stroke:#181818;stroke-width:1.5;"/><path d="M939,35.1328 C939,45.1328 957,45.1328 957,45.1328 C957,45.1328 975,45.1328 975,35.1328 " fill="none" style="stroke:#181818;stroke-width:1.5;"/><text fill="#000000" font-family="sans-serif" font-size="14" lengthAdjust="spacing" textLength="59" x="924.5" y="859.6904">&#1041;&#1044; &#1082;&#1085;&#1080;&#1075;</text><path d="M939,872.9922 C939,862.9922 957,862.9922 957,862.9922 C957,862.9922 975,862.9922 975,872.9922 L975,898.9922 C975,908.9922 957,908.9922 957,908.9922 C957,908.9922 939,908.9922 939,898.9922 L939,872.9922 " fill="#E2E2F0" style="stroke:#181818;stroke-width:1.5;"/><path d="M939,872.9922 C939,882.9922 957,882.9922 957,882.9922 C957,882.9922 975,882.9922 975,872.9922 " fill="none" style="stroke:#181818;stroke-width:1.5;"/><rect fill="#E2E2F0" height="30.2969" rx="2.5" ry="2.5" style="stroke:#181818;stroke-width:0.5;" width="92" x="999.5" y="56.1328"/><text fill="#000000" font-family="sans-serif" font-size="14" lengthAdjust="spacing" textLength="78" x="1006.5" y="76.1279">&#1055;&#1086;&#1076;&#1089;&#1082;&#1072;&#1079;&#1082;&#1080;</text><rect fill="#E2E2F0" height="30.2969" rx="2.5" ry="2.5" style="stroke:#181818;stroke-width:0.5;" width="92" x="999.5" y="846.6953"/><text fill="#000000" font-family="sans-serif" font-size="14" lengthAdjust="spacing" textLength="78" x="1006.5" y="866.6904">&#1055;&#1086;&#1076;&#1089;&#1082;&#1072;&#1079;&#1082;&#1080;</text><text fill="#000000" font-family="sans-serif" font-size="14" lengthAdjust="spacing" textLength="53" x="1101.5" y="84.1279">Discord</text><path d="M1110.5,43.1328 L1110.5,67.1328 M1110.5,55.1328 L1127.5,55.1328 " fill="none" style="stroke:#181818;stroke-width:0.5;"/><ellipse cx="1139.5" cy="55.1328" fill="#E2E2F0" rx="12" ry="12" style="stroke:#181818;stroke-width:0.5;"/><text fill="#000000" font-family="sans-serif" font-size="14" lengthAdjust="spacing" textLength="53" x="1101.5" y="859.6904">Discord</text><path d="M1110.5,866.9922 L1110.5,890.9922 M1110.5,878.9922 L1127.5,878.9922 " fill="none" style="stroke:#181818;stroke-width:0.5;"/><ellipse cx="1139.5" cy="878.9922" fill="#E2E2F0" rx="12" ry="12" style="stroke:#181818;stroke-width:0.5;"/><rect fill="#E2E2F0" height="30.2969" rx="2.5" ry="2.5" style="stroke:#181818;stroke-width:0.5;" width="45" x="1170.5" y="56.1328"/><text fill="#000000" font-family="sans-serif" font-size="14" lengthAdjust="spacing" textLength="31" x="1177.5" y="76.1279">user</text><rect fill="#E2E2F0" height="30.2969" rx="2.5" ry="2.5" style="stroke:#181818;stroke-width:0.5;" width="45" x="1170.5" y="846.6953"/><text fill="#000000" font-family="sans-serif" font-size="14" lengthAdjust="spacing" textLength="31" x="1177.5" y="866.6904">user</text><rect fill="#E2E2F0" height="30.2969" rx="2.5" ry="2.5" style="stroke:#181818;stroke-width:0.5;" width="66" x="1225.5" y="56.1328"/><text fill="#000000" font-family="sans-serif" font-size="14" lengthAdjust="spacing" textLength="52" x="1232.5" y="76.1279">userDB</text><rect fill="#E2E2F0" height="30.2969" rx="2.5" ry="2.5" style="stroke:#181818;stroke-width:0.5;" width="66" x="1225.5" y="846.6953"/><text fill="#000000" font-family="sans-serif" font-size="14" lengthAdjust="spacing" textLength="52" x="1232.5" y="866.6904">userDB</text><rect fill="#EEEEEE" height="3" style="stroke:#EEEEEE;stroke-width:1.0;" width="1296.5" x="0" y="117.9961"/><line style="stroke:#000000;stroke-width:1.0;" x1="0" x2="1296.5" y1="117.9961" y2="117.9961"/><line style="stroke:#000000;stroke-width:1.0;" x1="0" x2="1296.5" y1="120.9961" y2="120.9961"/><rect fill="#EEEEEE" height="23.1328" style="stroke:#000000;stroke-width:2.0;" width="185" x="555.75" y="107.4297"/><text fill="#000000" font-family="sans-serif" font-size="13" font-weight="bold" lengthAdjust="spacing" textLength="171" x="561.75" y="123.4966">&#1042;&#1099;&#1087;&#1086;&#1083;&#1085;&#1077;&#1085;&#1080;&#1077; &#1076;&#1077;&#1081;&#1089;&#1090;&#1074;&#1080;&#1081;</text><polygon fill="#181818" points="312,157.6953,322,161.6953,312,165.6953,316,161.6953" style="stroke:#181818;stroke-width:1.0;"/><line style="stroke:#181818;stroke-width:1.0;stroke-dasharray:2.0,2.0;" x1="113.5" x2="318" y1="161.6953" y2="161.6953"/><text fill="#000000" font-family="sans-serif" font-size="13" lengthAdjust="spacing" textLength="137" x="120.5" y="156.6294">&#1079;&#1072;&#1103;&#1074;&#1082;&#1072; &#1085;&#1072; &#1076;&#1077;&#1081;&#1089;&#1090;&#1074;&#1080;&#1077;</text><polygon fill="#181818" points="392,171.6953,402,175.6953,392,179.6953,396,175.6953" style="stroke:#181818;stroke-width:1.0;"/><line style="stroke:#181818;stroke-width:1.0;stroke-dasharray:2.0,2.0;" x1="324" x2="398" y1="175.6953" y2="175.6953"/><rect fill="none" height="39.1016" style="stroke:#000000;stroke-width:1.5;" width="1018" x="276.5" y="183.6953"/><path d="M276.5,183.6953 L342.5,183.6953 L342.5,190.6953 L332.5,200.6953 L276.5,200.6953 L276.5,183.6953 " fill="#EEEEEE" style="stroke:#000000;stroke-width:2.0;"/><text fill="#000000" font-family="sans-serif" font-size="13" font-weight="bold" lengthAdjust="spacing" textLength="21" x="289.5" y="197.7622">ref</text><text fill="#000000" font-family="sans-serif" font-size="12" lengthAdjust="spacing" textLength="156" x="707.5" y="215.834">&#1089;&#1094;&#1077;&#1085;&#1072;&#1088;&#1080;&#1081; &#1072;&#1074;&#1090;&#1086;&#1088;&#1080;&#1079;&#1072;&#1094;&#1080;&#1080;</text><polygon fill="#181818" points="335,229.7969,325,233.7969,335,237.7969,331,233.7969" style="stroke:#181818;stroke-width:1.0;"/><line style="stroke:#181818;stroke-width:1.0;stroke-dasharray:2.0,2.0;" x1="329" x2="403" y1="233.7969" y2="233.7969"/><polygon fill="#181818" points="53,258.9297,43,262.9297,53,266.9297,49,262.9297" style="stroke:#181818;stroke-width:1.0;"/><line style="stroke:#181818;stroke-width:1.0;stroke-dasharray:2.0,2.0;" x1="47" x2="323" y1="262.9297" y2="262.9297"/><text fill="#000000" font-family="sans-serif" font-size="13" lengthAdjust="spacing" textLength="147" x="59" y="257.8638">&#1086;&#1087;&#1086;&#1074;&#1077;&#1097;&#1077;&#1085;&#1080;&#1077; &#1086; &#1079;&#1072;&#1103;&#1074;&#1082;&#1077;</text><polygon fill="#181818" points="312,288.0625,322,292.0625,312,296.0625,316,292.0625" style="stroke:#181818;stroke-width:1.0;"/><line style="stroke:#181818;stroke-width:1.0;stroke-dasharray:2.0,2.0;" x1="42" x2="318" y1="292.0625" y2="292.0625"/><text fill="#000000" font-family="sans-serif" font-size="13" lengthAdjust="spacing" textLength="258" x="49" y="286.9966">&#1086;&#1076;&#1086;&#1073;&#1088;&#1077;&#1085;&#1080;&#1077; &#1079;&#1072;&#1103;&#1074;&#1082;&#1080; + &#1089;&#1087;&#1080;&#1089;&#1086;&#1082; &#1087;&#1088;&#1086;&#1074;&#1077;&#1088;&#1086;&#1082;</text><polygon fill="#181818" points="392,302.0625,402,306.0625,392,310.0625,396,306.0625" style="stroke:#181818;stroke-width:1.0;"/><line style="stroke:#181818;stroke-width:1.0;stroke-dasharray:2.0,2.0;" x1="324" x2="398" y1="306.0625" y2="306.0625"/><rect fill="none" height="39.1016" style="stroke:#000000;stroke-width:1.5;" width="1018" x="276.5" y="314.0625"/><path d="M276.5,314.0625 L342.5,314.0625 L342.5,321.0625 L332.5,331.0625 L276.5,331.0625 L276.5,314.0625 " fill="#EEEEEE" style="stroke:#000000;stroke-width:2.0;"/><text fill="#000000" font-family="sans-serif" font-size="13" font-weight="bold" lengthAdjust="spacing" textLength="21" x="289.5" y="328.1294">ref</text><text fill="#000000" font-family="sans-serif" font-size="12" lengthAdjust="spacing" textLength="156" x="707.5" y="346.2012">&#1089;&#1094;&#1077;&#1085;&#1072;&#1088;&#1080;&#1081; &#1072;&#1074;&#1090;&#1086;&#1088;&#1080;&#1079;&#1072;&#1094;&#1080;&#1080;</text><path d="M79,365.1641 L143,365.1641 L143,372.2969 L133,382.2969 L79,382.2969 L79,365.1641 " fill="#EEEEEE" style="stroke:#000000;stroke-width:1.5;"/><rect fill="none" height="103.3984" style="stroke:#000000;stroke-width:1.5;" width="360.5" x="79" y="365.1641"/><text fill="#000000" font-family="sans-serif" font-size="13" font-weight="bold" lengthAdjust="spacing" textLength="19" x="94" y="378.231">alt</text><text fill="#000000" font-family="sans-serif" font-size="11" font-weight="bold" lengthAdjust="spacing" textLength="174" x="158" y="377.3745">[&#1079;&#1072;&#1103;&#1074;&#1082;&#1072; &#1090;&#1088;&#1077;&#1073;&#1091;&#1077;&#1090; &#1087;&#1088;&#1086;&#1074;&#1077;&#1088;&#1086;&#1082;]</text><polygon fill="#181818" points="335,384.2969,325,388.2969,335,392.2969,331,388.2969" style="stroke:#181818;stroke-width:1.0;"/><line style="stroke:#181818;stroke-width:1.0;stroke-dasharray:2.0,2.0;" x1="329" x2="403" y1="388.2969" y2="388.2969"/><polygon fill="#181818" points="124.5,413.4297,114.5,417.4297,124.5,421.4297,120.5,417.4297" style="stroke:#181818;stroke-width:1.0;"/><line style="stroke:#181818;stroke-width:1.0;stroke-dasharray:2.0,2.0;" x1="118.5" x2="323" y1="417.4297" y2="417.4297"/><text fill="#000000" font-family="sans-serif" font-size="13" lengthAdjust="spacing" textLength="114" x="130.5" y="412.3638">&#1079;&#1072;&#1087;&#1088;&#1086;&#1089; &#1087;&#1088;&#1086;&#1074;&#1077;&#1088;&#1086;&#1082;</text><polygon fill="#181818" points="312,442.5625,322,446.5625,312,450.5625,316,446.5625" style="stroke:#181818;stroke-width:1.0;"/><line style="stroke:#181818;stroke-width:1.0;stroke-dasharray:2.0,2.0;" x1="113.5" x2="318" y1="446.5625" y2="446.5625"/><text fill="#000000" font-family="sans-serif" font-size="13" lengthAdjust="spacing" textLength="150" x="120.5" y="441.4966">&#1074;&#1099;&#1087;&#1086;&#1083;&#1085;&#1077;&#1085;&#1080;&#1077; &#1087;&#1088;&#1086;&#1074;&#1077;&#1088;&#1082;&#1080;</text><polygon fill="#181818" points="392,456.5625,402,460.5625,392,464.5625,396,460.5625" style="stroke:#181818;stroke-width:1.0;"/><line style="stroke:#181818;stroke-width:1.0;stroke-dasharray:2.0,2.0;" x1="324" x2="398" y1="460.5625" y2="460.5625"/><polygon fill="#181818" points="335,477.5625,325,481.5625,335,485.5625,331,481.5625" style="stroke:#181818;stroke-width:1.0;"/><line style="stroke:#181818;stroke-width:1.0;stroke-dasharray:2.0,2.0;" x1="329" x2="403" y1="481.5625" y2="481.5625"/><polygon fill="#181818" points="53,506.6953,43,510.6953,53,514.6953,49,510.6953" style="stroke:#181818;stroke-width:1.0;"/><line style="stroke:#181818;stroke-width:1.0;stroke-dasharray:2.0,2.0;" x1="47" x2="323" y1="510.6953" y2="510.6953"/><text fill="#000000" font-family="sans-serif" font-size="13" lengthAdjust="spacing" textLength="226" x="59" y="505.6294">&#1088;&#1077;&#1079;&#1091;&#1083;&#1100;&#1090;&#1072;&#1090; &#1074;&#1099;&#1087;&#1086;&#1083;&#1085;&#1077;&#1085;&#1080;&#1103; &#1087;&#1088;&#1086;&#1074;&#1077;&#1088;&#1082;&#1080;</text><polygon fill="#181818" points="312,535.8281,322,539.8281,312,543.8281,316,539.8281" style="stroke:#181818;stroke-width:1.0;"/><line style="stroke:#181818;stroke-width:1.0;stroke-dasharray:2.0,2.0;" x1="42" x2="318" y1="539.8281" y2="539.8281"/><text fill="#000000" font-family="sans-serif" font-size="13" lengthAdjust="spacing" textLength="122" x="49" y="534.7622">&#1079;&#1072;&#1087;&#1088;&#1086;&#1089; &#1087;&#1086;&#1076;&#1089;&#1082;&#1072;&#1079;&#1086;&#1082;</text><polygon fill="#181818" points="392,549.8281,402,553.8281,392,557.8281,396,553.8281" style="stroke:#181818;stroke-width:1.0;"/><line style="stroke:#181818;stroke-width:1.0;stroke-dasharray:2.0,2.0;" x1="324" x2="398" y1="553.8281" y2="553.8281"/><rect fill="none" height="39.1016" style="stroke:#000000;stroke-width:1.5;" width="1018" x="276.5" y="561.8281"/><path d="M276.5,561.8281 L342.5,561.8281 L342.5,568.8281 L332.5,578.8281 L276.5,578.8281 L276.5,561.8281 " fill="#EEEEEE" style="stroke:#000000;stroke-width:2.0;"/><text fill="#000000" font-family="sans-serif" font-size="13" font-weight="bold" lengthAdjust="spacing" textLength="21" x="289.5" y="575.895">ref</text><text fill="#000000" font-family="sans-serif" font-size="12" lengthAdjust="spacing" textLength="156" x="707.5" y="593.9668">&#1089;&#1094;&#1077;&#1085;&#1072;&#1088;&#1080;&#1081; &#1072;&#1074;&#1090;&#1086;&#1088;&#1080;&#1079;&#1072;&#1094;&#1080;&#1080;</text><polygon fill="#181818" points="415,623.0625,405,627.0625,415,631.0625,411,627.0625" style="stroke:#181818;stroke-width:1.0;"/><polygon fill="#181818" points="1033.5,623.0625,1043.5,627.0625,1033.5,631.0625,1037.5,627.0625" style="stroke:#181818;stroke-width:1.0;"/><line style="stroke:#181818;stroke-width:1.0;stroke-dasharray:2.0,2.0;" x1="409" x2="1039.5" y1="627.0625" y2="627.0625"/><text fill="#000000" font-family="sans-serif" font-size="13" lengthAdjust="spacing" textLength="328" x="421" y="621.9966">&#1079;&#1072;&#1087;&#1088;&#1086;&#1089; &#1080; &#1092;&#1086;&#1088;&#1084;&#1080;&#1088;&#1086;&#1074;&#1072;&#1085;&#1080;&#1077; &#1087;&#1086;&#1076;&#1093;&#1086;&#1076;&#1103;&#1097;&#1080;&#1093; &#1087;&#1086;&#1076;&#1089;&#1082;&#1072;&#1079;&#1086;&#1082;</text><polygon fill="#181818" points="335,637.0625,325,641.0625,335,645.0625,331,641.0625" style="stroke:#181818;stroke-width:1.0;"/><line style="stroke:#181818;stroke-width:1.0;stroke-dasharray:2.0,2.0;" x1="329" x2="403" y1="641.0625" y2="641.0625"/><polygon fill="#181818" points="53,666.1953,43,670.1953,53,674.1953,49,670.1953" style="stroke:#181818;stroke-width:1.0;"/><line style="stroke:#181818;stroke-width:1.0;stroke-dasharray:2.0,2.0;" x1="47" x2="323" y1="670.1953" y2="670.1953"/><text fill="#000000" font-family="sans-serif" font-size="13" lengthAdjust="spacing" textLength="122" x="59" y="665.1294">&#1089;&#1087;&#1080;&#1089;&#1086;&#1082; &#1087;&#1086;&#1076;&#1089;&#1082;&#1072;&#1079;&#1086;&#1082;</text><polygon fill="#181818" points="312,695.3281,322,699.3281,312,703.3281,316,699.3281" style="stroke:#181818;stroke-width:1.0;"/><line style="stroke:#181818;stroke-width:1.0;stroke-dasharray:2.0,2.0;" x1="42" x2="318" y1="699.3281" y2="699.3281"/><text fill="#000000" font-family="sans-serif" font-size="13" lengthAdjust="spacing" textLength="177" x="49" y="694.2622">&#1086;&#1087;&#1080;&#1089;&#1072;&#1085;&#1080;&#1077; &#1087;&#1088;&#1086;&#1080;&#1079;&#1086;&#1096;&#1077;&#1076;&#1096;&#1077;&#1075;&#1086;</text><polygon fill="#181818" points="392,709.3281,402,713.3281,392,717.3281,396,713.3281" style="stroke:#181818;stroke-width:1.0;"/><line style="stroke:#181818;stroke-width:1.0;stroke-dasharray:2.0,2.0;" x1="324" x2="398" y1="713.3281" y2="713.3281"/><rect fill="none" height="39.1016" style="stroke:#000000;stroke-width:1.5;" width="1018" x="276.5" y="721.3281"/><path d="M276.5,721.3281 L342.5,721.3281 L342.5,728.3281 L332.5,738.3281 L276.5,738.3281 L276.5,721.3281 " fill="#EEEEEE" style="stroke:#000000;stroke-width:2.0;"/><text fill="#000000" font-family="sans-serif" font-size="13" font-weight="bold" lengthAdjust="spacing" textLength="21" x="289.5" y="735.395">ref</text><text fill="#000000" font-family="sans-serif" font-size="12" lengthAdjust="spacing" textLength="156" x="707.5" y="753.4668">&#1089;&#1094;&#1077;&#1085;&#1072;&#1088;&#1080;&#1081; &#1072;&#1074;&#1090;&#1086;&#1088;&#1080;&#1079;&#1072;&#1094;&#1080;&#1080;</text><polygon fill="#181818" points="535.5,782.5625,545.5,786.5625,535.5,790.5625,539.5,786.5625" style="stroke:#181818;stroke-width:1.0;"/><line style="stroke:#181818;stroke-width:1.0;stroke-dasharray:2.0,2.0;" x1="404" x2="541.5" y1="786.5625" y2="786.5625"/><text fill="#000000" font-family="sans-serif" font-size="13" lengthAdjust="spacing" textLength="117" x="411" y="781.4966">&#1080;&#1075;&#1088;&#1086;&#1074;&#1086;&#1077; &#1089;&#1086;&#1073;&#1099;&#1090;&#1080;&#1077;</text><polygon fill="#181818" points="335,796.5625,325,800.5625,335,804.5625,331,800.5625" style="stroke:#181818;stroke-width:1.0;"/><line style="stroke:#181818;stroke-width:1.0;stroke-dasharray:2.0,2.0;" x1="329" x2="403" y1="800.5625" y2="800.5625"/><polygon fill="#181818" points="53,825.6953,43,829.6953,53,833.6953,49,829.6953" style="stroke:#181818;stroke-width:1.0;"/><line style="stroke:#181818;stroke-width:1.0;stroke-dasharray:2.0,2.0;" x1="47" x2="323" y1="829.6953" y2="829.6953"/><text fill="#000000" font-family="sans-serif" font-size="13" lengthAdjust="spacing" textLength="173" x="59" y="824.6294">&#1087;&#1088;&#1080;&#1079;&#1085;&#1072;&#1082; &#1091;&#1089;&#1087;&#1077;&#1093;&#1072; &#1086;&#1087;&#1077;&#1088;&#1072;&#1094;&#1080;&#1080;</text><!--SRC=[lLNDRjD04BxlKwp2aVG58e945GbnWqVOn0i4MZlOJjlScfGMIYf5L1muqKTWcyQgcq3o2hDlnBVZ_3cEA1TwYBFApZVppVUD9weH1w4iqIKbDB8dzfnIkYj95KblNwZvvNUwiSSqfJ5VjFPKHuUY7Xn9kg896Tkp7scAY5zavAF83mv5IuLniz5iAJ-MfMSlNyZdAZvK7SQ_KR76EHz3Fr4UDJYY4OHQV6ZhjiR53_k94bmvVXSIz38kGzktfz9sSRp6iRVahG-q7xzoOE6fMDLLvB9yfMyRmVDKjhz2rNOt8GpuWjfZW52KOuFwEztO5Zoctouf1zM3u3r2yarU8SS8DCPaw1RFb4FVDlquWfvjtrDXHvPgpGWAU9aBsLbetqFA8o54jKgNjaypf9gWNi8r4qaZ7Ezi5po7hhrgLMH6oPsTfmlDAn9bZHqW11Gae6OJc8XvBEFOYL2_bi41ChKZ7PONkSfyMUOVQxiLg6lFc8s1FwolWKaz7eoKovxXEnKEjSufLy_RhpZDNND3k7w-Qc-wJZqHmjlVQ0pAibl7AymAaCh7pluPfJm4OqcpR8fujF33_-vQxSLvxV7IEARNzWGKUaK-VvKfSpPpCqFQRZ75Ll-7ssPd7GcnYc9W_EutZXkwHKCJUm49Z6khKCuEYkMAPkRxohqr3s0MT_h49UTNSvDFAfVxBfrtOfPACjTJVWxSDiMIsjB0_LhcXxMGODlyPm2JDzNrDRMVUNswvmrD7-mDNwtYojhYnYV9x-Ba7vR2R5u4rQ48_gcSG0cKDbdhRfOM1Fu0]--></g></svg>