<?xml version="1.0" encoding="us-ascii" standalone="no"?><svg xmlns="http://www.w3.org/2000/svg" xmlns:xlink="http://www.w3.org/1999/xlink" contentStyleType="text/css" height="2411px" preserveAspectRatio="none" style="width:1379px;height:2411px;background:#FFFFFF;" version="1.1" viewBox="0 0 1379 2411" width="1379px" zoomAndPan="magnify"><defs/><g><rect fill="#FFFAFA" height="2399.3984" style="stroke:#181818;stroke-width:0.5;" width="742.5" x="544.5" y="6"/><text fill="#000000" font-family="sans-serif" font-size="13" font-weight="bold" lengthAdjust="spacing" textLength="90" x="868.25" y="18.0669">&#1055;&#1083;&#1072;&#1090;&#1092;&#1086;&#1088;&#1084;&#1072;</text><rect fill="none" height="147.5" style="stroke:#000000;stroke-width:1.5;" width="411.5" x="315" y="915.7656"/><line style="stroke:#181818;stroke-width:0.5;stroke-dasharray:5.0,5.0;" x1="143" x2="143" y1="81.2969" y2="2326.1016"/><line style="stroke:#181818;stroke-width:0.5;stroke-dasharray:5.0,5.0;" x1="349" x2="349" y1="81.2969" y2="2326.1016"/><line style="stroke:#181818;stroke-width:0.5;stroke-dasharray:5.0,5.0;" x1="592.5" x2="592.5" y1="81.2969" y2="2326.1016"/><line style="stroke:#181818;stroke-width:0.5;stroke-dasharray:5.0,5.0;" x1="690.5" x2="690.5" y1="81.2969" y2="2326.1016"/><line style="stroke:#181818;stroke-width:0.5;stroke-dasharray:5.0,5.0;" x1="1073" x2="1073" y1="81.2969" y2="2326.1016"/><line style="stroke:#181818;stroke-width:0.5;stroke-dasharray:5.0,5.0;" x1="1237" x2="1237" y1="81.2969" y2="2326.1016"/><line style="stroke:#181818;stroke-width:0.5;stroke-dasharray:5.0,5.0;" x1="1330" x2="1330" y1="81.2969" y2="2326.1016"/><text fill="#000000" font-family="sans-serif" font-size="14" lengthAdjust="spacing" textLength="68" x="106" y="77.9951">&#1042;&#1077;&#1076;&#1091;&#1097;&#1080;&#1081;</text><ellipse cx="143" cy="13.5" fill="#E2E2F0" rx="8" ry="8" style="stroke:#181818;stroke-width:0.5;"/><path d="M143,21.5 L143,48.5 M130,29.5 L156,29.5 M143,48.5 L130,63.5 M143,48.5 L156,63.5 " fill="none" style="stroke:#181818;stroke-width:0.5;"/><text fill="#000000" font-family="sans-serif" font-size="14" lengthAdjust="spacing" textLength="68" x="106" y="2338.0967">&#1042;&#1077;&#1076;&#1091;&#1097;&#1080;&#1081;</text><ellipse cx="143" cy="2349.8984" fill="#E2E2F0" rx="8" ry="8" style="stroke:#181818;stroke-width:0.5;"/><path d="M143,2357.8984 L143,2384.8984 M130,2365.8984 L156,2365.8984 M143,2384.8984 L130,2399.8984 M143,2384.8984 L156,2399.8984 " fill="none" style="stroke:#181818;stroke-width:0.5;"/><text fill="#000000" font-family="sans-serif" font-size="14" lengthAdjust="spacing" textLength="43" x="325" y="77.9951">&#1048;&#1075;&#1088;&#1086;&#1082;</text><ellipse cx="349.5" cy="13.5" fill="#E2E2F0" rx="8" ry="8" style="stroke:#181818;stroke-width:0.5;"/><path d="M349.5,21.5 L349.5,48.5 M336.5,29.5 L362.5,29.5 M349.5,48.5 L336.5,63.5 M349.5,48.5 L362.5,63.5 " fill="none" style="stroke:#181818;stroke-width:0.5;"/><text fill="#000000" font-family="sans-serif" font-size="14" lengthAdjust="spacing" textLength="43" x="325" y="2338.0967">&#1048;&#1075;&#1088;&#1086;&#1082;</text><ellipse cx="349.5" cy="2349.8984" fill="#E2E2F0" rx="8" ry="8" style="stroke:#181818;stroke-width:0.5;"/><path d="M349.5,2357.8984 L349.5,2384.8984 M336.5,2365.8984 L362.5,2365.8984 M349.5,2384.8984 L336.5,2399.8984 M349.5,2384.8984 L362.5,2399.8984 " fill="none" style="stroke:#181818;stroke-width:0.5;"/><rect fill="#E2E2F0" height="30.2969" rx="2.5" ry="2.5" style="stroke:#181818;stroke-width:0.5;" width="89" x="548.5" y="50"/><text fill="#000000" font-family="sans-serif" font-size="14" lengthAdjust="spacing" textLength="75" x="555.5" y="69.9951">API Gatway</text><rect fill="#E2E2F0" height="30.2969" rx="2.5" ry="2.5" style="stroke:#181818;stroke-width:0.5;" width="89" x="548.5" y="2325.1016"/><text fill="#000000" font-family="sans-serif" font-size="14" lengthAdjust="spacing" textLength="75" x="555.5" y="2345.0967">API Gatway</text><rect fill="#E2E2F0" height="30.2969" rx="2.5" ry="2.5" style="stroke:#181818;stroke-width:0.5;" width="51" x="665.5" y="50"/><text fill="#000000" font-family="sans-serif" font-size="14" lengthAdjust="spacing" textLength="37" x="672.5" y="69.9951">&#1071;&#1076;&#1088;&#1086;</text><rect fill="#E2E2F0" height="30.2969" rx="2.5" ry="2.5" style="stroke:#181818;stroke-width:0.5;" width="51" x="665.5" y="2325.1016"/><text fill="#000000" font-family="sans-serif" font-size="14" lengthAdjust="spacing" textLength="37" x="672.5" y="2345.0967">&#1071;&#1076;&#1088;&#1086;</text><path d="M970,55 L1176,55 C1181,55 1181,68.1484 1181,68.1484 C1181,68.1484 1181,81.2969 1176,81.2969 L970,81.2969 C965,81.2969 965,68.1484 965,68.1484 C965,68.1484 965,55 970,55 " fill="#E2E2F0" style="stroke:#181818;stroke-width:0.5;"/><path d="M1176,55 C1171,55 1171,68.1484 1171,68.1484 C1171,81.2969 1176,81.2969 1176,81.2969 " fill="none" style="stroke:#181818;stroke-width:0.5;"/><text fill="#000000" font-family="sans-serif" font-size="14" lengthAdjust="spacing" textLength="196" x="970" y="72.9951">&#1054;&#1095;&#1077;&#1088;&#1077;&#1076;&#1100; &#1080;&#1075;&#1088;&#1086;&#1074;&#1099;&#1093; &#1089;&#1086;&#1073;&#1099;&#1090;&#1080;&#1081;</text><path d="M970,2325.1016 L1176,2325.1016 C1181,2325.1016 1181,2338.25 1181,2338.25 C1181,2338.25 1181,2351.3984 1176,2351.3984 L970,2351.3984 C965,2351.3984 965,2338.25 965,2338.25 C965,2338.25 965,2325.1016 970,2325.1016 " fill="#E2E2F0" style="stroke:#181818;stroke-width:0.5;"/><path d="M1176,2325.1016 C1171,2325.1016 1171,2338.25 1171,2338.25 C1171,2351.3984 1176,2351.3984 1176,2351.3984 " fill="none" style="stroke:#181818;stroke-width:0.5;"/><text fill="#000000" font-family="sans-serif" font-size="14" lengthAdjust="spacing" textLength="196" x="970" y="2343.0967">&#1054;&#1095;&#1077;&#1088;&#1077;&#1076;&#1100; &#1080;&#1075;&#1088;&#1086;&#1074;&#1099;&#1093; &#1089;&#1086;&#1073;&#1099;&#1090;&#1080;&#1081;</text><rect fill="#E2E2F0" height="30.2969" rx="2.5" ry="2.5" style="stroke:#181818;stroke-width:0.5;" width="92" x="1191" y="50"/><text fill="#000000" font-family="sans-serif" font-size="14" lengthAdjust="spacing" textLength="78" x="1198" y="69.9951">&#1055;&#1086;&#1076;&#1089;&#1082;&#1072;&#1079;&#1082;&#1080;</text><rect fill="#E2E2F0" height="30.2969" rx="2.5" ry="2.5" style="stroke:#181818;stroke-width:0.5;" width="92" x="1191" y="2325.1016"/><text fill="#000000" font-family="sans-serif" font-size="14" lengthAdjust="spacing" textLength="78" x="1198" y="2345.0967">&#1055;&#1086;&#1076;&#1089;&#1082;&#1072;&#1079;&#1082;&#1080;</text><rect fill="#E2E2F0" height="30.2969" rx="2.5" ry="2.5" style="stroke:#181818;stroke-width:0.5;" width="74" x="1293" y="50"/><text fill="#000000" font-family="sans-serif" font-size="14" lengthAdjust="spacing" textLength="60" x="1300" y="69.9951">eventDB</text><rect fill="#E2E2F0" height="30.2969" rx="2.5" ry="2.5" style="stroke:#181818;stroke-width:0.5;" width="74" x="1293" y="2325.1016"/><text fill="#000000" font-family="sans-serif" font-size="14" lengthAdjust="spacing" textLength="60" x="1300" y="2345.0967">eventDB</text><rect fill="#EEEEEE" height="3" style="stroke:#EEEEEE;stroke-width:1.0;" width="1372" x="0" y="111.8633"/><line style="stroke:#000000;stroke-width:1.0;" x1="0" x2="1372" y1="111.8633" y2="111.8633"/><line style="stroke:#000000;stroke-width:1.0;" x1="0" x2="1372" y1="114.8633" y2="114.8633"/><rect fill="#EEEEEE" height="23.1328" style="stroke:#000000;stroke-width:2.0;" width="181" x="595.5" y="101.2969"/><text fill="#000000" font-family="sans-serif" font-size="13" font-weight="bold" lengthAdjust="spacing" textLength="167" x="601.5" y="117.3638">&#1053;&#1072;&#1095;&#1072;&#1083;&#1086; &#1089;&#1090;&#1086;&#1083;&#1082;&#1085;&#1086;&#1074;&#1077;&#1085;&#1080;&#1103;</text><polygon fill="#181818" points="581,151.5625,591,155.5625,581,159.5625,585,155.5625" style="stroke:#181818;stroke-width:1.0;"/><line style="stroke:#181818;stroke-width:1.0;stroke-dasharray:2.0,2.0;" x1="143" x2="587" y1="155.5625" y2="155.5625"/><text fill="#000000" font-family="sans-serif" font-size="13" lengthAdjust="spacing" textLength="183" x="150" y="150.4966">&#1048;&#1085;&#1080;&#1094;&#1080;&#1080;&#1088;&#1091;&#1077;&#1090; &#1089;&#1090;&#1086;&#1083;&#1082;&#1085;&#1086;&#1074;&#1077;&#1085;&#1080;&#1077;</text><polygon fill="#181818" points="679,165.5625,689,169.5625,679,173.5625,683,169.5625" style="stroke:#181818;stroke-width:1.0;"/><line style="stroke:#181818;stroke-width:1.0;stroke-dasharray:2.0,2.0;" x1="593" x2="685" y1="169.5625" y2="169.5625"/><rect fill="none" height="39.1016" style="stroke:#000000;stroke-width:1.5;" width="174" x="545.5" y="177.5625"/><path d="M545.5,177.5625 L611.5,177.5625 L611.5,184.5625 L601.5,194.5625 L545.5,194.5625 L545.5,177.5625 " fill="#EEEEEE" style="stroke:#000000;stroke-width:2.0;"/><text fill="#000000" font-family="sans-serif" font-size="13" font-weight="bold" lengthAdjust="spacing" textLength="21" x="558.5" y="191.6294">ref</text><text fill="#000000" font-family="sans-serif" font-size="12" lengthAdjust="spacing" textLength="156" x="554.5" y="209.7012">&#1089;&#1094;&#1077;&#1085;&#1072;&#1088;&#1080;&#1081; &#1072;&#1074;&#1090;&#1086;&#1088;&#1080;&#1079;&#1072;&#1094;&#1080;&#1080;</text><line style="stroke:#181818;stroke-width:1.0;stroke-dasharray:2.0,2.0;" x1="691" x2="733" y1="242.7969" y2="242.7969"/><line style="stroke:#181818;stroke-width:1.0;stroke-dasharray:2.0,2.0;" x1="733" x2="733" y1="242.7969" y2="255.7969"/><line style="stroke:#181818;stroke-width:1.0;stroke-dasharray:2.0,2.0;" x1="692" x2="733" y1="255.7969" y2="255.7969"/><polygon fill="#181818" points="702,251.7969,692,255.7969,702,259.7969,698,255.7969" style="stroke:#181818;stroke-width:1.0;"/><text fill="#000000" font-family="sans-serif" font-size="13" lengthAdjust="spacing" textLength="290" x="698" y="237.731">&#1074;&#1099;&#1087;&#1086;&#1083;&#1085;&#1077;&#1085;&#1080;&#1077; &#1073;&#1088;&#1086;&#1089;&#1082;&#1086;&#1074; &#1080;&#1085;&#1080;&#1094;&#1080;&#1072;&#1090;&#1080;&#1074;&#1099; &#1076;&#1083;&#1103; NPC</text><polygon fill="#181818" points="1061,280.9297,1071,284.9297,1061,288.9297,1065,284.9297" style="stroke:#181818;stroke-width:1.0;"/><line style="stroke:#181818;stroke-width:1.0;stroke-dasharray:2.0,2.0;" x1="691" x2="1067" y1="284.9297" y2="284.9297"/><text fill="#000000" font-family="sans-serif" font-size="13" lengthAdjust="spacing" textLength="358" x="698" y="279.8638">&#1088;&#1077;&#1075;&#1080;&#1089;&#1090;&#1088;&#1072;&#1094;&#1080;&#1103; &#1088;&#1077;&#1079;&#1091;&#1083;&#1100;&#1090;&#1072;&#1090;&#1086;&#1074; &#1073;&#1088;&#1086;&#1089;&#1082;&#1086;&#1074; &#1080;&#1085;&#1080;&#1094;&#1080;&#1072;&#1090;&#1080;&#1074;&#1099; NPC</text><polygon fill="#181818" points="1061,310.0625,1071,314.0625,1061,318.0625,1065,314.0625" style="stroke:#181818;stroke-width:1.0;"/><line style="stroke:#181818;stroke-width:1.0;stroke-dasharray:2.0,2.0;" x1="691" x2="1067" y1="314.0625" y2="314.0625"/><text fill="#000000" font-family="sans-serif" font-size="13" lengthAdjust="spacing" textLength="293" x="698" y="308.9966">&#1088;&#1077;&#1075;&#1080;&#1089;&#1090;&#1088;&#1072;&#1094;&#1080;&#1103; &#1079;&#1072;&#1087;&#1088;&#1086;&#1089;&#1072; &#1073;&#1088;&#1086;&#1089;&#1082;&#1086;&#1074; &#1080;&#1085;&#1080;&#1094;&#1080;&#1072;&#1090;&#1080;&#1074;&#1099;</text><polygon fill="#181818" points="604,324.0625,594,328.0625,604,332.0625,600,328.0625" style="stroke:#181818;stroke-width:1.0;"/><line style="stroke:#181818;stroke-width:1.0;stroke-dasharray:2.0,2.0;" x1="598" x2="690" y1="328.0625" y2="328.0625"/><polygon fill="#181818" points="154,353.1953,144,357.1953,154,361.1953,150,357.1953" style="stroke:#181818;stroke-width:1.0;"/><line style="stroke:#181818;stroke-width:1.0;stroke-dasharray:2.0,2.0;" x1="148" x2="592" y1="357.1953" y2="357.1953"/><text fill="#000000" font-family="sans-serif" font-size="13" lengthAdjust="spacing" textLength="193" x="160" y="352.1294">&#1087;&#1088;&#1080;&#1079;&#1085;&#1072;&#1082; &#1091;&#1089;&#1087;&#1077;&#1096;&#1085;&#1086;&#1081; &#1086;&#1087;&#1077;&#1088;&#1072;&#1094;&#1080;&#1080;</text><rect fill="none" height="39.1016" style="stroke:#000000;stroke-width:1.5;" width="1267" x="103" y="365.1953"/><path d="M103,365.1953 L169,365.1953 L169,372.1953 L159,382.1953 L103,382.1953 L103,365.1953 " fill="#EEEEEE" style="stroke:#000000;stroke-width:2.0;"/><text fill="#000000" font-family="sans-serif" font-size="13" font-weight="bold" lengthAdjust="spacing" textLength="21" x="116" y="379.2622">ref</text><text fill="#000000" font-family="sans-serif" font-size="12" lengthAdjust="spacing" textLength="554" x="459.5" y="397.334">&#1057;&#1094;&#1077;&#1085;&#1072;&#1088;&#1080;&#1081; &#1087;&#1086;&#1083;&#1091;&#1095;&#1077;&#1085;&#1080;&#1077; &#1089;&#1086;&#1089;&#1090;&#1086;&#1103;&#1085;&#1080;&#1103; &#1086;&#1073;&#1098;&#1077;&#1082;&#1090;&#1086;&#1074; &#1085;&#1072; &#1080;&#1075;&#1088;&#1086;&#1074;&#1086;&#1084; &#1089;&#1090;&#1086;&#1083;&#1077; &#1082;&#1072;&#1078;&#1076;&#1099;&#1084; &#1080;&#1079; &#1091;&#1095;&#1072;&#1089;&#1090;&#1085;&#1080;&#1082;&#1086;&#1074;</text><path d="M229,414.2969 L229,439.2969 L470,439.2969 L470,424.2969 L460,414.2969 L229,414.2969 " fill="#FEFFDD" style="stroke:#181818;stroke-width:0.5;"/><path d="M460,414.2969 L460,424.2969 L470,424.2969 L460,414.2969 " fill="#FEFFDD" style="stroke:#181818;stroke-width:0.5;"/><text fill="#000000" font-family="sans-serif" font-size="13" lengthAdjust="spacing" textLength="220" x="235" y="431.3638">&#1054;&#1073;&#1085;&#1072;&#1088;&#1091;&#1078;&#1080;&#1074;&#1072;&#1077;&#1090; &#1079;&#1072;&#1087;&#1088;&#1086;&#1089; &#1087;&#1088;&#1086;&#1074;&#1077;&#1088;&#1082;&#1080;</text><polygon fill="#181818" points="581,461.5625,591,465.5625,581,469.5625,585,465.5625" style="stroke:#181818;stroke-width:1.0;"/><line style="stroke:#181818;stroke-width:1.0;stroke-dasharray:2.0,2.0;" x1="349.5" x2="587" y1="465.5625" y2="465.5625"/><text fill="#000000" font-family="sans-serif" font-size="13" lengthAdjust="spacing" textLength="214" x="356.5" y="460.4966">&#1074;&#1099;&#1087;&#1086;&#1083;&#1085;&#1103;&#1077;&#1090; &#1073;&#1088;&#1086;&#1089;&#1086;&#1082; &#1080;&#1085;&#1080;&#1094;&#1080;&#1072;&#1090;&#1080;&#1074;&#1099;</text><polygon fill="#181818" points="679,475.5625,689,479.5625,679,483.5625,683,479.5625" style="stroke:#181818;stroke-width:1.0;"/><line style="stroke:#181818;stroke-width:1.0;stroke-dasharray:2.0,2.0;" x1="593" x2="685" y1="479.5625" y2="479.5625"/><rect fill="none" height="39.1016" style="stroke:#000000;stroke-width:1.5;" width="174" x="545.5" y="487.5625"/><path d="M545.5,487.5625 L611.5,487.5625 L611.5,494.5625 L601.5,504.5625 L545.5,504.5625 L545.5,487.5625 " fill="#EEEEEE" style="stroke:#000000;stroke-width:2.0;"/><text fill="#000000" font-family="sans-serif" font-size="13" font-weight="bold" lengthAdjust="spacing" textLength="21" x="558.5" y="501.6294">ref</text><text fill="#000000" font-family="sans-serif" font-size="12" lengthAdjust="spacing" textLength="156" x="554.5" y="519.7012">&#1089;&#1094;&#1077;&#1085;&#1072;&#1088;&#1080;&#1081; &#1072;&#1074;&#1090;&#1086;&#1088;&#1080;&#1079;&#1072;&#1094;&#1080;&#1080;</text><polygon fill="#181818" points="1061,548.7969,1071,552.7969,1061,556.7969,1065,552.7969" style="stroke:#181818;stroke-width:1.0;"/><line style="stroke:#181818;stroke-width:1.0;stroke-dasharray:2.0,2.0;" x1="691" x2="1067" y1="552.7969" y2="552.7969"/><text fill="#000000" font-family="sans-serif" font-size="13" lengthAdjust="spacing" textLength="278" x="698" y="547.731">&#1088;&#1077;&#1075;&#1080;&#1089;&#1090;&#1088;&#1072;&#1094;&#1080;&#1103; &#1073;&#1088;&#1086;&#1089;&#1082;&#1072; &#1080;&#1085;&#1080;&#1094;&#1080;&#1072;&#1090;&#1080;&#1074;&#1099; &#1080;&#1075;&#1088;&#1086;&#1082;&#1072;</text><polygon fill="#181818" points="604,562.7969,594,566.7969,604,570.7969,600,566.7969" style="stroke:#181818;stroke-width:1.0;"/><line style="stroke:#181818;stroke-width:1.0;stroke-dasharray:2.0,2.0;" x1="598" x2="690" y1="566.7969" y2="566.7969"/><polygon fill="#181818" points="360.5,591.9297,350.5,595.9297,360.5,599.9297,356.5,595.9297" style="stroke:#181818;stroke-width:1.0;"/><line style="stroke:#181818;stroke-width:1.0;stroke-dasharray:2.0,2.0;" x1="354.5" x2="592" y1="595.9297" y2="595.9297"/><text fill="#000000" font-family="sans-serif" font-size="13" lengthAdjust="spacing" textLength="193" x="366.5" y="590.8638">&#1087;&#1088;&#1080;&#1079;&#1085;&#1072;&#1082; &#1091;&#1089;&#1087;&#1077;&#1096;&#1085;&#1086;&#1081; &#1086;&#1087;&#1077;&#1088;&#1072;&#1094;&#1080;&#1080;</text><rect fill="#EEEEEE" height="3" style="stroke:#EEEEEE;stroke-width:1.0;" width="1372" x="0" y="624.4961"/><line style="stroke:#000000;stroke-width:1.0;" x1="0" x2="1372" y1="624.4961" y2="624.4961"/><line style="stroke:#000000;stroke-width:1.0;" x1="0" x2="1372" y1="627.4961" y2="627.4961"/><rect fill="#EEEEEE" height="23.1328" style="stroke:#000000;stroke-width:2.0;" width="481" x="445.5" y="613.9297"/><text fill="#000000" font-family="sans-serif" font-size="13" font-weight="bold" lengthAdjust="spacing" textLength="467" x="451.5" y="629.9966">&#1042;&#1099;&#1087;&#1086;&#1083;&#1085;&#1077;&#1085;&#1080;&#1077; &#1076;&#1077;&#1081;&#1089;&#1090;&#1074;&#1080;&#1081; &#1080;&#1075;&#1088;&#1086;&#1082;&#1072; / &#1042;&#1099;&#1087;&#1086;&#1083;&#1085;&#1077;&#1085;&#1080;&#1077; &#1088;&#1077;&#1072;&#1082;&#1094;&#1080;&#1080; &#1080;&#1075;&#1088;&#1086;&#1082;&#1072;</text><rect fill="none" height="39.1016" style="stroke:#000000;stroke-width:1.5;" width="274" x="103" y="647.0625"/><path d="M103,647.0625 L169,647.0625 L169,654.0625 L159,664.0625 L103,664.0625 L103,647.0625 " fill="#EEEEEE" style="stroke:#000000;stroke-width:2.0;"/><text fill="#000000" font-family="sans-serif" font-size="13" font-weight="bold" lengthAdjust="spacing" textLength="21" x="116" y="661.1294">ref</text><text fill="#000000" font-family="sans-serif" font-size="12" lengthAdjust="spacing" textLength="256" x="112" y="679.2012">&#1089;&#1094;&#1077;&#1085;&#1072;&#1088;&#1080;&#1081; &#1087;&#1086;&#1080;&#1089;&#1082;&#1072; &#1076;&#1086;&#1089;&#1090;&#1091;&#1087;&#1085;&#1099;&#1093; &#1076;&#1077;&#1081;&#1089;&#1090;&#1074;&#1080;&#1081;</text><polygon fill="#181818" points="581,708.2969,591,712.2969,581,716.2969,585,712.2969" style="stroke:#181818;stroke-width:1.0;"/><line style="stroke:#181818;stroke-width:1.0;stroke-dasharray:2.0,2.0;" x1="349.5" x2="587" y1="712.2969" y2="712.2969"/><text fill="#000000" font-family="sans-serif" font-size="13" lengthAdjust="spacing" textLength="137" x="356.5" y="707.231">&#1079;&#1072;&#1103;&#1074;&#1082;&#1072; &#1085;&#1072; &#1076;&#1077;&#1081;&#1089;&#1090;&#1074;&#1080;&#1077;</text><polygon fill="#181818" points="679,722.2969,689,726.2969,679,730.2969,683,726.2969" style="stroke:#181818;stroke-width:1.0;"/><line style="stroke:#181818;stroke-width:1.0;stroke-dasharray:2.0,2.0;" x1="593" x2="685" y1="726.2969" y2="726.2969"/><rect fill="none" height="39.1016" style="stroke:#000000;stroke-width:1.5;" width="174" x="545.5" y="734.2969"/><path d="M545.5,734.2969 L611.5,734.2969 L611.5,741.2969 L601.5,751.2969 L545.5,751.2969 L545.5,734.2969 " fill="#EEEEEE" style="stroke:#000000;stroke-width:2.0;"/><text fill="#000000" font-family="sans-serif" font-size="13" font-weight="bold" lengthAdjust="spacing" textLength="21" x="558.5" y="748.3638">ref</text><text fill="#000000" font-family="sans-serif" font-size="12" lengthAdjust="spacing" textLength="156" x="554.5" y="766.4355">&#1089;&#1094;&#1077;&#1085;&#1072;&#1088;&#1080;&#1081; &#1072;&#1074;&#1090;&#1086;&#1088;&#1080;&#1079;&#1072;&#1094;&#1080;&#1080;</text><polygon fill="#181818" points="604,780.3984,594,784.3984,604,788.3984,600,784.3984" style="stroke:#181818;stroke-width:1.0;"/><line style="stroke:#181818;stroke-width:1.0;stroke-dasharray:2.0,2.0;" x1="598" x2="690" y1="784.3984" y2="784.3984"/><polygon fill="#181818" points="154,809.5313,144,813.5313,154,817.5313,150,813.5313" style="stroke:#181818;stroke-width:1.0;"/><line style="stroke:#181818;stroke-width:1.0;stroke-dasharray:2.0,2.0;" x1="148" x2="592" y1="813.5313" y2="813.5313"/><text fill="#000000" font-family="sans-serif" font-size="13" lengthAdjust="spacing" textLength="147" x="160" y="808.4653">&#1086;&#1087;&#1086;&#1074;&#1077;&#1097;&#1077;&#1085;&#1080;&#1077; &#1086; &#1079;&#1072;&#1103;&#1074;&#1082;&#1077;</text><polygon fill="#181818" points="581,838.6641,591,842.6641,581,846.6641,585,842.6641" style="stroke:#181818;stroke-width:1.0;"/><line style="stroke:#181818;stroke-width:1.0;stroke-dasharray:2.0,2.0;" x1="143" x2="587" y1="842.6641" y2="842.6641"/><text fill="#000000" font-family="sans-serif" font-size="13" lengthAdjust="spacing" textLength="258" x="150" y="837.5981">&#1086;&#1076;&#1086;&#1073;&#1088;&#1077;&#1085;&#1080;&#1077; &#1079;&#1072;&#1103;&#1074;&#1082;&#1080; + &#1089;&#1087;&#1080;&#1089;&#1086;&#1082; &#1087;&#1088;&#1086;&#1074;&#1077;&#1088;&#1086;&#1082;</text><polygon fill="#181818" points="679,852.6641,689,856.6641,679,860.6641,683,856.6641" style="stroke:#181818;stroke-width:1.0;"/><line style="stroke:#181818;stroke-width:1.0;stroke-dasharray:2.0,2.0;" x1="593" x2="685" y1="856.6641" y2="856.6641"/><rect fill="none" height="39.1016" style="stroke:#000000;stroke-width:1.5;" width="174" x="545.5" y="864.6641"/><path d="M545.5,864.6641 L611.5,864.6641 L611.5,871.6641 L601.5,881.6641 L545.5,881.6641 L545.5,864.6641 " fill="#EEEEEE" style="stroke:#000000;stroke-width:2.0;"/><text fill="#000000" font-family="sans-serif" font-size="13" font-weight="bold" lengthAdjust="spacing" textLength="21" x="558.5" y="878.731">ref</text><text fill="#000000" font-family="sans-serif" font-size="12" lengthAdjust="spacing" textLength="156" x="554.5" y="896.8027">&#1089;&#1094;&#1077;&#1085;&#1072;&#1088;&#1080;&#1081; &#1072;&#1074;&#1090;&#1086;&#1088;&#1080;&#1079;&#1072;&#1094;&#1080;&#1080;</text><path d="M315,915.7656 L379,915.7656 L379,922.8984 L369,932.8984 L315,932.8984 L315,915.7656 " fill="#EEEEEE" style="stroke:#000000;stroke-width:1.5;"/><rect fill="none" height="147.5" style="stroke:#000000;stroke-width:1.5;" width="411.5" x="315" y="915.7656"/><text fill="#000000" font-family="sans-serif" font-size="13" font-weight="bold" lengthAdjust="spacing" textLength="19" x="330" y="928.8325">alt</text><text fill="#000000" font-family="sans-serif" font-size="11" font-weight="bold" lengthAdjust="spacing" textLength="174" x="394" y="927.9761">[&#1079;&#1072;&#1103;&#1074;&#1082;&#1072; &#1090;&#1088;&#1077;&#1073;&#1091;&#1077;&#1090; &#1087;&#1088;&#1086;&#1074;&#1077;&#1088;&#1086;&#1082;]</text><polygon fill="#181818" points="604,934.8984,594,938.8984,604,942.8984,600,938.8984" style="stroke:#181818;stroke-width:1.0;"/><line style="stroke:#181818;stroke-width:1.0;stroke-dasharray:2.0,2.0;" x1="598" x2="690" y1="938.8984" y2="938.8984"/><polygon fill="#181818" points="360.5,964.0313,350.5,968.0313,360.5,972.0313,356.5,968.0313" style="stroke:#181818;stroke-width:1.0;"/><line style="stroke:#181818;stroke-width:1.0;stroke-dasharray:2.0,2.0;" x1="354.5" x2="592" y1="968.0313" y2="968.0313"/><text fill="#000000" font-family="sans-serif" font-size="13" lengthAdjust="spacing" textLength="114" x="366.5" y="962.9653">&#1079;&#1072;&#1087;&#1088;&#1086;&#1089; &#1087;&#1088;&#1086;&#1074;&#1077;&#1088;&#1086;&#1082;</text><polygon fill="#181818" points="581,993.1641,591,997.1641,581,1001.1641,585,997.1641" style="stroke:#181818;stroke-width:1.0;"/><line style="stroke:#181818;stroke-width:1.0;stroke-dasharray:2.0,2.0;" x1="349.5" x2="587" y1="997.1641" y2="997.1641"/><text fill="#000000" font-family="sans-serif" font-size="13" lengthAdjust="spacing" textLength="150" x="356.5" y="992.0981">&#1074;&#1099;&#1087;&#1086;&#1083;&#1085;&#1077;&#1085;&#1080;&#1077; &#1087;&#1088;&#1086;&#1074;&#1077;&#1088;&#1082;&#1080;</text><polygon fill="#181818" points="679,1007.1641,689,1011.1641,679,1015.1641,683,1011.1641" style="stroke:#181818;stroke-width:1.0;"/><line style="stroke:#181818;stroke-width:1.0;stroke-dasharray:2.0,2.0;" x1="593" x2="685" y1="1011.1641" y2="1011.1641"/><rect fill="none" height="39.1016" style="stroke:#000000;stroke-width:1.5;" width="174" x="545.5" y="1019.1641"/><path d="M545.5,1019.1641 L611.5,1019.1641 L611.5,1026.1641 L601.5,1036.1641 L545.5,1036.1641 L545.5,1019.1641 " fill="#EEEEEE" style="stroke:#000000;stroke-width:2.0;"/><text fill="#000000" font-family="sans-serif" font-size="13" font-weight="bold" lengthAdjust="spacing" textLength="21" x="558.5" y="1033.231">ref</text><text fill="#000000" font-family="sans-serif" font-size="12" lengthAdjust="spacing" textLength="156" x="554.5" y="1051.3027">&#1089;&#1094;&#1077;&#1085;&#1072;&#1088;&#1080;&#1081; &#1072;&#1074;&#1090;&#1086;&#1088;&#1080;&#1079;&#1072;&#1094;&#1080;&#1080;</text><polygon fill="#181818" points="604,1072.2656,594,1076.2656,604,1080.2656,600,1076.2656" style="stroke:#181818;stroke-width:1.0;"/><line style="stroke:#181818;stroke-width:1.0;stroke-dasharray:2.0,2.0;" x1="598" x2="690" y1="1076.2656" y2="1076.2656"/><polygon fill="#181818" points="154,1101.3984,144,1105.3984,154,1109.3984,150,1105.3984" style="stroke:#181818;stroke-width:1.0;"/><line style="stroke:#181818;stroke-width:1.0;stroke-dasharray:2.0,2.0;" x1="148" x2="592" y1="1105.3984" y2="1105.3984"/><text fill="#000000" font-family="sans-serif" font-size="13" lengthAdjust="spacing" textLength="226" x="160" y="1100.3325">&#1088;&#1077;&#1079;&#1091;&#1083;&#1100;&#1090;&#1072;&#1090; &#1074;&#1099;&#1087;&#1086;&#1083;&#1085;&#1077;&#1085;&#1080;&#1103; &#1087;&#1088;&#1086;&#1074;&#1077;&#1088;&#1082;&#1080;</text><polygon fill="#181818" points="581,1130.5313,591,1134.5313,581,1138.5313,585,1134.5313" style="stroke:#181818;stroke-width:1.0;"/><line style="stroke:#181818;stroke-width:1.0;stroke-dasharray:2.0,2.0;" x1="143" x2="587" y1="1134.5313" y2="1134.5313"/><text fill="#000000" font-family="sans-serif" font-size="13" lengthAdjust="spacing" textLength="122" x="150" y="1129.4653">&#1079;&#1072;&#1087;&#1088;&#1086;&#1089; &#1087;&#1086;&#1076;&#1089;&#1082;&#1072;&#1079;&#1086;&#1082;</text><polygon fill="#181818" points="679,1144.5313,689,1148.5313,679,1152.5313,683,1148.5313" style="stroke:#181818;stroke-width:1.0;"/><line style="stroke:#181818;stroke-width:1.0;stroke-dasharray:2.0,2.0;" x1="593" x2="685" y1="1148.5313" y2="1148.5313"/><rect fill="none" height="39.1016" style="stroke:#000000;stroke-width:1.5;" width="174" x="545.5" y="1156.5313"/><path d="M545.5,1156.5313 L611.5,1156.5313 L611.5,1163.5313 L601.5,1173.5313 L545.5,1173.5313 L545.5,1156.5313 " fill="#EEEEEE" style="stroke:#000000;stroke-width:2.0;"/><text fill="#000000" font-family="sans-serif" font-size="13" font-weight="bold" lengthAdjust="spacing" textLength="21" x="558.5" y="1170.5981">ref</text><text fill="#000000" font-family="sans-serif" font-size="12" lengthAdjust="spacing" textLength="156" x="554.5" y="1188.6699">&#1089;&#1094;&#1077;&#1085;&#1072;&#1088;&#1080;&#1081; &#1072;&#1074;&#1090;&#1086;&#1088;&#1080;&#1079;&#1072;&#1094;&#1080;&#1080;</text><polygon fill="#181818" points="702,1217.7656,692,1221.7656,702,1225.7656,698,1221.7656" style="stroke:#181818;stroke-width:1.0;"/><polygon fill="#181818" points="1225,1217.7656,1235,1221.7656,1225,1225.7656,1229,1221.7656" style="stroke:#181818;stroke-width:1.0;"/><line style="stroke:#181818;stroke-width:1.0;stroke-dasharray:2.0,2.0;" x1="696" x2="1231" y1="1221.7656" y2="1221.7656"/><text fill="#000000" font-family="sans-serif" font-size="13" lengthAdjust="spacing" textLength="328" x="708" y="1216.6997">&#1079;&#1072;&#1087;&#1088;&#1086;&#1089; &#1080; &#1092;&#1086;&#1088;&#1084;&#1080;&#1088;&#1086;&#1074;&#1072;&#1085;&#1080;&#1077; &#1087;&#1086;&#1076;&#1093;&#1086;&#1076;&#1103;&#1097;&#1080;&#1093; &#1087;&#1086;&#1076;&#1089;&#1082;&#1072;&#1079;&#1086;&#1082;</text><polygon fill="#181818" points="604,1231.7656,594,1235.7656,604,1239.7656,600,1235.7656" style="stroke:#181818;stroke-width:1.0;"/><line style="stroke:#181818;stroke-width:1.0;stroke-dasharray:2.0,2.0;" x1="598" x2="690" y1="1235.7656" y2="1235.7656"/><polygon fill="#181818" points="154,1260.8984,144,1264.8984,154,1268.8984,150,1264.8984" style="stroke:#181818;stroke-width:1.0;"/><line style="stroke:#181818;stroke-width:1.0;stroke-dasharray:2.0,2.0;" x1="148" x2="592" y1="1264.8984" y2="1264.8984"/><text fill="#000000" font-family="sans-serif" font-size="13" lengthAdjust="spacing" textLength="122" x="160" y="1259.8325">&#1089;&#1087;&#1080;&#1089;&#1086;&#1082; &#1087;&#1086;&#1076;&#1089;&#1082;&#1072;&#1079;&#1086;&#1082;</text><polygon fill="#181818" points="581,1290.0313,591,1294.0313,581,1298.0313,585,1294.0313" style="stroke:#181818;stroke-width:1.0;"/><line style="stroke:#181818;stroke-width:1.0;stroke-dasharray:2.0,2.0;" x1="143" x2="587" y1="1294.0313" y2="1294.0313"/><text fill="#000000" font-family="sans-serif" font-size="13" lengthAdjust="spacing" textLength="177" x="150" y="1288.9653">&#1086;&#1087;&#1080;&#1089;&#1072;&#1085;&#1080;&#1077; &#1087;&#1088;&#1086;&#1080;&#1079;&#1086;&#1096;&#1077;&#1076;&#1096;&#1077;&#1075;&#1086;</text><polygon fill="#181818" points="679,1304.0313,689,1308.0313,679,1312.0313,683,1308.0313" style="stroke:#181818;stroke-width:1.0;"/><line style="stroke:#181818;stroke-width:1.0;stroke-dasharray:2.0,2.0;" x1="593" x2="685" y1="1308.0313" y2="1308.0313"/><rect fill="none" height="39.1016" style="stroke:#000000;stroke-width:1.5;" width="174" x="545.5" y="1316.0313"/><path d="M545.5,1316.0313 L611.5,1316.0313 L611.5,1323.0313 L601.5,1333.0313 L545.5,1333.0313 L545.5,1316.0313 " fill="#EEEEEE" style="stroke:#000000;stroke-width:2.0;"/><text fill="#000000" font-family="sans-serif" font-size="13" font-weight="bold" lengthAdjust="spacing" textLength="21" x="558.5" y="1330.0981">ref</text><text fill="#000000" font-family="sans-serif" font-size="12" lengthAdjust="spacing" textLength="156" x="554.5" y="1348.1699">&#1089;&#1094;&#1077;&#1085;&#1072;&#1088;&#1080;&#1081; &#1072;&#1074;&#1090;&#1086;&#1088;&#1080;&#1079;&#1072;&#1094;&#1080;&#1080;</text><polygon fill="#181818" points="1061,1377.2656,1071,1381.2656,1061,1385.2656,1065,1381.2656" style="stroke:#181818;stroke-width:1.0;"/><line style="stroke:#181818;stroke-width:1.0;stroke-dasharray:2.0,2.0;" x1="691" x2="1067" y1="1381.2656" y2="1381.2656"/><text fill="#000000" font-family="sans-serif" font-size="13" lengthAdjust="spacing" textLength="117" x="698" y="1376.1997">&#1080;&#1075;&#1088;&#1086;&#1074;&#1086;&#1077; &#1089;&#1086;&#1073;&#1099;&#1090;&#1080;&#1077;</text><polygon fill="#181818" points="604,1391.2656,594,1395.2656,604,1399.2656,600,1395.2656" style="stroke:#181818;stroke-width:1.0;"/><line style="stroke:#181818;stroke-width:1.0;stroke-dasharray:2.0,2.0;" x1="598" x2="690" y1="1395.2656" y2="1395.2656"/><polygon fill="#181818" points="154,1420.3984,144,1424.3984,154,1428.3984,150,1424.3984" style="stroke:#181818;stroke-width:1.0;"/><line style="stroke:#181818;stroke-width:1.0;stroke-dasharray:2.0,2.0;" x1="148" x2="592" y1="1424.3984" y2="1424.3984"/><text fill="#000000" font-family="sans-serif" font-size="13" lengthAdjust="spacing" textLength="173" x="160" y="1419.3325">&#1087;&#1088;&#1080;&#1079;&#1085;&#1072;&#1082; &#1091;&#1089;&#1087;&#1077;&#1093;&#1072; &#1086;&#1087;&#1077;&#1088;&#1072;&#1094;&#1080;&#1080;</text><rect fill="#EEEEEE" height="3" style="stroke:#EEEEEE;stroke-width:1.0;" width="1372" x="0" y="1452.9648"/><line style="stroke:#000000;stroke-width:1.0;" x1="0" x2="1372" y1="1452.9648" y2="1452.9648"/><line style="stroke:#000000;stroke-width:1.0;" x1="0" x2="1372" y1="1455.9648" y2="1455.9648"/><rect fill="#EEEEEE" height="23.1328" style="stroke:#000000;stroke-width:2.0;" width="437" x="467.5" y="1442.3984"/><text fill="#000000" font-family="sans-serif" font-size="13" font-weight="bold" lengthAdjust="spacing" textLength="423" x="473.5" y="1458.4653">&#1042;&#1099;&#1087;&#1086;&#1083;&#1085;&#1077;&#1085;&#1080;&#1077; &#1076;&#1077;&#1081;&#1089;&#1090;&#1074;&#1080;&#1081; NPC / &#1042;&#1099;&#1087;&#1086;&#1083;&#1085;&#1077;&#1085;&#1080;&#1077; &#1088;&#1077;&#1072;&#1082;&#1094;&#1080;&#1080; NPC</text><rect fill="none" height="39.1016" style="stroke:#000000;stroke-width:1.5;" width="274" x="103" y="1475.5313"/><path d="M103,1475.5313 L169,1475.5313 L169,1482.5313 L159,1492.5313 L103,1492.5313 L103,1475.5313 " fill="#EEEEEE" style="stroke:#000000;stroke-width:2.0;"/><text fill="#000000" font-family="sans-serif" font-size="13" font-weight="bold" lengthAdjust="spacing" textLength="21" x="116" y="1489.5981">ref</text><text fill="#000000" font-family="sans-serif" font-size="12" lengthAdjust="spacing" textLength="256" x="112" y="1507.6699">&#1089;&#1094;&#1077;&#1085;&#1072;&#1088;&#1080;&#1081; &#1087;&#1086;&#1080;&#1089;&#1082;&#1072; &#1076;&#1086;&#1089;&#1090;&#1091;&#1087;&#1085;&#1099;&#1093; &#1076;&#1077;&#1081;&#1089;&#1090;&#1074;&#1080;&#1081;</text><polygon fill="#181818" points="581,1536.7656,591,1540.7656,581,1544.7656,585,1540.7656" style="stroke:#181818;stroke-width:1.0;"/><line style="stroke:#181818;stroke-width:1.0;stroke-dasharray:2.0,2.0;" x1="143" x2="587" y1="1540.7656" y2="1540.7656"/><text fill="#000000" font-family="sans-serif" font-size="13" lengthAdjust="spacing" textLength="426" x="150" y="1535.6997">&#1074;&#1099;&#1087;&#1086;&#1083;&#1085;&#1077;&#1085;&#1080;&#1077; &#1076;&#1077;&#1081;&#1089;&#1090;&#1074;&#1080;&#1103; + &#1089;&#1087;&#1080;&#1089;&#1086;&#1082; &#1087;&#1088;&#1086;&#1074;&#1077;&#1088;&#1086;&#1082; &#1074;&#1099;&#1073;&#1088;&#1072;&#1085;&#1085;&#1099;&#1084; &#1080;&#1075;&#1088;&#1086;&#1082;&#1072;&#1084;</text><polygon fill="#181818" points="679,1550.7656,689,1554.7656,679,1558.7656,683,1554.7656" style="stroke:#181818;stroke-width:1.0;"/><line style="stroke:#181818;stroke-width:1.0;stroke-dasharray:2.0,2.0;" x1="593" x2="685" y1="1554.7656" y2="1554.7656"/><rect fill="none" height="39.1016" style="stroke:#000000;stroke-width:1.5;" width="174" x="545.5" y="1562.7656"/><path d="M545.5,1562.7656 L611.5,1562.7656 L611.5,1569.7656 L601.5,1579.7656 L545.5,1579.7656 L545.5,1562.7656 " fill="#EEEEEE" style="stroke:#000000;stroke-width:2.0;"/><text fill="#000000" font-family="sans-serif" font-size="13" font-weight="bold" lengthAdjust="spacing" textLength="21" x="558.5" y="1576.8325">ref</text><text fill="#000000" font-family="sans-serif" font-size="12" lengthAdjust="spacing" textLength="156" x="554.5" y="1594.9043">&#1089;&#1094;&#1077;&#1085;&#1072;&#1088;&#1080;&#1081; &#1072;&#1074;&#1090;&#1086;&#1088;&#1080;&#1079;&#1072;&#1094;&#1080;&#1080;</text><polygon fill="#181818" points="1061,1624,1071,1628,1061,1632,1065,1628" style="stroke:#181818;stroke-width:1.0;"/><line style="stroke:#181818;stroke-width:1.0;stroke-dasharray:2.0,2.0;" x1="691" x2="1067" y1="1628" y2="1628"/><text fill="#000000" font-family="sans-serif" font-size="13" lengthAdjust="spacing" textLength="214" x="698" y="1622.9341">&#1088;&#1077;&#1075;&#1080;&#1089;&#1090;&#1088;&#1072;&#1094;&#1080;&#1103; &#1079;&#1072;&#1087;&#1088;&#1086;&#1089;&#1072; &#1087;&#1088;&#1086;&#1074;&#1077;&#1088;&#1086;&#1082;</text><polygon fill="#181818" points="604,1638,594,1642,604,1646,600,1642" style="stroke:#181818;stroke-width:1.0;"/><line style="stroke:#181818;stroke-width:1.0;stroke-dasharray:2.0,2.0;" x1="598" x2="690" y1="1642" y2="1642"/><polygon fill="#181818" points="154,1667.1328,144,1671.1328,154,1675.1328,150,1671.1328" style="stroke:#181818;stroke-width:1.0;"/><line style="stroke:#181818;stroke-width:1.0;stroke-dasharray:2.0,2.0;" x1="148" x2="592" y1="1671.1328" y2="1671.1328"/><text fill="#000000" font-family="sans-serif" font-size="13" lengthAdjust="spacing" textLength="193" x="160" y="1666.0669">&#1087;&#1088;&#1080;&#1079;&#1085;&#1072;&#1082; &#1091;&#1089;&#1087;&#1077;&#1096;&#1085;&#1086;&#1081; &#1086;&#1087;&#1077;&#1088;&#1072;&#1094;&#1080;&#1080;</text><rect fill="none" height="39.1016" style="stroke:#000000;stroke-width:1.5;" width="1267" x="103" y="1679.1328"/><path d="M103,1679.1328 L169,1679.1328 L169,1686.1328 L159,1696.1328 L103,1696.1328 L103,1679.1328 " fill="#EEEEEE" style="stroke:#000000;stroke-width:2.0;"/><text fill="#000000" font-family="sans-serif" font-size="13" font-weight="bold" lengthAdjust="spacing" textLength="21" x="116" y="1693.1997">ref</text><text fill="#000000" font-family="sans-serif" font-size="12" lengthAdjust="spacing" textLength="554" x="459.5" y="1711.2715">&#1057;&#1094;&#1077;&#1085;&#1072;&#1088;&#1080;&#1081; &#1087;&#1086;&#1083;&#1091;&#1095;&#1077;&#1085;&#1080;&#1077; &#1089;&#1086;&#1089;&#1090;&#1086;&#1103;&#1085;&#1080;&#1103; &#1086;&#1073;&#1098;&#1077;&#1082;&#1090;&#1086;&#1074; &#1085;&#1072; &#1080;&#1075;&#1088;&#1086;&#1074;&#1086;&#1084; &#1089;&#1090;&#1086;&#1083;&#1077; &#1082;&#1072;&#1078;&#1076;&#1099;&#1084; &#1080;&#1079; &#1091;&#1095;&#1072;&#1089;&#1090;&#1085;&#1080;&#1082;&#1086;&#1074;</text><path d="M229,1728.2344 L229,1753.2344 L470,1753.2344 L470,1738.2344 L460,1728.2344 L229,1728.2344 " fill="#FEFFDD" style="stroke:#181818;stroke-width:0.5;"/><path d="M460,1728.2344 L460,1738.2344 L470,1738.2344 L460,1728.2344 " fill="#FEFFDD" style="stroke:#181818;stroke-width:0.5;"/><text fill="#000000" font-family="sans-serif" font-size="13" lengthAdjust="spacing" textLength="220" x="235" y="1745.3013">&#1054;&#1073;&#1085;&#1072;&#1088;&#1091;&#1078;&#1080;&#1074;&#1072;&#1077;&#1090; &#1079;&#1072;&#1087;&#1088;&#1086;&#1089; &#1087;&#1088;&#1086;&#1074;&#1077;&#1088;&#1082;&#1080;</text><polygon fill="#181818" points="581,1775.5,591,1779.5,581,1783.5,585,1779.5" style="stroke:#181818;stroke-width:1.0;"/><line style="stroke:#181818;stroke-width:1.0;stroke-dasharray:2.0,2.0;" x1="349.5" x2="587" y1="1779.5" y2="1779.5"/><text fill="#000000" font-family="sans-serif" font-size="13" lengthAdjust="spacing" textLength="150" x="356.5" y="1774.4341">&#1074;&#1099;&#1087;&#1086;&#1083;&#1085;&#1077;&#1085;&#1080;&#1077; &#1087;&#1088;&#1086;&#1074;&#1077;&#1088;&#1086;&#1082;</text><polygon fill="#181818" points="679,1789.5,689,1793.5,679,1797.5,683,1793.5" style="stroke:#181818;stroke-width:1.0;"/><line style="stroke:#181818;stroke-width:1.0;stroke-dasharray:2.0,2.0;" x1="593" x2="685" y1="1793.5" y2="1793.5"/><rect fill="none" height="39.1016" style="stroke:#000000;stroke-width:1.5;" width="174" x="545.5" y="1801.5"/><path d="M545.5,1801.5 L611.5,1801.5 L611.5,1808.5 L601.5,1818.5 L545.5,1818.5 L545.5,1801.5 " fill="#EEEEEE" style="stroke:#000000;stroke-width:2.0;"/><text fill="#000000" font-family="sans-serif" font-size="13" font-weight="bold" lengthAdjust="spacing" textLength="21" x="558.5" y="1815.5669">ref</text><text fill="#000000" font-family="sans-serif" font-size="12" lengthAdjust="spacing" textLength="156" x="554.5" y="1833.6387">&#1089;&#1094;&#1077;&#1085;&#1072;&#1088;&#1080;&#1081; &#1072;&#1074;&#1090;&#1086;&#1088;&#1080;&#1079;&#1072;&#1094;&#1080;&#1080;</text><polygon fill="#181818" points="1061,1862.7344,1071,1866.7344,1061,1870.7344,1065,1866.7344" style="stroke:#181818;stroke-width:1.0;"/><line style="stroke:#181818;stroke-width:1.0;stroke-dasharray:2.0,2.0;" x1="691" x2="1067" y1="1866.7344" y2="1866.7344"/><text fill="#000000" font-family="sans-serif" font-size="13" lengthAdjust="spacing" textLength="253" x="698" y="1861.6685">&#1088;&#1077;&#1075;&#1080;&#1089;&#1090;&#1088;&#1072;&#1094;&#1080;&#1103; &#1087;&#1088;&#1086;&#1093;&#1086;&#1078;&#1076;&#1077;&#1085;&#1080;&#1103; &#1087;&#1088;&#1086;&#1074;&#1077;&#1088;&#1086;&#1082;</text><polygon fill="#181818" points="604,1876.7344,594,1880.7344,604,1884.7344,600,1880.7344" style="stroke:#181818;stroke-width:1.0;"/><line style="stroke:#181818;stroke-width:1.0;stroke-dasharray:2.0,2.0;" x1="598" x2="690" y1="1880.7344" y2="1880.7344"/><polygon fill="#181818" points="360.5,1905.8672,350.5,1909.8672,360.5,1913.8672,356.5,1909.8672" style="stroke:#181818;stroke-width:1.0;"/><line style="stroke:#181818;stroke-width:1.0;stroke-dasharray:2.0,2.0;" x1="354.5" x2="592" y1="1909.8672" y2="1909.8672"/><text fill="#000000" font-family="sans-serif" font-size="13" lengthAdjust="spacing" textLength="193" x="366.5" y="1904.8013">&#1087;&#1088;&#1080;&#1079;&#1085;&#1072;&#1082; &#1091;&#1089;&#1087;&#1077;&#1096;&#1085;&#1086;&#1081; &#1086;&#1087;&#1077;&#1088;&#1072;&#1094;&#1080;&#1080;</text><rect fill="none" height="39.1016" style="stroke:#000000;stroke-width:1.5;" width="1267" x="103" y="1917.8672"/><path d="M103,1917.8672 L169,1917.8672 L169,1924.8672 L159,1934.8672 L103,1934.8672 L103,1917.8672 " fill="#EEEEEE" style="stroke:#000000;stroke-width:2.0;"/><text fill="#000000" font-family="sans-serif" font-size="13" font-weight="bold" lengthAdjust="spacing" textLength="21" x="116" y="1931.9341">ref</text><text fill="#000000" font-family="sans-serif" font-size="12" lengthAdjust="spacing" textLength="554" x="459.5" y="1950.0059">&#1057;&#1094;&#1077;&#1085;&#1072;&#1088;&#1080;&#1081; &#1087;&#1086;&#1083;&#1091;&#1095;&#1077;&#1085;&#1080;&#1077; &#1089;&#1086;&#1089;&#1090;&#1086;&#1103;&#1085;&#1080;&#1103; &#1086;&#1073;&#1098;&#1077;&#1082;&#1090;&#1086;&#1074; &#1085;&#1072; &#1080;&#1075;&#1088;&#1086;&#1074;&#1086;&#1084; &#1089;&#1090;&#1086;&#1083;&#1077; &#1082;&#1072;&#1078;&#1076;&#1099;&#1084; &#1080;&#1079; &#1091;&#1095;&#1072;&#1089;&#1090;&#1085;&#1080;&#1082;&#1086;&#1074;</text><path d="M5,1966.9688 L5,1991.9688 L282,1991.9688 L282,1976.9688 L272,1966.9688 L5,1966.9688 " fill="#FEFFDD" style="stroke:#181818;stroke-width:0.5;"/><path d="M272,1966.9688 L272,1976.9688 L282,1976.9688 L272,1966.9688 " fill="#FEFFDD" style="stroke:#181818;stroke-width:0.5;"/><text fill="#000000" font-family="sans-serif" font-size="13" lengthAdjust="spacing" textLength="256" x="11" y="1984.0356">&#1054;&#1073;&#1085;&#1072;&#1088;&#1091;&#1078;&#1080;&#1074;&#1072;&#1077;&#1090; &#1088;&#1077;&#1079;&#1091;&#1083;&#1100;&#1090;&#1072;&#1090;&#1099; &#1087;&#1088;&#1086;&#1074;&#1077;&#1088;&#1086;&#1082;</text><polygon fill="#181818" points="581,2014.2344,591,2018.2344,581,2022.2344,585,2018.2344" style="stroke:#181818;stroke-width:1.0;"/><line style="stroke:#181818;stroke-width:1.0;stroke-dasharray:2.0,2.0;" x1="143" x2="587" y1="2018.2344" y2="2018.2344"/><text fill="#000000" font-family="sans-serif" font-size="13" lengthAdjust="spacing" textLength="122" x="150" y="2013.1685">&#1079;&#1072;&#1087;&#1088;&#1086;&#1089; &#1087;&#1086;&#1076;&#1089;&#1082;&#1072;&#1079;&#1086;&#1082;</text><polygon fill="#181818" points="679,2028.2344,689,2032.2344,679,2036.2344,683,2032.2344" style="stroke:#181818;stroke-width:1.0;"/><line style="stroke:#181818;stroke-width:1.0;stroke-dasharray:2.0,2.0;" x1="593" x2="685" y1="2032.2344" y2="2032.2344"/><rect fill="none" height="39.1016" style="stroke:#000000;stroke-width:1.5;" width="174" x="545.5" y="2040.2344"/><path d="M545.5,2040.2344 L611.5,2040.2344 L611.5,2047.2344 L601.5,2057.2344 L545.5,2057.2344 L545.5,2040.2344 " fill="#EEEEEE" style="stroke:#000000;stroke-width:2.0;"/><text fill="#000000" font-family="sans-serif" font-size="13" font-weight="bold" lengthAdjust="spacing" textLength="21" x="558.5" y="2054.3013">ref</text><text fill="#000000" font-family="sans-serif" font-size="12" lengthAdjust="spacing" textLength="156" x="554.5" y="2072.373">&#1089;&#1094;&#1077;&#1085;&#1072;&#1088;&#1080;&#1081; &#1072;&#1074;&#1090;&#1086;&#1088;&#1080;&#1079;&#1072;&#1094;&#1080;&#1080;</text><polygon fill="#181818" points="702,2101.4688,692,2105.4688,702,2109.4688,698,2105.4688" style="stroke:#181818;stroke-width:1.0;"/><polygon fill="#181818" points="1225,2101.4688,1235,2105.4688,1225,2109.4688,1229,2105.4688" style="stroke:#181818;stroke-width:1.0;"/><line style="stroke:#181818;stroke-width:1.0;stroke-dasharray:2.0,2.0;" x1="696" x2="1231" y1="2105.4688" y2="2105.4688"/><text fill="#000000" font-family="sans-serif" font-size="13" lengthAdjust="spacing" textLength="328" x="708" y="2100.4028">&#1079;&#1072;&#1087;&#1088;&#1086;&#1089; &#1080; &#1092;&#1086;&#1088;&#1084;&#1080;&#1088;&#1086;&#1074;&#1072;&#1085;&#1080;&#1077; &#1087;&#1086;&#1076;&#1093;&#1086;&#1076;&#1103;&#1097;&#1080;&#1093; &#1087;&#1086;&#1076;&#1089;&#1082;&#1072;&#1079;&#1086;&#1082;</text><polygon fill="#181818" points="604,2115.4688,594,2119.4688,604,2123.4688,600,2119.4688" style="stroke:#181818;stroke-width:1.0;"/><line style="stroke:#181818;stroke-width:1.0;stroke-dasharray:2.0,2.0;" x1="598" x2="690" y1="2119.4688" y2="2119.4688"/><polygon fill="#181818" points="154,2144.6016,144,2148.6016,154,2152.6016,150,2148.6016" style="stroke:#181818;stroke-width:1.0;"/><line style="stroke:#181818;stroke-width:1.0;stroke-dasharray:2.0,2.0;" x1="148" x2="592" y1="2148.6016" y2="2148.6016"/><text fill="#000000" font-family="sans-serif" font-size="13" lengthAdjust="spacing" textLength="122" x="160" y="2143.5356">&#1089;&#1087;&#1080;&#1089;&#1086;&#1082; &#1087;&#1086;&#1076;&#1089;&#1082;&#1072;&#1079;&#1086;&#1082;</text><polygon fill="#181818" points="581,2173.7344,591,2177.7344,581,2181.7344,585,2177.7344" style="stroke:#181818;stroke-width:1.0;"/><line style="stroke:#181818;stroke-width:1.0;stroke-dasharray:2.0,2.0;" x1="143" x2="587" y1="2177.7344" y2="2177.7344"/><text fill="#000000" font-family="sans-serif" font-size="13" lengthAdjust="spacing" textLength="177" x="150" y="2172.6685">&#1086;&#1087;&#1080;&#1089;&#1072;&#1085;&#1080;&#1077; &#1087;&#1088;&#1086;&#1080;&#1079;&#1086;&#1096;&#1077;&#1076;&#1096;&#1077;&#1075;&#1086;</text><polygon fill="#181818" points="679,2187.7344,689,2191.7344,679,2195.7344,683,2191.7344" style="stroke:#181818;stroke-width:1.0;"/><line style="stroke:#181818;stroke-width:1.0;stroke-dasharray:2.0,2.0;" x1="593" x2="685" y1="2191.7344" y2="2191.7344"/><rect fill="none" height="39.1016" style="stroke:#000000;stroke-width:1.5;" width="174" x="545.5" y="2199.7344"/><path d="M545.5,2199.7344 L611.5,2199.7344 L611.5,2206.7344 L601.5,2216.7344 L545.5,2216.7344 L545.5,2199.7344 " fill="#EEEEEE" style="stroke:#000000;stroke-width:2.0;"/><text fill="#000000" font-family="sans-serif" font-size="13" font-weight="bold" lengthAdjust="spacing" textLength="21" x="558.5" y="2213.8013">ref</text><text fill="#000000" font-family="sans-serif" font-size="12" lengthAdjust="spacing" textLength="156" x="554.5" y="2231.873">&#1089;&#1094;&#1077;&#1085;&#1072;&#1088;&#1080;&#1081; &#1072;&#1074;&#1090;&#1086;&#1088;&#1080;&#1079;&#1072;&#1094;&#1080;&#1080;</text><polygon fill="#181818" points="1061,2260.9688,1071,2264.9688,1061,2268.9688,1065,2264.9688" style="stroke:#181818;stroke-width:1.0;"/><line style="stroke:#181818;stroke-width:1.0;stroke-dasharray:2.0,2.0;" x1="691" x2="1067" y1="2264.9688" y2="2264.9688"/><text fill="#000000" font-family="sans-serif" font-size="13" lengthAdjust="spacing" textLength="117" x="698" y="2259.9028">&#1080;&#1075;&#1088;&#1086;&#1074;&#1086;&#1077; &#1089;&#1086;&#1073;&#1099;&#1090;&#1080;&#1077;</text><polygon fill="#181818" points="604,2274.9688,594,2278.9688,604,2282.9688,600,2278.9688" style="stroke:#181818;stroke-width:1.0;"/><line style="stroke:#181818;stroke-width:1.0;stroke-dasharray:2.0,2.0;" x1="598" x2="690" y1="2278.9688" y2="2278.9688"/><polygon fill="#181818" points="154,2304.1016,144,2308.1016,154,2312.1016,150,2308.1016" style="stroke:#181818;stroke-width:1.0;"/><line style="stroke:#181818;stroke-width:1.0;stroke-dasharray:2.0,2.0;" x1="148" x2="592" y1="2308.1016" y2="2308.1016"/><text fill="#000000" font-family="sans-serif" font-size="13" lengthAdjust="spacing" textLength="173" x="160" y="2303.0356">&#1087;&#1088;&#1080;&#1079;&#1085;&#1072;&#1082; &#1091;&#1089;&#1087;&#1077;&#1093;&#1072; &#1086;&#1087;&#1077;&#1088;&#1072;&#1094;&#1080;&#1080;</text><!--SRC=[xLRBJjjG4DtxAwxeig3kKLEf3wdgfgAVu1AtHI893GRAZaTv5QH8hBefg5zG4s8m2N5-OUuVzSpSs8uVQH94saLP0CQ-CtFcp9cvOo-wjRgQeLFogQLtzH45T3EZx5LLhbXs_-DtkjHR559RFgmisvjEtNfV-wBed3hawHtzbKASk2LFFLgjrZQi5RlkBYqkhTXLLyqyNtYZNjlkXhqfzXzjry5p-WpzGdZ4a1EBjRfZVLvprXnyEDC7vECJupjHW6UmDFMntbDw6uyNUDo9SJlhJjLznyQP2ESuse91cpownkz0ZdzQghghbbCjAoHaMQKI_K161pZJeH3-uJd4Ovkw71GekXJeHgbabIjgRkvPbCsy0alyQHz00hsbTm5wPuWz-LRVJ5n8kdNdWwgjE_N8uQoydcSF-sBb8Mtag82ioKxbtskybeWMduwz0GtuePw4xaP15PW2TK81i32N4M9F28IDeXPrT4EzNNYPk4me1Hwkn2NCa1cU9JpEo-jhPDtH9_3bIThDiI9E6egJfbxVhpTEYCHzfBr1-iiLqDNhqmcUgQtG2DjWpzU7KZQG7ig_Mp7TIRtAbTb-IymQzAzUmD_FRDMa5l1x45U3jMlqeHj6LKh4_0qdsX5_NSumrZn-RXDDeQ2ivIke-XZl6R-I29uSuIZ2YLMjkOu1Qu02tnbT67GesHMp14Sis45o3IkYMln5mrZ6FAFx0QKX4N4IbGGZexWWqvF_E09A5ECDQOA8SPpuitXYGYSM42RDQL6Fjl1u8mLiceG7iAWdgj184aLSupjbWabL8DKYOjbf4B7ICjg4EdeeAu_QBB1YCN156ZWWJhh6qw3PD2VVqEOE9JUMyL72SpW8rhVoypna4aGhiKrY4AZ7IaeSH38Vx1MykFyyxMKtpQ-8sWT2SzVa48mdtA4Dpov6DNn2JNPKt7lwkA97bpf_3HN0vH6GXPilVvgNrEumbV9ARa_PdQmaMGI1YfUie8_TYxaNT7loky4h7BTh7l9ezjA2pZaewX5ZuALbm7c5c7syintA30x_qiXFtPL-UZ_qxxu7xF4ak_C8nuOpvkJ6oUaDx5prcYF1erL6p3dZXQSaQw0RRIBn_KEt__YopsoB4mt9XzLmxDNmZbV5z4RfkFem6V7ml1Bj5rmGur-c_ubMf2-6wIH_1_D6dUNpuS9zk70dl71_0m00]--></g></svg>