<?xml version="1.0" encoding="us-ascii" standalone="no"?><svg xmlns="http://www.w3.org/2000/svg" xmlns:xlink="http://www.w3.org/1999/xlink" contentStyleType="text/css" height="756px" preserveAspectRatio="none" style="width:1172px;height:756px;background:#FFFFFF;" version="1.1" viewBox="0 0 1172 756" width="1172px" zoomAndPan="magnify"><defs/><g><rect fill="#FFFAFA" height="744.5859" style="stroke:#181818;stroke-width:0.5;" width="889" x="275.5" y="6"/><text fill="#000000" font-family="sans-serif" font-size="13" font-weight="bold" lengthAdjust="spacing" textLength="90" x="672.5" y="18.0669">&#1055;&#1083;&#1072;&#1090;&#1092;&#1086;&#1088;&#1084;&#1072;</text><rect fill="none" height="103.3984" style="stroke:#000000;stroke-width:1.5;" width="360.5" x="79" y="276.9609"/><line style="stroke:#181818;stroke-width:0.5;stroke-dasharray:5.0,5.0;" x1="42" x2="42" y1="87.4297" y2="671.2891"/><line style="stroke:#181818;stroke-width:0.5;stroke-dasharray:5.0,5.0;" x1="113" x2="113" y1="87.4297" y2="671.2891"/><line style="stroke:#181818;stroke-width:0.5;stroke-dasharray:5.0,5.0;" x1="323.5" x2="323.5" y1="87.4297" y2="671.2891"/><line style="stroke:#181818;stroke-width:0.5;stroke-dasharray:5.0,5.0;" x1="403.5" x2="403.5" y1="87.4297" y2="671.2891"/><line style="stroke:#181818;stroke-width:0.5;stroke-dasharray:5.0,5.0;" x1="547.5" x2="547.5" y1="87.4297" y2="671.2891"/><line style="stroke:#181818;stroke-width:0.5;stroke-dasharray:5.0,5.0;" x1="733.5" x2="733.5" y1="87.4297" y2="671.2891"/><line style="stroke:#181818;stroke-width:0.5;stroke-dasharray:5.0,5.0;" x1="862.5" x2="862.5" y1="87.4297" y2="671.2891"/><line style="stroke:#181818;stroke-width:0.5;stroke-dasharray:5.0,5.0;" x1="956.5" x2="956.5" y1="87.4297" y2="671.2891"/><line style="stroke:#181818;stroke-width:0.5;stroke-dasharray:5.0,5.0;" x1="1045.5" x2="1045.5" y1="87.4297" y2="671.2891"/><line style="stroke:#181818;stroke-width:0.5;stroke-dasharray:5.0,5.0;" x1="1130.5" x2="1130.5" y1="87.4297" y2="671.2891"/><text fill="#000000" font-family="sans-serif" font-size="14" lengthAdjust="spacing" textLength="68" x="5" y="84.1279">&#1042;&#1077;&#1076;&#1091;&#1097;&#1080;&#1081;</text><ellipse cx="42" cy="19.6328" fill="#E2E2F0" rx="8" ry="8" style="stroke:#181818;stroke-width:0.5;"/><path d="M42,27.6328 L42,54.6328 M29,35.6328 L55,35.6328 M42,54.6328 L29,69.6328 M42,54.6328 L55,69.6328 " fill="none" style="stroke:#181818;stroke-width:0.5;"/><text fill="#000000" font-family="sans-serif" font-size="14" lengthAdjust="spacing" textLength="68" x="5" y="683.2842">&#1042;&#1077;&#1076;&#1091;&#1097;&#1080;&#1081;</text><ellipse cx="42" cy="695.0859" fill="#E2E2F0" rx="8" ry="8" style="stroke:#181818;stroke-width:0.5;"/><path d="M42,703.0859 L42,730.0859 M29,711.0859 L55,711.0859 M42,730.0859 L29,745.0859 M42,730.0859 L55,745.0859 " fill="none" style="stroke:#181818;stroke-width:0.5;"/><text fill="#000000" font-family="sans-serif" font-size="14" lengthAdjust="spacing" textLength="43" x="89" y="84.1279">&#1048;&#1075;&#1088;&#1086;&#1082;</text><ellipse cx="113.5" cy="19.6328" fill="#E2E2F0" rx="8" ry="8" style="stroke:#181818;stroke-width:0.5;"/><path d="M113.5,27.6328 L113.5,54.6328 M100.5,35.6328 L126.5,35.6328 M113.5,54.6328 L100.5,69.6328 M113.5,54.6328 L126.5,69.6328 " fill="none" style="stroke:#181818;stroke-width:0.5;"/><text fill="#000000" font-family="sans-serif" font-size="14" lengthAdjust="spacing" textLength="43" x="89" y="683.2842">&#1048;&#1075;&#1088;&#1086;&#1082;</text><ellipse cx="113.5" cy="695.0859" fill="#E2E2F0" rx="8" ry="8" style="stroke:#181818;stroke-width:0.5;"/><path d="M113.5,703.0859 L113.5,730.0859 M100.5,711.0859 L126.5,711.0859 M113.5,730.0859 L100.5,745.0859 M113.5,730.0859 L126.5,745.0859 " fill="none" style="stroke:#181818;stroke-width:0.5;"/><rect fill="#E2E2F0" height="30.2969" rx="2.5" ry="2.5" style="stroke:#181818;stroke-width:0.5;" width="89" x="279.5" y="56.1328"/><text fill="#000000" font-family="sans-serif" font-size="14" lengthAdjust="spacing" textLength="75" x="286.5" y="76.1279">API Gatway</text><rect fill="#E2E2F0" height="30.2969" rx="2.5" ry="2.5" style="stroke:#181818;stroke-width:0.5;" width="89" x="279.5" y="670.2891"/><text fill="#000000" font-family="sans-serif" font-size="14" lengthAdjust="spacing" textLength="75" x="286.5" y="690.2842">API Gatway</text><rect fill="#E2E2F0" height="30.2969" rx="2.5" ry="2.5" style="stroke:#181818;stroke-width:0.5;" width="51" x="378.5" y="56.1328"/><text fill="#000000" font-family="sans-serif" font-size="14" lengthAdjust="spacing" textLength="37" x="385.5" y="76.1279">&#1071;&#1076;&#1088;&#1086;</text><rect fill="#E2E2F0" height="30.2969" rx="2.5" ry="2.5" style="stroke:#181818;stroke-width:0.5;" width="51" x="378.5" y="670.2891"/><text fill="#000000" font-family="sans-serif" font-size="14" lengthAdjust="spacing" textLength="37" x="385.5" y="690.2842">&#1071;&#1076;&#1088;&#1086;</text><path d="M444.5,61.1328 L650.5,61.1328 C655.5,61.1328 655.5,74.2813 655.5,74.2813 C655.5,74.2813 655.5,87.4297 650.5,87.4297 L444.5,87.4297 C439.5,87.4297 439.5,74.2813 439.5,74.2813 C439.5,74.2813 439.5,61.1328 444.5,61.1328 " fill="#E2E2F0" style="stroke:#181818;stroke-width:0.5;"/><path d="M650.5,61.1328 C645.5,61.1328 645.5,74.2813 645.5,74.2813 C645.5,87.4297 650.5,87.4297 650.5,87.4297 " fill="none" style="stroke:#181818;stroke-width:0.5;"/><text fill="#000000" font-family="sans-serif" font-size="14" lengthAdjust="spacing" textLength="196" x="444.5" y="79.1279">&#1054;&#1095;&#1077;&#1088;&#1077;&#1076;&#1100; &#1080;&#1075;&#1088;&#1086;&#1074;&#1099;&#1093; &#1089;&#1086;&#1073;&#1099;&#1090;&#1080;&#1081;</text><path d="M444.5,670.2891 L650.5,670.2891 C655.5,670.2891 655.5,683.4375 655.5,683.4375 C655.5,683.4375 655.5,696.5859 650.5,696.5859 L444.5,696.5859 C439.5,696.5859 439.5,683.4375 439.5,683.4375 C439.5,683.4375 439.5,670.2891 444.5,670.2891 " fill="#E2E2F0" style="stroke:#181818;stroke-width:0.5;"/><path d="M650.5,670.2891 C645.5,670.2891 645.5,683.4375 645.5,683.4375 C645.5,696.5859 650.5,696.5859 650.5,696.5859 " fill="none" style="stroke:#181818;stroke-width:0.5;"/><text fill="#000000" font-family="sans-serif" font-size="14" lengthAdjust="spacing" textLength="196" x="444.5" y="688.2842">&#1054;&#1095;&#1077;&#1088;&#1077;&#1076;&#1100; &#1080;&#1075;&#1088;&#1086;&#1074;&#1099;&#1093; &#1089;&#1086;&#1073;&#1099;&#1090;&#1080;&#1081;</text><text fill="#000000" font-family="sans-serif" font-size="14" lengthAdjust="spacing" textLength="130" x="665.5" y="84.1279">&#1041;&#1044; &#1089;&#1086;&#1073;&#1099;&#1090;&#1080;&#1081; &#1080;&#1075;&#1088;&#1099;</text><path d="M715.5,35.1328 C715.5,25.1328 733.5,25.1328 733.5,25.1328 C733.5,25.1328 751.5,25.1328 751.5,35.1328 L751.5,61.1328 C751.5,71.1328 733.5,71.1328 733.5,71.1328 C733.5,71.1328 715.5,71.1328 715.5,61.1328 L715.5,35.1328 " fill="#E2E2F0" style="stroke:#181818;stroke-width:1.5;"/><path d="M715.5,35.1328 C715.5,45.1328 733.5,45.1328 733.5,45.1328 C733.5,45.1328 751.5,45.1328 751.5,35.1328 " fill="none" style="stroke:#181818;stroke-width:1.5;"/><text fill="#000000" font-family="sans-serif" font-size="14" lengthAdjust="spacing" textLength="130" x="665.5" y="683.2842">&#1041;&#1044; &#1089;&#1086;&#1073;&#1099;&#1090;&#1080;&#1081; &#1080;&#1075;&#1088;&#1099;</text><path d="M715.5,696.5859 C715.5,686.5859 733.5,686.5859 733.5,686.5859 C733.5,686.5859 751.5,686.5859 751.5,696.5859 L751.5,722.5859 C751.5,732.5859 733.5,732.5859 733.5,732.5859 C733.5,732.5859 715.5,732.5859 715.5,722.5859 L715.5,696.5859 " fill="#E2E2F0" style="stroke:#181818;stroke-width:1.5;"/><path d="M715.5,696.5859 C715.5,706.5859 733.5,706.5859 733.5,706.5859 C733.5,706.5859 751.5,706.5859 751.5,696.5859 " fill="none" style="stroke:#181818;stroke-width:1.5;"/><text fill="#000000" font-family="sans-serif" font-size="14" lengthAdjust="spacing" textLength="97" x="811.5" y="84.1279">&#1041;&#1044; &#1086;&#1073;&#1098;&#1077;&#1082;&#1090;&#1086;&#1074;</text><path d="M845,35.1328 C845,25.1328 863,25.1328 863,25.1328 C863,25.1328 881,25.1328 881,35.1328 L881,61.1328 C881,71.1328 863,71.1328 863,71.1328 C863,71.1328 845,71.1328 845,61.1328 L845,35.1328 " fill="#E2E2F0" style="stroke:#181818;stroke-width:1.5;"/><path d="M845,35.1328 C845,45.1328 863,45.1328 863,45.1328 C863,45.1328 881,45.1328 881,35.1328 " fill="none" style="stroke:#181818;stroke-width:1.5;"/><text fill="#000000" font-family="sans-serif" font-size="14" lengthAdjust="spacing" textLength="97" x="811.5" y="683.2842">&#1041;&#1044; &#1086;&#1073;&#1098;&#1077;&#1082;&#1090;&#1086;&#1074;</text><path d="M845,696.5859 C845,686.5859 863,686.5859 863,686.5859 C863,686.5859 881,686.5859 881,696.5859 L881,722.5859 C881,732.5859 863,732.5859 863,732.5859 C863,732.5859 845,732.5859 845,722.5859 L845,696.5859 " fill="#E2E2F0" style="stroke:#181818;stroke-width:1.5;"/><path d="M845,696.5859 C845,706.5859 863,706.5859 863,706.5859 C863,706.5859 881,706.5859 881,696.5859 " fill="none" style="stroke:#181818;stroke-width:1.5;"/><text fill="#000000" font-family="sans-serif" font-size="14" lengthAdjust="spacing" textLength="59" x="924.5" y="84.1279">&#1041;&#1044; &#1082;&#1085;&#1080;&#1075;</text><path d="M939,35.1328 C939,25.1328 957,25.1328 957,25.1328 C957,25.1328 975,25.1328 975,35.1328 L975,61.1328 C975,71.1328 957,71.1328 957,71.1328 C957,71.1328 939,71.1328 939,61.1328 L939,35.1328 " fill="#E2E2F0" style="stroke:#181818;stroke-width:1.5;"/><path d="M939,35.1328 C939,45.1328 957,45.1328 957,45.1328 C957,45.1328 975,45.1328 975,35.1328 " fill="none" style="stroke:#181818;stroke-width:1.5;"/><text fill="#000000" font-family="sans-serif" font-size="14" lengthAdjust="spacing" textLength="59" x="924.5" y="683.2842">&#1041;&#1044; &#1082;&#1085;&#1080;&#1075;</text><path d="M939,696.5859 C939,686.5859 957,686.5859 957,686.5859 C957,686.5859 975,686.5859 975,696.5859 L975,722.5859 C975,732.5859 957,732.5859 957,732.5859 C957,732.5859 939,732.5859 939,722.5859 L939,696.5859 " fill="#E2E2F0" style="stroke:#181818;stroke-width:1.5;"/><path d="M939,696.5859 C939,706.5859 957,706.5859 957,706.5859 C957,706.5859 975,706.5859 975,696.5859 " fill="none" style="stroke:#181818;stroke-width:1.5;"/><rect fill="#E2E2F0" height="30.2969" rx="2.5" ry="2.5" style="stroke:#181818;stroke-width:0.5;" width="92" x="999.5" y="56.1328"/><text fill="#000000" font-family="sans-serif" font-size="14" lengthAdjust="spacing" textLength="78" x="1006.5" y="76.1279">&#1055;&#1086;&#1076;&#1089;&#1082;&#1072;&#1079;&#1082;&#1080;</text><rect fill="#E2E2F0" height="30.2969" rx="2.5" ry="2.5" style="stroke:#181818;stroke-width:0.5;" width="92" x="999.5" y="670.2891"/><text fill="#000000" font-family="sans-serif" font-size="14" lengthAdjust="spacing" textLength="78" x="1006.5" y="690.2842">&#1055;&#1086;&#1076;&#1089;&#1082;&#1072;&#1079;&#1082;&#1080;</text><text fill="#000000" font-family="sans-serif" font-size="14" lengthAdjust="spacing" textLength="53" x="1101.5" y="84.1279">Discord</text><path d="M1110.5,43.1328 L1110.5,67.1328 M1110.5,55.1328 L1127.5,55.1328 " fill="none" style="stroke:#181818;stroke-width:0.5;"/><ellipse cx="1139.5" cy="55.1328" fill="#E2E2F0" rx="12" ry="12" style="stroke:#181818;stroke-width:0.5;"/><text fill="#000000" font-family="sans-serif" font-size="14" lengthAdjust="spacing" textLength="53" x="1101.5" y="683.2842">Discord</text><path d="M1110.5,690.5859 L1110.5,714.5859 M1110.5,702.5859 L1127.5,702.5859 " fill="none" style="stroke:#181818;stroke-width:0.5;"/><ellipse cx="1139.5" cy="702.5859" fill="#E2E2F0" rx="12" ry="12" style="stroke:#181818;stroke-width:0.5;"/><rect fill="#EEEEEE" height="3" style="stroke:#EEEEEE;stroke-width:1.0;" width="1165.5" x="0" y="117.9961"/><line style="stroke:#000000;stroke-width:1.0;" x1="0" x2="1165.5" y1="117.9961" y2="117.9961"/><line style="stroke:#000000;stroke-width:1.0;" x1="0" x2="1165.5" y1="120.9961" y2="120.9961"/><rect fill="#EEEEEE" height="23.1328" style="stroke:#000000;stroke-width:2.0;" width="185" x="490.25" y="107.4297"/><text fill="#000000" font-family="sans-serif" font-size="13" font-weight="bold" lengthAdjust="spacing" textLength="171" x="496.25" y="123.4966">&#1042;&#1099;&#1087;&#1086;&#1083;&#1085;&#1077;&#1085;&#1080;&#1077; &#1076;&#1077;&#1081;&#1089;&#1090;&#1074;&#1080;&#1081;</text><polygon fill="#181818" points="312,157.6953,322,161.6953,312,165.6953,316,161.6953" style="stroke:#181818;stroke-width:1.0;"/><line style="stroke:#181818;stroke-width:1.0;stroke-dasharray:2.0,2.0;" x1="113.5" x2="318" y1="161.6953" y2="161.6953"/><text fill="#000000" font-family="sans-serif" font-size="13" lengthAdjust="spacing" textLength="137" x="120.5" y="156.6294">&#1079;&#1072;&#1103;&#1074;&#1082;&#1072; &#1085;&#1072; &#1076;&#1077;&#1081;&#1089;&#1090;&#1074;&#1080;&#1077;</text><polygon fill="#181818" points="392,171.6953,402,175.6953,392,179.6953,396,175.6953" style="stroke:#181818;stroke-width:1.0;"/><line style="stroke:#181818;stroke-width:1.0;stroke-dasharray:2.0,2.0;" x1="324" x2="398" y1="175.6953" y2="175.6953"/><polygon fill="#181818" points="335,185.6953,325,189.6953,335,193.6953,331,189.6953" style="stroke:#181818;stroke-width:1.0;"/><line style="stroke:#181818;stroke-width:1.0;stroke-dasharray:2.0,2.0;" x1="329" x2="403" y1="189.6953" y2="189.6953"/><polygon fill="#181818" points="53,214.8281,43,218.8281,53,222.8281,49,218.8281" style="stroke:#181818;stroke-width:1.0;"/><line style="stroke:#181818;stroke-width:1.0;stroke-dasharray:2.0,2.0;" x1="47" x2="323" y1="218.8281" y2="218.8281"/><text fill="#000000" font-family="sans-serif" font-size="13" lengthAdjust="spacing" textLength="147" x="59" y="213.7622">&#1086;&#1087;&#1086;&#1074;&#1077;&#1097;&#1077;&#1085;&#1080;&#1077; &#1086; &#1079;&#1072;&#1103;&#1074;&#1082;&#1077;</text><polygon fill="#181818" points="312,243.9609,322,247.9609,312,251.9609,316,247.9609" style="stroke:#181818;stroke-width:1.0;"/><line style="stroke:#181818;stroke-width:1.0;stroke-dasharray:2.0,2.0;" x1="42" x2="318" y1="247.9609" y2="247.9609"/><text fill="#000000" font-family="sans-serif" font-size="13" lengthAdjust="spacing" textLength="258" x="49" y="242.895">&#1086;&#1076;&#1086;&#1073;&#1088;&#1077;&#1085;&#1080;&#1077; &#1079;&#1072;&#1103;&#1074;&#1082;&#1080; + &#1089;&#1087;&#1080;&#1089;&#1086;&#1082; &#1087;&#1088;&#1086;&#1074;&#1077;&#1088;&#1086;&#1082;</text><polygon fill="#181818" points="392,257.9609,402,261.9609,392,265.9609,396,261.9609" style="stroke:#181818;stroke-width:1.0;"/><line style="stroke:#181818;stroke-width:1.0;stroke-dasharray:2.0,2.0;" x1="324" x2="398" y1="261.9609" y2="261.9609"/><path d="M79,276.9609 L143,276.9609 L143,284.0938 L133,294.0938 L79,294.0938 L79,276.9609 " fill="#EEEEEE" style="stroke:#000000;stroke-width:1.5;"/><rect fill="none" height="103.3984" style="stroke:#000000;stroke-width:1.5;" width="360.5" x="79" y="276.9609"/><text fill="#000000" font-family="sans-serif" font-size="13" font-weight="bold" lengthAdjust="spacing" textLength="19" x="94" y="290.0278">alt</text><text fill="#000000" font-family="sans-serif" font-size="11" font-weight="bold" lengthAdjust="spacing" textLength="174" x="158" y="289.1714">[&#1079;&#1072;&#1103;&#1074;&#1082;&#1072; &#1090;&#1088;&#1077;&#1073;&#1091;&#1077;&#1090; &#1087;&#1088;&#1086;&#1074;&#1077;&#1088;&#1086;&#1082;]</text><polygon fill="#181818" points="335,296.0938,325,300.0938,335,304.0938,331,300.0938" style="stroke:#181818;stroke-width:1.0;"/><line style="stroke:#181818;stroke-width:1.0;stroke-dasharray:2.0,2.0;" x1="329" x2="403" y1="300.0938" y2="300.0938"/><polygon fill="#181818" points="124.5,325.2266,114.5,329.2266,124.5,333.2266,120.5,329.2266" style="stroke:#181818;stroke-width:1.0;"/><line style="stroke:#181818;stroke-width:1.0;stroke-dasharray:2.0,2.0;" x1="118.5" x2="323" y1="329.2266" y2="329.2266"/><text fill="#000000" font-family="sans-serif" font-size="13" lengthAdjust="spacing" textLength="114" x="130.5" y="324.1606">&#1079;&#1072;&#1087;&#1088;&#1086;&#1089; &#1087;&#1088;&#1086;&#1074;&#1077;&#1088;&#1086;&#1082;</text><polygon fill="#181818" points="312,354.3594,322,358.3594,312,362.3594,316,358.3594" style="stroke:#181818;stroke-width:1.0;"/><line style="stroke:#181818;stroke-width:1.0;stroke-dasharray:2.0,2.0;" x1="113.5" x2="318" y1="358.3594" y2="358.3594"/><text fill="#000000" font-family="sans-serif" font-size="13" lengthAdjust="spacing" textLength="150" x="120.5" y="353.2935">&#1074;&#1099;&#1087;&#1086;&#1083;&#1085;&#1077;&#1085;&#1080;&#1077; &#1087;&#1088;&#1086;&#1074;&#1077;&#1088;&#1082;&#1080;</text><polygon fill="#181818" points="392,368.3594,402,372.3594,392,376.3594,396,372.3594" style="stroke:#181818;stroke-width:1.0;"/><line style="stroke:#181818;stroke-width:1.0;stroke-dasharray:2.0,2.0;" x1="324" x2="398" y1="372.3594" y2="372.3594"/><polygon fill="#181818" points="335,389.3594,325,393.3594,335,397.3594,331,393.3594" style="stroke:#181818;stroke-width:1.0;"/><line style="stroke:#181818;stroke-width:1.0;stroke-dasharray:2.0,2.0;" x1="329" x2="403" y1="393.3594" y2="393.3594"/><polygon fill="#181818" points="53,418.4922,43,422.4922,53,426.4922,49,422.4922" style="stroke:#181818;stroke-width:1.0;"/><line style="stroke:#181818;stroke-width:1.0;stroke-dasharray:2.0,2.0;" x1="47" x2="323" y1="422.4922" y2="422.4922"/><text fill="#000000" font-family="sans-serif" font-size="13" lengthAdjust="spacing" textLength="226" x="59" y="417.4263">&#1088;&#1077;&#1079;&#1091;&#1083;&#1100;&#1090;&#1072;&#1090; &#1074;&#1099;&#1087;&#1086;&#1083;&#1085;&#1077;&#1085;&#1080;&#1103; &#1087;&#1088;&#1086;&#1074;&#1077;&#1088;&#1082;&#1080;</text><polygon fill="#181818" points="312,447.625,322,451.625,312,455.625,316,451.625" style="stroke:#181818;stroke-width:1.0;"/><line style="stroke:#181818;stroke-width:1.0;stroke-dasharray:2.0,2.0;" x1="42" x2="318" y1="451.625" y2="451.625"/><text fill="#000000" font-family="sans-serif" font-size="13" lengthAdjust="spacing" textLength="122" x="49" y="446.5591">&#1079;&#1072;&#1087;&#1088;&#1086;&#1089; &#1087;&#1086;&#1076;&#1089;&#1082;&#1072;&#1079;&#1086;&#1082;</text><polygon fill="#181818" points="392,461.625,402,465.625,392,469.625,396,465.625" style="stroke:#181818;stroke-width:1.0;"/><line style="stroke:#181818;stroke-width:1.0;stroke-dasharray:2.0,2.0;" x1="324" x2="398" y1="465.625" y2="465.625"/><polygon fill="#181818" points="415,490.7578,405,494.7578,415,498.7578,411,494.7578" style="stroke:#181818;stroke-width:1.0;"/><polygon fill="#181818" points="1033.5,490.7578,1043.5,494.7578,1033.5,498.7578,1037.5,494.7578" style="stroke:#181818;stroke-width:1.0;"/><line style="stroke:#181818;stroke-width:1.0;stroke-dasharray:2.0,2.0;" x1="409" x2="1039.5" y1="494.7578" y2="494.7578"/><text fill="#000000" font-family="sans-serif" font-size="13" lengthAdjust="spacing" textLength="328" x="421" y="489.6919">&#1079;&#1072;&#1087;&#1088;&#1086;&#1089; &#1080; &#1092;&#1086;&#1088;&#1084;&#1080;&#1088;&#1086;&#1074;&#1072;&#1085;&#1080;&#1077; &#1087;&#1086;&#1076;&#1093;&#1086;&#1076;&#1103;&#1097;&#1080;&#1093; &#1087;&#1086;&#1076;&#1089;&#1082;&#1072;&#1079;&#1086;&#1082;</text><polygon fill="#181818" points="335,504.7578,325,508.7578,335,512.7578,331,508.7578" style="stroke:#181818;stroke-width:1.0;"/><line style="stroke:#181818;stroke-width:1.0;stroke-dasharray:2.0,2.0;" x1="329" x2="403" y1="508.7578" y2="508.7578"/><polygon fill="#181818" points="53,533.8906,43,537.8906,53,541.8906,49,537.8906" style="stroke:#181818;stroke-width:1.0;"/><line style="stroke:#181818;stroke-width:1.0;stroke-dasharray:2.0,2.0;" x1="47" x2="323" y1="537.8906" y2="537.8906"/><text fill="#000000" font-family="sans-serif" font-size="13" lengthAdjust="spacing" textLength="122" x="59" y="532.8247">&#1089;&#1087;&#1080;&#1089;&#1086;&#1082; &#1087;&#1086;&#1076;&#1089;&#1082;&#1072;&#1079;&#1086;&#1082;</text><polygon fill="#181818" points="312,563.0234,322,567.0234,312,571.0234,316,567.0234" style="stroke:#181818;stroke-width:1.0;"/><line style="stroke:#181818;stroke-width:1.0;stroke-dasharray:2.0,2.0;" x1="42" x2="318" y1="567.0234" y2="567.0234"/><text fill="#000000" font-family="sans-serif" font-size="13" lengthAdjust="spacing" textLength="177" x="49" y="561.9575">&#1086;&#1087;&#1080;&#1089;&#1072;&#1085;&#1080;&#1077; &#1087;&#1088;&#1086;&#1080;&#1079;&#1086;&#1096;&#1077;&#1076;&#1096;&#1077;&#1075;&#1086;</text><polygon fill="#181818" points="392,577.0234,402,581.0234,392,585.0234,396,581.0234" style="stroke:#181818;stroke-width:1.0;"/><line style="stroke:#181818;stroke-width:1.0;stroke-dasharray:2.0,2.0;" x1="324" x2="398" y1="581.0234" y2="581.0234"/><polygon fill="#181818" points="535.5,606.1563,545.5,610.1563,535.5,614.1563,539.5,610.1563" style="stroke:#181818;stroke-width:1.0;"/><line style="stroke:#181818;stroke-width:1.0;stroke-dasharray:2.0,2.0;" x1="404" x2="541.5" y1="610.1563" y2="610.1563"/><text fill="#000000" font-family="sans-serif" font-size="13" lengthAdjust="spacing" textLength="117" x="411" y="605.0903">&#1080;&#1075;&#1088;&#1086;&#1074;&#1086;&#1077; &#1089;&#1086;&#1073;&#1099;&#1090;&#1080;&#1077;</text><polygon fill="#181818" points="335,620.1563,325,624.1563,335,628.1563,331,624.1563" style="stroke:#181818;stroke-width:1.0;"/><line style="stroke:#181818;stroke-width:1.0;stroke-dasharray:2.0,2.0;" x1="329" x2="403" y1="624.1563" y2="624.1563"/><polygon fill="#181818" points="53,649.2891,43,653.2891,53,657.2891,49,653.2891" style="stroke:#181818;stroke-width:1.0;"/><line style="stroke:#181818;stroke-width:1.0;stroke-dasharray:2.0,2.0;" x1="47" x2="323" y1="653.2891" y2="653.2891"/><text fill="#000000" font-family="sans-serif" font-size="13" lengthAdjust="spacing" textLength="173" x="59" y="648.2231">&#1087;&#1088;&#1080;&#1079;&#1085;&#1072;&#1082; &#1091;&#1089;&#1087;&#1077;&#1093;&#1072; &#1086;&#1087;&#1077;&#1088;&#1072;&#1094;&#1080;&#1080;</text><!--SRC=[ZLHDRjD05DxFAKPXYNg1Y221AY5sS8H9R46WiLFReSskIIbGKYcYOi6A7e5f6gjk0iaLthiHtyo4EFvHowAZIUTzF-_7JtMIC98DkgIKvdpAvvJHNKEgM7ezeJQFF-Y6JsX52_lGFr13FnBjy5ZI5Ir9yvW_qWeHlqdBHt4G7ec-Yf9kfzjNGI8Rprwzb2zKSgI65lz69JxknHZw1Nbes8XE6FdYSE0FV3pyvC-Kuidukv2mvxpCUC9daaUuNkCwtlhsF_X1yjg0XQSIrLQnOVb6tql16ogUvAZzvsM81No5zW8WYDhOiFtExzG5B-YF8RL1xJ1yZv1YabVWcCF6WZJTuiniwDjkaCIevo3mL3IKZVrkZ0fuhWlkBlp00-Mn4ABLeakUq1fKI-YbLZELDCVrZaVmEJFfjLh2DKhkxJtzL_EcXApcAK9WGGAgoy1KR68jpdR27BiiXGYlrpHLCdPcwDDvRcYrAvOAuVLALb0BMz-J79C3CldOD6nDcMtRGjBQzTqE0_vHzQaEac9-64p3VSsd08sh3FScvghdAkQGFAfIrDPuLjUVNIJIgzf7YnykjKte5Waj-G8TqoQjYXnFgtBLyXVpAancRNcjjoVcfntOCaCcjriWssZhRUwM_SoUKxDZyEdMI3wSVN4WAWHrC-O0kjY6p03uYrqgvhoXrJrpdw-Kviu2mbzQt2dfVtmgHj-euzD33jYu9gKKjT7EhEcNva-8oSHV]--></g></svg>