<?xml version="1.0" encoding="us-ascii" standalone="no"?><svg xmlns="http://www.w3.org/2000/svg" xmlns:xlink="http://www.w3.org/1999/xlink" contentStyleType="text/css" height="1746px" preserveAspectRatio="none" style="width:1554px;height:1746px;background:#FFFFFF;" version="1.1" viewBox="0 0 1554 1746" width="1554px" zoomAndPan="magnify"><defs/><g><rect fill="#FFFAFA" height="1734.9063" style="stroke:#181818;stroke-width:0.5;" width="1097" x="298.5" y="6"/><text fill="#000000" font-family="sans-serif" font-size="13" font-weight="bold" lengthAdjust="spacing" textLength="90" x="799.5" y="18.0669">&#1055;&#1083;&#1072;&#1090;&#1092;&#1086;&#1088;&#1084;&#1072;</text><rect fill="none" height="263.8672" style="stroke:#000000;stroke-width:1.5;" width="1214.5" x="10" y="695.6563"/><line style="stroke:#181818;stroke-width:0.5;stroke-dasharray:5.0,5.0;" x1="57" x2="57" y1="113.8906" y2="1629.0156"/><line style="stroke:#181818;stroke-width:0.5;stroke-dasharray:5.0,5.0;" x1="346.5" x2="346.5" y1="113.8906" y2="1629.0156"/><line style="stroke:#181818;stroke-width:0.5;stroke-dasharray:5.0,5.0;" x1="506" x2="506" y1="113.8906" y2="1629.0156"/><line style="stroke:#181818;stroke-width:0.5;stroke-dasharray:5.0,5.0;" x1="564" x2="564" y1="113.8906" y2="1629.0156"/><line style="stroke:#181818;stroke-width:0.5;stroke-dasharray:5.0,5.0;" x1="847.5" x2="847.5" y1="113.8906" y2="1629.0156"/><line style="stroke:#181818;stroke-width:0.5;stroke-dasharray:5.0,5.0;" x1="1033.5" x2="1033.5" y1="113.8906" y2="1629.0156"/><line style="stroke:#181818;stroke-width:0.5;stroke-dasharray:5.0,5.0;" x1="1162.5" x2="1162.5" y1="113.8906" y2="1629.0156"/><line style="stroke:#181818;stroke-width:0.5;stroke-dasharray:5.0,5.0;" x1="1256.5" x2="1256.5" y1="113.8906" y2="1629.0156"/><line style="stroke:#181818;stroke-width:0.5;stroke-dasharray:5.0,5.0;" x1="1345.5" x2="1345.5" y1="113.8906" y2="1629.0156"/><line style="stroke:#181818;stroke-width:0.5;stroke-dasharray:5.0,5.0;" x1="1434.5" x2="1434.5" y1="113.8906" y2="1629.0156"/><line style="stroke:#181818;stroke-width:0.5;stroke-dasharray:5.0,5.0;" x1="1509.5" x2="1509.5" y1="113.8906" y2="1629.0156"/><text fill="#000000" font-family="sans-serif" font-size="14" lengthAdjust="spacing" textLength="43" x="32.5" y="77.9951">&#1048;&#1075;&#1088;&#1086;&#1082;</text><text fill="#000000" font-family="sans-serif" font-size="14" lengthAdjust="spacing" textLength="27" x="40.5" y="94.292">&#1080;&#1083;&#1080;</text><text fill="#000000" font-family="sans-serif" font-size="14" lengthAdjust="spacing" textLength="68" x="20" y="110.5889">&#1042;&#1077;&#1076;&#1091;&#1097;&#1080;&#1081;</text><ellipse cx="57" cy="13.5" fill="#E2E2F0" rx="8" ry="8" style="stroke:#181818;stroke-width:0.5;"/><path d="M57,21.5 L57,48.5 M44,29.5 L70,29.5 M57,48.5 L44,63.5 M57,48.5 L70,63.5 " fill="none" style="stroke:#181818;stroke-width:0.5;"/><text fill="#000000" font-family="sans-serif" font-size="14" lengthAdjust="spacing" textLength="43" x="32.5" y="1641.0107">&#1048;&#1075;&#1088;&#1086;&#1082;</text><text fill="#000000" font-family="sans-serif" font-size="14" lengthAdjust="spacing" textLength="27" x="40.5" y="1657.3076">&#1080;&#1083;&#1080;</text><text fill="#000000" font-family="sans-serif" font-size="14" lengthAdjust="spacing" textLength="68" x="20" y="1673.6045">&#1042;&#1077;&#1076;&#1091;&#1097;&#1080;&#1081;</text><ellipse cx="57" cy="1685.4063" fill="#E2E2F0" rx="8" ry="8" style="stroke:#181818;stroke-width:0.5;"/><path d="M57,1693.4063 L57,1720.4063 M44,1701.4063 L70,1701.4063 M57,1720.4063 L44,1735.4063 M57,1720.4063 L70,1735.4063 " fill="none" style="stroke:#181818;stroke-width:0.5;"/><rect fill="#E2E2F0" height="30.2969" rx="2.5" ry="2.5" style="stroke:#181818;stroke-width:0.5;" width="89" x="302.5" y="82.5938"/><text fill="#000000" font-family="sans-serif" font-size="14" lengthAdjust="spacing" textLength="75" x="309.5" y="102.5889">API Gatway</text><rect fill="#E2E2F0" height="30.2969" rx="2.5" ry="2.5" style="stroke:#181818;stroke-width:0.5;" width="89" x="302.5" y="1628.0156"/><text fill="#000000" font-family="sans-serif" font-size="14" lengthAdjust="spacing" textLength="75" x="309.5" y="1648.0107">API Gatway</text><rect fill="#E2E2F0" height="30.2969" rx="2.5" ry="2.5" style="stroke:#181818;stroke-width:0.5;" width="46" x="483" y="82.5938"/><text fill="#000000" font-family="sans-serif" font-size="14" lengthAdjust="spacing" textLength="32" x="490" y="102.5889">&#1050;&#1077;&#1096;</text><rect fill="#E2E2F0" height="30.2969" rx="2.5" ry="2.5" style="stroke:#181818;stroke-width:0.5;" width="46" x="483" y="1628.0156"/><text fill="#000000" font-family="sans-serif" font-size="14" lengthAdjust="spacing" textLength="32" x="490" y="1648.0107">&#1050;&#1077;&#1096;</text><rect fill="#E2E2F0" height="30.2969" rx="2.5" ry="2.5" style="stroke:#181818;stroke-width:0.5;" width="51" x="539" y="82.5938"/><text fill="#000000" font-family="sans-serif" font-size="14" lengthAdjust="spacing" textLength="37" x="546" y="102.5889">&#1071;&#1076;&#1088;&#1086;</text><rect fill="#E2E2F0" height="30.2969" rx="2.5" ry="2.5" style="stroke:#181818;stroke-width:0.5;" width="51" x="539" y="1628.0156"/><text fill="#000000" font-family="sans-serif" font-size="14" lengthAdjust="spacing" textLength="37" x="546" y="1648.0107">&#1071;&#1076;&#1088;&#1086;</text><path d="M744.5,87.5938 L950.5,87.5938 C955.5,87.5938 955.5,100.7422 955.5,100.7422 C955.5,100.7422 955.5,113.8906 950.5,113.8906 L744.5,113.8906 C739.5,113.8906 739.5,100.7422 739.5,100.7422 C739.5,100.7422 739.5,87.5938 744.5,87.5938 " fill="#E2E2F0" style="stroke:#181818;stroke-width:0.5;"/><path d="M950.5,87.5938 C945.5,87.5938 945.5,100.7422 945.5,100.7422 C945.5,113.8906 950.5,113.8906 950.5,113.8906 " fill="none" style="stroke:#181818;stroke-width:0.5;"/><text fill="#000000" font-family="sans-serif" font-size="14" lengthAdjust="spacing" textLength="196" x="744.5" y="105.5889">&#1054;&#1095;&#1077;&#1088;&#1077;&#1076;&#1100; &#1080;&#1075;&#1088;&#1086;&#1074;&#1099;&#1093; &#1089;&#1086;&#1073;&#1099;&#1090;&#1080;&#1081;</text><path d="M744.5,1628.0156 L950.5,1628.0156 C955.5,1628.0156 955.5,1641.1641 955.5,1641.1641 C955.5,1641.1641 955.5,1654.3125 950.5,1654.3125 L744.5,1654.3125 C739.5,1654.3125 739.5,1641.1641 739.5,1641.1641 C739.5,1641.1641 739.5,1628.0156 744.5,1628.0156 " fill="#E2E2F0" style="stroke:#181818;stroke-width:0.5;"/><path d="M950.5,1628.0156 C945.5,1628.0156 945.5,1641.1641 945.5,1641.1641 C945.5,1654.3125 950.5,1654.3125 950.5,1654.3125 " fill="none" style="stroke:#181818;stroke-width:0.5;"/><text fill="#000000" font-family="sans-serif" font-size="14" lengthAdjust="spacing" textLength="196" x="744.5" y="1646.0107">&#1054;&#1095;&#1077;&#1088;&#1077;&#1076;&#1100; &#1080;&#1075;&#1088;&#1086;&#1074;&#1099;&#1093; &#1089;&#1086;&#1073;&#1099;&#1090;&#1080;&#1081;</text><text fill="#000000" font-family="sans-serif" font-size="14" lengthAdjust="spacing" textLength="130" x="965.5" y="110.5889">&#1041;&#1044; &#1089;&#1086;&#1073;&#1099;&#1090;&#1080;&#1081; &#1080;&#1075;&#1088;&#1099;</text><path d="M1015.5,61.5938 C1015.5,51.5938 1033.5,51.5938 1033.5,51.5938 C1033.5,51.5938 1051.5,51.5938 1051.5,61.5938 L1051.5,87.5938 C1051.5,97.5938 1033.5,97.5938 1033.5,97.5938 C1033.5,97.5938 1015.5,97.5938 1015.5,87.5938 L1015.5,61.5938 " fill="#E2E2F0" style="stroke:#181818;stroke-width:1.5;"/><path d="M1015.5,61.5938 C1015.5,71.5938 1033.5,71.5938 1033.5,71.5938 C1033.5,71.5938 1051.5,71.5938 1051.5,61.5938 " fill="none" style="stroke:#181818;stroke-width:1.5;"/><text fill="#000000" font-family="sans-serif" font-size="14" lengthAdjust="spacing" textLength="130" x="965.5" y="1641.0107">&#1041;&#1044; &#1089;&#1086;&#1073;&#1099;&#1090;&#1080;&#1081; &#1080;&#1075;&#1088;&#1099;</text><path d="M1015.5,1654.3125 C1015.5,1644.3125 1033.5,1644.3125 1033.5,1644.3125 C1033.5,1644.3125 1051.5,1644.3125 1051.5,1654.3125 L1051.5,1680.3125 C1051.5,1690.3125 1033.5,1690.3125 1033.5,1690.3125 C1033.5,1690.3125 1015.5,1690.3125 1015.5,1680.3125 L1015.5,1654.3125 " fill="#E2E2F0" style="stroke:#181818;stroke-width:1.5;"/><path d="M1015.5,1654.3125 C1015.5,1664.3125 1033.5,1664.3125 1033.5,1664.3125 C1033.5,1664.3125 1051.5,1664.3125 1051.5,1654.3125 " fill="none" style="stroke:#181818;stroke-width:1.5;"/><text fill="#000000" font-family="sans-serif" font-size="14" lengthAdjust="spacing" textLength="97" x="1111.5" y="110.5889">&#1041;&#1044; &#1086;&#1073;&#1098;&#1077;&#1082;&#1090;&#1086;&#1074;</text><path d="M1145,61.5938 C1145,51.5938 1163,51.5938 1163,51.5938 C1163,51.5938 1181,51.5938 1181,61.5938 L1181,87.5938 C1181,97.5938 1163,97.5938 1163,97.5938 C1163,97.5938 1145,97.5938 1145,87.5938 L1145,61.5938 " fill="#E2E2F0" style="stroke:#181818;stroke-width:1.5;"/><path d="M1145,61.5938 C1145,71.5938 1163,71.5938 1163,71.5938 C1163,71.5938 1181,71.5938 1181,61.5938 " fill="none" style="stroke:#181818;stroke-width:1.5;"/><text fill="#000000" font-family="sans-serif" font-size="14" lengthAdjust="spacing" textLength="97" x="1111.5" y="1641.0107">&#1041;&#1044; &#1086;&#1073;&#1098;&#1077;&#1082;&#1090;&#1086;&#1074;</text><path d="M1145,1654.3125 C1145,1644.3125 1163,1644.3125 1163,1644.3125 C1163,1644.3125 1181,1644.3125 1181,1654.3125 L1181,1680.3125 C1181,1690.3125 1163,1690.3125 1163,1690.3125 C1163,1690.3125 1145,1690.3125 1145,1680.3125 L1145,1654.3125 " fill="#E2E2F0" style="stroke:#181818;stroke-width:1.5;"/><path d="M1145,1654.3125 C1145,1664.3125 1163,1664.3125 1163,1664.3125 C1163,1664.3125 1181,1664.3125 1181,1654.3125 " fill="none" style="stroke:#181818;stroke-width:1.5;"/><text fill="#000000" font-family="sans-serif" font-size="14" lengthAdjust="spacing" textLength="59" x="1224.5" y="110.5889">&#1041;&#1044; &#1082;&#1085;&#1080;&#1075;</text><path d="M1239,61.5938 C1239,51.5938 1257,51.5938 1257,51.5938 C1257,51.5938 1275,51.5938 1275,61.5938 L1275,87.5938 C1275,97.5938 1257,97.5938 1257,97.5938 C1257,97.5938 1239,97.5938 1239,87.5938 L1239,61.5938 " fill="#E2E2F0" style="stroke:#181818;stroke-width:1.5;"/><path d="M1239,61.5938 C1239,71.5938 1257,71.5938 1257,71.5938 C1257,71.5938 1275,71.5938 1275,61.5938 " fill="none" style="stroke:#181818;stroke-width:1.5;"/><text fill="#000000" font-family="sans-serif" font-size="14" lengthAdjust="spacing" textLength="59" x="1224.5" y="1641.0107">&#1041;&#1044; &#1082;&#1085;&#1080;&#1075;</text><path d="M1239,1654.3125 C1239,1644.3125 1257,1644.3125 1257,1644.3125 C1257,1644.3125 1275,1644.3125 1275,1654.3125 L1275,1680.3125 C1275,1690.3125 1257,1690.3125 1257,1690.3125 C1257,1690.3125 1239,1690.3125 1239,1680.3125 L1239,1654.3125 " fill="#E2E2F0" style="stroke:#181818;stroke-width:1.5;"/><path d="M1239,1654.3125 C1239,1664.3125 1257,1664.3125 1257,1664.3125 C1257,1664.3125 1275,1664.3125 1275,1654.3125 " fill="none" style="stroke:#181818;stroke-width:1.5;"/><rect fill="#E2E2F0" height="30.2969" rx="2.5" ry="2.5" style="stroke:#181818;stroke-width:0.5;" width="92" x="1299.5" y="82.5938"/><text fill="#000000" font-family="sans-serif" font-size="14" lengthAdjust="spacing" textLength="78" x="1306.5" y="102.5889">&#1055;&#1086;&#1076;&#1089;&#1082;&#1072;&#1079;&#1082;&#1080;</text><rect fill="#E2E2F0" height="30.2969" rx="2.5" ry="2.5" style="stroke:#181818;stroke-width:0.5;" width="92" x="1299.5" y="1628.0156"/><text fill="#000000" font-family="sans-serif" font-size="14" lengthAdjust="spacing" textLength="78" x="1306.5" y="1648.0107">&#1055;&#1086;&#1076;&#1089;&#1082;&#1072;&#1079;&#1082;&#1080;</text><rect fill="#E2E2F0" height="30.2969" rx="2.5" ry="2.5" style="stroke:#181818;stroke-width:0.5;" width="66" x="1401.5" y="82.5938"/><text fill="#000000" font-family="sans-serif" font-size="14" lengthAdjust="spacing" textLength="52" x="1408.5" y="102.5889">userDB</text><rect fill="#E2E2F0" height="30.2969" rx="2.5" ry="2.5" style="stroke:#181818;stroke-width:0.5;" width="66" x="1401.5" y="1628.0156"/><text fill="#000000" font-family="sans-serif" font-size="14" lengthAdjust="spacing" textLength="52" x="1408.5" y="1648.0107">userDB</text><rect fill="#E2E2F0" height="30.2969" rx="2.5" ry="2.5" style="stroke:#181818;stroke-width:0.5;" width="65" x="1477.5" y="82.5938"/><text fill="#000000" font-family="sans-serif" font-size="14" lengthAdjust="spacing" textLength="51" x="1484.5" y="102.5889">discord</text><rect fill="#E2E2F0" height="30.2969" rx="2.5" ry="2.5" style="stroke:#181818;stroke-width:0.5;" width="65" x="1477.5" y="1628.0156"/><text fill="#000000" font-family="sans-serif" font-size="14" lengthAdjust="spacing" textLength="51" x="1484.5" y="1648.0107">discord</text><rect fill="#EEEEEE" height="3" style="stroke:#EEEEEE;stroke-width:1.0;" width="1547.5" x="0" y="144.457"/><line style="stroke:#000000;stroke-width:1.0;" x1="0" x2="1547.5" y1="144.457" y2="144.457"/><line style="stroke:#000000;stroke-width:1.0;" x1="0" x2="1547.5" y1="147.457" y2="147.457"/><rect fill="#EEEEEE" height="23.1328" style="stroke:#000000;stroke-width:2.0;" width="201" x="673.25" y="133.8906"/><text fill="#000000" font-family="sans-serif" font-size="13" font-weight="bold" lengthAdjust="spacing" textLength="187" x="679.25" y="149.9575">&#1055;&#1083;&#1072;&#1085;&#1080;&#1088;&#1086;&#1074;&#1072;&#1085;&#1080;&#1077; &#1076;&#1077;&#1081;&#1089;&#1090;&#1074;&#1080;&#1081;</text><polygon fill="#181818" points="335,184.1563,345,188.1563,335,192.1563,339,188.1563" style="stroke:#181818;stroke-width:1.0;"/><line style="stroke:#181818;stroke-width:1.0;stroke-dasharray:2.0,2.0;" x1="57" x2="341" y1="188.1563" y2="188.1563"/><text fill="#000000" font-family="sans-serif" font-size="13" lengthAdjust="spacing" textLength="194" x="64" y="183.0903">&#1079;&#1072;&#1087;&#1088;&#1086;&#1089; &#1076;&#1086;&#1089;&#1090;&#1091;&#1087;&#1085;&#1099;&#1093; &#1076;&#1077;&#1081;&#1089;&#1090;&#1074;&#1080;&#1081;</text><polygon fill="#181818" points="552.5,198.1563,562.5,202.1563,552.5,206.1563,556.5,202.1563" style="stroke:#181818;stroke-width:1.0;"/><line style="stroke:#181818;stroke-width:1.0;stroke-dasharray:2.0,2.0;" x1="347" x2="558.5" y1="202.1563" y2="202.1563"/><rect fill="none" height="39.1016" style="stroke:#000000;stroke-width:1.5;" width="1453.5" x="17" y="210.1563"/><path d="M17,210.1563 L83,210.1563 L83,217.1563 L73,227.1563 L17,227.1563 L17,210.1563 " fill="#EEEEEE" style="stroke:#000000;stroke-width:2.0;"/><text fill="#000000" font-family="sans-serif" font-size="13" font-weight="bold" lengthAdjust="spacing" textLength="21" x="30" y="224.2231">ref</text><text fill="#000000" font-family="sans-serif" font-size="12" lengthAdjust="spacing" textLength="156" x="665.75" y="242.2949">&#1089;&#1094;&#1077;&#1085;&#1072;&#1088;&#1080;&#1081; &#1072;&#1074;&#1090;&#1086;&#1088;&#1080;&#1079;&#1072;&#1094;&#1080;&#1080;</text><polygon fill="#181818" points="1245,271.3906,1255,275.3906,1245,279.3906,1249,275.3906" style="stroke:#181818;stroke-width:1.0;"/><line style="stroke:#181818;stroke-width:1.0;stroke-dasharray:2.0,2.0;" x1="564.5" x2="1251" y1="275.3906" y2="275.3906"/><text fill="#000000" font-family="sans-serif" font-size="13" lengthAdjust="spacing" textLength="218" x="571.5" y="270.3247">&#1074;&#1099;&#1073;&#1086;&#1088;&#1082;&#1072; &#1087;&#1086;&#1076;&#1093;&#1086;&#1076;&#1103;&#1097;&#1080;&#1093; &#1076;&#1077;&#1081;&#1089;&#1090;&#1074;&#1080;&#1081;</text><polygon fill="#181818" points="358,285.3906,348,289.3906,358,293.3906,354,289.3906" style="stroke:#181818;stroke-width:1.0;"/><line style="stroke:#181818;stroke-width:1.0;stroke-dasharray:2.0,2.0;" x1="352" x2="563.5" y1="289.3906" y2="289.3906"/><polygon fill="#181818" points="68,314.5234,58,318.5234,68,322.5234,64,318.5234" style="stroke:#181818;stroke-width:1.0;"/><line style="stroke:#181818;stroke-width:1.0;stroke-dasharray:2.0,2.0;" x1="62" x2="346" y1="318.5234" y2="318.5234"/><text fill="#000000" font-family="sans-serif" font-size="13" lengthAdjust="spacing" textLength="194" x="74" y="313.4575">&#1079;&#1072;&#1087;&#1088;&#1086;&#1089; &#1076;&#1086;&#1089;&#1090;&#1091;&#1087;&#1085;&#1099;&#1093; &#1076;&#1077;&#1081;&#1089;&#1090;&#1074;&#1080;&#1081;</text><rect fill="#EEEEEE" height="3" style="stroke:#EEEEEE;stroke-width:1.0;" width="1547.5" x="0" y="347.0898"/><line style="stroke:#000000;stroke-width:1.0;" x1="0" x2="1547.5" y1="347.0898" y2="347.0898"/><line style="stroke:#000000;stroke-width:1.0;" x1="0" x2="1547.5" y1="350.0898" y2="350.0898"/><rect fill="#EEEEEE" height="23.1328" style="stroke:#000000;stroke-width:2.0;" width="204" x="671.75" y="336.5234"/><text fill="#000000" font-family="sans-serif" font-size="13" font-weight="bold" lengthAdjust="spacing" textLength="190" x="677.75" y="352.5903">&#1055;&#1086;&#1080;&#1089;&#1082; &#1080;&#1075;&#1088;&#1086;&#1074;&#1099;&#1093; &#1086;&#1073;&#1098;&#1077;&#1082;&#1090;&#1086;&#1074;</text><polygon fill="#181818" points="335,386.7891,345,390.7891,335,394.7891,339,390.7891" style="stroke:#181818;stroke-width:1.0;"/><line style="stroke:#181818;stroke-width:1.0;stroke-dasharray:2.0,2.0;" x1="57" x2="341" y1="390.7891" y2="390.7891"/><text fill="#000000" font-family="sans-serif" font-size="13" lengthAdjust="spacing" textLength="202" x="64" y="385.7231">&#1087;&#1086;&#1080;&#1089;&#1082; &#1086;&#1073;&#1098;&#1077;&#1082;&#1090;&#1086;&#1074; &#1087;&#1086; &#1082;&#1088;&#1080;&#1090;&#1077;&#1088;&#1080;&#1102;</text><polygon fill="#181818" points="552.5,400.7891,562.5,404.7891,552.5,408.7891,556.5,404.7891" style="stroke:#181818;stroke-width:1.0;"/><line style="stroke:#181818;stroke-width:1.0;stroke-dasharray:2.0,2.0;" x1="347" x2="558.5" y1="404.7891" y2="404.7891"/><rect fill="none" height="39.1016" style="stroke:#000000;stroke-width:1.5;" width="1453.5" x="17" y="412.7891"/><path d="M17,412.7891 L83,412.7891 L83,419.7891 L73,429.7891 L17,429.7891 L17,412.7891 " fill="#EEEEEE" style="stroke:#000000;stroke-width:2.0;"/><text fill="#000000" font-family="sans-serif" font-size="13" font-weight="bold" lengthAdjust="spacing" textLength="21" x="30" y="426.856">ref</text><text fill="#000000" font-family="sans-serif" font-size="12" lengthAdjust="spacing" textLength="156" x="665.75" y="444.9277">&#1089;&#1094;&#1077;&#1085;&#1072;&#1088;&#1080;&#1081; &#1072;&#1074;&#1090;&#1086;&#1088;&#1080;&#1079;&#1072;&#1094;&#1080;&#1080;</text><polygon fill="#181818" points="1245,474.0234,1255,478.0234,1245,482.0234,1249,478.0234" style="stroke:#181818;stroke-width:1.0;"/><line style="stroke:#181818;stroke-width:1.0;stroke-dasharray:2.0,2.0;" x1="564.5" x2="1251" y1="478.0234" y2="478.0234"/><text fill="#000000" font-family="sans-serif" font-size="13" lengthAdjust="spacing" textLength="219" x="571.5" y="472.9575">&#1074;&#1099;&#1073;&#1086;&#1088;&#1082;&#1072; &#1087;&#1086;&#1076;&#1093;&#1086;&#1076;&#1103;&#1097;&#1080;&#1093; &#1086;&#1073;&#1098;&#1077;&#1082;&#1090;&#1086;&#1074;</text><polygon fill="#181818" points="358,488.0234,348,492.0234,358,496.0234,354,492.0234" style="stroke:#181818;stroke-width:1.0;"/><line style="stroke:#181818;stroke-width:1.0;stroke-dasharray:2.0,2.0;" x1="352" x2="563.5" y1="492.0234" y2="492.0234"/><polygon fill="#181818" points="68,517.1563,58,521.1563,68,525.1563,64,521.1563" style="stroke:#181818;stroke-width:1.0;"/><line style="stroke:#181818;stroke-width:1.0;stroke-dasharray:2.0,2.0;" x1="62" x2="346" y1="521.1563" y2="521.1563"/><text fill="#000000" font-family="sans-serif" font-size="13" lengthAdjust="spacing" textLength="117" x="74" y="516.0903">&#1089;&#1087;&#1080;&#1089;&#1086;&#1082; &#1086;&#1073;&#1098;&#1077;&#1082;&#1090;&#1086;&#1074;</text><rect fill="#EEEEEE" height="3" style="stroke:#EEEEEE;stroke-width:1.0;" width="1547.5" x="0" y="549.7227"/><line style="stroke:#000000;stroke-width:1.0;" x1="0" x2="1547.5" y1="549.7227" y2="549.7227"/><line style="stroke:#000000;stroke-width:1.0;" x1="0" x2="1547.5" y1="552.7227" y2="552.7227"/><rect fill="#EEEEEE" height="23.1328" style="stroke:#000000;stroke-width:2.0;" width="394" x="576.75" y="539.1563"/><text fill="#000000" font-family="sans-serif" font-size="13" font-weight="bold" lengthAdjust="spacing" textLength="380" x="582.75" y="555.2231">&#1055;&#1086;&#1083;&#1091;&#1095;&#1077;&#1085;&#1080;&#1077; &#1089;&#1086;&#1089;&#1090;&#1086;&#1103;&#1085;&#1080;&#1103; &#1086;&#1073;&#1098;&#1077;&#1082;&#1090;&#1086;&#1074; &#1085;&#1072; &#1080;&#1075;&#1088;&#1086;&#1074;&#1086;&#1084; &#1089;&#1090;&#1086;&#1083;&#1077;</text><polygon fill="#181818" points="335,589.4219,345,593.4219,335,597.4219,339,593.4219" style="stroke:#181818;stroke-width:1.0;"/><line style="stroke:#181818;stroke-width:1.0;stroke-dasharray:2.0,2.0;" x1="57" x2="341" y1="593.4219" y2="593.4219"/><text fill="#000000" font-family="sans-serif" font-size="13" lengthAdjust="spacing" textLength="266" x="64" y="588.356">&#1079;&#1072;&#1087;&#1088;&#1086;&#1089; &#1089;&#1086;&#1073;&#1099;&#1090;&#1080;&#1081; &#1080; &#1089;&#1086;&#1089;&#1090;&#1086;&#1103;&#1085;&#1080;&#1103; &#1086;&#1073;&#1098;&#1077;&#1082;&#1090;&#1086;&#1074;</text><polygon fill="#181818" points="552.5,603.4219,562.5,607.4219,552.5,611.4219,556.5,607.4219" style="stroke:#181818;stroke-width:1.0;"/><line style="stroke:#181818;stroke-width:1.0;stroke-dasharray:2.0,2.0;" x1="347" x2="558.5" y1="607.4219" y2="607.4219"/><rect fill="none" height="39.1016" style="stroke:#000000;stroke-width:1.5;" width="1453.5" x="17" y="615.4219"/><path d="M17,615.4219 L83,615.4219 L83,622.4219 L73,632.4219 L17,632.4219 L17,615.4219 " fill="#EEEEEE" style="stroke:#000000;stroke-width:2.0;"/><text fill="#000000" font-family="sans-serif" font-size="13" font-weight="bold" lengthAdjust="spacing" textLength="21" x="30" y="629.4888">ref</text><text fill="#000000" font-family="sans-serif" font-size="12" lengthAdjust="spacing" textLength="156" x="665.75" y="647.5605">&#1089;&#1094;&#1077;&#1085;&#1072;&#1088;&#1080;&#1081; &#1072;&#1074;&#1090;&#1086;&#1088;&#1080;&#1079;&#1072;&#1094;&#1080;&#1080;</text><polygon fill="#181818" points="575.5,676.6563,565.5,680.6563,575.5,684.6563,571.5,680.6563" style="stroke:#181818;stroke-width:1.0;"/><polygon fill="#181818" points="1021.5,676.6563,1031.5,680.6563,1021.5,684.6563,1025.5,680.6563" style="stroke:#181818;stroke-width:1.0;"/><line style="stroke:#181818;stroke-width:1.0;stroke-dasharray:2.0,2.0;" x1="569.5" x2="1027.5" y1="680.6563" y2="680.6563"/><text fill="#000000" font-family="sans-serif" font-size="13" lengthAdjust="spacing" textLength="233" x="581.5" y="675.5903">&#1079;&#1072;&#1087;&#1088;&#1086;&#1089; &#1076;&#1072;&#1090;&#1099; &#1087;&#1086;&#1089;&#1083;&#1077;&#1076;&#1085;&#1077;&#1075;&#1086; &#1089;&#1086;&#1073;&#1099;&#1090;&#1080;&#1103;</text><path d="M10,695.6563 L74,695.6563 L74,702.7891 L64,712.7891 L10,712.7891 L10,695.6563 " fill="#EEEEEE" style="stroke:#000000;stroke-width:1.5;"/><rect fill="none" height="263.8672" style="stroke:#000000;stroke-width:1.5;" width="1214.5" x="10" y="695.6563"/><text fill="#000000" font-family="sans-serif" font-size="13" font-weight="bold" lengthAdjust="spacing" textLength="19" x="25" y="708.7231">alt</text><text fill="#000000" font-family="sans-serif" font-size="11" font-weight="bold" lengthAdjust="spacing" textLength="348" x="89" y="707.8667">[&#1076;&#1072;&#1090;&#1072; &#1089;&#1086;&#1073;&#1099;&#1090;&#1080;&#1103; &#1085;&#1077; &#1087;&#1086;&#1079;&#1078;&#1077; &#1079;&#1072;&#1075;&#1086;&#1083;&#1086;&#1074;&#1082;&#1072; If-Modified-Since]</text><polygon fill="#181818" points="358,729.9219,348,733.9219,358,737.9219,354,733.9219" style="stroke:#181818;stroke-width:1.0;"/><line style="stroke:#181818;stroke-width:1.0;stroke-dasharray:2.0,2.0;" x1="352" x2="563.5" y1="733.9219" y2="733.9219"/><text fill="#000000" font-family="sans-serif" font-size="13" lengthAdjust="spacing" textLength="112" x="364" y="728.856">304, Not Modified</text><polygon fill="#181818" points="358,759.0547,348,763.0547,358,767.0547,354,763.0547" style="stroke:#181818;stroke-width:1.0;"/><polygon fill="#181818" points="494,759.0547,504,763.0547,494,767.0547,498,763.0547" style="stroke:#181818;stroke-width:1.0;"/><line style="stroke:#181818;stroke-width:1.0;stroke-dasharray:2.0,2.0;" x1="352" x2="500" y1="763.0547" y2="763.0547"/><text fill="#000000" font-family="sans-serif" font-size="13" lengthAdjust="spacing" textLength="125" x="364" y="757.9888">&#1087;&#1086;&#1083;&#1091;&#1095;&#1077;&#1085;&#1080;&#1077; &#1086;&#1090;&#1074;&#1077;&#1090;&#1072;</text><polygon fill="#181818" points="68,788.1875,58,792.1875,68,796.1875,64,792.1875" style="stroke:#181818;stroke-width:1.0;"/><line style="stroke:#181818;stroke-width:1.0;stroke-dasharray:2.0,2.0;" x1="62" x2="346" y1="792.1875" y2="792.1875"/><text fill="#000000" font-family="sans-serif" font-size="13" lengthAdjust="spacing" textLength="191" x="74" y="787.1216">&#1089;&#1087;&#1080;&#1089;&#1086;&#1082; &#1086;&#1073;&#1098;&#1077;&#1082;&#1090;&#1086;&#1074; &#1080; &#1089;&#1086;&#1073;&#1099;&#1090;&#1080;&#1081;</text><line style="stroke:#000000;stroke-width:1.0;stroke-dasharray:2.0,2.0;" x1="10" x2="1224.5" y1="801.1875" y2="801.1875"/><text fill="#000000" font-family="sans-serif" font-size="11" font-weight="bold" lengthAdjust="spacing" textLength="264" x="15" y="811.3979">[&#1076;&#1072;&#1090;&#1072; &#1089;&#1086;&#1073;&#1099;&#1090;&#1080;&#1103; &#1087;&#1086;&#1079;&#1078;&#1077; &#1089;&#1086;&#1089;&#1090;&#1086;&#1103;&#1085;&#1080;&#1103; &#1074; &#1082;&#1077;&#1096;&#1077;]</text><polygon fill="#181818" points="552.5,816.9922,562.5,820.9922,552.5,824.9922,556.5,820.9922" style="stroke:#181818;stroke-width:1.0;"/><line style="stroke:#181818;stroke-width:1.0;stroke-dasharray:2.0,2.0;" x1="347" x2="558.5" y1="820.9922" y2="820.9922"/><polygon fill="#181818" points="1021.5,846.125,1031.5,850.125,1021.5,854.125,1025.5,850.125" style="stroke:#181818;stroke-width:1.0;"/><line style="stroke:#181818;stroke-width:1.0;stroke-dasharray:2.0,2.0;" x1="564.5" x2="1027.5" y1="850.125" y2="850.125"/><text fill="#000000" font-family="sans-serif" font-size="13" lengthAdjust="spacing" textLength="120" x="571.5" y="845.0591">&#1074;&#1099;&#1073;&#1086;&#1088;&#1082;&#1072; &#1089;&#1086;&#1073;&#1099;&#1090;&#1080;&#1081;</text><polygon fill="#181818" points="1151,875.2578,1161,879.2578,1151,883.2578,1155,879.2578" style="stroke:#181818;stroke-width:1.0;"/><line style="stroke:#181818;stroke-width:1.0;stroke-dasharray:2.0,2.0;" x1="564.5" x2="1157" y1="879.2578" y2="879.2578"/><text fill="#000000" font-family="sans-serif" font-size="13" lengthAdjust="spacing" textLength="219" x="571.5" y="874.1919">&#1074;&#1099;&#1073;&#1086;&#1088;&#1082;&#1072; &#1087;&#1086;&#1076;&#1093;&#1086;&#1076;&#1103;&#1097;&#1080;&#1093; &#1086;&#1073;&#1098;&#1077;&#1082;&#1090;&#1086;&#1074;</text><polygon fill="#181818" points="358,889.2578,348,893.2578,358,897.2578,354,893.2578" style="stroke:#181818;stroke-width:1.0;"/><line style="stroke:#181818;stroke-width:1.0;stroke-dasharray:2.0,2.0;" x1="352" x2="563.5" y1="893.2578" y2="893.2578"/><polygon fill="#181818" points="68,918.3906,58,922.3906,68,926.3906,64,922.3906" style="stroke:#181818;stroke-width:1.0;"/><line style="stroke:#181818;stroke-width:1.0;stroke-dasharray:2.0,2.0;" x1="62" x2="346" y1="922.3906" y2="922.3906"/><text fill="#000000" font-family="sans-serif" font-size="13" lengthAdjust="spacing" textLength="191" x="74" y="917.3247">&#1089;&#1087;&#1080;&#1089;&#1086;&#1082; &#1086;&#1073;&#1098;&#1077;&#1082;&#1090;&#1086;&#1074; &#1080; &#1089;&#1086;&#1073;&#1099;&#1090;&#1080;&#1081;</text><polygon fill="#181818" points="494,947.5234,504,951.5234,494,955.5234,498,951.5234" style="stroke:#181818;stroke-width:1.0;"/><line style="stroke:#181818;stroke-width:1.0;stroke-dasharray:2.0,2.0;" x1="347" x2="500" y1="951.5234" y2="951.5234"/><text fill="#000000" font-family="sans-serif" font-size="13" lengthAdjust="spacing" textLength="135" x="354" y="946.4575">&#1072;&#1082;&#1090;&#1091;&#1072;&#1083;&#1080;&#1079;&#1072;&#1094;&#1080;&#1103; &#1082;&#1077;&#1096;&#1072;</text><rect fill="#EEEEEE" height="3" style="stroke:#EEEEEE;stroke-width:1.0;" width="1547.5" x="0" y="987.0898"/><line style="stroke:#000000;stroke-width:1.0;" x1="0" x2="1547.5" y1="987.0898" y2="987.0898"/><line style="stroke:#000000;stroke-width:1.0;" x1="0" x2="1547.5" y1="990.0898" y2="990.0898"/><rect fill="#EEEEEE" height="23.1328" style="stroke:#000000;stroke-width:2.0;" width="317" x="615.25" y="976.5234"/><text fill="#000000" font-family="sans-serif" font-size="13" font-weight="bold" lengthAdjust="spacing" textLength="303" x="621.25" y="992.5903">&#1055;&#1086;&#1083;&#1091;&#1095;&#1077;&#1085;&#1080;&#1077; &#1080;&#1089;&#1090;&#1086;&#1088;&#1080;&#1080; &#1089;&#1086;&#1073;&#1099;&#1090;&#1080;&#1081; &#1079;&#1072; &#1087;&#1077;&#1088;&#1080;&#1086;&#1076;</text><polygon fill="#181818" points="335,1026.7891,345,1030.7891,335,1034.7891,339,1030.7891" style="stroke:#181818;stroke-width:1.0;"/><line style="stroke:#181818;stroke-width:1.0;stroke-dasharray:2.0,2.0;" x1="57" x2="341" y1="1030.7891" y2="1030.7891"/><text fill="#000000" font-family="sans-serif" font-size="13" lengthAdjust="spacing" textLength="266" x="64" y="1025.7231">&#1079;&#1072;&#1087;&#1088;&#1086;&#1089; &#1089;&#1086;&#1073;&#1099;&#1090;&#1080;&#1081; &#1080; &#1089;&#1086;&#1089;&#1090;&#1086;&#1103;&#1085;&#1080;&#1103; &#1086;&#1073;&#1098;&#1077;&#1082;&#1090;&#1086;&#1074;</text><polygon fill="#181818" points="552.5,1040.7891,562.5,1044.7891,552.5,1048.7891,556.5,1044.7891" style="stroke:#181818;stroke-width:1.0;"/><line style="stroke:#181818;stroke-width:1.0;stroke-dasharray:2.0,2.0;" x1="347" x2="558.5" y1="1044.7891" y2="1044.7891"/><rect fill="none" height="39.1016" style="stroke:#000000;stroke-width:1.5;" width="1453.5" x="17" y="1052.7891"/><path d="M17,1052.7891 L83,1052.7891 L83,1059.7891 L73,1069.7891 L17,1069.7891 L17,1052.7891 " fill="#EEEEEE" style="stroke:#000000;stroke-width:2.0;"/><text fill="#000000" font-family="sans-serif" font-size="13" font-weight="bold" lengthAdjust="spacing" textLength="21" x="30" y="1066.856">ref</text><text fill="#000000" font-family="sans-serif" font-size="12" lengthAdjust="spacing" textLength="156" x="665.75" y="1084.9277">&#1089;&#1094;&#1077;&#1085;&#1072;&#1088;&#1080;&#1081; &#1072;&#1074;&#1090;&#1086;&#1088;&#1080;&#1079;&#1072;&#1094;&#1080;&#1080;</text><polygon fill="#181818" points="1021.5,1114.0234,1031.5,1118.0234,1021.5,1122.0234,1025.5,1118.0234" style="stroke:#181818;stroke-width:1.0;"/><line style="stroke:#181818;stroke-width:1.0;stroke-dasharray:2.0,2.0;" x1="564.5" x2="1027.5" y1="1118.0234" y2="1118.0234"/><text fill="#000000" font-family="sans-serif" font-size="13" lengthAdjust="spacing" textLength="120" x="571.5" y="1112.9575">&#1074;&#1099;&#1073;&#1086;&#1088;&#1082;&#1072; &#1089;&#1086;&#1073;&#1099;&#1090;&#1080;&#1081;</text><polygon fill="#181818" points="358,1128.0234,348,1132.0234,358,1136.0234,354,1132.0234" style="stroke:#181818;stroke-width:1.0;"/><line style="stroke:#181818;stroke-width:1.0;stroke-dasharray:2.0,2.0;" x1="352" x2="563.5" y1="1132.0234" y2="1132.0234"/><polygon fill="#181818" points="68,1157.1563,58,1161.1563,68,1165.1563,64,1161.1563" style="stroke:#181818;stroke-width:1.0;"/><line style="stroke:#181818;stroke-width:1.0;stroke-dasharray:2.0,2.0;" x1="62" x2="346" y1="1161.1563" y2="1161.1563"/><text fill="#000000" font-family="sans-serif" font-size="13" lengthAdjust="spacing" textLength="191" x="74" y="1156.0903">&#1089;&#1087;&#1080;&#1089;&#1086;&#1082; &#1086;&#1073;&#1098;&#1077;&#1082;&#1090;&#1086;&#1074; &#1080; &#1089;&#1086;&#1073;&#1099;&#1090;&#1080;&#1081;</text><rect fill="#EEEEEE" height="3" style="stroke:#EEEEEE;stroke-width:1.0;" width="1547.5" x="0" y="1189.7227"/><line style="stroke:#000000;stroke-width:1.0;" x1="0" x2="1547.5" y1="1189.7227" y2="1189.7227"/><line style="stroke:#000000;stroke-width:1.0;" x1="0" x2="1547.5" y1="1192.7227" y2="1192.7227"/><rect fill="#EEEEEE" height="23.1328" style="stroke:#000000;stroke-width:2.0;" width="307" x="620.25" y="1179.1563"/><text fill="#000000" font-family="sans-serif" font-size="13" font-weight="bold" lengthAdjust="spacing" textLength="293" x="626.25" y="1195.2231">&#1060;&#1086;&#1085;&#1086;&#1074;&#1072;&#1103; &#1086;&#1073;&#1088;&#1072;&#1073;&#1086;&#1090;&#1082;&#1072; &#1089;&#1086;&#1073;&#1099;&#1090;&#1080;&#1081;, &#1093;&#1088;&#1086;&#1085;&#1080;&#1082;&#1072;</text><polygon fill="#181818" points="575.5,1229.4219,565.5,1233.4219,575.5,1237.4219,571.5,1233.4219" style="stroke:#181818;stroke-width:1.0;"/><line style="stroke:#181818;stroke-width:1.0;stroke-dasharray:2.0,2.0;" x1="569.5" x2="846.5" y1="1233.4219" y2="1233.4219"/><text fill="#000000" font-family="sans-serif" font-size="13" lengthAdjust="spacing" textLength="117" x="581.5" y="1228.356">&#1080;&#1075;&#1088;&#1086;&#1074;&#1086;&#1077; &#1089;&#1086;&#1073;&#1099;&#1090;&#1080;&#1077;</text><polygon fill="#181818" points="1021.5,1258.5547,1031.5,1262.5547,1021.5,1266.5547,1025.5,1262.5547" style="stroke:#181818;stroke-width:1.0;"/><line style="stroke:#181818;stroke-width:1.0;stroke-dasharray:2.0,2.0;" x1="564.5" x2="1027.5" y1="1262.5547" y2="1262.5547"/><text fill="#000000" font-family="sans-serif" font-size="13" lengthAdjust="spacing" textLength="120" x="571.5" y="1257.4888">&#1079;&#1072;&#1087;&#1080;&#1089;&#1100; &#1086; &#1089;&#1086;&#1073;&#1099;&#1090;&#1080;&#1080;</text><polygon fill="#181818" points="835.5,1287.6875,845.5,1291.6875,835.5,1295.6875,839.5,1291.6875" style="stroke:#181818;stroke-width:1.0;"/><line style="stroke:#181818;stroke-width:1.0;stroke-dasharray:2.0,2.0;" x1="564.5" x2="841.5" y1="1291.6875" y2="1291.6875"/><text fill="#000000" font-family="sans-serif" font-size="13" lengthAdjust="spacing" textLength="259" x="571.5" y="1286.6216">&#1087;&#1086;&#1076;&#1090;&#1074;&#1077;&#1088;&#1078;&#1076;&#1077;&#1085;&#1080;&#1077; &#1091;&#1089;&#1087;&#1077;&#1096;&#1085;&#1086;&#1081; &#1086;&#1073;&#1088;&#1072;&#1073;&#1086;&#1090;&#1082;&#1080;</text><rect fill="#EEEEEE" height="3" style="stroke:#EEEEEE;stroke-width:1.0;" width="1547.5" x="0" y="1320.2539"/><line style="stroke:#000000;stroke-width:1.0;" x1="0" x2="1547.5" y1="1320.2539" y2="1320.2539"/><line style="stroke:#000000;stroke-width:1.0;" x1="0" x2="1547.5" y1="1323.2539" y2="1323.2539"/><rect fill="#EEEEEE" height="23.1328" style="stroke:#000000;stroke-width:2.0;" width="331" x="608.25" y="1309.6875"/><text fill="#000000" font-family="sans-serif" font-size="13" font-weight="bold" lengthAdjust="spacing" textLength="312" x="614.25" y="1325.7544">&#1060;&#1086;&#1085;&#1086;&#1074;&#1072;&#1103; &#1086;&#1073;&#1088;&#1072;&#1073;&#1086;&#1090;&#1082;&#1072; &#1089;&#1086;&#1073;&#1099;&#1090;&#1080;&#1081;, &#1080;&#1079;&#1084;&#1077;&#1085;&#1077;&#1085;&#1080;&#1077;</text><polygon fill="#181818" points="575.5,1359.9531,565.5,1363.9531,575.5,1367.9531,571.5,1363.9531" style="stroke:#181818;stroke-width:1.0;"/><line style="stroke:#181818;stroke-width:1.0;stroke-dasharray:2.0,2.0;" x1="569.5" x2="846.5" y1="1363.9531" y2="1363.9531"/><text fill="#000000" font-family="sans-serif" font-size="13" lengthAdjust="spacing" textLength="117" x="581.5" y="1358.8872">&#1080;&#1075;&#1088;&#1086;&#1074;&#1086;&#1077; &#1089;&#1086;&#1073;&#1099;&#1090;&#1080;&#1077;</text><polygon fill="#181818" points="1498,1389.0859,1508,1393.0859,1498,1397.0859,1502,1393.0859" style="stroke:#181818;stroke-width:1.0;"/><line style="stroke:#181818;stroke-width:1.0;stroke-dasharray:2.0,2.0;" x1="564.5" x2="1504" y1="1393.0859" y2="1393.0859"/><text fill="#000000" font-family="sans-serif" font-size="13" lengthAdjust="spacing" textLength="215" x="571.5" y="1388.02">&#1087;&#1091;&#1073;&#1083;&#1080;&#1082;&#1072;&#1094;&#1080;&#1103; &#1089;&#1086;&#1086;&#1073;&#1097;&#1077;&#1085;&#1080;&#1103; &#1074; &#1082;&#1072;&#1085;&#1072;&#1083;</text><polygon fill="#181818" points="835.5,1418.2188,845.5,1422.2188,835.5,1426.2188,839.5,1422.2188" style="stroke:#181818;stroke-width:1.0;"/><line style="stroke:#181818;stroke-width:1.0;stroke-dasharray:2.0,2.0;" x1="564.5" x2="841.5" y1="1422.2188" y2="1422.2188"/><text fill="#000000" font-family="sans-serif" font-size="13" lengthAdjust="spacing" textLength="259" x="571.5" y="1417.1528">&#1087;&#1086;&#1076;&#1090;&#1074;&#1077;&#1088;&#1078;&#1076;&#1077;&#1085;&#1080;&#1077; &#1091;&#1089;&#1087;&#1077;&#1096;&#1085;&#1086;&#1081; &#1086;&#1073;&#1088;&#1072;&#1073;&#1086;&#1090;&#1082;&#1080;</text><rect fill="#EEEEEE" height="3" style="stroke:#EEEEEE;stroke-width:1.0;" width="1547.5" x="0" y="1450.7852"/><line style="stroke:#000000;stroke-width:1.0;" x1="0" x2="1547.5" y1="1450.7852" y2="1450.7852"/><line style="stroke:#000000;stroke-width:1.0;" x1="0" x2="1547.5" y1="1453.7852" y2="1453.7852"/><rect fill="#EEEEEE" height="23.1328" style="stroke:#000000;stroke-width:2.0;" width="248" x="649.75" y="1440.2188"/><text fill="#000000" font-family="sans-serif" font-size="13" font-weight="bold" lengthAdjust="spacing" textLength="234" x="655.75" y="1456.2856">&#1060;&#1086;&#1085;&#1086;&#1074;&#1072;&#1103; &#1086;&#1073;&#1088;&#1072;&#1073;&#1086;&#1090;&#1082;&#1072; &#1089;&#1086;&#1073;&#1099;&#1090;&#1080;&#1081; 3</text><polygon fill="#181818" points="575.5,1490.4844,565.5,1494.4844,575.5,1498.4844,571.5,1494.4844" style="stroke:#181818;stroke-width:1.0;"/><line style="stroke:#181818;stroke-width:1.0;stroke-dasharray:2.0,2.0;" x1="569.5" x2="846.5" y1="1494.4844" y2="1494.4844"/><text fill="#000000" font-family="sans-serif" font-size="13" lengthAdjust="spacing" textLength="117" x="581.5" y="1489.4185">&#1080;&#1075;&#1088;&#1086;&#1074;&#1086;&#1077; &#1089;&#1086;&#1073;&#1099;&#1090;&#1080;&#1077;</text><polygon fill="#181818" points="1021.5,1519.6172,1031.5,1523.6172,1021.5,1527.6172,1025.5,1523.6172" style="stroke:#181818;stroke-width:1.0;"/><line style="stroke:#181818;stroke-width:1.0;stroke-dasharray:2.0,2.0;" x1="564.5" x2="1027.5" y1="1523.6172" y2="1523.6172"/><text fill="#000000" font-family="sans-serif" font-size="13" lengthAdjust="spacing" textLength="120" x="571.5" y="1518.5513">&#1079;&#1072;&#1087;&#1080;&#1089;&#1100; &#1086; &#1089;&#1086;&#1073;&#1099;&#1090;&#1080;&#1080;</text><polygon fill="#181818" points="1151,1548.75,1161,1552.75,1151,1556.75,1155,1552.75" style="stroke:#181818;stroke-width:1.0;"/><line style="stroke:#181818;stroke-width:1.0;stroke-dasharray:2.0,2.0;" x1="564.5" x2="1157" y1="1552.75" y2="1552.75"/><text fill="#000000" font-family="sans-serif" font-size="13" lengthAdjust="spacing" textLength="218" x="571.5" y="1547.6841">&#1080;&#1079;&#1084;&#1077;&#1085;&#1077;&#1085;&#1080;&#1077; &#1089;&#1086;&#1089;&#1090;&#1086;&#1103;&#1085;&#1080;&#1103; &#1086;&#1073;&#1098;&#1077;&#1082;&#1090;&#1086;&#1074;</text><polygon fill="#181818" points="1498,1577.8828,1508,1581.8828,1498,1585.8828,1502,1581.8828" style="stroke:#181818;stroke-width:1.0;"/><line style="stroke:#181818;stroke-width:1.0;stroke-dasharray:2.0,2.0;" x1="564.5" x2="1504" y1="1581.8828" y2="1581.8828"/><text fill="#000000" font-family="sans-serif" font-size="13" lengthAdjust="spacing" textLength="215" x="571.5" y="1576.8169">&#1087;&#1091;&#1073;&#1083;&#1080;&#1082;&#1072;&#1094;&#1080;&#1103; &#1089;&#1086;&#1086;&#1073;&#1097;&#1077;&#1085;&#1080;&#1103; &#1074; &#1082;&#1072;&#1085;&#1072;&#1083;</text><polygon fill="#181818" points="835.5,1607.0156,845.5,1611.0156,835.5,1615.0156,839.5,1611.0156" style="stroke:#181818;stroke-width:1.0;"/><line style="stroke:#181818;stroke-width:1.0;stroke-dasharray:2.0,2.0;" x1="564.5" x2="841.5" y1="1611.0156" y2="1611.0156"/><text fill="#000000" font-family="sans-serif" font-size="13" lengthAdjust="spacing" textLength="259" x="571.5" y="1605.9497">&#1087;&#1086;&#1076;&#1090;&#1074;&#1077;&#1088;&#1078;&#1076;&#1077;&#1085;&#1080;&#1077; &#1091;&#1089;&#1087;&#1077;&#1096;&#1085;&#1086;&#1081; &#1086;&#1073;&#1088;&#1072;&#1073;&#1086;&#1090;&#1082;&#1080;</text><!--SRC=[rLPDJnDH5DtFhtZ1RPkOuAgn9X8ImqAZSUjcsZvab7Im7JxS5H0HCJOQ5yQ5RDmxXOuCXRP_uRr_vBdtTMOw7qH4WxXe-pBlVfnxphrtQjSzjoLcr6Trf3jgf0PFcYfKfoh4xqSLgBxUrdjuSZ8ZxBPORSkMLNCtX3g0ZQ-tz2irWj-PyiMDTjDTjrRibkVKdHMxwOcPkmyNn3tRMxTVilTJsvCufstK5nNeDtnVj-jBCdFx7GY0ozoxBMczM9Mh4XTVzIuSEmpndG12W_zGx-iTeJTnxE6u5KENQxBfFI9dgs5xTirkKvGFwbF6U19AxoTUytDP5tPuYzm3E24fsxgrPx9UP3nGGmhAHZNNVGwJT947YD47Z87orJ6-GpPTSffUsvBD1fmsBAjQDQHJC5EgEQj0g3wWdEXDW3ca6gfLYvGIvVATYFIAG6HVZSbJRvB7YEprjXgh8NEM3M9DF3aAKz-IYy9TGrmANeeYb_Yon0_dvogWKxz6f27QesC8zQ7A5lT9I21m7QhG8Y-ERIW1G6YdUcm78WI04Iix_Dsb9Ym26KU9cciQDK6wHE66wX4IGf9iQsMbB-PwdBXdxFaEFK5iu4d0l- -l9zaPw1SX6pMFkV9HGUqniwVOAhkCczgNh9d-aUvoTtSBM1iIobWAVCw4yS5C1Bzk-DoGNoJhbQXocu9Fzao-MMd7xhCym7jAsmvX0tM47fekINSjUzcRE82fz1sn5nYDZzKFEbAM8-QEoAGEM5WittSRpg8Z6-N7JhCkSsfNnEpDMoNnmFL4P1aJn4Nm_fuqVrfXeAVX2WZRxpPDf5MYdYMNiLpFhJKfiqZYGzh7UEEe8AzkN74YHtfCCZXY-sZr_wEvAg0eLTj45v_iiVXyUhz7RKYS649yUjUSCwAKEcxWC3TDnwPKNcPKwlyyZvVH_-_fHlH_mvEXUS5797I0kCTJb8TH4dg7jo99XMkGd_pPYQcgfBTda0uI5DNEUh7o-8ELtZSviZXP9UftC-mT364_sVBRp0Lr6XLtaYyil5JnhE0PfubI_I433QUDSuEgmRJqU5e6yRIm5_djcNpnKg5_OnYjQqACcBtgFfXQWdb9BZBTrrc0dm00]--></g></svg>