<?xml version="1.0" encoding="us-ascii" standalone="no"?><svg xmlns="http://www.w3.org/2000/svg" xmlns:xlink="http://www.w3.org/1999/xlink" contentStyleType="text/css" height="192px" preserveAspectRatio="none" style="width:970px;height:192px;background:#FFFFFF;" version="1.1" viewBox="0 0 970 192" width="970px" zoomAndPan="magnify"><defs/><g><rect fill="#FFFAFA" height="180.7266" style="stroke:#181818;stroke-width:0.5;" width="820" x="144" y="6"/><text fill="#000000" font-family="sans-serif" font-size="13" font-weight="bold" lengthAdjust="spacing" textLength="90" x="506.5" y="18.0669">&#1055;&#1083;&#1072;&#1090;&#1092;&#1086;&#1088;&#1084;&#1072;</text><line style="stroke:#181818;stroke-width:0.5;stroke-dasharray:5.0,5.0;" x1="42" x2="42" y1="87.4297" y2="107.4297"/><line style="stroke:#181818;stroke-width:0.5;stroke-dasharray:5.0,5.0;" x1="113" x2="113" y1="87.4297" y2="107.4297"/><line style="stroke:#181818;stroke-width:0.5;stroke-dasharray:5.0,5.0;" x1="192" x2="192" y1="87.4297" y2="107.4297"/><line style="stroke:#181818;stroke-width:0.5;stroke-dasharray:5.0,5.0;" x1="272" x2="272" y1="87.4297" y2="107.4297"/><line style="stroke:#181818;stroke-width:0.5;stroke-dasharray:5.0,5.0;" x1="416" x2="416" y1="87.4297" y2="107.4297"/><line style="stroke:#181818;stroke-width:0.5;stroke-dasharray:5.0,5.0;" x1="602" x2="602" y1="87.4297" y2="107.4297"/><line style="stroke:#181818;stroke-width:0.5;stroke-dasharray:5.0,5.0;" x1="712" x2="712" y1="87.4297" y2="107.4297"/><line style="stroke:#181818;stroke-width:0.5;stroke-dasharray:5.0,5.0;" x1="806" x2="806" y1="87.4297" y2="107.4297"/><line style="stroke:#181818;stroke-width:0.5;stroke-dasharray:5.0,5.0;" x1="914" x2="914" y1="87.4297" y2="107.4297"/><text fill="#000000" font-family="sans-serif" font-size="14" lengthAdjust="spacing" textLength="68" x="5" y="84.1279">&#1042;&#1077;&#1076;&#1091;&#1097;&#1080;&#1081;</text><ellipse cx="42" cy="19.6328" fill="#E2E2F0" rx="8" ry="8" style="stroke:#181818;stroke-width:0.5;"/><path d="M42,27.6328 L42,54.6328 M29,35.6328 L55,35.6328 M42,54.6328 L29,69.6328 M42,54.6328 L55,69.6328 " fill="none" style="stroke:#181818;stroke-width:0.5;"/><text fill="#000000" font-family="sans-serif" font-size="14" lengthAdjust="spacing" textLength="68" x="5" y="119.4248">&#1042;&#1077;&#1076;&#1091;&#1097;&#1080;&#1081;</text><ellipse cx="42" cy="131.2266" fill="#E2E2F0" rx="8" ry="8" style="stroke:#181818;stroke-width:0.5;"/><path d="M42,139.2266 L42,166.2266 M29,147.2266 L55,147.2266 M42,166.2266 L29,181.2266 M42,166.2266 L55,181.2266 " fill="none" style="stroke:#181818;stroke-width:0.5;"/><text fill="#000000" font-family="sans-serif" font-size="14" lengthAdjust="spacing" textLength="43" x="89" y="84.1279">&#1048;&#1075;&#1088;&#1086;&#1082;</text><ellipse cx="113.5" cy="19.6328" fill="#E2E2F0" rx="8" ry="8" style="stroke:#181818;stroke-width:0.5;"/><path d="M113.5,27.6328 L113.5,54.6328 M100.5,35.6328 L126.5,35.6328 M113.5,54.6328 L100.5,69.6328 M113.5,54.6328 L126.5,69.6328 " fill="none" style="stroke:#181818;stroke-width:0.5;"/><text fill="#000000" font-family="sans-serif" font-size="14" lengthAdjust="spacing" textLength="43" x="89" y="119.4248">&#1048;&#1075;&#1088;&#1086;&#1082;</text><ellipse cx="113.5" cy="131.2266" fill="#E2E2F0" rx="8" ry="8" style="stroke:#181818;stroke-width:0.5;"/><path d="M113.5,139.2266 L113.5,166.2266 M100.5,147.2266 L126.5,147.2266 M113.5,166.2266 L100.5,181.2266 M113.5,166.2266 L126.5,181.2266 " fill="none" style="stroke:#181818;stroke-width:0.5;"/><rect fill="#E2E2F0" height="30.2969" rx="2.5" ry="2.5" style="stroke:#181818;stroke-width:0.5;" width="89" x="148" y="56.1328"/><text fill="#000000" font-family="sans-serif" font-size="14" lengthAdjust="spacing" textLength="75" x="155" y="76.1279">API Gatway</text><rect fill="#E2E2F0" height="30.2969" rx="2.5" ry="2.5" style="stroke:#181818;stroke-width:0.5;" width="89" x="148" y="106.4297"/><text fill="#000000" font-family="sans-serif" font-size="14" lengthAdjust="spacing" textLength="75" x="155" y="126.4248">API Gatway</text><rect fill="#E2E2F0" height="30.2969" rx="2.5" ry="2.5" style="stroke:#181818;stroke-width:0.5;" width="51" x="247" y="56.1328"/><text fill="#000000" font-family="sans-serif" font-size="14" lengthAdjust="spacing" textLength="37" x="254" y="76.1279">&#1071;&#1076;&#1088;&#1086;</text><rect fill="#E2E2F0" height="30.2969" rx="2.5" ry="2.5" style="stroke:#181818;stroke-width:0.5;" width="51" x="247" y="106.4297"/><text fill="#000000" font-family="sans-serif" font-size="14" lengthAdjust="spacing" textLength="37" x="254" y="126.4248">&#1071;&#1076;&#1088;&#1086;</text><path d="M313,61.1328 L519,61.1328 C524,61.1328 524,74.2813 524,74.2813 C524,74.2813 524,87.4297 519,87.4297 L313,87.4297 C308,87.4297 308,74.2813 308,74.2813 C308,74.2813 308,61.1328 313,61.1328 " fill="#E2E2F0" style="stroke:#181818;stroke-width:0.5;"/><path d="M519,61.1328 C514,61.1328 514,74.2813 514,74.2813 C514,87.4297 519,87.4297 519,87.4297 " fill="none" style="stroke:#181818;stroke-width:0.5;"/><text fill="#000000" font-family="sans-serif" font-size="14" lengthAdjust="spacing" textLength="196" x="313" y="79.1279">&#1054;&#1095;&#1077;&#1088;&#1077;&#1076;&#1100; &#1080;&#1075;&#1088;&#1086;&#1074;&#1099;&#1093; &#1089;&#1086;&#1073;&#1099;&#1090;&#1080;&#1081;</text><path d="M313,106.4297 L519,106.4297 C524,106.4297 524,119.5781 524,119.5781 C524,119.5781 524,132.7266 519,132.7266 L313,132.7266 C308,132.7266 308,119.5781 308,119.5781 C308,119.5781 308,106.4297 313,106.4297 " fill="#E2E2F0" style="stroke:#181818;stroke-width:0.5;"/><path d="M519,106.4297 C514,106.4297 514,119.5781 514,119.5781 C514,132.7266 519,132.7266 519,132.7266 " fill="none" style="stroke:#181818;stroke-width:0.5;"/><text fill="#000000" font-family="sans-serif" font-size="14" lengthAdjust="spacing" textLength="196" x="313" y="124.4248">&#1054;&#1095;&#1077;&#1088;&#1077;&#1076;&#1100; &#1080;&#1075;&#1088;&#1086;&#1074;&#1099;&#1093; &#1089;&#1086;&#1073;&#1099;&#1090;&#1080;&#1081;</text><text fill="#000000" font-family="sans-serif" font-size="14" lengthAdjust="spacing" textLength="130" x="534" y="84.1279">&#1041;&#1044; &#1089;&#1086;&#1073;&#1099;&#1090;&#1080;&#1081; &#1080;&#1075;&#1088;&#1099;</text><path d="M584,35.1328 C584,25.1328 602,25.1328 602,25.1328 C602,25.1328 620,25.1328 620,35.1328 L620,61.1328 C620,71.1328 602,71.1328 602,71.1328 C602,71.1328 584,71.1328 584,61.1328 L584,35.1328 " fill="#E2E2F0" style="stroke:#181818;stroke-width:1.5;"/><path d="M584,35.1328 C584,45.1328 602,45.1328 602,45.1328 C602,45.1328 620,45.1328 620,35.1328 " fill="none" style="stroke:#181818;stroke-width:1.5;"/><text fill="#000000" font-family="sans-serif" font-size="14" lengthAdjust="spacing" textLength="130" x="534" y="119.4248">&#1041;&#1044; &#1089;&#1086;&#1073;&#1099;&#1090;&#1080;&#1081; &#1080;&#1075;&#1088;&#1099;</text><path d="M584,132.7266 C584,122.7266 602,122.7266 602,122.7266 C602,122.7266 620,122.7266 620,132.7266 L620,158.7266 C620,168.7266 602,168.7266 602,168.7266 C602,168.7266 584,168.7266 584,158.7266 L584,132.7266 " fill="#E2E2F0" style="stroke:#181818;stroke-width:1.5;"/><path d="M584,132.7266 C584,142.7266 602,142.7266 602,142.7266 C602,142.7266 620,142.7266 620,132.7266 " fill="none" style="stroke:#181818;stroke-width:1.5;"/><text fill="#000000" font-family="sans-serif" font-size="14" lengthAdjust="spacing" textLength="59" x="680" y="84.1279">&#1041;&#1044; &#1082;&#1085;&#1080;&#1075;</text><path d="M694.5,35.1328 C694.5,25.1328 712.5,25.1328 712.5,25.1328 C712.5,25.1328 730.5,25.1328 730.5,35.1328 L730.5,61.1328 C730.5,71.1328 712.5,71.1328 712.5,71.1328 C712.5,71.1328 694.5,71.1328 694.5,61.1328 L694.5,35.1328 " fill="#E2E2F0" style="stroke:#181818;stroke-width:1.5;"/><path d="M694.5,35.1328 C694.5,45.1328 712.5,45.1328 712.5,45.1328 C712.5,45.1328 730.5,45.1328 730.5,35.1328 " fill="none" style="stroke:#181818;stroke-width:1.5;"/><text fill="#000000" font-family="sans-serif" font-size="14" lengthAdjust="spacing" textLength="59" x="680" y="119.4248">&#1041;&#1044; &#1082;&#1085;&#1080;&#1075;</text><path d="M694.5,132.7266 C694.5,122.7266 712.5,122.7266 712.5,122.7266 C712.5,122.7266 730.5,122.7266 730.5,132.7266 L730.5,158.7266 C730.5,168.7266 712.5,168.7266 712.5,168.7266 C712.5,168.7266 694.5,168.7266 694.5,158.7266 L694.5,132.7266 " fill="#E2E2F0" style="stroke:#181818;stroke-width:1.5;"/><path d="M694.5,132.7266 C694.5,142.7266 712.5,142.7266 712.5,142.7266 C712.5,142.7266 730.5,142.7266 730.5,132.7266 " fill="none" style="stroke:#181818;stroke-width:1.5;"/><text fill="#000000" font-family="sans-serif" font-size="14" lengthAdjust="spacing" textLength="97" x="755" y="84.1279">&#1041;&#1044; &#1086;&#1073;&#1098;&#1077;&#1082;&#1090;&#1086;&#1074;</text><path d="M788.5,35.1328 C788.5,25.1328 806.5,25.1328 806.5,25.1328 C806.5,25.1328 824.5,25.1328 824.5,35.1328 L824.5,61.1328 C824.5,71.1328 806.5,71.1328 806.5,71.1328 C806.5,71.1328 788.5,71.1328 788.5,61.1328 L788.5,35.1328 " fill="#E2E2F0" style="stroke:#181818;stroke-width:1.5;"/><path d="M788.5,35.1328 C788.5,45.1328 806.5,45.1328 806.5,45.1328 C806.5,45.1328 824.5,45.1328 824.5,35.1328 " fill="none" style="stroke:#181818;stroke-width:1.5;"/><text fill="#000000" font-family="sans-serif" font-size="14" lengthAdjust="spacing" textLength="97" x="755" y="119.4248">&#1041;&#1044; &#1086;&#1073;&#1098;&#1077;&#1082;&#1090;&#1086;&#1074;</text><path d="M788.5,132.7266 C788.5,122.7266 806.5,122.7266 806.5,122.7266 C806.5,122.7266 824.5,122.7266 824.5,132.7266 L824.5,158.7266 C824.5,168.7266 806.5,168.7266 806.5,168.7266 C806.5,168.7266 788.5,168.7266 788.5,158.7266 L788.5,132.7266 " fill="#E2E2F0" style="stroke:#181818;stroke-width:1.5;"/><path d="M788.5,132.7266 C788.5,142.7266 806.5,142.7266 806.5,142.7266 C806.5,142.7266 824.5,142.7266 824.5,132.7266 " fill="none" style="stroke:#181818;stroke-width:1.5;"/><rect fill="#E2E2F0" height="30.2969" rx="2.5" ry="2.5" style="stroke:#181818;stroke-width:0.5;" width="92" x="868" y="56.1328"/><text fill="#000000" font-family="sans-serif" font-size="14" lengthAdjust="spacing" textLength="78" x="875" y="76.1279">&#1055;&#1086;&#1076;&#1089;&#1082;&#1072;&#1079;&#1082;&#1080;</text><rect fill="#E2E2F0" height="30.2969" rx="2.5" ry="2.5" style="stroke:#181818;stroke-width:0.5;" width="92" x="868" y="106.4297"/><text fill="#000000" font-family="sans-serif" font-size="14" lengthAdjust="spacing" textLength="78" x="875" y="126.4248">&#1055;&#1086;&#1076;&#1089;&#1082;&#1072;&#1079;&#1082;&#1080;</text><!--SRC=[ROzDJiCm58JtFeKLJW92GkpW22-91U773ebBsnqK48Ao0R5WHOz0W5QK03t3l1lnR2fGApRMIFFDl35btbKwmHqc6FCPNs6AzqHJhVD3HNFp0QzyWXdQQ9G7r3ULIbrFOuGFD3pWSyo4-4IZLshhkggaoXTPKPBrEbdTsjGRvBlKZ_aTyaRq8eCdEIyt8f6vogYZZkaOCHxv4XEnmhuRBVD-jhpma2yqdufy5ZdutMsEZVNR8QnoyfHI7LfkSRy4pwju-9TQNrkEeCLNu2AJEhV_3n8whsLUAxsoAw8ktJDPw5lyv4Y0iSneqU1Dtcc4TmlhQsLiBXTwIdq3]--></g></svg>