<?xml version="1.0" encoding="us-ascii" standalone="no"?><svg xmlns="http://www.w3.org/2000/svg" xmlns:xlink="http://www.w3.org/1999/xlink" contentStyleType="text/css" height="926px" preserveAspectRatio="none" style="width:832px;height:926px;background:#FFFFFF;" version="1.1" viewBox="0 0 832 926" width="832px" zoomAndPan="magnify"><defs/><g><rect fill="#FFFAFA" height="914.8594" style="stroke:#181818;stroke-width:0.5;" width="548.5" x="275.5" y="6"/><text fill="#000000" font-family="sans-serif" font-size="13" font-weight="bold" lengthAdjust="spacing" textLength="90" x="502.25" y="18.0669">&#1055;&#1083;&#1072;&#1090;&#1092;&#1086;&#1088;&#1084;&#1072;</text><rect fill="none" height="103.3984" style="stroke:#000000;stroke-width:1.5;" width="378.5" x="79" y="359.0313"/><line style="stroke:#181818;stroke-width:0.5;stroke-dasharray:5.0,5.0;" x1="42" x2="42" y1="81.2969" y2="841.5625"/><line style="stroke:#181818;stroke-width:0.5;stroke-dasharray:5.0,5.0;" x1="113" x2="113" y1="81.2969" y2="841.5625"/><line style="stroke:#181818;stroke-width:0.5;stroke-dasharray:5.0,5.0;" x1="323.5" x2="323.5" y1="81.2969" y2="841.5625"/><line style="stroke:#181818;stroke-width:0.5;stroke-dasharray:5.0,5.0;" x1="421.5" x2="421.5" y1="81.2969" y2="841.5625"/><line style="stroke:#181818;stroke-width:0.5;stroke-dasharray:5.0,5.0;" x1="565.5" x2="565.5" y1="81.2969" y2="841.5625"/><line style="stroke:#181818;stroke-width:0.5;stroke-dasharray:5.0,5.0;" x1="774" x2="774" y1="81.2969" y2="841.5625"/><text fill="#000000" font-family="sans-serif" font-size="14" lengthAdjust="spacing" textLength="68" x="5" y="77.9951">&#1042;&#1077;&#1076;&#1091;&#1097;&#1080;&#1081;</text><ellipse cx="42" cy="13.5" fill="#E2E2F0" rx="8" ry="8" style="stroke:#181818;stroke-width:0.5;"/><path d="M42,21.5 L42,48.5 M29,29.5 L55,29.5 M42,48.5 L29,63.5 M42,48.5 L55,63.5 " fill="none" style="stroke:#181818;stroke-width:0.5;"/><text fill="#000000" font-family="sans-serif" font-size="14" lengthAdjust="spacing" textLength="68" x="5" y="853.5576">&#1042;&#1077;&#1076;&#1091;&#1097;&#1080;&#1081;</text><ellipse cx="42" cy="865.3594" fill="#E2E2F0" rx="8" ry="8" style="stroke:#181818;stroke-width:0.5;"/><path d="M42,873.3594 L42,900.3594 M29,881.3594 L55,881.3594 M42,900.3594 L29,915.3594 M42,900.3594 L55,915.3594 " fill="none" style="stroke:#181818;stroke-width:0.5;"/><text fill="#000000" font-family="sans-serif" font-size="14" lengthAdjust="spacing" textLength="43" x="89" y="77.9951">&#1048;&#1075;&#1088;&#1086;&#1082;</text><ellipse cx="113.5" cy="13.5" fill="#E2E2F0" rx="8" ry="8" style="stroke:#181818;stroke-width:0.5;"/><path d="M113.5,21.5 L113.5,48.5 M100.5,29.5 L126.5,29.5 M113.5,48.5 L100.5,63.5 M113.5,48.5 L126.5,63.5 " fill="none" style="stroke:#181818;stroke-width:0.5;"/><text fill="#000000" font-family="sans-serif" font-size="14" lengthAdjust="spacing" textLength="43" x="89" y="853.5576">&#1048;&#1075;&#1088;&#1086;&#1082;</text><ellipse cx="113.5" cy="865.3594" fill="#E2E2F0" rx="8" ry="8" style="stroke:#181818;stroke-width:0.5;"/><path d="M113.5,873.3594 L113.5,900.3594 M100.5,881.3594 L126.5,881.3594 M113.5,900.3594 L100.5,915.3594 M113.5,900.3594 L126.5,915.3594 " fill="none" style="stroke:#181818;stroke-width:0.5;"/><rect fill="#E2E2F0" height="30.2969" rx="2.5" ry="2.5" style="stroke:#181818;stroke-width:0.5;" width="89" x="279.5" y="50"/><text fill="#000000" font-family="sans-serif" font-size="14" lengthAdjust="spacing" textLength="75" x="286.5" y="69.9951">API Gatway</text><rect fill="#E2E2F0" height="30.2969" rx="2.5" ry="2.5" style="stroke:#181818;stroke-width:0.5;" width="89" x="279.5" y="840.5625"/><text fill="#000000" font-family="sans-serif" font-size="14" lengthAdjust="spacing" textLength="75" x="286.5" y="860.5576">API Gatway</text><rect fill="#E2E2F0" height="30.2969" rx="2.5" ry="2.5" style="stroke:#181818;stroke-width:0.5;" width="51" x="396.5" y="50"/><text fill="#000000" font-family="sans-serif" font-size="14" lengthAdjust="spacing" textLength="37" x="403.5" y="69.9951">&#1071;&#1076;&#1088;&#1086;</text><rect fill="#E2E2F0" height="30.2969" rx="2.5" ry="2.5" style="stroke:#181818;stroke-width:0.5;" width="51" x="396.5" y="840.5625"/><text fill="#000000" font-family="sans-serif" font-size="14" lengthAdjust="spacing" textLength="37" x="403.5" y="860.5576">&#1071;&#1076;&#1088;&#1086;</text><path d="M462.5,55 L668.5,55 C673.5,55 673.5,68.1484 673.5,68.1484 C673.5,68.1484 673.5,81.2969 668.5,81.2969 L462.5,81.2969 C457.5,81.2969 457.5,68.1484 457.5,68.1484 C457.5,68.1484 457.5,55 462.5,55 " fill="#E2E2F0" style="stroke:#181818;stroke-width:0.5;"/><path d="M668.5,55 C663.5,55 663.5,68.1484 663.5,68.1484 C663.5,81.2969 668.5,81.2969 668.5,81.2969 " fill="none" style="stroke:#181818;stroke-width:0.5;"/><text fill="#000000" font-family="sans-serif" font-size="14" lengthAdjust="spacing" textLength="196" x="462.5" y="72.9951">&#1054;&#1095;&#1077;&#1088;&#1077;&#1076;&#1100; &#1080;&#1075;&#1088;&#1086;&#1074;&#1099;&#1093; &#1089;&#1086;&#1073;&#1099;&#1090;&#1080;&#1081;</text><path d="M462.5,840.5625 L668.5,840.5625 C673.5,840.5625 673.5,853.7109 673.5,853.7109 C673.5,853.7109 673.5,866.8594 668.5,866.8594 L462.5,866.8594 C457.5,866.8594 457.5,853.7109 457.5,853.7109 C457.5,853.7109 457.5,840.5625 462.5,840.5625 " fill="#E2E2F0" style="stroke:#181818;stroke-width:0.5;"/><path d="M668.5,840.5625 C663.5,840.5625 663.5,853.7109 663.5,853.7109 C663.5,866.8594 668.5,866.8594 668.5,866.8594 " fill="none" style="stroke:#181818;stroke-width:0.5;"/><text fill="#000000" font-family="sans-serif" font-size="14" lengthAdjust="spacing" textLength="196" x="462.5" y="858.5576">&#1054;&#1095;&#1077;&#1088;&#1077;&#1076;&#1100; &#1080;&#1075;&#1088;&#1086;&#1074;&#1099;&#1093; &#1089;&#1086;&#1073;&#1099;&#1090;&#1080;&#1081;</text><rect fill="#E2E2F0" height="30.2969" rx="2.5" ry="2.5" style="stroke:#181818;stroke-width:0.5;" width="92" x="728" y="50"/><text fill="#000000" font-family="sans-serif" font-size="14" lengthAdjust="spacing" textLength="78" x="735" y="69.9951">&#1055;&#1086;&#1076;&#1089;&#1082;&#1072;&#1079;&#1082;&#1080;</text><rect fill="#E2E2F0" height="30.2969" rx="2.5" ry="2.5" style="stroke:#181818;stroke-width:0.5;" width="92" x="728" y="840.5625"/><text fill="#000000" font-family="sans-serif" font-size="14" lengthAdjust="spacing" textLength="78" x="735" y="860.5576">&#1055;&#1086;&#1076;&#1089;&#1082;&#1072;&#1079;&#1082;&#1080;</text><rect fill="#EEEEEE" height="3" style="stroke:#EEEEEE;stroke-width:1.0;" width="825" x="0" y="111.8633"/><line style="stroke:#000000;stroke-width:1.0;" x1="0" x2="825" y1="111.8633" y2="111.8633"/><line style="stroke:#000000;stroke-width:1.0;" x1="0" x2="825" y1="114.8633" y2="114.8633"/><rect fill="#EEEEEE" height="23.1328" style="stroke:#000000;stroke-width:2.0;" width="185" x="320" y="101.2969"/><text fill="#000000" font-family="sans-serif" font-size="13" font-weight="bold" lengthAdjust="spacing" textLength="171" x="326" y="117.3638">&#1042;&#1099;&#1087;&#1086;&#1083;&#1085;&#1077;&#1085;&#1080;&#1077; &#1076;&#1077;&#1081;&#1089;&#1090;&#1074;&#1080;&#1081;</text><polygon fill="#181818" points="312,151.5625,322,155.5625,312,159.5625,316,155.5625" style="stroke:#181818;stroke-width:1.0;"/><line style="stroke:#181818;stroke-width:1.0;stroke-dasharray:2.0,2.0;" x1="113.5" x2="318" y1="155.5625" y2="155.5625"/><text fill="#000000" font-family="sans-serif" font-size="13" lengthAdjust="spacing" textLength="137" x="120.5" y="150.4966">&#1079;&#1072;&#1103;&#1074;&#1082;&#1072; &#1085;&#1072; &#1076;&#1077;&#1081;&#1089;&#1090;&#1074;&#1080;&#1077;</text><polygon fill="#181818" points="410,165.5625,420,169.5625,410,173.5625,414,169.5625" style="stroke:#181818;stroke-width:1.0;"/><line style="stroke:#181818;stroke-width:1.0;stroke-dasharray:2.0,2.0;" x1="324" x2="416" y1="169.5625" y2="169.5625"/><rect fill="none" height="39.1016" style="stroke:#000000;stroke-width:1.5;" width="174" x="276.5" y="177.5625"/><path d="M276.5,177.5625 L342.5,177.5625 L342.5,184.5625 L332.5,194.5625 L276.5,194.5625 L276.5,177.5625 " fill="#EEEEEE" style="stroke:#000000;stroke-width:2.0;"/><text fill="#000000" font-family="sans-serif" font-size="13" font-weight="bold" lengthAdjust="spacing" textLength="21" x="289.5" y="191.6294">ref</text><text fill="#000000" font-family="sans-serif" font-size="12" lengthAdjust="spacing" textLength="156" x="285.5" y="209.7012">&#1089;&#1094;&#1077;&#1085;&#1072;&#1088;&#1080;&#1081; &#1072;&#1074;&#1090;&#1086;&#1088;&#1080;&#1079;&#1072;&#1094;&#1080;&#1080;</text><polygon fill="#181818" points="335,223.6641,325,227.6641,335,231.6641,331,227.6641" style="stroke:#181818;stroke-width:1.0;"/><line style="stroke:#181818;stroke-width:1.0;stroke-dasharray:2.0,2.0;" x1="329" x2="421" y1="227.6641" y2="227.6641"/><polygon fill="#181818" points="53,252.7969,43,256.7969,53,260.7969,49,256.7969" style="stroke:#181818;stroke-width:1.0;"/><line style="stroke:#181818;stroke-width:1.0;stroke-dasharray:2.0,2.0;" x1="47" x2="323" y1="256.7969" y2="256.7969"/><text fill="#000000" font-family="sans-serif" font-size="13" lengthAdjust="spacing" textLength="147" x="59" y="251.731">&#1086;&#1087;&#1086;&#1074;&#1077;&#1097;&#1077;&#1085;&#1080;&#1077; &#1086; &#1079;&#1072;&#1103;&#1074;&#1082;&#1077;</text><polygon fill="#181818" points="312,281.9297,322,285.9297,312,289.9297,316,285.9297" style="stroke:#181818;stroke-width:1.0;"/><line style="stroke:#181818;stroke-width:1.0;stroke-dasharray:2.0,2.0;" x1="42" x2="318" y1="285.9297" y2="285.9297"/><text fill="#000000" font-family="sans-serif" font-size="13" lengthAdjust="spacing" textLength="258" x="49" y="280.8638">&#1086;&#1076;&#1086;&#1073;&#1088;&#1077;&#1085;&#1080;&#1077; &#1079;&#1072;&#1103;&#1074;&#1082;&#1080; + &#1089;&#1087;&#1080;&#1089;&#1086;&#1082; &#1087;&#1088;&#1086;&#1074;&#1077;&#1088;&#1086;&#1082;</text><polygon fill="#181818" points="410,295.9297,420,299.9297,410,303.9297,414,299.9297" style="stroke:#181818;stroke-width:1.0;"/><line style="stroke:#181818;stroke-width:1.0;stroke-dasharray:2.0,2.0;" x1="324" x2="416" y1="299.9297" y2="299.9297"/><rect fill="none" height="39.1016" style="stroke:#000000;stroke-width:1.5;" width="174" x="276.5" y="307.9297"/><path d="M276.5,307.9297 L342.5,307.9297 L342.5,314.9297 L332.5,324.9297 L276.5,324.9297 L276.5,307.9297 " fill="#EEEEEE" style="stroke:#000000;stroke-width:2.0;"/><text fill="#000000" font-family="sans-serif" font-size="13" font-weight="bold" lengthAdjust="spacing" textLength="21" x="289.5" y="321.9966">ref</text><text fill="#000000" font-family="sans-serif" font-size="12" lengthAdjust="spacing" textLength="156" x="285.5" y="340.0684">&#1089;&#1094;&#1077;&#1085;&#1072;&#1088;&#1080;&#1081; &#1072;&#1074;&#1090;&#1086;&#1088;&#1080;&#1079;&#1072;&#1094;&#1080;&#1080;</text><path d="M79,359.0313 L143,359.0313 L143,366.1641 L133,376.1641 L79,376.1641 L79,359.0313 " fill="#EEEEEE" style="stroke:#000000;stroke-width:1.5;"/><rect fill="none" height="103.3984" style="stroke:#000000;stroke-width:1.5;" width="378.5" x="79" y="359.0313"/><text fill="#000000" font-family="sans-serif" font-size="13" font-weight="bold" lengthAdjust="spacing" textLength="19" x="94" y="372.0981">alt</text><text fill="#000000" font-family="sans-serif" font-size="11" font-weight="bold" lengthAdjust="spacing" textLength="174" x="158" y="371.2417">[&#1079;&#1072;&#1103;&#1074;&#1082;&#1072; &#1090;&#1088;&#1077;&#1073;&#1091;&#1077;&#1090; &#1087;&#1088;&#1086;&#1074;&#1077;&#1088;&#1086;&#1082;]</text><polygon fill="#181818" points="335,378.1641,325,382.1641,335,386.1641,331,382.1641" style="stroke:#181818;stroke-width:1.0;"/><line style="stroke:#181818;stroke-width:1.0;stroke-dasharray:2.0,2.0;" x1="329" x2="421" y1="382.1641" y2="382.1641"/><polygon fill="#181818" points="124.5,407.2969,114.5,411.2969,124.5,415.2969,120.5,411.2969" style="stroke:#181818;stroke-width:1.0;"/><line style="stroke:#181818;stroke-width:1.0;stroke-dasharray:2.0,2.0;" x1="118.5" x2="323" y1="411.2969" y2="411.2969"/><text fill="#000000" font-family="sans-serif" font-size="13" lengthAdjust="spacing" textLength="114" x="130.5" y="406.231">&#1079;&#1072;&#1087;&#1088;&#1086;&#1089; &#1087;&#1088;&#1086;&#1074;&#1077;&#1088;&#1086;&#1082;</text><polygon fill="#181818" points="312,436.4297,322,440.4297,312,444.4297,316,440.4297" style="stroke:#181818;stroke-width:1.0;"/><line style="stroke:#181818;stroke-width:1.0;stroke-dasharray:2.0,2.0;" x1="113.5" x2="318" y1="440.4297" y2="440.4297"/><text fill="#000000" font-family="sans-serif" font-size="13" lengthAdjust="spacing" textLength="150" x="120.5" y="435.3638">&#1074;&#1099;&#1087;&#1086;&#1083;&#1085;&#1077;&#1085;&#1080;&#1077; &#1087;&#1088;&#1086;&#1074;&#1077;&#1088;&#1082;&#1080;</text><polygon fill="#181818" points="410,450.4297,420,454.4297,410,458.4297,414,454.4297" style="stroke:#181818;stroke-width:1.0;"/><line style="stroke:#181818;stroke-width:1.0;stroke-dasharray:2.0,2.0;" x1="324" x2="416" y1="454.4297" y2="454.4297"/><polygon fill="#181818" points="335,471.4297,325,475.4297,335,479.4297,331,475.4297" style="stroke:#181818;stroke-width:1.0;"/><line style="stroke:#181818;stroke-width:1.0;stroke-dasharray:2.0,2.0;" x1="329" x2="421" y1="475.4297" y2="475.4297"/><polygon fill="#181818" points="53,500.5625,43,504.5625,53,508.5625,49,504.5625" style="stroke:#181818;stroke-width:1.0;"/><line style="stroke:#181818;stroke-width:1.0;stroke-dasharray:2.0,2.0;" x1="47" x2="323" y1="504.5625" y2="504.5625"/><text fill="#000000" font-family="sans-serif" font-size="13" lengthAdjust="spacing" textLength="226" x="59" y="499.4966">&#1088;&#1077;&#1079;&#1091;&#1083;&#1100;&#1090;&#1072;&#1090; &#1074;&#1099;&#1087;&#1086;&#1083;&#1085;&#1077;&#1085;&#1080;&#1103; &#1087;&#1088;&#1086;&#1074;&#1077;&#1088;&#1082;&#1080;</text><polygon fill="#181818" points="312,529.6953,322,533.6953,312,537.6953,316,533.6953" style="stroke:#181818;stroke-width:1.0;"/><line style="stroke:#181818;stroke-width:1.0;stroke-dasharray:2.0,2.0;" x1="42" x2="318" y1="533.6953" y2="533.6953"/><text fill="#000000" font-family="sans-serif" font-size="13" lengthAdjust="spacing" textLength="122" x="49" y="528.6294">&#1079;&#1072;&#1087;&#1088;&#1086;&#1089; &#1087;&#1086;&#1076;&#1089;&#1082;&#1072;&#1079;&#1086;&#1082;</text><polygon fill="#181818" points="410,543.6953,420,547.6953,410,551.6953,414,547.6953" style="stroke:#181818;stroke-width:1.0;"/><line style="stroke:#181818;stroke-width:1.0;stroke-dasharray:2.0,2.0;" x1="324" x2="416" y1="547.6953" y2="547.6953"/><rect fill="none" height="39.1016" style="stroke:#000000;stroke-width:1.5;" width="174" x="276.5" y="555.6953"/><path d="M276.5,555.6953 L342.5,555.6953 L342.5,562.6953 L332.5,572.6953 L276.5,572.6953 L276.5,555.6953 " fill="#EEEEEE" style="stroke:#000000;stroke-width:2.0;"/><text fill="#000000" font-family="sans-serif" font-size="13" font-weight="bold" lengthAdjust="spacing" textLength="21" x="289.5" y="569.7622">ref</text><text fill="#000000" font-family="sans-serif" font-size="12" lengthAdjust="spacing" textLength="156" x="285.5" y="587.834">&#1089;&#1094;&#1077;&#1085;&#1072;&#1088;&#1080;&#1081; &#1072;&#1074;&#1090;&#1086;&#1088;&#1080;&#1079;&#1072;&#1094;&#1080;&#1080;</text><polygon fill="#181818" points="433,616.9297,423,620.9297,433,624.9297,429,620.9297" style="stroke:#181818;stroke-width:1.0;"/><polygon fill="#181818" points="762,616.9297,772,620.9297,762,624.9297,766,620.9297" style="stroke:#181818;stroke-width:1.0;"/><line style="stroke:#181818;stroke-width:1.0;stroke-dasharray:2.0,2.0;" x1="427" x2="768" y1="620.9297" y2="620.9297"/><text fill="#000000" font-family="sans-serif" font-size="13" lengthAdjust="spacing" textLength="328" x="439" y="615.8638">&#1079;&#1072;&#1087;&#1088;&#1086;&#1089; &#1080; &#1092;&#1086;&#1088;&#1084;&#1080;&#1088;&#1086;&#1074;&#1072;&#1085;&#1080;&#1077; &#1087;&#1086;&#1076;&#1093;&#1086;&#1076;&#1103;&#1097;&#1080;&#1093; &#1087;&#1086;&#1076;&#1089;&#1082;&#1072;&#1079;&#1086;&#1082;</text><polygon fill="#181818" points="335,630.9297,325,634.9297,335,638.9297,331,634.9297" style="stroke:#181818;stroke-width:1.0;"/><line style="stroke:#181818;stroke-width:1.0;stroke-dasharray:2.0,2.0;" x1="329" x2="421" y1="634.9297" y2="634.9297"/><polygon fill="#181818" points="53,660.0625,43,664.0625,53,668.0625,49,664.0625" style="stroke:#181818;stroke-width:1.0;"/><line style="stroke:#181818;stroke-width:1.0;stroke-dasharray:2.0,2.0;" x1="47" x2="323" y1="664.0625" y2="664.0625"/><text fill="#000000" font-family="sans-serif" font-size="13" lengthAdjust="spacing" textLength="122" x="59" y="658.9966">&#1089;&#1087;&#1080;&#1089;&#1086;&#1082; &#1087;&#1086;&#1076;&#1089;&#1082;&#1072;&#1079;&#1086;&#1082;</text><polygon fill="#181818" points="312,689.1953,322,693.1953,312,697.1953,316,693.1953" style="stroke:#181818;stroke-width:1.0;"/><line style="stroke:#181818;stroke-width:1.0;stroke-dasharray:2.0,2.0;" x1="42" x2="318" y1="693.1953" y2="693.1953"/><text fill="#000000" font-family="sans-serif" font-size="13" lengthAdjust="spacing" textLength="177" x="49" y="688.1294">&#1086;&#1087;&#1080;&#1089;&#1072;&#1085;&#1080;&#1077; &#1087;&#1088;&#1086;&#1080;&#1079;&#1086;&#1096;&#1077;&#1076;&#1096;&#1077;&#1075;&#1086;</text><polygon fill="#181818" points="410,703.1953,420,707.1953,410,711.1953,414,707.1953" style="stroke:#181818;stroke-width:1.0;"/><line style="stroke:#181818;stroke-width:1.0;stroke-dasharray:2.0,2.0;" x1="324" x2="416" y1="707.1953" y2="707.1953"/><rect fill="none" height="39.1016" style="stroke:#000000;stroke-width:1.5;" width="174" x="276.5" y="715.1953"/><path d="M276.5,715.1953 L342.5,715.1953 L342.5,722.1953 L332.5,732.1953 L276.5,732.1953 L276.5,715.1953 " fill="#EEEEEE" style="stroke:#000000;stroke-width:2.0;"/><text fill="#000000" font-family="sans-serif" font-size="13" font-weight="bold" lengthAdjust="spacing" textLength="21" x="289.5" y="729.2622">ref</text><text fill="#000000" font-family="sans-serif" font-size="12" lengthAdjust="spacing" textLength="156" x="285.5" y="747.334">&#1089;&#1094;&#1077;&#1085;&#1072;&#1088;&#1080;&#1081; &#1072;&#1074;&#1090;&#1086;&#1088;&#1080;&#1079;&#1072;&#1094;&#1080;&#1080;</text><polygon fill="#181818" points="553.5,776.4297,563.5,780.4297,553.5,784.4297,557.5,780.4297" style="stroke:#181818;stroke-width:1.0;"/><line style="stroke:#181818;stroke-width:1.0;stroke-dasharray:2.0,2.0;" x1="422" x2="559.5" y1="780.4297" y2="780.4297"/><text fill="#000000" font-family="sans-serif" font-size="13" lengthAdjust="spacing" textLength="117" x="429" y="775.3638">&#1080;&#1075;&#1088;&#1086;&#1074;&#1086;&#1077; &#1089;&#1086;&#1073;&#1099;&#1090;&#1080;&#1077;</text><polygon fill="#181818" points="335,790.4297,325,794.4297,335,798.4297,331,794.4297" style="stroke:#181818;stroke-width:1.0;"/><line style="stroke:#181818;stroke-width:1.0;stroke-dasharray:2.0,2.0;" x1="329" x2="421" y1="794.4297" y2="794.4297"/><polygon fill="#181818" points="53,819.5625,43,823.5625,53,827.5625,49,823.5625" style="stroke:#181818;stroke-width:1.0;"/><line style="stroke:#181818;stroke-width:1.0;stroke-dasharray:2.0,2.0;" x1="47" x2="323" y1="823.5625" y2="823.5625"/><text fill="#000000" font-family="sans-serif" font-size="13" lengthAdjust="spacing" textLength="173" x="59" y="818.4966">&#1087;&#1088;&#1080;&#1079;&#1085;&#1072;&#1082; &#1091;&#1089;&#1087;&#1077;&#1093;&#1072; &#1086;&#1087;&#1077;&#1088;&#1072;&#1094;&#1080;&#1080;</text><!--SRC=[jLJDRjD04BxlKup24Ve24K7YXBZHHzWc2qHgxE2uVxScfOMgbIBrn8a-0bitLjs4Egym-qPyEtQJE8ue1tg8i_REpFSpkwFRSHXHWwyuvOaxSUUSyNs3z80wFQNBpHzywuuvvwbiz7VraOdKJdX8VCqpjcxaldAEYDziwSKW20zKNqTnjztjwo2cnjiFx-cTZW_qaUH_qh71kXh3lm0F38beXv5HN_RCdi76J_UDKsnvVfS4UWMNn5suKt93B6-m72ructqJnDi-UGtX6g4J94pPyXsUcOH_xWRnG9cWGn2ab6gr-CfTy1p1Ctu0wWCgfyGJBE_T4429XsgrLE43RMszUPJK91IsRemGW11IxNfYgifOoHEXaVb8uJugbJklv7CJsjoPu5i81YI1Tu8okRnwe3FyPyf7hxAe87Hw89MBd0GsdYy5vQjaKwKwlJKfS4lCFLxcB1CoUkdDdtCcBPWIpuksIA_muV_hrBjnrL-SEy_jnfq0T5Hdy5TZYkuL7IiotR1UOcEFaqtdOpKJzjJbuuWztIeHT0T1CtS92woNLODpupfSlNrLNPMp_opj4MslVJcvKkiCCbeCYQpaRXVU2RjJUOxz2CBDta3vQVUg1x9MODCPBn9ijOrUL-w-oypnprlEd_7UBYTMSsM-uPTMvrlw3rTzNe807HvWe7jBKdXh2x7-l3mI-0C0]--></g></svg>