<?xml version="1.0" encoding="us-ascii" standalone="no"?><svg xmlns="http://www.w3.org/2000/svg" xmlns:xlink="http://www.w3.org/1999/xlink" contentStyleType="text/css" height="2179px" preserveAspectRatio="none" style="width:1108px;height:2179px;background:#FFFFFF;" version="1.1" viewBox="0 0 1108 2179" width="1108px" zoomAndPan="magnify"><defs/><g><rect fill="#FFFAFA" height="2167.1563" style="stroke:#181818;stroke-width:0.5;" width="830.5" x="270" y="6"/><text fill="#000000" font-family="sans-serif" font-size="13" font-weight="bold" lengthAdjust="spacing" textLength="90" x="637.75" y="18.0669">&#1055;&#1083;&#1072;&#1090;&#1092;&#1086;&#1088;&#1084;&#1072;</text><line style="stroke:#181818;stroke-width:0.5;stroke-dasharray:5.0,5.0;" x1="45" x2="45" y1="87.4297" y2="2093.8594"/><line style="stroke:#181818;stroke-width:0.5;stroke-dasharray:5.0,5.0;" x1="303" x2="303" y1="87.4297" y2="2093.8594"/><line style="stroke:#181818;stroke-width:0.5;stroke-dasharray:5.0,5.0;" x1="367" x2="367" y1="87.4297" y2="2093.8594"/><line style="stroke:#181818;stroke-width:0.5;stroke-dasharray:5.0,5.0;" x1="475" x2="475" y1="87.4297" y2="2093.8594"/><line style="stroke:#181818;stroke-width:0.5;stroke-dasharray:5.0,5.0;" x1="680.5" x2="680.5" y1="87.4297" y2="2093.8594"/><line style="stroke:#181818;stroke-width:0.5;stroke-dasharray:5.0,5.0;" x1="835.5" x2="835.5" y1="87.4297" y2="2093.8594"/><line style="stroke:#181818;stroke-width:0.5;stroke-dasharray:5.0,5.0;" x1="972.5" x2="972.5" y1="87.4297" y2="2093.8594"/><line style="stroke:#181818;stroke-width:0.5;stroke-dasharray:5.0,5.0;" x1="1055.5" x2="1055.5" y1="87.4297" y2="2093.8594"/><text fill="#000000" font-family="sans-serif" font-size="14" lengthAdjust="spacing" textLength="74" x="5" y="84.1279">&#1042;&#1083;&#1072;&#1076;&#1077;&#1083;&#1077;&#1094;</text><ellipse cx="45" cy="19.6328" fill="#E2E2F0" rx="8" ry="8" style="stroke:#181818;stroke-width:0.5;"/><path d="M45,27.6328 L45,54.6328 M32,35.6328 L58,35.6328 M45,54.6328 L32,69.6328 M45,54.6328 L58,69.6328 " fill="none" style="stroke:#181818;stroke-width:0.5;"/><text fill="#000000" font-family="sans-serif" font-size="14" lengthAdjust="spacing" textLength="74" x="5" y="2105.8545">&#1042;&#1083;&#1072;&#1076;&#1077;&#1083;&#1077;&#1094;</text><ellipse cx="45" cy="2117.6563" fill="#E2E2F0" rx="8" ry="8" style="stroke:#181818;stroke-width:0.5;"/><path d="M45,2125.6563 L45,2152.6563 M32,2133.6563 L58,2133.6563 M45,2152.6563 L32,2167.6563 M45,2152.6563 L58,2167.6563 " fill="none" style="stroke:#181818;stroke-width:0.5;"/><rect fill="#E2E2F0" height="30.2969" rx="2.5" ry="2.5" style="stroke:#181818;stroke-width:0.5;" width="58" x="274" y="56.1328"/><text fill="#000000" font-family="sans-serif" font-size="14" lengthAdjust="spacing" textLength="44" x="281" y="76.1279">&#1064;&#1083;&#1102;&#1079;</text><rect fill="#E2E2F0" height="30.2969" rx="2.5" ry="2.5" style="stroke:#181818;stroke-width:0.5;" width="58" x="274" y="2092.8594"/><text fill="#000000" font-family="sans-serif" font-size="14" lengthAdjust="spacing" textLength="44" x="281" y="2112.8545">&#1064;&#1083;&#1102;&#1079;</text><rect fill="#E2E2F0" height="30.2969" rx="2.5" ry="2.5" style="stroke:#181818;stroke-width:0.5;" width="51" x="342" y="56.1328"/><text fill="#000000" font-family="sans-serif" font-size="14" lengthAdjust="spacing" textLength="37" x="349" y="76.1279">&#1071;&#1076;&#1088;&#1086;</text><rect fill="#E2E2F0" height="30.2969" rx="2.5" ry="2.5" style="stroke:#181818;stroke-width:0.5;" width="51" x="342" y="2092.8594"/><text fill="#000000" font-family="sans-serif" font-size="14" lengthAdjust="spacing" textLength="37" x="349" y="2112.8545">&#1071;&#1076;&#1088;&#1086;</text><text fill="#000000" font-family="sans-serif" font-size="14" lengthAdjust="spacing" textLength="139" x="403" y="84.1279">&#1041;&#1044; &#1087;&#1086;&#1083;&#1100;&#1079;&#1086;&#1074;&#1072;&#1090;&#1077;&#1083;&#1077;&#1081;</text><path d="M457.5,35.1328 C457.5,25.1328 475.5,25.1328 475.5,25.1328 C475.5,25.1328 493.5,25.1328 493.5,35.1328 L493.5,61.1328 C493.5,71.1328 475.5,71.1328 475.5,71.1328 C475.5,71.1328 457.5,71.1328 457.5,61.1328 L457.5,35.1328 " fill="#E2E2F0" style="stroke:#181818;stroke-width:1.5;"/><path d="M457.5,35.1328 C457.5,45.1328 475.5,45.1328 475.5,45.1328 C475.5,45.1328 493.5,45.1328 493.5,35.1328 " fill="none" style="stroke:#181818;stroke-width:1.5;"/><text fill="#000000" font-family="sans-serif" font-size="14" lengthAdjust="spacing" textLength="139" x="403" y="2105.8545">&#1041;&#1044; &#1087;&#1086;&#1083;&#1100;&#1079;&#1086;&#1074;&#1072;&#1090;&#1077;&#1083;&#1077;&#1081;</text><path d="M457.5,2119.1563 C457.5,2109.1563 475.5,2109.1563 475.5,2109.1563 C475.5,2109.1563 493.5,2109.1563 493.5,2119.1563 L493.5,2145.1563 C493.5,2155.1563 475.5,2155.1563 475.5,2155.1563 C475.5,2155.1563 457.5,2155.1563 457.5,2145.1563 L457.5,2119.1563 " fill="#E2E2F0" style="stroke:#181818;stroke-width:1.5;"/><path d="M457.5,2119.1563 C457.5,2129.1563 475.5,2129.1563 475.5,2129.1563 C475.5,2129.1563 493.5,2129.1563 493.5,2119.1563 " fill="none" style="stroke:#181818;stroke-width:1.5;"/><text fill="#000000" font-family="sans-serif" font-size="14" lengthAdjust="spacing" textLength="96" x="629.5" y="84.1279">&#1041;&#1044; &#1082;&#1072;&#1084;&#1087;&#1072;&#1085;&#1080;&#1081;</text><path d="M662.5,35.1328 C662.5,25.1328 680.5,25.1328 680.5,25.1328 C680.5,25.1328 698.5,25.1328 698.5,35.1328 L698.5,61.1328 C698.5,71.1328 680.5,71.1328 680.5,71.1328 C680.5,71.1328 662.5,71.1328 662.5,61.1328 L662.5,35.1328 " fill="#E2E2F0" style="stroke:#181818;stroke-width:1.5;"/><path d="M662.5,35.1328 C662.5,45.1328 680.5,45.1328 680.5,45.1328 C680.5,45.1328 698.5,45.1328 698.5,35.1328 " fill="none" style="stroke:#181818;stroke-width:1.5;"/><text fill="#000000" font-family="sans-serif" font-size="14" lengthAdjust="spacing" textLength="96" x="629.5" y="2105.8545">&#1041;&#1044; &#1082;&#1072;&#1084;&#1087;&#1072;&#1085;&#1080;&#1081;</text><path d="M662.5,2119.1563 C662.5,2109.1563 680.5,2109.1563 680.5,2109.1563 C680.5,2109.1563 698.5,2109.1563 698.5,2119.1563 L698.5,2145.1563 C698.5,2155.1563 680.5,2155.1563 680.5,2155.1563 C680.5,2155.1563 662.5,2155.1563 662.5,2145.1563 L662.5,2119.1563 " fill="#E2E2F0" style="stroke:#181818;stroke-width:1.5;"/><path d="M662.5,2119.1563 C662.5,2129.1563 680.5,2129.1563 680.5,2129.1563 C680.5,2129.1563 698.5,2129.1563 698.5,2119.1563 " fill="none" style="stroke:#181818;stroke-width:1.5;"/><text fill="#000000" font-family="sans-serif" font-size="14" lengthAdjust="spacing" textLength="183" x="741.5" y="84.1279">&#1041;&#1044; &#1086;&#1073;&#1098;&#1077;&#1082;&#1090;&#1086;&#1074; &#1074; &#1082;&#1072;&#1084;&#1087;&#1072;&#1085;&#1080;&#1080;</text><path d="M818,35.1328 C818,25.1328 836,25.1328 836,25.1328 C836,25.1328 854,25.1328 854,35.1328 L854,61.1328 C854,71.1328 836,71.1328 836,71.1328 C836,71.1328 818,71.1328 818,61.1328 L818,35.1328 " fill="#E2E2F0" style="stroke:#181818;stroke-width:1.5;"/><path d="M818,35.1328 C818,45.1328 836,45.1328 836,45.1328 C836,45.1328 854,45.1328 854,35.1328 " fill="none" style="stroke:#181818;stroke-width:1.5;"/><text fill="#000000" font-family="sans-serif" font-size="14" lengthAdjust="spacing" textLength="183" x="741.5" y="2105.8545">&#1041;&#1044; &#1086;&#1073;&#1098;&#1077;&#1082;&#1090;&#1086;&#1074; &#1074; &#1082;&#1072;&#1084;&#1087;&#1072;&#1085;&#1080;&#1080;</text><path d="M818,2119.1563 C818,2109.1563 836,2109.1563 836,2109.1563 C836,2109.1563 854,2109.1563 854,2119.1563 L854,2145.1563 C854,2155.1563 836,2155.1563 836,2155.1563 C836,2155.1563 818,2155.1563 818,2145.1563 L818,2119.1563 " fill="#E2E2F0" style="stroke:#181818;stroke-width:1.5;"/><path d="M818,2119.1563 C818,2129.1563 836,2129.1563 836,2129.1563 C836,2129.1563 854,2129.1563 854,2119.1563 " fill="none" style="stroke:#181818;stroke-width:1.5;"/><text fill="#000000" font-family="sans-serif" font-size="14" lengthAdjust="spacing" textLength="59" x="940.5" y="84.1279">&#1041;&#1044; &#1082;&#1085;&#1080;&#1075;</text><path d="M955,35.1328 C955,25.1328 973,25.1328 973,25.1328 C973,25.1328 991,25.1328 991,35.1328 L991,61.1328 C991,71.1328 973,71.1328 973,71.1328 C973,71.1328 955,71.1328 955,61.1328 L955,35.1328 " fill="#E2E2F0" style="stroke:#181818;stroke-width:1.5;"/><path d="M955,35.1328 C955,45.1328 973,45.1328 973,45.1328 C973,45.1328 991,45.1328 991,35.1328 " fill="none" style="stroke:#181818;stroke-width:1.5;"/><text fill="#000000" font-family="sans-serif" font-size="14" lengthAdjust="spacing" textLength="59" x="940.5" y="2105.8545">&#1041;&#1044; &#1082;&#1085;&#1080;&#1075;</text><path d="M955,2119.1563 C955,2109.1563 973,2109.1563 973,2109.1563 C973,2109.1563 991,2109.1563 991,2119.1563 L991,2145.1563 C991,2155.1563 973,2155.1563 973,2155.1563 C973,2155.1563 955,2155.1563 955,2145.1563 L955,2119.1563 " fill="#E2E2F0" style="stroke:#181818;stroke-width:1.5;"/><path d="M955,2119.1563 C955,2129.1563 973,2129.1563 973,2129.1563 C973,2129.1563 991,2129.1563 991,2119.1563 " fill="none" style="stroke:#181818;stroke-width:1.5;"/><text fill="#000000" font-family="sans-serif" font-size="14" lengthAdjust="spacing" textLength="75" x="1015.5" y="84.1279">&#1041;&#1044; &#1072;&#1088;&#1093;&#1080;&#1074;&#1072;</text><path d="M1038,35.1328 C1038,25.1328 1056,25.1328 1056,25.1328 C1056,25.1328 1074,25.1328 1074,35.1328 L1074,61.1328 C1074,71.1328 1056,71.1328 1056,71.1328 C1056,71.1328 1038,71.1328 1038,61.1328 L1038,35.1328 " fill="#E2E2F0" style="stroke:#181818;stroke-width:1.5;"/><path d="M1038,35.1328 C1038,45.1328 1056,45.1328 1056,45.1328 C1056,45.1328 1074,45.1328 1074,35.1328 " fill="none" style="stroke:#181818;stroke-width:1.5;"/><text fill="#000000" font-family="sans-serif" font-size="14" lengthAdjust="spacing" textLength="75" x="1015.5" y="2105.8545">&#1041;&#1044; &#1072;&#1088;&#1093;&#1080;&#1074;&#1072;</text><path d="M1038,2119.1563 C1038,2109.1563 1056,2109.1563 1056,2109.1563 C1056,2109.1563 1074,2109.1563 1074,2119.1563 L1074,2145.1563 C1074,2155.1563 1056,2155.1563 1056,2155.1563 C1056,2155.1563 1038,2155.1563 1038,2145.1563 L1038,2119.1563 " fill="#E2E2F0" style="stroke:#181818;stroke-width:1.5;"/><path d="M1038,2119.1563 C1038,2129.1563 1056,2129.1563 1056,2129.1563 C1056,2129.1563 1074,2129.1563 1074,2119.1563 " fill="none" style="stroke:#181818;stroke-width:1.5;"/><rect fill="#EEEEEE" height="3" style="stroke:#EEEEEE;stroke-width:1.0;" width="1101.5" x="0" y="117.9961"/><line style="stroke:#000000;stroke-width:1.0;" x1="0" x2="1101.5" y1="117.9961" y2="117.9961"/><line style="stroke:#000000;stroke-width:1.0;" x1="0" x2="1101.5" y1="120.9961" y2="120.9961"/><rect fill="#EEEEEE" height="23.1328" style="stroke:#000000;stroke-width:2.0;" width="57" x="522.25" y="107.4297"/><text fill="#000000" font-family="sans-serif" font-size="13" font-weight="bold" lengthAdjust="spacing" textLength="38" x="528.25" y="123.4966">&#1042;&#1093;&#1086;&#1076;</text><rect fill="none" height="39.1016" style="stroke:#000000;stroke-width:1.5;" width="394" x="2" y="140.5625"/><path d="M2,140.5625 L68,140.5625 L68,147.5625 L58,157.5625 L2,157.5625 L2,140.5625 " fill="#EEEEEE" style="stroke:#000000;stroke-width:2.0;"/><text fill="#000000" font-family="sans-serif" font-size="13" font-weight="bold" lengthAdjust="spacing" textLength="21" x="15" y="154.6294">ref</text><text fill="#000000" font-family="sans-serif" font-size="12" lengthAdjust="spacing" textLength="335" x="31.5" y="172.7012">&#1089;&#1094;&#1077;&#1085;&#1072;&#1088;&#1080;&#1081; &#1072;&#1091;&#1090;&#1077;&#1085;&#1090;&#1080;&#1092;&#1080;&#1082;&#1072;&#1094;&#1080;&#1080;, &#1088;&#1077;&#1076;&#1080;&#1088;&#1077;&#1082;&#1090; &#1085;&#1072; &#1072;&#1076;&#1084;&#1080;&#1085;&#1082;&#1091;</text><rect fill="#EEEEEE" height="3" style="stroke:#EEEEEE;stroke-width:1.0;" width="1101.5" x="0" y="205.2305"/><line style="stroke:#000000;stroke-width:1.0;" x1="0" x2="1101.5" y1="205.2305" y2="205.2305"/><line style="stroke:#000000;stroke-width:1.0;" x1="0" x2="1101.5" y1="208.2305" y2="208.2305"/><rect fill="#EEEEEE" height="23.1328" style="stroke:#000000;stroke-width:2.0;" width="92" x="504.75" y="194.6641"/><text fill="#000000" font-family="sans-serif" font-size="13" font-weight="bold" lengthAdjust="spacing" textLength="73" x="510.75" y="210.731">&#1047;&#1072;&#1087;&#1088;&#1086;&#1089; UI</text><polygon fill="#181818" points="291,244.9297,301,248.9297,291,252.9297,295,248.9297" style="stroke:#181818;stroke-width:1.0;"/><line style="stroke:#181818;stroke-width:1.0;" x1="45" x2="297" y1="248.9297" y2="248.9297"/><text fill="#000000" font-family="sans-serif" font-size="13" lengthAdjust="spacing" textLength="63" x="52" y="243.8638">&#1079;&#1072;&#1087;&#1088;&#1086;&#1089; UI</text><polygon fill="#181818" points="355.5,258.9297,365.5,262.9297,355.5,266.9297,359.5,262.9297" style="stroke:#181818;stroke-width:1.0;"/><line style="stroke:#181818;stroke-width:1.0;" x1="303" x2="361.5" y1="262.9297" y2="262.9297"/><rect fill="none" height="39.1016" style="stroke:#000000;stroke-width:1.5;" width="549" x="2" y="270.9297"/><path d="M2,270.9297 L68,270.9297 L68,277.9297 L58,287.9297 L2,287.9297 L2,270.9297 " fill="#EEEEEE" style="stroke:#000000;stroke-width:2.0;"/><text fill="#000000" font-family="sans-serif" font-size="13" font-weight="bold" lengthAdjust="spacing" textLength="21" x="15" y="284.9966">ref</text><text fill="#000000" font-family="sans-serif" font-size="12" lengthAdjust="spacing" textLength="156" x="198.5" y="303.0684">&#1089;&#1094;&#1077;&#1085;&#1072;&#1088;&#1080;&#1081; &#1072;&#1074;&#1090;&#1086;&#1088;&#1080;&#1079;&#1072;&#1094;&#1080;&#1080;</text><polygon fill="#181818" points="314,317.0313,304,321.0313,314,325.0313,310,321.0313" style="stroke:#181818;stroke-width:1.0;"/><line style="stroke:#181818;stroke-width:1.0;" x1="308" x2="366.5" y1="321.0313" y2="321.0313"/><polygon fill="#181818" points="56,346.1641,46,350.1641,56,354.1641,52,350.1641" style="stroke:#181818;stroke-width:1.0;"/><line style="stroke:#181818;stroke-width:1.0;" x1="50" x2="302" y1="350.1641" y2="350.1641"/><text fill="#000000" font-family="sans-serif" font-size="13" lengthAdjust="spacing" textLength="13" x="62" y="345.0981">UI</text><rect fill="#EEEEEE" height="3" style="stroke:#EEEEEE;stroke-width:1.0;" width="1101.5" x="0" y="378.7305"/><line style="stroke:#000000;stroke-width:1.0;" x1="0" x2="1101.5" y1="378.7305" y2="378.7305"/><line style="stroke:#000000;stroke-width:1.0;" x1="0" x2="1101.5" y1="381.7305" y2="381.7305"/><rect fill="#EEEEEE" height="23.1328" style="stroke:#000000;stroke-width:2.0;" width="231" x="435.25" y="368.1641"/><text fill="#000000" font-family="sans-serif" font-size="13" font-weight="bold" lengthAdjust="spacing" textLength="212" x="441.25" y="384.231">&#1057;&#1086;&#1079;&#1076;&#1072;&#1085;&#1080;&#1077; &#1080;&#1075;&#1088;&#1086;&#1074;&#1086;&#1081; &#1082;&#1086;&#1084;&#1085;&#1072;&#1090;&#1099;</text><polygon fill="#181818" points="291,418.4297,301,422.4297,291,426.4297,295,422.4297" style="stroke:#181818;stroke-width:1.0;"/><line style="stroke:#181818;stroke-width:1.0;" x1="45" x2="297" y1="422.4297" y2="422.4297"/><text fill="#000000" font-family="sans-serif" font-size="13" lengthAdjust="spacing" textLength="187" x="52" y="417.3638">&#1089;&#1086;&#1079;&#1076;&#1072;&#1085;&#1080;&#1077; &#1080;&#1075;&#1088;&#1086;&#1074;&#1086;&#1081; &#1082;&#1086;&#1084;&#1085;&#1072;&#1090;&#1099;</text><polygon fill="#181818" points="355.5,432.4297,365.5,436.4297,355.5,440.4297,359.5,436.4297" style="stroke:#181818;stroke-width:1.0;"/><line style="stroke:#181818;stroke-width:1.0;" x1="303" x2="361.5" y1="436.4297" y2="436.4297"/><rect fill="none" height="39.1016" style="stroke:#000000;stroke-width:1.5;" width="549" x="2" y="444.4297"/><path d="M2,444.4297 L68,444.4297 L68,451.4297 L58,461.4297 L2,461.4297 L2,444.4297 " fill="#EEEEEE" style="stroke:#000000;stroke-width:2.0;"/><text fill="#000000" font-family="sans-serif" font-size="13" font-weight="bold" lengthAdjust="spacing" textLength="21" x="15" y="458.4966">ref</text><text fill="#000000" font-family="sans-serif" font-size="12" lengthAdjust="spacing" textLength="156" x="198.5" y="476.5684">&#1089;&#1094;&#1077;&#1085;&#1072;&#1088;&#1080;&#1081; &#1072;&#1074;&#1090;&#1086;&#1088;&#1080;&#1079;&#1072;&#1094;&#1080;&#1080;</text><polygon fill="#181818" points="378.5,505.6641,368.5,509.6641,378.5,513.6641,374.5,509.6641" style="stroke:#181818;stroke-width:1.0;"/><polygon fill="#181818" points="668.5,505.6641,678.5,509.6641,668.5,513.6641,672.5,509.6641" style="stroke:#181818;stroke-width:1.0;"/><line style="stroke:#181818;stroke-width:1.0;" x1="372.5" x2="674.5" y1="509.6641" y2="509.6641"/><text fill="#000000" font-family="sans-serif" font-size="13" lengthAdjust="spacing" textLength="187" x="384.5" y="504.5981">&#1089;&#1086;&#1079;&#1076;&#1072;&#1085;&#1080;&#1077; &#1080;&#1075;&#1088;&#1086;&#1074;&#1086;&#1081; &#1082;&#1086;&#1084;&#1085;&#1072;&#1090;&#1099;</text><polygon fill="#181818" points="378.5,534.7969,368.5,538.7969,378.5,542.7969,374.5,538.7969" style="stroke:#181818;stroke-width:1.0;"/><polygon fill="#181818" points="961,534.7969,971,538.7969,961,542.7969,965,538.7969" style="stroke:#181818;stroke-width:1.0;"/><line style="stroke:#181818;stroke-width:1.0;" x1="372.5" x2="967" y1="538.7969" y2="538.7969"/><text fill="#000000" font-family="sans-serif" font-size="13" lengthAdjust="spacing" textLength="196" x="384.5" y="533.731">&#1087;&#1086;&#1083;&#1091;&#1095;&#1077;&#1085;&#1080;&#1077; &#1086;&#1073;&#1098;&#1077;&#1082;&#1090;&#1086;&#1074; &#1080;&#1079; &#1082;&#1085;&#1080;&#1075;</text><polygon fill="#181818" points="378.5,563.9297,368.5,567.9297,378.5,571.9297,374.5,567.9297" style="stroke:#181818;stroke-width:1.0;"/><polygon fill="#181818" points="824,563.9297,834,567.9297,824,571.9297,828,567.9297" style="stroke:#181818;stroke-width:1.0;"/><line style="stroke:#181818;stroke-width:1.0;" x1="372.5" x2="830" y1="567.9297" y2="567.9297"/><text fill="#000000" font-family="sans-serif" font-size="13" lengthAdjust="spacing" textLength="320" x="384.5" y="562.8638">&#1089;&#1086;&#1079;&#1076;&#1072;&#1085;&#1080;&#1077; &#1101;&#1082;&#1079;&#1077;&#1084;&#1087;&#1083;&#1103;&#1088;&#1086;&#1074; &#1086;&#1073;&#1098;&#1077;&#1082;&#1090;&#1086;&#1074; &#1076;&#1083;&#1103; &#1082;&#1086;&#1084;&#1085;&#1072;&#1090;&#1099;</text><polygon fill="#181818" points="314,577.9297,304,581.9297,314,585.9297,310,581.9297" style="stroke:#181818;stroke-width:1.0;"/><line style="stroke:#181818;stroke-width:1.0;" x1="308" x2="366.5" y1="581.9297" y2="581.9297"/><polygon fill="#181818" points="56,607.0625,46,611.0625,56,615.0625,52,611.0625" style="stroke:#181818;stroke-width:1.0;"/><line style="stroke:#181818;stroke-width:1.0;" x1="50" x2="302" y1="611.0625" y2="611.0625"/><text fill="#000000" font-family="sans-serif" font-size="13" lengthAdjust="spacing" textLength="209" x="62" y="605.9966">&#1087;&#1088;&#1080;&#1079;&#1085;&#1072;&#1082; &#1091;&#1089;&#1087;&#1077;&#1096;&#1085;&#1086;&#1089;&#1090;&#1080; &#1086;&#1087;&#1077;&#1088;&#1072;&#1094;&#1080;&#1080;</text><rect fill="#EEEEEE" height="3" style="stroke:#EEEEEE;stroke-width:1.0;" width="1101.5" x="0" y="639.6289"/><line style="stroke:#000000;stroke-width:1.0;" x1="0" x2="1101.5" y1="639.6289" y2="639.6289"/><line style="stroke:#000000;stroke-width:1.0;" x1="0" x2="1101.5" y1="642.6289" y2="642.6289"/><rect fill="#EEEEEE" height="23.1328" style="stroke:#000000;stroke-width:2.0;" width="240" x="430.75" y="629.0625"/><text fill="#000000" font-family="sans-serif" font-size="13" font-weight="bold" lengthAdjust="spacing" textLength="221" x="436.75" y="645.1294">&#1055;&#1086;&#1083;&#1091;&#1095;&#1077;&#1085;&#1080;&#1077; &#1080;&#1075;&#1088;&#1086;&#1074;&#1086;&#1081; &#1082;&#1086;&#1084;&#1085;&#1072;&#1090;&#1099;</text><polygon fill="#181818" points="291,679.3281,301,683.3281,291,687.3281,295,683.3281" style="stroke:#181818;stroke-width:1.0;"/><line style="stroke:#181818;stroke-width:1.0;" x1="45" x2="297" y1="683.3281" y2="683.3281"/><text fill="#000000" font-family="sans-serif" font-size="13" lengthAdjust="spacing" textLength="194" x="52" y="678.2622">&#1087;&#1086;&#1083;&#1091;&#1095;&#1077;&#1085;&#1080;&#1077; &#1080;&#1075;&#1088;&#1086;&#1074;&#1086;&#1081; &#1082;&#1086;&#1084;&#1085;&#1072;&#1090;&#1099;</text><polygon fill="#181818" points="355.5,693.3281,365.5,697.3281,355.5,701.3281,359.5,697.3281" style="stroke:#181818;stroke-width:1.0;"/><line style="stroke:#181818;stroke-width:1.0;" x1="303" x2="361.5" y1="697.3281" y2="697.3281"/><rect fill="none" height="39.1016" style="stroke:#000000;stroke-width:1.5;" width="549" x="2" y="705.3281"/><path d="M2,705.3281 L68,705.3281 L68,712.3281 L58,722.3281 L2,722.3281 L2,705.3281 " fill="#EEEEEE" style="stroke:#000000;stroke-width:2.0;"/><text fill="#000000" font-family="sans-serif" font-size="13" font-weight="bold" lengthAdjust="spacing" textLength="21" x="15" y="719.395">ref</text><text fill="#000000" font-family="sans-serif" font-size="12" lengthAdjust="spacing" textLength="156" x="198.5" y="737.4668">&#1089;&#1094;&#1077;&#1085;&#1072;&#1088;&#1080;&#1081; &#1072;&#1074;&#1090;&#1086;&#1088;&#1080;&#1079;&#1072;&#1094;&#1080;&#1080;</text><polygon fill="#181818" points="378.5,766.5625,368.5,770.5625,378.5,774.5625,374.5,770.5625" style="stroke:#181818;stroke-width:1.0;"/><polygon fill="#181818" points="668.5,766.5625,678.5,770.5625,668.5,774.5625,672.5,770.5625" style="stroke:#181818;stroke-width:1.0;"/><line style="stroke:#181818;stroke-width:1.0;" x1="372.5" x2="674.5" y1="770.5625" y2="770.5625"/><text fill="#000000" font-family="sans-serif" font-size="13" lengthAdjust="spacing" textLength="194" x="384.5" y="765.4966">&#1087;&#1086;&#1083;&#1091;&#1095;&#1077;&#1085;&#1080;&#1077; &#1080;&#1075;&#1088;&#1086;&#1074;&#1086;&#1081; &#1082;&#1086;&#1084;&#1085;&#1072;&#1090;&#1099;</text><polygon fill="#181818" points="314,780.5625,304,784.5625,314,788.5625,310,784.5625" style="stroke:#181818;stroke-width:1.0;"/><line style="stroke:#181818;stroke-width:1.0;" x1="308" x2="366.5" y1="784.5625" y2="784.5625"/><polygon fill="#181818" points="56,809.6953,46,813.6953,56,817.6953,52,813.6953" style="stroke:#181818;stroke-width:1.0;"/><line style="stroke:#181818;stroke-width:1.0;" x1="50" x2="302" y1="813.6953" y2="813.6953"/><text fill="#000000" font-family="sans-serif" font-size="13" lengthAdjust="spacing" textLength="117" x="62" y="808.6294">&#1080;&#1075;&#1088;&#1086;&#1074;&#1072;&#1103; &#1082;&#1086;&#1084;&#1085;&#1072;&#1090;&#1072;</text><rect fill="#EEEEEE" height="3" style="stroke:#EEEEEE;stroke-width:1.0;" width="1101.5" x="0" y="842.2617"/><line style="stroke:#000000;stroke-width:1.0;" x1="0" x2="1101.5" y1="842.2617" y2="842.2617"/><line style="stroke:#000000;stroke-width:1.0;" x1="0" x2="1101.5" y1="845.2617" y2="845.2617"/><rect fill="#EEEEEE" height="23.1328" style="stroke:#000000;stroke-width:2.0;" width="285" x="408.25" y="831.6953"/><text fill="#000000" font-family="sans-serif" font-size="13" font-weight="bold" lengthAdjust="spacing" textLength="266" x="414.25" y="847.7622">&#1056;&#1077;&#1076;&#1072;&#1082;&#1090;&#1080;&#1088;&#1086;&#1074;&#1072;&#1085;&#1080;&#1077; &#1080;&#1075;&#1088;&#1086;&#1074;&#1086;&#1081; &#1082;&#1086;&#1084;&#1085;&#1072;&#1090;&#1099;</text><polygon fill="#181818" points="291,881.9609,301,885.9609,291,889.9609,295,885.9609" style="stroke:#181818;stroke-width:1.0;"/><line style="stroke:#181818;stroke-width:1.0;" x1="45" x2="297" y1="885.9609" y2="885.9609"/><text fill="#000000" font-family="sans-serif" font-size="13" lengthAdjust="spacing" textLength="195" x="52" y="880.895">&#1080;&#1079;&#1084;&#1077;&#1085;&#1077;&#1085;&#1080;&#1077; &#1080;&#1075;&#1088;&#1086;&#1074;&#1086;&#1081; &#1082;&#1086;&#1084;&#1085;&#1072;&#1090;&#1099;</text><polygon fill="#181818" points="355.5,895.9609,365.5,899.9609,355.5,903.9609,359.5,899.9609" style="stroke:#181818;stroke-width:1.0;"/><line style="stroke:#181818;stroke-width:1.0;" x1="303" x2="361.5" y1="899.9609" y2="899.9609"/><rect fill="none" height="39.1016" style="stroke:#000000;stroke-width:1.5;" width="549" x="2" y="907.9609"/><path d="M2,907.9609 L68,907.9609 L68,914.9609 L58,924.9609 L2,924.9609 L2,907.9609 " fill="#EEEEEE" style="stroke:#000000;stroke-width:2.0;"/><text fill="#000000" font-family="sans-serif" font-size="13" font-weight="bold" lengthAdjust="spacing" textLength="21" x="15" y="922.0278">ref</text><text fill="#000000" font-family="sans-serif" font-size="12" lengthAdjust="spacing" textLength="156" x="198.5" y="940.0996">&#1089;&#1094;&#1077;&#1085;&#1072;&#1088;&#1080;&#1081; &#1072;&#1074;&#1090;&#1086;&#1088;&#1080;&#1079;&#1072;&#1094;&#1080;&#1080;</text><polygon fill="#181818" points="378.5,969.1953,368.5,973.1953,378.5,977.1953,374.5,973.1953" style="stroke:#181818;stroke-width:1.0;"/><polygon fill="#181818" points="668.5,969.1953,678.5,973.1953,668.5,977.1953,672.5,973.1953" style="stroke:#181818;stroke-width:1.0;"/><line style="stroke:#181818;stroke-width:1.0;" x1="372.5" x2="674.5" y1="973.1953" y2="973.1953"/><text fill="#000000" font-family="sans-serif" font-size="13" lengthAdjust="spacing" textLength="195" x="384.5" y="968.1294">&#1080;&#1079;&#1084;&#1077;&#1085;&#1077;&#1085;&#1080;&#1077; &#1080;&#1075;&#1088;&#1086;&#1074;&#1086;&#1081; &#1082;&#1086;&#1084;&#1085;&#1072;&#1090;&#1099;</text><polygon fill="#181818" points="314,983.1953,304,987.1953,314,991.1953,310,987.1953" style="stroke:#181818;stroke-width:1.0;"/><line style="stroke:#181818;stroke-width:1.0;" x1="308" x2="366.5" y1="987.1953" y2="987.1953"/><polygon fill="#181818" points="56,1012.3281,46,1016.3281,56,1020.3281,52,1016.3281" style="stroke:#181818;stroke-width:1.0;"/><line style="stroke:#181818;stroke-width:1.0;" x1="50" x2="302" y1="1016.3281" y2="1016.3281"/><text fill="#000000" font-family="sans-serif" font-size="13" lengthAdjust="spacing" textLength="209" x="62" y="1011.2622">&#1087;&#1088;&#1080;&#1079;&#1085;&#1072;&#1082; &#1091;&#1089;&#1087;&#1077;&#1096;&#1085;&#1086;&#1089;&#1090;&#1080; &#1086;&#1087;&#1077;&#1088;&#1072;&#1094;&#1080;&#1080;</text><rect fill="#EEEEEE" height="3" style="stroke:#EEEEEE;stroke-width:1.0;" width="1101.5" x="0" y="1044.8945"/><line style="stroke:#000000;stroke-width:1.0;" x1="0" x2="1101.5" y1="1044.8945" y2="1044.8945"/><line style="stroke:#000000;stroke-width:1.0;" x1="0" x2="1101.5" y1="1047.8945" y2="1047.8945"/><rect fill="#EEEEEE" height="23.1328" style="stroke:#000000;stroke-width:2.0;" width="413" x="344.25" y="1034.3281"/><text fill="#000000" font-family="sans-serif" font-size="13" font-weight="bold" lengthAdjust="spacing" textLength="394" x="350.25" y="1050.395">&#1055;&#1088;&#1080;&#1085;&#1103;&#1090;&#1080;&#1077; &#1079;&#1072;&#1103;&#1074;&#1082;&#1080; &#1085;&#1072; &#1074;&#1089;&#1090;&#1091;&#1087;&#1083;&#1077;&#1085;&#1080;&#1077; &#1074; &#1080;&#1075;&#1088;&#1086;&#1074;&#1091;&#1102; &#1082;&#1086;&#1084;&#1085;&#1072;&#1090;&#1091;</text><polygon fill="#181818" points="291,1084.5938,301,1088.5938,291,1092.5938,295,1088.5938" style="stroke:#181818;stroke-width:1.0;"/><line style="stroke:#181818;stroke-width:1.0;" x1="45" x2="297" y1="1088.5938" y2="1088.5938"/><text fill="#000000" font-family="sans-serif" font-size="13" lengthAdjust="spacing" textLength="116" x="52" y="1083.5278">&#1087;&#1088;&#1080;&#1085;&#1103;&#1090;&#1080;&#1077; &#1079;&#1072;&#1103;&#1074;&#1082;&#1080;</text><polygon fill="#181818" points="355.5,1098.5938,365.5,1102.5938,355.5,1106.5938,359.5,1102.5938" style="stroke:#181818;stroke-width:1.0;"/><line style="stroke:#181818;stroke-width:1.0;" x1="303" x2="361.5" y1="1102.5938" y2="1102.5938"/><rect fill="none" height="39.1016" style="stroke:#000000;stroke-width:1.5;" width="549" x="2" y="1110.5938"/><path d="M2,1110.5938 L68,1110.5938 L68,1117.5938 L58,1127.5938 L2,1127.5938 L2,1110.5938 " fill="#EEEEEE" style="stroke:#000000;stroke-width:2.0;"/><text fill="#000000" font-family="sans-serif" font-size="13" font-weight="bold" lengthAdjust="spacing" textLength="21" x="15" y="1124.6606">ref</text><text fill="#000000" font-family="sans-serif" font-size="12" lengthAdjust="spacing" textLength="156" x="198.5" y="1142.7324">&#1089;&#1094;&#1077;&#1085;&#1072;&#1088;&#1080;&#1081; &#1072;&#1074;&#1090;&#1086;&#1088;&#1080;&#1079;&#1072;&#1094;&#1080;&#1080;</text><polygon fill="#181818" points="378.5,1186.9609,368.5,1190.9609,378.5,1194.9609,374.5,1190.9609" style="stroke:#181818;stroke-width:1.0;"/><polygon fill="#181818" points="668.5,1186.9609,678.5,1190.9609,668.5,1194.9609,672.5,1190.9609" style="stroke:#181818;stroke-width:1.0;"/><line style="stroke:#181818;stroke-width:1.0;" x1="372.5" x2="674.5" y1="1190.9609" y2="1190.9609"/><text fill="#000000" font-family="sans-serif" font-size="13" lengthAdjust="spacing" textLength="170" x="384.5" y="1170.7622">&#1079;&#1072;&#1084;&#1077;&#1085;&#1072; &#1089;&#1090;&#1072;&#1090;&#1091;&#1089;&#1072; &#1080;&#1075;&#1088;&#1086;&#1082;&#1072; &#1074;</text><text fill="#000000" font-family="sans-serif" font-size="13" lengthAdjust="spacing" textLength="234" x="384.5" y="1185.895">&#1082;&#1072;&#1084;&#1087;&#1072;&#1085;&#1080;&#1080; &#1089; "&#1079;&#1072;&#1103;&#1074;&#1082;&#1072;" &#1085;&#1072; "&#1091;&#1095;&#1072;&#1089;&#1090;&#1085;&#1080;&#1082;"</text><polygon fill="#181818" points="314,1200.9609,304,1204.9609,314,1208.9609,310,1204.9609" style="stroke:#181818;stroke-width:1.0;"/><line style="stroke:#181818;stroke-width:1.0;" x1="308" x2="366.5" y1="1204.9609" y2="1204.9609"/><polygon fill="#181818" points="56,1230.0938,46,1234.0938,56,1238.0938,52,1234.0938" style="stroke:#181818;stroke-width:1.0;"/><line style="stroke:#181818;stroke-width:1.0;" x1="50" x2="302" y1="1234.0938" y2="1234.0938"/><text fill="#000000" font-family="sans-serif" font-size="13" lengthAdjust="spacing" textLength="209" x="62" y="1229.0278">&#1087;&#1088;&#1080;&#1079;&#1085;&#1072;&#1082; &#1091;&#1089;&#1087;&#1077;&#1096;&#1085;&#1086;&#1089;&#1090;&#1080; &#1086;&#1087;&#1077;&#1088;&#1072;&#1094;&#1080;&#1080;</text><rect fill="#EEEEEE" height="3" style="stroke:#EEEEEE;stroke-width:1.0;" width="1101.5" x="0" y="1262.6602"/><line style="stroke:#000000;stroke-width:1.0;" x1="0" x2="1101.5" y1="1262.6602" y2="1262.6602"/><line style="stroke:#000000;stroke-width:1.0;" x1="0" x2="1101.5" y1="1265.6602" y2="1265.6602"/><rect fill="#EEEEEE" height="23.1328" style="stroke:#000000;stroke-width:2.0;" width="274" x="413.75" y="1252.0938"/><text fill="#000000" font-family="sans-serif" font-size="13" font-weight="bold" lengthAdjust="spacing" textLength="255" x="419.75" y="1268.1606">&#1040;&#1088;&#1093;&#1080;&#1074;&#1080;&#1088;&#1086;&#1074;&#1072;&#1085;&#1080;&#1077; &#1080;&#1075;&#1088;&#1086;&#1074;&#1086;&#1081; &#1082;&#1086;&#1084;&#1085;&#1072;&#1090;&#1099;</text><polygon fill="#181818" points="291,1302.3594,301,1306.3594,291,1310.3594,295,1306.3594" style="stroke:#181818;stroke-width:1.0;"/><line style="stroke:#181818;stroke-width:1.0;" x1="45" x2="297" y1="1306.3594" y2="1306.3594"/><text fill="#000000" font-family="sans-serif" font-size="13" lengthAdjust="spacing" textLength="173" x="52" y="1301.2935">&#1079;&#1072;&#1087;&#1088;&#1086;&#1089; &#1085;&#1072; &#1072;&#1088;&#1093;&#1080;&#1074;&#1080;&#1088;&#1086;&#1074;&#1072;&#1085;&#1080;&#1077;</text><polygon fill="#181818" points="355.5,1316.3594,365.5,1320.3594,355.5,1324.3594,359.5,1320.3594" style="stroke:#181818;stroke-width:1.0;"/><line style="stroke:#181818;stroke-width:1.0;" x1="303" x2="361.5" y1="1320.3594" y2="1320.3594"/><rect fill="none" height="39.1016" style="stroke:#000000;stroke-width:1.5;" width="549" x="2" y="1328.3594"/><path d="M2,1328.3594 L68,1328.3594 L68,1335.3594 L58,1345.3594 L2,1345.3594 L2,1328.3594 " fill="#EEEEEE" style="stroke:#000000;stroke-width:2.0;"/><text fill="#000000" font-family="sans-serif" font-size="13" font-weight="bold" lengthAdjust="spacing" textLength="21" x="15" y="1342.4263">ref</text><text fill="#000000" font-family="sans-serif" font-size="12" lengthAdjust="spacing" textLength="156" x="198.5" y="1360.498">&#1089;&#1094;&#1077;&#1085;&#1072;&#1088;&#1080;&#1081; &#1072;&#1074;&#1090;&#1086;&#1088;&#1080;&#1079;&#1072;&#1094;&#1080;&#1080;</text><polygon fill="#181818" points="378.5,1389.5938,368.5,1393.5938,378.5,1397.5938,374.5,1393.5938" style="stroke:#181818;stroke-width:1.0;"/><polygon fill="#181818" points="668.5,1389.5938,678.5,1393.5938,668.5,1397.5938,672.5,1393.5938" style="stroke:#181818;stroke-width:1.0;"/><line style="stroke:#181818;stroke-width:1.0;" x1="372.5" x2="674.5" y1="1393.5938" y2="1393.5938"/><text fill="#000000" font-family="sans-serif" font-size="13" lengthAdjust="spacing" textLength="289" x="384.5" y="1388.5278">&#1087;&#1086;&#1083;&#1091;&#1095;&#1077;&#1085;&#1080;&#1077; &#1082;&#1072;&#1084;&#1087;&#1072;&#1085;&#1080;&#1080; &#1080; &#1089;&#1089;&#1099;&#1083;&#1086;&#1082; &#1085;&#1072; &#1086;&#1073;&#1098;&#1077;&#1082;&#1090;&#1099;</text><polygon fill="#181818" points="378.5,1418.7266,368.5,1422.7266,378.5,1426.7266,374.5,1422.7266" style="stroke:#181818;stroke-width:1.0;"/><polygon fill="#181818" points="824,1418.7266,834,1422.7266,824,1426.7266,828,1422.7266" style="stroke:#181818;stroke-width:1.0;"/><line style="stroke:#181818;stroke-width:1.0;" x1="372.5" x2="830" y1="1422.7266" y2="1422.7266"/><text fill="#000000" font-family="sans-serif" font-size="13" lengthAdjust="spacing" textLength="314" x="384.5" y="1417.6606">&#1087;&#1086;&#1083;&#1091;&#1095;&#1077;&#1085;&#1080;&#1077; &#1101;&#1082;&#1079;&#1077;&#1084;&#1087;&#1083;&#1103;&#1088;&#1086;&#1074; &#1086;&#1073;&#1098;&#1077;&#1082;&#1090;&#1086;&#1074; &#1074; &#1082;&#1072;&#1084;&#1087;&#1072;&#1085;&#1080;&#1080;</text><polygon fill="#181818" points="378.5,1447.8594,368.5,1451.8594,378.5,1455.8594,374.5,1451.8594" style="stroke:#181818;stroke-width:1.0;"/><polygon fill="#181818" points="1044,1447.8594,1054,1451.8594,1044,1455.8594,1048,1451.8594" style="stroke:#181818;stroke-width:1.0;"/><line style="stroke:#181818;stroke-width:1.0;" x1="372.5" x2="1050" y1="1451.8594" y2="1451.8594"/><text fill="#000000" font-family="sans-serif" font-size="13" lengthAdjust="spacing" textLength="182" x="384.5" y="1446.7935">&#1089;&#1086;&#1079;&#1076;&#1072;&#1085;&#1080;&#1077; &#1072;&#1088;&#1093;&#1080;&#1074;&#1085;&#1086;&#1081; &#1074;&#1077;&#1088;&#1089;&#1080;&#1080;</text><polygon fill="#181818" points="378.5,1476.9922,368.5,1480.9922,378.5,1484.9922,374.5,1480.9922" style="stroke:#181818;stroke-width:1.0;"/><polygon fill="#181818" points="824,1476.9922,834,1480.9922,824,1484.9922,828,1480.9922" style="stroke:#181818;stroke-width:1.0;"/><line style="stroke:#181818;stroke-width:1.0;" x1="372.5" x2="830" y1="1480.9922" y2="1480.9922"/><text fill="#000000" font-family="sans-serif" font-size="13" lengthAdjust="spacing" textLength="308" x="384.5" y="1475.9263">&#1091;&#1076;&#1072;&#1083;&#1077;&#1085;&#1080;&#1077; &#1101;&#1082;&#1079;&#1077;&#1084;&#1087;&#1083;&#1103;&#1088;&#1086;&#1074; &#1086;&#1073;&#1098;&#1077;&#1082;&#1090;&#1086;&#1074; &#1074; &#1082;&#1072;&#1084;&#1087;&#1072;&#1085;&#1080;&#1080;</text><polygon fill="#181818" points="378.5,1506.125,368.5,1510.125,378.5,1514.125,374.5,1510.125" style="stroke:#181818;stroke-width:1.0;"/><polygon fill="#181818" points="668.5,1506.125,678.5,1510.125,668.5,1514.125,672.5,1510.125" style="stroke:#181818;stroke-width:1.0;"/><line style="stroke:#181818;stroke-width:1.0;" x1="372.5" x2="674.5" y1="1510.125" y2="1510.125"/><text fill="#000000" font-family="sans-serif" font-size="13" lengthAdjust="spacing" textLength="134" x="384.5" y="1505.0591">&#1091;&#1076;&#1072;&#1083;&#1077;&#1085;&#1080;&#1077; &#1082;&#1072;&#1084;&#1087;&#1072;&#1085;&#1080;&#1080;</text><polygon fill="#181818" points="314,1520.125,304,1524.125,314,1528.125,310,1524.125" style="stroke:#181818;stroke-width:1.0;"/><line style="stroke:#181818;stroke-width:1.0;" x1="308" x2="366.5" y1="1524.125" y2="1524.125"/><polygon fill="#181818" points="56,1549.2578,46,1553.2578,56,1557.2578,52,1553.2578" style="stroke:#181818;stroke-width:1.0;"/><line style="stroke:#181818;stroke-width:1.0;" x1="50" x2="302" y1="1553.2578" y2="1553.2578"/><text fill="#000000" font-family="sans-serif" font-size="13" lengthAdjust="spacing" textLength="209" x="62" y="1548.1919">&#1087;&#1088;&#1080;&#1079;&#1085;&#1072;&#1082; &#1091;&#1089;&#1087;&#1077;&#1096;&#1085;&#1086;&#1089;&#1090;&#1080; &#1086;&#1087;&#1077;&#1088;&#1072;&#1094;&#1080;&#1080;</text><rect fill="#EEEEEE" height="3" style="stroke:#EEEEEE;stroke-width:1.0;" width="1101.5" x="0" y="1581.8242"/><line style="stroke:#000000;stroke-width:1.0;" x1="0" x2="1101.5" y1="1581.8242" y2="1581.8242"/><line style="stroke:#000000;stroke-width:1.0;" x1="0" x2="1101.5" y1="1584.8242" y2="1584.8242"/><rect fill="#EEEEEE" height="23.1328" style="stroke:#000000;stroke-width:2.0;" width="356" x="372.75" y="1571.2578"/><text fill="#000000" font-family="sans-serif" font-size="13" font-weight="bold" lengthAdjust="spacing" textLength="342" x="378.75" y="1587.3247">&#1042;&#1086;&#1089;&#1089;&#1090;&#1072;&#1085;&#1086;&#1074;&#1083;&#1077;&#1085;&#1080;&#1077; &#1080;&#1075;&#1088;&#1086;&#1074;&#1086;&#1081; &#1082;&#1086;&#1084;&#1085;&#1072;&#1090;&#1099; &#1080;&#1079; &#1072;&#1088;&#1093;&#1080;&#1074;&#1072;</text><polygon fill="#181818" points="291,1621.5234,301,1625.5234,291,1629.5234,295,1625.5234" style="stroke:#181818;stroke-width:1.0;"/><line style="stroke:#181818;stroke-width:1.0;" x1="45" x2="297" y1="1625.5234" y2="1625.5234"/><text fill="#000000" font-family="sans-serif" font-size="13" lengthAdjust="spacing" textLength="234" x="52" y="1620.4575">&#1074;&#1086;&#1089;&#1089;&#1090;&#1072;&#1085;&#1086;&#1074;&#1083;&#1077;&#1085;&#1080;&#1077; &#1080;&#1075;&#1088;&#1086;&#1074;&#1086;&#1081; &#1082;&#1086;&#1084;&#1085;&#1072;&#1090;&#1099;</text><polygon fill="#181818" points="355.5,1635.5234,365.5,1639.5234,355.5,1643.5234,359.5,1639.5234" style="stroke:#181818;stroke-width:1.0;"/><line style="stroke:#181818;stroke-width:1.0;" x1="303" x2="361.5" y1="1639.5234" y2="1639.5234"/><rect fill="none" height="39.1016" style="stroke:#000000;stroke-width:1.5;" width="549" x="2" y="1647.5234"/><path d="M2,1647.5234 L68,1647.5234 L68,1654.5234 L58,1664.5234 L2,1664.5234 L2,1647.5234 " fill="#EEEEEE" style="stroke:#000000;stroke-width:2.0;"/><text fill="#000000" font-family="sans-serif" font-size="13" font-weight="bold" lengthAdjust="spacing" textLength="21" x="15" y="1661.5903">ref</text><text fill="#000000" font-family="sans-serif" font-size="12" lengthAdjust="spacing" textLength="156" x="198.5" y="1679.6621">&#1089;&#1094;&#1077;&#1085;&#1072;&#1088;&#1080;&#1081; &#1072;&#1074;&#1090;&#1086;&#1088;&#1080;&#1079;&#1072;&#1094;&#1080;&#1080;</text><polygon fill="#181818" points="378.5,1708.7578,368.5,1712.7578,378.5,1716.7578,374.5,1712.7578" style="stroke:#181818;stroke-width:1.0;"/><polygon fill="#181818" points="1044,1708.7578,1054,1712.7578,1044,1716.7578,1048,1712.7578" style="stroke:#181818;stroke-width:1.0;"/><line style="stroke:#181818;stroke-width:1.0;" x1="372.5" x2="1050" y1="1712.7578" y2="1712.7578"/><text fill="#000000" font-family="sans-serif" font-size="13" lengthAdjust="spacing" textLength="189" x="384.5" y="1707.6919">&#1087;&#1086;&#1083;&#1091;&#1095;&#1077;&#1085;&#1080;&#1077; &#1072;&#1088;&#1093;&#1080;&#1074;&#1085;&#1086;&#1081; &#1074;&#1077;&#1088;&#1089;&#1080;&#1080;</text><polygon fill="#181818" points="378.5,1737.8906,368.5,1741.8906,378.5,1745.8906,374.5,1741.8906" style="stroke:#181818;stroke-width:1.0;"/><polygon fill="#181818" points="668.5,1737.8906,678.5,1741.8906,668.5,1745.8906,672.5,1741.8906" style="stroke:#181818;stroke-width:1.0;"/><line style="stroke:#181818;stroke-width:1.0;" x1="372.5" x2="674.5" y1="1741.8906" y2="1741.8906"/><text fill="#000000" font-family="sans-serif" font-size="13" lengthAdjust="spacing" textLength="187" x="384.5" y="1736.8247">&#1089;&#1086;&#1079;&#1076;&#1072;&#1085;&#1080;&#1077; &#1080;&#1075;&#1088;&#1086;&#1074;&#1086;&#1081; &#1082;&#1086;&#1084;&#1085;&#1072;&#1090;&#1099;</text><polygon fill="#181818" points="378.5,1767.0234,368.5,1771.0234,378.5,1775.0234,374.5,1771.0234" style="stroke:#181818;stroke-width:1.0;"/><polygon fill="#181818" points="824,1767.0234,834,1771.0234,824,1775.0234,828,1771.0234" style="stroke:#181818;stroke-width:1.0;"/><line style="stroke:#181818;stroke-width:1.0;" x1="372.5" x2="830" y1="1771.0234" y2="1771.0234"/><text fill="#000000" font-family="sans-serif" font-size="13" lengthAdjust="spacing" textLength="320" x="384.5" y="1765.9575">&#1089;&#1086;&#1079;&#1076;&#1072;&#1085;&#1080;&#1077; &#1101;&#1082;&#1079;&#1077;&#1084;&#1087;&#1083;&#1103;&#1088;&#1086;&#1074; &#1086;&#1073;&#1098;&#1077;&#1082;&#1090;&#1086;&#1074; &#1076;&#1083;&#1103; &#1082;&#1086;&#1084;&#1085;&#1072;&#1090;&#1099;</text><polygon fill="#181818" points="314,1781.0234,304,1785.0234,314,1789.0234,310,1785.0234" style="stroke:#181818;stroke-width:1.0;"/><line style="stroke:#181818;stroke-width:1.0;" x1="308" x2="366.5" y1="1785.0234" y2="1785.0234"/><polygon fill="#181818" points="56,1810.1563,46,1814.1563,56,1818.1563,52,1814.1563" style="stroke:#181818;stroke-width:1.0;"/><line style="stroke:#181818;stroke-width:1.0;" x1="50" x2="302" y1="1814.1563" y2="1814.1563"/><text fill="#000000" font-family="sans-serif" font-size="13" lengthAdjust="spacing" textLength="209" x="62" y="1809.0903">&#1087;&#1088;&#1080;&#1079;&#1085;&#1072;&#1082; &#1091;&#1089;&#1087;&#1077;&#1096;&#1085;&#1086;&#1089;&#1090;&#1080; &#1086;&#1087;&#1077;&#1088;&#1072;&#1094;&#1080;&#1080;</text><rect fill="#EEEEEE" height="3" style="stroke:#EEEEEE;stroke-width:1.0;" width="1101.5" x="0" y="1842.7227"/><line style="stroke:#000000;stroke-width:1.0;" x1="0" x2="1101.5" y1="1842.7227" y2="1842.7227"/><line style="stroke:#000000;stroke-width:1.0;" x1="0" x2="1101.5" y1="1845.7227" y2="1845.7227"/><rect fill="#EEEEEE" height="23.1328" style="stroke:#000000;stroke-width:2.0;" width="231" x="435.25" y="1832.1563"/><text fill="#000000" font-family="sans-serif" font-size="13" font-weight="bold" lengthAdjust="spacing" textLength="212" x="441.25" y="1848.2231">&#1048;&#1079;&#1084;&#1077;&#1085;&#1077;&#1085;&#1080;&#1077; &#1089;&#1074;&#1086;&#1077;&#1075;&#1086; &#1087;&#1088;&#1086;&#1092;&#1080;&#1083;&#1103;</text><rect fill="none" height="39.1016" style="stroke:#000000;stroke-width:1.5;" width="394" x="2" y="1865.2891"/><path d="M2,1865.2891 L68,1865.2891 L68,1872.2891 L58,1882.2891 L2,1882.2891 L2,1865.2891 " fill="#EEEEEE" style="stroke:#000000;stroke-width:2.0;"/><text fill="#000000" font-family="sans-serif" font-size="13" font-weight="bold" lengthAdjust="spacing" textLength="21" x="15" y="1879.356">ref</text><text fill="#000000" font-family="sans-serif" font-size="12" lengthAdjust="spacing" textLength="200" x="99" y="1897.4277">&#1089;&#1094;&#1077;&#1085;&#1072;&#1088;&#1080;&#1081; &#1080;&#1079;&#1084;&#1077;&#1085;&#1077;&#1085;&#1080;&#1103; &#1087;&#1088;&#1086;&#1092;&#1080;&#1083;&#1103;</text><rect fill="#EEEEEE" height="3" style="stroke:#EEEEEE;stroke-width:1.0;" width="1101.5" x="0" y="1929.957"/><line style="stroke:#000000;stroke-width:1.0;" x1="0" x2="1101.5" y1="1929.957" y2="1929.957"/><line style="stroke:#000000;stroke-width:1.0;" x1="0" x2="1101.5" y1="1932.957" y2="1932.957"/><rect fill="#EEEEEE" height="23.1328" style="stroke:#000000;stroke-width:2.0;" width="92" x="504.75" y="1919.3906"/><text fill="#000000" font-family="sans-serif" font-size="13" font-weight="bold" lengthAdjust="spacing" textLength="73" x="510.75" y="1935.4575">&#1054;&#1073;&#1091;&#1095;&#1077;&#1085;&#1080;&#1077;</text><rect fill="none" height="39.1016" style="stroke:#000000;stroke-width:1.5;" width="394" x="2" y="1952.5234"/><path d="M2,1952.5234 L68,1952.5234 L68,1959.5234 L58,1969.5234 L2,1969.5234 L2,1952.5234 " fill="#EEEEEE" style="stroke:#000000;stroke-width:2.0;"/><text fill="#000000" font-family="sans-serif" font-size="13" font-weight="bold" lengthAdjust="spacing" textLength="21" x="15" y="1966.5903">ref</text><text fill="#000000" font-family="sans-serif" font-size="12" lengthAdjust="spacing" textLength="128" x="135" y="1984.6621">&#1089;&#1094;&#1077;&#1085;&#1072;&#1088;&#1080;&#1081; &#1086;&#1073;&#1091;&#1095;&#1077;&#1085;&#1080;&#1103;</text><rect fill="#EEEEEE" height="3" style="stroke:#EEEEEE;stroke-width:1.0;" width="1101.5" x="0" y="2017.1914"/><line style="stroke:#000000;stroke-width:1.0;" x1="0" x2="1101.5" y1="2017.1914" y2="2017.1914"/><line style="stroke:#000000;stroke-width:1.0;" x1="0" x2="1101.5" y1="2020.1914" y2="2020.1914"/><rect fill="#EEEEEE" height="23.1328" style="stroke:#000000;stroke-width:2.0;" width="69" x="516.25" y="2006.625"/><text fill="#000000" font-family="sans-serif" font-size="13" font-weight="bold" lengthAdjust="spacing" textLength="50" x="522.25" y="2022.6919">&#1042;&#1099;&#1093;&#1086;&#1076;</text><rect fill="none" height="39.1016" style="stroke:#000000;stroke-width:1.5;" width="394" x="2" y="2039.7578"/><path d="M2,2039.7578 L68,2039.7578 L68,2046.7578 L58,2056.7578 L2,2056.7578 L2,2039.7578 " fill="#EEEEEE" style="stroke:#000000;stroke-width:2.0;"/><text fill="#000000" font-family="sans-serif" font-size="13" font-weight="bold" lengthAdjust="spacing" textLength="21" x="15" y="2053.8247">ref</text><text fill="#000000" font-family="sans-serif" font-size="12" lengthAdjust="spacing" textLength="265" x="66.5" y="2071.8965">&#1089;&#1094;&#1077;&#1085;&#1072;&#1088;&#1080;&#1081; &#1074;&#1099;&#1093;&#1086;&#1076;&#1072;, &#1088;&#1077;&#1076;&#1080;&#1088;&#1077;&#1082;&#1090; &#1085;&#1072; &#1075;&#1083;&#1072;&#1074;&#1085;&#1091;&#1102;</text><!--SRC=[rLV1RjD04BtxArRXclv0H7f0N3WZRboSr411n9KJsd9h6YY8GWiH4fmetBXXt4G9JkB-mkmVyMRis4wo3KrAIb6hMjsTUVDcvgrdRLSRhgSArAO1-TIXBfvTVL1GTbqzgpkULN5t5PtmhjxNBoZIUpGaNzsuMtDth2tRQsnMDxViMWCOtscWZwWdlW_jXhDZFv-o-44T-4TYKNKznzgm6tR5hZlO-q0V5PrH192trCCpu90n8VgL4hfzQyOf1FCXN7qQKJynzLptgS4qef_w3V1282E2ujz9zxwukvN7JhLHDmPZgrEnghZk4uE9h_VqInWX0J6plUgZpMq7bavj0qwxbbKkAsh3AAAEAfSjptcWt6t7amoBu-8LfKObfPlw09n73Cm9SeIMb6Q4ltrqfSz9m0ZqYmf6NNIoBqyagjXJINU7i1XXhHKp-8J5Csw8RgfxTvW8nrzRJ-AN5FgGjx2IZRLrQTuyriMaMKRs573vvT_UcBV5NcfjFLLEykGbXYfnV67z3LNh8PcuNrt5xM2Ag7V4y24UGucthmyDIUdc8W2hp_acCepbkZ2tr3zMOcbyW5hwbOGNX1dDWq6gummYbRo1XNu7-num-9mCz77Co03TuLqZotcT5ObnNU11eGBz9k9qzMiiG7aiSex5ItjfxKGB9xFfBgW6KyMkZnuMPlVdMcVk_bIho8-B-bNU7xvqjJ-sNRQydDvGo5_7yYxARfLI5iSH3jT-J8Hv7uD6o2xo2WyOGBVu36PyWnnbX3kQfDmoIdvEg2jkG4-6hxWgAO-GHj7yBArGShzVcvxKSC38pRXZsWfEGSwBBt1i61PMsRVtwRI_z5d9JzjaQ9y7_kzVGzFDa7xWvn3YHC-I178J8Z-lSiF6W7tXSJDxUyj2fBSkqrJDwZgAUnDmOs4t0P4VYIrn7_nTZkdOdqOtkwn6m6tPbxCdrGZoFEPAEBv9vAwx1aq7ow9VZS9pAZ69_68wkUpjxR-yUdsU6PrmvJoxT4gHIbva_6t2l9Ruo9cQpPpS16PCumlga6_P4e6YFCGOjwqFb_y-2yREv9_xFNOgNzmG5W_jtm00]--></g></svg>