<?xml version="1.0" encoding="us-ascii" standalone="no"?><svg xmlns="http://www.w3.org/2000/svg" xmlns:xlink="http://www.w3.org/1999/xlink" contentStyleType="text/css" height="1741px" preserveAspectRatio="none" style="width:757px;height:1741px;background:#FFFFFF;" version="1.1" viewBox="0 0 757 1741" width="757px" zoomAndPan="magnify"><defs/><g><rect fill="#FFFAFA" height="1729.625" style="stroke:#181818;stroke-width:0.5;" width="490.5" x="243.5" y="6"/><text fill="#000000" font-family="sans-serif" font-size="13" font-weight="bold" lengthAdjust="spacing" textLength="90" x="441.25" y="18.0669">&#1055;&#1083;&#1072;&#1090;&#1092;&#1086;&#1088;&#1084;&#1072;</text><rect fill="none" height="77.3984" style="stroke:#000000;stroke-width:1.5;" width="434.5" x="305.5" y="727.2969"/><rect fill="none" height="77.3984" style="stroke:#000000;stroke-width:1.5;" width="434.5" x="305.5" y="992.1953"/><rect fill="none" height="77.3984" style="stroke:#000000;stroke-width:1.5;" width="434.5" x="305.5" y="1257.0938"/><line style="stroke:#181818;stroke-width:0.5;stroke-dasharray:5.0,5.0;" x1="43" x2="43" y1="87.4297" y2="1656.3281"/><line style="stroke:#181818;stroke-width:0.5;stroke-dasharray:5.0,5.0;" x1="276.5" x2="276.5" y1="87.4297" y2="1656.3281"/><line style="stroke:#181818;stroke-width:0.5;stroke-dasharray:5.0,5.0;" x1="340.5" x2="340.5" y1="87.4297" y2="1656.3281"/><line style="stroke:#181818;stroke-width:0.5;stroke-dasharray:5.0,5.0;" x1="605" x2="605" y1="87.4297" y2="1656.3281"/><line style="stroke:#181818;stroke-width:0.5;stroke-dasharray:5.0,5.0;" x1="697" x2="697" y1="87.4297" y2="1656.3281"/><text fill="#000000" font-family="sans-serif" font-size="14" lengthAdjust="spacing" textLength="71" x="5" y="84.1279">&#1056;&#1077;&#1076;&#1072;&#1082;&#1090;&#1086;&#1088;</text><ellipse cx="43.5" cy="19.6328" fill="#E2E2F0" rx="8" ry="8" style="stroke:#181818;stroke-width:0.5;"/><path d="M43.5,27.6328 L43.5,54.6328 M30.5,35.6328 L56.5,35.6328 M43.5,54.6328 L30.5,69.6328 M43.5,54.6328 L56.5,69.6328 " fill="none" style="stroke:#181818;stroke-width:0.5;"/><text fill="#000000" font-family="sans-serif" font-size="14" lengthAdjust="spacing" textLength="71" x="5" y="1668.3232">&#1056;&#1077;&#1076;&#1072;&#1082;&#1090;&#1086;&#1088;</text><ellipse cx="43.5" cy="1680.125" fill="#E2E2F0" rx="8" ry="8" style="stroke:#181818;stroke-width:0.5;"/><path d="M43.5,1688.125 L43.5,1715.125 M30.5,1696.125 L56.5,1696.125 M43.5,1715.125 L30.5,1730.125 M43.5,1715.125 L56.5,1730.125 " fill="none" style="stroke:#181818;stroke-width:0.5;"/><rect fill="#E2E2F0" height="30.2969" rx="2.5" ry="2.5" style="stroke:#181818;stroke-width:0.5;" width="58" x="247.5" y="56.1328"/><text fill="#000000" font-family="sans-serif" font-size="14" lengthAdjust="spacing" textLength="44" x="254.5" y="76.1279">&#1064;&#1083;&#1102;&#1079;</text><rect fill="#E2E2F0" height="30.2969" rx="2.5" ry="2.5" style="stroke:#181818;stroke-width:0.5;" width="58" x="247.5" y="1655.3281"/><text fill="#000000" font-family="sans-serif" font-size="14" lengthAdjust="spacing" textLength="44" x="254.5" y="1675.3232">&#1064;&#1083;&#1102;&#1079;</text><rect fill="#E2E2F0" height="30.2969" rx="2.5" ry="2.5" style="stroke:#181818;stroke-width:0.5;" width="51" x="315.5" y="56.1328"/><text fill="#000000" font-family="sans-serif" font-size="14" lengthAdjust="spacing" textLength="37" x="322.5" y="76.1279">&#1071;&#1076;&#1088;&#1086;</text><rect fill="#E2E2F0" height="30.2969" rx="2.5" ry="2.5" style="stroke:#181818;stroke-width:0.5;" width="51" x="315.5" y="1655.3281"/><text fill="#000000" font-family="sans-serif" font-size="14" lengthAdjust="spacing" textLength="37" x="322.5" y="1675.3232">&#1071;&#1076;&#1088;&#1086;</text><text fill="#000000" font-family="sans-serif" font-size="14" lengthAdjust="spacing" textLength="94" x="555" y="84.1279">&#1041;&#1044; &#1086;&#1073;&#1091;&#1095;&#1077;&#1085;&#1080;&#1103;</text><path d="M587,35.1328 C587,25.1328 605,25.1328 605,25.1328 C605,25.1328 623,25.1328 623,35.1328 L623,61.1328 C623,71.1328 605,71.1328 605,71.1328 C605,71.1328 587,71.1328 587,61.1328 L587,35.1328 " fill="#E2E2F0" style="stroke:#181818;stroke-width:1.5;"/><path d="M587,35.1328 C587,45.1328 605,45.1328 605,45.1328 C605,45.1328 623,45.1328 623,35.1328 " fill="none" style="stroke:#181818;stroke-width:1.5;"/><text fill="#000000" font-family="sans-serif" font-size="14" lengthAdjust="spacing" textLength="94" x="555" y="1668.3232">&#1041;&#1044; &#1086;&#1073;&#1091;&#1095;&#1077;&#1085;&#1080;&#1103;</text><path d="M587,1681.625 C587,1671.625 605,1671.625 605,1671.625 C605,1671.625 623,1671.625 623,1681.625 L623,1707.625 C623,1717.625 605,1717.625 605,1717.625 C605,1717.625 587,1717.625 587,1707.625 L587,1681.625 " fill="#E2E2F0" style="stroke:#181818;stroke-width:1.5;"/><path d="M587,1681.625 C587,1691.625 605,1691.625 605,1691.625 C605,1691.625 623,1691.625 623,1681.625 " fill="none" style="stroke:#181818;stroke-width:1.5;"/><text fill="#000000" font-family="sans-serif" font-size="14" lengthAdjust="spacing" textLength="59" x="665" y="84.1279">&#1041;&#1044; &#1082;&#1085;&#1080;&#1075;</text><path d="M679.5,35.1328 C679.5,25.1328 697.5,25.1328 697.5,25.1328 C697.5,25.1328 715.5,25.1328 715.5,35.1328 L715.5,61.1328 C715.5,71.1328 697.5,71.1328 697.5,71.1328 C697.5,71.1328 679.5,71.1328 679.5,61.1328 L679.5,35.1328 " fill="#E2E2F0" style="stroke:#181818;stroke-width:1.5;"/><path d="M679.5,35.1328 C679.5,45.1328 697.5,45.1328 697.5,45.1328 C697.5,45.1328 715.5,45.1328 715.5,35.1328 " fill="none" style="stroke:#181818;stroke-width:1.5;"/><text fill="#000000" font-family="sans-serif" font-size="14" lengthAdjust="spacing" textLength="59" x="665" y="1668.3232">&#1041;&#1044; &#1082;&#1085;&#1080;&#1075;</text><path d="M679.5,1681.625 C679.5,1671.625 697.5,1671.625 697.5,1671.625 C697.5,1671.625 715.5,1671.625 715.5,1681.625 L715.5,1707.625 C715.5,1717.625 697.5,1717.625 697.5,1717.625 C697.5,1717.625 679.5,1717.625 679.5,1707.625 L679.5,1681.625 " fill="#E2E2F0" style="stroke:#181818;stroke-width:1.5;"/><path d="M679.5,1681.625 C679.5,1691.625 697.5,1691.625 697.5,1691.625 C697.5,1691.625 715.5,1691.625 715.5,1681.625 " fill="none" style="stroke:#181818;stroke-width:1.5;"/><rect fill="#EEEEEE" height="3" style="stroke:#EEEEEE;stroke-width:1.0;" width="750" x="0" y="117.9961"/><line style="stroke:#000000;stroke-width:1.0;" x1="0" x2="750" y1="117.9961" y2="117.9961"/><line style="stroke:#000000;stroke-width:1.0;" x1="0" x2="750" y1="120.9961" y2="120.9961"/><rect fill="#EEEEEE" height="23.1328" style="stroke:#000000;stroke-width:2.0;" width="57" x="346.5" y="107.4297"/><text fill="#000000" font-family="sans-serif" font-size="13" font-weight="bold" lengthAdjust="spacing" textLength="38" x="352.5" y="123.4966">&#1042;&#1093;&#1086;&#1076;</text><rect fill="none" height="39.1016" style="stroke:#000000;stroke-width:1.5;" width="367.5" x="2" y="140.5625"/><path d="M2,140.5625 L68,140.5625 L68,147.5625 L58,157.5625 L2,157.5625 L2,140.5625 " fill="#EEEEEE" style="stroke:#000000;stroke-width:2.0;"/><text fill="#000000" font-family="sans-serif" font-size="13" font-weight="bold" lengthAdjust="spacing" textLength="21" x="15" y="154.6294">ref</text><text fill="#000000" font-family="sans-serif" font-size="12" lengthAdjust="spacing" textLength="335" x="18.25" y="172.7012">&#1089;&#1094;&#1077;&#1085;&#1072;&#1088;&#1080;&#1081; &#1072;&#1091;&#1090;&#1077;&#1085;&#1090;&#1080;&#1092;&#1080;&#1082;&#1072;&#1094;&#1080;&#1080;, &#1088;&#1077;&#1076;&#1080;&#1088;&#1077;&#1082;&#1090; &#1085;&#1072; &#1072;&#1076;&#1084;&#1080;&#1085;&#1082;&#1091;</text><rect fill="#EEEEEE" height="3" style="stroke:#EEEEEE;stroke-width:1.0;" width="750" x="0" y="205.2305"/><line style="stroke:#000000;stroke-width:1.0;" x1="0" x2="750" y1="205.2305" y2="205.2305"/><line style="stroke:#000000;stroke-width:1.0;" x1="0" x2="750" y1="208.2305" y2="208.2305"/><rect fill="#EEEEEE" height="23.1328" style="stroke:#000000;stroke-width:2.0;" width="92" x="329" y="194.6641"/><text fill="#000000" font-family="sans-serif" font-size="13" font-weight="bold" lengthAdjust="spacing" textLength="73" x="335" y="210.731">&#1047;&#1072;&#1087;&#1088;&#1086;&#1089; UI</text><polygon fill="#181818" points="264.5,244.9297,274.5,248.9297,264.5,252.9297,268.5,248.9297" style="stroke:#181818;stroke-width:1.0;"/><line style="stroke:#181818;stroke-width:1.0;" x1="43.5" x2="270.5" y1="248.9297" y2="248.9297"/><text fill="#000000" font-family="sans-serif" font-size="13" lengthAdjust="spacing" textLength="125" x="50.5" y="243.8638">&#1079;&#1072;&#1087;&#1088;&#1086;&#1089; &#1088;&#1077;&#1076;&#1072;&#1082;&#1090;&#1086;&#1088;&#1072;</text><polygon fill="#181818" points="329,258.9297,339,262.9297,329,266.9297,333,262.9297" style="stroke:#181818;stroke-width:1.0;"/><line style="stroke:#181818;stroke-width:1.0;" x1="276.5" x2="335" y1="262.9297" y2="262.9297"/><rect fill="none" height="39.1016" style="stroke:#000000;stroke-width:1.5;" width="367.5" x="2" y="270.9297"/><path d="M2,270.9297 L68,270.9297 L68,277.9297 L58,287.9297 L2,287.9297 L2,270.9297 " fill="#EEEEEE" style="stroke:#000000;stroke-width:2.0;"/><text fill="#000000" font-family="sans-serif" font-size="13" font-weight="bold" lengthAdjust="spacing" textLength="21" x="15" y="284.9966">ref</text><text fill="#000000" font-family="sans-serif" font-size="12" lengthAdjust="spacing" textLength="156" x="107.75" y="303.0684">&#1089;&#1094;&#1077;&#1085;&#1072;&#1088;&#1080;&#1081; &#1072;&#1074;&#1090;&#1086;&#1088;&#1080;&#1079;&#1072;&#1094;&#1080;&#1080;</text><polygon fill="#181818" points="287.5,317.0313,277.5,321.0313,287.5,325.0313,283.5,321.0313" style="stroke:#181818;stroke-width:1.0;"/><line style="stroke:#181818;stroke-width:1.0;" x1="281.5" x2="340" y1="321.0313" y2="321.0313"/><polygon fill="#181818" points="54.5,346.1641,44.5,350.1641,54.5,354.1641,50.5,350.1641" style="stroke:#181818;stroke-width:1.0;"/><line style="stroke:#181818;stroke-width:1.0;" x1="48.5" x2="275.5" y1="350.1641" y2="350.1641"/><text fill="#000000" font-family="sans-serif" font-size="13" lengthAdjust="spacing" textLength="92" x="60.5" y="345.0981">UI &#1088;&#1077;&#1076;&#1072;&#1082;&#1090;&#1086;&#1088;&#1072;</text><rect fill="#EEEEEE" height="3" style="stroke:#EEEEEE;stroke-width:1.0;" width="750" x="0" y="378.7305"/><line style="stroke:#000000;stroke-width:1.0;" x1="0" x2="750" y1="378.7305" y2="378.7305"/><line style="stroke:#000000;stroke-width:1.0;" x1="0" x2="750" y1="381.7305" y2="381.7305"/><rect fill="#EEEEEE" height="23.1328" style="stroke:#000000;stroke-width:2.0;" width="280" x="235" y="368.1641"/><text fill="#000000" font-family="sans-serif" font-size="13" font-weight="bold" lengthAdjust="spacing" textLength="261" x="241" y="384.231">&#1047;&#1072;&#1087;&#1088;&#1086;&#1089; &#1089;&#1087;&#1080;&#1089;&#1082;&#1072; &#1082;&#1086;&#1085;&#1090;&#1077;&#1085;&#1090;&#1072;/&#1086;&#1073;&#1091;&#1095;&#1077;&#1085;&#1080;&#1103;</text><polygon fill="#181818" points="264.5,418.4297,274.5,422.4297,264.5,426.4297,268.5,422.4297" style="stroke:#181818;stroke-width:1.0;"/><line style="stroke:#181818;stroke-width:1.0;" x1="43.5" x2="270.5" y1="422.4297" y2="422.4297"/><text fill="#000000" font-family="sans-serif" font-size="13" lengthAdjust="spacing" textLength="166" x="50.5" y="417.3638">&#1079;&#1072;&#1087;&#1088;&#1086;&#1089; &#1089;&#1087;&#1080;&#1089;&#1082;&#1072; &#1082;&#1086;&#1085;&#1090;&#1077;&#1085;&#1090;&#1072;</text><polygon fill="#181818" points="329,432.4297,339,436.4297,329,440.4297,333,436.4297" style="stroke:#181818;stroke-width:1.0;"/><line style="stroke:#181818;stroke-width:1.0;" x1="276.5" x2="335" y1="436.4297" y2="436.4297"/><rect fill="none" height="39.1016" style="stroke:#000000;stroke-width:1.5;" width="367.5" x="2" y="444.4297"/><path d="M2,444.4297 L68,444.4297 L68,451.4297 L58,461.4297 L2,461.4297 L2,444.4297 " fill="#EEEEEE" style="stroke:#000000;stroke-width:2.0;"/><text fill="#000000" font-family="sans-serif" font-size="13" font-weight="bold" lengthAdjust="spacing" textLength="21" x="15" y="458.4966">ref</text><text fill="#000000" font-family="sans-serif" font-size="12" lengthAdjust="spacing" textLength="156" x="107.75" y="476.5684">&#1089;&#1094;&#1077;&#1085;&#1072;&#1088;&#1080;&#1081; &#1072;&#1074;&#1090;&#1086;&#1088;&#1080;&#1079;&#1072;&#1094;&#1080;&#1080;</text><polygon fill="#181818" points="352,505.6641,342,509.6641,352,513.6641,348,509.6641" style="stroke:#181818;stroke-width:1.0;"/><polygon fill="#181818" points="593,505.6641,603,509.6641,593,513.6641,597,509.6641" style="stroke:#181818;stroke-width:1.0;"/><line style="stroke:#181818;stroke-width:1.0;" x1="346" x2="599" y1="509.6641" y2="509.6641"/><text fill="#000000" font-family="sans-serif" font-size="13" lengthAdjust="spacing" textLength="240" x="358" y="504.5981">&#1087;&#1086;&#1083;&#1091;&#1095;&#1077;&#1085;&#1080;&#1077; &#1089;&#1087;&#1080;&#1089;&#1082;&#1072; &#1101;&#1090;&#1072;&#1087;&#1086;&#1074; &#1086;&#1073;&#1091;&#1095;&#1077;&#1085;&#1080;&#1103;</text><polygon fill="#181818" points="352,534.7969,342,538.7969,352,542.7969,348,538.7969" style="stroke:#181818;stroke-width:1.0;"/><polygon fill="#181818" points="685.5,534.7969,695.5,538.7969,685.5,542.7969,689.5,538.7969" style="stroke:#181818;stroke-width:1.0;"/><line style="stroke:#181818;stroke-width:1.0;" x1="346" x2="691.5" y1="538.7969" y2="538.7969"/><text fill="#000000" font-family="sans-serif" font-size="13" lengthAdjust="spacing" textLength="242" x="358" y="533.731">&#1087;&#1086;&#1083;&#1091;&#1095;&#1077;&#1085;&#1080;&#1077; &#1089;&#1087;&#1080;&#1089;&#1082;&#1072; &#1084;&#1072;&#1090;&#1077;&#1088;&#1080;&#1072;&#1083;&#1086;&#1074; &#1082;&#1085;&#1080;&#1075;</text><polygon fill="#181818" points="287.5,548.7969,277.5,552.7969,287.5,556.7969,283.5,552.7969" style="stroke:#181818;stroke-width:1.0;"/><line style="stroke:#181818;stroke-width:1.0;" x1="281.5" x2="340" y1="552.7969" y2="552.7969"/><polygon fill="#181818" points="54.5,577.9297,44.5,581.9297,54.5,585.9297,50.5,581.9297" style="stroke:#181818;stroke-width:1.0;"/><line style="stroke:#181818;stroke-width:1.0;" x1="48.5" x2="275.5" y1="581.9297" y2="581.9297"/><text fill="#000000" font-family="sans-serif" font-size="13" lengthAdjust="spacing" textLength="116" x="60.5" y="576.8638">&#1089;&#1087;&#1080;&#1089;&#1086;&#1082; &#1082;&#1086;&#1085;&#1090;&#1077;&#1085;&#1090;&#1072;</text><rect fill="#EEEEEE" height="3" style="stroke:#EEEEEE;stroke-width:1.0;" width="750" x="0" y="610.4961"/><line style="stroke:#000000;stroke-width:1.0;" x1="0" x2="750" y1="610.4961" y2="610.4961"/><line style="stroke:#000000;stroke-width:1.0;" x1="0" x2="750" y1="613.4961" y2="613.4961"/><rect fill="#EEEEEE" height="23.1328" style="stroke:#000000;stroke-width:2.0;" width="243" x="253.5" y="599.9297"/><text fill="#000000" font-family="sans-serif" font-size="13" font-weight="bold" lengthAdjust="spacing" textLength="224" x="259.5" y="615.9966">&#1057;&#1086;&#1079;&#1076;&#1072;&#1085;&#1080;&#1077; &#1082;&#1086;&#1085;&#1090;&#1077;&#1085;&#1090;&#1072;/&#1086;&#1073;&#1091;&#1095;&#1077;&#1085;&#1080;&#1103;</text><polygon fill="#181818" points="264.5,650.1953,274.5,654.1953,264.5,658.1953,268.5,654.1953" style="stroke:#181818;stroke-width:1.0;"/><line style="stroke:#181818;stroke-width:1.0;" x1="43.5" x2="270.5" y1="654.1953" y2="654.1953"/><text fill="#000000" font-family="sans-serif" font-size="13" lengthAdjust="spacing" textLength="184" x="50.5" y="649.1294">&#1079;&#1072;&#1087;&#1088;&#1086;&#1089; &#1089;&#1086;&#1079;&#1076;&#1072;&#1085;&#1080;&#1103; &#1082;&#1086;&#1085;&#1090;&#1077;&#1085;&#1090;&#1072;</text><polygon fill="#181818" points="329,664.1953,339,668.1953,329,672.1953,333,668.1953" style="stroke:#181818;stroke-width:1.0;"/><line style="stroke:#181818;stroke-width:1.0;" x1="276.5" x2="335" y1="668.1953" y2="668.1953"/><rect fill="none" height="39.1016" style="stroke:#000000;stroke-width:1.5;" width="367.5" x="2" y="676.1953"/><path d="M2,676.1953 L68,676.1953 L68,683.1953 L58,693.1953 L2,693.1953 L2,676.1953 " fill="#EEEEEE" style="stroke:#000000;stroke-width:2.0;"/><text fill="#000000" font-family="sans-serif" font-size="13" font-weight="bold" lengthAdjust="spacing" textLength="21" x="15" y="690.2622">ref</text><text fill="#000000" font-family="sans-serif" font-size="12" lengthAdjust="spacing" textLength="156" x="107.75" y="708.334">&#1089;&#1094;&#1077;&#1085;&#1072;&#1088;&#1080;&#1081; &#1072;&#1074;&#1090;&#1086;&#1088;&#1080;&#1079;&#1072;&#1094;&#1080;&#1080;</text><path d="M305.5,727.2969 L369.5,727.2969 L369.5,734.4297 L359.5,744.4297 L305.5,744.4297 L305.5,727.2969 " fill="#EEEEEE" style="stroke:#000000;stroke-width:1.5;"/><rect fill="none" height="77.3984" style="stroke:#000000;stroke-width:1.5;" width="434.5" x="305.5" y="727.2969"/><text fill="#000000" font-family="sans-serif" font-size="13" font-weight="bold" lengthAdjust="spacing" textLength="19" x="320.5" y="740.3638">alt</text><polygon fill="#181818" points="352,761.5625,342,765.5625,352,769.5625,348,765.5625" style="stroke:#181818;stroke-width:1.0;"/><polygon fill="#181818" points="593,761.5625,603,765.5625,593,769.5625,597,765.5625" style="stroke:#181818;stroke-width:1.0;"/><line style="stroke:#181818;stroke-width:1.0;" x1="346" x2="599" y1="765.5625" y2="765.5625"/><text fill="#000000" font-family="sans-serif" font-size="13" lengthAdjust="spacing" textLength="175" x="358" y="760.4966">&#1089;&#1086;&#1079;&#1076;&#1072;&#1085;&#1080;&#1077; &#1101;&#1090;&#1072;&#1087;&#1072; &#1086;&#1073;&#1091;&#1095;&#1077;&#1085;&#1080;&#1103;</text><line style="stroke:#000000;stroke-width:1.0;stroke-dasharray:2.0,2.0;" x1="305.5" x2="740" y1="774.5625" y2="774.5625"/><polygon fill="#181818" points="352,792.6953,342,796.6953,352,800.6953,348,796.6953" style="stroke:#181818;stroke-width:1.0;"/><polygon fill="#181818" points="685.5,792.6953,695.5,796.6953,685.5,800.6953,689.5,796.6953" style="stroke:#181818;stroke-width:1.0;"/><line style="stroke:#181818;stroke-width:1.0;" x1="346" x2="691.5" y1="796.6953" y2="796.6953"/><text fill="#000000" font-family="sans-serif" font-size="13" lengthAdjust="spacing" textLength="134" x="358" y="791.6294">&#1089;&#1086;&#1079;&#1076;&#1072;&#1085;&#1080;&#1077; &#1082;&#1086;&#1085;&#1090;&#1077;&#1085;&#1090;&#1072;</text><polygon fill="#181818" points="287.5,813.6953,277.5,817.6953,287.5,821.6953,283.5,817.6953" style="stroke:#181818;stroke-width:1.0;"/><line style="stroke:#181818;stroke-width:1.0;" x1="281.5" x2="340" y1="817.6953" y2="817.6953"/><polygon fill="#181818" points="54.5,842.8281,44.5,846.8281,54.5,850.8281,50.5,846.8281" style="stroke:#181818;stroke-width:1.0;"/><line style="stroke:#181818;stroke-width:1.0;" x1="48.5" x2="275.5" y1="846.8281" y2="846.8281"/><text fill="#000000" font-family="sans-serif" font-size="13" lengthAdjust="spacing" textLength="209" x="60.5" y="841.7622">&#1087;&#1088;&#1080;&#1079;&#1085;&#1072;&#1082; &#1091;&#1089;&#1087;&#1077;&#1096;&#1085;&#1086;&#1089;&#1090;&#1080; &#1086;&#1087;&#1077;&#1088;&#1072;&#1094;&#1080;&#1080;</text><rect fill="#EEEEEE" height="3" style="stroke:#EEEEEE;stroke-width:1.0;" width="750" x="0" y="875.3945"/><line style="stroke:#000000;stroke-width:1.0;" x1="0" x2="750" y1="875.3945" y2="875.3945"/><line style="stroke:#000000;stroke-width:1.0;" x1="0" x2="750" y1="878.3945" y2="878.3945"/><rect fill="#EEEEEE" height="23.1328" style="stroke:#000000;stroke-width:2.0;" width="253" x="248.5" y="864.8281"/><text fill="#000000" font-family="sans-serif" font-size="13" font-weight="bold" lengthAdjust="spacing" textLength="234" x="254.5" y="880.895">&#1048;&#1079;&#1084;&#1077;&#1085;&#1077;&#1085;&#1080;&#1077; &#1082;&#1086;&#1085;&#1090;&#1077;&#1085;&#1090;&#1072;/&#1086;&#1073;&#1091;&#1095;&#1077;&#1085;&#1080;&#1103;</text><polygon fill="#181818" points="264.5,915.0938,274.5,919.0938,264.5,923.0938,268.5,919.0938" style="stroke:#181818;stroke-width:1.0;"/><line style="stroke:#181818;stroke-width:1.0;" x1="43.5" x2="270.5" y1="919.0938" y2="919.0938"/><text fill="#000000" font-family="sans-serif" font-size="13" lengthAdjust="spacing" textLength="192" x="50.5" y="914.0278">&#1079;&#1072;&#1087;&#1088;&#1086;&#1089; &#1080;&#1079;&#1084;&#1077;&#1085;&#1077;&#1085;&#1080;&#1103; &#1082;&#1086;&#1085;&#1090;&#1077;&#1085;&#1090;&#1072;</text><polygon fill="#181818" points="329,929.0938,339,933.0938,329,937.0938,333,933.0938" style="stroke:#181818;stroke-width:1.0;"/><line style="stroke:#181818;stroke-width:1.0;" x1="276.5" x2="335" y1="933.0938" y2="933.0938"/><rect fill="none" height="39.1016" style="stroke:#000000;stroke-width:1.5;" width="367.5" x="2" y="941.0938"/><path d="M2,941.0938 L68,941.0938 L68,948.0938 L58,958.0938 L2,958.0938 L2,941.0938 " fill="#EEEEEE" style="stroke:#000000;stroke-width:2.0;"/><text fill="#000000" font-family="sans-serif" font-size="13" font-weight="bold" lengthAdjust="spacing" textLength="21" x="15" y="955.1606">ref</text><text fill="#000000" font-family="sans-serif" font-size="12" lengthAdjust="spacing" textLength="156" x="107.75" y="973.2324">&#1089;&#1094;&#1077;&#1085;&#1072;&#1088;&#1080;&#1081; &#1072;&#1074;&#1090;&#1086;&#1088;&#1080;&#1079;&#1072;&#1094;&#1080;&#1080;</text><path d="M305.5,992.1953 L369.5,992.1953 L369.5,999.3281 L359.5,1009.3281 L305.5,1009.3281 L305.5,992.1953 " fill="#EEEEEE" style="stroke:#000000;stroke-width:1.5;"/><rect fill="none" height="77.3984" style="stroke:#000000;stroke-width:1.5;" width="434.5" x="305.5" y="992.1953"/><text fill="#000000" font-family="sans-serif" font-size="13" font-weight="bold" lengthAdjust="spacing" textLength="19" x="320.5" y="1005.2622">alt</text><polygon fill="#181818" points="352,1026.4609,342,1030.4609,352,1034.4609,348,1030.4609" style="stroke:#181818;stroke-width:1.0;"/><polygon fill="#181818" points="593,1026.4609,603,1030.4609,593,1034.4609,597,1030.4609" style="stroke:#181818;stroke-width:1.0;"/><line style="stroke:#181818;stroke-width:1.0;" x1="346" x2="599" y1="1030.4609" y2="1030.4609"/><text fill="#000000" font-family="sans-serif" font-size="13" lengthAdjust="spacing" textLength="183" x="358" y="1025.395">&#1080;&#1079;&#1084;&#1077;&#1085;&#1077;&#1085;&#1080;&#1077; &#1101;&#1090;&#1072;&#1087;&#1072; &#1086;&#1073;&#1091;&#1095;&#1077;&#1085;&#1080;&#1103;</text><line style="stroke:#000000;stroke-width:1.0;stroke-dasharray:2.0,2.0;" x1="305.5" x2="740" y1="1039.4609" y2="1039.4609"/><polygon fill="#181818" points="352,1057.5938,342,1061.5938,352,1065.5938,348,1061.5938" style="stroke:#181818;stroke-width:1.0;"/><polygon fill="#181818" points="685.5,1057.5938,695.5,1061.5938,685.5,1065.5938,689.5,1061.5938" style="stroke:#181818;stroke-width:1.0;"/><line style="stroke:#181818;stroke-width:1.0;" x1="346" x2="691.5" y1="1061.5938" y2="1061.5938"/><text fill="#000000" font-family="sans-serif" font-size="13" lengthAdjust="spacing" textLength="142" x="358" y="1056.5278">&#1080;&#1079;&#1084;&#1077;&#1085;&#1077;&#1085;&#1080;&#1077; &#1082;&#1086;&#1085;&#1090;&#1077;&#1085;&#1090;&#1072;</text><polygon fill="#181818" points="287.5,1078.5938,277.5,1082.5938,287.5,1086.5938,283.5,1082.5938" style="stroke:#181818;stroke-width:1.0;"/><line style="stroke:#181818;stroke-width:1.0;" x1="281.5" x2="340" y1="1082.5938" y2="1082.5938"/><polygon fill="#181818" points="54.5,1107.7266,44.5,1111.7266,54.5,1115.7266,50.5,1111.7266" style="stroke:#181818;stroke-width:1.0;"/><line style="stroke:#181818;stroke-width:1.0;" x1="48.5" x2="275.5" y1="1111.7266" y2="1111.7266"/><text fill="#000000" font-family="sans-serif" font-size="13" lengthAdjust="spacing" textLength="209" x="60.5" y="1106.6606">&#1087;&#1088;&#1080;&#1079;&#1085;&#1072;&#1082; &#1091;&#1089;&#1087;&#1077;&#1096;&#1085;&#1086;&#1089;&#1090;&#1080; &#1086;&#1087;&#1077;&#1088;&#1072;&#1094;&#1080;&#1080;</text><rect fill="#EEEEEE" height="3" style="stroke:#EEEEEE;stroke-width:1.0;" width="750" x="0" y="1140.293"/><line style="stroke:#000000;stroke-width:1.0;" x1="0" x2="750" y1="1140.293" y2="1140.293"/><line style="stroke:#000000;stroke-width:1.0;" x1="0" x2="750" y1="1143.293" y2="1143.293"/><rect fill="#EEEEEE" height="23.1328" style="stroke:#000000;stroke-width:2.0;" width="245" x="252.5" y="1129.7266"/><text fill="#000000" font-family="sans-serif" font-size="13" font-weight="bold" lengthAdjust="spacing" textLength="226" x="258.5" y="1145.7935">&#1059;&#1076;&#1072;&#1083;&#1077;&#1085;&#1080;&#1077; &#1082;&#1086;&#1085;&#1090;&#1077;&#1085;&#1090;&#1072;/&#1086;&#1073;&#1091;&#1095;&#1077;&#1085;&#1080;&#1103;</text><polygon fill="#181818" points="264.5,1179.9922,274.5,1183.9922,264.5,1187.9922,268.5,1183.9922" style="stroke:#181818;stroke-width:1.0;"/><line style="stroke:#181818;stroke-width:1.0;" x1="43.5" x2="270.5" y1="1183.9922" y2="1183.9922"/><text fill="#000000" font-family="sans-serif" font-size="13" lengthAdjust="spacing" textLength="184" x="50.5" y="1178.9263">&#1079;&#1072;&#1087;&#1088;&#1086;&#1089; &#1089;&#1086;&#1079;&#1076;&#1072;&#1085;&#1080;&#1103; &#1082;&#1086;&#1085;&#1090;&#1077;&#1085;&#1090;&#1072;</text><polygon fill="#181818" points="329,1193.9922,339,1197.9922,329,1201.9922,333,1197.9922" style="stroke:#181818;stroke-width:1.0;"/><line style="stroke:#181818;stroke-width:1.0;" x1="276.5" x2="335" y1="1197.9922" y2="1197.9922"/><rect fill="none" height="39.1016" style="stroke:#000000;stroke-width:1.5;" width="367.5" x="2" y="1205.9922"/><path d="M2,1205.9922 L68,1205.9922 L68,1212.9922 L58,1222.9922 L2,1222.9922 L2,1205.9922 " fill="#EEEEEE" style="stroke:#000000;stroke-width:2.0;"/><text fill="#000000" font-family="sans-serif" font-size="13" font-weight="bold" lengthAdjust="spacing" textLength="21" x="15" y="1220.0591">ref</text><text fill="#000000" font-family="sans-serif" font-size="12" lengthAdjust="spacing" textLength="156" x="107.75" y="1238.1309">&#1089;&#1094;&#1077;&#1085;&#1072;&#1088;&#1080;&#1081; &#1072;&#1074;&#1090;&#1086;&#1088;&#1080;&#1079;&#1072;&#1094;&#1080;&#1080;</text><path d="M305.5,1257.0938 L369.5,1257.0938 L369.5,1264.2266 L359.5,1274.2266 L305.5,1274.2266 L305.5,1257.0938 " fill="#EEEEEE" style="stroke:#000000;stroke-width:1.5;"/><rect fill="none" height="77.3984" style="stroke:#000000;stroke-width:1.5;" width="434.5" x="305.5" y="1257.0938"/><text fill="#000000" font-family="sans-serif" font-size="13" font-weight="bold" lengthAdjust="spacing" textLength="19" x="320.5" y="1270.1606">alt</text><polygon fill="#181818" points="352,1291.3594,342,1295.3594,352,1299.3594,348,1295.3594" style="stroke:#181818;stroke-width:1.0;"/><polygon fill="#181818" points="593,1291.3594,603,1295.3594,593,1299.3594,597,1295.3594" style="stroke:#181818;stroke-width:1.0;"/><line style="stroke:#181818;stroke-width:1.0;" x1="346" x2="599" y1="1295.3594" y2="1295.3594"/><text fill="#000000" font-family="sans-serif" font-size="13" lengthAdjust="spacing" textLength="176" x="358" y="1290.2935">&#1091;&#1076;&#1072;&#1083;&#1077;&#1085;&#1080;&#1077; &#1101;&#1090;&#1072;&#1087;&#1072; &#1086;&#1073;&#1091;&#1095;&#1077;&#1085;&#1080;&#1103;</text><line style="stroke:#000000;stroke-width:1.0;stroke-dasharray:2.0,2.0;" x1="305.5" x2="740" y1="1304.3594" y2="1304.3594"/><polygon fill="#181818" points="352,1322.4922,342,1326.4922,352,1330.4922,348,1326.4922" style="stroke:#181818;stroke-width:1.0;"/><polygon fill="#181818" points="685.5,1322.4922,695.5,1326.4922,685.5,1330.4922,689.5,1326.4922" style="stroke:#181818;stroke-width:1.0;"/><line style="stroke:#181818;stroke-width:1.0;" x1="346" x2="691.5" y1="1326.4922" y2="1326.4922"/><text fill="#000000" font-family="sans-serif" font-size="13" lengthAdjust="spacing" textLength="135" x="358" y="1321.4263">&#1091;&#1076;&#1072;&#1083;&#1077;&#1085;&#1080;&#1077; &#1082;&#1086;&#1085;&#1090;&#1077;&#1085;&#1090;&#1072;</text><polygon fill="#181818" points="287.5,1343.4922,277.5,1347.4922,287.5,1351.4922,283.5,1347.4922" style="stroke:#181818;stroke-width:1.0;"/><line style="stroke:#181818;stroke-width:1.0;" x1="281.5" x2="340" y1="1347.4922" y2="1347.4922"/><polygon fill="#181818" points="54.5,1372.625,44.5,1376.625,54.5,1380.625,50.5,1376.625" style="stroke:#181818;stroke-width:1.0;"/><line style="stroke:#181818;stroke-width:1.0;" x1="48.5" x2="275.5" y1="1376.625" y2="1376.625"/><text fill="#000000" font-family="sans-serif" font-size="13" lengthAdjust="spacing" textLength="209" x="60.5" y="1371.5591">&#1087;&#1088;&#1080;&#1079;&#1085;&#1072;&#1082; &#1091;&#1089;&#1087;&#1077;&#1096;&#1085;&#1086;&#1089;&#1090;&#1080; &#1086;&#1087;&#1077;&#1088;&#1072;&#1094;&#1080;&#1080;</text><rect fill="#EEEEEE" height="3" style="stroke:#EEEEEE;stroke-width:1.0;" width="750" x="0" y="1405.1914"/><line style="stroke:#000000;stroke-width:1.0;" x1="0" x2="750" y1="1405.1914" y2="1405.1914"/><line style="stroke:#000000;stroke-width:1.0;" x1="0" x2="750" y1="1408.1914" y2="1408.1914"/><rect fill="#EEEEEE" height="23.1328" style="stroke:#000000;stroke-width:2.0;" width="231" x="259.5" y="1394.625"/><text fill="#000000" font-family="sans-serif" font-size="13" font-weight="bold" lengthAdjust="spacing" textLength="212" x="265.5" y="1410.6919">&#1048;&#1079;&#1084;&#1077;&#1085;&#1077;&#1085;&#1080;&#1077; &#1089;&#1074;&#1086;&#1077;&#1075;&#1086; &#1087;&#1088;&#1086;&#1092;&#1080;&#1083;&#1103;</text><rect fill="none" height="39.1016" style="stroke:#000000;stroke-width:1.5;" width="367.5" x="2" y="1427.7578"/><path d="M2,1427.7578 L68,1427.7578 L68,1434.7578 L58,1444.7578 L2,1444.7578 L2,1427.7578 " fill="#EEEEEE" style="stroke:#000000;stroke-width:2.0;"/><text fill="#000000" font-family="sans-serif" font-size="13" font-weight="bold" lengthAdjust="spacing" textLength="21" x="15" y="1441.8247">ref</text><text fill="#000000" font-family="sans-serif" font-size="12" lengthAdjust="spacing" textLength="200" x="85.75" y="1459.8965">&#1089;&#1094;&#1077;&#1085;&#1072;&#1088;&#1080;&#1081; &#1080;&#1079;&#1084;&#1077;&#1085;&#1077;&#1085;&#1080;&#1103; &#1087;&#1088;&#1086;&#1092;&#1080;&#1083;&#1103;</text><rect fill="#EEEEEE" height="3" style="stroke:#EEEEEE;stroke-width:1.0;" width="750" x="0" y="1492.4258"/><line style="stroke:#000000;stroke-width:1.0;" x1="0" x2="750" y1="1492.4258" y2="1492.4258"/><line style="stroke:#000000;stroke-width:1.0;" x1="0" x2="750" y1="1495.4258" y2="1495.4258"/><rect fill="#EEEEEE" height="23.1328" style="stroke:#000000;stroke-width:2.0;" width="92" x="329" y="1481.8594"/><text fill="#000000" font-family="sans-serif" font-size="13" font-weight="bold" lengthAdjust="spacing" textLength="73" x="335" y="1497.9263">&#1054;&#1073;&#1091;&#1095;&#1077;&#1085;&#1080;&#1077;</text><rect fill="none" height="39.1016" style="stroke:#000000;stroke-width:1.5;" width="367.5" x="2" y="1514.9922"/><path d="M2,1514.9922 L68,1514.9922 L68,1521.9922 L58,1531.9922 L2,1531.9922 L2,1514.9922 " fill="#EEEEEE" style="stroke:#000000;stroke-width:2.0;"/><text fill="#000000" font-family="sans-serif" font-size="13" font-weight="bold" lengthAdjust="spacing" textLength="21" x="15" y="1529.0591">ref</text><text fill="#000000" font-family="sans-serif" font-size="12" lengthAdjust="spacing" textLength="128" x="121.75" y="1547.1309">&#1089;&#1094;&#1077;&#1085;&#1072;&#1088;&#1080;&#1081; &#1086;&#1073;&#1091;&#1095;&#1077;&#1085;&#1080;&#1103;</text><rect fill="#EEEEEE" height="3" style="stroke:#EEEEEE;stroke-width:1.0;" width="750" x="0" y="1579.6602"/><line style="stroke:#000000;stroke-width:1.0;" x1="0" x2="750" y1="1579.6602" y2="1579.6602"/><line style="stroke:#000000;stroke-width:1.0;" x1="0" x2="750" y1="1582.6602" y2="1582.6602"/><rect fill="#EEEEEE" height="23.1328" style="stroke:#000000;stroke-width:2.0;" width="69" x="340.5" y="1569.0938"/><text fill="#000000" font-family="sans-serif" font-size="13" font-weight="bold" lengthAdjust="spacing" textLength="50" x="346.5" y="1585.1606">&#1042;&#1099;&#1093;&#1086;&#1076;</text><rect fill="none" height="39.1016" style="stroke:#000000;stroke-width:1.5;" width="367.5" x="2" y="1602.2266"/><path d="M2,1602.2266 L68,1602.2266 L68,1609.2266 L58,1619.2266 L2,1619.2266 L2,1602.2266 " fill="#EEEEEE" style="stroke:#000000;stroke-width:2.0;"/><text fill="#000000" font-family="sans-serif" font-size="13" font-weight="bold" lengthAdjust="spacing" textLength="21" x="15" y="1616.2935">ref</text><text fill="#000000" font-family="sans-serif" font-size="12" lengthAdjust="spacing" textLength="265" x="53.25" y="1634.3652">&#1089;&#1094;&#1077;&#1085;&#1072;&#1088;&#1080;&#1081; &#1074;&#1099;&#1093;&#1086;&#1076;&#1072;, &#1088;&#1077;&#1076;&#1080;&#1088;&#1077;&#1082;&#1090; &#1085;&#1072; &#1075;&#1083;&#1072;&#1074;&#1085;&#1091;&#1102;</text><!--SRC=[pLPDZz9G5DttLxoCMuXx8YoC6zV67_1WdcOYePDIdN4dKxyIunYDYQxyY1jtTe26oaVv2_Vz8y-zBGoqQ3C4qGrjRiyxzznptYlLBT_rr05zeOY65DBOdb5YdnmetLKFkyPpckwfeiyqeT2UsQVyZAOKgcjtEkw9Swmz_wXrTAmxFZY-qyIUqqZMtjU-ET6FSuWVDCJwH10jrpFEeVPrKtSDdhsbzueIkh21VG4nCuhj6m6sZVOwjsuMi6F6q40mJTTz08Zf7EBsr77gTKNlx3Fm3LMzxdZcdd8V6Kz6gYp4LKH3JTcUVIuTGuYBwQV2JG0VKC9lZAbZD0i1YYckA83OgrYky4lnIgn1RGh43BKWLV01nJaFR7lgxcqMmlshZQn_JT5e1P7nBZEWqCc0rOQOTUKfg9ynnTmerUymMbKRouIoAvUOjyPADqWf36HxD8S9FRQ6mqZ4hTIpy7e-oTBX_yJsztouWQcp_GL1SxITNAgcQ5sMVSrY1DKlRDLBldGlbjFnEU8PHLU84oQqsQukZsd9bT2uw9Z4zHN5aUIOjjz5IYkCmEybATtsDwIrheNDNSGJ5iCnxQuf9bIWA8o35qfv4c8F2vxnYL5epD54zYKAS8tV8QneBb4lXfA0FcBHL4H6kuf8XAnm_jkGycgsYca3oRw3-YQRPBAxcFwhanJafjlY90Kb1kt_965f7zY81fIep7V-9v-auLpLq0t7QeqpbV5frIs8sA9Htl3iM-RLzbyp_SLY2d_xzJBWBpmODaFlyry0]--></g></svg>