<?xml version="1.0" encoding="us-ascii" standalone="no"?><svg xmlns="http://www.w3.org/2000/svg" xmlns:xlink="http://www.w3.org/1999/xlink" contentStyleType="text/css" height="1120px" preserveAspectRatio="none" style="width:693px;height:1120px;background:#FFFFFF;" version="1.1" viewBox="0 0 693 1120" width="693px" zoomAndPan="magnify"><defs/><g><rect fill="#FFFAFA" height="1108.4297" style="stroke:#181818;stroke-width:0.5;" width="427" x="258" y="6"/><text fill="#000000" font-family="sans-serif" font-size="13" font-weight="bold" lengthAdjust="spacing" textLength="90" x="424" y="18.0669">&#1055;&#1083;&#1072;&#1090;&#1092;&#1086;&#1088;&#1084;&#1072;</text><line style="stroke:#181818;stroke-width:0.5;stroke-dasharray:5.0,5.0;" x1="45" x2="45" y1="87.4297" y2="1035.1328"/><line style="stroke:#181818;stroke-width:0.5;stroke-dasharray:5.0,5.0;" x1="291" x2="291" y1="87.4297" y2="1035.1328"/><line style="stroke:#181818;stroke-width:0.5;stroke-dasharray:5.0,5.0;" x1="355" x2="355" y1="87.4297" y2="1035.1328"/><line style="stroke:#181818;stroke-width:0.5;stroke-dasharray:5.0,5.0;" x1="608" x2="608" y1="87.4297" y2="1035.1328"/><text fill="#000000" font-family="sans-serif" font-size="14" lengthAdjust="spacing" textLength="74" x="5" y="84.1279">&#1042;&#1083;&#1072;&#1076;&#1077;&#1083;&#1077;&#1094;</text><ellipse cx="45" cy="19.6328" fill="#E2E2F0" rx="8" ry="8" style="stroke:#181818;stroke-width:0.5;"/><path d="M45,27.6328 L45,54.6328 M32,35.6328 L58,35.6328 M45,54.6328 L32,69.6328 M45,54.6328 L58,69.6328 " fill="none" style="stroke:#181818;stroke-width:0.5;"/><text fill="#000000" font-family="sans-serif" font-size="14" lengthAdjust="spacing" textLength="74" x="5" y="1047.1279">&#1042;&#1083;&#1072;&#1076;&#1077;&#1083;&#1077;&#1094;</text><ellipse cx="45" cy="1058.9297" fill="#E2E2F0" rx="8" ry="8" style="stroke:#181818;stroke-width:0.5;"/><path d="M45,1066.9297 L45,1093.9297 M32,1074.9297 L58,1074.9297 M45,1093.9297 L32,1108.9297 M45,1093.9297 L58,1108.9297 " fill="none" style="stroke:#181818;stroke-width:0.5;"/><rect fill="#E2E2F0" height="30.2969" rx="2.5" ry="2.5" style="stroke:#181818;stroke-width:0.5;" width="58" x="262" y="56.1328"/><text fill="#000000" font-family="sans-serif" font-size="14" lengthAdjust="spacing" textLength="44" x="269" y="76.1279">&#1064;&#1083;&#1102;&#1079;</text><rect fill="#E2E2F0" height="30.2969" rx="2.5" ry="2.5" style="stroke:#181818;stroke-width:0.5;" width="58" x="262" y="1034.1328"/><text fill="#000000" font-family="sans-serif" font-size="14" lengthAdjust="spacing" textLength="44" x="269" y="1054.1279">&#1064;&#1083;&#1102;&#1079;</text><rect fill="#E2E2F0" height="30.2969" rx="2.5" ry="2.5" style="stroke:#181818;stroke-width:0.5;" width="51" x="330" y="56.1328"/><text fill="#000000" font-family="sans-serif" font-size="14" lengthAdjust="spacing" textLength="37" x="337" y="76.1279">&#1071;&#1076;&#1088;&#1086;</text><rect fill="#E2E2F0" height="30.2969" rx="2.5" ry="2.5" style="stroke:#181818;stroke-width:0.5;" width="51" x="330" y="1034.1328"/><text fill="#000000" font-family="sans-serif" font-size="14" lengthAdjust="spacing" textLength="37" x="337" y="1054.1279">&#1071;&#1076;&#1088;&#1086;</text><text fill="#000000" font-family="sans-serif" font-size="14" lengthAdjust="spacing" textLength="139" x="536" y="84.1279">&#1041;&#1044; &#1087;&#1086;&#1083;&#1100;&#1079;&#1086;&#1074;&#1072;&#1090;&#1077;&#1083;&#1077;&#1081;</text><path d="M590.5,35.1328 C590.5,25.1328 608.5,25.1328 608.5,25.1328 C608.5,25.1328 626.5,25.1328 626.5,35.1328 L626.5,61.1328 C626.5,71.1328 608.5,71.1328 608.5,71.1328 C608.5,71.1328 590.5,71.1328 590.5,61.1328 L590.5,35.1328 " fill="#E2E2F0" style="stroke:#181818;stroke-width:1.5;"/><path d="M590.5,35.1328 C590.5,45.1328 608.5,45.1328 608.5,45.1328 C608.5,45.1328 626.5,45.1328 626.5,35.1328 " fill="none" style="stroke:#181818;stroke-width:1.5;"/><text fill="#000000" font-family="sans-serif" font-size="14" lengthAdjust="spacing" textLength="139" x="536" y="1047.1279">&#1041;&#1044; &#1087;&#1086;&#1083;&#1100;&#1079;&#1086;&#1074;&#1072;&#1090;&#1077;&#1083;&#1077;&#1081;</text><path d="M590.5,1060.4297 C590.5,1050.4297 608.5,1050.4297 608.5,1050.4297 C608.5,1050.4297 626.5,1050.4297 626.5,1060.4297 L626.5,1086.4297 C626.5,1096.4297 608.5,1096.4297 608.5,1096.4297 C608.5,1096.4297 590.5,1096.4297 590.5,1086.4297 L590.5,1060.4297 " fill="#E2E2F0" style="stroke:#181818;stroke-width:1.5;"/><path d="M590.5,1060.4297 C590.5,1070.4297 608.5,1070.4297 608.5,1070.4297 C608.5,1070.4297 626.5,1070.4297 626.5,1060.4297 " fill="none" style="stroke:#181818;stroke-width:1.5;"/><rect fill="#EEEEEE" height="3" style="stroke:#EEEEEE;stroke-width:1.0;" width="686" x="0" y="117.9961"/><line style="stroke:#000000;stroke-width:1.0;" x1="0" x2="686" y1="117.9961" y2="117.9961"/><line style="stroke:#000000;stroke-width:1.0;" x1="0" x2="686" y1="120.9961" y2="120.9961"/><rect fill="#EEEEEE" height="23.1328" style="stroke:#000000;stroke-width:2.0;" width="57" x="314.5" y="107.4297"/><text fill="#000000" font-family="sans-serif" font-size="13" font-weight="bold" lengthAdjust="spacing" textLength="38" x="320.5" y="123.4966">&#1042;&#1093;&#1086;&#1076;</text><rect fill="none" height="39.1016" style="stroke:#000000;stroke-width:1.5;" width="382" x="2" y="140.5625"/><path d="M2,140.5625 L68,140.5625 L68,147.5625 L58,157.5625 L2,157.5625 L2,140.5625 " fill="#EEEEEE" style="stroke:#000000;stroke-width:2.0;"/><text fill="#000000" font-family="sans-serif" font-size="13" font-weight="bold" lengthAdjust="spacing" textLength="21" x="15" y="154.6294">ref</text><text fill="#000000" font-family="sans-serif" font-size="12" lengthAdjust="spacing" textLength="335" x="25.5" y="172.7012">&#1089;&#1094;&#1077;&#1085;&#1072;&#1088;&#1080;&#1081; &#1072;&#1091;&#1090;&#1077;&#1085;&#1090;&#1080;&#1092;&#1080;&#1082;&#1072;&#1094;&#1080;&#1080;, &#1088;&#1077;&#1076;&#1080;&#1088;&#1077;&#1082;&#1090; &#1085;&#1072; &#1072;&#1076;&#1084;&#1080;&#1085;&#1082;&#1091;</text><rect fill="#EEEEEE" height="3" style="stroke:#EEEEEE;stroke-width:1.0;" width="686" x="0" y="205.2305"/><line style="stroke:#000000;stroke-width:1.0;" x1="0" x2="686" y1="205.2305" y2="205.2305"/><line style="stroke:#000000;stroke-width:1.0;" x1="0" x2="686" y1="208.2305" y2="208.2305"/><rect fill="#EEEEEE" height="23.1328" style="stroke:#000000;stroke-width:2.0;" width="92" x="297" y="194.6641"/><text fill="#000000" font-family="sans-serif" font-size="13" font-weight="bold" lengthAdjust="spacing" textLength="73" x="303" y="210.731">&#1047;&#1072;&#1087;&#1088;&#1086;&#1089; UI</text><polygon fill="#181818" points="279,244.9297,289,248.9297,279,252.9297,283,248.9297" style="stroke:#181818;stroke-width:1.0;"/><line style="stroke:#181818;stroke-width:1.0;" x1="45" x2="285" y1="248.9297" y2="248.9297"/><text fill="#000000" font-family="sans-serif" font-size="13" lengthAdjust="spacing" textLength="109" x="52" y="243.8638">&#1079;&#1072;&#1087;&#1088;&#1086;&#1089; &#1072;&#1076;&#1084;&#1080;&#1085;&#1082;&#1080;</text><polygon fill="#181818" points="343.5,258.9297,353.5,262.9297,343.5,266.9297,347.5,262.9297" style="stroke:#181818;stroke-width:1.0;"/><line style="stroke:#181818;stroke-width:1.0;" x1="291" x2="349.5" y1="262.9297" y2="262.9297"/><rect fill="none" height="39.1016" style="stroke:#000000;stroke-width:1.5;" width="682" x="2" y="270.9297"/><path d="M2,270.9297 L68,270.9297 L68,277.9297 L58,287.9297 L2,287.9297 L2,270.9297 " fill="#EEEEEE" style="stroke:#000000;stroke-width:2.0;"/><text fill="#000000" font-family="sans-serif" font-size="13" font-weight="bold" lengthAdjust="spacing" textLength="21" x="15" y="284.9966">ref</text><text fill="#000000" font-family="sans-serif" font-size="12" lengthAdjust="spacing" textLength="156" x="265" y="303.0684">&#1089;&#1094;&#1077;&#1085;&#1072;&#1088;&#1080;&#1081; &#1072;&#1074;&#1090;&#1086;&#1088;&#1080;&#1079;&#1072;&#1094;&#1080;&#1080;</text><polygon fill="#181818" points="302,317.0313,292,321.0313,302,325.0313,298,321.0313" style="stroke:#181818;stroke-width:1.0;"/><line style="stroke:#181818;stroke-width:1.0;" x1="296" x2="354.5" y1="321.0313" y2="321.0313"/><polygon fill="#181818" points="56,346.1641,46,350.1641,56,354.1641,52,350.1641" style="stroke:#181818;stroke-width:1.0;"/><line style="stroke:#181818;stroke-width:1.0;" x1="50" x2="290" y1="350.1641" y2="350.1641"/><text fill="#000000" font-family="sans-serif" font-size="13" lengthAdjust="spacing" textLength="76" x="62" y="345.0981">UI &#1072;&#1076;&#1084;&#1080;&#1085;&#1082;&#1080;</text><rect fill="#EEEEEE" height="3" style="stroke:#EEEEEE;stroke-width:1.0;" width="686" x="0" y="378.7305"/><line style="stroke:#000000;stroke-width:1.0;" x1="0" x2="686" y1="378.7305" y2="378.7305"/><line style="stroke:#000000;stroke-width:1.0;" x1="0" x2="686" y1="381.7305" y2="381.7305"/><rect fill="#EEEEEE" height="23.1328" style="stroke:#000000;stroke-width:2.0;" width="193" x="246.5" y="368.1641"/><text fill="#000000" font-family="sans-serif" font-size="13" font-weight="bold" lengthAdjust="spacing" textLength="174" x="252.5" y="384.231">&#1047;&#1072;&#1087;&#1088;&#1086;&#1089; &#1087;&#1086;&#1083;&#1100;&#1079;&#1086;&#1074;&#1072;&#1090;&#1077;&#1083;&#1077;&#1081;</text><polygon fill="#181818" points="279,418.4297,289,422.4297,279,426.4297,283,422.4297" style="stroke:#181818;stroke-width:1.0;"/><line style="stroke:#181818;stroke-width:1.0;" x1="45" x2="285" y1="422.4297" y2="422.4297"/><text fill="#000000" font-family="sans-serif" font-size="13" lengthAdjust="spacing" textLength="154" x="52" y="417.3638">&#1079;&#1072;&#1087;&#1088;&#1086;&#1089; &#1087;&#1086;&#1083;&#1100;&#1079;&#1086;&#1074;&#1072;&#1090;&#1077;&#1083;&#1077;&#1081;</text><polygon fill="#181818" points="343.5,432.4297,353.5,436.4297,343.5,440.4297,347.5,436.4297" style="stroke:#181818;stroke-width:1.0;"/><line style="stroke:#181818;stroke-width:1.0;" x1="291" x2="349.5" y1="436.4297" y2="436.4297"/><rect fill="none" height="39.1016" style="stroke:#000000;stroke-width:1.5;" width="682" x="2" y="444.4297"/><path d="M2,444.4297 L68,444.4297 L68,451.4297 L58,461.4297 L2,461.4297 L2,444.4297 " fill="#EEEEEE" style="stroke:#000000;stroke-width:2.0;"/><text fill="#000000" font-family="sans-serif" font-size="13" font-weight="bold" lengthAdjust="spacing" textLength="21" x="15" y="458.4966">ref</text><text fill="#000000" font-family="sans-serif" font-size="12" lengthAdjust="spacing" textLength="156" x="265" y="476.5684">&#1089;&#1094;&#1077;&#1085;&#1072;&#1088;&#1080;&#1081; &#1072;&#1074;&#1090;&#1086;&#1088;&#1080;&#1079;&#1072;&#1094;&#1080;&#1080;</text><polygon fill="#181818" points="366.5,505.6641,356.5,509.6641,366.5,513.6641,362.5,509.6641" style="stroke:#181818;stroke-width:1.0;"/><polygon fill="#181818" points="596.5,505.6641,606.5,509.6641,596.5,513.6641,600.5,509.6641" style="stroke:#181818;stroke-width:1.0;"/><line style="stroke:#181818;stroke-width:1.0;" x1="360.5" x2="602.5" y1="509.6641" y2="509.6641"/><text fill="#000000" font-family="sans-serif" font-size="13" lengthAdjust="spacing" textLength="229" x="372.5" y="504.5981">&#1087;&#1086;&#1083;&#1091;&#1095;&#1077;&#1085;&#1080;&#1077; &#1089;&#1087;&#1080;&#1089;&#1082;&#1072; &#1087;&#1086;&#1083;&#1100;&#1079;&#1086;&#1074;&#1072;&#1090;&#1077;&#1083;&#1077;&#1081;</text><polygon fill="#181818" points="302,519.6641,292,523.6641,302,527.6641,298,523.6641" style="stroke:#181818;stroke-width:1.0;"/><line style="stroke:#181818;stroke-width:1.0;" x1="296" x2="354.5" y1="523.6641" y2="523.6641"/><polygon fill="#181818" points="56,548.7969,46,552.7969,56,556.7969,52,552.7969" style="stroke:#181818;stroke-width:1.0;"/><line style="stroke:#181818;stroke-width:1.0;" x1="50" x2="290" y1="552.7969" y2="552.7969"/><text fill="#000000" font-family="sans-serif" font-size="13" lengthAdjust="spacing" textLength="154" x="62" y="547.731">&#1089;&#1087;&#1080;&#1089;&#1086;&#1082; &#1087;&#1086;&#1083;&#1100;&#1079;&#1086;&#1074;&#1072;&#1090;&#1077;&#1083;&#1077;&#1081;</text><rect fill="#EEEEEE" height="3" style="stroke:#EEEEEE;stroke-width:1.0;" width="686" x="0" y="581.3633"/><line style="stroke:#000000;stroke-width:1.0;" x1="0" x2="686" y1="581.3633" y2="581.3633"/><line style="stroke:#000000;stroke-width:1.0;" x1="0" x2="686" y1="584.3633" y2="584.3633"/><rect fill="#EEEEEE" height="23.1328" style="stroke:#000000;stroke-width:2.0;" width="213" x="236.5" y="570.7969"/><text fill="#000000" font-family="sans-serif" font-size="13" font-weight="bold" lengthAdjust="spacing" textLength="194" x="242.5" y="586.8638">&#1048;&#1079;&#1084;&#1077;&#1085;&#1077;&#1085;&#1080;&#1077; &#1087;&#1086;&#1083;&#1100;&#1079;&#1086;&#1074;&#1072;&#1090;&#1077;&#1083;&#1103;</text><polygon fill="#181818" points="279,621.0625,289,625.0625,279,629.0625,283,625.0625" style="stroke:#181818;stroke-width:1.0;"/><line style="stroke:#181818;stroke-width:1.0;" x1="45" x2="285" y1="625.0625" y2="625.0625"/><text fill="#000000" font-family="sans-serif" font-size="13" lengthAdjust="spacing" textLength="222" x="52" y="619.9966">&#1079;&#1072;&#1087;&#1088;&#1086;&#1089; &#1080;&#1079;&#1084;&#1077;&#1085;&#1077;&#1085;&#1080;&#1103; &#1087;&#1086;&#1083;&#1100;&#1079;&#1086;&#1074;&#1072;&#1090;&#1077;&#1083;&#1103;</text><polygon fill="#181818" points="343.5,635.0625,353.5,639.0625,343.5,643.0625,347.5,639.0625" style="stroke:#181818;stroke-width:1.0;"/><line style="stroke:#181818;stroke-width:1.0;" x1="291" x2="349.5" y1="639.0625" y2="639.0625"/><rect fill="none" height="39.1016" style="stroke:#000000;stroke-width:1.5;" width="682" x="2" y="647.0625"/><path d="M2,647.0625 L68,647.0625 L68,654.0625 L58,664.0625 L2,664.0625 L2,647.0625 " fill="#EEEEEE" style="stroke:#000000;stroke-width:2.0;"/><text fill="#000000" font-family="sans-serif" font-size="13" font-weight="bold" lengthAdjust="spacing" textLength="21" x="15" y="661.1294">ref</text><text fill="#000000" font-family="sans-serif" font-size="12" lengthAdjust="spacing" textLength="156" x="265" y="679.2012">&#1089;&#1094;&#1077;&#1085;&#1072;&#1088;&#1080;&#1081; &#1072;&#1074;&#1090;&#1086;&#1088;&#1080;&#1079;&#1072;&#1094;&#1080;&#1080;</text><polygon fill="#181818" points="366.5,708.2969,356.5,712.2969,366.5,716.2969,362.5,712.2969" style="stroke:#181818;stroke-width:1.0;"/><polygon fill="#181818" points="596.5,708.2969,606.5,712.2969,596.5,716.2969,600.5,712.2969" style="stroke:#181818;stroke-width:1.0;"/><line style="stroke:#181818;stroke-width:1.0;" x1="360.5" x2="602.5" y1="712.2969" y2="712.2969"/><text fill="#000000" font-family="sans-serif" font-size="13" lengthAdjust="spacing" textLength="172" x="372.5" y="707.231">&#1080;&#1079;&#1084;&#1077;&#1085;&#1077;&#1085;&#1080;&#1103; &#1087;&#1086;&#1083;&#1100;&#1079;&#1086;&#1074;&#1072;&#1090;&#1077;&#1083;&#1103;</text><polygon fill="#181818" points="302,722.2969,292,726.2969,302,730.2969,298,726.2969" style="stroke:#181818;stroke-width:1.0;"/><line style="stroke:#181818;stroke-width:1.0;" x1="296" x2="354.5" y1="726.2969" y2="726.2969"/><polygon fill="#181818" points="56,751.4297,46,755.4297,56,759.4297,52,755.4297" style="stroke:#181818;stroke-width:1.0;"/><line style="stroke:#181818;stroke-width:1.0;" x1="50" x2="290" y1="755.4297" y2="755.4297"/><text fill="#000000" font-family="sans-serif" font-size="13" lengthAdjust="spacing" textLength="209" x="62" y="750.3638">&#1087;&#1088;&#1080;&#1079;&#1085;&#1072;&#1082; &#1091;&#1089;&#1087;&#1077;&#1096;&#1085;&#1086;&#1089;&#1090;&#1080; &#1086;&#1087;&#1077;&#1088;&#1072;&#1094;&#1080;&#1080;</text><rect fill="#EEEEEE" height="3" style="stroke:#EEEEEE;stroke-width:1.0;" width="686" x="0" y="783.9961"/><line style="stroke:#000000;stroke-width:1.0;" x1="0" x2="686" y1="783.9961" y2="783.9961"/><line style="stroke:#000000;stroke-width:1.0;" x1="0" x2="686" y1="786.9961" y2="786.9961"/><rect fill="#EEEEEE" height="23.1328" style="stroke:#000000;stroke-width:2.0;" width="231" x="227.5" y="773.4297"/><text fill="#000000" font-family="sans-serif" font-size="13" font-weight="bold" lengthAdjust="spacing" textLength="212" x="233.5" y="789.4966">&#1048;&#1079;&#1084;&#1077;&#1085;&#1077;&#1085;&#1080;&#1077; &#1089;&#1074;&#1086;&#1077;&#1075;&#1086; &#1087;&#1088;&#1086;&#1092;&#1080;&#1083;&#1103;</text><rect fill="none" height="39.1016" style="stroke:#000000;stroke-width:1.5;" width="382" x="2" y="806.5625"/><path d="M2,806.5625 L68,806.5625 L68,813.5625 L58,823.5625 L2,823.5625 L2,806.5625 " fill="#EEEEEE" style="stroke:#000000;stroke-width:2.0;"/><text fill="#000000" font-family="sans-serif" font-size="13" font-weight="bold" lengthAdjust="spacing" textLength="21" x="15" y="820.6294">ref</text><text fill="#000000" font-family="sans-serif" font-size="12" lengthAdjust="spacing" textLength="200" x="93" y="838.7012">&#1089;&#1094;&#1077;&#1085;&#1072;&#1088;&#1080;&#1081; &#1080;&#1079;&#1084;&#1077;&#1085;&#1077;&#1085;&#1080;&#1103; &#1087;&#1088;&#1086;&#1092;&#1080;&#1083;&#1103;</text><rect fill="#EEEEEE" height="3" style="stroke:#EEEEEE;stroke-width:1.0;" width="686" x="0" y="871.2305"/><line style="stroke:#000000;stroke-width:1.0;" x1="0" x2="686" y1="871.2305" y2="871.2305"/><line style="stroke:#000000;stroke-width:1.0;" x1="0" x2="686" y1="874.2305" y2="874.2305"/><rect fill="#EEEEEE" height="23.1328" style="stroke:#000000;stroke-width:2.0;" width="92" x="297" y="860.6641"/><text fill="#000000" font-family="sans-serif" font-size="13" font-weight="bold" lengthAdjust="spacing" textLength="73" x="303" y="876.731">&#1054;&#1073;&#1091;&#1095;&#1077;&#1085;&#1080;&#1077;</text><rect fill="none" height="39.1016" style="stroke:#000000;stroke-width:1.5;" width="382" x="2" y="893.7969"/><path d="M2,893.7969 L68,893.7969 L68,900.7969 L58,910.7969 L2,910.7969 L2,893.7969 " fill="#EEEEEE" style="stroke:#000000;stroke-width:2.0;"/><text fill="#000000" font-family="sans-serif" font-size="13" font-weight="bold" lengthAdjust="spacing" textLength="21" x="15" y="907.8638">ref</text><text fill="#000000" font-family="sans-serif" font-size="12" lengthAdjust="spacing" textLength="128" x="129" y="925.9355">&#1089;&#1094;&#1077;&#1085;&#1072;&#1088;&#1080;&#1081; &#1086;&#1073;&#1091;&#1095;&#1077;&#1085;&#1080;&#1103;</text><rect fill="#EEEEEE" height="3" style="stroke:#EEEEEE;stroke-width:1.0;" width="686" x="0" y="958.4648"/><line style="stroke:#000000;stroke-width:1.0;" x1="0" x2="686" y1="958.4648" y2="958.4648"/><line style="stroke:#000000;stroke-width:1.0;" x1="0" x2="686" y1="961.4648" y2="961.4648"/><rect fill="#EEEEEE" height="23.1328" style="stroke:#000000;stroke-width:2.0;" width="69" x="308.5" y="947.8984"/><text fill="#000000" font-family="sans-serif" font-size="13" font-weight="bold" lengthAdjust="spacing" textLength="50" x="314.5" y="963.9653">&#1042;&#1099;&#1093;&#1086;&#1076;</text><rect fill="none" height="39.1016" style="stroke:#000000;stroke-width:1.5;" width="382" x="2" y="981.0313"/><path d="M2,981.0313 L68,981.0313 L68,988.0313 L58,998.0313 L2,998.0313 L2,981.0313 " fill="#EEEEEE" style="stroke:#000000;stroke-width:2.0;"/><text fill="#000000" font-family="sans-serif" font-size="13" font-weight="bold" lengthAdjust="spacing" textLength="21" x="15" y="995.0981">ref</text><text fill="#000000" font-family="sans-serif" font-size="12" lengthAdjust="spacing" textLength="265" x="60.5" y="1013.1699">&#1089;&#1094;&#1077;&#1085;&#1072;&#1088;&#1080;&#1081; &#1074;&#1099;&#1093;&#1086;&#1076;&#1072;, &#1088;&#1077;&#1076;&#1080;&#1088;&#1077;&#1082;&#1090; &#1085;&#1072; &#1075;&#1083;&#1072;&#1074;&#1085;&#1091;&#1102;</text><!--SRC=[lLN1JY915BptLxpe5Nw020VZnRFn0reOZHV63AFktX2KDT6uaMoodlJgJHoPq2ACl_3wZwpNp22wZ4GJzp8Dhr_Lgwfc6bqD_O2MkCjFtEC-nrXZsraYtQ3zXXUeBVy7yOtisfOzviGsUSGzMjwe-uTgJmVXRdLtJzT3SDpoaxtWWSFkwD0xr3_VTTnn7_Z4TLJzm5Cr7UejtV2mTyb_Y9yv0Sav3x16Cd8YY1-dWjPMbLUl4MGfLIuJT-q9UljKBgl0soR_m0jSNo6JK72JIcIFR0TCOx0ssV0ZuKFR3HZZQU3Dy12r3bPJ83J5oCEuTMXR94Xo6OtGCKQjFL7m5yLdiMMFQ7DTXCZyOYMTNoAuUUsOPM2ZqgPYnSNnaOD2Qd-k4uxW8N5V1va79IWgLgPdaQvI4ggIg7qdvnz3-IUoq6WkyljDhwGM1PZgQDjV3cuu1XUA1i-X76c-peK1JeaI7dv4v6AzmiR8QSXqp4VOtmkZDM-fWCYZ-izPVqBOmd2TNI643iIB4vIqOtkA0bAGbvR0AQNcL59Eqe16w8tvWHDASvGNFWtxipV7F9kpd1CPrtp_vcVtXK79B4N6sxLdNx_qeWpClTnBxi7z6KIu6DlsuWK0]--></g></svg>