<?xml version="1.0" encoding="us-ascii" standalone="no"?><svg xmlns="http://www.w3.org/2000/svg" xmlns:xlink="http://www.w3.org/1999/xlink" contentStyleType="text/css" height="1820px" preserveAspectRatio="none" style="width:714px;height:1820px;background:#FFFFFF;" version="1.1" viewBox="0 0 714 1820" width="714px" zoomAndPan="magnify"><defs/><g><rect fill="#FFFAFA" height="1808.8594" style="stroke:#181818;stroke-width:0.5;" width="461" x="245" y="6"/><text fill="#000000" font-family="sans-serif" font-size="13" font-weight="bold" lengthAdjust="spacing" textLength="90" x="428" y="18.0669">&#1055;&#1083;&#1072;&#1090;&#1092;&#1086;&#1088;&#1084;&#1072;</text><rect fill="none" height="77.3984" style="stroke:#000000;stroke-width:1.5;" width="293" x="307" y="1133.6953"/><line style="stroke:#181818;stroke-width:0.5;stroke-dasharray:5.0,5.0;" x1="45" x2="45" y1="87.4297" y2="1735.5625"/><line style="stroke:#181818;stroke-width:0.5;stroke-dasharray:5.0,5.0;" x1="278" x2="278" y1="87.4297" y2="1735.5625"/><line style="stroke:#181818;stroke-width:0.5;stroke-dasharray:5.0,5.0;" x1="342" x2="342" y1="87.4297" y2="1735.5625"/><line style="stroke:#181818;stroke-width:0.5;stroke-dasharray:5.0,5.0;" x1="517" x2="517" y1="87.4297" y2="1735.5625"/><line style="stroke:#181818;stroke-width:0.5;stroke-dasharray:5.0,5.0;" x1="651" x2="651" y1="87.4297" y2="1735.5625"/><text fill="#000000" font-family="sans-serif" font-size="14" lengthAdjust="spacing" textLength="74" x="5" y="84.1279">&#1042;&#1083;&#1072;&#1076;&#1077;&#1083;&#1077;&#1094;</text><ellipse cx="45" cy="19.6328" fill="#E2E2F0" rx="8" ry="8" style="stroke:#181818;stroke-width:0.5;"/><path d="M45,27.6328 L45,54.6328 M32,35.6328 L58,35.6328 M45,54.6328 L32,69.6328 M45,54.6328 L58,69.6328 " fill="none" style="stroke:#181818;stroke-width:0.5;"/><text fill="#000000" font-family="sans-serif" font-size="14" lengthAdjust="spacing" textLength="74" x="5" y="1747.5576">&#1042;&#1083;&#1072;&#1076;&#1077;&#1083;&#1077;&#1094;</text><ellipse cx="45" cy="1759.3594" fill="#E2E2F0" rx="8" ry="8" style="stroke:#181818;stroke-width:0.5;"/><path d="M45,1767.3594 L45,1794.3594 M32,1775.3594 L58,1775.3594 M45,1794.3594 L32,1809.3594 M45,1794.3594 L58,1809.3594 " fill="none" style="stroke:#181818;stroke-width:0.5;"/><rect fill="#E2E2F0" height="30.2969" rx="2.5" ry="2.5" style="stroke:#181818;stroke-width:0.5;" width="58" x="249" y="56.1328"/><text fill="#000000" font-family="sans-serif" font-size="14" lengthAdjust="spacing" textLength="44" x="256" y="76.1279">&#1064;&#1083;&#1102;&#1079;</text><rect fill="#E2E2F0" height="30.2969" rx="2.5" ry="2.5" style="stroke:#181818;stroke-width:0.5;" width="58" x="249" y="1734.5625"/><text fill="#000000" font-family="sans-serif" font-size="14" lengthAdjust="spacing" textLength="44" x="256" y="1754.5576">&#1064;&#1083;&#1102;&#1079;</text><rect fill="#E2E2F0" height="30.2969" rx="2.5" ry="2.5" style="stroke:#181818;stroke-width:0.5;" width="51" x="317" y="56.1328"/><text fill="#000000" font-family="sans-serif" font-size="14" lengthAdjust="spacing" textLength="37" x="324" y="76.1279">&#1071;&#1076;&#1088;&#1086;</text><rect fill="#E2E2F0" height="30.2969" rx="2.5" ry="2.5" style="stroke:#181818;stroke-width:0.5;" width="51" x="317" y="1734.5625"/><text fill="#000000" font-family="sans-serif" font-size="14" lengthAdjust="spacing" textLength="37" x="324" y="1754.5576">&#1071;&#1076;&#1088;&#1086;</text><text fill="#000000" font-family="sans-serif" font-size="14" lengthAdjust="spacing" textLength="139" x="445" y="84.1279">&#1041;&#1044; &#1087;&#1086;&#1083;&#1100;&#1079;&#1086;&#1074;&#1072;&#1090;&#1077;&#1083;&#1077;&#1081;</text><path d="M499.5,35.1328 C499.5,25.1328 517.5,25.1328 517.5,25.1328 C517.5,25.1328 535.5,25.1328 535.5,35.1328 L535.5,61.1328 C535.5,71.1328 517.5,71.1328 517.5,71.1328 C517.5,71.1328 499.5,71.1328 499.5,61.1328 L499.5,35.1328 " fill="#E2E2F0" style="stroke:#181818;stroke-width:1.5;"/><path d="M499.5,35.1328 C499.5,45.1328 517.5,45.1328 517.5,45.1328 C517.5,45.1328 535.5,45.1328 535.5,35.1328 " fill="none" style="stroke:#181818;stroke-width:1.5;"/><text fill="#000000" font-family="sans-serif" font-size="14" lengthAdjust="spacing" textLength="139" x="445" y="1747.5576">&#1041;&#1044; &#1087;&#1086;&#1083;&#1100;&#1079;&#1086;&#1074;&#1072;&#1090;&#1077;&#1083;&#1077;&#1081;</text><path d="M499.5,1760.8594 C499.5,1750.8594 517.5,1750.8594 517.5,1750.8594 C517.5,1750.8594 535.5,1750.8594 535.5,1760.8594 L535.5,1786.8594 C535.5,1796.8594 517.5,1796.8594 517.5,1796.8594 C517.5,1796.8594 499.5,1796.8594 499.5,1786.8594 L499.5,1760.8594 " fill="#E2E2F0" style="stroke:#181818;stroke-width:1.5;"/><path d="M499.5,1760.8594 C499.5,1770.8594 517.5,1770.8594 517.5,1770.8594 C517.5,1770.8594 535.5,1770.8594 535.5,1760.8594 " fill="none" style="stroke:#181818;stroke-width:1.5;"/><text fill="#000000" font-family="sans-serif" font-size="14" lengthAdjust="spacing" textLength="96" x="600" y="84.1279">&#1041;&#1044; &#1082;&#1072;&#1084;&#1087;&#1072;&#1085;&#1080;&#1081;</text><path d="M633,35.1328 C633,25.1328 651,25.1328 651,25.1328 C651,25.1328 669,25.1328 669,35.1328 L669,61.1328 C669,71.1328 651,71.1328 651,71.1328 C651,71.1328 633,71.1328 633,61.1328 L633,35.1328 " fill="#E2E2F0" style="stroke:#181818;stroke-width:1.5;"/><path d="M633,35.1328 C633,45.1328 651,45.1328 651,45.1328 C651,45.1328 669,45.1328 669,35.1328 " fill="none" style="stroke:#181818;stroke-width:1.5;"/><text fill="#000000" font-family="sans-serif" font-size="14" lengthAdjust="spacing" textLength="96" x="600" y="1747.5576">&#1041;&#1044; &#1082;&#1072;&#1084;&#1087;&#1072;&#1085;&#1080;&#1081;</text><path d="M633,1760.8594 C633,1750.8594 651,1750.8594 651,1750.8594 C651,1750.8594 669,1750.8594 669,1760.8594 L669,1786.8594 C669,1796.8594 651,1796.8594 651,1796.8594 C651,1796.8594 633,1796.8594 633,1786.8594 L633,1760.8594 " fill="#E2E2F0" style="stroke:#181818;stroke-width:1.5;"/><path d="M633,1760.8594 C633,1770.8594 651,1770.8594 651,1770.8594 C651,1770.8594 669,1770.8594 669,1760.8594 " fill="none" style="stroke:#181818;stroke-width:1.5;"/><rect fill="#EEEEEE" height="3" style="stroke:#EEEEEE;stroke-width:1.0;" width="707" x="0" y="117.9961"/><line style="stroke:#000000;stroke-width:1.0;" x1="0" x2="707" y1="117.9961" y2="117.9961"/><line style="stroke:#000000;stroke-width:1.0;" x1="0" x2="707" y1="120.9961" y2="120.9961"/><rect fill="#EEEEEE" height="23.1328" style="stroke:#000000;stroke-width:2.0;" width="57" x="325" y="107.4297"/><text fill="#000000" font-family="sans-serif" font-size="13" font-weight="bold" lengthAdjust="spacing" textLength="38" x="331" y="123.4966">&#1042;&#1093;&#1086;&#1076;</text><rect fill="none" height="39.1016" style="stroke:#000000;stroke-width:1.5;" width="369" x="2" y="140.5625"/><path d="M2,140.5625 L68,140.5625 L68,147.5625 L58,157.5625 L2,157.5625 L2,140.5625 " fill="#EEEEEE" style="stroke:#000000;stroke-width:2.0;"/><text fill="#000000" font-family="sans-serif" font-size="13" font-weight="bold" lengthAdjust="spacing" textLength="21" x="15" y="154.6294">ref</text><text fill="#000000" font-family="sans-serif" font-size="12" lengthAdjust="spacing" textLength="335" x="19" y="172.7012">&#1089;&#1094;&#1077;&#1085;&#1072;&#1088;&#1080;&#1081; &#1072;&#1091;&#1090;&#1077;&#1085;&#1090;&#1080;&#1092;&#1080;&#1082;&#1072;&#1094;&#1080;&#1080;, &#1088;&#1077;&#1076;&#1080;&#1088;&#1077;&#1082;&#1090; &#1085;&#1072; &#1072;&#1076;&#1084;&#1080;&#1085;&#1082;&#1091;</text><rect fill="#EEEEEE" height="3" style="stroke:#EEEEEE;stroke-width:1.0;" width="707" x="0" y="205.2305"/><line style="stroke:#000000;stroke-width:1.0;" x1="0" x2="707" y1="205.2305" y2="205.2305"/><line style="stroke:#000000;stroke-width:1.0;" x1="0" x2="707" y1="208.2305" y2="208.2305"/><rect fill="#EEEEEE" height="23.1328" style="stroke:#000000;stroke-width:2.0;" width="92" x="307.5" y="194.6641"/><text fill="#000000" font-family="sans-serif" font-size="13" font-weight="bold" lengthAdjust="spacing" textLength="73" x="313.5" y="210.731">&#1047;&#1072;&#1087;&#1088;&#1086;&#1089; UI</text><polygon fill="#181818" points="266,244.9297,276,248.9297,266,252.9297,270,248.9297" style="stroke:#181818;stroke-width:1.0;"/><line style="stroke:#181818;stroke-width:1.0;" x1="45" x2="272" y1="248.9297" y2="248.9297"/><text fill="#000000" font-family="sans-serif" font-size="13" lengthAdjust="spacing" textLength="63" x="52" y="243.8638">&#1079;&#1072;&#1087;&#1088;&#1086;&#1089; UI</text><polygon fill="#181818" points="330.5,258.9297,340.5,262.9297,330.5,266.9297,334.5,262.9297" style="stroke:#181818;stroke-width:1.0;"/><line style="stroke:#181818;stroke-width:1.0;" x1="278" x2="336.5" y1="262.9297" y2="262.9297"/><rect fill="none" height="39.1016" style="stroke:#000000;stroke-width:1.5;" width="591" x="2" y="270.9297"/><path d="M2,270.9297 L68,270.9297 L68,277.9297 L58,287.9297 L2,287.9297 L2,270.9297 " fill="#EEEEEE" style="stroke:#000000;stroke-width:2.0;"/><text fill="#000000" font-family="sans-serif" font-size="13" font-weight="bold" lengthAdjust="spacing" textLength="21" x="15" y="284.9966">ref</text><text fill="#000000" font-family="sans-serif" font-size="12" lengthAdjust="spacing" textLength="156" x="219.5" y="303.0684">&#1089;&#1094;&#1077;&#1085;&#1072;&#1088;&#1080;&#1081; &#1072;&#1074;&#1090;&#1086;&#1088;&#1080;&#1079;&#1072;&#1094;&#1080;&#1080;</text><polygon fill="#181818" points="289,317.0313,279,321.0313,289,325.0313,285,321.0313" style="stroke:#181818;stroke-width:1.0;"/><line style="stroke:#181818;stroke-width:1.0;" x1="283" x2="341.5" y1="321.0313" y2="321.0313"/><polygon fill="#181818" points="56,346.1641,46,350.1641,56,354.1641,52,350.1641" style="stroke:#181818;stroke-width:1.0;"/><line style="stroke:#181818;stroke-width:1.0;" x1="50" x2="277" y1="350.1641" y2="350.1641"/><text fill="#000000" font-family="sans-serif" font-size="13" lengthAdjust="spacing" textLength="13" x="62" y="345.0981">UI</text><rect fill="#EEEEEE" height="3" style="stroke:#EEEEEE;stroke-width:1.0;" width="707" x="0" y="378.7305"/><line style="stroke:#000000;stroke-width:1.0;" x1="0" x2="707" y1="378.7305" y2="378.7305"/><line style="stroke:#000000;stroke-width:1.0;" x1="0" x2="707" y1="381.7305" y2="381.7305"/><rect fill="#EEEEEE" height="23.1328" style="stroke:#000000;stroke-width:2.0;" width="203" x="252" y="368.1641"/><text fill="#000000" font-family="sans-serif" font-size="13" font-weight="bold" lengthAdjust="spacing" textLength="184" x="258" y="384.231">&#1055;&#1086;&#1080;&#1089;&#1082; &#1080;&#1075;&#1088;&#1086;&#1074;&#1086;&#1081; &#1082;&#1086;&#1084;&#1085;&#1072;&#1090;&#1099;</text><polygon fill="#181818" points="266,418.4297,276,422.4297,266,426.4297,270,422.4297" style="stroke:#181818;stroke-width:1.0;"/><line style="stroke:#181818;stroke-width:1.0;" x1="45" x2="272" y1="422.4297" y2="422.4297"/><text fill="#000000" font-family="sans-serif" font-size="13" lengthAdjust="spacing" textLength="162" x="52" y="417.3638">&#1087;&#1086;&#1080;&#1089;&#1082; &#1080;&#1075;&#1088;&#1086;&#1074;&#1086;&#1081; &#1082;&#1086;&#1084;&#1085;&#1072;&#1090;&#1099;</text><polygon fill="#181818" points="330.5,432.4297,340.5,436.4297,330.5,440.4297,334.5,436.4297" style="stroke:#181818;stroke-width:1.0;"/><line style="stroke:#181818;stroke-width:1.0;" x1="278" x2="336.5" y1="436.4297" y2="436.4297"/><rect fill="none" height="39.1016" style="stroke:#000000;stroke-width:1.5;" width="591" x="2" y="444.4297"/><path d="M2,444.4297 L68,444.4297 L68,451.4297 L58,461.4297 L2,461.4297 L2,444.4297 " fill="#EEEEEE" style="stroke:#000000;stroke-width:2.0;"/><text fill="#000000" font-family="sans-serif" font-size="13" font-weight="bold" lengthAdjust="spacing" textLength="21" x="15" y="458.4966">ref</text><text fill="#000000" font-family="sans-serif" font-size="12" lengthAdjust="spacing" textLength="156" x="219.5" y="476.5684">&#1089;&#1094;&#1077;&#1085;&#1072;&#1088;&#1080;&#1081; &#1072;&#1074;&#1090;&#1086;&#1088;&#1080;&#1079;&#1072;&#1094;&#1080;&#1080;</text><polygon fill="#181818" points="353.5,505.6641,343.5,509.6641,353.5,513.6641,349.5,509.6641" style="stroke:#181818;stroke-width:1.0;"/><polygon fill="#181818" points="639,505.6641,649,509.6641,639,513.6641,643,509.6641" style="stroke:#181818;stroke-width:1.0;"/><line style="stroke:#181818;stroke-width:1.0;" x1="347.5" x2="645" y1="509.6641" y2="509.6641"/><text fill="#000000" font-family="sans-serif" font-size="13" lengthAdjust="spacing" textLength="270" x="359.5" y="504.5981">&#1074;&#1099;&#1073;&#1086;&#1088;&#1082;&#1072; &#1080;&#1075;&#1088;&#1086;&#1074;&#1099;&#1093; &#1082;&#1086;&#1084;&#1085;&#1072;&#1090; &#1087;&#1086; &#1082;&#1088;&#1080;&#1090;&#1077;&#1088;&#1080;&#1103;&#1084;</text><polygon fill="#181818" points="289,519.6641,279,523.6641,289,527.6641,285,523.6641" style="stroke:#181818;stroke-width:1.0;"/><line style="stroke:#181818;stroke-width:1.0;" x1="283" x2="341.5" y1="523.6641" y2="523.6641"/><polygon fill="#181818" points="56,548.7969,46,552.7969,56,556.7969,52,552.7969" style="stroke:#181818;stroke-width:1.0;"/><line style="stroke:#181818;stroke-width:1.0;" x1="50" x2="277" y1="552.7969" y2="552.7969"/><text fill="#000000" font-family="sans-serif" font-size="13" lengthAdjust="spacing" textLength="160" x="62" y="547.731">&#1089;&#1087;&#1080;&#1089;&#1086;&#1082; &#1080;&#1075;&#1088;&#1086;&#1074;&#1099;&#1093; &#1082;&#1086;&#1084;&#1085;&#1072;&#1090;</text><rect fill="#EEEEEE" height="3" style="stroke:#EEEEEE;stroke-width:1.0;" width="707" x="0" y="581.3633"/><line style="stroke:#000000;stroke-width:1.0;" x1="0" x2="707" y1="581.3633" y2="581.3633"/><line style="stroke:#000000;stroke-width:1.0;" x1="0" x2="707" y1="584.3633" y2="584.3633"/><rect fill="#EEEEEE" height="23.1328" style="stroke:#000000;stroke-width:2.0;" width="258" x="224.5" y="570.7969"/><text fill="#000000" font-family="sans-serif" font-size="13" font-weight="bold" lengthAdjust="spacing" textLength="239" x="230.5" y="586.8638">&#1042;&#1089;&#1090;&#1091;&#1087;&#1083;&#1077;&#1085;&#1080;&#1077; &#1074; &#1080;&#1075;&#1088;&#1086;&#1074;&#1091;&#1102; &#1082;&#1086;&#1084;&#1085;&#1072;&#1090;&#1091;</text><polygon fill="#181818" points="266,636.1953,276,640.1953,266,644.1953,270,640.1953" style="stroke:#181818;stroke-width:1.0;"/><line style="stroke:#181818;stroke-width:1.0;" x1="45" x2="272" y1="640.1953" y2="640.1953"/><text fill="#000000" font-family="sans-serif" font-size="13" lengthAdjust="spacing" textLength="150" x="52" y="619.9966">&#1079;&#1072;&#1103;&#1074;&#1082;&#1072; &#1085;&#1072; &#1074;&#1089;&#1090;&#1091;&#1087;&#1083;&#1077;&#1085;&#1080;&#1077;</text><text fill="#000000" font-family="sans-serif" font-size="13" lengthAdjust="spacing" textLength="130" x="52" y="635.1294">&#1074; &#1080;&#1075;&#1088;&#1086;&#1074;&#1091;&#1102; &#1082;&#1086;&#1084;&#1085;&#1072;&#1090;&#1091;</text><polygon fill="#181818" points="330.5,650.1953,340.5,654.1953,330.5,658.1953,334.5,654.1953" style="stroke:#181818;stroke-width:1.0;"/><line style="stroke:#181818;stroke-width:1.0;" x1="278" x2="336.5" y1="654.1953" y2="654.1953"/><rect fill="none" height="39.1016" style="stroke:#000000;stroke-width:1.5;" width="591" x="2" y="662.1953"/><path d="M2,662.1953 L68,662.1953 L68,669.1953 L58,679.1953 L2,679.1953 L2,662.1953 " fill="#EEEEEE" style="stroke:#000000;stroke-width:2.0;"/><text fill="#000000" font-family="sans-serif" font-size="13" font-weight="bold" lengthAdjust="spacing" textLength="21" x="15" y="676.2622">ref</text><text fill="#000000" font-family="sans-serif" font-size="12" lengthAdjust="spacing" textLength="156" x="219.5" y="694.334">&#1089;&#1094;&#1077;&#1085;&#1072;&#1088;&#1080;&#1081; &#1072;&#1074;&#1090;&#1086;&#1088;&#1080;&#1079;&#1072;&#1094;&#1080;&#1080;</text><polygon fill="#181818" points="353.5,723.4297,343.5,727.4297,353.5,731.4297,349.5,727.4297" style="stroke:#181818;stroke-width:1.0;"/><polygon fill="#181818" points="639,723.4297,649,727.4297,639,731.4297,643,727.4297" style="stroke:#181818;stroke-width:1.0;"/><line style="stroke:#181818;stroke-width:1.0;" x1="347.5" x2="645" y1="727.4297" y2="727.4297"/><text fill="#000000" font-family="sans-serif" font-size="13" lengthAdjust="spacing" textLength="139" x="359.5" y="722.3638">&#1088;&#1077;&#1075;&#1080;&#1089;&#1090;&#1088;&#1072;&#1094;&#1080;&#1103; &#1079;&#1072;&#1103;&#1074;&#1082;&#1080;</text><polygon fill="#181818" points="289,737.4297,279,741.4297,289,745.4297,285,741.4297" style="stroke:#181818;stroke-width:1.0;"/><line style="stroke:#181818;stroke-width:1.0;" x1="283" x2="341.5" y1="741.4297" y2="741.4297"/><polygon fill="#181818" points="56,766.5625,46,770.5625,56,774.5625,52,770.5625" style="stroke:#181818;stroke-width:1.0;"/><line style="stroke:#181818;stroke-width:1.0;" x1="50" x2="277" y1="770.5625" y2="770.5625"/><text fill="#000000" font-family="sans-serif" font-size="13" lengthAdjust="spacing" textLength="209" x="62" y="765.4966">&#1087;&#1088;&#1080;&#1079;&#1085;&#1072;&#1082; &#1091;&#1089;&#1087;&#1077;&#1096;&#1085;&#1086;&#1089;&#1090;&#1080; &#1086;&#1087;&#1077;&#1088;&#1072;&#1094;&#1080;&#1080;</text><rect fill="#EEEEEE" height="3" style="stroke:#EEEEEE;stroke-width:1.0;" width="707" x="0" y="799.1289"/><line style="stroke:#000000;stroke-width:1.0;" x1="0" x2="707" y1="799.1289" y2="799.1289"/><line style="stroke:#000000;stroke-width:1.0;" x1="0" x2="707" y1="802.1289" y2="802.1289"/><rect fill="#EEEEEE" height="23.1328" style="stroke:#000000;stroke-width:2.0;" width="242" x="232.5" y="788.5625"/><text fill="#000000" font-family="sans-serif" font-size="13" font-weight="bold" lengthAdjust="spacing" textLength="223" x="238.5" y="804.6294">&#1055;&#1086;&#1082;&#1080;&#1076;&#1072;&#1085;&#1080;&#1077; &#1080;&#1075;&#1088;&#1086;&#1074;&#1086;&#1081; &#1082;&#1086;&#1084;&#1085;&#1072;&#1090;&#1099;</text><polygon fill="#181818" points="266,853.9609,276,857.9609,266,861.9609,270,857.9609" style="stroke:#181818;stroke-width:1.0;"/><line style="stroke:#181818;stroke-width:1.0;" x1="45" x2="272" y1="857.9609" y2="857.9609"/><text fill="#000000" font-family="sans-serif" font-size="13" lengthAdjust="spacing" textLength="145" x="52" y="837.7622">&#1079;&#1072;&#1103;&#1074;&#1082;&#1072; &#1085;&#1072; &#1087;&#1086;&#1082;&#1080;&#1076;&#1072;&#1085;&#1080;&#1077;</text><text fill="#000000" font-family="sans-serif" font-size="13" lengthAdjust="spacing" textLength="131" x="52" y="852.895">&#1074; &#1080;&#1075;&#1088;&#1086;&#1074;&#1086;&#1081; &#1082;&#1086;&#1084;&#1085;&#1072;&#1090;&#1099;</text><polygon fill="#181818" points="330.5,867.9609,340.5,871.9609,330.5,875.9609,334.5,871.9609" style="stroke:#181818;stroke-width:1.0;"/><line style="stroke:#181818;stroke-width:1.0;" x1="278" x2="336.5" y1="871.9609" y2="871.9609"/><rect fill="none" height="39.1016" style="stroke:#000000;stroke-width:1.5;" width="591" x="2" y="879.9609"/><path d="M2,879.9609 L68,879.9609 L68,886.9609 L58,896.9609 L2,896.9609 L2,879.9609 " fill="#EEEEEE" style="stroke:#000000;stroke-width:2.0;"/><text fill="#000000" font-family="sans-serif" font-size="13" font-weight="bold" lengthAdjust="spacing" textLength="21" x="15" y="894.0278">ref</text><text fill="#000000" font-family="sans-serif" font-size="12" lengthAdjust="spacing" textLength="156" x="219.5" y="912.0996">&#1089;&#1094;&#1077;&#1085;&#1072;&#1088;&#1080;&#1081; &#1072;&#1074;&#1090;&#1086;&#1088;&#1080;&#1079;&#1072;&#1094;&#1080;&#1080;</text><polygon fill="#181818" points="353.5,941.1953,343.5,945.1953,353.5,949.1953,349.5,945.1953" style="stroke:#181818;stroke-width:1.0;"/><polygon fill="#181818" points="639,941.1953,649,945.1953,639,949.1953,643,945.1953" style="stroke:#181818;stroke-width:1.0;"/><line style="stroke:#181818;stroke-width:1.0;" x1="347.5" x2="645" y1="945.1953" y2="945.1953"/><text fill="#000000" font-family="sans-serif" font-size="13" lengthAdjust="spacing" textLength="200" x="359.5" y="940.1294">&#1091;&#1076;&#1072;&#1083;&#1077;&#1085;&#1080;&#1077; &#1076;&#1086;&#1089;&#1090;&#1091;&#1087;&#1072; &#1082; &#1082;&#1086;&#1084;&#1085;&#1072;&#1090;&#1077;</text><polygon fill="#181818" points="289,955.1953,279,959.1953,289,963.1953,285,959.1953" style="stroke:#181818;stroke-width:1.0;"/><line style="stroke:#181818;stroke-width:1.0;" x1="283" x2="341.5" y1="959.1953" y2="959.1953"/><polygon fill="#181818" points="56,984.3281,46,988.3281,56,992.3281,52,988.3281" style="stroke:#181818;stroke-width:1.0;"/><line style="stroke:#181818;stroke-width:1.0;" x1="50" x2="277" y1="988.3281" y2="988.3281"/><text fill="#000000" font-family="sans-serif" font-size="13" lengthAdjust="spacing" textLength="209" x="62" y="983.2622">&#1087;&#1088;&#1080;&#1079;&#1085;&#1072;&#1082; &#1091;&#1089;&#1087;&#1077;&#1096;&#1085;&#1086;&#1089;&#1090;&#1080; &#1086;&#1087;&#1077;&#1088;&#1072;&#1094;&#1080;&#1080;</text><rect fill="#EEEEEE" height="3" style="stroke:#EEEEEE;stroke-width:1.0;" width="707" x="0" y="1016.8945"/><line style="stroke:#000000;stroke-width:1.0;" x1="0" x2="707" y1="1016.8945" y2="1016.8945"/><line style="stroke:#000000;stroke-width:1.0;" x1="0" x2="707" y1="1019.8945" y2="1019.8945"/><rect fill="#EEEEEE" height="23.1328" style="stroke:#000000;stroke-width:2.0;" width="377" x="165" y="1006.3281"/><text fill="#000000" font-family="sans-serif" font-size="13" font-weight="bold" lengthAdjust="spacing" textLength="358" x="171" y="1022.395">&#1057;&#1086;&#1079;&#1076;&#1072;&#1085;&#1080;&#1077;/&#1088;&#1077;&#1076;&#1072;&#1082;&#1090;&#1080;&#1088;&#1086;&#1074;&#1072;&#1085;&#1080;&#1077;/&#1080;&#1084;&#1087;&#1086;&#1088;&#1090; &#1087;&#1077;&#1088;&#1089;&#1086;&#1085;&#1072;&#1078;&#1072;</text><polygon fill="#181818" points="266,1056.5938,276,1060.5938,266,1064.5938,270,1060.5938" style="stroke:#181818;stroke-width:1.0;"/><line style="stroke:#181818;stroke-width:1.0;" x1="45" x2="272" y1="1060.5938" y2="1060.5938"/><text fill="#000000" font-family="sans-serif" font-size="13" lengthAdjust="spacing" textLength="115" x="52" y="1055.5278">&#1079;&#1072;&#1087;&#1088;&#1086;&#1089; &#1086;&#1087;&#1077;&#1088;&#1072;&#1094;&#1080;&#1080;</text><polygon fill="#181818" points="330.5,1070.5938,340.5,1074.5938,330.5,1078.5938,334.5,1074.5938" style="stroke:#181818;stroke-width:1.0;"/><line style="stroke:#181818;stroke-width:1.0;" x1="278" x2="336.5" y1="1074.5938" y2="1074.5938"/><rect fill="none" height="39.1016" style="stroke:#000000;stroke-width:1.5;" width="591" x="2" y="1082.5938"/><path d="M2,1082.5938 L68,1082.5938 L68,1089.5938 L58,1099.5938 L2,1099.5938 L2,1082.5938 " fill="#EEEEEE" style="stroke:#000000;stroke-width:2.0;"/><text fill="#000000" font-family="sans-serif" font-size="13" font-weight="bold" lengthAdjust="spacing" textLength="21" x="15" y="1096.6606">ref</text><text fill="#000000" font-family="sans-serif" font-size="12" lengthAdjust="spacing" textLength="156" x="219.5" y="1114.7324">&#1089;&#1094;&#1077;&#1085;&#1072;&#1088;&#1080;&#1081; &#1072;&#1074;&#1090;&#1086;&#1088;&#1080;&#1079;&#1072;&#1094;&#1080;&#1080;</text><path d="M307,1133.6953 L371,1133.6953 L371,1140.8281 L361,1150.8281 L307,1150.8281 L307,1133.6953 " fill="#EEEEEE" style="stroke:#000000;stroke-width:1.5;"/><rect fill="none" height="77.3984" style="stroke:#000000;stroke-width:1.5;" width="293" x="307" y="1133.6953"/><text fill="#000000" font-family="sans-serif" font-size="13" font-weight="bold" lengthAdjust="spacing" textLength="19" x="322" y="1146.7622">alt</text><polygon fill="#181818" points="353.5,1167.9609,343.5,1171.9609,353.5,1175.9609,349.5,1171.9609" style="stroke:#181818;stroke-width:1.0;"/><polygon fill="#181818" points="505.5,1167.9609,515.5,1171.9609,505.5,1175.9609,509.5,1171.9609" style="stroke:#181818;stroke-width:1.0;"/><line style="stroke:#181818;stroke-width:1.0;" x1="347.5" x2="511.5" y1="1171.9609" y2="1171.9609"/><text fill="#000000" font-family="sans-serif" font-size="13" lengthAdjust="spacing" textLength="143" x="359.5" y="1166.895">&#1089;&#1086;&#1079;&#1076;&#1072;&#1085;&#1080;&#1077; &#1087;&#1077;&#1088;&#1089;&#1086;&#1085;&#1072;&#1078;&#1072;</text><line style="stroke:#000000;stroke-width:1.0;stroke-dasharray:2.0,2.0;" x1="307" x2="600" y1="1180.9609" y2="1180.9609"/><polygon fill="#181818" points="353.5,1199.0938,343.5,1203.0938,353.5,1207.0938,349.5,1203.0938" style="stroke:#181818;stroke-width:1.0;"/><polygon fill="#181818" points="505.5,1199.0938,515.5,1203.0938,505.5,1207.0938,509.5,1203.0938" style="stroke:#181818;stroke-width:1.0;"/><line style="stroke:#181818;stroke-width:1.0;" x1="347.5" x2="511.5" y1="1203.0938" y2="1203.0938"/><text fill="#000000" font-family="sans-serif" font-size="13" lengthAdjust="spacing" textLength="151" x="359.5" y="1198.0278">&#1080;&#1079;&#1084;&#1077;&#1085;&#1077;&#1085;&#1080;&#1077; &#1087;&#1077;&#1088;&#1089;&#1086;&#1085;&#1072;&#1078;&#1072;</text><polygon fill="#181818" points="289,1220.0938,279,1224.0938,289,1228.0938,285,1224.0938" style="stroke:#181818;stroke-width:1.0;"/><line style="stroke:#181818;stroke-width:1.0;" x1="283" x2="341.5" y1="1224.0938" y2="1224.0938"/><polygon fill="#181818" points="56,1249.2266,46,1253.2266,56,1257.2266,52,1253.2266" style="stroke:#181818;stroke-width:1.0;"/><line style="stroke:#181818;stroke-width:1.0;" x1="50" x2="277" y1="1253.2266" y2="1253.2266"/><text fill="#000000" font-family="sans-serif" font-size="13" lengthAdjust="spacing" textLength="173" x="62" y="1248.1606">&#1087;&#1088;&#1080;&#1079;&#1085;&#1072;&#1082; &#1091;&#1089;&#1087;&#1077;&#1093;&#1072; &#1086;&#1087;&#1077;&#1088;&#1072;&#1094;&#1080;&#1080;</text><rect fill="#EEEEEE" height="3" style="stroke:#EEEEEE;stroke-width:1.0;" width="707" x="0" y="1281.793"/><line style="stroke:#000000;stroke-width:1.0;" x1="0" x2="707" y1="1281.793" y2="1281.793"/><line style="stroke:#000000;stroke-width:1.0;" x1="0" x2="707" y1="1284.793" y2="1284.793"/><rect fill="#EEEEEE" height="23.1328" style="stroke:#000000;stroke-width:2.0;" width="258" x="224.5" y="1271.2266"/><text fill="#000000" font-family="sans-serif" font-size="13" font-weight="bold" lengthAdjust="spacing" textLength="239" x="230.5" y="1287.2935">&#1055;&#1086;&#1083;&#1091;&#1095;&#1077;&#1085;&#1080;&#1077;/&#1101;&#1082;&#1089;&#1087;&#1086;&#1088;&#1090; &#1087;&#1077;&#1088;&#1089;&#1086;&#1085;&#1072;&#1078;&#1072;</text><polygon fill="#181818" points="266,1321.4922,276,1325.4922,266,1329.4922,270,1325.4922" style="stroke:#181818;stroke-width:1.0;"/><line style="stroke:#181818;stroke-width:1.0;" x1="45" x2="272" y1="1325.4922" y2="1325.4922"/><text fill="#000000" font-family="sans-serif" font-size="13" lengthAdjust="spacing" textLength="115" x="52" y="1320.4263">&#1079;&#1072;&#1087;&#1088;&#1086;&#1089; &#1086;&#1087;&#1077;&#1088;&#1072;&#1094;&#1080;&#1080;</text><polygon fill="#181818" points="330.5,1335.4922,340.5,1339.4922,330.5,1343.4922,334.5,1339.4922" style="stroke:#181818;stroke-width:1.0;"/><line style="stroke:#181818;stroke-width:1.0;" x1="278" x2="336.5" y1="1339.4922" y2="1339.4922"/><rect fill="none" height="39.1016" style="stroke:#000000;stroke-width:1.5;" width="591" x="2" y="1347.4922"/><path d="M2,1347.4922 L68,1347.4922 L68,1354.4922 L58,1364.4922 L2,1364.4922 L2,1347.4922 " fill="#EEEEEE" style="stroke:#000000;stroke-width:2.0;"/><text fill="#000000" font-family="sans-serif" font-size="13" font-weight="bold" lengthAdjust="spacing" textLength="21" x="15" y="1361.5591">ref</text><text fill="#000000" font-family="sans-serif" font-size="12" lengthAdjust="spacing" textLength="156" x="219.5" y="1379.6309">&#1089;&#1094;&#1077;&#1085;&#1072;&#1088;&#1080;&#1081; &#1072;&#1074;&#1090;&#1086;&#1088;&#1080;&#1079;&#1072;&#1094;&#1080;&#1080;</text><polygon fill="#181818" points="353.5,1408.7266,343.5,1412.7266,353.5,1416.7266,349.5,1412.7266" style="stroke:#181818;stroke-width:1.0;"/><polygon fill="#181818" points="505.5,1408.7266,515.5,1412.7266,505.5,1416.7266,509.5,1412.7266" style="stroke:#181818;stroke-width:1.0;"/><line style="stroke:#181818;stroke-width:1.0;" x1="347.5" x2="511.5" y1="1412.7266" y2="1412.7266"/><text fill="#000000" font-family="sans-serif" font-size="13" lengthAdjust="spacing" textLength="150" x="359.5" y="1407.6606">&#1087;&#1086;&#1083;&#1091;&#1095;&#1077;&#1085;&#1080;&#1077; &#1087;&#1077;&#1088;&#1089;&#1086;&#1085;&#1072;&#1078;&#1072;</text><polygon fill="#181818" points="289,1422.7266,279,1426.7266,289,1430.7266,285,1426.7266" style="stroke:#181818;stroke-width:1.0;"/><line style="stroke:#181818;stroke-width:1.0;" x1="283" x2="341.5" y1="1426.7266" y2="1426.7266"/><polygon fill="#181818" points="56,1451.8594,46,1455.8594,56,1459.8594,52,1455.8594" style="stroke:#181818;stroke-width:1.0;"/><line style="stroke:#181818;stroke-width:1.0;" x1="50" x2="277" y1="1455.8594" y2="1455.8594"/><text fill="#000000" font-family="sans-serif" font-size="13" lengthAdjust="spacing" textLength="185" x="62" y="1450.7935">&#1087;&#1088;&#1077;&#1076;&#1089;&#1090;&#1072;&#1074;&#1083;&#1077;&#1085;&#1080;&#1077; &#1087;&#1077;&#1088;&#1089;&#1086;&#1085;&#1072;&#1078;&#1072;</text><rect fill="#EEEEEE" height="3" style="stroke:#EEEEEE;stroke-width:1.0;" width="707" x="0" y="1484.4258"/><line style="stroke:#000000;stroke-width:1.0;" x1="0" x2="707" y1="1484.4258" y2="1484.4258"/><line style="stroke:#000000;stroke-width:1.0;" x1="0" x2="707" y1="1487.4258" y2="1487.4258"/><rect fill="#EEEEEE" height="23.1328" style="stroke:#000000;stroke-width:2.0;" width="231" x="238" y="1473.8594"/><text fill="#000000" font-family="sans-serif" font-size="13" font-weight="bold" lengthAdjust="spacing" textLength="212" x="244" y="1489.9263">&#1048;&#1079;&#1084;&#1077;&#1085;&#1077;&#1085;&#1080;&#1077; &#1089;&#1074;&#1086;&#1077;&#1075;&#1086; &#1087;&#1088;&#1086;&#1092;&#1080;&#1083;&#1103;</text><rect fill="none" height="39.1016" style="stroke:#000000;stroke-width:1.5;" width="369" x="2" y="1506.9922"/><path d="M2,1506.9922 L68,1506.9922 L68,1513.9922 L58,1523.9922 L2,1523.9922 L2,1506.9922 " fill="#EEEEEE" style="stroke:#000000;stroke-width:2.0;"/><text fill="#000000" font-family="sans-serif" font-size="13" font-weight="bold" lengthAdjust="spacing" textLength="21" x="15" y="1521.0591">ref</text><text fill="#000000" font-family="sans-serif" font-size="12" lengthAdjust="spacing" textLength="200" x="86.5" y="1539.1309">&#1089;&#1094;&#1077;&#1085;&#1072;&#1088;&#1080;&#1081; &#1080;&#1079;&#1084;&#1077;&#1085;&#1077;&#1085;&#1080;&#1103; &#1087;&#1088;&#1086;&#1092;&#1080;&#1083;&#1103;</text><rect fill="#EEEEEE" height="3" style="stroke:#EEEEEE;stroke-width:1.0;" width="707" x="0" y="1571.6602"/><line style="stroke:#000000;stroke-width:1.0;" x1="0" x2="707" y1="1571.6602" y2="1571.6602"/><line style="stroke:#000000;stroke-width:1.0;" x1="0" x2="707" y1="1574.6602" y2="1574.6602"/><rect fill="#EEEEEE" height="23.1328" style="stroke:#000000;stroke-width:2.0;" width="92" x="307.5" y="1561.0938"/><text fill="#000000" font-family="sans-serif" font-size="13" font-weight="bold" lengthAdjust="spacing" textLength="73" x="313.5" y="1577.1606">&#1054;&#1073;&#1091;&#1095;&#1077;&#1085;&#1080;&#1077;</text><rect fill="none" height="39.1016" style="stroke:#000000;stroke-width:1.5;" width="369" x="2" y="1594.2266"/><path d="M2,1594.2266 L68,1594.2266 L68,1601.2266 L58,1611.2266 L2,1611.2266 L2,1594.2266 " fill="#EEEEEE" style="stroke:#000000;stroke-width:2.0;"/><text fill="#000000" font-family="sans-serif" font-size="13" font-weight="bold" lengthAdjust="spacing" textLength="21" x="15" y="1608.2935">ref</text><text fill="#000000" font-family="sans-serif" font-size="12" lengthAdjust="spacing" textLength="128" x="122.5" y="1626.3652">&#1089;&#1094;&#1077;&#1085;&#1072;&#1088;&#1080;&#1081; &#1086;&#1073;&#1091;&#1095;&#1077;&#1085;&#1080;&#1103;</text><rect fill="#EEEEEE" height="3" style="stroke:#EEEEEE;stroke-width:1.0;" width="707" x="0" y="1658.8945"/><line style="stroke:#000000;stroke-width:1.0;" x1="0" x2="707" y1="1658.8945" y2="1658.8945"/><line style="stroke:#000000;stroke-width:1.0;" x1="0" x2="707" y1="1661.8945" y2="1661.8945"/><rect fill="#EEEEEE" height="23.1328" style="stroke:#000000;stroke-width:2.0;" width="69" x="319" y="1648.3281"/><text fill="#000000" font-family="sans-serif" font-size="13" font-weight="bold" lengthAdjust="spacing" textLength="50" x="325" y="1664.395">&#1042;&#1099;&#1093;&#1086;&#1076;</text><rect fill="none" height="39.1016" style="stroke:#000000;stroke-width:1.5;" width="369" x="2" y="1681.4609"/><path d="M2,1681.4609 L68,1681.4609 L68,1688.4609 L58,1698.4609 L2,1698.4609 L2,1681.4609 " fill="#EEEEEE" style="stroke:#000000;stroke-width:2.0;"/><text fill="#000000" font-family="sans-serif" font-size="13" font-weight="bold" lengthAdjust="spacing" textLength="21" x="15" y="1695.5278">ref</text><text fill="#000000" font-family="sans-serif" font-size="12" lengthAdjust="spacing" textLength="265" x="54" y="1713.5996">&#1089;&#1094;&#1077;&#1085;&#1072;&#1088;&#1080;&#1081; &#1074;&#1099;&#1093;&#1086;&#1076;&#1072;, &#1088;&#1077;&#1076;&#1080;&#1088;&#1077;&#1082;&#1090; &#1085;&#1072; &#1075;&#1083;&#1072;&#1074;&#1085;&#1091;&#1102;</text><!--SRC=[rLPDZz9G5DttLxoCMyZiYR0mRboRsRdfG3MJZ7HIqD4T7pAQe3EHcEZAYJjtCeLAvQFz2_Vz8y-zRO5I691aD6xwuFL-d7FkVRVFBDTjHnrGZoRKfo5vM3rzSQ3CcdfHinpZs7wbw9hVwfP-Gu5kq9JwwjxZgdrkd9bE_QHyScPMwuZndIRwaaRY-yoiM-VcwnMB7pI4Vo0MPTknZ8fPDu_DceLt7-cJef0217bF8wmkfum0qQyve8SFCavZ89_2jKypycDJnxQVmzIgLXGO64QngAYdEmWxLCMYuLXFbVtISYHaBa6R4r05fPlw0abd0D3WY0e_se9bXgSF6NnE2YEV_9o2aGVfV5d7kgNOKucSKrZCiDUE47p6PiWAwAOwUiH0E7- -5ESlA11VjZ3Y5_cIg7KRwboipbhqv09t87z72Mw3lLI-D2zLlF8MXofmVa5z3TLytQInWj-0mQ4s0GSUOvbAffRkhgCJxkPwzpplWrNK4q3bwYxTYDsO2pL7fhkwaq8c1B334Rd-ibxHTBjsu1mAyo35FPCXwSmcP6Z3PIACVFA0SjclhI_JchKtT0_WkH4jQK8t6_b9TLlelriEEJO35Wkv6v6TlbeciqElog7XDCWFnK6A2-3fTzW8E3Bv2XH3gM42PTxTI873sa-K_zCkpyeUhWPT4VsVdm6q16DRQhTXf9Fq2XYCK_38kyiIVCFsQA7LOJnG-pnCPQpAno1-YGSFUp2CpYUYoJ7Zh3-1VCjGpI2uIzdDq_f2-eLpckuQ4ePrMhEodX9xAeczMtohbVsBrU7QRpmd4zYzJN8VwWyeKFD_gKLMpN2LqJerTrCIxIeTZjJBPoeRJgJyaYaZR7Wcy1mCLAmFtp8c68HxN5TM-eIdQIfc1EChtQJOxv4eM0wHnEtnLsxVcvQRE5D_uyrg89TL5xSnVBj-0m00]--></g></svg>