<?xml version="1.0" encoding="us-ascii" standalone="no"?><svg xmlns="http://www.w3.org/2000/svg" xmlns:xlink="http://www.w3.org/1999/xlink" contentStyleType="text/css" height="511px" preserveAspectRatio="none" style="width:1198px;height:511px;background:#FFFFFF;" version="1.1" viewBox="0 0 1198 511" width="1198px" zoomAndPan="magnify"><defs/><g><rect fill="#F1F1F1" height="68.8906" rx="12.5" ry="12.5" style="stroke:#181818;stroke-width:1.5;" width="166" x="10" y="220.0977"/><text fill="#000000" font-family="sans-serif" font-size="14" lengthAdjust="spacing" textLength="73" x="20" y="243.0928">&#1047;&#1085;&#1072;&#1095;&#1080;&#1084;&#1099;&#1077;</text><text fill="#000000" font-family="sans-serif" font-size="14" lengthAdjust="spacing" textLength="146" x="20" y="259.3896">&#1085;&#1077;&#1092;&#1091;&#1085;&#1082;&#1094;&#1080;&#1086;&#1085;&#1072;&#1083;&#1100;&#1085;&#1099;&#1077;</text><text fill="#000000" font-family="sans-serif" font-size="14" lengthAdjust="spacing" textLength="87" x="20" y="275.6865">&#1090;&#1088;&#1077;&#1073;&#1086;&#1074;&#1072;&#1085;&#1080;&#1103;</text><rect fill="#FFA500" height="36.2969" rx="12.5" ry="12.5" style="stroke:#181818;stroke-width:1.5;" width="143" x="226" y="51.3164"/><text fill="#000000" font-family="sans-serif" font-size="14" lengthAdjust="spacing" textLength="123" x="236" y="74.3115">&#1069;&#1088;&#1075;&#1086;&#1085;&#1086;&#1084;&#1080;&#1095;&#1085;&#1086;&#1089;&#1090;&#1100;</text><text fill="#000000" font-family="sans-serif" font-size="14" lengthAdjust="spacing" textLength="324" x="422" y="42.292">&#1053;&#1077;&#1079;&#1072;&#1074;&#1080;&#1089;&#1080;&#1084;&#1072;&#1103; &#1086;&#1087;&#1090;&#1080;&#1084;&#1080;&#1079;&#1072;&#1094;&#1080;&#1103; &#1080;&#1085;&#1090;&#1077;&#1088;&#1092;&#1077;&#1081;&#1089;&#1072; &#1076;&#1083;&#1103;</text><text fill="#000000" font-family="sans-serif" font-size="14" lengthAdjust="spacing" textLength="20" x="799" y="23.9951">&#1055;&#1050;</text><path d="M746,37.4453 L756,37.4453 C771,37.4453 771,19.1484 786,19.1484 L796,19.1484 " fill="none" style="stroke:#181818;stroke-width:1.0;"/><text fill="#000000" font-family="sans-serif" font-size="14" lengthAdjust="spacing" textLength="140" x="799" y="42.292">&#1089;&#1077;&#1085;&#1089;&#1086;&#1088;&#1085;&#1086;&#1075;&#1086; &#1101;&#1082;&#1088;&#1072;&#1085;&#1072;</text><path d="M746,37.4453 L756,37.4453 C771,37.4453 771,37.4453 786,37.4453 L796,37.4453 " fill="none" style="stroke:#181818;stroke-width:1.0;"/><text fill="#000000" font-family="sans-serif" font-size="14" lengthAdjust="spacing" textLength="127" x="799" y="60.5889">&#1096;&#1080;&#1088;&#1086;&#1082;&#1086;&#1075;&#1086; &#1101;&#1082;&#1088;&#1072;&#1085;&#1072;</text><path d="M746,37.4453 L756,37.4453 C771,37.4453 771,55.7422 786,55.7422 L796,55.7422 " fill="none" style="stroke:#181818;stroke-width:1.0;"/><path d="M369,69.4648 L379,69.4648 C394,69.4648 394,37.4453 409,37.4453 L419,37.4453 " fill="none" style="stroke:#181818;stroke-width:1.0;"/><text fill="#000000" font-family="sans-serif" font-size="14" lengthAdjust="spacing" textLength="253" x="422" y="78.8857">&#1058;&#1077;&#1084;&#1087; &#1080;&#1075;&#1088;&#1099;, &#1074;&#1088;&#1077;&#1084;&#1103; &#1093;&#1086;&#1076;&#1072; &#1087;&#1077;&#1088;&#1089;&#1086;&#1085;&#1072;&#1078;&#1072;</text><text fill="#000000" font-family="sans-serif" font-size="14" lengthAdjust="spacing" textLength="224" x="728" y="78.8857">&#1085;&#1077; &#1073;&#1086;&#1083;&#1077;&#1077; 30 &#1089;&#1077;&#1082;&#1091;&#1085;&#1076; &#1074; &#1089;&#1088;&#1077;&#1076;&#1085;&#1077;&#1084;</text><path d="M675,74.0391 L685,74.0391 C700,74.0391 700,74.0391 715,74.0391 L725,74.0391 " fill="none" style="stroke:#181818;stroke-width:1.0;"/><path d="M369,69.4648 L379,69.4648 C394,69.4648 394,74.0391 409,74.0391 L419,74.0391 " fill="none" style="stroke:#181818;stroke-width:1.0;"/><text fill="#000000" font-family="sans-serif" font-size="14" lengthAdjust="spacing" textLength="256" x="422" y="106.3311">&#1042;&#1088;&#1077;&#1084;&#1103; &#1089;&#1086;&#1079;&#1076;&#1072;&#1085;&#1080;&#1103; &#1080;&#1075;&#1088;&#1086;&#1074;&#1086;&#1075;&#1086; &#1086;&#1073;&#1098;&#1077;&#1082;&#1090;&#1072;</text><text fill="#000000" font-family="sans-serif" font-size="14" lengthAdjust="spacing" textLength="253" x="731" y="97.1826">&#1085;&#1077; &#1073;&#1086;&#1083;&#1077;&#1077; 30 &#1089;&#1077;&#1082;&#1091;&#1085;&#1076; &#1074;&#1086; &#1074;&#1088;&#1077;&#1084;&#1103; &#1080;&#1075;&#1088;&#1099;</text><path d="M678,101.4844 L688,101.4844 C703,101.4844 703,92.3359 718,92.3359 L728,92.3359 " fill="none" style="stroke:#181818;stroke-width:1.0;"/><text fill="#000000" font-family="sans-serif" font-size="14" lengthAdjust="spacing" textLength="191" x="731" y="115.4795">&#1085;&#1077; &#1073;&#1086;&#1083;&#1077;&#1077; 2 &#1084;&#1080;&#1085;&#1091;&#1090; &#1076;&#1086; &#1080;&#1075;&#1088;&#1099;</text><path d="M678,101.4844 L688,101.4844 C703,101.4844 703,110.6328 718,110.6328 L728,110.6328 " fill="none" style="stroke:#181818;stroke-width:1.0;"/><path d="M369,69.4648 L379,69.4648 C394,69.4648 394,101.4844 409,101.4844 L419,101.4844 " fill="none" style="stroke:#181818;stroke-width:1.0;"/><text fill="#000000" font-family="sans-serif" font-size="14" lengthAdjust="spacing" textLength="261" x="422" y="124.6279">&#1054;&#1094;&#1077;&#1085;&#1082;&#1072; &#1087;&#1086; &#1086;&#1090;&#1079;&#1099;&#1074;&#1072;&#1084; &#1087;&#1086;&#1083;&#1100;&#1079;&#1086;&#1074;&#1072;&#1090;&#1077;&#1083;&#1077;&#1081;</text><path d="M369,69.4648 L379,69.4648 C394,69.4648 394,119.7813 409,119.7813 L419,119.7813 " fill="none" style="stroke:#181818;stroke-width:1.0;"/><path d="M176,254.543 L186,254.543 C201,254.543 201,69.4648 216,69.4648 L226,69.4648 " fill="none" style="stroke:#181818;stroke-width:1.0;"/><rect fill="#FFA500" height="36.2969" rx="12.5" ry="12.5" style="stroke:#181818;stroke-width:1.5;" width="117" x="226" y="119.9297"/><text fill="#000000" font-family="sans-serif" font-size="14" lengthAdjust="spacing" textLength="97" x="236" y="142.9248">&#1044;&#1086;&#1089;&#1090;&#1091;&#1087;&#1085;&#1086;&#1089;&#1090;&#1100;</text><text fill="#000000" font-family="sans-serif" font-size="14" lengthAdjust="spacing" textLength="169" x="396" y="142.9248">&#1053;&#1077;&#1086;&#1073;&#1088;&#1072;&#1073;&#1086;&#1090;&#1082;&#1072; &#1079;&#1072;&#1087;&#1088;&#1086;&#1089;&#1086;&#1074;</text><text fill="#000000" font-family="sans-serif" font-size="14" lengthAdjust="spacing" textLength="385" x="618" y="142.9248">&#1084;&#1077;&#1085;&#1077;&#1077; 5 &#1089;&#1077;&#1082;&#1091;&#1085;&#1076; &#1079;&#1072; &#1095;&#1072;&#1089; (0,15%) &#1074;&#1086; &#1074;&#1088;&#1077;&#1084;&#1103; &#1087;&#1077;&#1088;&#1080;&#1086;&#1076;&#1072; &#1080;&#1075;&#1088;</text><path d="M565,138.0781 L575,138.0781 C590,138.0781 590,138.0781 605,138.0781 L615,138.0781 " fill="none" style="stroke:#181818;stroke-width:1.0;"/><path d="M343,138.0781 L353,138.0781 C368,138.0781 368,138.0781 383,138.0781 L393,138.0781 " fill="none" style="stroke:#181818;stroke-width:1.0;"/><path d="M176,254.543 L186,254.543 C201,254.543 201,138.0781 216,138.0781 L226,138.0781 " fill="none" style="stroke:#181818;stroke-width:1.0;"/><rect fill="#FFA500" height="36.2969" rx="12.5" ry="12.5" style="stroke:#181818;stroke-width:1.5;" width="174" x="226" y="176.2266"/><text fill="#000000" font-family="sans-serif" font-size="14" lengthAdjust="spacing" textLength="154" x="236" y="199.2217">&#1054;&#1090;&#1082;&#1072;&#1079;&#1086;&#1091;&#1089;&#1090;&#1086;&#1081;&#1095;&#1080;&#1074;&#1086;&#1089;&#1090;&#1100;</text><text fill="#000000" font-family="sans-serif" font-size="14" lengthAdjust="spacing" textLength="413" x="453" y="180.9248">&#1057;&#1088;&#1077;&#1076;&#1085;&#1077;&#1077; &#1074;&#1088;&#1077;&#1084;&#1103; &#1093;&#1086;&#1076;&#1072; &#1087;&#1077;&#1088;&#1089;&#1086;&#1085;&#1072;&#1078;&#1072; &#1079;&#1072; &#1087;&#1088;&#1086;&#1073;&#1083;&#1077;&#1084;&#1085;&#1099;&#1081; &#1087;&#1077;&#1088;&#1080;&#1086;&#1076;</text><text fill="#000000" font-family="sans-serif" font-size="14" lengthAdjust="spacing" textLength="232" x="919" y="180.9248">&#1085;&#1077; &#1084;&#1077;&#1085;&#1103;&#1077;&#1090;&#1089;&#1103; &#1073;&#1086;&#1083;&#1077;&#1077;, &#1095;&#1077;&#1084; &#1085;&#1072; 30%</text><path d="M866,176.0781 L876,176.0781 C891,176.0781 891,176.0781 906,176.0781 L916,176.0781 " fill="none" style="stroke:#181818;stroke-width:1.0;"/><path d="M400,194.375 L410,194.375 C425,194.375 425,176.0781 440,176.0781 L450,176.0781 " fill="none" style="stroke:#181818;stroke-width:1.0;"/><text fill="#000000" font-family="sans-serif" font-size="14" lengthAdjust="spacing" textLength="448" x="453" y="199.2217">&#1050;&#1086;&#1083;&#1080;&#1095;&#1077;&#1089;&#1090;&#1074;&#1086; &#1080;&#1075;&#1088;&#1086;&#1074;&#1099;&#1093; &#1089;&#1077;&#1089;&#1089;&#1080;&#1081; &#1079;&#1072; &#1087;&#1088;&#1086;&#1073;&#1083;&#1077;&#1084;&#1085;&#1099;&#1081; &#1087;&#1077;&#1088;&#1080;&#1086;&#1076; + 4 &#1095;&#1072;&#1089;&#1072;</text><text fill="#000000" font-family="sans-serif" font-size="14" lengthAdjust="spacing" textLength="232" x="954" y="199.2217">&#1085;&#1077; &#1084;&#1077;&#1085;&#1103;&#1077;&#1090;&#1089;&#1103; &#1073;&#1086;&#1083;&#1077;&#1077;, &#1095;&#1077;&#1084; &#1085;&#1072; 30%</text><path d="M901,194.375 L911,194.375 C926,194.375 926,194.375 941,194.375 L951,194.375 " fill="none" style="stroke:#181818;stroke-width:1.0;"/><path d="M400,194.375 L410,194.375 C425,194.375 425,194.375 440,194.375 L450,194.375 " fill="none" style="stroke:#181818;stroke-width:1.0;"/><text fill="#000000" font-family="sans-serif" font-size="14" lengthAdjust="spacing" textLength="448" x="453" y="217.5186">&#1054;&#1094;&#1077;&#1085;&#1082;&#1072; &#1087;&#1086; &#1086;&#1090;&#1079;&#1099;&#1074;&#1072;&#1084; &#1087;&#1086;&#1083;&#1100;&#1079;&#1086;&#1074;&#1072;&#1090;&#1077;&#1083;&#1077;&#1081; &#1079;&#1072; &#1087;&#1088;&#1086;&#1073;&#1083;&#1077;&#1084;&#1085;&#1099;&#1077; &#1087;&#1077;&#1088;&#1080;&#1086;&#1076;&#1099;</text><path d="M400,194.375 L410,194.375 C425,194.375 425,212.6719 440,212.6719 L450,212.6719 " fill="none" style="stroke:#181818;stroke-width:1.0;"/><path d="M176,254.543 L186,254.543 C201,254.543 201,194.375 216,194.375 L226,194.375 " fill="none" style="stroke:#181818;stroke-width:1.0;"/><rect fill="#FFA500" height="36.2969" rx="12.5" ry="12.5" style="stroke:#181818;stroke-width:1.5;" width="126" x="226" y="250.1172"/><text fill="#000000" font-family="sans-serif" font-size="14" lengthAdjust="spacing" textLength="106" x="236" y="273.1123">&#1054;&#1090;&#1079;&#1099;&#1074;&#1095;&#1080;&#1074;&#1086;&#1089;&#1090;&#1100;</text><text fill="#000000" font-family="sans-serif" font-size="14" lengthAdjust="spacing" textLength="192" x="405" y="263.9639">&#1042;&#1088;&#1077;&#1084;&#1103; &#1086;&#1073;&#1088;&#1072;&#1073;&#1086;&#1090;&#1082;&#1080; &#1079;&#1072;&#1087;&#1088;&#1086;&#1089;&#1072;</text><text fill="#000000" font-family="sans-serif" font-size="14" lengthAdjust="spacing" textLength="167" x="650" y="236.5186">&#1055;&#1086;&#1080;&#1089;&#1082; &#1087;&#1086; &#1082;&#1086;&#1084;&#1087;&#1077;&#1085;&#1076;&#1080;&#1091;&#1084;&#1091;</text><text fill="#000000" font-family="sans-serif" font-size="14" lengthAdjust="spacing" textLength="125" x="870" y="236.5186">&#1084;&#1077;&#1085;&#1077;&#1077; 1 &#1089;&#1077;&#1082;&#1091;&#1085;&#1076;&#1099;</text><path d="M817,231.6719 L827,231.6719 C842,231.6719 842,231.6719 857,231.6719 L867,231.6719 " fill="none" style="stroke:#181818;stroke-width:1.0;"/><path d="M597,259.1172 L607,259.1172 C622,259.1172 622,231.6719 637,231.6719 L647,231.6719 " fill="none" style="stroke:#181818;stroke-width:1.0;"/><text fill="#000000" font-family="sans-serif" font-size="14" lengthAdjust="spacing" textLength="159" x="650" y="254.8154">&#1044;&#1077;&#1081;&#1089;&#1090;&#1074;&#1080;&#1077; &#1087;&#1077;&#1088;&#1089;&#1086;&#1085;&#1072;&#1078;&#1072;</text><text fill="#000000" font-family="sans-serif" font-size="14" lengthAdjust="spacing" textLength="125" x="862" y="254.8154">&#1084;&#1077;&#1085;&#1077;&#1077; 1 &#1089;&#1077;&#1082;&#1091;&#1085;&#1076;&#1099;</text><path d="M809,249.9688 L819,249.9688 C834,249.9688 834,249.9688 849,249.9688 L859,249.9688 " fill="none" style="stroke:#181818;stroke-width:1.0;"/><path d="M597,259.1172 L607,259.1172 C622,259.1172 622,249.9688 637,249.9688 L647,249.9688 " fill="none" style="stroke:#181818;stroke-width:1.0;"/><text fill="#000000" font-family="sans-serif" font-size="14" lengthAdjust="spacing" textLength="229" x="650" y="273.1123">&#1054;&#1087;&#1088;&#1086;&#1089; &#1080;&#1079;&#1084;&#1077;&#1085;&#1077;&#1085;&#1080;&#1081; &#1074; &#1086;&#1082;&#1088;&#1091;&#1078;&#1077;&#1085;&#1080;&#1080;</text><text fill="#000000" font-family="sans-serif" font-size="14" lengthAdjust="spacing" textLength="114" x="932" y="273.1123">&#1084;&#1077;&#1085;&#1077;&#1077; 2 &#1089;&#1077;&#1082;&#1091;&#1085;&#1076;</text><path d="M879,268.2656 L889,268.2656 C904,268.2656 904,268.2656 919,268.2656 L929,268.2656 " fill="none" style="stroke:#181818;stroke-width:1.0;"/><path d="M597,259.1172 L607,259.1172 C622,259.1172 622,268.2656 637,268.2656 L647,268.2656 " fill="none" style="stroke:#181818;stroke-width:1.0;"/><text fill="#000000" font-family="sans-serif" font-size="14" lengthAdjust="spacing" textLength="269" x="650" y="291.4092">&#1042;&#1088;&#1077;&#1084;&#1103; &#1075;&#1077;&#1085;&#1077;&#1088;&#1072;&#1094;&#1080;&#1080; &#1087;&#1086;&#1088;&#1094;&#1080;&#1080; &#1087;&#1086;&#1076;&#1089;&#1082;&#1072;&#1079;&#1086;&#1082;</text><text fill="#000000" font-family="sans-serif" font-size="14" lengthAdjust="spacing" textLength="114" x="972" y="291.4092">&#1084;&#1077;&#1085;&#1077;&#1077; 5 &#1089;&#1077;&#1082;&#1091;&#1085;&#1076;</text><path d="M919,286.5625 L929,286.5625 C944,286.5625 944,286.5625 959,286.5625 L969,286.5625 " fill="none" style="stroke:#181818;stroke-width:1.0;"/><path d="M597,259.1172 L607,259.1172 C622,259.1172 622,286.5625 637,286.5625 L647,286.5625 " fill="none" style="stroke:#181818;stroke-width:1.0;"/><path d="M352,268.2656 L362,268.2656 C377,268.2656 377,259.1172 392,259.1172 L402,259.1172 " fill="none" style="stroke:#181818;stroke-width:1.0;"/><text fill="#000000" font-family="sans-serif" font-size="14" lengthAdjust="spacing" textLength="261" x="405" y="309.7061">&#1054;&#1094;&#1077;&#1085;&#1082;&#1072; &#1087;&#1086; &#1086;&#1090;&#1079;&#1099;&#1074;&#1072;&#1084; &#1087;&#1086;&#1083;&#1100;&#1079;&#1086;&#1074;&#1072;&#1090;&#1077;&#1083;&#1077;&#1081;</text><path d="M352,268.2656 L362,268.2656 C377,268.2656 377,304.8594 392,304.8594 L402,304.8594 " fill="none" style="stroke:#181818;stroke-width:1.0;"/><path d="M176,254.543 L186,254.543 C201,254.543 201,268.2656 216,268.2656 L226,268.2656 " fill="none" style="stroke:#181818;stroke-width:1.0;"/><rect fill="#FFA500" height="36.2969" rx="12.5" ry="12.5" style="stroke:#181818;stroke-width:1.5;" width="179" x="226" y="332.4531"/><text fill="#000000" font-family="sans-serif" font-size="14" lengthAdjust="spacing" textLength="159" x="236" y="355.4482">&#1055;&#1088;&#1086;&#1080;&#1079;&#1074;&#1086;&#1076;&#1080;&#1090;&#1077;&#1083;&#1100;&#1085;&#1086;&#1089;&#1090;&#1100;</text><text fill="#000000" font-family="sans-serif" font-size="14" lengthAdjust="spacing" textLength="354" x="458" y="328.0029">&#1050;&#1086;&#1083;&#1080;&#1095;&#1077;&#1089;&#1090;&#1074;&#1086; &#1086;&#1076;&#1085;&#1086;&#1074;&#1088;&#1077;&#1084;&#1077;&#1085;&#1085;&#1086; &#1080;&#1075;&#1088;&#1072;&#1102;&#1097;&#1080;&#1093; &#1082;&#1072;&#1084;&#1087;&#1072;&#1085;&#1080;&#1081;</text><text fill="#000000" font-family="sans-serif" font-size="14" lengthAdjust="spacing" textLength="41" x="865" y="328.0029">&#1076;&#1086; 50</text><path d="M812,323.1563 L822,323.1563 C837,323.1563 837,323.1563 852,323.1563 L862,323.1563 " fill="none" style="stroke:#181818;stroke-width:1.0;"/><path d="M405,350.6016 L415,350.6016 C430,350.6016 430,323.1563 445,323.1563 L455,323.1563 " fill="none" style="stroke:#181818;stroke-width:1.0;"/><text fill="#000000" font-family="sans-serif" font-size="14" lengthAdjust="spacing" textLength="407" x="458" y="346.2998">&#1050;&#1086;&#1083;&#1080;&#1095;&#1077;&#1089;&#1090;&#1074;&#1086; &#1087;&#1086;&#1083;&#1100;&#1079;&#1086;&#1074;&#1072;&#1090;&#1077;&#1083;&#1077;&#1081;, &#1072;&#1082;&#1090;&#1080;&#1074;&#1085;&#1086; &#1096;&#1083;&#1102;&#1097;&#1080;&#1093; &#1079;&#1072;&#1087;&#1088;&#1086;&#1089;&#1099;</text><text fill="#000000" font-family="sans-serif" font-size="14" lengthAdjust="spacing" textLength="50" x="918" y="346.2998">&#1076;&#1086; 300</text><path d="M865,341.4531 L875,341.4531 C890,341.4531 890,341.4531 905,341.4531 L915,341.4531 " fill="none" style="stroke:#181818;stroke-width:1.0;"/><path d="M405,350.6016 L415,350.6016 C430,350.6016 430,341.4531 445,341.4531 L455,341.4531 " fill="none" style="stroke:#181818;stroke-width:1.0;"/><text fill="#000000" font-family="sans-serif" font-size="14" lengthAdjust="spacing" textLength="234" x="458" y="364.5967">&#1050;&#1086;&#1083;&#1080;&#1095;&#1077;&#1089;&#1090;&#1074;&#1086; &#1079;&#1072;&#1087;&#1088;&#1086;&#1089;&#1086;&#1074; &#1074; &#1089;&#1077;&#1082;&#1091;&#1085;&#1076;&#1091;</text><text fill="#000000" font-family="sans-serif" font-size="14" lengthAdjust="spacing" textLength="41" x="745" y="364.5967">&#1076;&#1086; 60</text><path d="M692,359.75 L702,359.75 C717,359.75 717,359.75 732,359.75 L742,359.75 " fill="none" style="stroke:#181818;stroke-width:1.0;"/><path d="M405,350.6016 L415,350.6016 C430,350.6016 430,359.75 445,359.75 L455,359.75 " fill="none" style="stroke:#181818;stroke-width:1.0;"/><text fill="#000000" font-family="sans-serif" font-size="14" lengthAdjust="spacing" textLength="261" x="458" y="382.8936">&#1054;&#1094;&#1077;&#1085;&#1082;&#1072; &#1087;&#1086; &#1086;&#1090;&#1079;&#1099;&#1074;&#1072;&#1084; &#1087;&#1086;&#1083;&#1100;&#1079;&#1086;&#1074;&#1072;&#1090;&#1077;&#1083;&#1077;&#1081;</text><path d="M405,350.6016 L415,350.6016 C430,350.6016 430,378.0469 445,378.0469 L455,378.0469 " fill="none" style="stroke:#181818;stroke-width:1.0;"/><path d="M176,254.543 L186,254.543 C201,254.543 201,350.6016 216,350.6016 L226,350.6016 " fill="none" style="stroke:#181818;stroke-width:1.0;"/><rect fill="#F1F1F1" height="36.2969" rx="12.5" ry="12.5" style="stroke:#181818;stroke-width:1.5;" width="167" x="226" y="396.4922"/><text fill="#000000" font-family="sans-serif" font-size="14" lengthAdjust="spacing" textLength="147" x="236" y="419.4873">&#1057;&#1086;&#1087;&#1088;&#1086;&#1074;&#1086;&#1078;&#1076;&#1072;&#1077;&#1084;&#1086;&#1089;&#1090;&#1100;</text><text fill="#000000" font-family="sans-serif" font-size="14" lengthAdjust="spacing" textLength="224" x="446" y="401.1904">&#1042;&#1088;&#1077;&#1084;&#1103; &#1076;&#1080;&#1072;&#1075;&#1085;&#1086;&#1089;&#1090;&#1080;&#1082;&#1080; &#1087;&#1088;&#1086;&#1073;&#1083;&#1077;&#1084;&#1099;</text><text fill="#000000" font-family="sans-serif" font-size="14" lengthAdjust="spacing" textLength="89" x="723" y="401.1904">&#1076;&#1086; 10 &#1084;&#1080;&#1085;&#1091;&#1090;</text><path d="M670,396.3438 L680,396.3438 C695,396.3438 695,396.3438 710,396.3438 L720,396.3438 " fill="none" style="stroke:#181818;stroke-width:1.0;"/><path d="M393,414.6406 L403,414.6406 C418,414.6406 418,396.3438 433,396.3438 L443,396.3438 " fill="none" style="stroke:#181818;stroke-width:1.0;"/><text fill="#000000" font-family="sans-serif" font-size="14" lengthAdjust="spacing" textLength="331" x="446" y="419.4873">&#1042;&#1088;&#1077;&#1084;&#1103; &#1092;&#1086;&#1088;&#1084;&#1080;&#1088;&#1086;&#1074;&#1072;&#1085;&#1080;&#1103; &#1087;&#1086;&#1089;&#1090;&#1072;&#1085;&#1086;&#1074;&#1082;&#1080; &#1076;&#1083;&#1103; &#1092;&#1080;&#1082;&#1089;&#1072;</text><text fill="#000000" font-family="sans-serif" font-size="14" lengthAdjust="spacing" textLength="89" x="830" y="419.4873">&#1076;&#1086; 10 &#1084;&#1080;&#1085;&#1091;&#1090;</text><path d="M777,414.6406 L787,414.6406 C802,414.6406 802,414.6406 817,414.6406 L827,414.6406 " fill="none" style="stroke:#181818;stroke-width:1.0;"/><path d="M393,414.6406 L403,414.6406 C418,414.6406 418,414.6406 433,414.6406 L443,414.6406 " fill="none" style="stroke:#181818;stroke-width:1.0;"/><text fill="#000000" font-family="sans-serif" font-size="14" lengthAdjust="spacing" textLength="358" x="446" y="437.7842">&#1055;&#1088;&#1086;&#1094;&#1077;&#1085;&#1090; &#1087;&#1086;&#1089;&#1090;&#1072;&#1085;&#1086;&#1074;&#1086;&#1082;, &#1089;&#1086;&#1079;&#1076;&#1072;&#1085;&#1085;&#1099;&#1093; &#1072;&#1074;&#1090;&#1086;&#1084;&#1072;&#1090;&#1080;&#1095;&#1077;&#1089;&#1082;&#1080;</text><text fill="#000000" font-family="sans-serif" font-size="14" lengthAdjust="spacing" textLength="54" x="857" y="437.7842">&#1076;&#1086; 50%</text><path d="M804,432.9375 L814,432.9375 C829,432.9375 829,432.9375 844,432.9375 L854,432.9375 " fill="none" style="stroke:#181818;stroke-width:1.0;"/><path d="M393,414.6406 L403,414.6406 C418,414.6406 418,432.9375 433,432.9375 L443,432.9375 " fill="none" style="stroke:#181818;stroke-width:1.0;"/><path d="M176,254.543 L186,254.543 C201,254.543 201,414.6406 216,414.6406 L226,414.6406 " fill="none" style="stroke:#181818;stroke-width:1.0;"/><rect fill="#F1F1F1" height="36.2969" rx="12.5" ry="12.5" style="stroke:#181818;stroke-width:1.5;" width="136" x="226" y="452.7891"/><text fill="#000000" font-family="sans-serif" font-size="14" lengthAdjust="spacing" textLength="116" x="236" y="475.7842">&#1057;&#1086;&#1074;&#1084;&#1077;&#1089;&#1090;&#1080;&#1084;&#1086;&#1089;&#1090;&#1100;</text><text fill="#000000" font-family="sans-serif" font-size="14" lengthAdjust="spacing" textLength="363" x="415" y="466.6357">&#1055;&#1088;&#1086;&#1094;&#1077;&#1085;&#1090; &#1086;&#1093;&#1074;&#1072;&#1090;&#1072; &#1101;&#1082;&#1089;&#1087;&#1086;&#1088;&#1090;&#1072; &#1080;&#1079; &#1089;&#1090;&#1086;&#1088;&#1086;&#1085;&#1085;&#1077;&#1081; &#1089;&#1080;&#1089;&#1090;&#1077;&#1084;&#1099;</text><text fill="#000000" font-family="sans-serif" font-size="14" lengthAdjust="spacing" textLength="80" x="831" y="466.6357">&#1073;&#1086;&#1083;&#1077;&#1077; 95%</text><path d="M778,461.7891 L788,461.7891 C803,461.7891 803,461.7891 818,461.7891 L828,461.7891 " fill="none" style="stroke:#181818;stroke-width:1.0;"/><path d="M362,470.9375 L372,470.9375 C387,470.9375 387,461.7891 402,461.7891 L412,461.7891 " fill="none" style="stroke:#181818;stroke-width:1.0;"/><text fill="#000000" font-family="sans-serif" font-size="14" lengthAdjust="spacing" textLength="435" x="415" y="484.9326">&#1055;&#1088;&#1086;&#1094;&#1077;&#1085;&#1090; &#1086;&#1093;&#1074;&#1072;&#1090;&#1072; &#1101;&#1082;&#1089;&#1087;&#1086;&#1088;&#1090;&#1072; &#1080;&#1079; &#1074;&#1099;&#1073;&#1088;&#1072;&#1085;&#1085;&#1099;&#1093; &#1089;&#1090;&#1086;&#1088;&#1086;&#1085;&#1085;&#1080;&#1093; &#1089;&#1080;&#1089;&#1090;&#1077;&#1084;</text><text fill="#000000" font-family="sans-serif" font-size="14" lengthAdjust="spacing" textLength="80" x="903" y="484.9326">&#1073;&#1086;&#1083;&#1077;&#1077; 95%</text><path d="M850,480.0859 L860,480.0859 C875,480.0859 875,480.0859 890,480.0859 L900,480.0859 " fill="none" style="stroke:#181818;stroke-width:1.0;"/><path d="M362,470.9375 L372,470.9375 C387,470.9375 387,480.0859 402,480.0859 L412,480.0859 " fill="none" style="stroke:#181818;stroke-width:1.0;"/><path d="M176,254.543 L186,254.543 C201,254.543 201,470.9375 216,470.9375 L226,470.9375 " fill="none" style="stroke:#181818;stroke-width:1.0;"/><!--SRC=[hLPRQnjN47xVNt6W66pN2Iif2ecVGfksu5War4bUsb2syTOLnAkmbWnzqyNEfKvZ2852e0xfUs6zrbehUINzXNF-KR-PiwlLhgJWX3n9UyvSlfdvPkRSsgjRRdstwcplMa-DLI7_baFfgUSob94wai7F3hu3TQ0w-1sePpWVaOIyKA_aK4kejchAG9xYniVDK8Rgs5XT_UchkwxbxDYFXFmF0cUiE98Hhf_JFzM2uYi8hluYv3ymq8EoZziMEGU8Om7niMhpPqZNv9-EGxXk0rPJ7K2l3mrFo2umaL-szrw-Y__YCe1u2mwR3010XFeBmJGPh9V8lO3j9ku72sHWzL-OYkIO09p1-T6Qa3x77W6LEeHYbv2C6LehpjJvn0MbKd2UBg0JY9AfqGqukrqOmpVRwvAeZ6AtRr8VPBH7NdIQOoISUOqQFwVgJpRQ_WJ7f9c6aiItGBqek213rL5jolieem3v4nGg8CBeR10geEc1BaIGYC-OGJtD6Iecs-vdUVCsPaa72lCOGx5IXKxPFdiZ4eqf8vmgFuaWOZm4lfmB7Ge2XFHKIooRQuNoqifiEhYWJ7skBmURHNgY_LD0o0fmGhRFRUJdS7-OAd1mIVveb3ek17l1DAJkwsUmPSh54QjZtBRX_tYgVciKRq1bW7bmOIb6zeu5g3i3Zi2V59OogOxK8QSETzIX_Kk24b-BQt62StpyT8IVpwk5O8CCM6PmhgniVcufqxwSOMAOPQANpgKHJxX1Z7_04t7CKNLnqu6v3WjdMLl8i3RjpBTw_d6rmaamCxFdSiPE4ho2nssYCDJLzYbAJ4HedSUduHpZnOpnnFHKgiwqAAMBzqd8gO3Tz0EWMaaxoS4S9-KP9rzmwhndab06VEx8K0lImiiHO6x7ZBYvHqbdCwHXsagUUgrUGkTGS8HKV4-dECaL3TIo-J4N2mF1Gl9uyXDPoIcssaNgS8gIQTN9NSdygB_SKDMBQef1dMbRryqlKGyCIjx-oMuxvwL7-LpOWwWKHCwIAk6B-p3Jyzcm2-RK9fjTjWVyPeZYTu6VBjrnxC7JXTP- -Fr1Il0xtVAB737DT8feZUPjWlXhsNq_v15CZoHUBn5dBAuKGSZoPscIH9z866SadxuSY16MaAw4fzy_hRWtsthlzOJURPoG8JTZdq26V9p9R_fSk5bU-bnlj7RYoPh4dmCGwgqq0J3V_IqR3zpuaMlSUs8vzGULJR5lktlLcYCALujciNIrj7p_zuQeMAumRugYkLuormitH6NhZg3h5MFvXtkROg_MS1_ROhkwLtUhlpRgq5ynDgnzI_pOSEhLNNjTt7rgEnktxoG7uZjdl-hMd5tRgHiR3okfmFLhLxwfriMMxGA9U5WnRjk_MOqdTMWyhcrNdPrryU3-zrTk69kOJ0rh1xPjn_Ys1hlk7xZR-Xy0]--></g></svg>