<?xml version="1.0" encoding="us-ascii" standalone="no"?><svg xmlns="http://www.w3.org/2000/svg" xmlns:xlink="http://www.w3.org/1999/xlink" contentStyleType="text/css" height="492px" preserveAspectRatio="none" style="width:1198px;height:492px;background:#FFFFFF;" version="1.1" viewBox="0 0 1198 492" width="1198px" zoomAndPan="magnify"><defs/><g><rect fill="#F1F1F1" height="68.8906" rx="12.5" ry="12.5" style="stroke:#181818;stroke-width:1.5;" width="166" x="10" y="210.9492"/><text fill="#000000" font-family="sans-serif" font-size="14" lengthAdjust="spacing" textLength="73" x="20" y="233.9443">&#1047;&#1085;&#1072;&#1095;&#1080;&#1084;&#1099;&#1077;</text><text fill="#000000" font-family="sans-serif" font-size="14" lengthAdjust="spacing" textLength="146" x="20" y="250.2412">&#1085;&#1077;&#1092;&#1091;&#1085;&#1082;&#1094;&#1080;&#1086;&#1085;&#1072;&#1083;&#1100;&#1085;&#1099;&#1077;</text><text fill="#000000" font-family="sans-serif" font-size="14" lengthAdjust="spacing" textLength="87" x="20" y="266.5381">&#1090;&#1088;&#1077;&#1073;&#1086;&#1074;&#1072;&#1085;&#1080;&#1103;</text><rect fill="#FFA500" height="36.2969" rx="12.5" ry="12.5" style="stroke:#181818;stroke-width:1.5;" width="143" x="226" y="51.3164"/><text fill="#000000" font-family="sans-serif" font-size="14" lengthAdjust="spacing" textLength="123" x="236" y="74.3115">&#1069;&#1088;&#1075;&#1086;&#1085;&#1086;&#1084;&#1080;&#1095;&#1085;&#1086;&#1089;&#1090;&#1100;</text><text fill="#000000" font-family="sans-serif" font-size="14" lengthAdjust="spacing" textLength="324" x="422" y="42.292">&#1053;&#1077;&#1079;&#1072;&#1074;&#1080;&#1089;&#1080;&#1084;&#1072;&#1103; &#1086;&#1087;&#1090;&#1080;&#1084;&#1080;&#1079;&#1072;&#1094;&#1080;&#1103; &#1080;&#1085;&#1090;&#1077;&#1088;&#1092;&#1077;&#1081;&#1089;&#1072; &#1076;&#1083;&#1103;</text><text fill="#000000" font-family="sans-serif" font-size="14" lengthAdjust="spacing" textLength="20" x="799" y="23.9951">&#1055;&#1050;</text><path d="M746,37.4453 L756,37.4453 C771,37.4453 771,19.1484 786,19.1484 L796,19.1484 " fill="none" style="stroke:#181818;stroke-width:1.0;"/><text fill="#000000" font-family="sans-serif" font-size="14" lengthAdjust="spacing" textLength="140" x="799" y="42.292">&#1089;&#1077;&#1085;&#1089;&#1086;&#1088;&#1085;&#1086;&#1075;&#1086; &#1101;&#1082;&#1088;&#1072;&#1085;&#1072;</text><path d="M746,37.4453 L756,37.4453 C771,37.4453 771,37.4453 786,37.4453 L796,37.4453 " fill="none" style="stroke:#181818;stroke-width:1.0;"/><text fill="#000000" font-family="sans-serif" font-size="14" lengthAdjust="spacing" textLength="127" x="799" y="60.5889">&#1096;&#1080;&#1088;&#1086;&#1082;&#1086;&#1075;&#1086; &#1101;&#1082;&#1088;&#1072;&#1085;&#1072;</text><path d="M746,37.4453 L756,37.4453 C771,37.4453 771,55.7422 786,55.7422 L796,55.7422 " fill="none" style="stroke:#181818;stroke-width:1.0;"/><path d="M369,69.4648 L379,69.4648 C394,69.4648 394,37.4453 409,37.4453 L419,37.4453 " fill="none" style="stroke:#181818;stroke-width:1.0;"/><text fill="#000000" font-family="sans-serif" font-size="14" lengthAdjust="spacing" textLength="253" x="422" y="78.8857">&#1058;&#1077;&#1084;&#1087; &#1080;&#1075;&#1088;&#1099;, &#1074;&#1088;&#1077;&#1084;&#1103; &#1093;&#1086;&#1076;&#1072; &#1087;&#1077;&#1088;&#1089;&#1086;&#1085;&#1072;&#1078;&#1072;</text><text fill="#000000" font-family="sans-serif" font-size="14" lengthAdjust="spacing" textLength="224" x="728" y="78.8857">&#1085;&#1077; &#1073;&#1086;&#1083;&#1077;&#1077; 30 &#1089;&#1077;&#1082;&#1091;&#1085;&#1076; &#1074; &#1089;&#1088;&#1077;&#1076;&#1085;&#1077;&#1084;</text><path d="M675,74.0391 L685,74.0391 C700,74.0391 700,74.0391 715,74.0391 L725,74.0391 " fill="none" style="stroke:#181818;stroke-width:1.0;"/><path d="M369,69.4648 L379,69.4648 C394,69.4648 394,74.0391 409,74.0391 L419,74.0391 " fill="none" style="stroke:#181818;stroke-width:1.0;"/><text fill="#000000" font-family="sans-serif" font-size="14" lengthAdjust="spacing" textLength="256" x="422" y="106.3311">&#1042;&#1088;&#1077;&#1084;&#1103; &#1089;&#1086;&#1079;&#1076;&#1072;&#1085;&#1080;&#1103; &#1080;&#1075;&#1088;&#1086;&#1074;&#1086;&#1075;&#1086; &#1086;&#1073;&#1098;&#1077;&#1082;&#1090;&#1072;</text><text fill="#000000" font-family="sans-serif" font-size="14" lengthAdjust="spacing" textLength="253" x="731" y="97.1826">&#1085;&#1077; &#1073;&#1086;&#1083;&#1077;&#1077; 30 &#1089;&#1077;&#1082;&#1091;&#1085;&#1076; &#1074;&#1086; &#1074;&#1088;&#1077;&#1084;&#1103; &#1080;&#1075;&#1088;&#1099;</text><path d="M678,101.4844 L688,101.4844 C703,101.4844 703,92.3359 718,92.3359 L728,92.3359 " fill="none" style="stroke:#181818;stroke-width:1.0;"/><text fill="#000000" font-family="sans-serif" font-size="14" lengthAdjust="spacing" textLength="191" x="731" y="115.4795">&#1085;&#1077; &#1073;&#1086;&#1083;&#1077;&#1077; 2 &#1084;&#1080;&#1085;&#1091;&#1090; &#1076;&#1086; &#1080;&#1075;&#1088;&#1099;</text><path d="M678,101.4844 L688,101.4844 C703,101.4844 703,110.6328 718,110.6328 L728,110.6328 " fill="none" style="stroke:#181818;stroke-width:1.0;"/><path d="M369,69.4648 L379,69.4648 C394,69.4648 394,101.4844 409,101.4844 L419,101.4844 " fill="none" style="stroke:#181818;stroke-width:1.0;"/><text fill="#000000" font-family="sans-serif" font-size="14" lengthAdjust="spacing" textLength="175" x="422" y="124.6279">&#1054;&#1090;&#1079;&#1099;&#1074;&#1099; &#1087;&#1086;&#1083;&#1100;&#1079;&#1086;&#1074;&#1072;&#1090;&#1077;&#1083;&#1077;&#1081;</text><path d="M369,69.4648 L379,69.4648 C394,69.4648 394,119.7813 409,119.7813 L419,119.7813 " fill="none" style="stroke:#181818;stroke-width:1.0;"/><path d="M176,245.3945 L186,245.3945 C201,245.3945 201,69.4648 216,69.4648 L226,69.4648 " fill="none" style="stroke:#181818;stroke-width:1.0;"/><rect fill="#FFA500" height="36.2969" rx="12.5" ry="12.5" style="stroke:#181818;stroke-width:1.5;" width="117" x="226" y="119.9297"/><text fill="#000000" font-family="sans-serif" font-size="14" lengthAdjust="spacing" textLength="97" x="236" y="142.9248">&#1044;&#1086;&#1089;&#1090;&#1091;&#1087;&#1085;&#1086;&#1089;&#1090;&#1100;</text><text fill="#000000" font-family="sans-serif" font-size="14" lengthAdjust="spacing" textLength="169" x="396" y="142.9248">&#1053;&#1077;&#1086;&#1073;&#1088;&#1072;&#1073;&#1086;&#1090;&#1082;&#1072; &#1079;&#1072;&#1087;&#1088;&#1086;&#1089;&#1086;&#1074;</text><text fill="#000000" font-family="sans-serif" font-size="14" lengthAdjust="spacing" textLength="220" x="618" y="142.9248">&#1084;&#1077;&#1085;&#1077;&#1077; 5 &#1089;&#1077;&#1082;&#1091;&#1085;&#1076; &#1079;&#1072; &#1095;&#1072;&#1089; (0,15%)</text><path d="M565,138.0781 L575,138.0781 C590,138.0781 590,138.0781 605,138.0781 L615,138.0781 " fill="none" style="stroke:#181818;stroke-width:1.0;"/><path d="M343,138.0781 L353,138.0781 C368,138.0781 368,138.0781 383,138.0781 L393,138.0781 " fill="none" style="stroke:#181818;stroke-width:1.0;"/><path d="M176,245.3945 L186,245.3945 C201,245.3945 201,138.0781 216,138.0781 L226,138.0781 " fill="none" style="stroke:#181818;stroke-width:1.0;"/><rect fill="#FFA500" height="36.2969" rx="12.5" ry="12.5" style="stroke:#181818;stroke-width:1.5;" width="174" x="226" y="176.2266"/><text fill="#000000" font-family="sans-serif" font-size="14" lengthAdjust="spacing" textLength="154" x="236" y="199.2217">&#1054;&#1090;&#1082;&#1072;&#1079;&#1086;&#1091;&#1089;&#1090;&#1086;&#1081;&#1095;&#1080;&#1074;&#1086;&#1089;&#1090;&#1100;</text><text fill="#000000" font-family="sans-serif" font-size="14" lengthAdjust="spacing" textLength="413" x="453" y="180.9248">&#1057;&#1088;&#1077;&#1076;&#1085;&#1077;&#1077; &#1074;&#1088;&#1077;&#1084;&#1103; &#1093;&#1086;&#1076;&#1072; &#1087;&#1077;&#1088;&#1089;&#1086;&#1085;&#1072;&#1078;&#1072; &#1079;&#1072; &#1087;&#1088;&#1086;&#1073;&#1083;&#1077;&#1084;&#1085;&#1099;&#1081; &#1087;&#1077;&#1088;&#1080;&#1086;&#1076;</text><text fill="#000000" font-family="sans-serif" font-size="14" lengthAdjust="spacing" textLength="232" x="919" y="180.9248">&#1085;&#1077; &#1084;&#1077;&#1085;&#1103;&#1077;&#1090;&#1089;&#1103; &#1073;&#1086;&#1083;&#1077;&#1077;, &#1095;&#1077;&#1084; &#1085;&#1072; 30%</text><path d="M866,176.0781 L876,176.0781 C891,176.0781 891,176.0781 906,176.0781 L916,176.0781 " fill="none" style="stroke:#181818;stroke-width:1.0;"/><path d="M400,194.375 L410,194.375 C425,194.375 425,176.0781 440,176.0781 L450,176.0781 " fill="none" style="stroke:#181818;stroke-width:1.0;"/><text fill="#000000" font-family="sans-serif" font-size="14" lengthAdjust="spacing" textLength="448" x="453" y="199.2217">&#1050;&#1086;&#1083;&#1080;&#1095;&#1077;&#1089;&#1090;&#1074;&#1086; &#1080;&#1075;&#1088;&#1086;&#1074;&#1099;&#1093; &#1089;&#1077;&#1089;&#1089;&#1080;&#1081; &#1079;&#1072; &#1087;&#1088;&#1086;&#1073;&#1083;&#1077;&#1084;&#1085;&#1099;&#1081; &#1087;&#1077;&#1088;&#1080;&#1086;&#1076; + 4 &#1095;&#1072;&#1089;&#1072;</text><text fill="#000000" font-family="sans-serif" font-size="14" lengthAdjust="spacing" textLength="232" x="954" y="199.2217">&#1085;&#1077; &#1084;&#1077;&#1085;&#1103;&#1077;&#1090;&#1089;&#1103; &#1073;&#1086;&#1083;&#1077;&#1077;, &#1095;&#1077;&#1084; &#1085;&#1072; 30%</text><path d="M901,194.375 L911,194.375 C926,194.375 926,194.375 941,194.375 L951,194.375 " fill="none" style="stroke:#181818;stroke-width:1.0;"/><path d="M400,194.375 L410,194.375 C425,194.375 425,194.375 440,194.375 L450,194.375 " fill="none" style="stroke:#181818;stroke-width:1.0;"/><text fill="#000000" font-family="sans-serif" font-size="14" lengthAdjust="spacing" textLength="362" x="453" y="217.5186">&#1054;&#1090;&#1079;&#1099;&#1074;&#1099; &#1087;&#1086;&#1083;&#1100;&#1079;&#1086;&#1074;&#1072;&#1090;&#1077;&#1083;&#1077;&#1081; &#1079;&#1072; &#1087;&#1088;&#1086;&#1073;&#1083;&#1077;&#1084;&#1085;&#1099;&#1077; &#1087;&#1077;&#1088;&#1080;&#1086;&#1076;&#1099;</text><path d="M400,194.375 L410,194.375 C425,194.375 425,212.6719 440,212.6719 L450,212.6719 " fill="none" style="stroke:#181818;stroke-width:1.0;"/><path d="M176,245.3945 L186,245.3945 C201,245.3945 201,194.375 216,194.375 L226,194.375 " fill="none" style="stroke:#181818;stroke-width:1.0;"/><rect fill="#FFA500" height="36.2969" rx="12.5" ry="12.5" style="stroke:#181818;stroke-width:1.5;" width="126" x="226" y="240.9688"/><text fill="#000000" font-family="sans-serif" font-size="14" lengthAdjust="spacing" textLength="106" x="236" y="263.9639">&#1054;&#1090;&#1079;&#1099;&#1074;&#1095;&#1080;&#1074;&#1086;&#1089;&#1090;&#1100;</text><text fill="#000000" font-family="sans-serif" font-size="14" lengthAdjust="spacing" textLength="192" x="405" y="263.9639">&#1042;&#1088;&#1077;&#1084;&#1103; &#1086;&#1073;&#1088;&#1072;&#1073;&#1086;&#1090;&#1082;&#1080; &#1079;&#1072;&#1087;&#1088;&#1086;&#1089;&#1072;</text><text fill="#000000" font-family="sans-serif" font-size="14" lengthAdjust="spacing" textLength="167" x="650" y="236.5186">&#1055;&#1086;&#1080;&#1089;&#1082; &#1087;&#1086; &#1082;&#1086;&#1084;&#1087;&#1077;&#1085;&#1076;&#1080;&#1091;&#1084;&#1091;</text><text fill="#000000" font-family="sans-serif" font-size="14" lengthAdjust="spacing" textLength="125" x="870" y="236.5186">&#1084;&#1077;&#1085;&#1077;&#1077; 1 &#1089;&#1077;&#1082;&#1091;&#1085;&#1076;&#1099;</text><path d="M817,231.6719 L827,231.6719 C842,231.6719 842,231.6719 857,231.6719 L867,231.6719 " fill="none" style="stroke:#181818;stroke-width:1.0;"/><path d="M597,259.1172 L607,259.1172 C622,259.1172 622,231.6719 637,231.6719 L647,231.6719 " fill="none" style="stroke:#181818;stroke-width:1.0;"/><text fill="#000000" font-family="sans-serif" font-size="14" lengthAdjust="spacing" textLength="159" x="650" y="254.8154">&#1044;&#1077;&#1081;&#1089;&#1090;&#1074;&#1080;&#1077; &#1087;&#1077;&#1088;&#1089;&#1086;&#1085;&#1072;&#1078;&#1072;</text><text fill="#000000" font-family="sans-serif" font-size="14" lengthAdjust="spacing" textLength="125" x="862" y="254.8154">&#1084;&#1077;&#1085;&#1077;&#1077; 1 &#1089;&#1077;&#1082;&#1091;&#1085;&#1076;&#1099;</text><path d="M809,249.9688 L819,249.9688 C834,249.9688 834,249.9688 849,249.9688 L859,249.9688 " fill="none" style="stroke:#181818;stroke-width:1.0;"/><path d="M597,259.1172 L607,259.1172 C622,259.1172 622,249.9688 637,249.9688 L647,249.9688 " fill="none" style="stroke:#181818;stroke-width:1.0;"/><text fill="#000000" font-family="sans-serif" font-size="14" lengthAdjust="spacing" textLength="229" x="650" y="273.1123">&#1054;&#1087;&#1088;&#1086;&#1089; &#1080;&#1079;&#1084;&#1077;&#1085;&#1077;&#1085;&#1080;&#1081; &#1074; &#1086;&#1082;&#1088;&#1091;&#1078;&#1077;&#1085;&#1080;&#1080;</text><text fill="#000000" font-family="sans-serif" font-size="14" lengthAdjust="spacing" textLength="114" x="932" y="273.1123">&#1084;&#1077;&#1085;&#1077;&#1077; 2 &#1089;&#1077;&#1082;&#1091;&#1085;&#1076;</text><path d="M879,268.2656 L889,268.2656 C904,268.2656 904,268.2656 919,268.2656 L929,268.2656 " fill="none" style="stroke:#181818;stroke-width:1.0;"/><path d="M597,259.1172 L607,259.1172 C622,259.1172 622,268.2656 637,268.2656 L647,268.2656 " fill="none" style="stroke:#181818;stroke-width:1.0;"/><text fill="#000000" font-family="sans-serif" font-size="14" lengthAdjust="spacing" textLength="269" x="650" y="291.4092">&#1042;&#1088;&#1077;&#1084;&#1103; &#1075;&#1077;&#1085;&#1077;&#1088;&#1072;&#1094;&#1080;&#1080; &#1087;&#1086;&#1088;&#1094;&#1080;&#1080; &#1087;&#1086;&#1076;&#1089;&#1082;&#1072;&#1079;&#1086;&#1082;</text><text fill="#000000" font-family="sans-serif" font-size="14" lengthAdjust="spacing" textLength="114" x="972" y="291.4092">&#1084;&#1077;&#1085;&#1077;&#1077; 5 &#1089;&#1077;&#1082;&#1091;&#1085;&#1076;</text><path d="M919,286.5625 L929,286.5625 C944,286.5625 944,286.5625 959,286.5625 L969,286.5625 " fill="none" style="stroke:#181818;stroke-width:1.0;"/><path d="M597,259.1172 L607,259.1172 C622,259.1172 622,286.5625 637,286.5625 L647,286.5625 " fill="none" style="stroke:#181818;stroke-width:1.0;"/><path d="M352,259.1172 L362,259.1172 C377,259.1172 377,259.1172 392,259.1172 L402,259.1172 " fill="none" style="stroke:#181818;stroke-width:1.0;"/><text fill="#000000" font-family="sans-serif" font-size="14" lengthAdjust="spacing" textLength="175" x="405" y="282.2607">&#1054;&#1090;&#1079;&#1099;&#1074;&#1099; &#1087;&#1086;&#1083;&#1100;&#1079;&#1086;&#1074;&#1072;&#1090;&#1077;&#1083;&#1077;&#1081;</text><path d="M352,259.1172 L362,259.1172 C377,259.1172 377,277.4141 392,277.4141 L402,277.4141 " fill="none" style="stroke:#181818;stroke-width:1.0;"/><path d="M176,245.3945 L186,245.3945 C201,245.3945 201,259.1172 216,259.1172 L226,259.1172 " fill="none" style="stroke:#181818;stroke-width:1.0;"/><rect fill="#FFA500" height="36.2969" rx="12.5" ry="12.5" style="stroke:#181818;stroke-width:1.5;" width="179" x="226" y="314.1563"/><text fill="#000000" font-family="sans-serif" font-size="14" lengthAdjust="spacing" textLength="159" x="236" y="337.1514">&#1055;&#1088;&#1086;&#1080;&#1079;&#1074;&#1086;&#1076;&#1080;&#1090;&#1077;&#1083;&#1100;&#1085;&#1086;&#1089;&#1090;&#1100;</text><text fill="#000000" font-family="sans-serif" font-size="14" lengthAdjust="spacing" textLength="354" x="458" y="309.7061">&#1050;&#1086;&#1083;&#1080;&#1095;&#1077;&#1089;&#1090;&#1074;&#1086; &#1086;&#1076;&#1085;&#1086;&#1074;&#1088;&#1077;&#1084;&#1077;&#1085;&#1085;&#1086; &#1080;&#1075;&#1088;&#1072;&#1102;&#1097;&#1080;&#1093; &#1082;&#1072;&#1084;&#1087;&#1072;&#1085;&#1080;&#1081;</text><text fill="#000000" font-family="sans-serif" font-size="14" lengthAdjust="spacing" textLength="41" x="865" y="309.7061">&#1076;&#1086; 50</text><path d="M812,304.8594 L822,304.8594 C837,304.8594 837,304.8594 852,304.8594 L862,304.8594 " fill="none" style="stroke:#181818;stroke-width:1.0;"/><path d="M405,332.3047 L415,332.3047 C430,332.3047 430,304.8594 445,304.8594 L455,304.8594 " fill="none" style="stroke:#181818;stroke-width:1.0;"/><text fill="#000000" font-family="sans-serif" font-size="14" lengthAdjust="spacing" textLength="407" x="458" y="328.0029">&#1050;&#1086;&#1083;&#1080;&#1095;&#1077;&#1089;&#1090;&#1074;&#1086; &#1087;&#1086;&#1083;&#1100;&#1079;&#1086;&#1074;&#1072;&#1090;&#1077;&#1083;&#1077;&#1081;, &#1072;&#1082;&#1090;&#1080;&#1074;&#1085;&#1086; &#1096;&#1083;&#1102;&#1097;&#1080;&#1093; &#1079;&#1072;&#1087;&#1088;&#1086;&#1089;&#1099;</text><text fill="#000000" font-family="sans-serif" font-size="14" lengthAdjust="spacing" textLength="50" x="918" y="328.0029">&#1076;&#1086; 300</text><path d="M865,323.1563 L875,323.1563 C890,323.1563 890,323.1563 905,323.1563 L915,323.1563 " fill="none" style="stroke:#181818;stroke-width:1.0;"/><path d="M405,332.3047 L415,332.3047 C430,332.3047 430,323.1563 445,323.1563 L455,323.1563 " fill="none" style="stroke:#181818;stroke-width:1.0;"/><text fill="#000000" font-family="sans-serif" font-size="14" lengthAdjust="spacing" textLength="234" x="458" y="346.2998">&#1050;&#1086;&#1083;&#1080;&#1095;&#1077;&#1089;&#1090;&#1074;&#1086; &#1079;&#1072;&#1087;&#1088;&#1086;&#1089;&#1086;&#1074; &#1074; &#1089;&#1077;&#1082;&#1091;&#1085;&#1076;&#1091;</text><text fill="#000000" font-family="sans-serif" font-size="14" lengthAdjust="spacing" textLength="41" x="745" y="346.2998">&#1076;&#1086; 60</text><path d="M692,341.4531 L702,341.4531 C717,341.4531 717,341.4531 732,341.4531 L742,341.4531 " fill="none" style="stroke:#181818;stroke-width:1.0;"/><path d="M405,332.3047 L415,332.3047 C430,332.3047 430,341.4531 445,341.4531 L455,341.4531 " fill="none" style="stroke:#181818;stroke-width:1.0;"/><text fill="#000000" font-family="sans-serif" font-size="14" lengthAdjust="spacing" textLength="175" x="458" y="364.5967">&#1054;&#1090;&#1079;&#1099;&#1074;&#1099; &#1087;&#1086;&#1083;&#1100;&#1079;&#1086;&#1074;&#1072;&#1090;&#1077;&#1083;&#1077;&#1081;</text><path d="M405,332.3047 L415,332.3047 C430,332.3047 430,359.75 445,359.75 L455,359.75 " fill="none" style="stroke:#181818;stroke-width:1.0;"/><path d="M176,245.3945 L186,245.3945 C201,245.3945 201,332.3047 216,332.3047 L226,332.3047 " fill="none" style="stroke:#181818;stroke-width:1.0;"/><rect fill="#F1F1F1" height="36.2969" rx="12.5" ry="12.5" style="stroke:#181818;stroke-width:1.5;" width="167" x="226" y="378.1953"/><text fill="#000000" font-family="sans-serif" font-size="14" lengthAdjust="spacing" textLength="147" x="236" y="401.1904">&#1057;&#1086;&#1087;&#1088;&#1086;&#1074;&#1086;&#1078;&#1076;&#1072;&#1077;&#1084;&#1086;&#1089;&#1090;&#1100;</text><text fill="#000000" font-family="sans-serif" font-size="14" lengthAdjust="spacing" textLength="224" x="446" y="382.8936">&#1042;&#1088;&#1077;&#1084;&#1103; &#1076;&#1080;&#1072;&#1075;&#1085;&#1086;&#1089;&#1090;&#1080;&#1082;&#1080; &#1087;&#1088;&#1086;&#1073;&#1083;&#1077;&#1084;&#1099;</text><text fill="#000000" font-family="sans-serif" font-size="14" lengthAdjust="spacing" textLength="89" x="723" y="382.8936">&#1076;&#1086; 10 &#1084;&#1080;&#1085;&#1091;&#1090;</text><path d="M670,378.0469 L680,378.0469 C695,378.0469 695,378.0469 710,378.0469 L720,378.0469 " fill="none" style="stroke:#181818;stroke-width:1.0;"/><path d="M393,396.3438 L403,396.3438 C418,396.3438 418,378.0469 433,378.0469 L443,378.0469 " fill="none" style="stroke:#181818;stroke-width:1.0;"/><text fill="#000000" font-family="sans-serif" font-size="14" lengthAdjust="spacing" textLength="331" x="446" y="401.1904">&#1042;&#1088;&#1077;&#1084;&#1103; &#1092;&#1086;&#1088;&#1084;&#1080;&#1088;&#1086;&#1074;&#1072;&#1085;&#1080;&#1103; &#1087;&#1086;&#1089;&#1090;&#1072;&#1085;&#1086;&#1074;&#1082;&#1080; &#1076;&#1083;&#1103; &#1092;&#1080;&#1082;&#1089;&#1072;</text><text fill="#000000" font-family="sans-serif" font-size="14" lengthAdjust="spacing" textLength="89" x="830" y="401.1904">&#1076;&#1086; 10 &#1084;&#1080;&#1085;&#1091;&#1090;</text><path d="M777,396.3438 L787,396.3438 C802,396.3438 802,396.3438 817,396.3438 L827,396.3438 " fill="none" style="stroke:#181818;stroke-width:1.0;"/><path d="M393,396.3438 L403,396.3438 C418,396.3438 418,396.3438 433,396.3438 L443,396.3438 " fill="none" style="stroke:#181818;stroke-width:1.0;"/><text fill="#000000" font-family="sans-serif" font-size="14" lengthAdjust="spacing" textLength="358" x="446" y="419.4873">&#1055;&#1088;&#1086;&#1094;&#1077;&#1085;&#1090; &#1087;&#1086;&#1089;&#1090;&#1072;&#1085;&#1086;&#1074;&#1086;&#1082;, &#1089;&#1086;&#1079;&#1076;&#1072;&#1085;&#1085;&#1099;&#1093; &#1072;&#1074;&#1090;&#1086;&#1084;&#1072;&#1090;&#1080;&#1095;&#1077;&#1089;&#1082;&#1080;</text><text fill="#000000" font-family="sans-serif" font-size="14" lengthAdjust="spacing" textLength="54" x="857" y="419.4873">&#1076;&#1086; 50%</text><path d="M804,414.6406 L814,414.6406 C829,414.6406 829,414.6406 844,414.6406 L854,414.6406 " fill="none" style="stroke:#181818;stroke-width:1.0;"/><path d="M393,396.3438 L403,396.3438 C418,396.3438 418,414.6406 433,414.6406 L443,414.6406 " fill="none" style="stroke:#181818;stroke-width:1.0;"/><path d="M176,245.3945 L186,245.3945 C201,245.3945 201,396.3438 216,396.3438 L226,396.3438 " fill="none" style="stroke:#181818;stroke-width:1.0;"/><rect fill="#F1F1F1" height="36.2969" rx="12.5" ry="12.5" style="stroke:#181818;stroke-width:1.5;" width="136" x="226" y="434.4922"/><text fill="#000000" font-family="sans-serif" font-size="14" lengthAdjust="spacing" textLength="116" x="236" y="457.4873">&#1057;&#1086;&#1074;&#1084;&#1077;&#1089;&#1090;&#1080;&#1084;&#1086;&#1089;&#1090;&#1100;</text><text fill="#000000" font-family="sans-serif" font-size="14" lengthAdjust="spacing" textLength="363" x="415" y="448.3389">&#1055;&#1088;&#1086;&#1094;&#1077;&#1085;&#1090; &#1086;&#1093;&#1074;&#1072;&#1090;&#1072; &#1101;&#1082;&#1089;&#1087;&#1086;&#1088;&#1090;&#1072; &#1080;&#1079; &#1089;&#1090;&#1086;&#1088;&#1086;&#1085;&#1085;&#1077;&#1081; &#1089;&#1080;&#1089;&#1090;&#1077;&#1084;&#1099;</text><text fill="#000000" font-family="sans-serif" font-size="14" lengthAdjust="spacing" textLength="80" x="831" y="448.3389">&#1073;&#1086;&#1083;&#1077;&#1077; 95%</text><path d="M778,443.4922 L788,443.4922 C803,443.4922 803,443.4922 818,443.4922 L828,443.4922 " fill="none" style="stroke:#181818;stroke-width:1.0;"/><path d="M362,452.6406 L372,452.6406 C387,452.6406 387,443.4922 402,443.4922 L412,443.4922 " fill="none" style="stroke:#181818;stroke-width:1.0;"/><text fill="#000000" font-family="sans-serif" font-size="14" lengthAdjust="spacing" textLength="435" x="415" y="466.6357">&#1055;&#1088;&#1086;&#1094;&#1077;&#1085;&#1090; &#1086;&#1093;&#1074;&#1072;&#1090;&#1072; &#1101;&#1082;&#1089;&#1087;&#1086;&#1088;&#1090;&#1072; &#1080;&#1079; &#1074;&#1099;&#1073;&#1088;&#1072;&#1085;&#1085;&#1099;&#1093; &#1089;&#1090;&#1086;&#1088;&#1086;&#1085;&#1085;&#1080;&#1093; &#1089;&#1080;&#1089;&#1090;&#1077;&#1084;</text><text fill="#000000" font-family="sans-serif" font-size="14" lengthAdjust="spacing" textLength="80" x="903" y="466.6357">&#1073;&#1086;&#1083;&#1077;&#1077; 95%</text><path d="M850,461.7891 L860,461.7891 C875,461.7891 875,461.7891 890,461.7891 L900,461.7891 " fill="none" style="stroke:#181818;stroke-width:1.0;"/><path d="M362,452.6406 L372,452.6406 C387,452.6406 387,461.7891 402,461.7891 L412,461.7891 " fill="none" style="stroke:#181818;stroke-width:1.0;"/><path d="M176,245.3945 L186,245.3945 C201,245.3945 201,452.6406 216,452.6406 L226,452.6406 " fill="none" style="stroke:#181818;stroke-width:1.0;"/><!--SRC=[dLPRRzDO47xthpZIgbBRBSX9288-eLqkKca4sW8l2qA6UhkHg8DSfzA-vTB2xfRTIYkabP0eWdSauoQjaph9NpZd7_7D73kEdGIrF2NstBwP-MR6DtOyo_MsgyxcjlNIM1RoVpcGldejGncf0zbzxE2vg_PK6xzzzGhlXwGXpzGRET0QggKQiYk_G190Cf2XEZIMbt_zuPvhELls4o4_G-6O3OSoWlWr_LDD6Bw1ul9J8T_3mIcC0qYR51mW3WNKHwh5Zo69AJwz3X6w1LWDjGUx7Yny8Jl0H77PtmVvBluBOHVgJGHiC0004UeV9DDWi7wYzoTyDo3lpz61rqzm5SaH0JX6y8CL8GFEFG8gjG_33Y4PCRHcNAcJSGWgfU0wdS6cAqgcHjVdwdRW3C_ihqEgCeh3_fV68AUd54MNEKR2bTUeyVD5_SrEMnS8J9PfAab-SyoBWXioK6tLeheFCmRGFqBiKv0ZK0TKZI6pvLJpWnh7VdfPZhoD6T66mInsK5xK3S20YpxLcGWpekovB462DgA6Cz1oBaqO293FLqsnQAuKoWjBMGn7sZD1HMv00BSz7eOWX-ZZH9kwvsI1ZgyH8uqp9XFDK2zMvk7gP8hEkQX3I5k8VpZHXHNA11v8qKT75s9axrY1PgpB6GJZzb2Dr87Qvw90HdFMEoSeyQEu4fSknwgB8pmVE-O2wsQ0CUToBTJEPxKjdQGfFeLPFldf9XdoJkepLi7h8I84H2b8sd3NPkKizmePxgMpz5PlBEvCE4vcQbkSpzbHWbVmWamC1hgp0MM97GQha_XjECDvCUCySJrHgcEjIkNY2n1oAU0tVG2ePZ8wiZyZI7ago7VkYGzC2Cesu4aBjIATeropPqx2a8Tsc4miunka8-AhVzLViDaNd0qrsjVbJEf2wwviVYl4t4HmBdpUoqHC2egRSvO6dA1Vsc4ALpA_6I-t1lKPcM1BUzBNLVEYjSUoupkSN9aJFZzKkxcpXQv0vJZf29vulZApd4snO4xSbEcpjyVNEuelT92Ulr4SmTTDrN7uIu2C47TobES5Oag1pBJ8MjC-GUYLxEKTy1gbpnK-4H5NBEuAGSXoPM5Sn8085rSaNxuSY24EYUw4hxz4cl7CqGkYlz3tYGiou27h4SYGNsVgcnxkw-M5xur6F8atPf9_3a2eByiOmEpmDsnyQiQVcyRz5vRZFQoiYrtRtQdM756uN3IBfSkbnGU_rqN5SeLvNHJDrPAvMhWcAXjt1OcNZCKxzzV5JgtkFhV5PdN7SwlFwXxibumrQzSIlzGThxfjhufxBsrdxURTv8MuvUnMtPgpRJkUiVQeaYfSlNBffwedDcmNICIZYd7J_isgl_1WyRosMNMsLiN31xSlNJFMiONgrXPysuxnSmr-tJyWs_WA]--></g></svg>