<?xml version="1.0" encoding="us-ascii" standalone="no"?><svg xmlns="http://www.w3.org/2000/svg" xmlns:xlink="http://www.w3.org/1999/xlink" contentStyleType="text/css" height="1320px" preserveAspectRatio="none" style="width:903px;height:1320px;background:#FFFFFF;" version="1.1" viewBox="0 0 903 1320" width="903px" zoomAndPan="magnify"><defs/><g><!--cluster Common--><g id="cluster_Common"><path d="M8.5,892 L571.5,892 A3.75,3.75 0 0 1 574,894.5 L581,914.2969 L581.5,914.2969 A2.5,2.5 0 0 1 584,916.7969 L584,1310.5 A2.5,2.5 0 0 1 581.5,1313 L8.5,1313 A2.5,2.5 0 0 1 6,1310.5 L6,894.5 A2.5,2.5 0 0 1 8.5,892 " fill="none" style="stroke:#000000;stroke-width:1.5;"/><line style="stroke:#000000;stroke-width:1.5;" x1="6" x2="581" y1="914.2969" y2="914.2969"/><text fill="#000000" font-family="sans-serif" font-size="14" font-weight="bold" lengthAdjust="spacing" textLength="562" x="10" y="906.9951">&#1055;&#1088;&#1077;&#1076;&#1084;&#1077;&#1090;&#1085;&#1099;&#1077; &#1086;&#1073;&#1083;&#1072;&#1089;&#1090;&#1080; &#1073;&#1077;&#1079; &#1089;&#1094;&#1077;&#1085;&#1072;&#1088;&#1080;&#1077;&#1074; &#1089; &#1087;&#1086;&#1074;&#1099;&#1096;&#1077;&#1085;&#1085;&#1099;&#1084;&#1080; &#1090;&#1088;&#1077;&#1073;&#1086;&#1074;&#1072;&#1085;&#1080;&#1103;&#1084;&#1080;</text></g><!--cluster ????????? ????????--><g id="cluster_&#1057;&#1086;&#1089;&#1090;&#1086;&#1103;&#1085;&#1080;&#1077; &#1082;&#1072;&#1084;&#1087;&#1072;&#1085;&#1080;&#1080;"><path d="M127.5,239 L299.5,239 A3.75,3.75 0 0 1 302,241.5 L309,261.2969 L893.5,261.2969 A2.5,2.5 0 0 1 896,263.7969 L896,865.5 A2.5,2.5 0 0 1 893.5,868 L127.5,868 A2.5,2.5 0 0 1 125,865.5 L125,241.5 A2.5,2.5 0 0 1 127.5,239 " fill="none" style="stroke:#000000;stroke-width:1.5;"/><line style="stroke:#000000;stroke-width:1.5;" x1="125" x2="309" y1="261.2969" y2="261.2969"/><text fill="#000000" font-family="sans-serif" font-size="14" font-weight="bold" lengthAdjust="spacing" textLength="171" x="129" y="253.9951">&#1057;&#1086;&#1089;&#1090;&#1086;&#1103;&#1085;&#1080;&#1077; &#1082;&#1072;&#1084;&#1087;&#1072;&#1085;&#1080;&#1080;</text></g><!--cluster ????????--><g id="cluster_&#1055;&#1077;&#1088;&#1089;&#1086;&#1085;&#1072;&#1078;"><path d="M171.5,282 L256.5,282 A3.75,3.75 0 0 1 259,284.5 L266,304.2969 L869.5,304.2969 A2.5,2.5 0 0 1 872,306.7969 L872,437.5 A2.5,2.5 0 0 1 869.5,440 L171.5,440 A2.5,2.5 0 0 1 169,437.5 L169,284.5 A2.5,2.5 0 0 1 171.5,282 " fill="none" style="stroke:#000000;stroke-width:1.5;"/><line style="stroke:#000000;stroke-width:1.5;" x1="169" x2="266" y1="304.2969" y2="304.2969"/><text fill="#000000" font-family="sans-serif" font-size="14" font-weight="bold" lengthAdjust="spacing" textLength="84" x="173" y="296.9951">&#1055;&#1077;&#1088;&#1089;&#1086;&#1085;&#1072;&#1078;</text></g><!--cluster ??????? ???????--><g id="cluster_&#1048;&#1075;&#1088;&#1086;&#1074;&#1099;&#1077; &#1086;&#1073;&#1098;&#1077;&#1082;&#1090;&#1099;"><path d="M163,464 L312,464 A3.75,3.75 0 0 1 314.5,466.5 L321.5,486.2969 L426,486.2969 A2.5,2.5 0 0 1 428.5,488.7969 L428.5,619.5 A2.5,2.5 0 0 1 426,622 L163,622 A2.5,2.5 0 0 1 160.5,619.5 L160.5,466.5 A2.5,2.5 0 0 1 163,464 " fill="none" style="stroke:#000000;stroke-width:1.5;"/><line style="stroke:#000000;stroke-width:1.5;" x1="160.5" x2="321.5" y1="486.2969" y2="486.2969"/><text fill="#000000" font-family="sans-serif" font-size="14" font-weight="bold" lengthAdjust="spacing" textLength="148" x="164.5" y="478.9951">&#1048;&#1075;&#1088;&#1086;&#1074;&#1099;&#1077; &#1086;&#1073;&#1098;&#1077;&#1082;&#1090;&#1099;</text></g><!--cluster ??????????--><g id="cluster_&#1043;&#1077;&#1085;&#1077;&#1088;&#1072;&#1090;&#1086;&#1088;&#1099;"><path d="M151.5,646 L251.5,646 A3.75,3.75 0 0 1 254,648.5 L261,668.2969 L437.5,668.2969 A2.5,2.5 0 0 1 440,670.7969 L440,730.5 A2.5,2.5 0 0 1 437.5,733 L151.5,733 A2.5,2.5 0 0 1 149,730.5 L149,648.5 A2.5,2.5 0 0 1 151.5,646 " fill="none" style="stroke:#000000;stroke-width:1.5;"/><line style="stroke:#000000;stroke-width:1.5;" x1="149" x2="261" y1="668.2969" y2="668.2969"/><text fill="#000000" font-family="sans-serif" font-size="14" font-weight="bold" lengthAdjust="spacing" textLength="99" x="153" y="660.9951">&#1043;&#1077;&#1085;&#1077;&#1088;&#1072;&#1090;&#1086;&#1088;&#1099;</text></g><!--cluster ???????????--><g id="cluster_&#1055;&#1088;&#1086;&#1093;&#1086;&#1078;&#1076;&#1077;&#1085;&#1080;&#1103;"><path d="M157,757 L273,757 A3.75,3.75 0 0 1 275.5,759.5 L282.5,779.2969 L432,779.2969 A2.5,2.5 0 0 1 434.5,781.7969 L434.5,841.5 A2.5,2.5 0 0 1 432,844 L157,844 A2.5,2.5 0 0 1 154.5,841.5 L154.5,759.5 A2.5,2.5 0 0 1 157,757 " fill="none" style="stroke:#000000;stroke-width:1.5;"/><line style="stroke:#000000;stroke-width:1.5;" x1="154.5" x2="282.5" y1="779.2969" y2="779.2969"/><text fill="#000000" font-family="sans-serif" font-size="14" font-weight="bold" lengthAdjust="spacing" textLength="115" x="158.5" y="771.9951">&#1055;&#1088;&#1086;&#1093;&#1086;&#1078;&#1076;&#1077;&#1085;&#1080;&#1103;</text></g><!--cluster ?????????--><g id="cluster_&#1055;&#1086;&#1076;&#1089;&#1082;&#1072;&#1079;&#1082;&#1080;"><path d="M181.5,6 L271.5,6 A3.75,3.75 0 0 1 274,8.5 L281,28.2969 L407.5,28.2969 A2.5,2.5 0 0 1 410,30.7969 L410,161.5 A2.5,2.5 0 0 1 407.5,164 L181.5,164 A2.5,2.5 0 0 1 179,161.5 L179,8.5 A2.5,2.5 0 0 1 181.5,6 " fill="none" style="stroke:#000000;stroke-width:1.5;"/><line style="stroke:#000000;stroke-width:1.5;" x1="179" x2="281" y1="28.2969" y2="28.2969"/><text fill="#000000" font-family="sans-serif" font-size="14" font-weight="bold" lengthAdjust="spacing" textLength="89" x="183" y="20.9951">&#1055;&#1086;&#1076;&#1089;&#1082;&#1072;&#1079;&#1082;&#1080;</text></g><!--entity Room--><g id="elem_Room"><rect fill="#F1F1F1" height="46.2969" rx="2.5" ry="2.5" style="stroke:#181818;stroke-width:0.5;" width="171" x="209" y="1008"/><rect fill="#F1F1F1" height="10" style="stroke:#181818;stroke-width:0.5;" width="15" x="360" y="1013"/><rect fill="#F1F1F1" height="2" style="stroke:#181818;stroke-width:0.5;" width="4" x="358" y="1015"/><rect fill="#F1F1F1" height="2" style="stroke:#181818;stroke-width:0.5;" width="4" x="358" y="1019"/><text fill="#000000" font-family="sans-serif" font-size="14" lengthAdjust="spacing" textLength="131" x="224" y="1040.9951">&#1048;&#1075;&#1088;&#1086;&#1074;&#1099;&#1077; &#1082;&#1086;&#1084;&#1085;&#1072;&#1090;&#1099;</text></g><!--entity Learn--><g id="elem_Learn"><rect fill="#F1F1F1" height="46.2969" rx="2.5" ry="2.5" style="stroke:#181818;stroke-width:0.5;" width="111" x="239" y="927"/><rect fill="#F1F1F1" height="10" style="stroke:#181818;stroke-width:0.5;" width="15" x="330" y="932"/><rect fill="#F1F1F1" height="2" style="stroke:#181818;stroke-width:0.5;" width="4" x="328" y="934"/><rect fill="#F1F1F1" height="2" style="stroke:#181818;stroke-width:0.5;" width="4" x="328" y="938"/><text fill="#000000" font-family="sans-serif" font-size="14" lengthAdjust="spacing" textLength="71" x="254" y="959.9951">&#1054;&#1073;&#1091;&#1095;&#1077;&#1085;&#1080;&#1077;</text></g><!--entity Hero--><g id="elem_Hero"><rect fill="#F1F1F1" height="46.2969" rx="2.5" ry="2.5" style="stroke:#181818;stroke-width:0.5;" width="124" x="232.5" y="1089"/><rect fill="#F1F1F1" height="10" style="stroke:#181818;stroke-width:0.5;" width="15" x="336.5" y="1094"/><rect fill="#F1F1F1" height="2" style="stroke:#181818;stroke-width:0.5;" width="4" x="334.5" y="1096"/><rect fill="#F1F1F1" height="2" style="stroke:#181818;stroke-width:0.5;" width="4" x="334.5" y="1100"/><text fill="#000000" font-family="sans-serif" font-size="14" lengthAdjust="spacing" textLength="84" x="247.5" y="1121.9951">&#1055;&#1077;&#1088;&#1089;&#1086;&#1085;&#1072;&#1078;&#1080;</text></g><!--entity User--><g id="elem_User"><rect fill="#F1F1F1" height="46.2969" rx="2.5" ry="2.5" style="stroke:#181818;stroke-width:0.5;" width="145" x="222" y="1170"/><rect fill="#F1F1F1" height="10" style="stroke:#181818;stroke-width:0.5;" width="15" x="347" y="1175"/><rect fill="#F1F1F1" height="2" style="stroke:#181818;stroke-width:0.5;" width="4" x="345" y="1177"/><rect fill="#F1F1F1" height="2" style="stroke:#181818;stroke-width:0.5;" width="4" x="345" y="1181"/><text fill="#000000" font-family="sans-serif" font-size="14" lengthAdjust="spacing" textLength="105" x="237" y="1202.9951">&#1055;&#1086;&#1083;&#1100;&#1079;&#1086;&#1074;&#1072;&#1090;&#1077;&#1083;&#1080;</text></g><!--entity Campaign--><g id="elem_Campaign"><rect fill="#F1F1F1" height="46.2969" rx="2.5" ry="2.5" style="stroke:#181818;stroke-width:0.5;" width="142" x="223.5" y="1251"/><rect fill="#F1F1F1" height="10" style="stroke:#181818;stroke-width:0.5;" width="15" x="345.5" y="1256"/><rect fill="#F1F1F1" height="2" style="stroke:#181818;stroke-width:0.5;" width="4" x="343.5" y="1258"/><rect fill="#F1F1F1" height="2" style="stroke:#181818;stroke-width:0.5;" width="4" x="343.5" y="1262"/><text fill="#000000" font-family="sans-serif" font-size="14" lengthAdjust="spacing" textLength="102" x="238.5" y="1283.9951">&#1055;&#1088;&#1086;&#1093;&#1086;&#1078;&#1076;&#1077;&#1085;&#1080;&#1103;</text></g><!--entity ???????--><g id="elem_&#1050;&#1086;&#1085;&#1090;&#1077;&#1085;&#1090;"><path d="M244,183.5 L321,183.5 A3.75,3.75 0 0 1 323.5,186 L330.5,205.7969 L345,205.7969 A2.5,2.5 0 0 1 347.5,208.2969 L347.5,220.2969 A2.5,2.5 0 0 1 345,222.7969 L244,222.7969 A2.5,2.5 0 0 1 241.5,220.2969 L241.5,186 A2.5,2.5 0 0 1 244,183.5 " fill="#F1F1F1" style="stroke:#181818;stroke-width:0.5;"/><line style="stroke:#181818;stroke-width:0.5;" x1="241.5" x2="330.5" y1="205.7969" y2="205.7969"/><text fill="#000000" font-family="sans-serif" font-size="14" lengthAdjust="spacing" textLength="64" x="251.5" y="199.4951">&#1050;&#1086;&#1085;&#1090;&#1077;&#1085;&#1090;</text></g><!--entity ????????? ?????????--><g id="elem_&#1057;&#1086;&#1079;&#1076;&#1072;&#1074;&#1072;&#1090;&#1100; &#1087;&#1077;&#1088;&#1089;&#1086;&#1085;&#1072;&#1078;&#1072;"><rect fill="#F1F1F1" height="36.2969" rx="2.5" ry="2.5" style="stroke:#181818;stroke-width:0.5;" width="184" x="202.5" y="388"/><text fill="#000000" font-family="sans-serif" font-size="14" lengthAdjust="spacing" textLength="164" x="212.5" y="410.9951">&#1057;&#1086;&#1079;&#1076;&#1072;&#1074;&#1072;&#1090;&#1100; &#1087;&#1077;&#1088;&#1089;&#1086;&#1085;&#1072;&#1078;&#1072;</text></g><!--entity ????????????? ?????????--><g id="elem_&#1056;&#1077;&#1076;&#1072;&#1082;&#1090;&#1080;&#1088;&#1086;&#1074;&#1072;&#1090;&#1100; &#1087;&#1077;&#1088;&#1089;&#1086;&#1085;&#1072;&#1078;&#1072;"><rect fill="#F1F1F1" height="36.2969" rx="2.5" ry="2.5" style="stroke:#181818;stroke-width:0.5;" width="219" x="185" y="317"/><text fill="#000000" font-family="sans-serif" font-size="14" lengthAdjust="spacing" textLength="199" x="195" y="339.9951">&#1056;&#1077;&#1076;&#1072;&#1082;&#1090;&#1080;&#1088;&#1086;&#1074;&#1072;&#1090;&#1100; &#1087;&#1077;&#1088;&#1089;&#1086;&#1085;&#1072;&#1078;&#1072;</text></g><!--entity ????????????? ?????????--><g id="elem_&#1048;&#1084;&#1087;&#1086;&#1088;&#1090;&#1080;&#1088;&#1086;&#1074;&#1072;&#1090;&#1100; &#1087;&#1077;&#1088;&#1089;&#1086;&#1085;&#1072;&#1078;&#1072;"><rect fill="#F1F1F1" height="36.2969" rx="2.5" ry="2.5" style="stroke:#181818;stroke-width:0.5;" width="222" x="631" y="388"/><text fill="#000000" font-family="sans-serif" font-size="14" lengthAdjust="spacing" textLength="202" x="641" y="410.9951">&#1048;&#1084;&#1087;&#1086;&#1088;&#1090;&#1080;&#1088;&#1086;&#1074;&#1072;&#1090;&#1100; &#1087;&#1077;&#1088;&#1089;&#1086;&#1085;&#1072;&#1078;&#1072;</text></g><!--entity ?????????????? ?????????--><g id="elem_&#1069;&#1082;&#1089;&#1087;&#1086;&#1088;&#1090;&#1080;&#1088;&#1086;&#1074;&#1072;&#1090;&#1100; &#1087;&#1077;&#1088;&#1089;&#1086;&#1085;&#1072;&#1078;&#1072;"><rect fill="#F1F1F1" height="36.2969" rx="2.5" ry="2.5" style="stroke:#181818;stroke-width:0.5;" width="228" x="628" y="317"/><text fill="#000000" font-family="sans-serif" font-size="14" lengthAdjust="spacing" textLength="208" x="638" y="339.9951">&#1069;&#1082;&#1089;&#1087;&#1086;&#1088;&#1090;&#1080;&#1088;&#1086;&#1074;&#1072;&#1090;&#1100; &#1087;&#1077;&#1088;&#1089;&#1086;&#1085;&#1072;&#1078;&#1072;</text></g><!--entity ???????? ????????? ???????--><g id="elem_&#1055;&#1086;&#1083;&#1091;&#1095;&#1072;&#1090;&#1100; &#1089;&#1086;&#1089;&#1090;&#1086;&#1103;&#1085;&#1080;&#1077; &#1086;&#1073;&#1098;&#1077;&#1082;&#1090;&#1072;"><rect fill="#FF0000" height="36.2969" rx="2.5" ry="2.5" style="stroke:#181818;stroke-width:0.5;" width="236" x="176.5" y="499"/><text fill="#000000" font-family="sans-serif" font-size="14" lengthAdjust="spacing" textLength="216" x="186.5" y="521.9951">&#1055;&#1086;&#1083;&#1091;&#1095;&#1072;&#1090;&#1100; &#1089;&#1086;&#1089;&#1090;&#1086;&#1103;&#1085;&#1080;&#1077; &#1086;&#1073;&#1098;&#1077;&#1082;&#1090;&#1072;</text></g><!--entity ?????? ????????? ???????--><g id="elem_&#1052;&#1077;&#1085;&#1103;&#1090;&#1100; &#1089;&#1086;&#1089;&#1090;&#1086;&#1103;&#1085;&#1080;&#1077; &#1086;&#1073;&#1098;&#1077;&#1082;&#1090;&#1072;"><rect fill="#FF0000" height="36.2969" rx="2.5" ry="2.5" style="stroke:#181818;stroke-width:0.5;" width="223" x="183" y="570"/><text fill="#000000" font-family="sans-serif" font-size="14" lengthAdjust="spacing" textLength="203" x="193" y="592.9951">&#1052;&#1077;&#1085;&#1103;&#1090;&#1100; &#1089;&#1086;&#1089;&#1090;&#1086;&#1103;&#1085;&#1080;&#1077; &#1086;&#1073;&#1098;&#1077;&#1082;&#1090;&#1072;</text></g><!--entity ???????????? ??????? ???????--><g id="elem_&#1043;&#1077;&#1085;&#1077;&#1088;&#1080;&#1088;&#1086;&#1074;&#1072;&#1090;&#1100; &#1080;&#1075;&#1088;&#1086;&#1074;&#1099;&#1077; &#1086;&#1073;&#1098;&#1077;&#1082;&#1090;&#1099;"><rect fill="#FF0000" height="36.2969" rx="2.5" ry="2.5" style="stroke:#181818;stroke-width:0.5;" width="259" x="165" y="681"/><text fill="#000000" font-family="sans-serif" font-size="14" lengthAdjust="spacing" textLength="239" x="175" y="703.9951">&#1043;&#1077;&#1085;&#1077;&#1088;&#1080;&#1088;&#1086;&#1074;&#1072;&#1090;&#1100; &#1080;&#1075;&#1088;&#1086;&#1074;&#1099;&#1077; &#1086;&#1073;&#1098;&#1077;&#1082;&#1090;&#1099;</text></g><!--entity ?????????????? ???????????--><g id="elem_&#1069;&#1082;&#1089;&#1087;&#1086;&#1088;&#1090;&#1080;&#1088;&#1086;&#1074;&#1072;&#1090;&#1100; &#1087;&#1088;&#1086;&#1093;&#1086;&#1078;&#1076;&#1077;&#1085;&#1080;&#1077;"><rect fill="#F1F1F1" height="36.2969" rx="2.5" ry="2.5" style="stroke:#181818;stroke-width:0.5;" width="248" x="170.5" y="792"/><text fill="#000000" font-family="sans-serif" font-size="14" lengthAdjust="spacing" textLength="228" x="180.5" y="814.9951">&#1069;&#1082;&#1089;&#1087;&#1086;&#1088;&#1090;&#1080;&#1088;&#1086;&#1074;&#1072;&#1090;&#1100; &#1087;&#1088;&#1086;&#1093;&#1086;&#1078;&#1076;&#1077;&#1085;&#1080;&#1077;</text></g><!--entity ??????????? ?????????--><g id="elem_&#1047;&#1072;&#1087;&#1088;&#1072;&#1096;&#1080;&#1074;&#1072;&#1090;&#1100; &#1087;&#1086;&#1076;&#1089;&#1082;&#1072;&#1079;&#1082;&#1080;"><rect fill="#FF0000" height="36.2969" rx="2.5" ry="2.5" style="stroke:#181818;stroke-width:0.5;" width="199" x="195" y="41"/><text fill="#000000" font-family="sans-serif" font-size="14" lengthAdjust="spacing" textLength="179" x="205" y="63.9951">&#1047;&#1072;&#1087;&#1088;&#1072;&#1096;&#1080;&#1074;&#1072;&#1090;&#1100; &#1087;&#1086;&#1076;&#1089;&#1082;&#1072;&#1079;&#1082;&#1080;</text></g><!--entity ??????????? ?????????--><g id="elem_&#1053;&#1072;&#1089;&#1090;&#1088;&#1072;&#1080;&#1074;&#1072;&#1090;&#1100; &#1087;&#1086;&#1076;&#1089;&#1082;&#1072;&#1079;&#1082;&#1080;"><rect fill="#F1F1F1" height="36.2969" rx="2.5" ry="2.5" style="stroke:#181818;stroke-width:0.5;" width="195" x="197" y="112"/><text fill="#000000" font-family="sans-serif" font-size="14" lengthAdjust="spacing" textLength="175" x="207" y="134.9951">&#1053;&#1072;&#1089;&#1090;&#1088;&#1072;&#1080;&#1074;&#1072;&#1090;&#1100; &#1087;&#1086;&#1076;&#1089;&#1082;&#1072;&#1079;&#1082;&#1080;</text></g><!--SRC=[nLJDJi904Bxp52lUyI4ywCrdgB1YjJ-a52-6130g4HCE7YH6Wpw0IK4A3J_b5MRVo6-teALG4hpOGzETcVrcvljcQl0pbxasS_JYkSiAkiFphcvRcKn9orzgHSwor1Krycb0K_95WsQYHJwZa7eq8K_KOGeO3ZwD64vt-9Z1NgC0NtsO6CqHtHSjqLG-2J357T5Gk3tf90-EGBIb8ykqCZkqJTEss7M6uTdJhRnHAN2MEoZOfgPRvLofOXhAvt3JlkA8jrnkkN7JiRvwFk8MTpJNTkB6azCBD9ofnljzGKKpjENBT_P_QlYWK54RWfEPf9BH62HDmQMYIj8K5HRJ2VhKH5rMZw3XCY3Ab7SrgsWie6a4EJr9EqHub0Ajt2Glk_7ckne3ZyPISuWNxepGKHs42FqhmYUortV4g2Q8wj1NTEzdbCK3MaDRefN6MXTX4t4ZxXUvP9QaGZ4Wf6Rx3Yzin7fLezNU6IVPnvFQ9xGiQrACf9R_6vgWBDZAHMfg-Ky8nItYXnW9FzhUjEJRDLj78d-fsyfEI0a609ABCC9xumgaX2HBUaR0N17NHBxO0AtTJrNnBVhxIP3j4CjUlW40]--></g></svg>