<?xml version="1.0" encoding="us-ascii" standalone="no"?><svg xmlns="http://www.w3.org/2000/svg" xmlns:xlink="http://www.w3.org/1999/xlink" contentStyleType="text/css" height="926px" preserveAspectRatio="none" style="width:1884px;height:926px;background:#FFFFFF;" version="1.1" viewBox="0 0 1884 926" width="1884px" zoomAndPan="magnify"><defs/><g><!--cluster srv1--><g id="cluster_srv1"><polygon fill="none" points="308,157.5,318,147.5,1584,147.5,1584,899.5,1574,909.5,308,909.5,308,157.5" style="stroke:#181818;stroke-width:1.0;"/><line style="stroke:#181818;stroke-width:1.0;" x1="1574" x2="1584" y1="157.5" y2="147.5"/><line style="stroke:#181818;stroke-width:1.0;" x1="308" x2="1574" y1="157.5" y2="157.5"/><line style="stroke:#181818;stroke-width:1.0;" x1="1574" x2="1574" y1="157.5" y2="909.5"/><text fill="#000000" font-family="sans-serif" font-size="14" font-weight="bold" lengthAdjust="spacing" textLength="35" x="924.5" y="173.4951">srv1</text></g><!--cluster ????????? nginx--><g id="cluster_&#1082;&#1086;&#1085;&#1090;&#1077;&#1081;&#1085;&#1077;&#1088; nginx"><rect fill="none" height="184" rx="2.5" ry="2.5" style="stroke:#181818;stroke-width:1.0;" width="356" x="1152" y="225.5"/><text fill="#000000" font-family="sans-serif" font-size="14" font-weight="bold" lengthAdjust="spacing" textLength="136" x="1262" y="240.4951">&#1082;&#1086;&#1085;&#1090;&#1077;&#1081;&#1085;&#1077;&#1088; nginx</text></g><!--cluster ????????? ???????--><g id="cluster_&#1082;&#1086;&#1085;&#1090;&#1077;&#1081;&#1085;&#1077;&#1088; &#1089;&#1077;&#1088;&#1074;&#1080;&#1089;&#1072;"><rect fill="none" height="178" rx="2.5" ry="2.5" style="stroke:#181818;stroke-width:1.0;" width="238" x="1176" y="481.5"/><text fill="#000000" font-family="sans-serif" font-size="14" font-weight="bold" lengthAdjust="spacing" textLength="159" x="1215.5" y="496.4951">&#1082;&#1086;&#1085;&#1090;&#1077;&#1081;&#1085;&#1077;&#1088; &#1089;&#1077;&#1088;&#1074;&#1080;&#1089;&#1072;</text></g><!--cluster ????????? ??--><g id="cluster_&#1082;&#1086;&#1085;&#1090;&#1077;&#1081;&#1085;&#1077;&#1088; &#1041;&#1044;"><rect fill="none" height="144.5" rx="2.5" ry="2.5" style="stroke:#181818;stroke-width:1.0;" width="159" x="464" y="748.5"/><text fill="#000000" font-family="sans-serif" font-size="14" font-weight="bold" lengthAdjust="spacing" textLength="116" x="485.5" y="763.4951">&#1082;&#1086;&#1085;&#1090;&#1077;&#1081;&#1085;&#1077;&#1088; &#1041;&#1044;</text></g><!--cluster ????????? ???????--><g id="cluster_&#1082;&#1086;&#1085;&#1090;&#1077;&#1081;&#1085;&#1077;&#1088; &#1086;&#1095;&#1077;&#1088;&#1077;&#1076;&#1080;"><rect fill="none" height="135" rx="2.5" ry="2.5" style="stroke:#181818;stroke-width:1.0;" width="190" x="1378" y="748.5"/><text fill="#000000" font-family="sans-serif" font-size="14" font-weight="bold" lengthAdjust="spacing" textLength="164" x="1391" y="763.4951">&#1082;&#1086;&#1085;&#1090;&#1077;&#1081;&#1085;&#1077;&#1088; &#1086;&#1095;&#1077;&#1088;&#1077;&#1076;&#1080;</text></g><!--cluster ????????? ?????????--><g id="cluster_&#1082;&#1086;&#1085;&#1090;&#1077;&#1081;&#1085;&#1077;&#1088; &#1087;&#1086;&#1076;&#1089;&#1082;&#1072;&#1079;&#1086;&#1082;"><rect fill="none" height="145" rx="2.5" ry="2.5" style="stroke:#181818;stroke-width:1.0;" width="598" x="631" y="748.5"/><text fill="#000000" font-family="sans-serif" font-size="14" font-weight="bold" lengthAdjust="spacing" textLength="180" x="840" y="763.4951">&#1082;&#1086;&#1085;&#1090;&#1077;&#1081;&#1085;&#1077;&#1088; &#1087;&#1086;&#1076;&#1089;&#1082;&#1072;&#1079;&#1086;&#1082;</text></g><!--cluster srv2--><g id="cluster_srv2"><polygon fill="none" points="16,669.5,26,659.5,300,659.5,300,777,290,787,16,787,16,669.5" style="stroke:#181818;stroke-width:1.0;"/><line style="stroke:#181818;stroke-width:1.0;" x1="290" x2="300" y1="669.5" y2="659.5"/><line style="stroke:#181818;stroke-width:1.0;" x1="16" x2="290" y1="669.5" y2="669.5"/><line style="stroke:#181818;stroke-width:1.0;" x1="290" x2="290" y1="669.5" y2="787"/><text fill="#000000" font-family="sans-serif" font-size="14" font-weight="bold" lengthAdjust="spacing" textLength="35" x="136.5" y="685.4951">srv2</text></g><text fill="#000000" font-family="sans-serif" font-size="14" lengthAdjust="spacing" textLength="21" x="1081.5" y="126.1982">pi1</text><rect fill="#F1F1F1" height="12" style="stroke:#181818;stroke-width:1.5;" width="12" x="1086" y="141.5"/><text fill="#000000" font-family="sans-serif" font-size="14" lengthAdjust="spacing" textLength="21" x="1159.5" y="204.1982">ni1</text><rect fill="#F1F1F1" height="12" style="stroke:#181818;stroke-width:1.5;" width="12" x="1164" y="219.5"/><text fill="#000000" font-family="sans-serif" font-size="14" lengthAdjust="spacing" textLength="27" x="1286.5" y="428.4951">no1</text><rect fill="#F1F1F1" height="12" style="stroke:#181818;stroke-width:1.5;" width="12" x="1294" y="403.5"/><!--entity gateway--><g id="elem_gateway"><rect fill="#F1F1F1" height="46.2969" rx="2.5" ry="2.5" style="stroke:#181818;stroke-width:0.5;" width="124" x="1368" y="297.5"/><rect fill="#F1F1F1" height="10" style="stroke:#181818;stroke-width:0.5;" width="15" x="1472" y="302.5"/><rect fill="#F1F1F1" height="2" style="stroke:#181818;stroke-width:0.5;" width="4" x="1470" y="304.5"/><rect fill="#F1F1F1" height="2" style="stroke:#181818;stroke-width:0.5;" width="4" x="1470" y="308.5"/><text fill="#000000" font-family="sans-serif" font-size="14" lengthAdjust="spacing" textLength="84" x="1383" y="330.4951">API Gateway</text></g><!--entity cache--><g id="elem_cache"><rect fill="#F1F1F1" height="36.2969" rx="35" ry="35" style="stroke:#181818;stroke-width:0.5;" width="52" x="1281" y="302.5"/><text fill="#000000" font-family="sans-serif" font-size="14" lengthAdjust="spacing" textLength="32" x="1291" y="325.4951">&#1050;&#1077;&#1096;</text></g><text fill="#000000" font-family="sans-serif" font-size="14" lengthAdjust="spacing" textLength="20" x="1290" y="460.1982">si1</text><rect fill="#F1F1F1" height="12" style="stroke:#181818;stroke-width:1.5;" width="12" x="1294" y="475.5"/><!--entity service--><g id="elem_service"><rect fill="#F1F1F1" height="46.2969" rx="2.5" ry="2.5" style="stroke:#181818;stroke-width:0.5;" width="93" x="1194.5" y="547.5"/><rect fill="#F1F1F1" height="10" style="stroke:#181818;stroke-width:0.5;" width="15" x="1267.5" y="552.5"/><rect fill="#F1F1F1" height="2" style="stroke:#181818;stroke-width:0.5;" width="4" x="1265.5" y="554.5"/><rect fill="#F1F1F1" height="2" style="stroke:#181818;stroke-width:0.5;" width="4" x="1265.5" y="558.5"/><text fill="#000000" font-family="sans-serif" font-size="14" lengthAdjust="spacing" textLength="53" x="1209.5" y="580.4951">&#1057;&#1077;&#1088;&#1074;&#1080;&#1089;</text></g><text fill="#000000" font-family="sans-serif" font-size="14" lengthAdjust="spacing" textLength="26" x="1181" y="678.4951">so1</text><rect fill="#F1F1F1" height="12" style="stroke:#181818;stroke-width:1.5;" width="12" x="1188" y="653.5"/><text fill="#000000" font-family="sans-serif" font-size="14" lengthAdjust="spacing" textLength="26" x="1228" y="678.4951">so2</text><rect fill="#F1F1F1" height="12" style="stroke:#181818;stroke-width:1.5;" width="12" x="1235" y="653.5"/><text fill="#000000" font-family="sans-serif" font-size="14" lengthAdjust="spacing" textLength="26" x="1279" y="678.4951">so3</text><rect fill="#F1F1F1" height="12" style="stroke:#181818;stroke-width:1.5;" width="12" x="1286" y="653.5"/><text fill="#000000" font-family="sans-serif" font-size="14" lengthAdjust="spacing" textLength="26" x="1333" y="678.4951">so4</text><rect fill="#F1F1F1" height="12" style="stroke:#181818;stroke-width:1.5;" width="12" x="1340" y="653.5"/><text fill="#000000" font-family="sans-serif" font-size="14" lengthAdjust="spacing" textLength="26" x="1383" y="678.4951">so5</text><rect fill="#F1F1F1" height="12" style="stroke:#181818;stroke-width:1.5;" width="12" x="1390" y="653.5"/><text fill="#000000" font-family="sans-serif" font-size="14" lengthAdjust="spacing" textLength="21" x="471.5" y="727.1982">di1</text><rect fill="#F1F1F1" height="12" style="stroke:#181818;stroke-width:1.5;" width="12" x="476" y="742.5"/><!--entity db--><g id="elem_db"><path d="M507.5,842 C507.5,832 557,832 557,832 C557,832 606.5,832 606.5,842 L606.5,867.2969 C606.5,877.2969 557,877.2969 557,877.2969 C557,877.2969 507.5,877.2969 507.5,867.2969 L507.5,842 " fill="#F1F1F1" style="stroke:#181818;stroke-width:0.5;"/><path d="M507.5,842 C507.5,852 557,852 557,852 C557,852 606.5,852 606.5,842 " fill="none" style="stroke:#181818;stroke-width:0.5;"/><text fill="#000000" font-family="sans-serif" font-size="14" lengthAdjust="spacing" textLength="79" x="517.5" y="868.9951">&#1041;&#1044; &#1084;&#1072;&#1089;&#1090;&#1077;&#1088;</text></g><text fill="#000000" font-family="sans-serif" font-size="14" lengthAdjust="spacing" textLength="18" x="1387" y="727.1982">q1</text><rect fill="#F1F1F1" height="12" style="stroke:#181818;stroke-width:1.5;" width="12" x="1390" y="742.5"/><!--entity coreQueue--><g id="elem_coreQueue"><path d="M1473,841.5 L1547,841.5 C1552,841.5 1552,854.6484 1552,854.6484 C1552,854.6484 1552,867.7969 1547,867.7969 L1473,867.7969 C1468,867.7969 1468,854.6484 1468,854.6484 C1468,854.6484 1468,841.5 1473,841.5 " fill="#F1F1F1" style="stroke:#181818;stroke-width:0.5;"/><path d="M1547,841.5 C1542,841.5 1542,854.6484 1542,854.6484 C1542,867.7969 1547,867.7969 1547,867.7969 " fill="none" style="stroke:#181818;stroke-width:0.5;"/><text fill="#000000" font-family="sans-serif" font-size="14" lengthAdjust="spacing" textLength="64" x="1473" y="859.4951">&#1054;&#1095;&#1077;&#1088;&#1077;&#1076;&#1100;</text></g><text fill="#000000" font-family="sans-serif" font-size="14" lengthAdjust="spacing" textLength="21" x="1114.5" y="727.1982">hi1</text><rect fill="#F1F1F1" height="12" style="stroke:#181818;stroke-width:1.5;" width="12" x="1119" y="742.5"/><!--entity hint--><g id="elem_hint"><rect fill="#F1F1F1" height="46.2969" rx="2.5" ry="2.5" style="stroke:#181818;stroke-width:0.5;" width="176" x="1037" y="831.5"/><rect fill="#F1F1F1" height="10" style="stroke:#181818;stroke-width:0.5;" width="15" x="1193" y="836.5"/><rect fill="#F1F1F1" height="2" style="stroke:#181818;stroke-width:0.5;" width="4" x="1191" y="838.5"/><rect fill="#F1F1F1" height="2" style="stroke:#181818;stroke-width:0.5;" width="4" x="1191" y="842.5"/><text fill="#000000" font-family="sans-serif" font-size="14" lengthAdjust="spacing" textLength="136" x="1052" y="864.4951">&#1052;&#1086;&#1076;&#1091;&#1083;&#1100; &#1087;&#1086;&#1076;&#1089;&#1082;&#1072;&#1079;&#1086;&#1082;</text></g><!--entity hintDb--><g id="elem_hintDb"><path d="M878.5,842 C878.5,832 940,832 940,832 C940,832 1001.5,832 1001.5,842 L1001.5,867.2969 C1001.5,877.2969 940,877.2969 940,877.2969 C940,877.2969 878.5,877.2969 878.5,867.2969 L878.5,842 " fill="#F1F1F1" style="stroke:#181818;stroke-width:0.5;"/><path d="M878.5,842 C878.5,852 940,852 940,852 C940,852 1001.5,852 1001.5,842 " fill="none" style="stroke:#181818;stroke-width:0.5;"/><text fill="#000000" font-family="sans-serif" font-size="14" lengthAdjust="spacing" textLength="103" x="888.5" y="868.9951">&#1041;&#1044; &#1087;&#1086;&#1076;&#1089;&#1082;&#1072;&#1079;&#1086;&#1082;</text></g><text fill="#000000" font-family="sans-serif" font-size="14" lengthAdjust="spacing" textLength="17" x="222.5" y="638.1982">ri1</text><rect fill="#F1F1F1" height="12" style="stroke:#181818;stroke-width:1.5;" width="12" x="225" y="653.5"/><!--entity replica--><g id="elem_replica"><path d="M177.5,736 C177.5,726 231,726 231,726 C231,726 284.5,726 284.5,736 L284.5,761.2969 C284.5,771.2969 231,771.2969 231,771.2969 C231,771.2969 177.5,771.2969 177.5,761.2969 L177.5,736 " fill="#F1F1F1" style="stroke:#181818;stroke-width:0.5;"/><path d="M177.5,736 C177.5,746 231,746 231,746 C231,746 284.5,746 284.5,736 " fill="none" style="stroke:#181818;stroke-width:0.5;"/><text fill="#000000" font-family="sans-serif" font-size="14" lengthAdjust="spacing" textLength="87" x="187.5" y="762.9951">&#1041;&#1044; &#1088;&#1077;&#1087;&#1083;&#1080;&#1082;&#1072;</text></g><!--entity users--><g id="elem_users"><ellipse cx="1092" cy="14" fill="#F1F1F1" rx="8" ry="8" style="stroke:#181818;stroke-width:0.5;"/><path d="M1092,22 L1092,49 M1079,30 L1105,30 M1092,49 L1079,64 M1092,49 L1105,64 " fill="none" style="stroke:#181818;stroke-width:0.5;"/><text fill="#000000" font-family="sans-serif" font-size="14" lengthAdjust="spacing" textLength="105" x="1039.5" y="78.4951">&#1055;&#1086;&#1083;&#1100;&#1079;&#1086;&#1074;&#1072;&#1090;&#1077;&#1083;&#1080;</text></g><!--entity oauth2--><g id="elem_oauth2"><path d="M1600.0967,734.947 C1604.7395,727.2755 1609.3373,727.157 1614.3895,734.5587 C1617.7676,729.4435 1621.334,728.7729 1625.0282,734.2408 C1628.5435,727.3632 1633.2768,725.9553 1638.6697,732.3043 C1641.5488,726.345 1646.8491,725.1357 1650.8676,731.143 C1653.7635,725.0842 1659.3358,725.0376 1662.5982,730.7788 C1666.8012,726.7294 1671.518,726.3266 1673.7885,732.8283 C1677.8993,726.9227 1682.1083,726.8421 1686.2298,732.8171 C1690.0712,726.1893 1694.9138,726.1789 1699.0577,732.5178 C1703.376,725.8567 1708.477,726.8092 1711.7409,733.5181 C1715.8081,728.8287 1720.9176,729.8683 1723.3109,735.4109 C1732.8357,735.9467 1734.7245,740.8958 1731.6692,749.1082 C1737.7165,757.7502 1733.2956,764.9669 1723.4706,765.8238 C1719.6001,771.1026 1714.6574,771.9336 1710.7724,765.8401 C1707.4142,773.3664 1703.3781,773.4825 1697.9599,767.845 C1695.0435,773.2539 1689.0497,772.8498 1685.9454,768.0665 C1683.462,774.2345 1679.3837,774.5632 1675.3075,769.5869 C1671.9463,775.985 1668.0478,777.8768 1662.5357,771.7867 C1657.9151,777.8205 1652.3901,775.6082 1650.1693,769.3687 C1646.3855,774.5702 1640.8714,775.6136 1637.7265,768.712 C1634.2929,773.871 1629.9219,773.2229 1626.5685,768.6203 C1621.9018,773.1826 1617.3255,773.4079 1614.0565,767.0228 C1609.4883,772.6976 1603.8129,773.0816 1600.2667,765.9245 C1589.4003,765.4066 1587.45,758.1338 1592.852,750.0279 C1587.9223,741.9391 1590.1111,735.8706 1600.0967,734.947 " fill="#F1F1F1" style="stroke:#181818;stroke-width:0.5;"/><text fill="#000000" font-family="sans-serif" font-size="14" lengthAdjust="spacing" textLength="108" x="1607" y="753.4951">OAuth2-&#1089;&#1077;&#1088;&#1074;&#1080;&#1089;</text></g><!--entity discord--><g id="elem_discord"><path d="M1773.6148,734.0887 C1776.3699,728.0183 1781.7212,728.4515 1785.375,733.103 C1787.9684,726.8065 1793.6674,727.7086 1796.8954,732.44 C1799.7197,726.5252 1804.4233,725.6544 1808.5339,731.1252 C1811.9853,727.0295 1816.8848,726.3453 1819.1792,732.3452 C1822.669,726.0708 1826.8459,726.1153 1831.1453,731.5152 C1835.6935,725.2085 1840.7565,726.6076 1843.8418,732.9801 C1847.4039,727.8189 1853.102,729.1239 1855.6374,734.167 C1858.9297,728.9107 1862.7325,729.5634 1865.5137,734.6548 C1875.4308,735.9276 1875.5933,741.5102 1871.9468,748.9057 C1877.4571,756.3506 1873.821,763.9501 1865.0202,765.3766 C1862.4834,769.8505 1858.7705,770.8477 1855.4855,766.1549 C1853.2651,772.383 1848.9137,773.8412 1843.6081,769.6832 C1840.312,776.1065 1835.4567,776.453 1831.1579,770.7092 C1829.3841,776.0985 1823.9607,777.9809 1819.9761,773.1211 C1816.1674,778.6734 1811.1641,777.8248 1808.9123,771.652 C1804.7332,776.7998 1799.3545,774.52 1797.6214,769.0508 C1792.7717,775.4879 1788.1597,774.0046 1784.9396,767.459 C1779.8449,770.6796 1776.0457,770.0135 1774.0803,763.8411 C1764.9204,762.7953 1764.1413,757.171 1768.144,750.3384 C1762.2786,743.8355 1765.0966,735.7491 1773.6148,734.0887 " fill="#F1F1F1" style="stroke:#181818;stroke-width:0.5;"/><text fill="#000000" font-family="sans-serif" font-size="14" lengthAdjust="spacing" textLength="78" x="1780" y="753.4951">Discord API</text></g><!--link ni1 to gateway--><g id="link_ni1_gateway"><path d="M1176.27,228.61 C1199.51,236.45 1282.84,264.7 1351,289.5 C1357.89,292.01 1365.11,294.68 1372.25,297.36 " fill="none" id="ni1-gateway" style="stroke:#181818;stroke-width:1.0;"/></g><!--link gateway to no1--><g id="link_gateway_no1"><path d="M1396.86,343.68 C1365.87,364.42 1322.03,393.75 1306.09,404.42 " fill="none" id="gateway-no1" style="stroke:#181818;stroke-width:1.0;"/></g><!--link cache to gateway--><g id="link_cache_gateway"><path d="M1333.43,320.5 C1344.87,320.5 1356.31,320.5 1367.75,320.5 " fill="none" id="cache-gateway" style="stroke:#181818;stroke-width:1.0;"/></g><!--link si1 to service--><g id="link_si1_service"><path d="M1296.49,487.68 C1288.7,499.17 1269.59,527.34 1255.98,547.41 " fill="none" id="si1-service" style="stroke:#181818;stroke-width:1.0;"/></g><!--link service to so1--><g id="link_service_so1"><path d="M1228.9,593.9 C1218.02,614.04 1202.84,642.14 1196.72,653.47 " fill="none" id="service-so1" style="stroke:#181818;stroke-width:1.0;"/></g><!--link service to so2--><g id="link_service_so2"><path d="M1241,593.9 C1241,614.04 1241,642.14 1241,653.47 " fill="none" id="service-so2" style="stroke:#181818;stroke-width:1.0;"/></g><!--link service to so3--><g id="link_service_so3"><path d="M1254.13,593.9 C1265.94,614.04 1282.41,642.14 1289.05,653.47 " fill="none" id="service-so3" style="stroke:#181818;stroke-width:1.0;"/></g><!--link service to so4--><g id="link_service_so4"><path d="M1267.77,593.68 C1292.07,613.82 1326.15,642.05 1339.9,653.44 " fill="none" id="service-so4" style="stroke:#181818;stroke-width:1.0;"/></g><!--link di1 to db--><g id="link_di1_db"><path d="M485.62,754.52 C495.51,768.23 523.45,806.98 541.3,831.73 " fill="none" id="di1-db" style="stroke:#181818;stroke-width:1.0;"/></g><!--link q1 to coreQueue--><g id="link_q1_coreQueue"><path d="M1401.5,754.52 C1418.67,770.18 1471.62,818.48 1496.64,841.31 " fill="none" id="q1-coreQueue" style="stroke:#181818;stroke-width:1.0;"/></g><!--link hi1 to hint--><g id="link_hi1_hint"><path d="M1125,754.52 C1125,768.15 1125,806.52 1125,831.29 " fill="none" id="hi1-hint" style="stroke:#181818;stroke-width:1.0;"/></g><!--link hintDb to hint--><g id="link_hintDb_hint"><path d="M1001.79,854.5 C1013.5,854.5 1025.21,854.5 1036.92,854.5 " fill="none" id="hintDb-hint" style="stroke:#181818;stroke-width:1.0;"/></g><!--link pi1 to ni1--><g id="link_pi1_ni1"><path d="M1098.02,152.05 C1110.89,159.9 1141.39,179.89 1160,203.5 C1163.8,208.32 1166.61,214.82 1168.27,219.31 " fill="none" id="pi1-ni1" style="stroke:#181818;stroke-width:1.0;"/></g><!--link no1 to si1--><g id="link_no1_si1"><path d="M1300,415.53 C1300,428.32 1300,461.98 1300,475.13 " fill="none" id="no1-si1" style="stroke:#181818;stroke-width:1.0;"/></g><!--link so1 to di1--><g id="link_so1_di1"><path d="M1187.77,660.88 C1142.13,663.68 854.39,682.25 623,718 C570.36,726.13 507.7,741.15 488.14,745.97 " fill="none" id="so1-di1" style="stroke:#181818;stroke-width:1.0;"/></g><!--link so2 to hi1--><g id="link_so2_hi1"><path d="M1234.76,665.18 C1214.62,680.28 1151.45,727.66 1131.27,742.8 " fill="none" id="so2-hi1" style="stroke:#181818;stroke-width:1.0;"/></g><!--link so5 to q1--><g id="link_so5_q1"><path d="M1396,665.68 C1396,681.19 1396,727.12 1396,742.45 " fill="none" id="so5-q1" style="stroke:#181818;stroke-width:1.0;"/></g><!--link ri1 to replica--><g id="link_ri1_replica"><path d="M231,665.68 C231,677.24 231,705.7 231,725.79 " fill="none" id="ri1-replica" style="stroke:#181818;stroke-width:1.0;"/></g><!--link users to pi1--><g id="link_users_pi1"><path d="M1092,81.61 C1092,104.17 1092,130.65 1092,141.49 " fill="none" id="users-pi1" style="stroke:#181818;stroke-width:1.0;"/></g><!--link so3 to oauth2--><g id="link_so3_oauth2"><path d="M1298.03,663.5 C1304.17,666.45 1314.04,670.87 1323,673.5 C1432.55,705.66 1465.49,689.3 1576,718 C1584.32,720.16 1592.98,722.75 1601.46,725.49 " fill="none" id="so3-oauth2" style="stroke:#181818;stroke-width:1.0;"/></g><!--link so4 to discord--><g id="link_so4_discord"><path d="M1352.41,664.34 C1357.74,667.34 1365.61,671.35 1373,673.5 C1534.14,720.43 1585.63,675.51 1748,718 C1755.49,719.96 1763.23,722.55 1770.72,725.37 " fill="none" id="so4-discord" style="stroke:#181818;stroke-width:1.0;"/></g><!--link ri1 to di1--><g id="link_ri1_di1"><path d="M237.2,662.65 C271.78,674.63 440.38,733.07 475.56,745.27 " fill="none" id="ri1-di1" style="stroke:#181818;stroke-width:1.0;"/></g><!--SRC=[ZLHBRjim4Dth58Jsiv2I7210W2Ahj4TW9C8Iu9AEIEM3m42IBjf5DWMwAeeMlO4Hn4Zg_Aumkb67b6JA3WrO6seUv_iuCpmpgc8n_i5NV6fkyO7EEvmrDpZ79toC6TUirgBIKIHLBbYigzCaPfSHes-YAbDADYcJoCcLo0oNep6fuO8SlJWt__05vyqLawDIdlUc0tD9vaD8rOP9vR5CVPueAQHXyVx7G_Q16t76Brnce_P_gQgf63wouNzIo6zE9-DP8POQ50pMhJePXa5xR2p0EvXkKMLpRG_Yy97-Pe5oTHai3VzwEvStaNvQPk8TDLeb0ImDO3i1R3U0xNd-Y9trk9qCmxWUImFOJW3RtPf0_8u_0hJb0zfoRlWnrzQUb1a-KyDUMoVDbQCkF_QgL54dJhTfKdnjlhg7cEEzRN-VHvyBEqbMi9DQrDRNRs_OtBQTfohnoTwkwYSC0bVRPVT6q3qrrW9dRbGN0QQA3Gtsozb-iMCUT4GP5wKq6rdUR7BW-QRWiEAblVTOsmAqCW3wmQUv0-Z7GbiXNmefGB4KzW28_6cKZLMTi_XelpP52iE9SoafRl5Uww3Kn7REQ7UqpT7AWtsMhkspgWkuHe1xspUx5Iq5pbSb9kCou-tBKKczF8tSpWImgv460g3BYGR1LjTcO2rigVy1]--></g></svg>