<?xml version="1.0" encoding="us-ascii" standalone="no"?><svg xmlns="http://www.w3.org/2000/svg" xmlns:xlink="http://www.w3.org/1999/xlink" contentStyleType="text/css" height="892px" preserveAspectRatio="none" style="width:1179px;height:892px;background:#FFFFFF;" version="1.1" viewBox="0 0 1179 892" width="1179px" zoomAndPan="magnify"><defs/><g><!--cluster ????????? ??????--><g id="cluster_&#1057;&#1090;&#1072;&#1088;&#1090;&#1086;&#1074;&#1099;&#1081; &#1089;&#1077;&#1088;&#1074;&#1077;&#1088;"><polygon fill="none" points="16,157.5,26,147.5,865,147.5,865,865.5,855,875.5,16,875.5,16,157.5" style="stroke:#181818;stroke-width:1.0;"/><line style="stroke:#181818;stroke-width:1.0;" x1="855" x2="865" y1="157.5" y2="147.5"/><line style="stroke:#181818;stroke-width:1.0;" x1="16" x2="855" y1="157.5" y2="157.5"/><line style="stroke:#181818;stroke-width:1.0;" x1="855" x2="855" y1="157.5" y2="875.5"/><text fill="#000000" font-family="sans-serif" font-size="14" font-weight="bold" lengthAdjust="spacing" textLength="151" x="361" y="173.4951">&#1057;&#1090;&#1072;&#1088;&#1090;&#1086;&#1074;&#1099;&#1081; &#1089;&#1077;&#1088;&#1074;&#1077;&#1088;</text></g><!--cluster ????????? nginx--><g id="cluster_&#1082;&#1086;&#1085;&#1090;&#1077;&#1081;&#1085;&#1077;&#1088; nginx"><rect fill="none" height="184" rx="2.5" ry="2.5" style="stroke:#181818;stroke-width:1.0;" width="430" x="130" y="225.5"/><text fill="#000000" font-family="sans-serif" font-size="14" font-weight="bold" lengthAdjust="spacing" textLength="136" x="277" y="240.4951">&#1082;&#1086;&#1085;&#1090;&#1077;&#1081;&#1085;&#1077;&#1088; nginx</text></g><!--cluster ????????? ???????--><g id="cluster_&#1082;&#1086;&#1085;&#1090;&#1077;&#1081;&#1085;&#1077;&#1088; &#1089;&#1077;&#1088;&#1074;&#1080;&#1089;&#1072;"><rect fill="none" height="178" rx="2.5" ry="2.5" style="stroke:#181818;stroke-width:1.0;" width="280" x="388" y="481.5"/><text fill="#000000" font-family="sans-serif" font-size="14" font-weight="bold" lengthAdjust="spacing" textLength="159" x="448.5" y="496.4951">&#1082;&#1086;&#1085;&#1090;&#1077;&#1081;&#1085;&#1077;&#1088; &#1089;&#1077;&#1088;&#1074;&#1080;&#1089;&#1072;</text></g><!--cluster ????????? ??--><g id="cluster_&#1082;&#1086;&#1085;&#1090;&#1077;&#1081;&#1085;&#1077;&#1088; &#1041;&#1044;"><rect fill="none" height="127.5" rx="2.5" ry="2.5" style="stroke:#181818;stroke-width:1.0;" width="317" x="32" y="731.5"/><text fill="#000000" font-family="sans-serif" font-size="14" font-weight="bold" lengthAdjust="spacing" textLength="116" x="132.5" y="746.4951">&#1082;&#1086;&#1085;&#1090;&#1077;&#1081;&#1085;&#1077;&#1088; &#1041;&#1044;</text></g><!--cluster ????????? ?????????--><g id="cluster_&#1082;&#1086;&#1085;&#1090;&#1077;&#1081;&#1085;&#1077;&#1088; &#1087;&#1086;&#1076;&#1089;&#1082;&#1072;&#1079;&#1086;&#1082;"><rect fill="none" height="128" rx="2.5" ry="2.5" style="stroke:#181818;stroke-width:1.0;" width="305" x="491" y="731.5"/><text fill="#000000" font-family="sans-serif" font-size="14" font-weight="bold" lengthAdjust="spacing" textLength="180" x="553.5" y="746.4951">&#1082;&#1086;&#1085;&#1090;&#1077;&#1081;&#1085;&#1077;&#1088; &#1087;&#1086;&#1076;&#1089;&#1082;&#1072;&#1079;&#1086;&#1082;</text></g><text fill="#000000" font-family="sans-serif" font-size="14" lengthAdjust="spacing" textLength="21" x="571.5" y="126.1982">pi1</text><rect fill="#F1F1F1" height="12" style="stroke:#181818;stroke-width:1.5;" width="12" x="576" y="141.5"/><text fill="#000000" font-family="sans-serif" font-size="14" lengthAdjust="spacing" textLength="27" x="804.5" y="750.4951">po1</text><rect fill="#F1F1F1" height="12" style="stroke:#181818;stroke-width:1.5;" width="12" x="812" y="725.5"/><text fill="#000000" font-family="sans-serif" font-size="14" lengthAdjust="spacing" textLength="27" x="851.5" y="750.4951">po2</text><rect fill="#F1F1F1" height="12" style="stroke:#181818;stroke-width:1.5;" width="12" x="859" y="725.5"/><text fill="#000000" font-family="sans-serif" font-size="14" lengthAdjust="spacing" textLength="21" x="471.5" y="204.1982">ni1</text><rect fill="#F1F1F1" height="12" style="stroke:#181818;stroke-width:1.5;" width="12" x="476" y="219.5"/><text fill="#000000" font-family="sans-serif" font-size="14" lengthAdjust="spacing" textLength="27" x="468.5" y="428.4951">no1</text><rect fill="#F1F1F1" height="12" style="stroke:#181818;stroke-width:1.5;" width="12" x="476" y="403.5"/><!--entity gateway--><g id="elem_gateway"><rect fill="#FFA500" height="46.2969" rx="2.5" ry="2.5" style="stroke:#181818;stroke-width:0.5;" width="124" x="420" y="297.5"/><rect fill="#FFA500" height="10" style="stroke:#181818;stroke-width:0.5;" width="15" x="524" y="302.5"/><rect fill="#FFA500" height="2" style="stroke:#181818;stroke-width:0.5;" width="4" x="522" y="304.5"/><rect fill="#FFA500" height="2" style="stroke:#181818;stroke-width:0.5;" width="4" x="522" y="308.5"/><text fill="#000000" font-family="sans-serif" font-size="14" lengthAdjust="spacing" textLength="84" x="435" y="330.4951">API Gateway</text></g><!--entity cache--><g id="elem_cache"><rect fill="#FFA500" height="36.2969" rx="35" ry="35" style="stroke:#181818;stroke-width:0.5;" width="52" x="333" y="302.5"/><text fill="#000000" font-family="sans-serif" font-size="14" lengthAdjust="spacing" textLength="32" x="343" y="325.4951">&#1050;&#1077;&#1096;</text></g><text fill="#000000" font-family="sans-serif" font-size="14" lengthAdjust="spacing" textLength="20" x="475" y="460.1982">si1</text><rect fill="#F1F1F1" height="12" style="stroke:#181818;stroke-width:1.5;" width="12" x="479" y="475.5"/><!--entity service--><g id="elem_service"><rect fill="#FFA500" height="46.2969" rx="2.5" ry="2.5" style="stroke:#181818;stroke-width:0.5;" width="162" x="404" y="547.5"/><rect fill="#FFA500" height="10" style="stroke:#181818;stroke-width:0.5;" width="15" x="546" y="552.5"/><rect fill="#FFA500" height="2" style="stroke:#181818;stroke-width:0.5;" width="4" x="544" y="554.5"/><rect fill="#FFA500" height="2" style="stroke:#181818;stroke-width:0.5;" width="4" x="544" y="558.5"/><text fill="#000000" font-family="sans-serif" font-size="14" lengthAdjust="spacing" textLength="122" x="419" y="580.4951">&#1057;&#1077;&#1088;&#1074;&#1080;&#1089;-&#1084;&#1086;&#1085;&#1086;&#1083;&#1080;&#1090;</text></g><text fill="#000000" font-family="sans-serif" font-size="14" lengthAdjust="spacing" textLength="26" x="449" y="678.4951">so1</text><rect fill="#F1F1F1" height="12" style="stroke:#181818;stroke-width:1.5;" width="12" x="456" y="653.5"/><text fill="#000000" font-family="sans-serif" font-size="14" lengthAdjust="spacing" textLength="26" x="496" y="678.4951">so2</text><rect fill="#F1F1F1" height="12" style="stroke:#181818;stroke-width:1.5;" width="12" x="503" y="653.5"/><text fill="#000000" font-family="sans-serif" font-size="14" lengthAdjust="spacing" textLength="26" x="574" y="678.4951">so3</text><rect fill="#F1F1F1" height="12" style="stroke:#181818;stroke-width:1.5;" width="12" x="581" y="653.5"/><text fill="#000000" font-family="sans-serif" font-size="14" lengthAdjust="spacing" textLength="26" x="637" y="678.4951">so4</text><rect fill="#F1F1F1" height="12" style="stroke:#181818;stroke-width:1.5;" width="12" x="644" y="653.5"/><text fill="#000000" font-family="sans-serif" font-size="14" lengthAdjust="spacing" textLength="21" x="263.5" y="710.1982">di1</text><rect fill="#F1F1F1" height="12" style="stroke:#181818;stroke-width:1.5;" width="12" x="268" y="725.5"/><!--entity db--><g id="elem_db"><path d="M215,808 C215,798 274,798 274,798 C274,798 333,798 333,808 L333,833.2969 C333,843.2969 274,843.2969 274,843.2969 C274,843.2969 215,843.2969 215,833.2969 L215,808 " fill="#FFA500" style="stroke:#181818;stroke-width:0.5;"/><path d="M215,808 C215,818 274,818 274,818 C274,818 333,818 333,808 " fill="none" style="stroke:#181818;stroke-width:0.5;"/><text fill="#000000" font-family="sans-serif" font-size="14" lengthAdjust="spacing" textLength="98" x="225" y="834.9951">&#1041;&#1044; &#1084;&#1086;&#1085;&#1086;&#1083;&#1080;&#1090;&#1072;</text></g><text fill="#000000" font-family="sans-serif" font-size="14" lengthAdjust="spacing" textLength="21" x="498.5" y="710.1982">hi1</text><rect fill="#F1F1F1" height="12" style="stroke:#181818;stroke-width:1.5;" width="12" x="503" y="725.5"/><!--entity hint--><g id="elem_hint"><rect fill="#F1F1F1" height="46.2969" rx="2.5" ry="2.5" style="stroke:#181818;stroke-width:0.5;" width="176" x="604" y="797.5"/><rect fill="#F1F1F1" height="10" style="stroke:#181818;stroke-width:0.5;" width="15" x="760" y="802.5"/><rect fill="#F1F1F1" height="2" style="stroke:#181818;stroke-width:0.5;" width="4" x="758" y="804.5"/><rect fill="#F1F1F1" height="2" style="stroke:#181818;stroke-width:0.5;" width="4" x="758" y="808.5"/><text fill="#000000" font-family="sans-serif" font-size="14" lengthAdjust="spacing" textLength="136" x="619" y="830.4951">&#1052;&#1086;&#1076;&#1091;&#1083;&#1100; &#1087;&#1086;&#1076;&#1089;&#1082;&#1072;&#1079;&#1086;&#1082;</text></g><!--entity users--><g id="elem_users"><ellipse cx="582" cy="14" fill="#F1F1F1" rx="8" ry="8" style="stroke:#181818;stroke-width:0.5;"/><path d="M582,22 L582,49 M569,30 L595,30 M582,49 L569,64 M582,49 L595,64 " fill="none" style="stroke:#181818;stroke-width:0.5;"/><text fill="#000000" font-family="sans-serif" font-size="14" lengthAdjust="spacing" textLength="105" x="529.5" y="78.4951">&#1055;&#1086;&#1083;&#1100;&#1079;&#1086;&#1074;&#1072;&#1090;&#1077;&#1083;&#1080;</text></g><!--entity oauth2--><g id="elem_oauth2"><path d="M895.0967,806.947 C899.7395,799.2755 904.3373,799.157 909.3895,806.5587 C912.7676,801.4435 916.334,800.7729 920.0282,806.2408 C923.5435,799.3632 928.2768,797.9553 933.6697,804.3043 C936.5488,798.345 941.8491,797.1357 945.8676,803.143 C948.7635,797.0842 954.3358,797.0376 957.5982,802.7788 C961.8012,798.7294 966.518,798.3266 968.7885,804.8283 C972.8993,798.9227 977.1083,798.8421 981.2298,804.8171 C985.0712,798.1893 989.9138,798.1789 994.0577,804.5178 C998.376,797.8567 1003.477,798.8092 1006.7409,805.5181 C1010.8081,800.8287 1015.9176,801.8683 1018.3109,807.4109 C1027.8357,807.9467 1029.7245,812.8958 1026.6692,821.1082 C1032.7165,829.7502 1028.2956,836.9669 1018.4706,837.8238 C1014.6001,843.1026 1009.6574,843.9336 1005.7724,837.8401 C1002.4142,845.3664 998.3781,845.4825 992.9599,839.845 C990.0435,845.2539 984.0497,844.8498 980.9454,840.0665 C978.462,846.2345 974.3837,846.5632 970.3075,841.5869 C966.9463,847.985 963.0478,849.8768 957.5357,843.7867 C952.9151,849.8205 947.3901,847.6082 945.1693,841.3687 C941.3855,846.5702 935.8714,847.6136 932.7265,840.712 C929.2929,845.871 924.9219,845.2229 921.5685,840.6203 C916.9018,845.1826 912.3255,845.4079 909.0565,839.0228 C904.4883,844.6976 898.8129,845.0816 895.2667,837.9245 C884.4003,837.4066 882.45,830.1338 887.852,822.0279 C882.9223,813.9391 885.1111,807.8706 895.0967,806.947 " fill="#F1F1F1" style="stroke:#181818;stroke-width:0.5;"/><text fill="#000000" font-family="sans-serif" font-size="14" lengthAdjust="spacing" textLength="108" x="902" y="825.4951">OAuth2-&#1089;&#1077;&#1088;&#1074;&#1080;&#1089;</text></g><!--entity discord--><g id="elem_discord"><path d="M1068.6148,806.0887 C1071.3699,800.0183 1076.7212,800.4515 1080.375,805.103 C1082.9684,798.8065 1088.6674,799.7086 1091.8954,804.44 C1094.7197,798.5252 1099.4233,797.6544 1103.5339,803.1252 C1106.9853,799.0295 1111.8848,798.3453 1114.1792,804.3452 C1117.669,798.0708 1121.8459,798.1153 1126.1453,803.5152 C1130.6935,797.2085 1135.7565,798.6076 1138.8418,804.9801 C1142.4039,799.8189 1148.102,801.1239 1150.6374,806.167 C1153.9297,800.9107 1157.7325,801.5634 1160.5137,806.6548 C1170.4308,807.9276 1170.5933,813.5102 1166.9468,820.9057 C1172.4571,828.3506 1168.821,835.9501 1160.0202,837.3766 C1157.4834,841.8505 1153.7705,842.8477 1150.4855,838.1549 C1148.2651,844.383 1143.9137,845.8412 1138.6081,841.6832 C1135.312,848.1065 1130.4567,848.453 1126.1579,842.7092 C1124.3841,848.0985 1118.9607,849.9809 1114.9761,845.1211 C1111.1674,850.6734 1106.1641,849.8248 1103.9123,843.652 C1099.7332,848.7998 1094.3545,846.52 1092.6214,841.0508 C1087.7717,847.4879 1083.1597,846.0046 1079.9396,839.459 C1074.8449,842.6796 1071.0457,842.0135 1069.0803,835.8411 C1059.9204,834.7953 1059.1413,829.171 1063.144,822.3384 C1057.2786,815.8355 1060.0966,807.7491 1068.6148,806.0887 " fill="#F1F1F1" style="stroke:#181818;stroke-width:0.5;"/><text fill="#000000" font-family="sans-serif" font-size="14" lengthAdjust="spacing" textLength="78" x="1075" y="825.4951">Discord API</text></g><!--link ni1 to gateway--><g id="link_ni1_gateway"><path d="M482,231.5 C482,243.65 482,275.32 482,297.16 " fill="none" id="ni1-gateway" style="stroke:#181818;stroke-width:1.0;"/></g><!--link gateway to no1--><g id="link_gateway_no1"><path d="M482,343.9 C482,364.04 482,392.14 482,403.47 " fill="none" id="gateway-no1" style="stroke:#181818;stroke-width:1.0;"/></g><!--link cache to gateway--><g id="link_cache_gateway"><path d="M385.43,320.5 C396.87,320.5 408.31,320.5 419.75,320.5 " fill="none" id="cache-gateway" style="stroke:#181818;stroke-width:1.0;"/></g><!--link si1 to service--><g id="link_si1_service"><path d="M485,487.68 C485,499.17 485,527.34 485,547.41 " fill="none" id="si1-service" style="stroke:#181818;stroke-width:1.0;"/></g><!--link service to so1--><g id="link_service_so1"><path d="M479.08,593.9 C473.75,614.04 466.32,642.14 463.33,653.47 " fill="none" id="service-so1" style="stroke:#181818;stroke-width:1.0;"/></g><!--link service to so2--><g id="link_service_so2"><path d="M491.18,593.9 C496.74,614.04 504.49,642.14 507.61,653.47 " fill="none" id="service-so2" style="stroke:#181818;stroke-width:1.0;"/></g><!--link service to so3--><g id="link_service_so3"><path d="M511,593.68 C534.61,613.82 567.72,642.05 581.07,653.44 " fill="none" id="service-so3" style="stroke:#181818;stroke-width:1.0;"/></g><!--link service to so4--><g id="link_service_so4"><path d="M527.06,593.68 C567.55,615.02 625.29,645.47 643.94,655.31 " fill="none" id="service-so4" style="stroke:#181818;stroke-width:1.0;"/></g><!--link di1 to db--><g id="link_di1_db"><path d="M274,737.68 C274,749.24 274,777.7 274,797.79 " fill="none" id="di1-db" style="stroke:#181818;stroke-width:1.0;"/></g><!--link hi1 to hint--><g id="link_hi1_hint"><path d="M515.12,735.59 C516.4,736.22 517.74,736.89 519,737.5 C561.43,758.16 610.02,781.13 644.88,797.49 " fill="none" id="hi1-hint" style="stroke:#181818;stroke-width:1.0;"/></g><!--link pi1 to ni1--><g id="link_pi1_ni1"><path d="M575.93,150.77 C560.14,156.94 517.25,175.47 492,203.5 C487.89,208.06 485.14,214.61 483.58,219.18 " fill="none" id="pi1-ni1" style="stroke:#181818;stroke-width:1.0;"/></g><!--link no1 to si1--><g id="link_no1_si1"><path d="M482.22,415.53 C482.76,428.32 484.21,461.98 484.77,475.13 " fill="none" id="no1-si1" style="stroke:#181818;stroke-width:1.0;"/></g><!--link so3 to po1--><g id="link_so3_po1"><path d="M593.19,662.66 C601.02,665.36 614.93,670.04 627,673.5 C704.93,695.82 732.71,678.92 804,717.5 C807.62,719.46 811.01,722.57 813.56,725.26 " fill="none" id="so3-po1" style="stroke:#181818;stroke-width:1.0;"/></g><!--link so4 to po2--><g id="link_so4_po2"><path d="M652.71,665.51 C654.44,668.26 656.94,671.51 660,673.5 C729.78,718.84 764.59,686.95 842,717.5 C847.97,719.86 854.29,723.52 858.79,726.36 " fill="none" id="so4-po2" style="stroke:#181818;stroke-width:1.0;"/></g><!--link so1 to di1--><g id="link_so1_di1"><path d="M455.74,662.83 C427.07,673.5 308.41,717.69 280.09,728.23 " fill="none" id="so1-di1" style="stroke:#181818;stroke-width:1.0;"/></g><!--link so2 to hi1--><g id="link_so2_hi1"><path d="M509,665.53 C509,678.32 509,711.98 509,725.13 " fill="none" id="so2-hi1" style="stroke:#181818;stroke-width:1.0;"/></g><!--link users to pi1--><g id="link_users_pi1"><path d="M582,81.61 C582,104.17 582,130.65 582,141.49 " fill="none" id="users-pi1" style="stroke:#181818;stroke-width:1.0;"/></g><!--link po1 to oauth2--><g id="link_po1_oauth2"><path d="M824.29,736.46 C841.06,747.04 887.8,776.51 920.82,797.32 " fill="none" id="po1-oauth2" style="stroke:#181818;stroke-width:1.0;"/></g><!--link po2 to discord--><g id="link_po2_discord"><path d="M871.22,734.27 C894.23,740.87 976.67,764.92 1043,789.5 C1049.65,791.96 1056.59,794.69 1063.41,797.47 " fill="none" id="po2-discord" style="stroke:#181818;stroke-width:1.0;"/></g><!--SRC=[ZLHBJiCm4Dtd55POUz6q5wY4X5Z15TmaQYCLEqfSFaALIjaWmGQ95K92lK65gEY7mXMS6_7iVA56QXPnvddcpSop9yoN8Y6kUbLVQfCzg0-iRsgUJTL2RTJI9ImbepHCKiVX8WZXESFUF9lW3S_iNgr8TgCMsGHXUBlasY5uOf78Y9CuQbMc64ciVstFs4deIyRxGvrW3UAjAM2bjfgJy7x4Bqlc1Zils9kCNDIOByvYmKCkYTizFIP7J8ONxChqrC-_oO58a3UiGbB8mVgwZ6UalZE-FlC7uOudajE2fS8AcpQBAB5XI0sHsHZlqNKbwn9VSqlxQMHjLStgEAe-DQy-N9XJqmvEyppoTnig5Kn5ou9v5gnjmJgrb12eo5LZkKsREMhCis1j2zRPMqFrg9uioWKDvG8cMO-bEXxEvBTWMdT85lHsr0853Nf58VjKyWte7IUvLdCpPMjBNOD_JlJ5nDxg2RKIeSH1n6KL2nvQ0RbEc4HAou71_QIql3xGcD9oC26kDhp2W5jGkNcKwWB7ZZyKeu2u9zsH77YqUKzDAO9flFGwZ59V90711EPQvhRZcDyAae4orecAi5ZdAPn-0000]--></g></svg>