<?xml version="1.0" encoding="us-ascii" standalone="no"?><svg xmlns="http://www.w3.org/2000/svg" xmlns:xlink="http://www.w3.org/1999/xlink" contentStyleType="text/css" height="1029px" preserveAspectRatio="none" style="width:1505px;height:1029px;background:#FFFFFF;" version="1.1" viewBox="0 0 1505 1029" width="1505px" zoomAndPan="magnify"><defs/><g><!--cluster ????????? ??????--><g id="cluster_&#1057;&#1090;&#1072;&#1088;&#1090;&#1086;&#1074;&#1099;&#1081; &#1089;&#1077;&#1088;&#1074;&#1077;&#1088;"><polygon fill="none" points="465,157.5,475,147.5,1361,147.5,1361,931.5,1351,941.5,465,941.5,465,157.5" style="stroke:#181818;stroke-width:1.0;"/><line style="stroke:#181818;stroke-width:1.0;" x1="1351" x2="1361" y1="157.5" y2="147.5"/><line style="stroke:#181818;stroke-width:1.0;" x1="465" x2="1351" y1="157.5" y2="157.5"/><line style="stroke:#181818;stroke-width:1.0;" x1="1351" x2="1351" y1="157.5" y2="941.5"/><text fill="#000000" font-family="sans-serif" font-size="14" font-weight="bold" lengthAdjust="spacing" textLength="151" x="833.5" y="173.4951">&#1057;&#1090;&#1072;&#1088;&#1090;&#1086;&#1074;&#1099;&#1081; &#1089;&#1077;&#1088;&#1074;&#1077;&#1088;</text></g><!--cluster ????????? nginx--><g id="cluster_&#1082;&#1086;&#1085;&#1090;&#1077;&#1081;&#1085;&#1077;&#1088; nginx"><rect fill="none" height="184" rx="2.5" ry="2.5" style="stroke:#181818;stroke-width:1.0;" width="430" x="579" y="225.5"/><text fill="#000000" font-family="sans-serif" font-size="14" font-weight="bold" lengthAdjust="spacing" textLength="136" x="726" y="240.4951">&#1082;&#1086;&#1085;&#1090;&#1077;&#1081;&#1085;&#1077;&#1088; nginx</text></g><!--cluster ????????? ???????--><g id="cluster_&#1082;&#1086;&#1085;&#1090;&#1077;&#1081;&#1085;&#1077;&#1088; &#1089;&#1077;&#1088;&#1074;&#1080;&#1089;&#1072;"><rect fill="none" height="178" rx="2.5" ry="2.5" style="stroke:#181818;stroke-width:1.0;" width="305" x="837" y="481.5"/><text fill="#000000" font-family="sans-serif" font-size="14" font-weight="bold" lengthAdjust="spacing" textLength="159" x="910" y="496.4951">&#1082;&#1086;&#1085;&#1090;&#1077;&#1081;&#1085;&#1077;&#1088; &#1089;&#1077;&#1088;&#1074;&#1080;&#1089;&#1072;</text></g><!--cluster ????????? ??--><g id="cluster_&#1082;&#1086;&#1085;&#1090;&#1077;&#1081;&#1085;&#1077;&#1088; &#1041;&#1044;"><rect fill="none" height="169" rx="2.5" ry="2.5" style="stroke:#181818;stroke-width:1.0;" width="173" x="625" y="756.5"/><text fill="#000000" font-family="sans-serif" font-size="14" font-weight="bold" lengthAdjust="spacing" textLength="116" x="653.5" y="771.4951">&#1082;&#1086;&#1085;&#1090;&#1077;&#1081;&#1085;&#1077;&#1088; &#1041;&#1044;</text></g><!--cluster ????????? ?????????--><g id="cluster_&#1082;&#1086;&#1085;&#1090;&#1077;&#1081;&#1085;&#1077;&#1088; &#1087;&#1086;&#1076;&#1089;&#1082;&#1072;&#1079;&#1086;&#1082;"><rect fill="none" height="161" rx="2.5" ry="2.5" style="stroke:#181818;stroke-width:1.0;" width="315" x="930" y="756.5"/><text fill="#000000" font-family="sans-serif" font-size="14" font-weight="bold" lengthAdjust="spacing" textLength="180" x="997.5" y="771.4951">&#1082;&#1086;&#1085;&#1090;&#1077;&#1081;&#1085;&#1077;&#1088; &#1087;&#1086;&#1076;&#1089;&#1082;&#1072;&#1079;&#1086;&#1082;</text></g><!--cluster ?????? ????????? ??--><g id="cluster_&#1057;&#1077;&#1088;&#1074;&#1077;&#1088; &#1088;&#1077;&#1079;&#1077;&#1088;&#1074;&#1085;&#1086;&#1081; &#1041;&#1044;"><polygon fill="none" points="16,669.5,26,659.5,457,659.5,457,793.5,447,803.5,16,803.5,16,669.5" style="stroke:#181818;stroke-width:1.0;"/><line style="stroke:#181818;stroke-width:1.0;" x1="447" x2="457" y1="669.5" y2="659.5"/><line style="stroke:#181818;stroke-width:1.0;" x1="16" x2="447" y1="669.5" y2="669.5"/><line style="stroke:#181818;stroke-width:1.0;" x1="447" x2="447" y1="669.5" y2="803.5"/><text fill="#000000" font-family="sans-serif" font-size="14" font-weight="bold" lengthAdjust="spacing" textLength="180" x="142.5" y="685.4951">&#1057;&#1077;&#1088;&#1074;&#1077;&#1088; &#1088;&#1077;&#1079;&#1077;&#1088;&#1074;&#1085;&#1086;&#1081; &#1041;&#1044;</text></g><text fill="#000000" font-family="sans-serif" font-size="14" lengthAdjust="spacing" textLength="21" x="1020.5" y="126.1982">pi1</text><rect fill="#F1F1F1" height="12" style="stroke:#181818;stroke-width:1.5;" width="12" x="1025" y="141.5"/><text fill="#000000" font-family="sans-serif" font-size="14" lengthAdjust="spacing" textLength="27" x="1253.5" y="775.4951">po1</text><rect fill="#F1F1F1" height="12" style="stroke:#181818;stroke-width:1.5;" width="12" x="1261" y="750.5"/><text fill="#000000" font-family="sans-serif" font-size="14" lengthAdjust="spacing" textLength="27" x="1300.5" y="775.4951">po2</text><rect fill="#F1F1F1" height="12" style="stroke:#181818;stroke-width:1.5;" width="12" x="1308" y="750.5"/><text fill="#000000" font-family="sans-serif" font-size="14" lengthAdjust="spacing" textLength="27" x="1347.5" y="775.4951">po3</text><rect fill="#F1F1F1" height="12" style="stroke:#181818;stroke-width:1.5;" width="12" x="1355" y="750.5"/><text fill="#000000" font-family="sans-serif" font-size="14" lengthAdjust="spacing" textLength="21" x="920.5" y="204.1982">ni1</text><rect fill="#F1F1F1" height="12" style="stroke:#181818;stroke-width:1.5;" width="12" x="925" y="219.5"/><text fill="#000000" font-family="sans-serif" font-size="14" lengthAdjust="spacing" textLength="27" x="917.5" y="428.4951">no1</text><rect fill="#F1F1F1" height="12" style="stroke:#181818;stroke-width:1.5;" width="12" x="925" y="403.5"/><!--entity gateway--><g id="elem_gateway"><rect fill="#F1F1F1" height="46.2969" rx="2.5" ry="2.5" style="stroke:#181818;stroke-width:0.5;" width="124" x="869" y="297.5"/><rect fill="#F1F1F1" height="10" style="stroke:#181818;stroke-width:0.5;" width="15" x="973" y="302.5"/><rect fill="#F1F1F1" height="2" style="stroke:#181818;stroke-width:0.5;" width="4" x="971" y="304.5"/><rect fill="#F1F1F1" height="2" style="stroke:#181818;stroke-width:0.5;" width="4" x="971" y="308.5"/><text fill="#000000" font-family="sans-serif" font-size="14" lengthAdjust="spacing" textLength="84" x="884" y="330.4951">API Gateway</text></g><!--entity cache--><g id="elem_cache"><rect fill="#F1F1F1" height="36.2969" rx="35" ry="35" style="stroke:#181818;stroke-width:0.5;" width="52" x="782" y="302.5"/><text fill="#000000" font-family="sans-serif" font-size="14" lengthAdjust="spacing" textLength="32" x="792" y="325.4951">&#1050;&#1077;&#1096;</text></g><text fill="#000000" font-family="sans-serif" font-size="14" lengthAdjust="spacing" textLength="20" x="924" y="460.1982">si1</text><rect fill="#F1F1F1" height="12" style="stroke:#181818;stroke-width:1.5;" width="12" x="928" y="475.5"/><!--entity service--><g id="elem_service"><rect fill="#F1F1F1" height="46.2969" rx="2.5" ry="2.5" style="stroke:#181818;stroke-width:0.5;" width="162" x="853" y="547.5"/><rect fill="#F1F1F1" height="10" style="stroke:#181818;stroke-width:0.5;" width="15" x="995" y="552.5"/><rect fill="#F1F1F1" height="2" style="stroke:#181818;stroke-width:0.5;" width="4" x="993" y="554.5"/><rect fill="#F1F1F1" height="2" style="stroke:#181818;stroke-width:0.5;" width="4" x="993" y="558.5"/><text fill="#000000" font-family="sans-serif" font-size="14" lengthAdjust="spacing" textLength="122" x="868" y="580.4951">&#1057;&#1077;&#1088;&#1074;&#1080;&#1089;-&#1084;&#1086;&#1085;&#1086;&#1083;&#1080;&#1090;</text></g><text fill="#000000" font-family="sans-serif" font-size="14" lengthAdjust="spacing" textLength="26" x="888" y="678.4951">so1</text><rect fill="#F1F1F1" height="12" style="stroke:#181818;stroke-width:1.5;" width="12" x="895" y="653.5"/><text fill="#000000" font-family="sans-serif" font-size="14" lengthAdjust="spacing" textLength="26" x="935" y="678.4951">so2</text><rect fill="#F1F1F1" height="12" style="stroke:#181818;stroke-width:1.5;" width="12" x="942" y="653.5"/><text fill="#000000" font-family="sans-serif" font-size="14" lengthAdjust="spacing" textLength="26" x="1037" y="678.4951">so3</text><rect fill="#F1F1F1" height="12" style="stroke:#181818;stroke-width:1.5;" width="12" x="1044" y="653.5"/><text fill="#000000" font-family="sans-serif" font-size="14" lengthAdjust="spacing" textLength="26" x="1111" y="678.4951">so4</text><rect fill="#F1F1F1" height="12" style="stroke:#181818;stroke-width:1.5;" width="12" x="1118" y="653.5"/><text fill="#000000" font-family="sans-serif" font-size="14" lengthAdjust="spacing" textLength="21" x="632.5" y="735.1982">di1</text><rect fill="#F1F1F1" height="12" style="stroke:#181818;stroke-width:1.5;" width="12" x="637" y="750.5"/><!--entity db--><g id="elem_db"><path d="M664,857.5 C664,847.5 723,847.5 723,847.5 C723,847.5 782,847.5 782,857.5 L782,899.0938 C782,909.0938 723,909.0938 723,909.0938 C723,909.0938 664,909.0938 664,899.0938 L664,857.5 " fill="#F1F1F1" style="stroke:#181818;stroke-width:0.5;"/><path d="M664,857.5 C664,867.5 723,867.5 723,867.5 C723,867.5 782,867.5 782,857.5 " fill="none" style="stroke:#181818;stroke-width:0.5;"/><text fill="#000000" font-family="sans-serif" font-size="14" lengthAdjust="spacing" textLength="98" x="674" y="884.4951">&#1041;&#1044; &#1084;&#1086;&#1085;&#1086;&#1083;&#1080;&#1090;&#1072;</text><text fill="#000000" font-family="sans-serif" font-size="14" lengthAdjust="spacing" textLength="53" x="698" y="900.792">&#1084;&#1072;&#1089;&#1090;&#1077;&#1088;</text></g><text fill="#000000" font-family="sans-serif" font-size="14" lengthAdjust="spacing" textLength="21" x="937.5" y="735.1982">hi1</text><rect fill="#F1F1F1" height="12" style="stroke:#181818;stroke-width:1.5;" width="12" x="942" y="750.5"/><!--entity hint--><g id="elem_hint"><rect fill="#F1F1F1" height="46.2969" rx="2.5" ry="2.5" style="stroke:#181818;stroke-width:0.5;" width="176" x="1053" y="855.5"/><rect fill="#F1F1F1" height="10" style="stroke:#181818;stroke-width:0.5;" width="15" x="1209" y="860.5"/><rect fill="#F1F1F1" height="2" style="stroke:#181818;stroke-width:0.5;" width="4" x="1207" y="862.5"/><rect fill="#F1F1F1" height="2" style="stroke:#181818;stroke-width:0.5;" width="4" x="1207" y="866.5"/><text fill="#000000" font-family="sans-serif" font-size="14" lengthAdjust="spacing" textLength="136" x="1068" y="888.4951">&#1052;&#1086;&#1076;&#1091;&#1083;&#1100; &#1087;&#1086;&#1076;&#1089;&#1082;&#1072;&#1079;&#1086;&#1082;</text></g><text fill="#000000" font-family="sans-serif" font-size="14" lengthAdjust="spacing" textLength="17" x="373.5" y="638.1982">ri1</text><rect fill="#F1F1F1" height="12" style="stroke:#181818;stroke-width:1.5;" width="12" x="376" y="653.5"/><!--entity replica--><g id="elem_replica"><path d="M323,735.5 C323,725.5 382,725.5 382,725.5 C382,725.5 441,725.5 441,735.5 L441,777.0938 C441,787.0938 382,787.0938 382,787.0938 C382,787.0938 323,787.0938 323,777.0938 L323,735.5 " fill="#F1F1F1" style="stroke:#181818;stroke-width:0.5;"/><path d="M323,735.5 C323,745.5 382,745.5 382,745.5 C382,745.5 441,745.5 441,735.5 " fill="none" style="stroke:#181818;stroke-width:0.5;"/><text fill="#000000" font-family="sans-serif" font-size="14" lengthAdjust="spacing" textLength="98" x="333" y="762.4951">&#1041;&#1044; &#1084;&#1086;&#1085;&#1086;&#1083;&#1080;&#1090;&#1072;</text><text fill="#000000" font-family="sans-serif" font-size="14" lengthAdjust="spacing" textLength="61" x="353" y="778.792">&#1088;&#1077;&#1087;&#1083;&#1080;&#1082;&#1072;</text></g><!--entity users--><g id="elem_users"><ellipse cx="1031" cy="14" fill="#F1F1F1" rx="8" ry="8" style="stroke:#181818;stroke-width:0.5;"/><path d="M1031,22 L1031,49 M1018,30 L1044,30 M1031,49 L1018,64 M1031,49 L1044,64 " fill="none" style="stroke:#181818;stroke-width:0.5;"/><text fill="#000000" font-family="sans-serif" font-size="14" lengthAdjust="spacing" textLength="105" x="978.5" y="78.4951">&#1055;&#1086;&#1083;&#1100;&#1079;&#1086;&#1074;&#1072;&#1090;&#1077;&#1083;&#1080;</text></g><!--entity oauth2--><g id="elem_oauth2"><path d="M1221.0967,978.947 C1225.7395,971.2755 1230.3373,971.157 1235.3895,978.5587 C1238.7676,973.4435 1242.334,972.7729 1246.0282,978.2408 C1249.5435,971.3632 1254.2768,969.9553 1259.6697,976.3043 C1262.5488,970.345 1267.8491,969.1357 1271.8676,975.143 C1274.7635,969.0842 1280.3358,969.0376 1283.5982,974.7788 C1287.8012,970.7294 1292.518,970.3266 1294.7885,976.8283 C1298.8993,970.9227 1303.1083,970.8421 1307.2298,976.8171 C1311.0712,970.1893 1315.9138,970.1789 1320.0577,976.5178 C1324.376,969.8567 1329.477,970.8092 1332.7409,977.5181 C1336.8081,972.8287 1341.9176,973.8683 1344.3109,979.4109 C1353.8357,979.9467 1355.7245,984.8958 1352.6692,993.1082 C1358.7165,1001.7502 1354.2956,1008.9669 1344.4706,1009.8238 C1340.6001,1015.1026 1335.6574,1015.9336 1331.7724,1009.8401 C1328.4142,1017.3664 1324.3781,1017.4825 1318.9599,1011.845 C1316.0435,1017.2539 1310.0497,1016.8498 1306.9454,1012.0665 C1304.462,1018.2345 1300.3837,1018.5632 1296.3075,1013.5869 C1292.9463,1019.985 1289.0478,1021.8768 1283.5357,1015.7867 C1278.9151,1021.8205 1273.3901,1019.6082 1271.1693,1013.3687 C1267.3855,1018.5702 1261.8714,1019.6136 1258.7265,1012.712 C1255.2929,1017.871 1250.9219,1017.2229 1247.5685,1012.6203 C1242.9018,1017.1826 1238.3255,1017.4079 1235.0565,1011.0228 C1230.4883,1016.6976 1224.8129,1017.0816 1221.2667,1009.9245 C1210.4003,1009.4066 1208.45,1002.1338 1213.852,994.0279 C1208.9223,985.9391 1211.1111,979.8706 1221.0967,978.947 " fill="#F1F1F1" style="stroke:#181818;stroke-width:0.5;"/><text fill="#000000" font-family="sans-serif" font-size="14" lengthAdjust="spacing" textLength="108" x="1228" y="997.4951">OAuth2-&#1089;&#1077;&#1088;&#1074;&#1080;&#1089;</text></g><!--entity discord--><g id="elem_discord"><path d="M1394.6148,978.0887 C1397.3699,972.0183 1402.7212,972.4515 1406.375,977.103 C1408.9684,970.8065 1414.6674,971.7086 1417.8954,976.44 C1420.7197,970.5252 1425.4233,969.6544 1429.5339,975.1252 C1432.9853,971.0295 1437.8848,970.3453 1440.1792,976.3452 C1443.669,970.0708 1447.8459,970.1153 1452.1453,975.5152 C1456.6935,969.2085 1461.7565,970.6076 1464.8418,976.9801 C1468.4039,971.8189 1474.102,973.1239 1476.6374,978.167 C1479.9297,972.9107 1483.7325,973.5634 1486.5137,978.6548 C1496.4308,979.9276 1496.5933,985.5102 1492.9468,992.9057 C1498.4571,1000.3506 1494.821,1007.9501 1486.0202,1009.3766 C1483.4834,1013.8505 1479.7705,1014.8477 1476.4855,1010.1549 C1474.2651,1016.383 1469.9137,1017.8412 1464.6081,1013.6832 C1461.312,1020.1065 1456.4567,1020.453 1452.1579,1014.7092 C1450.3841,1020.0985 1444.9607,1021.9809 1440.9761,1017.1211 C1437.1674,1022.6734 1432.1641,1021.8248 1429.9123,1015.652 C1425.7332,1020.7998 1420.3545,1018.52 1418.6214,1013.0508 C1413.7717,1019.4879 1409.1597,1018.0046 1405.9396,1011.459 C1400.8449,1014.6796 1397.0457,1014.0135 1395.0803,1007.8411 C1385.9204,1006.7953 1385.1413,1001.171 1389.144,994.3384 C1383.2786,987.8355 1386.0966,979.7491 1394.6148,978.0887 " fill="#F1F1F1" style="stroke:#181818;stroke-width:0.5;"/><text fill="#000000" font-family="sans-serif" font-size="14" lengthAdjust="spacing" textLength="78" x="1401" y="997.4951">Discord API</text></g><!--link ni1 to gateway--><g id="link_ni1_gateway"><path d="M931,231.5 C931,243.65 931,275.32 931,297.16 " fill="none" id="ni1-gateway" style="stroke:#181818;stroke-width:1.0;"/></g><!--link gateway to no1--><g id="link_gateway_no1"><path d="M931,343.9 C931,364.04 931,392.14 931,403.47 " fill="none" id="gateway-no1" style="stroke:#181818;stroke-width:1.0;"/></g><!--link cache to gateway--><g id="link_cache_gateway"><path d="M834.43,320.5 C845.87,320.5 857.31,320.5 868.75,320.5 " fill="none" id="cache-gateway" style="stroke:#181818;stroke-width:1.0;"/></g><!--link si1 to service--><g id="link_si1_service"><path d="M934,487.68 C934,499.17 934,527.34 934,547.41 " fill="none" id="si1-service" style="stroke:#181818;stroke-width:1.0;"/></g><!--link service to so1--><g id="link_service_so1"><path d="M925.5,593.9 C917.86,614.04 907.21,642.14 902.91,653.47 " fill="none" id="service-so1" style="stroke:#181818;stroke-width:1.0;"/></g><!--link service to so2--><g id="link_service_so2"><path d="M937.61,593.9 C940.85,614.04 945.37,642.14 947.19,653.47 " fill="none" id="service-so2" style="stroke:#181818;stroke-width:1.0;"/></g><!--link service to so3--><g id="link_service_so3"><path d="M963.57,593.68 C990.69,614.02 1028.82,642.62 1043.71,653.78 " fill="none" id="service-so3" style="stroke:#181818;stroke-width:1.0;"/></g><!--link service to so4--><g id="link_service_so4"><path d="M982.44,593.68 C1029.71,615.33 1097.43,646.33 1117.91,655.71 " fill="none" id="service-so4" style="stroke:#181818;stroke-width:1.0;"/></g><!--link di1 to db--><g id="link_di1_db"><path d="M646.44,762.66 C656.04,777.06 683.69,818.54 702.99,847.49 " fill="none" id="di1-db" style="stroke:#181818;stroke-width:1.0;"/></g><!--link hi1 to hint--><g id="link_hi1_hint"><path d="M947.66,762.73 C947.33,772.04 947.99,791.63 958,803.5 C962.35,808.66 1030.61,835.48 1082.5,855.36 " fill="none" id="hi1-hint" style="stroke:#181818;stroke-width:1.0;"/></g><!--link pi1 to ni1--><g id="link_pi1_ni1"><path d="M1024.93,150.77 C1009.14,156.94 966.25,175.47 941,203.5 C936.89,208.06 934.14,214.61 932.58,219.18 " fill="none" id="pi1-ni1" style="stroke:#181818;stroke-width:1.0;"/></g><!--link no1 to si1--><g id="link_no1_si1"><path d="M931.22,415.53 C931.76,428.32 933.21,461.98 933.77,475.13 " fill="none" id="no1-si1" style="stroke:#181818;stroke-width:1.0;"/></g><!--link so3 to po1--><g id="link_so3_po1"><path d="M1056.04,662.03 C1088.94,670.39 1245.3,710.39 1253,717.5 C1262.5,726.28 1265.58,742.07 1266.56,750.26 " fill="none" id="so3-po1" style="stroke:#181818;stroke-width:1.0;"/></g><!--link so4 to po2--><g id="link_so4_po2"><path d="M1126.9,665.73 C1128.64,668.41 1131.07,671.52 1134,673.5 C1194.05,714.07 1233.31,673.65 1291,717.5 C1302.42,726.18 1309.39,742.31 1312.34,750.48 " fill="none" id="so4-po2" style="stroke:#181818;stroke-width:1.0;"/></g><!--link so1 to di1--><g id="link_so1_di1"><path d="M894.62,662.85 C858.93,675.99 684.26,740.31 649.15,753.23 " fill="none" id="so1-di1" style="stroke:#181818;stroke-width:1.0;"/></g><!--link so2 to hi1--><g id="link_so2_hi1"><path d="M948,665.61 C948,682.1 948,733.84 948,750.37 " fill="none" id="so2-hi1" style="stroke:#181818;stroke-width:1.0;"/></g><!--link ri1 to replica--><g id="link_ri1_replica"><path d="M382,665.61 C382,676.71 382,703.76 382,725.31 " fill="none" id="ri1-replica" style="stroke:#181818;stroke-width:1.0;"/></g><!--link users to pi1--><g id="link_users_pi1"><path d="M1031,81.61 C1031,104.17 1031,130.65 1031,141.49 " fill="none" id="users-pi1" style="stroke:#181818;stroke-width:1.0;"/></g><!--link po1 to oauth2--><g id="link_po1_oauth2"><path d="M1267.34,762.83 C1269.11,790.38 1277.25,917.42 1280.58,969.32 " fill="none" id="po1-oauth2" style="stroke:#181818;stroke-width:1.0;"/></g><!--link po2 to discord--><g id="link_po2_discord"><path d="M1316.64,762.62 C1321.03,771.13 1330.13,788.71 1338,803.5 C1370.01,863.65 1408.54,934.17 1427.79,969.28 " fill="none" id="po2-discord" style="stroke:#181818;stroke-width:1.0;"/></g><!--link ri1 to di1--><g id="link_ri1_di1"><path d="M388.45,662.85 C424.56,675.99 601.26,740.31 636.77,753.23 " fill="none" id="ri1-di1" style="stroke:#181818;stroke-width:1.0;"/></g><!--SRC=[ZLJDQjmm4BxxAOJlEiIR5mW4Ga_j0-IYo6BNi9MChKrQoaAINWBj9P1J28IyWIbTcjqqoIl8RvHlvDziLTWzs9vlP-QR-KOZ8QqfMEpktOjxgd-wFtZ_SbLzwLRkoJt6J9HiKQgYZ29jKWNF1_nNrUTumhF-uTQild2h-XnXUCRiMyJmoqrXCytoRAytpSBYlMqdM_R4suMILkZfd0Wt87hs1QtTCt4mFStqbuvfnAPRjd56RGPCci-vqKfR5Xzy-i2EX5LdugllSTfyzwubP15Jehy5vPNtaKBELEy1ChuTrTfyJDfXSyM71CiTkknbVSHN5MYtp8AjkOSXZhk_b9U62_FIju5fdcPI_QDKQVO2M1B09W5iVv0Emcnpj3OVSmnO4i0c0Mn_P-tSjRi9A9QE54k55IUYf7Wui_T2kUfODsx0g_g2ajFXXdpfoP02dRRcCjgbgbT0lp7DZQlyfcq2DSx-CzKx7_kTjZIO2ANDCctxMEJXFT1eXctal5iId57EkoC4lJdlbXD2av6q1jpItYtXd0fSHd9k5YcBFnuix2pXuxFgIp62yCxhC2kbALA6hMiqREpXJXak48QF5Nfg01h8-jqqMvMAjgBTfkXplX98YlaI2fNFCocQgK6Npbv6_hg30638gNdUzf9JyxmhdM98bpS0]--></g></svg>