<?xml version="1.0" encoding="us-ascii" standalone="no"?><svg xmlns="http://www.w3.org/2000/svg" xmlns:xlink="http://www.w3.org/1999/xlink" contentStyleType="text/css" height="676px" preserveAspectRatio="none" style="width:649px;height:676px;background:#FFFFFF;" version="1.1" viewBox="0 0 649 676" width="649px" zoomAndPan="magnify"><defs/><g><!--cluster ????--><g id="cluster_&#1071;&#1076;&#1088;&#1086;"><path d="M8.5,491 L51.5,491 A3.75,3.75 0 0 1 54,493.5 L61,513.2969 L425,513.2969 A2.5,2.5 0 0 1 427.5,515.7969 L427.5,666.5 A2.5,2.5 0 0 1 425,669 L8.5,669 A2.5,2.5 0 0 1 6,666.5 L6,493.5 A2.5,2.5 0 0 1 8.5,491 " fill="none" style="stroke:#000000;stroke-width:1.5;"/><line style="stroke:#000000;stroke-width:1.5;" x1="6" x2="61" y1="513.2969" y2="513.2969"/><text fill="#000000" font-family="sans-serif" font-size="14" font-weight="bold" lengthAdjust="spacing" textLength="42" x="10" y="505.9951">&#1071;&#1076;&#1088;&#1086;</text></g><!--cluster ???????--><g id="cluster_&#1050;&#1086;&#1085;&#1090;&#1077;&#1085;&#1090;"><path d="M23,127 L91,127 A3.75,3.75 0 0 1 93.5,129.5 L100.5,149.2969 L639.5,149.2969 A2.5,2.5 0 0 1 642,151.7969 L642,464.5 A2.5,2.5 0 0 1 639.5,467 L23,467 A2.5,2.5 0 0 1 20.5,464.5 L20.5,129.5 A2.5,2.5 0 0 1 23,127 " fill="none" style="stroke:#000000;stroke-width:1.5;"/><line style="stroke:#000000;stroke-width:1.5;" x1="20.5" x2="100.5" y1="149.2969" y2="149.2969"/><text fill="#000000" font-family="sans-serif" font-size="14" font-weight="bold" lengthAdjust="spacing" textLength="67" x="24.5" y="141.9951">&#1050;&#1086;&#1085;&#1090;&#1077;&#1085;&#1090;</text></g><!--cluster ?????????--><g id="cluster_&#1055;&#1086;&#1076;&#1089;&#1082;&#1072;&#1079;&#1082;&#1080;"><path d="M35,6 L125,6 A3.75,3.75 0 0 1 127.5,8.5 L134.5,28.2969 L180,28.2969 A2.5,2.5 0 0 1 182.5,30.7969 L182.5,100.5 A2.5,2.5 0 0 1 180,103 L35,103 A2.5,2.5 0 0 1 32.5,100.5 L32.5,8.5 A2.5,2.5 0 0 1 35,6 " fill="none" style="stroke:#000000;stroke-width:1.5;"/><line style="stroke:#000000;stroke-width:1.5;" x1="32.5" x2="134.5" y1="28.2969" y2="28.2969"/><text fill="#000000" font-family="sans-serif" font-size="14" font-weight="bold" lengthAdjust="spacing" textLength="89" x="36.5" y="20.9951">&#1055;&#1086;&#1076;&#1089;&#1082;&#1072;&#1079;&#1082;&#1080;</text></g><!--entity ????? UI--><g id="elem_&#1054;&#1073;&#1097;&#1080;&#1081; UI"><rect fill="#F1F1F1" height="46.2969" rx="2.5" ry="2.5" style="stroke:#181818;stroke-width:0.5;" width="109" x="53" y="607"/><rect fill="#F1F1F1" height="10" style="stroke:#181818;stroke-width:0.5;" width="15" x="142" y="612"/><rect fill="#F1F1F1" height="2" style="stroke:#181818;stroke-width:0.5;" width="4" x="140" y="614"/><rect fill="#F1F1F1" height="2" style="stroke:#181818;stroke-width:0.5;" width="4" x="140" y="618"/><text fill="#000000" font-family="sans-serif" font-size="14" lengthAdjust="spacing" textLength="69" x="68" y="639.9951">&#1054;&#1073;&#1097;&#1080;&#1081; UI</text></g><!--entity Room--><g id="elem_Room"><rect fill="#F1F1F1" height="46.2969" rx="2.5" ry="2.5" style="stroke:#181818;stroke-width:0.5;" width="171" x="22" y="526"/><rect fill="#F1F1F1" height="10" style="stroke:#181818;stroke-width:0.5;" width="15" x="173" y="531"/><rect fill="#F1F1F1" height="2" style="stroke:#181818;stroke-width:0.5;" width="4" x="171" y="533"/><rect fill="#F1F1F1" height="2" style="stroke:#181818;stroke-width:0.5;" width="4" x="171" y="537"/><text fill="#000000" font-family="sans-serif" font-size="14" lengthAdjust="spacing" textLength="131" x="37" y="558.9951">&#1048;&#1075;&#1088;&#1086;&#1074;&#1099;&#1077; &#1082;&#1086;&#1084;&#1085;&#1072;&#1090;&#1099;</text></g><!--entity Learn--><g id="elem_Learn"><rect fill="#F1F1F1" height="46.2969" rx="2.5" ry="2.5" style="stroke:#181818;stroke-width:0.5;" width="111" x="283.5" y="607"/><rect fill="#F1F1F1" height="10" style="stroke:#181818;stroke-width:0.5;" width="15" x="374.5" y="612"/><rect fill="#F1F1F1" height="2" style="stroke:#181818;stroke-width:0.5;" width="4" x="372.5" y="614"/><rect fill="#F1F1F1" height="2" style="stroke:#181818;stroke-width:0.5;" width="4" x="372.5" y="618"/><text fill="#000000" font-family="sans-serif" font-size="14" lengthAdjust="spacing" textLength="71" x="298.5" y="639.9951">&#1054;&#1073;&#1091;&#1095;&#1077;&#1085;&#1080;&#1077;</text></g><!--entity User--><g id="elem_User"><rect fill="#F1F1F1" height="46.2969" rx="2.5" ry="2.5" style="stroke:#181818;stroke-width:0.5;" width="145" x="266.5" y="526"/><rect fill="#F1F1F1" height="10" style="stroke:#181818;stroke-width:0.5;" width="15" x="391.5" y="531"/><rect fill="#F1F1F1" height="2" style="stroke:#181818;stroke-width:0.5;" width="4" x="389.5" y="533"/><rect fill="#F1F1F1" height="2" style="stroke:#181818;stroke-width:0.5;" width="4" x="389.5" y="537"/><text fill="#000000" font-family="sans-serif" font-size="14" lengthAdjust="spacing" textLength="105" x="281.5" y="558.9951">&#1055;&#1086;&#1083;&#1100;&#1079;&#1086;&#1074;&#1072;&#1090;&#1077;&#1083;&#1080;</text></g><!--entity UI ????--><g id="elem_UI &#1080;&#1075;&#1088;&#1099;"><rect fill="#F1F1F1" height="46.2969" rx="2.5" ry="2.5" style="stroke:#181818;stroke-width:0.5;" width="93" x="61" y="162"/><rect fill="#F1F1F1" height="10" style="stroke:#181818;stroke-width:0.5;" width="15" x="134" y="167"/><rect fill="#F1F1F1" height="2" style="stroke:#181818;stroke-width:0.5;" width="4" x="132" y="169"/><rect fill="#F1F1F1" height="2" style="stroke:#181818;stroke-width:0.5;" width="4" x="132" y="173"/><text fill="#000000" font-family="sans-serif" font-size="14" lengthAdjust="spacing" textLength="53" x="76" y="194.9951">UI &#1080;&#1075;&#1088;&#1099;</text></g><!--entity Generator--><g id="elem_Generator"><rect fill="#FFA500" height="46.2969" rx="2.5" ry="2.5" style="stroke:#181818;stroke-width:0.5;" width="130" x="42.5" y="243"/><rect fill="#FFA500" height="10" style="stroke:#181818;stroke-width:0.5;" width="15" x="152.5" y="248"/><rect fill="#FFA500" height="2" style="stroke:#181818;stroke-width:0.5;" width="4" x="150.5" y="250"/><rect fill="#FFA500" height="2" style="stroke:#181818;stroke-width:0.5;" width="4" x="150.5" y="254"/><text fill="#000000" font-family="sans-serif" font-size="14" lengthAdjust="spacing" textLength="90" x="57.5" y="275.9951">&#1043;&#1077;&#1085;&#1077;&#1088;&#1072;&#1090;&#1086;&#1088;&#1099;</text></g><!--entity Object--><g id="elem_Object"><rect fill="#FFA500" height="46.2969" rx="2.5" ry="2.5" style="stroke:#181818;stroke-width:0.5;" width="172" x="253" y="324"/><rect fill="#FFA500" height="10" style="stroke:#181818;stroke-width:0.5;" width="15" x="405" y="329"/><rect fill="#FFA500" height="2" style="stroke:#181818;stroke-width:0.5;" width="4" x="403" y="331"/><rect fill="#FFA500" height="2" style="stroke:#181818;stroke-width:0.5;" width="4" x="403" y="335"/><text fill="#000000" font-family="sans-serif" font-size="14" lengthAdjust="spacing" textLength="132" x="268" y="356.9951">&#1048;&#1075;&#1088;&#1086;&#1074;&#1099;&#1077; &#1086;&#1073;&#1098;&#1077;&#1082;&#1090;&#1099;</text></g><!--entity Content--><g id="elem_Content"><rect fill="#FFA500" height="46.2969" rx="2.5" ry="2.5" style="stroke:#181818;stroke-width:0.5;" width="141" x="485" y="324"/><rect fill="#FFA500" height="10" style="stroke:#181818;stroke-width:0.5;" width="15" x="606" y="329"/><rect fill="#FFA500" height="2" style="stroke:#181818;stroke-width:0.5;" width="4" x="604" y="331"/><rect fill="#FFA500" height="2" style="stroke:#181818;stroke-width:0.5;" width="4" x="604" y="335"/><text fill="#000000" font-family="sans-serif" font-size="14" lengthAdjust="spacing" textLength="101" x="500" y="356.9951">&#1050;&#1086;&#1085;&#1090;&#1077;&#1085;&#1090; &#1082;&#1085;&#1080;&#1075;</text></g><!--entity Hero--><g id="elem_Hero"><rect fill="#F1F1F1" height="46.2969" rx="2.5" ry="2.5" style="stroke:#181818;stroke-width:0.5;" width="124" x="45.5" y="324"/><rect fill="#F1F1F1" height="10" style="stroke:#181818;stroke-width:0.5;" width="15" x="149.5" y="329"/><rect fill="#F1F1F1" height="2" style="stroke:#181818;stroke-width:0.5;" width="4" x="147.5" y="331"/><rect fill="#F1F1F1" height="2" style="stroke:#181818;stroke-width:0.5;" width="4" x="147.5" y="335"/><text fill="#000000" font-family="sans-serif" font-size="14" lengthAdjust="spacing" textLength="84" x="60.5" y="356.9951">&#1055;&#1077;&#1088;&#1089;&#1086;&#1085;&#1072;&#1078;&#1080;</text></g><!--entity Campaign--><g id="elem_Campaign"><rect fill="#F1F1F1" height="46.2969" rx="2.5" ry="2.5" style="stroke:#181818;stroke-width:0.5;" width="142" x="36.5" y="405"/><rect fill="#F1F1F1" height="10" style="stroke:#181818;stroke-width:0.5;" width="15" x="158.5" y="410"/><rect fill="#F1F1F1" height="2" style="stroke:#181818;stroke-width:0.5;" width="4" x="156.5" y="412"/><rect fill="#F1F1F1" height="2" style="stroke:#181818;stroke-width:0.5;" width="4" x="156.5" y="416"/><text fill="#000000" font-family="sans-serif" font-size="14" lengthAdjust="spacing" textLength="102" x="51.5" y="437.9951">&#1055;&#1088;&#1086;&#1093;&#1086;&#1078;&#1076;&#1077;&#1085;&#1080;&#1103;</text></g><!--entity Hint--><g id="elem_Hint"><rect fill="#FFA500" height="46.2969" rx="2.5" ry="2.5" style="stroke:#181818;stroke-width:0.5;" width="118" x="48.5" y="41"/><rect fill="#FFA500" height="10" style="stroke:#181818;stroke-width:0.5;" width="15" x="146.5" y="46"/><rect fill="#FFA500" height="2" style="stroke:#181818;stroke-width:0.5;" width="4" x="144.5" y="48"/><rect fill="#FFA500" height="2" style="stroke:#181818;stroke-width:0.5;" width="4" x="144.5" y="52"/><text fill="#000000" font-family="sans-serif" font-size="14" lengthAdjust="spacing" textLength="78" x="63.5" y="73.9951">&#1055;&#1086;&#1076;&#1089;&#1082;&#1072;&#1079;&#1082;&#1080;</text></g><!--link Object to Content--><g id="link_Object_Content"><path d="M425.08,347 C443,347 461.78,347 479.3,347 " fill="none" id="Object-to-Content" style="stroke:#181818;stroke-width:1.0;"/><polygon fill="#181818" points="484.69,347,475.69,343,479.69,347,475.69,351,484.69,347" style="stroke:#181818;stroke-width:1.0;"/></g><!--link Campaign to Object--><g id="link_Campaign_Object"><path d="M173.96,404.9 C203.26,394.56 237.86,382.34 267.71,371.81 " fill="none" id="Campaign-to-Object" style="stroke:#181818;stroke-width:1.0;"/><polygon fill="#181818" points="272.45,370.13,262.6328,369.341,267.7329,371.7881,265.2858,376.8883,272.45,370.13" style="stroke:#181818;stroke-width:1.0;"/></g><!--link Generator to Object--><g id="link_Generator_Object"><path d="M172.73,288.67 C202.31,299.11 237.49,311.53 267.77,322.21 " fill="none" id="Generator-to-Object" style="stroke:#181818;stroke-width:1.0;"/><polygon fill="#181818" points="272.59,323.91,265.4258,317.1517,267.8729,322.2519,262.7728,324.699,272.59,323.91" style="stroke:#181818;stroke-width:1.0;"/></g><!--link Hero to Object--><g id="link_Hero_Object"><path d="M169.7,347 C193.6,347 221.5,347 247.63,347 " fill="none" id="Hero-to-Object" style="stroke:#181818;stroke-width:1.0;"/><polygon fill="#181818" points="252.83,347,243.83,343,247.83,347,243.83,351,252.83,347" style="stroke:#181818;stroke-width:1.0;"/></g><!--SRC=[RP6_JiCm4CPtFyMfp7q55WQeX8I4b0brCCM40BKhrnj2ueyGWY8ni206-WWKchHfI_CCvpVYx2HDA6Im4jztt_tkoxauDc0Kw2WyCN0KQT4naPACzNZdZ8S26lY1iRt2h04N3EWvm7Vyj0-OuWo2LhkuUyMn4-6N7M02EAVNRrpYoDxOGHju7_QLwjRwR-qz9YH8CV7bNS6rBEf3QbxO9vmwFsT1oWMcNXVqXMQNTRmtKYszXiuLPD02yYOc6b_OllY12M4woyoNdEMsa49pepHiACrbAFvVAIFgHxAOhrRQEpobjDQwVk6u8DoEOw_VKj88kTumT4ZsshNX22V5dZj2grBWAEmT2IOOvw7PvzoGTtiy2YK5KkNXqel9RqvkKphJwiVzAUMZeXeJHLkirMnkbiIi7EGlypghOgjTEkpQzmy0]--></g></svg>