<?xml version="1.0" encoding="us-ascii" standalone="no"?><svg xmlns="http://www.w3.org/2000/svg" xmlns:xlink="http://www.w3.org/1999/xlink" contentStyleType="text/css" height="383px" preserveAspectRatio="none" style="width:617px;height:383px;background:#FFFFFF;" version="1.1" viewBox="0 0 617 383" width="617px" zoomAndPan="magnify"><defs/><g><!--entity Generator--><g id="elem_Generator"><rect fill="#FFA500" height="46.2969" rx="2.5" ry="2.5" style="stroke:#181818;stroke-width:0.5;" width="130" x="27.5" y="7"/><rect fill="#FFA500" height="10" style="stroke:#181818;stroke-width:0.5;" width="15" x="137.5" y="12"/><rect fill="#FFA500" height="2" style="stroke:#181818;stroke-width:0.5;" width="4" x="135.5" y="14"/><rect fill="#FFA500" height="2" style="stroke:#181818;stroke-width:0.5;" width="4" x="135.5" y="18"/><text fill="#000000" font-family="sans-serif" font-size="14" lengthAdjust="spacing" textLength="90" x="42.5" y="39.9951">&#1043;&#1077;&#1085;&#1077;&#1088;&#1072;&#1090;&#1086;&#1088;&#1099;</text></g><!--entity Room--><g id="elem_Room"><rect fill="#F1F1F1" height="46.2969" rx="2.5" ry="2.5" style="stroke:#181818;stroke-width:0.5;" width="171" x="7" y="250"/><rect fill="#F1F1F1" height="10" style="stroke:#181818;stroke-width:0.5;" width="15" x="158" y="255"/><rect fill="#F1F1F1" height="2" style="stroke:#181818;stroke-width:0.5;" width="4" x="156" y="257"/><rect fill="#F1F1F1" height="2" style="stroke:#181818;stroke-width:0.5;" width="4" x="156" y="261"/><text fill="#000000" font-family="sans-serif" font-size="14" lengthAdjust="spacing" textLength="131" x="22" y="282.9951">&#1048;&#1075;&#1088;&#1086;&#1074;&#1099;&#1077; &#1082;&#1086;&#1084;&#1085;&#1072;&#1090;&#1099;</text></g><!--entity Object--><g id="elem_Object"><rect fill="#FFA500" height="46.2969" rx="2.5" ry="2.5" style="stroke:#181818;stroke-width:0.5;" width="172" x="238" y="88"/><rect fill="#FFA500" height="10" style="stroke:#181818;stroke-width:0.5;" width="15" x="390" y="93"/><rect fill="#FFA500" height="2" style="stroke:#181818;stroke-width:0.5;" width="4" x="388" y="95"/><rect fill="#FFA500" height="2" style="stroke:#181818;stroke-width:0.5;" width="4" x="388" y="99"/><text fill="#000000" font-family="sans-serif" font-size="14" lengthAdjust="spacing" textLength="132" x="253" y="120.9951">&#1048;&#1075;&#1088;&#1086;&#1074;&#1099;&#1077; &#1086;&#1073;&#1098;&#1077;&#1082;&#1090;&#1099;</text></g><!--entity Content--><g id="elem_Content"><rect fill="#FFA500" height="46.2969" rx="2.5" ry="2.5" style="stroke:#181818;stroke-width:0.5;" width="141" x="470" y="88"/><rect fill="#FFA500" height="10" style="stroke:#181818;stroke-width:0.5;" width="15" x="591" y="93"/><rect fill="#FFA500" height="2" style="stroke:#181818;stroke-width:0.5;" width="4" x="589" y="95"/><rect fill="#FFA500" height="2" style="stroke:#181818;stroke-width:0.5;" width="4" x="589" y="99"/><text fill="#000000" font-family="sans-serif" font-size="14" lengthAdjust="spacing" textLength="101" x="485" y="120.9951">&#1050;&#1086;&#1085;&#1090;&#1077;&#1085;&#1090; &#1082;&#1085;&#1080;&#1075;</text></g><!--entity Learn--><g id="elem_Learn"><rect fill="#F1F1F1" height="46.2969" rx="2.5" ry="2.5" style="stroke:#181818;stroke-width:0.5;" width="111" x="37" y="331"/><rect fill="#F1F1F1" height="10" style="stroke:#181818;stroke-width:0.5;" width="15" x="128" y="336"/><rect fill="#F1F1F1" height="2" style="stroke:#181818;stroke-width:0.5;" width="4" x="126" y="338"/><rect fill="#F1F1F1" height="2" style="stroke:#181818;stroke-width:0.5;" width="4" x="126" y="342"/><text fill="#000000" font-family="sans-serif" font-size="14" lengthAdjust="spacing" textLength="71" x="52" y="363.9951">&#1054;&#1073;&#1091;&#1095;&#1077;&#1085;&#1080;&#1077;</text></g><!--entity Hero--><g id="elem_Hero"><rect fill="#F1F1F1" height="46.2969" rx="2.5" ry="2.5" style="stroke:#181818;stroke-width:0.5;" width="124" x="30.5" y="88"/><rect fill="#F1F1F1" height="10" style="stroke:#181818;stroke-width:0.5;" width="15" x="134.5" y="93"/><rect fill="#F1F1F1" height="2" style="stroke:#181818;stroke-width:0.5;" width="4" x="132.5" y="95"/><rect fill="#F1F1F1" height="2" style="stroke:#181818;stroke-width:0.5;" width="4" x="132.5" y="99"/><text fill="#000000" font-family="sans-serif" font-size="14" lengthAdjust="spacing" textLength="84" x="45.5" y="120.9951">&#1055;&#1077;&#1088;&#1089;&#1086;&#1085;&#1072;&#1078;&#1080;</text></g><!--entity Hint--><g id="elem_Hint"><rect fill="#FFA500" height="46.2969" rx="2.5" ry="2.5" style="stroke:#181818;stroke-width:0.5;" width="118" x="265" y="250"/><rect fill="#FFA500" height="10" style="stroke:#181818;stroke-width:0.5;" width="15" x="363" y="255"/><rect fill="#FFA500" height="2" style="stroke:#181818;stroke-width:0.5;" width="4" x="361" y="257"/><rect fill="#FFA500" height="2" style="stroke:#181818;stroke-width:0.5;" width="4" x="361" y="261"/><text fill="#000000" font-family="sans-serif" font-size="14" lengthAdjust="spacing" textLength="78" x="280" y="282.9951">&#1055;&#1086;&#1076;&#1089;&#1082;&#1072;&#1079;&#1082;&#1080;</text></g><!--entity User--><g id="elem_User"><rect fill="#F1F1F1" height="46.2969" rx="2.5" ry="2.5" style="stroke:#181818;stroke-width:0.5;" width="145" x="251.5" y="331"/><rect fill="#F1F1F1" height="10" style="stroke:#181818;stroke-width:0.5;" width="15" x="376.5" y="336"/><rect fill="#F1F1F1" height="2" style="stroke:#181818;stroke-width:0.5;" width="4" x="374.5" y="338"/><rect fill="#F1F1F1" height="2" style="stroke:#181818;stroke-width:0.5;" width="4" x="374.5" y="342"/><text fill="#000000" font-family="sans-serif" font-size="14" lengthAdjust="spacing" textLength="105" x="266.5" y="363.9951">&#1055;&#1086;&#1083;&#1100;&#1079;&#1086;&#1074;&#1072;&#1090;&#1077;&#1083;&#1080;</text></g><!--entity Campaign--><g id="elem_Campaign"><rect fill="#F1F1F1" height="46.2969" rx="2.5" ry="2.5" style="stroke:#181818;stroke-width:0.5;" width="142" x="21.5" y="169"/><rect fill="#F1F1F1" height="10" style="stroke:#181818;stroke-width:0.5;" width="15" x="143.5" y="174"/><rect fill="#F1F1F1" height="2" style="stroke:#181818;stroke-width:0.5;" width="4" x="141.5" y="176"/><rect fill="#F1F1F1" height="2" style="stroke:#181818;stroke-width:0.5;" width="4" x="141.5" y="180"/><text fill="#000000" font-family="sans-serif" font-size="14" lengthAdjust="spacing" textLength="102" x="36.5" y="201.9951">&#1055;&#1088;&#1086;&#1093;&#1086;&#1078;&#1076;&#1077;&#1085;&#1080;&#1103;</text></g><!--link Object to Content--><g id="link_Object_Content"><path d="M410.08,111 C428,111 446.78,111 464.3,111 " fill="none" id="Object-to-Content" style="stroke:#181818;stroke-width:1.0;"/><polygon fill="#181818" points="469.69,111,460.69,107,464.69,111,460.69,115,469.69,111" style="stroke:#181818;stroke-width:1.0;"/></g><!--link Campaign to Object--><g id="link_Campaign_Object"><path d="M158.96,168.9 C188.26,158.56 222.86,146.34 252.71,135.81 " fill="none" id="Campaign-to-Object" style="stroke:#181818;stroke-width:1.0;"/><polygon fill="#181818" points="257.45,134.13,247.6328,133.341,252.7329,135.7881,250.2858,140.8883,257.45,134.13" style="stroke:#181818;stroke-width:1.0;"/></g><!--link Generator to Object--><g id="link_Generator_Object"><path d="M157.73,52.67 C187.31,63.11 222.49,75.53 252.77,86.21 " fill="none" id="Generator-to-Object" style="stroke:#181818;stroke-width:1.0;"/><polygon fill="#181818" points="257.59,87.91,250.4258,81.1517,252.8729,86.2519,247.7728,88.699,257.59,87.91" style="stroke:#181818;stroke-width:1.0;"/></g><!--link Hero to Object--><g id="link_Hero_Object"><path d="M154.7,111 C178.6,111 206.5,111 232.63,111 " fill="none" id="Hero-to-Object" style="stroke:#181818;stroke-width:1.0;"/><polygon fill="#181818" points="237.83,111,228.83,107,232.83,111,228.83,115,237.83,111" style="stroke:#181818;stroke-width:1.0;"/></g><!--SRC=[PP0nJiCm68NtdC8ISw_0mW139IGa9iHWm0r6r4Qk3r1028bMwi226E0AXTObIadEyFuRzRUJGX2BbVXz__Dx_xKQUE6jS3g_zE92EtNkjJLPTe9d15G8DCQSxb3Jc2QdGex4lZBAIM-TsB5Ecbmn-u85SpK-QO8WKFBdDm_pO3jqPEtmFrVZWvxucVA7EpoxuWGTvrU6Adu_n3CwLoYmIEoUDLwPBlp6VlVqc88N28dgA-aCQ- -n2jr6EyonGf7K0-Li4ciiMInP-kAp5VKVzmYjQSe05qXB2LYtwF58kOZ4TlJ0m0hB9WRDch1oU2DrpfjjA_Pwkzi6sLPCbusU_QwvSndZTlut]--></g></svg>