<?xml version="1.0" encoding="us-ascii" standalone="no"?><svg xmlns="http://www.w3.org/2000/svg" xmlns:xlink="http://www.w3.org/1999/xlink" contentStyleType="text/css" height="590px" preserveAspectRatio="none" style="width:550px;height:590px;background:#FFFFFF;" version="1.1" viewBox="0 0 550 590" width="550px" zoomAndPan="magnify"><defs/><g><!--cluster Users--><g id="cluster_Users"><rect fill="none" height="176" rx="2.5" ry="2.5" style="stroke:#181818;stroke-width:1.0;" width="236" x="214" y="7"/><text fill="#000000" font-family="sans-serif" font-size="14" font-weight="bold" lengthAdjust="spacing" textLength="115" x="274.5" y="21.9951">&#1055;&#1086;&#1083;&#1100;&#1079;&#1086;&#1074;&#1072;&#1090;&#1077;&#1083;&#1080;</text></g><!--cluster Education--><g id="cluster_Education"><rect fill="none" height="179" rx="2.5" ry="2.5" style="stroke:#181818;stroke-width:1.0;" width="252" x="206" y="207"/><text fill="#000000" font-family="sans-serif" font-size="14" font-weight="bold" lengthAdjust="spacing" textLength="81" x="291.5" y="221.9951">&#1054;&#1073;&#1091;&#1095;&#1077;&#1085;&#1080;&#1077;</text></g><!--cluster Content--><g id="cluster_Content"><rect fill="none" height="174" rx="2.5" ry="2.5" style="stroke:#181818;stroke-width:1.0;" width="423" x="121" y="410"/><text fill="#000000" font-family="sans-serif" font-size="14" font-weight="bold" lengthAdjust="spacing" textLength="407" x="129" y="424.9951">&#1050;&#1086;&#1085;&#1090;&#1077;&#1085;&#1090; &#1082;&#1085;&#1080;&#1075;, &#1089;&#1077;&#1090;&#1090;&#1080;&#1085;&#1075;&#1086;&#1074;, &#1087;&#1088;&#1080;&#1082;&#1083;&#1102;&#1095;&#1077;&#1085;&#1080;&#1081;, &#1093;&#1086;&#1091;&#1084;&#1073;&#1088;&#1102;</text></g><g id="elem_Auth"><ellipse cx="332.2481" cy="64.8496" fill="#F1F1F1" rx="102.2481" ry="22.8496" style="stroke:#181818;stroke-width:0.5;"/><text fill="#000000" font-family="sans-serif" font-size="14" lengthAdjust="spacing" textLength="169" x="247.7481" y="67.6963">&#1040;&#1091;&#1090;&#1077;&#1085;&#1090;&#1080;&#1092;&#1080;&#1094;&#1080;&#1088;&#1086;&#1074;&#1072;&#1090;&#1100;&#1089;&#1103;</text></g><g id="elem_Logout"><ellipse cx="332.0673" cy="145.2135" fill="#F1F1F1" rx="99.0673" ry="22.2135" style="stroke:#181818;stroke-width:0.5;"/><text fill="#000000" font-family="sans-serif" font-size="14" lengthAdjust="spacing" textLength="162" x="251.0673" y="148.0601">&#1042;&#1099;&#1093;&#1086;&#1076;&#1080;&#1090;&#1100; &#1080;&#1079; &#1089;&#1080;&#1089;&#1090;&#1077;&#1084;&#1099;</text></g><g id="elem_Learn"><ellipse cx="332.0118" cy="263.9024" fill="#F1F1F1" rx="95.0118" ry="21.4024" style="stroke:#181818;stroke-width:0.5;"/><text fill="#000000" font-family="sans-serif" font-size="14" lengthAdjust="spacing" textLength="153" x="255.5118" y="266.749">&#1055;&#1088;&#1086;&#1093;&#1086;&#1076;&#1080;&#1090;&#1100; &#1086;&#1073;&#1091;&#1095;&#1077;&#1085;&#1080;&#1077;</text></g><g id="elem_EditLearn"><ellipse cx="332.0557" cy="344.9111" fill="#F1F1F1" rx="110.0557" ry="24.4111" style="stroke:#181818;stroke-width:0.5;"/><text fill="#000000" font-family="sans-serif" font-size="14" lengthAdjust="spacing" textLength="186" x="239.0557" y="347.7578">&#1056;&#1077;&#1076;&#1072;&#1082;&#1090;&#1080;&#1088;&#1086;&#1074;&#1072;&#1090;&#1100; &#1086;&#1073;&#1091;&#1095;&#1077;&#1085;&#1080;&#1077;</text></g><g id="elem_ReadContent"><ellipse cx="332.0998" cy="465.22" fill="#FF0000" rx="86.5998" ry="19.72" style="stroke:#181818;stroke-width:0.5;"/><text fill="#000000" font-family="sans-serif" font-size="14" lengthAdjust="spacing" textLength="134" x="265.0998" y="468.0666">&#1055;&#1086;&#1083;&#1091;&#1095;&#1072;&#1090;&#1100; &#1082;&#1086;&#1085;&#1090;&#1077;&#1085;&#1090;</text></g><g id="elem_EditContent"><ellipse cx="331.8276" cy="543.7655" fill="#F1F1F1" rx="106.8276" ry="23.7655" style="stroke:#181818;stroke-width:0.5;"/><text fill="#000000" font-family="sans-serif" font-size="14" lengthAdjust="spacing" textLength="179" x="242.3276" y="546.6122">&#1056;&#1077;&#1076;&#1072;&#1082;&#1090;&#1080;&#1088;&#1086;&#1074;&#1072;&#1090;&#1100; &#1082;&#1086;&#1085;&#1090;&#1077;&#1085;&#1090;</text></g><!--entity UE--><g id="elem_UE"><ellipse cx="41.5" cy="275.5" fill="#800000" rx="8" ry="8" style="stroke:#800000;stroke-width:2.0;"/><path d="M41.5,283.5 L41.5,310.5 M28.5,291.5 L54.5,291.5 M41.5,310.5 L28.5,325.5 M41.5,310.5 L54.5,325.5 " fill="none" style="stroke:#800000;stroke-width:2.0;"/><text fill="#800000" font-family="sans-serif" font-size="14" lengthAdjust="spacing" textLength="71" x="6" y="341.4951">&#1056;&#1077;&#1076;&#1072;&#1082;&#1090;&#1086;&#1088;</text></g><!--link UE to Auth--><g id="link_UE_Auth"><path d="M45,265.4 C50.11,219.62 65.68,145.4 113,105 C143.81,78.7 186.14,67.26 225.31,62.92 " fill="none" id="UE-to-Auth" style="stroke:#800000;stroke-width:1.0;"/><polygon fill="#800000" points="230.57,62.37,221.2062,59.3173,225.5965,62.8845,222.0294,67.2749,230.57,62.37" style="stroke:#800000;stroke-width:1.0;"/></g><!--link UE to Logout--><g id="link_UE_Logout"><path d="M71.53,265.11 C83.18,251.26 97.51,236.57 113,226 C157.08,195.91 213.76,175.3 258.28,162.4 " fill="none" id="UE-to-Logout" style="stroke:#800000;stroke-width:1.0;"/><polygon fill="#800000" points="263.09,161.02,253.3347,159.6655,258.2851,162.403,255.5476,167.3534,263.09,161.02" style="stroke:#800000;stroke-width:1.0;"/></g><!--link UE to Learn--><g id="link_UE_Learn"><path d="M77.01,300.1 C118.54,294.19 189.7,284.08 246.16,276.06 " fill="none" id="UE-to-Learn" style="stroke:#800000;stroke-width:1.0;"/><polygon fill="#800000" points="251.23,275.34,241.7504,272.6683,246.2814,276.0551,242.8946,280.5861,251.23,275.34" style="stroke:#800000;stroke-width:1.0;"/></g><!--link UE to EditLearn--><g id="link_UE_EditLearn"><path d="M77.01,309.79 C115.34,315.1 178.91,323.91 232.87,331.39 " fill="none" id="UE-to-EditLearn" style="stroke:#800000;stroke-width:1.0;"/><polygon fill="#800000" points="238.06,332.11,229.693,326.9145,233.1072,331.4249,228.5968,334.8391,238.06,332.11" style="stroke:#800000;stroke-width:1.0;"/></g><!--link UE to ReadContent--><g id="link_UE_ReadContent"><path d="M70.3,344.74 C82.1,359.31 96.86,374.93 113,386 C158.81,417.41 218.56,437.91 263.92,450.14 " fill="none" id="UE-to-ReadContent" style="stroke:#800000;stroke-width:1.0;"/><polygon fill="#800000" points="268.82,451.44,261.1523,445.2589,263.9884,450.1535,259.0938,452.9896,268.82,451.44" style="stroke:#800000;stroke-width:1.0;"/></g><!--link UE to EditContent--><g id="link_UE_EditContent"><path d="M45.34,344.75 C50.79,389.85 66.67,462.28 113,502 C142.4,527.21 182.31,539.1 219.95,544.24 " fill="none" id="UE-to-EditContent" style="stroke:#800000;stroke-width:1.0;"/><polygon fill="#800000" points="225.01,544.89,216.5992,539.7658,220.0515,544.247,215.5703,547.6993,225.01,544.89" style="stroke:#800000;stroke-width:1.0;"/></g><!--SRC=[KypCIyufJKbLqDClBKvDJYnEBTOhACtDuU8gIitDBqjL27M1i_pXh000]--></g></svg>