<?xml version="1.0" encoding="us-ascii" standalone="no"?><svg xmlns="http://www.w3.org/2000/svg" xmlns:xlink="http://www.w3.org/1999/xlink" contentStyleType="text/css" height="1165px" preserveAspectRatio="none" style="width:546px;height:1165px;background:#FFFFFF;" version="1.1" viewBox="0 0 546 1165" width="546px" zoomAndPan="magnify"><defs/><g><!--cluster Users--><g id="cluster_Users"><rect fill="none" height="176" rx="2.5" ry="2.5" style="stroke:#181818;stroke-width:1.0;" width="236" x="211" y="7"/><text fill="#000000" font-family="sans-serif" font-size="14" font-weight="bold" lengthAdjust="spacing" textLength="115" x="271.5" y="21.9951">&#1055;&#1086;&#1083;&#1100;&#1079;&#1086;&#1074;&#1072;&#1090;&#1077;&#1083;&#1080;</text></g><!--cluster Rooms--><g id="cluster_Rooms"><rect fill="none" height="109" rx="2.5" ry="2.5" style="stroke:#181818;stroke-width:1.0;" width="299" x="179.5" y="207"/><text fill="#000000" font-family="sans-serif" font-size="14" font-weight="bold" lengthAdjust="spacing" textLength="147" x="255.5" y="221.9951">&#1048;&#1075;&#1088;&#1086;&#1074;&#1099;&#1077; &#1082;&#1086;&#1084;&#1085;&#1072;&#1090;&#1099;</text></g><!--cluster Education--><g id="cluster_Education"><rect fill="none" height="95" rx="2.5" ry="2.5" style="stroke:#181818;stroke-width:1.0;" width="222" x="218" y="340"/><text fill="#000000" font-family="sans-serif" font-size="14" font-weight="bold" lengthAdjust="spacing" textLength="81" x="288.5" y="354.9951">&#1054;&#1073;&#1091;&#1095;&#1077;&#1085;&#1080;&#1077;</text></g><!--cluster Content--><g id="cluster_Content"><rect fill="none" height="91" rx="2.5" ry="2.5" style="stroke:#181818;stroke-width:1.0;" width="423" x="117.5" y="459"/><text fill="#000000" font-family="sans-serif" font-size="14" font-weight="bold" lengthAdjust="spacing" textLength="407" x="125.5" y="473.9951">&#1050;&#1086;&#1085;&#1090;&#1077;&#1085;&#1090; &#1082;&#1085;&#1080;&#1075;, &#1089;&#1077;&#1090;&#1090;&#1080;&#1085;&#1075;&#1086;&#1074;, &#1087;&#1088;&#1080;&#1082;&#1083;&#1102;&#1095;&#1077;&#1085;&#1080;&#1081;, &#1093;&#1086;&#1091;&#1084;&#1073;&#1088;&#1102;</text></g><!--cluster Campaigns--><g id="cluster_Campaigns"><rect fill="none" height="379" rx="2.5" ry="2.5" style="stroke:#181818;stroke-width:1.0;" width="302" x="178" y="574"/><text fill="#000000" font-family="sans-serif" font-size="14" font-weight="bold" lengthAdjust="spacing" textLength="182" x="238" y="588.9951">&#1044;&#1072;&#1085;&#1085;&#1099;&#1077; &#1087;&#1088;&#1086;&#1093;&#1086;&#1078;&#1076;&#1077;&#1085;&#1080;&#1103;</text></g><!--cluster Hints--><g id="cluster_Hints"><rect fill="none" height="182" rx="2.5" ry="2.5" style="stroke:#181818;stroke-width:1.0;" width="246" x="206" y="977"/><text fill="#000000" font-family="sans-serif" font-size="14" font-weight="bold" lengthAdjust="spacing" textLength="89" x="284.5" y="991.9951">&#1055;&#1086;&#1076;&#1089;&#1082;&#1072;&#1079;&#1082;&#1080;</text></g><g id="elem_Auth"><ellipse cx="329.2481" cy="64.8496" fill="#F1F1F1" rx="102.2481" ry="22.8496" style="stroke:#181818;stroke-width:0.5;"/><text fill="#000000" font-family="sans-serif" font-size="14" lengthAdjust="spacing" textLength="169" x="244.7481" y="67.6963">&#1040;&#1091;&#1090;&#1077;&#1085;&#1090;&#1080;&#1092;&#1080;&#1094;&#1080;&#1088;&#1086;&#1074;&#1072;&#1090;&#1100;&#1089;&#1103;</text></g><g id="elem_Logout"><ellipse cx="329.0673" cy="145.2135" fill="#F1F1F1" rx="99.0673" ry="22.2135" style="stroke:#181818;stroke-width:0.5;"/><text fill="#000000" font-family="sans-serif" font-size="14" lengthAdjust="spacing" textLength="162" x="248.0673" y="148.0601">&#1042;&#1099;&#1093;&#1086;&#1076;&#1080;&#1090;&#1100; &#1080;&#1079; &#1089;&#1080;&#1089;&#1090;&#1077;&#1084;&#1099;</text></g><g id="elem_ManageRoom"><ellipse cx="329.0217" cy="271.1043" fill="#F1F1F1" rx="133.5217" ry="29.1043" style="stroke:#181818;stroke-width:0.5;"/><text fill="#000000" font-family="sans-serif" font-size="14" lengthAdjust="spacing" textLength="236" x="211.0217" y="273.951">&#1059;&#1087;&#1088;&#1072;&#1074;&#1083;&#1103;&#1090;&#1100; &#1080;&#1075;&#1088;&#1086;&#1074;&#1099;&#1084;&#1080; &#1082;&#1086;&#1084;&#1085;&#1072;&#1090;&#1072;&#1084;&#1080;</text></g><g id="elem_Learn"><ellipse cx="329.0118" cy="396.9024" fill="#F1F1F1" rx="95.0118" ry="21.4024" style="stroke:#181818;stroke-width:0.5;"/><text fill="#000000" font-family="sans-serif" font-size="14" lengthAdjust="spacing" textLength="153" x="252.5118" y="399.749">&#1055;&#1088;&#1086;&#1093;&#1086;&#1076;&#1080;&#1090;&#1100; &#1086;&#1073;&#1091;&#1095;&#1077;&#1085;&#1080;&#1077;</text></g><g id="elem_ReadContent"><ellipse cx="329.0998" cy="514.22" fill="#FF0000" rx="86.5998" ry="19.72" style="stroke:#181818;stroke-width:0.5;"/><text fill="#000000" font-family="sans-serif" font-size="14" lengthAdjust="spacing" textLength="134" x="262.0998" y="517.0666">&#1055;&#1086;&#1083;&#1091;&#1095;&#1072;&#1090;&#1100; &#1082;&#1086;&#1085;&#1090;&#1077;&#1085;&#1090;</text></g><g id="elem_GetState"><ellipse cx="329.0617" cy="636.2123" fill="#FF0000" rx="124.0617" ry="27.2123" style="stroke:#181818;stroke-width:0.5;"/><text fill="#000000" font-family="sans-serif" font-size="14" lengthAdjust="spacing" textLength="216" x="221.0617" y="639.059">&#1055;&#1086;&#1083;&#1091;&#1095;&#1072;&#1090;&#1100; &#1089;&#1086;&#1089;&#1090;&#1086;&#1103;&#1085;&#1080;&#1077; &#1086;&#1073;&#1098;&#1077;&#1082;&#1090;&#1072;</text></g><g id="elem_ChangeState"><ellipse cx="328.9616" cy="723.9923" fill="#FF0000" rx="117.9616" ry="25.9923" style="stroke:#181818;stroke-width:0.5;"/><text fill="#000000" font-family="sans-serif" font-size="14" lengthAdjust="spacing" textLength="203" x="227.4616" y="726.839">&#1052;&#1077;&#1085;&#1103;&#1090;&#1100; &#1089;&#1086;&#1089;&#1090;&#1086;&#1103;&#1085;&#1080;&#1077; &#1086;&#1073;&#1098;&#1077;&#1082;&#1090;&#1072;</text></g><g id="elem_Generate"><ellipse cx="328.9476" cy="814.8895" fill="#FF0000" rx="134.9476" ry="29.3895" style="stroke:#181818;stroke-width:0.5;"/><text fill="#000000" font-family="sans-serif" font-size="14" lengthAdjust="spacing" textLength="239" x="209.4476" y="817.7362">&#1043;&#1077;&#1085;&#1077;&#1088;&#1080;&#1088;&#1086;&#1074;&#1072;&#1090;&#1100; &#1080;&#1075;&#1088;&#1086;&#1074;&#1099;&#1077; &#1086;&#1073;&#1098;&#1077;&#1082;&#1090;&#1099;</text></g><g id="elem_ExportHistory"><ellipse cx="329.2278" cy="907.8456" fill="#F1F1F1" rx="129.7278" ry="28.3456" style="stroke:#181818;stroke-width:0.5;"/><text fill="#000000" font-family="sans-serif" font-size="14" lengthAdjust="spacing" textLength="228" x="215.2278" y="910.6922">&#1069;&#1082;&#1089;&#1087;&#1086;&#1088;&#1090;&#1080;&#1088;&#1086;&#1074;&#1072;&#1090;&#1100; &#1087;&#1088;&#1086;&#1093;&#1086;&#1078;&#1076;&#1077;&#1085;&#1080;&#1077;</text></g><g id="elem_AskHint"><ellipse cx="328.8276" cy="1035.7655" fill="#FF0000" rx="106.8276" ry="23.7655" style="stroke:#181818;stroke-width:0.5;"/><text fill="#000000" font-family="sans-serif" font-size="14" lengthAdjust="spacing" textLength="179" x="239.3276" y="1038.6122">&#1047;&#1072;&#1087;&#1088;&#1072;&#1096;&#1080;&#1074;&#1072;&#1090;&#1100; &#1087;&#1086;&#1076;&#1089;&#1082;&#1072;&#1079;&#1082;&#1080;</text></g><g id="elem_TuneHint"><ellipse cx="328.9911" cy="1118.8982" fill="#F1F1F1" rx="104.9911" ry="23.3982" style="stroke:#181818;stroke-width:0.5;"/><text fill="#000000" font-family="sans-serif" font-size="14" lengthAdjust="spacing" textLength="175" x="241.4911" y="1121.7449">&#1053;&#1072;&#1089;&#1090;&#1088;&#1072;&#1080;&#1074;&#1072;&#1090;&#1100; &#1087;&#1086;&#1076;&#1089;&#1082;&#1072;&#1079;&#1082;&#1080;</text></g><!--entity UD--><g id="elem_UD"><ellipse cx="40" cy="606.5" fill="#008000" rx="8" ry="8" style="stroke:#008000;stroke-width:2.0;"/><path d="M40,614.5 L40,641.5 M27,622.5 L53,622.5 M40,641.5 L27,656.5 M40,641.5 L53,656.5 " fill="none" style="stroke:#008000;stroke-width:2.0;"/><text fill="#008000" font-family="sans-serif" font-size="14" lengthAdjust="spacing" textLength="68" x="6" y="672.4951">&#1042;&#1077;&#1076;&#1091;&#1097;&#1080;&#1081;</text></g><!--link UD to Auth--><g id="link_UD_Auth"><path d="M40.32,596.4 C39.29,485.54 42.57,175.56 109.5,105 C139.02,73.88 184.14,62.25 225.72,59.05 " fill="none" id="UD-to-Auth" style="stroke:#008000;stroke-width:1.0;"/><polygon fill="#008000" points="230.78,58.7,221.5268,55.3269,225.7918,59.043,222.0756,63.308,230.78,58.7" style="stroke:#008000;stroke-width:1.0;"/></g><!--link UD to Logout--><g id="link_UD_Logout"><path d="M42.66,596.47 C47.26,504.98 63.07,282.18 109.5,226 C141.08,187.79 192.49,167.6 237.51,156.93 " fill="none" id="UD-to-Logout" style="stroke:#008000;stroke-width:1.0;"/><polygon fill="#008000" points="242.4,155.81,232.7347,153.9175,237.5259,156.9249,234.5185,161.7161,242.4,155.81" style="stroke:#008000;stroke-width:1.0;"/></g><!--link UD to ManageRoom--><g id="link_UD_ManageRoom"><path d="M40.05,596.04 C40.81,537.14 50.7,426.7 109.5,359 C138.62,325.47 182.35,304.56 223.05,291.58 " fill="none" id="UD-to-ManageRoom" style="stroke:#008000;stroke-width:1.0;"/><polygon fill="#008000" points="228,290.04,218.2177,288.8965,223.2261,291.5265,220.5961,296.5348,228,290.04" style="stroke:#008000;stroke-width:1.0;"/></g><!--link UD to Learn--><g id="link_UD_Learn"><path d="M48.95,596.16 C57.96,560.74 75.97,509.77 109.5,478 C147.05,442.43 201.58,422.19 246.78,410.83 " fill="none" id="UD-to-Learn" style="stroke:#008000;stroke-width:1.0;"/><polygon fill="#008000" points="251.68,409.63,241.9881,407.8785,246.8226,410.8158,243.8854,415.6503,251.68,409.63" style="stroke:#008000;stroke-width:1.0;"/></g><!--link UD to ReadContent--><g id="link_UD_ReadContent"><path d="M74.32,613.09 C85.25,606.12 97.64,598.79 109.5,593 C162.32,567.24 225.79,545.21 270.68,531.01 " fill="none" id="UD-to-ReadContent" style="stroke:#008000;stroke-width:1.0;"/><polygon fill="#008000" points="275.51,529.49,265.7237,528.3816,270.7414,530.9936,268.1295,536.0113,275.51,529.49" style="stroke:#008000;stroke-width:1.0;"/></g><!--link UD to Generate--><g id="link_UD_Generate"><path d="M51.79,675.78 C61.88,705.38 79.93,744.4 109.5,767 C134.25,785.92 164.94,797.69 195.42,804.94 " fill="none" id="UD-to-Generate" style="stroke:#008000;stroke-width:1.0;"/><polygon fill="#008000" points="200.31,806.07,192.445,800.142,195.439,804.9415,190.6394,807.9355,200.31,806.07" style="stroke:#008000;stroke-width:1.0;"/></g><!--link UD to GetState--><g id="link_UD_GetState"><path d="M74.2,636 C105.24,636 153.61,636 199.83,636 " fill="none" id="UD-to-GetState" style="stroke:#008000;stroke-width:1.0;"/><polygon fill="#008000" points="204.87,636,195.87,632,199.87,636,195.87,640,204.87,636" style="stroke:#008000;stroke-width:1.0;"/></g><!--link UD to ChangeState--><g id="link_UD_ChangeState"><path d="M74.13,660.8 C84.94,667.91 97.32,675.07 109.5,680 C144.28,694.09 184.07,703.82 220.08,710.47 " fill="none" id="UD-to-ChangeState" style="stroke:#008000;stroke-width:1.0;"/><polygon fill="#008000" points="225.36,711.43,217.2094,705.9012,220.4388,710.5456,215.7944,713.775,225.36,711.43" style="stroke:#008000;stroke-width:1.0;"/></g><!--link UD to ExportHistory--><g id="link_UD_ExportHistory"><path d="M41.4,675.87 C44.17,726.71 56.92,813.79 109.5,862 C133.1,883.63 164.21,896.1 195.53,903.05 " fill="none" id="UD-to-ExportHistory" style="stroke:#008000;stroke-width:1.0;"/><polygon fill="#008000" points="200.56,904.12,192.5898,898.3341,195.6695,903.0792,190.9245,906.1589,200.56,904.12" style="stroke:#008000;stroke-width:1.0;"/></g><!--link UD to AskHint--><g id="link_UD_AskHint"><path d="M44.87,675.78 C52.97,751.31 73.93,911.65 109.5,953 C140.96,989.59 190.35,1010.09 234.21,1021.56 " fill="none" id="UD-to-AskHint" style="stroke:#008000;stroke-width:1.0;"/><polygon fill="#008000" points="239.25,1022.85,231.5099,1016.7597,234.4035,1021.6205,229.5427,1024.5141,239.25,1022.85" style="stroke:#008000;stroke-width:1.0;"/></g><!--link UD to TuneHint--><g id="link_UD_TuneHint"><path d="M41.53,675.8 C43.68,773.25 54.56,1020.06 109.5,1077 C137.99,1106.53 180.46,1118.79 220.4,1123.02 " fill="none" id="UD-to-TuneHint" style="stroke:#008000;stroke-width:1.0;"/><polygon fill="#008000" points="225.77,1123.54,217.2003,1118.6862,220.7936,1123.0552,216.4246,1126.6485,225.77,1123.54" style="stroke:#008000;stroke-width:1.0;"/></g><!--SRC=[KypCIyufJKbLqDClBKvDJYnEBTOhACtDuU8gIitDBqjL27M5i_pXh000]--></g></svg>