<?xml version="1.0" encoding="us-ascii" standalone="no"?><svg xmlns="http://www.w3.org/2000/svg" xmlns:xlink="http://www.w3.org/1999/xlink" contentStyleType="text/css" height="1929px" preserveAspectRatio="none" style="width:553px;height:1929px;background:#FFFFFF;" version="1.1" viewBox="0 0 553 1929" width="553px" zoomAndPan="magnify"><defs/><g><!--cluster Users--><g id="cluster_Users"><rect fill="none" height="338" rx="2.5" ry="2.5" style="stroke:#181818;stroke-width:1.0;" width="267" x="201.5" y="7"/><text fill="#000000" font-family="sans-serif" font-size="14" font-weight="bold" lengthAdjust="spacing" textLength="115" x="277.5" y="21.9951">&#1055;&#1086;&#1083;&#1100;&#1079;&#1086;&#1074;&#1072;&#1090;&#1077;&#1083;&#1080;</text></g><!--cluster Rooms--><g id="cluster_Rooms"><rect fill="none" height="368" rx="2.5" ry="2.5" style="stroke:#181818;stroke-width:1.0;" width="299" x="185.5" y="770"/><text fill="#000000" font-family="sans-serif" font-size="14" font-weight="bold" lengthAdjust="spacing" textLength="147" x="261.5" y="784.9951">&#1048;&#1075;&#1088;&#1086;&#1074;&#1099;&#1077; &#1082;&#1086;&#1084;&#1085;&#1072;&#1090;&#1099;</text></g><!--cluster Education--><g id="cluster_Education"><rect fill="none" height="179" rx="2.5" ry="2.5" style="stroke:#181818;stroke-width:1.0;" width="252" x="209" y="369"/><text fill="#000000" font-family="sans-serif" font-size="14" font-weight="bold" lengthAdjust="spacing" textLength="81" x="294.5" y="383.9951">&#1054;&#1073;&#1091;&#1095;&#1077;&#1085;&#1080;&#1077;</text></g><!--cluster Content--><g id="cluster_Content"><rect fill="none" height="174" rx="2.5" ry="2.5" style="stroke:#181818;stroke-width:1.0;" width="423" x="124" y="572"/><text fill="#000000" font-family="sans-serif" font-size="14" font-weight="bold" lengthAdjust="spacing" textLength="407" x="132" y="586.9951">&#1050;&#1086;&#1085;&#1090;&#1077;&#1085;&#1090; &#1082;&#1085;&#1080;&#1075;, &#1089;&#1077;&#1090;&#1090;&#1080;&#1085;&#1075;&#1086;&#1074;, &#1087;&#1088;&#1080;&#1082;&#1083;&#1102;&#1095;&#1077;&#1085;&#1080;&#1081;, &#1093;&#1086;&#1091;&#1084;&#1073;&#1088;&#1102;</text></g><!--cluster Campaigns--><g id="cluster_Campaigns"><rect fill="none" height="555" rx="2.5" ry="2.5" style="stroke:#181818;stroke-width:1.0;" width="302" x="184" y="1162"/><text fill="#000000" font-family="sans-serif" font-size="14" font-weight="bold" lengthAdjust="spacing" textLength="182" x="244" y="1176.9951">&#1044;&#1072;&#1085;&#1085;&#1099;&#1077; &#1087;&#1088;&#1086;&#1093;&#1086;&#1078;&#1076;&#1077;&#1085;&#1080;&#1103;</text></g><!--cluster Hints--><g id="cluster_Hints"><rect fill="none" height="182" rx="2.5" ry="2.5" style="stroke:#181818;stroke-width:1.0;" width="246" x="212" y="1741"/><text fill="#000000" font-family="sans-serif" font-size="14" font-weight="bold" lengthAdjust="spacing" textLength="89" x="290.5" y="1755.9951">&#1055;&#1086;&#1076;&#1089;&#1082;&#1072;&#1079;&#1082;&#1080;</text></g><g id="elem_Register"><ellipse cx="334.9744" cy="308.8949" fill="#F1F1F1" rx="87.4744" ry="19.8949" style="stroke:#181818;stroke-width:0.5;"/><text fill="#000000" font-family="sans-serif" font-size="14" lengthAdjust="spacing" textLength="136" x="266.9744" y="311.7416">&#1056;&#1077;&#1075;&#1080;&#1089;&#1090;&#1088;&#1080;&#1088;&#1086;&#1074;&#1072;&#1090;&#1100;&#1089;&#1103;</text></g><g id="elem_Auth"><ellipse cx="335.2481" cy="230.8496" fill="#F1F1F1" rx="102.2481" ry="22.8496" style="stroke:#181818;stroke-width:0.5;"/><text fill="#000000" font-family="sans-serif" font-size="14" lengthAdjust="spacing" textLength="169" x="250.7481" y="233.6963">&#1040;&#1091;&#1090;&#1077;&#1085;&#1090;&#1080;&#1092;&#1080;&#1094;&#1080;&#1088;&#1086;&#1074;&#1072;&#1090;&#1100;&#1089;&#1103;</text></g><g id="elem_ManageUsers"><ellipse cx="334.9942" cy="67.8988" fill="#F1F1F1" rx="117.4942" ry="25.8988" style="stroke:#181818;stroke-width:0.5;"/><text fill="#000000" font-family="sans-serif" font-size="14" lengthAdjust="spacing" textLength="202" x="233.9942" y="70.7455">&#1059;&#1087;&#1088;&#1072;&#1074;&#1083;&#1103;&#1090;&#1100; &#1087;&#1086;&#1083;&#1100;&#1079;&#1086;&#1074;&#1072;&#1090;&#1077;&#1083;&#1103;&#1084;&#1080;</text></g><g id="elem_Logout"><ellipse cx="335.0673" cy="151.2135" fill="#F1F1F1" rx="99.0673" ry="22.2135" style="stroke:#181818;stroke-width:0.5;"/><text fill="#000000" font-family="sans-serif" font-size="14" lengthAdjust="spacing" textLength="162" x="254.0673" y="154.0601">&#1042;&#1099;&#1093;&#1086;&#1076;&#1080;&#1090;&#1100; &#1080;&#1079; &#1089;&#1080;&#1089;&#1090;&#1077;&#1084;&#1099;</text></g><g id="elem_ManageRoom"><ellipse cx="335.0217" cy="1093.1043" fill="#F1F1F1" rx="133.5217" ry="29.1043" style="stroke:#181818;stroke-width:0.5;"/><text fill="#000000" font-family="sans-serif" font-size="14" lengthAdjust="spacing" textLength="236" x="217.0217" y="1095.951">&#1059;&#1087;&#1088;&#1072;&#1074;&#1083;&#1103;&#1090;&#1100; &#1080;&#1075;&#1088;&#1086;&#1074;&#1099;&#1084;&#1080; &#1082;&#1086;&#1084;&#1085;&#1072;&#1090;&#1072;&#1084;&#1080;</text></g><g id="elem_SearchRoom"><ellipse cx="335.0935" cy="915.8187" fill="#F1F1F1" rx="109.5935" ry="24.3187" style="stroke:#181818;stroke-width:0.5;"/><text fill="#000000" font-family="sans-serif" font-size="14" lengthAdjust="spacing" textLength="185" x="242.5935" y="918.6654">&#1048;&#1089;&#1082;&#1072;&#1090;&#1100; &#1080;&#1075;&#1088;&#1086;&#1074;&#1099;&#1077; &#1082;&#1086;&#1084;&#1085;&#1072;&#1090;&#1099;</text></g><g id="elem_JoinRoom"><ellipse cx="334.7717" cy="1002.0543" fill="#F1F1F1" rx="120.7717" ry="26.5543" style="stroke:#181818;stroke-width:0.5;"/><text fill="#000000" font-family="sans-serif" font-size="14" lengthAdjust="spacing" textLength="209" x="230.2717" y="1004.901">&#1042;&#1089;&#1090;&#1091;&#1087;&#1072;&#1090;&#1100; &#1074; &#1080;&#1075;&#1088;&#1086;&#1074;&#1091;&#1102; &#1082;&#1086;&#1084;&#1085;&#1072;&#1090;&#1091;</text></g><g id="elem_LeaveRoom"><ellipse cx="335.0602" cy="831.212" fill="#F1F1F1" rx="116.5602" ry="25.712" style="stroke:#181818;stroke-width:0.5;"/><text fill="#000000" font-family="sans-serif" font-size="14" lengthAdjust="spacing" textLength="200" x="235.0602" y="834.0587">&#1055;&#1086;&#1082;&#1080;&#1076;&#1072;&#1090;&#1100; &#1080;&#1075;&#1088;&#1086;&#1074;&#1091;&#1102; &#1082;&#1086;&#1084;&#1085;&#1072;&#1090;&#1091;</text></g><g id="elem_Learn"><ellipse cx="335.0118" cy="509.9024" fill="#F1F1F1" rx="95.0118" ry="21.4024" style="stroke:#181818;stroke-width:0.5;"/><text fill="#000000" font-family="sans-serif" font-size="14" lengthAdjust="spacing" textLength="153" x="258.5118" y="512.749">&#1055;&#1088;&#1086;&#1093;&#1086;&#1076;&#1080;&#1090;&#1100; &#1086;&#1073;&#1091;&#1095;&#1077;&#1085;&#1080;&#1077;</text></g><g id="elem_EditLearn"><ellipse cx="335.0557" cy="428.9111" fill="#F1F1F1" rx="110.0557" ry="24.4111" style="stroke:#181818;stroke-width:0.5;"/><text fill="#000000" font-family="sans-serif" font-size="14" lengthAdjust="spacing" textLength="186" x="242.0557" y="431.7578">&#1056;&#1077;&#1076;&#1072;&#1082;&#1090;&#1080;&#1088;&#1086;&#1074;&#1072;&#1090;&#1100; &#1086;&#1073;&#1091;&#1095;&#1077;&#1085;&#1080;&#1077;</text></g><g id="elem_ReadContent"><ellipse cx="335.0998" cy="710.22" fill="#FF0000" rx="86.5998" ry="19.72" style="stroke:#181818;stroke-width:0.5;"/><text fill="#000000" font-family="sans-serif" font-size="14" lengthAdjust="spacing" textLength="134" x="268.0998" y="713.0666">&#1055;&#1086;&#1083;&#1091;&#1095;&#1072;&#1090;&#1100; &#1082;&#1086;&#1085;&#1090;&#1077;&#1085;&#1090;</text></g><g id="elem_EditContent"><ellipse cx="334.8276" cy="630.7655" fill="#F1F1F1" rx="106.8276" ry="23.7655" style="stroke:#181818;stroke-width:0.5;"/><text fill="#000000" font-family="sans-serif" font-size="14" lengthAdjust="spacing" textLength="179" x="245.3276" y="633.6122">&#1056;&#1077;&#1076;&#1072;&#1082;&#1090;&#1080;&#1088;&#1086;&#1074;&#1072;&#1090;&#1100; &#1082;&#1086;&#1085;&#1090;&#1077;&#1085;&#1090;</text></g><g id="elem_GetState"><ellipse cx="335.0617" cy="1400.2123" fill="#FF0000" rx="124.0617" ry="27.2123" style="stroke:#181818;stroke-width:0.5;"/><text fill="#000000" font-family="sans-serif" font-size="14" lengthAdjust="spacing" textLength="216" x="227.0617" y="1403.059">&#1055;&#1086;&#1083;&#1091;&#1095;&#1072;&#1090;&#1100; &#1089;&#1086;&#1089;&#1090;&#1086;&#1103;&#1085;&#1080;&#1077; &#1086;&#1073;&#1098;&#1077;&#1082;&#1090;&#1072;</text></g><g id="elem_ChangeState"><ellipse cx="334.9616" cy="1487.9923" fill="#FF0000" rx="117.9616" ry="25.9923" style="stroke:#181818;stroke-width:0.5;"/><text fill="#000000" font-family="sans-serif" font-size="14" lengthAdjust="spacing" textLength="203" x="233.4616" y="1490.839">&#1052;&#1077;&#1085;&#1103;&#1090;&#1100; &#1089;&#1086;&#1089;&#1090;&#1086;&#1103;&#1085;&#1080;&#1077; &#1086;&#1073;&#1098;&#1077;&#1082;&#1090;&#1072;</text></g><g id="elem_Generate"><ellipse cx="334.9476" cy="1578.8895" fill="#FF0000" rx="134.9476" ry="29.3895" style="stroke:#181818;stroke-width:0.5;"/><text fill="#000000" font-family="sans-serif" font-size="14" lengthAdjust="spacing" textLength="239" x="215.4476" y="1581.7362">&#1043;&#1077;&#1085;&#1077;&#1088;&#1080;&#1088;&#1086;&#1074;&#1072;&#1090;&#1100; &#1080;&#1075;&#1088;&#1086;&#1074;&#1099;&#1077; &#1086;&#1073;&#1098;&#1077;&#1082;&#1090;&#1099;</text></g><g id="elem_ImportChar"><ellipse cx="334.9942" cy="1222.8988" fill="#F1F1F1" rx="117.4942" ry="25.8988" style="stroke:#181818;stroke-width:0.5;"/><text fill="#000000" font-family="sans-serif" font-size="14" lengthAdjust="spacing" textLength="202" x="233.9942" y="1225.7455">&#1048;&#1084;&#1087;&#1086;&#1088;&#1090;&#1080;&#1088;&#1086;&#1074;&#1072;&#1090;&#1100; &#1087;&#1077;&#1088;&#1089;&#1086;&#1085;&#1072;&#1078;&#1072;</text></g><g id="elem_ExportChar"><ellipse cx="334.8027" cy="1310.9605" fill="#F1F1F1" rx="120.3027" ry="26.4605" style="stroke:#181818;stroke-width:0.5;"/><text fill="#000000" font-family="sans-serif" font-size="14" lengthAdjust="spacing" textLength="208" x="230.8027" y="1313.8072">&#1069;&#1082;&#1089;&#1087;&#1086;&#1088;&#1090;&#1080;&#1088;&#1086;&#1074;&#1072;&#1090;&#1100; &#1087;&#1077;&#1088;&#1089;&#1086;&#1085;&#1072;&#1078;&#1072;</text></g><g id="elem_ExportHistory"><ellipse cx="335.2278" cy="1671.8456" fill="#F1F1F1" rx="129.7278" ry="28.3456" style="stroke:#181818;stroke-width:0.5;"/><text fill="#000000" font-family="sans-serif" font-size="14" lengthAdjust="spacing" textLength="228" x="221.2278" y="1674.6922">&#1069;&#1082;&#1089;&#1087;&#1086;&#1088;&#1090;&#1080;&#1088;&#1086;&#1074;&#1072;&#1090;&#1100; &#1087;&#1088;&#1086;&#1093;&#1086;&#1078;&#1076;&#1077;&#1085;&#1080;&#1077;</text></g><g id="elem_AskHint"><ellipse cx="334.8276" cy="1799.7655" fill="#FF0000" rx="106.8276" ry="23.7655" style="stroke:#181818;stroke-width:0.5;"/><text fill="#000000" font-family="sans-serif" font-size="14" lengthAdjust="spacing" textLength="179" x="245.3276" y="1802.6122">&#1047;&#1072;&#1087;&#1088;&#1072;&#1096;&#1080;&#1074;&#1072;&#1090;&#1100; &#1087;&#1086;&#1076;&#1089;&#1082;&#1072;&#1079;&#1082;&#1080;</text></g><g id="elem_TuneHint"><ellipse cx="334.9911" cy="1882.8982" fill="#F1F1F1" rx="104.9911" ry="23.3982" style="stroke:#181818;stroke-width:0.5;"/><text fill="#000000" font-family="sans-serif" font-size="14" lengthAdjust="spacing" textLength="175" x="247.4911" y="1885.7449">&#1053;&#1072;&#1089;&#1090;&#1088;&#1072;&#1080;&#1074;&#1072;&#1090;&#1100; &#1087;&#1086;&#1076;&#1089;&#1082;&#1072;&#1079;&#1082;&#1080;</text></g><!--entity UO--><g id="elem_UO"><ellipse cx="43" cy="121.5" fill="#0000FF" rx="8" ry="8" style="stroke:#0000FF;stroke-width:2.0;"/><path d="M43,129.5 L43,156.5 M30,137.5 L56,137.5 M43,156.5 L30,171.5 M43,156.5 L56,171.5 " fill="none" style="stroke:#0000FF;stroke-width:2.0;"/><text fill="#0000FF" font-family="sans-serif" font-size="14" lengthAdjust="spacing" textLength="74" x="6" y="187.4951">&#1042;&#1083;&#1072;&#1076;&#1077;&#1083;&#1077;&#1094;</text></g><!--entity UE--><g id="elem_UE"><ellipse cx="43" cy="440.5" fill="#800000" rx="8" ry="8" style="stroke:#800000;stroke-width:2.0;"/><path d="M43,448.5 L43,475.5 M30,456.5 L56,456.5 M43,475.5 L30,490.5 M43,475.5 L56,490.5 " fill="none" style="stroke:#800000;stroke-width:2.0;"/><text fill="#800000" font-family="sans-serif" font-size="14" lengthAdjust="spacing" textLength="71" x="7.5" y="506.4951">&#1056;&#1077;&#1076;&#1072;&#1082;&#1090;&#1086;&#1088;</text></g><!--entity UP--><g id="elem_UP"><ellipse cx="43" cy="801.5" fill="#FFA500" rx="8" ry="8" style="stroke:#FFA500;stroke-width:2.0;"/><path d="M43,809.5 L43,836.5 M30,817.5 L56,817.5 M43,836.5 L30,851.5 M43,836.5 L56,851.5 " fill="none" style="stroke:#FFA500;stroke-width:2.0;"/><text fill="#FFA500" font-family="sans-serif" font-size="14" lengthAdjust="spacing" textLength="43" x="21.5" y="867.4951">&#1048;&#1075;&#1088;&#1086;&#1082;</text></g><!--entity UD--><g id="elem_UD"><ellipse cx="43" cy="1370.5" fill="#008000" rx="8" ry="8" style="stroke:#008000;stroke-width:2.0;"/><path d="M43,1378.5 L43,1405.5 M30,1386.5 L56,1386.5 M43,1405.5 L30,1420.5 M43,1405.5 L56,1420.5 " fill="none" style="stroke:#008000;stroke-width:2.0;"/><text fill="#008000" font-family="sans-serif" font-size="14" lengthAdjust="spacing" textLength="68" x="9" y="1436.4951">&#1042;&#1077;&#1076;&#1091;&#1097;&#1080;&#1081;</text></g><!--link UP to Register--><g id="link_UP_Register"><path d="M48.16,791.19 C59.22,688.22 90.33,418.97 116,388 C149.09,348.08 204.07,328.33 250.54,318.56 " fill="none" id="UP-to-Register" style="stroke:#FFA500;stroke-width:1.0;"/><polygon fill="#FFA500" points="255.58,317.53,245.9619,315.4104,250.681,318.5298,247.5616,323.2489,255.58,317.53" style="stroke:#FFA500;stroke-width:1.0;"/></g><!--link UO to Auth--><g id="link_UO_Auth"><path d="M80.35,173.53 C91.46,179.63 103.94,185.72 116,190 C155.16,203.9 200.04,213.37 238.86,219.67 " fill="none" id="UO-to-Auth" style="stroke:#0000FF;stroke-width:1.0;"/><polygon fill="#0000FF" points="244.05,220.5,235.7896,215.1367,239.112,219.7151,234.5336,223.0375,244.05,220.5" style="stroke:#0000FF;stroke-width:1.0;"/></g><!--link UE to Auth--><g id="link_UE_Auth"><path d="M46.93,430.17 C52.51,384.56 68.75,311 116,271 C146.85,244.88 189.08,233.47 228.16,229.08 " fill="none" id="UE-to-Auth" style="stroke:#800000;stroke-width:1.0;"/><polygon fill="#800000" points="233.4,228.53,224.0362,225.4773,228.4265,229.0445,224.8594,233.4349,233.4,228.53" style="stroke:#800000;stroke-width:1.0;"/></g><!--link UP to Auth--><g id="link_UP_Auth"><path d="M48.81,791.11 C64.21,663.88 111.49,275.76 116,271 C145.38,240 190.26,228.36 231.68,225.13 " fill="none" id="UP-to-Auth" style="stroke:#FFA500;stroke-width:1.0;"/><polygon fill="#FFA500" points="236.71,224.77,227.4472,221.4233,231.7228,225.1273,228.0188,229.4028,236.71,224.77" style="stroke:#FFA500;stroke-width:1.0;"/></g><!--link UD to Auth--><g id="link_UD_Auth"><path d="M46.96,1360.18 C53.33,1274.06 68.67,1064.07 80,888 C84.41,819.47 70.52,322.46 116,271 C144.83,238.38 190.77,226.78 233.05,223.99 " fill="none" id="UD-to-Auth" style="stroke:#008000;stroke-width:1.0;"/><polygon fill="#008000" points="238.19,223.69,228.9759,220.2115,233.1982,223.9761,229.4336,228.1984,238.19,223.69" style="stroke:#008000;stroke-width:1.0;"/></g><!--link UO to ManageUsers--><g id="link_UO_ManageUsers"><path d="M80.32,127.94 C91.43,121.68 103.91,115.42 116,111 C151.56,97.98 191.91,88.62 228.14,82.03 " fill="none" id="UO-to-ManageUsers" style="stroke:#0000FF;stroke-width:1.0;"/><polygon fill="#0000FF" points="233.46,81.08,223.901,78.7081,228.5364,81.9506,225.2939,86.5859,233.46,81.08" style="stroke:#0000FF;stroke-width:1.0;"/></g><!--link UO to Logout--><g id="link_UO_Logout"><path d="M80.14,151 C117.72,151 178.3,151 230.85,151 " fill="none" id="UO-to-Logout" style="stroke:#0000FF;stroke-width:1.0;"/><polygon fill="#0000FF" points="235.91,151,226.91,147,230.91,151,226.91,155,235.91,151" style="stroke:#0000FF;stroke-width:1.0;"/></g><!--link UE to Logout--><g id="link_UE_Logout"><path d="M48.92,430.23 C58.32,360.96 81.05,222.43 116,190 C147.28,160.97 192.41,149.78 233.51,146.42 " fill="none" id="UE-to-Logout" style="stroke:#800000;stroke-width:1.0;"/><polygon fill="#800000" points="238.5,146.05,229.2277,142.7297,233.5138,146.4215,229.822,150.7076,238.5,146.05" style="stroke:#800000;stroke-width:1.0;"/></g><!--link UP to Logout--><g id="link_UP_Logout"><path d="M48.86,791.18 C55.92,733.12 69.32,621.8 80,527 C88.43,452.16 64.66,245.1 116,190 C146.22,157.56 193.45,146.44 236.23,144 " fill="none" id="UP-to-Logout" style="stroke:#FFA500;stroke-width:1.0;"/><polygon fill="#FFA500" points="241.42,143.75,232.2264,140.2175,236.4266,144.0068,232.6373,148.207,241.42,143.75" style="stroke:#FFA500;stroke-width:1.0;"/></g><!--link UD to Logout--><g id="link_UD_Logout"><path d="M47.05,1360.18 C53.6,1274.08 69.27,1064.11 80,888 C82.36,849.24 90.32,219.12 116,190 C145.87,156.12 194.23,145.12 237.82,143.14 " fill="none" id="UD-to-Logout" style="stroke:#008000;stroke-width:1.0;"/><polygon fill="#008000" points="242.84,142.95,233.6977,139.2868,237.8434,143.1356,233.9947,147.2813,242.84,142.95" style="stroke:#008000;stroke-width:1.0;"/></g><!--link UD to ManageRoom--><g id="link_UD_ManageRoom"><path d="M47.07,1360.13 C52.82,1311.89 69.23,1230.96 116,1181 C146.62,1148.29 191.07,1127.45 231.86,1114.31 " fill="none" id="UD-to-ManageRoom" style="stroke:#008000;stroke-width:1.0;"/><polygon fill="#008000" points="236.81,1112.75,227.0237,1111.6416,232.0414,1114.2536,229.4295,1119.2713,236.81,1112.75" style="stroke:#008000;stroke-width:1.0;"/></g><!--link UP to SearchRoom--><g id="link_UP_SearchRoom"><path d="M64.74,846.04 C78.62,855.42 97.63,867 116,874 C152.88,888.06 195.13,897.6 232.57,903.97 " fill="none" id="UP-to-SearchRoom" style="stroke:#FFA500;stroke-width:1.0;"/><polygon fill="#FFA500" points="237.58,904.81,229.3677,899.3733,232.6492,903.9811,228.0414,907.2625,237.58,904.81" style="stroke:#FFA500;stroke-width:1.0;"/></g><!--link UP to JoinRoom--><g id="link_UP_JoinRoom"><path d="M56.43,870.66 C67.49,899.34 86.55,936.66 116,958 C143.45,977.89 177.72,989.32 210.89,995.74 " fill="none" id="UP-to-JoinRoom" style="stroke:#FFA500;stroke-width:1.0;"/><polygon fill="#FFA500" points="216.21,996.73,208.0935,991.1513,211.2943,995.8155,206.6302,999.0163,216.21,996.73" style="stroke:#FFA500;stroke-width:1.0;"/></g><!--link UP to LeaveRoom--><g id="link_UP_LeaveRoom"><path d="M64.86,837.99 C98.71,842.86 167.86,844.64 227.58,843.34 " fill="none" id="UP-to-LeaveRoom" style="stroke:#FFA500;stroke-width:1.0;"/><polygon fill="#FFA500" points="232.6,843.22,223.5109,839.4267,227.6013,843.3343,223.6938,847.4246,232.6,843.22" style="stroke:#FFA500;stroke-width:1.0;"/></g><!--link UP to LeaveRoom--><g id="link_UP_LeaveRoom"><path d="M64.86,823.59 C99.03,818.4 169.15,816.53 229.25,817.97 " fill="none" id="UP-to-LeaveRoom-1" style="stroke:#FFA500;stroke-width:1.0;"/><polygon fill="#FFA500" points="234.3,818.1,225.4061,813.8693,229.3017,817.9711,225.1999,821.8667,234.3,818.1" style="stroke:#FFA500;stroke-width:1.0;"/></g><!--link UE to Learn--><g id="link_UE_Learn"><path d="M78.69,474.79 C120.36,480.53 191.72,490.38 248.42,498.2 " fill="none" id="UE-to-Learn" style="stroke:#800000;stroke-width:1.0;"/><polygon fill="#800000" points="253.51,498.9,245.143,493.7045,248.5572,498.2149,244.0468,501.6291,253.51,498.9" style="stroke:#800000;stroke-width:1.0;"/></g><!--link UE to EditLearn--><g id="link_UE_EditLearn"><path d="M78.69,465.1 C117.51,459.61 182.09,450.48 236.59,442.77 " fill="none" id="UE-to-EditLearn" style="stroke:#800000;stroke-width:1.0;"/><polygon fill="#800000" points="241.83,442.03,232.358,439.3315,236.8794,442.7311,233.4798,447.2525,241.83,442.03" style="stroke:#800000;stroke-width:1.0;"/></g><!--link UP to Learn--><g id="link_UP_Learn"><path d="M45.39,791.25 C49.32,738.82 63.78,646.69 116,591 C150.84,553.84 204.28,533.64 249.53,522.7 " fill="none" id="UP-to-Learn" style="stroke:#FFA500;stroke-width:1.0;"/><polygon fill="#FFA500" points="254.44,521.54,244.758,519.7346,249.5761,522.6987,246.612,527.5168,254.44,521.54" style="stroke:#FFA500;stroke-width:1.0;"/></g><!--link UD to Learn--><g id="link_UD_Learn"><path d="M46.95,1360.46 C58.96,1200.15 104.16,606.51 116,591 C146.49,551.05 198.86,530.8 244.63,520.54 " fill="none" id="UD-to-Learn" style="stroke:#008000;stroke-width:1.0;"/><polygon fill="#008000" points="249.61,519.46,239.9676,517.4538,244.7231,520.5174,241.6595,525.2729,249.61,519.46" style="stroke:#008000;stroke-width:1.0;"/></g><!--link UE to ReadContent--><g id="link_UE_ReadContent"><path d="M46.58,509.67 C51.83,555.96 67.75,631.32 116,672 C151.56,701.98 202.26,712.11 245.81,714.45 " fill="none" id="UE-to-ReadContent" style="stroke:#800000;stroke-width:1.0;"/><polygon fill="#800000" points="250.81,714.68,242.0153,710.2469,245.8159,714.4367,241.626,718.2374,250.81,714.68" style="stroke:#800000;stroke-width:1.0;"/></g><!--link UE to EditContent--><g id="link_UE_EditContent"><path d="M74.26,509.69 C86.12,523.23 100.58,537.57 116,548 C159.29,577.27 214.32,598.12 258.26,611.6 " fill="none" id="UE-to-EditContent" style="stroke:#800000;stroke-width:1.0;"/><polygon fill="#800000" points="263.29,613.13,255.8453,606.682,258.5068,611.6736,253.5151,614.3351,263.29,613.13" style="stroke:#800000;stroke-width:1.0;"/></g><!--link UP to ReadContent--><g id="link_UP_ReadContent"><path d="M64.57,817.66 C78.69,808.84 98.04,797.41 116,789 C169.47,763.97 233.22,741.69 277.92,727.22 " fill="none" id="UP-to-ReadContent" style="stroke:#FFA500;stroke-width:1.0;"/><polygon fill="#FFA500" points="282.73,725.68,272.9378,724.625,277.9697,727.2096,275.3851,732.2415,282.73,725.68" style="stroke:#FFA500;stroke-width:1.0;"/></g><!--link UD to ReadContent--><g id="link_UD_ReadContent"><path d="M46.28,1360.13 C53.98,1231.58 80.46,833.84 116,789 C148.39,748.14 203.81,728.4 250.67,718.87 " fill="none" id="UD-to-ReadContent" style="stroke:#008000;stroke-width:1.0;"/><polygon fill="#008000" points="255.76,717.87,246.154,715.6966,250.8555,718.8423,247.7097,723.5438,255.76,717.87" style="stroke:#008000;stroke-width:1.0;"/></g><!--link UP to GetState--><g id="link_UP_GetState"><path d="M43.76,870.81 C43.96,980.74 50.54,1285 116,1355 C139.33,1379.95 172.55,1393.04 206.04,1399.48 " fill="none" id="UP-to-GetState" style="stroke:#FFA500;stroke-width:1.0;"/><polygon fill="#FFA500" points="210.98,1400.38,202.8322,1394.8471,206.0593,1399.4931,201.4132,1402.7202,210.98,1400.38" style="stroke:#FFA500;stroke-width:1.0;"/></g><!--link UP to ChangeState--><g id="link_UP_ChangeState"><path d="M45.99,870.77 C52.83,999.93 77.07,1401.73 116,1444 C140.56,1470.66 176.42,1483.69 212,1489.49 " fill="none" id="UP-to-ChangeState" style="stroke:#FFA500;stroke-width:1.0;"/><polygon fill="#FFA500" points="217.24,1490.3,208.9494,1484.9834,212.2976,1489.5429,207.7381,1492.8912,217.24,1490.3" style="stroke:#FFA500;stroke-width:1.0;"/></g><!--link UP to ImportChar--><g id="link_UP_ImportChar"><path d="M48.68,870.66 C58.1,944.27 81.42,1098.15 116,1138 C146.51,1173.16 193.38,1193.87 235.85,1206.03 " fill="none" id="UP-to-ImportChar" style="stroke:#FFA500;stroke-width:1.0;"/><polygon fill="#FFA500" points="240.74,1207.39,233.1456,1201.119,235.9238,1206.0466,230.9962,1208.8248,240.74,1207.39" style="stroke:#FFA500;stroke-width:1.0;"/></g><!--link UP to ExportChar--><g id="link_UP_ExportChar"><path d="M45.01,870.58 C48.3,966.9 61.89,1209.71 116,1266 C140.31,1291.29 174.8,1304.31 209.18,1310.57 " fill="none" id="UP-to-ExportChar" style="stroke:#FFA500;stroke-width:1.0;"/><polygon fill="#FFA500" points="214.25,1311.44,206.0531,1305.9801,209.3215,1310.5972,204.7045,1313.8657,214.25,1311.44" style="stroke:#FFA500;stroke-width:1.0;"/></g><!--link UD to Generate--><g id="link_UD_Generate"><path d="M55.77,1439.5 C66.64,1469.15 85.77,1508.37 116,1531 C140.89,1549.63 171.58,1561.29 202,1568.53 " fill="none" id="UD-to-Generate" style="stroke:#008000;stroke-width:1.0;"/><polygon fill="#008000" points="206.87,1569.65,198.9885,1563.7439,201.9959,1568.5351,197.2047,1571.5425,206.87,1569.65" style="stroke:#008000;stroke-width:1.0;"/></g><!--link UD to GetState--><g id="link_UD_GetState"><path d="M77.27,1400 C108.85,1400 158.37,1400 205.53,1400 " fill="none" id="UD-to-GetState" style="stroke:#008000;stroke-width:1.0;"/><polygon fill="#008000" points="210.67,1400,201.67,1396,205.67,1400,201.67,1404,210.67,1400" style="stroke:#008000;stroke-width:1.0;"/></g><!--link UD to ChangeState--><g id="link_UD_ChangeState"><path d="M77.15,1423.6 C88.95,1431.08 102.64,1438.76 116,1444 C151.03,1457.74 190.98,1467.4 227.03,1474.09 " fill="none" id="UD-to-ChangeState" style="stroke:#008000;stroke-width:1.0;"/><polygon fill="#008000" points="232.32,1475.05,224.185,1469.4983,227.4013,1474.1518,222.7479,1477.3682,232.32,1475.05" style="stroke:#008000;stroke-width:1.0;"/></g><!--link UD to ExportHistory--><g id="link_UD_ExportHistory"><path d="M45.07,1439.92 C48.69,1490.81 62.85,1577.94 116,1626 C139.62,1647.36 170.61,1659.74 201.77,1666.71 " fill="none" id="UD-to-ExportHistory" style="stroke:#008000;stroke-width:1.0;"/><polygon fill="#008000" points="206.77,1667.78,198.8195,1661.9671,201.8831,1666.7226,197.1276,1669.7862,206.77,1667.78" style="stroke:#008000;stroke-width:1.0;"/></g><!--link UD to AskHint--><g id="link_UD_AskHint"><path d="M48.31,1439.5 C57.26,1514.93 80.1,1675.67 116,1717 C147.58,1753.36 196.86,1773.85 240.58,1785.37 " fill="none" id="UD-to-AskHint" style="stroke:#008000;stroke-width:1.0;"/><polygon fill="#008000" points="245.61,1786.66,237.8868,1780.5483,240.7669,1785.4171,235.8982,1788.2972,245.61,1786.66" style="stroke:#008000;stroke-width:1.0;"/></g><!--link UD to TuneHint--><g id="link_UD_TuneHint"><path d="M44.87,1439.81 C47.84,1537.3 60.78,1784.19 116,1841 C144.41,1870.23 186.55,1882.48 226.22,1886.79 " fill="none" id="UD-to-TuneHint" style="stroke:#008000;stroke-width:1.0;"/><polygon fill="#008000" points="231.55,1887.32,222.9955,1882.4394,226.5751,1886.8197,222.1949,1890.3993,231.55,1887.32" style="stroke:#008000;stroke-width:1.0;"/></g><!--SRC=[dPRhJXD15CU_zoacrCGluWD8OYIq0Gq60le0Ipks6zfTifqIZ37XedY1K8Cc4gDYucUJIbjPUds5cJVopCnUPdQcGIGftSwP-StvdtFcpDRmCuA8ZmAtKYMex0QuH5pVo-MS4l43D4DFwO2sQPVsuBl73cUGqq1FLz0j-EGtQaqyLtCzV2zvkhlXryfp1EyGCPPWVW2W2w0-swTZjYinHS0KKRxk1BxlIP3ohA3aQ08xenssIyUqBp6hW5b5UJzml4haZ_AiOEIe8WryOWVi7GtfbKGL05L0-Kg0SUHG-gY0n60knuC5n1e6s3duCs37z1A-BsWRPFA8XHBRm443lSWX-6isSCbfu2Wa7HgoFROFQaAXIAnanp3M4YlNSCLj41nabdu0h_a68_WVibVmEPm2c6-IQcRnJpg1gMsOEc0jFXdHYSrvrgB3IC1ZntCgMCZ8m4xP4NiDgxgmlq25z1AnFIaBA4Ds90ZBViLl4h4OSZKxUp-H5YTEsbQ4ZNijoqkE5fNHg1OKaXnNAGLbNEPAWIjYr3saKVffxXsFcxl75dF_s19LoqkzOE8Ylc17j8Te7nw7T2JI9qEsvljriseisGiL4cHCOy5CFOcSca6UGRxwicvqcDMjTUm4fQe5Soeg-G2AAK9TgBG3TgBJ3WJjaUzw5XO_JNrOtJNTcW9QnivsAYxAG2fPgmEPk5I8dZnfZHspsPAz4cCcjz_fR_3p3J-Xu7bFE5WiDqiExwr6Ii-vClqKZIq0s3NmB3qaRgjQ0x0ZYcMNf9YfQjIwvxFrifU616Kz4z9WEHBI87EH2TeNS7aKjpMUOkvtvmxl9ZsG109XfCCbta7Y48GmPy1E4erNC1UY22Ku1Esxx4HeNl0zWZrYHbtqF1wXA61zTV-e-phbU7a-mEL_3xx9ul6AM6eOjItiKRQQLytLPhGripNcdy3z4VWepleagSC_uiA7c4Qto89JttBSYjUuDegGhB5e_MEuFaJXoKfy3pmUfxRWBMAoJXo2RL7zAeBMkW5jeSg5JmL-559wsJlMQ7KAE6frYzZ3mHJg6HJPXB_AcCcVyCsuwxn1GIobbm_hMtv0mDViPVuBTjox6QkuyryiCxznNn2y9RYF_U2vMc1feimkg8NTDATwRTPKWQrmqy0hNRkGySWmQGuPLatZbEF0gxahRqDu5-f75-UIwn6pyZ_3774LixSGHoLXDiHyOvDJR8Nq3LRALy3szPmdJGzpaFQQ4xCDoV5iHUtj0DVzRImr9R_acrtyAxcfaX7nAfBENaaVYxdewK7JWvVaJLp-2m00]--></g></svg>