<?xml version="1.0" encoding="us-ascii" standalone="no"?><svg xmlns="http://www.w3.org/2000/svg" xmlns:xlink="http://www.w3.org/1999/xlink" contentStyleType="text/css" height="1189px" preserveAspectRatio="none" style="width:521px;height:1189px;background:#FFFFFF;" version="1.1" viewBox="0 0 521 1189" width="521px" zoomAndPan="magnify"><defs/><g><!--cluster Users--><g id="cluster_Users"><rect fill="none" height="251" rx="2.5" ry="2.5" style="stroke:#181818;stroke-width:1.0;" width="236" x="186" y="7"/><text fill="#000000" font-family="sans-serif" font-size="14" font-weight="bold" lengthAdjust="spacing" textLength="115" x="246.5" y="21.9951">&#1055;&#1086;&#1083;&#1100;&#1079;&#1086;&#1074;&#1072;&#1090;&#1077;&#1083;&#1080;</text></g><!--cluster Rooms--><g id="cluster_Rooms"><rect fill="none" height="275" rx="2.5" ry="2.5" style="stroke:#181818;stroke-width:1.0;" width="274" x="167" y="282"/><text fill="#000000" font-family="sans-serif" font-size="14" font-weight="bold" lengthAdjust="spacing" textLength="147" x="230.5" y="296.9951">&#1048;&#1075;&#1088;&#1086;&#1074;&#1099;&#1077; &#1082;&#1086;&#1084;&#1085;&#1072;&#1090;&#1099;</text></g><!--cluster Education--><g id="cluster_Education"><rect fill="none" height="95" rx="2.5" ry="2.5" style="stroke:#181818;stroke-width:1.0;" width="222" x="193" y="581"/><text fill="#000000" font-family="sans-serif" font-size="14" font-weight="bold" lengthAdjust="spacing" textLength="81" x="263.5" y="595.9951">&#1054;&#1073;&#1091;&#1095;&#1077;&#1085;&#1080;&#1077;</text></g><!--cluster Content--><g id="cluster_Content"><rect fill="none" height="91" rx="2.5" ry="2.5" style="stroke:#181818;stroke-width:1.0;" width="423" x="92.5" y="700"/><text fill="#000000" font-family="sans-serif" font-size="14" font-weight="bold" lengthAdjust="spacing" textLength="407" x="100.5" y="714.9951">&#1050;&#1086;&#1085;&#1090;&#1077;&#1085;&#1090; &#1082;&#1085;&#1080;&#1075;, &#1089;&#1077;&#1090;&#1090;&#1080;&#1085;&#1075;&#1086;&#1074;, &#1087;&#1088;&#1080;&#1082;&#1083;&#1102;&#1095;&#1077;&#1085;&#1080;&#1081;, &#1093;&#1086;&#1091;&#1084;&#1073;&#1088;&#1102;</text></g><!--cluster Campaigns--><g id="cluster_Campaigns"><rect fill="none" height="368" rx="2.5" ry="2.5" style="stroke:#181818;stroke-width:1.0;" width="280" x="164" y="815"/><text fill="#000000" font-family="sans-serif" font-size="14" font-weight="bold" lengthAdjust="spacing" textLength="182" x="213" y="829.9951">&#1044;&#1072;&#1085;&#1085;&#1099;&#1077; &#1087;&#1088;&#1086;&#1093;&#1086;&#1078;&#1076;&#1077;&#1085;&#1080;&#1103;</text></g><g id="elem_Register"><ellipse cx="303.9744" cy="61.8949" fill="#F1F1F1" rx="87.4744" ry="19.8949" style="stroke:#181818;stroke-width:0.5;"/><text fill="#000000" font-family="sans-serif" font-size="14" lengthAdjust="spacing" textLength="136" x="235.9744" y="64.7416">&#1056;&#1077;&#1075;&#1080;&#1089;&#1090;&#1088;&#1080;&#1088;&#1086;&#1074;&#1072;&#1090;&#1100;&#1089;&#1103;</text></g><g id="elem_Auth"><ellipse cx="304.2481" cy="139.8496" fill="#F1F1F1" rx="102.2481" ry="22.8496" style="stroke:#181818;stroke-width:0.5;"/><text fill="#000000" font-family="sans-serif" font-size="14" lengthAdjust="spacing" textLength="169" x="219.7481" y="142.6963">&#1040;&#1091;&#1090;&#1077;&#1085;&#1090;&#1080;&#1092;&#1080;&#1094;&#1080;&#1088;&#1086;&#1074;&#1072;&#1090;&#1100;&#1089;&#1103;</text></g><g id="elem_Logout"><ellipse cx="304.0673" cy="220.2135" fill="#F1F1F1" rx="99.0673" ry="22.2135" style="stroke:#181818;stroke-width:0.5;"/><text fill="#000000" font-family="sans-serif" font-size="14" lengthAdjust="spacing" textLength="162" x="223.0673" y="223.0601">&#1042;&#1099;&#1093;&#1086;&#1076;&#1080;&#1090;&#1100; &#1080;&#1079; &#1089;&#1080;&#1089;&#1090;&#1077;&#1084;&#1099;</text></g><g id="elem_SearchRoom"><ellipse cx="304.0935" cy="341.8187" fill="#F1F1F1" rx="109.5935" ry="24.3187" style="stroke:#181818;stroke-width:0.5;"/><text fill="#000000" font-family="sans-serif" font-size="14" lengthAdjust="spacing" textLength="185" x="211.5935" y="344.6654">&#1048;&#1089;&#1082;&#1072;&#1090;&#1100; &#1080;&#1075;&#1088;&#1086;&#1074;&#1099;&#1077; &#1082;&#1086;&#1084;&#1085;&#1072;&#1090;&#1099;</text></g><g id="elem_JoinRoom"><ellipse cx="303.7717" cy="428.0543" fill="#F1F1F1" rx="120.7717" ry="26.5543" style="stroke:#181818;stroke-width:0.5;"/><text fill="#000000" font-family="sans-serif" font-size="14" lengthAdjust="spacing" textLength="209" x="199.2717" y="430.901">&#1042;&#1089;&#1090;&#1091;&#1087;&#1072;&#1090;&#1100; &#1074; &#1080;&#1075;&#1088;&#1086;&#1074;&#1091;&#1102; &#1082;&#1086;&#1084;&#1085;&#1072;&#1090;&#1091;</text></g><g id="elem_LeaveRoom"><ellipse cx="304.0602" cy="515.212" fill="#F1F1F1" rx="116.5602" ry="25.712" style="stroke:#181818;stroke-width:0.5;"/><text fill="#000000" font-family="sans-serif" font-size="14" lengthAdjust="spacing" textLength="200" x="204.0602" y="518.0587">&#1055;&#1086;&#1082;&#1080;&#1076;&#1072;&#1090;&#1100; &#1080;&#1075;&#1088;&#1086;&#1074;&#1091;&#1102; &#1082;&#1086;&#1084;&#1085;&#1072;&#1090;&#1091;</text></g><g id="elem_Learn"><ellipse cx="304.0118" cy="637.9024" fill="#F1F1F1" rx="95.0118" ry="21.4024" style="stroke:#181818;stroke-width:0.5;"/><text fill="#000000" font-family="sans-serif" font-size="14" lengthAdjust="spacing" textLength="153" x="227.5118" y="640.749">&#1055;&#1088;&#1086;&#1093;&#1086;&#1076;&#1080;&#1090;&#1100; &#1086;&#1073;&#1091;&#1095;&#1077;&#1085;&#1080;&#1077;</text></g><g id="elem_ReadContent"><ellipse cx="304.0998" cy="755.22" fill="#FF0000" rx="86.5998" ry="19.72" style="stroke:#181818;stroke-width:0.5;"/><text fill="#000000" font-family="sans-serif" font-size="14" lengthAdjust="spacing" textLength="134" x="237.0998" y="758.0666">&#1055;&#1086;&#1083;&#1091;&#1095;&#1072;&#1090;&#1100; &#1082;&#1086;&#1085;&#1090;&#1077;&#1085;&#1090;</text></g><g id="elem_GetState"><ellipse cx="304.0617" cy="877.2123" fill="#FF0000" rx="124.0617" ry="27.2123" style="stroke:#181818;stroke-width:0.5;"/><text fill="#000000" font-family="sans-serif" font-size="14" lengthAdjust="spacing" textLength="216" x="196.0617" y="880.059">&#1055;&#1086;&#1083;&#1091;&#1095;&#1072;&#1090;&#1100; &#1089;&#1086;&#1089;&#1090;&#1086;&#1103;&#1085;&#1080;&#1077; &#1086;&#1073;&#1098;&#1077;&#1082;&#1090;&#1072;</text></g><g id="elem_ChangeState"><ellipse cx="303.9616" cy="964.9923" fill="#FF0000" rx="117.9616" ry="25.9923" style="stroke:#181818;stroke-width:0.5;"/><text fill="#000000" font-family="sans-serif" font-size="14" lengthAdjust="spacing" textLength="203" x="202.4616" y="967.839">&#1052;&#1077;&#1085;&#1103;&#1090;&#1100; &#1089;&#1086;&#1089;&#1090;&#1086;&#1103;&#1085;&#1080;&#1077; &#1086;&#1073;&#1098;&#1077;&#1082;&#1090;&#1072;</text></g><g id="elem_ImportChar"><ellipse cx="303.9942" cy="1051.8988" fill="#F1F1F1" rx="117.4942" ry="25.8988" style="stroke:#181818;stroke-width:0.5;"/><text fill="#000000" font-family="sans-serif" font-size="14" lengthAdjust="spacing" textLength="202" x="202.9942" y="1054.7455">&#1048;&#1084;&#1087;&#1086;&#1088;&#1090;&#1080;&#1088;&#1086;&#1074;&#1072;&#1090;&#1100; &#1087;&#1077;&#1088;&#1089;&#1086;&#1085;&#1072;&#1078;&#1072;</text></g><g id="elem_ExportChar"><ellipse cx="303.8027" cy="1139.9605" fill="#F1F1F1" rx="120.3027" ry="26.4605" style="stroke:#181818;stroke-width:0.5;"/><text fill="#000000" font-family="sans-serif" font-size="14" lengthAdjust="spacing" textLength="208" x="199.8027" y="1142.8072">&#1069;&#1082;&#1089;&#1087;&#1086;&#1088;&#1090;&#1080;&#1088;&#1086;&#1074;&#1072;&#1090;&#1100; &#1087;&#1077;&#1088;&#1089;&#1086;&#1085;&#1072;&#1078;&#1072;</text></g><!--entity UP--><g id="elem_UP"><ellipse cx="27.5" cy="485.5" fill="#FFA500" rx="8" ry="8" style="stroke:#FFA500;stroke-width:2.0;"/><path d="M27.5,493.5 L27.5,520.5 M14.5,501.5 L40.5,501.5 M27.5,520.5 L14.5,535.5 M27.5,520.5 L40.5,535.5 " fill="none" style="stroke:#FFA500;stroke-width:2.0;"/><text fill="#FFA500" font-family="sans-serif" font-size="14" lengthAdjust="spacing" textLength="43" x="6" y="551.4951">&#1048;&#1075;&#1088;&#1086;&#1082;</text></g><!--link UP to Register--><g id="link_UP_Register"><path d="M28.1,475.39 C28.01,382.03 33.16,152.12 84.5,99 C118.49,63.84 172.59,54.47 218.45,53.95 " fill="none" id="UP-to-Register" style="stroke:#FFA500;stroke-width:1.0;"/><polygon fill="#FFA500" points="223.71,53.93,214.6986,49.9557,218.71,53.9443,214.7215,57.9557,223.71,53.93" style="stroke:#FFA500;stroke-width:1.0;"/></g><!--link UP to Auth--><g id="link_UP_Auth"><path d="M29.6,475.21 C32.67,395.67 43.95,221.18 84.5,180 C114.27,149.77 158.81,138.13 199.93,134.69 " fill="none" id="UP-to-Auth" style="stroke:#FFA500;stroke-width:1.0;"/><polygon fill="#FFA500" points="204.93,134.31,195.6577,130.9897,199.9438,134.6815,196.252,138.9676,204.93,134.31" style="stroke:#FFA500;stroke-width:1.0;"/></g><!--link UP to Logout--><g id="link_UP_Logout"><path d="M28.38,475.16 C30.36,427.88 40.68,349.39 84.5,301 C118.04,263.96 170.07,243.81 214.94,232.87 " fill="none" id="UP-to-Logout" style="stroke:#FFA500;stroke-width:1.0;"/><polygon fill="#FFA500" points="219.82,231.71,210.138,229.9046,214.9561,232.8687,211.992,237.6868,219.82,231.71" style="stroke:#FFA500;stroke-width:1.0;"/></g><!--link UP to SearchRoom--><g id="link_UP_SearchRoom"><path d="M35.13,475.47 C42.22,445.81 56.48,406.58 84.5,384 C113.81,360.38 152.47,348.65 189.12,343.19 " fill="none" id="UP-to-SearchRoom" style="stroke:#FFA500;stroke-width:1.0;"/><polygon fill="#FFA500" points="194.51,342.43,185.038,339.7315,189.5594,343.1311,186.1598,347.6525,194.51,342.43" style="stroke:#FFA500;stroke-width:1.0;"/></g><!--link UP to JoinRoom--><g id="link_UP_JoinRoom"><path d="M49.07,495.55 C59.06,487.1 71.67,477.84 84.5,472 C117.32,457.08 155.19,447.19 190.09,440.65 " fill="none" id="UP-to-JoinRoom" style="stroke:#FFA500;stroke-width:1.0;"/><polygon fill="#FFA500" points="195.22,439.7,185.6467,437.3867,190.3018,440.6007,187.0878,445.2559,195.22,439.7" style="stroke:#FFA500;stroke-width:1.0;"/></g><!--link UP to LeaveRoom--><g id="link_UP_LeaveRoom"><path d="M49.13,522.13 C80.42,526.73 142,528.51 196.68,527.46 " fill="none" id="UP-to-LeaveRoom" style="stroke:#FFA500;stroke-width:1.0;"/><polygon fill="#FFA500" points="201.95,527.35,192.8718,523.5308,196.951,527.45,193.0318,531.5292,201.95,527.35" style="stroke:#FFA500;stroke-width:1.0;"/></g><!--link UP to LeaveRoom--><g id="link_UP_LeaveRoom"><path d="M49.13,507.45 C80.72,502.53 143.2,500.66 198.27,501.84 " fill="none" id="UP-to-LeaveRoom-1" style="stroke:#FFA500;stroke-width:1.0;"/><polygon fill="#FFA500" points="203.57,501.97,194.6638,497.7654,198.5713,501.8557,194.4809,505.7633,203.57,501.97" style="stroke:#FFA500;stroke-width:1.0;"/></g><!--link UP to Learn--><g id="link_UP_Learn"><path d="M49.06,532.68 C59.25,540.83 72.02,550.19 84.5,557 C134.02,584 194.41,605.62 239.14,619.71 " fill="none" id="UP-to-Learn" style="stroke:#FFA500;stroke-width:1.0;"/><polygon fill="#FFA500" points="243.97,621.22,236.5839,614.705,239.2001,619.7205,234.1847,622.3368,243.97,621.22" style="stroke:#FFA500;stroke-width:1.0;"/></g><!--link UP to ReadContent--><g id="link_UP_ReadContent"><path d="M32.66,554.82 C38.45,590.89 52.16,643.26 84.5,676 C121.77,713.72 178.38,733.54 224.64,743.89 " fill="none" id="UP-to-ReadContent" style="stroke:#FFA500;stroke-width:1.0;"/><polygon fill="#FFA500" points="229.65,744.98,221.7157,739.145,224.7661,743.909,220.0021,746.9593,229.65,744.98" style="stroke:#FFA500;stroke-width:1.0;"/></g><!--link UP to GetState--><g id="link_UP_GetState"><path d="M31.9,554.55 C38.43,622.03 54.81,755.6 84.5,791 C113.76,825.89 159.09,846.7 200.88,859.08 " fill="none" id="UP-to-GetState" style="stroke:#FFA500;stroke-width:1.0;"/><polygon fill="#FFA500" points="205.7,860.48,198.1576,854.1466,200.8951,859.097,195.9447,861.8345,205.7,860.48" style="stroke:#FFA500;stroke-width:1.0;"/></g><!--link UP to ChangeState--><g id="link_UP_ChangeState"><path d="M28.35,554.58 C28.87,646.13 35.27,868.64 84.5,921 C109.38,947.47 145.4,960.44 181.04,966.26 " fill="none" id="UP-to-ChangeState" style="stroke:#FFA500;stroke-width:1.0;"/><polygon fill="#FFA500" points="186.3,967.06,178.0094,961.7434,181.3576,966.3029,176.7981,969.6512,186.3,967.06" style="stroke:#FFA500;stroke-width:1.0;"/></g><!--link UP to ImportChar--><g id="link_UP_ImportChar"><path d="M30.35,554.6 C35.91,665.76 53.99,974.76 84.5,1008 C109.31,1035.04 145.73,1048.08 181.75,1053.79 " fill="none" id="UP-to-ImportChar" style="stroke:#FFA500;stroke-width:1.0;"/><polygon fill="#FFA500" points="187.05,1054.58,178.7444,1049.2868,182.1055,1053.8369,177.5555,1057.198,187.05,1054.58" style="stroke:#FFA500;stroke-width:1.0;"/></g><!--link UP to ExportChar--><g id="link_UP_ExportChar"><path d="M29.65,554.76 C33.6,679.14 48.46,1054.88 84.5,1095 C108.37,1121.57 143.39,1134.83 178.44,1140.93 " fill="none" id="UP-to-ExportChar" style="stroke:#FFA500;stroke-width:1.0;"/><polygon fill="#FFA500" points="183.61,1141.78,175.3824,1136.3664,178.6769,1140.965,174.0783,1144.2594,183.61,1141.78" style="stroke:#FFA500;stroke-width:1.0;"/></g><!--SRC=[KypCIyufJKbLqDClBKvDJYnEBTOhACtDuU8gIitDBqjL27M1irpXB7y0]--></g></svg>