<?xml version="1.0" encoding="us-ascii" standalone="no"?><svg xmlns="http://www.w3.org/2000/svg" xmlns:xlink="http://www.w3.org/1999/xlink" contentStyleType="text/css" height="731px" preserveAspectRatio="none" style="width:550px;height:731px;background:#FFFFFF;" version="1.1" viewBox="0 0 550 731" width="550px" zoomAndPan="magnify"><defs/><g><!--cluster Users--><g id="cluster_Users"><rect fill="none" height="176" rx="2.5" ry="2.5" style="stroke:#181818;stroke-width:1.0;" width="236" x="214" y="7"/><text fill="#000000" font-family="sans-serif" font-size="14" font-weight="bold" lengthAdjust="spacing" textLength="115" x="274.5" y="21.9951">&#1055;&#1086;&#1083;&#1100;&#1079;&#1086;&#1074;&#1072;&#1090;&#1077;&#1083;&#1080;</text></g><!--cluster Education--><g id="cluster_Education"><rect fill="none" height="179" rx="2.5" ry="2.5" style="stroke:#181818;stroke-width:1.0;" width="252" x="206" y="207"/><text fill="#000000" font-family="sans-serif" font-size="14" font-weight="bold" lengthAdjust="spacing" textLength="81" x="291.5" y="221.9951">&#1054;&#1073;&#1091;&#1095;&#1077;&#1085;&#1080;&#1077;</text></g><!--cluster Content--><g id="cluster_Content"><rect fill="none" height="315" rx="2.5" ry="2.5" style="stroke:#181818;stroke-width:1.0;" width="423" x="121" y="410"/><text fill="#000000" font-family="sans-serif" font-size="14" font-weight="bold" lengthAdjust="spacing" textLength="407" x="129" y="424.9951">&#1050;&#1086;&#1085;&#1090;&#1077;&#1085;&#1090; &#1082;&#1085;&#1080;&#1075;, &#1089;&#1077;&#1090;&#1090;&#1080;&#1085;&#1075;&#1086;&#1074;, &#1087;&#1088;&#1080;&#1082;&#1083;&#1102;&#1095;&#1077;&#1085;&#1080;&#1081;, &#1093;&#1086;&#1091;&#1084;&#1073;&#1088;&#1102;</text></g><g id="elem_Auth"><ellipse cx="332.2481" cy="64.8496" fill="#F1F1F1" rx="102.2481" ry="22.8496" style="stroke:#181818;stroke-width:0.5;"/><text fill="#000000" font-family="sans-serif" font-size="14" lengthAdjust="spacing" textLength="169" x="247.7481" y="67.6963">&#1040;&#1091;&#1090;&#1077;&#1085;&#1090;&#1080;&#1092;&#1080;&#1094;&#1080;&#1088;&#1086;&#1074;&#1072;&#1090;&#1100;&#1089;&#1103;</text></g><g id="elem_Logout"><ellipse cx="332.0673" cy="145.2135" fill="#F1F1F1" rx="99.0673" ry="22.2135" style="stroke:#181818;stroke-width:0.5;"/><text fill="#000000" font-family="sans-serif" font-size="14" lengthAdjust="spacing" textLength="162" x="251.0673" y="148.0601">&#1042;&#1099;&#1093;&#1086;&#1076;&#1080;&#1090;&#1100; &#1080;&#1079; &#1089;&#1080;&#1089;&#1090;&#1077;&#1084;&#1099;</text></g><g id="elem_Learn"><ellipse cx="332.0118" cy="263.9024" fill="#F1F1F1" rx="95.0118" ry="21.4024" style="stroke:#181818;stroke-width:0.5;"/><text fill="#000000" font-family="sans-serif" font-size="14" lengthAdjust="spacing" textLength="153" x="255.5118" y="266.749">&#1055;&#1088;&#1086;&#1093;&#1086;&#1076;&#1080;&#1090;&#1100; &#1086;&#1073;&#1091;&#1095;&#1077;&#1085;&#1080;&#1077;</text></g><g id="elem_EditLearn"><ellipse cx="332.0557" cy="344.9111" fill="#F1F1F1" rx="110.0557" ry="24.4111" style="stroke:#181818;stroke-width:0.5;"/><text fill="#000000" font-family="sans-serif" font-size="14" lengthAdjust="spacing" textLength="186" x="239.0557" y="347.7578">&#1056;&#1077;&#1076;&#1072;&#1082;&#1090;&#1080;&#1088;&#1086;&#1074;&#1072;&#1090;&#1100; &#1086;&#1073;&#1091;&#1095;&#1077;&#1085;&#1080;&#1077;</text></g><g id="elem_ReadContent"><ellipse cx="332.0998" cy="465.22" fill="#FF0000" rx="86.5998" ry="19.72" style="stroke:#181818;stroke-width:0.5;"/><text fill="#000000" font-family="sans-serif" font-size="14" lengthAdjust="spacing" textLength="134" x="265.0998" y="468.0666">&#1055;&#1086;&#1083;&#1091;&#1095;&#1072;&#1090;&#1100; &#1082;&#1086;&#1085;&#1090;&#1077;&#1085;&#1090;</text></g><g id="elem_CreateContent"><ellipse cx="331.9996" cy="540.0999" fill="#F1F1F1" rx="90.9996" ry="20.5999" style="stroke:#181818;stroke-width:0.5;"/><text fill="#000000" font-family="sans-serif" font-size="14" lengthAdjust="spacing" textLength="144" x="259.9996" y="542.9466">&#1057;&#1086;&#1079;&#1076;&#1072;&#1074;&#1072;&#1090;&#1100; &#1082;&#1086;&#1085;&#1090;&#1077;&#1085;&#1090;</text></g><g id="elem_EditContent"><ellipse cx="331.9128" cy="615.9826" fill="#F1F1F1" rx="87.9128" ry="19.9826" style="stroke:#181818;stroke-width:0.5;"/><text fill="#000000" font-family="sans-serif" font-size="14" lengthAdjust="spacing" textLength="137" x="263.4128" y="618.8292">&#1048;&#1079;&#1084;&#1077;&#1085;&#1103;&#1090;&#1100; &#1082;&#1086;&#1085;&#1090;&#1077;&#1085;&#1090;</text></g><g id="elem_DeleteContent"><ellipse cx="332.1379" cy="690.0276" fill="#F1F1F1" rx="83.1379" ry="19.0276" style="stroke:#181818;stroke-width:0.5;"/><text fill="#000000" font-family="sans-serif" font-size="14" lengthAdjust="spacing" textLength="126" x="268.5914" y="693.0594">&#1059;&#1076;&#1072;&#1083;&#1103;&#1090;&#1100; &#1082;&#1086;&#1085;&#1090;&#1077;&#1085;&#1090;</text></g><!--entity UE--><g id="elem_UE"><ellipse cx="41.5" cy="375.5" fill="#800000" rx="8" ry="8" style="stroke:#800000;stroke-width:2.0;"/><path d="M41.5,383.5 L41.5,410.5 M28.5,391.5 L54.5,391.5 M41.5,410.5 L28.5,425.5 M41.5,410.5 L54.5,425.5 " fill="none" style="stroke:#800000;stroke-width:2.0;"/><text fill="#800000" font-family="sans-serif" font-size="14" lengthAdjust="spacing" textLength="71" x="6" y="441.4951">&#1056;&#1077;&#1076;&#1072;&#1082;&#1090;&#1086;&#1088;</text></g><!--link UE to Auth--><g id="link_UE_Auth"><path d="M46.48,365.34 C54.63,292.24 75.7,140.5 113,105 C143.01,76.44 186.34,64.82 226.47,60.96 " fill="none" id="UE-to-Auth" style="stroke:#800000;stroke-width:1.0;"/><polygon fill="#800000" points="231.86,60.48,222.5406,57.2943,226.8797,60.9236,223.2504,65.2628,231.86,60.48" style="stroke:#800000;stroke-width:1.0;"/></g><!--link UE to Logout--><g id="link_UE_Logout"><path d="M48.48,365.27 C56.51,325.12 74.49,263.77 113,226 C149.01,190.68 201.8,170.54 246.41,159.18 " fill="none" id="UE-to-Logout" style="stroke:#800000;stroke-width:1.0;"/><polygon fill="#800000" points="251.52,157.91,241.8174,156.219,246.6701,159.126,243.7631,163.9788,251.52,157.91" style="stroke:#800000;stroke-width:1.0;"/></g><!--link UE to Learn--><g id="link_UE_Learn"><path d="M60.23,365.43 C72.06,343.6 89.73,317.96 113,303 C147.89,280.56 192.1,270.11 231.58,265.52 " fill="none" id="UE-to-Learn" style="stroke:#800000;stroke-width:1.0;"/><polygon fill="#800000" points="236.86,264.94,227.479,261.9406,231.8895,265.4828,228.3474,269.8933,236.86,264.94" style="stroke:#800000;stroke-width:1.0;"/></g><!--link UE to EditLearn--><g id="link_UE_EditLearn"><path d="M77.01,397.82 C118.46,389.2 189.46,374.44 245.86,362.71 " fill="none" id="UE-to-EditLearn" style="stroke:#800000;stroke-width:1.0;"/><polygon fill="#800000" points="250.93,361.65,241.3048,359.5629,246.0344,362.6663,242.931,367.3959,250.93,361.65" style="stroke:#800000;stroke-width:1.0;"/></g><!--link UE to CreateContent--><g id="link_UE_CreateContent"><path d="M61.93,444.88 C73.87,465.16 91.09,488.34 113,502 C149.27,524.61 195.19,534.75 235.52,538.98 " fill="none" id="UE-to-CreateContent" style="stroke:#800000;stroke-width:1.0;"/><polygon fill="#800000" points="240.92,539.51,232.3516,534.6538,235.9437,539.0238,231.5737,542.6159,240.92,539.51" style="stroke:#800000;stroke-width:1.0;"/></g><!--link UE to EditContent--><g id="link_UE_EditContent"><path d="M47.49,444.51 C54.72,484.51 72.09,545.04 113,578 C148.43,606.55 197.74,616.81 240.5,619.6 " fill="none" id="UE-to-EditContent" style="stroke:#800000;stroke-width:1.0;"/><polygon fill="#800000" points="245.68,619.91,236.9236,615.4016,240.6882,619.6239,236.4659,623.3885,245.68,619.91" style="stroke:#800000;stroke-width:1.0;"/></g><!--link UE to DeleteContent--><g id="link_UE_DeleteContent"><path d="M41.62,444.76 C42.71,500.13 53.51,599.66 113,653 C149.26,685.51 203.12,694.89 248.22,696.07 " fill="none" id="UE-to-DeleteContent" style="stroke:#800000;stroke-width:1.0;"/><polygon fill="#800000" points="253.4,696.17,244.4818,691.9908,248.401,696.07,244.3218,699.9892,253.4,696.17" style="stroke:#800000;stroke-width:1.0;"/></g><!--link UE to ReadContent--><g id="link_UE_ReadContent"><path d="M77.01,412.18 C122.67,421.67 204.18,438.63 262.56,450.77 " fill="none" id="UE-to-ReadContent" style="stroke:#800000;stroke-width:1.0;"/><polygon fill="#800000" points="267.78,451.85,259.7937,446.0864,262.8866,450.8228,258.1502,453.9158,267.78,451.85" style="stroke:#800000;stroke-width:1.0;"/></g><!--SRC=[KypCIyufJKbLqDClBKvDJYnEBTOhACtDuU8gIitDBqjL27M1i_pXh000]--></g></svg>