<?xml version="1.0" encoding="us-ascii" standalone="no"?><svg xmlns="http://www.w3.org/2000/svg" xmlns:xlink="http://www.w3.org/1999/xlink" contentStyleType="text/css" height="2418px" preserveAspectRatio="none" style="width:552px;height:2418px;background:#FFFFFF;" version="1.1" viewBox="0 0 552 2418" width="552px" zoomAndPan="magnify"><defs/><g><!--cluster Users--><g id="cluster_Users"><rect fill="none" height="338" rx="2.5" ry="2.5" style="stroke:#181818;stroke-width:1.0;" width="267" x="201" y="7"/><text fill="#000000" font-family="sans-serif" font-size="14" font-weight="bold" lengthAdjust="spacing" textLength="115" x="277" y="21.9951">&#1055;&#1086;&#1083;&#1100;&#1079;&#1086;&#1074;&#1072;&#1090;&#1077;&#1083;&#1080;</text></g><!--cluster Rooms--><g id="cluster_Rooms"><rect fill="none" height="549" rx="2.5" ry="2.5" style="stroke:#181818;stroke-width:1.0;" width="305" x="182" y="912"/><text fill="#000000" font-family="sans-serif" font-size="14" font-weight="bold" lengthAdjust="spacing" textLength="147" x="261" y="926.9951">&#1048;&#1075;&#1088;&#1086;&#1074;&#1099;&#1077; &#1082;&#1086;&#1084;&#1085;&#1072;&#1090;&#1099;</text></g><!--cluster Education--><g id="cluster_Education"><rect fill="none" height="179" rx="2.5" ry="2.5" style="stroke:#181818;stroke-width:1.0;" width="252" x="208.5" y="709"/><text fill="#000000" font-family="sans-serif" font-size="14" font-weight="bold" lengthAdjust="spacing" textLength="81" x="294" y="723.9951">&#1054;&#1073;&#1091;&#1095;&#1077;&#1085;&#1080;&#1077;</text></g><!--cluster Content--><g id="cluster_Content"><rect fill="none" height="316" rx="2.5" ry="2.5" style="stroke:#181818;stroke-width:1.0;" width="423" x="123.5" y="369"/><text fill="#000000" font-family="sans-serif" font-size="14" font-weight="bold" lengthAdjust="spacing" textLength="407" x="131.5" y="383.9951">&#1050;&#1086;&#1085;&#1090;&#1077;&#1085;&#1090; &#1082;&#1085;&#1080;&#1075;, &#1089;&#1077;&#1090;&#1090;&#1080;&#1085;&#1075;&#1086;&#1074;, &#1087;&#1088;&#1080;&#1082;&#1083;&#1102;&#1095;&#1077;&#1085;&#1080;&#1081;, &#1093;&#1086;&#1091;&#1084;&#1073;&#1088;&#1102;</text></g><!--cluster Campaigns--><g id="cluster_Campaigns"><rect fill="none" height="721" rx="2.5" ry="2.5" style="stroke:#181818;stroke-width:1.0;" width="302" x="183.5" y="1485"/><text fill="#000000" font-family="sans-serif" font-size="14" font-weight="bold" lengthAdjust="spacing" textLength="182" x="243.5" y="1499.9951">&#1044;&#1072;&#1085;&#1085;&#1099;&#1077; &#1087;&#1088;&#1086;&#1093;&#1086;&#1078;&#1076;&#1077;&#1085;&#1080;&#1103;</text></g><!--cluster Hints--><g id="cluster_Hints"><rect fill="none" height="182" rx="2.5" ry="2.5" style="stroke:#181818;stroke-width:1.0;" width="246" x="211.5" y="2230"/><text fill="#000000" font-family="sans-serif" font-size="14" font-weight="bold" lengthAdjust="spacing" textLength="89" x="290" y="2244.9951">&#1055;&#1086;&#1076;&#1089;&#1082;&#1072;&#1079;&#1082;&#1080;</text></g><g id="elem_Register"><ellipse cx="334.4744" cy="308.8949" fill="#F1F1F1" rx="87.4744" ry="19.8949" style="stroke:#181818;stroke-width:0.5;"/><text fill="#000000" font-family="sans-serif" font-size="14" lengthAdjust="spacing" textLength="136" x="266.4744" y="311.7416">&#1056;&#1077;&#1075;&#1080;&#1089;&#1090;&#1088;&#1080;&#1088;&#1086;&#1074;&#1072;&#1090;&#1100;&#1089;&#1103;</text></g><g id="elem_Auth"><ellipse cx="334.7481" cy="230.8496" fill="#F1F1F1" rx="102.2481" ry="22.8496" style="stroke:#181818;stroke-width:0.5;"/><text fill="#000000" font-family="sans-serif" font-size="14" lengthAdjust="spacing" textLength="169" x="250.2481" y="233.6963">&#1040;&#1091;&#1090;&#1077;&#1085;&#1090;&#1080;&#1092;&#1080;&#1094;&#1080;&#1088;&#1086;&#1074;&#1072;&#1090;&#1100;&#1089;&#1103;</text></g><g id="elem_ManageUsers"><ellipse cx="334.4942" cy="67.8988" fill="#F1F1F1" rx="117.4942" ry="25.8988" style="stroke:#181818;stroke-width:0.5;"/><text fill="#000000" font-family="sans-serif" font-size="14" lengthAdjust="spacing" textLength="202" x="233.4942" y="70.7455">&#1059;&#1087;&#1088;&#1072;&#1074;&#1083;&#1103;&#1090;&#1100; &#1087;&#1086;&#1083;&#1100;&#1079;&#1086;&#1074;&#1072;&#1090;&#1077;&#1083;&#1103;&#1084;&#1080;</text></g><g id="elem_Logout"><ellipse cx="334.5673" cy="151.2135" fill="#F1F1F1" rx="99.0673" ry="22.2135" style="stroke:#181818;stroke-width:0.5;"/><text fill="#000000" font-family="sans-serif" font-size="14" lengthAdjust="spacing" textLength="162" x="253.5673" y="154.0601">&#1042;&#1099;&#1093;&#1086;&#1076;&#1080;&#1090;&#1100; &#1080;&#1079; &#1089;&#1080;&#1089;&#1090;&#1077;&#1084;&#1099;</text></g><g id="elem_CreateRoom"><ellipse cx="334.334" cy="1147.8668" fill="#F1F1F1" rx="119.834" ry="26.3668" style="stroke:#181818;stroke-width:0.5;"/><text fill="#000000" font-family="sans-serif" font-size="14" lengthAdjust="spacing" textLength="207" x="230.834" y="1150.7135">&#1057;&#1086;&#1079;&#1076;&#1072;&#1074;&#1072;&#1090;&#1100; &#1080;&#1075;&#1088;&#1086;&#1074;&#1091;&#1102; &#1082;&#1086;&#1084;&#1085;&#1072;&#1090;&#1091;</text></g><g id="elem_EditRoom"><ellipse cx="334.3751" cy="1415.175" fill="#F1F1F1" rx="136.3751" ry="29.675" style="stroke:#181818;stroke-width:0.5;"/><text fill="#000000" font-family="sans-serif" font-size="14" lengthAdjust="spacing" textLength="242" x="213.3751" y="1418.0217">&#1056;&#1077;&#1076;&#1072;&#1082;&#1090;&#1080;&#1088;&#1086;&#1074;&#1072;&#1090;&#1100; &#1080;&#1075;&#1088;&#1086;&#1074;&#1091;&#1102; &#1082;&#1086;&#1084;&#1085;&#1072;&#1090;&#1091;</text></g><g id="elem_ArchiveRoom"><ellipse cx="334.649" cy="1322.1298" fill="#F1F1F1" rx="131.149" ry="28.6298" style="stroke:#181818;stroke-width:0.5;"/><text fill="#000000" font-family="sans-serif" font-size="14" lengthAdjust="spacing" textLength="231" x="219.149" y="1324.9765">&#1040;&#1088;&#1093;&#1080;&#1074;&#1080;&#1088;&#1086;&#1074;&#1072;&#1090;&#1100; &#1080;&#1075;&#1088;&#1086;&#1074;&#1091;&#1102; &#1082;&#1086;&#1084;&#1085;&#1072;&#1090;&#1091;</text></g><g id="elem_SearchRoom"><ellipse cx="334.5935" cy="1233.8187" fill="#F1F1F1" rx="109.5935" ry="24.3187" style="stroke:#181818;stroke-width:0.5;"/><text fill="#000000" font-family="sans-serif" font-size="14" lengthAdjust="spacing" textLength="185" x="242.0935" y="1236.6654">&#1048;&#1089;&#1082;&#1072;&#1090;&#1100; &#1080;&#1075;&#1088;&#1086;&#1074;&#1099;&#1077; &#1082;&#1086;&#1084;&#1085;&#1072;&#1090;&#1099;</text></g><g id="elem_JoinRoom"><ellipse cx="334.2717" cy="974.0543" fill="#F1F1F1" rx="120.7717" ry="26.5543" style="stroke:#181818;stroke-width:0.5;"/><text fill="#000000" font-family="sans-serif" font-size="14" lengthAdjust="spacing" textLength="209" x="229.7717" y="976.901">&#1042;&#1089;&#1090;&#1091;&#1087;&#1072;&#1090;&#1100; &#1074; &#1080;&#1075;&#1088;&#1086;&#1074;&#1091;&#1102; &#1082;&#1086;&#1084;&#1085;&#1072;&#1090;&#1091;</text></g><g id="elem_LeaveRoom"><ellipse cx="334.5602" cy="1061.212" fill="#F1F1F1" rx="116.5602" ry="25.712" style="stroke:#181818;stroke-width:0.5;"/><text fill="#000000" font-family="sans-serif" font-size="14" lengthAdjust="spacing" textLength="200" x="234.5602" y="1064.0587">&#1055;&#1086;&#1082;&#1080;&#1076;&#1072;&#1090;&#1100; &#1080;&#1075;&#1088;&#1086;&#1074;&#1091;&#1102; &#1082;&#1086;&#1084;&#1085;&#1072;&#1090;&#1091;</text></g><g id="elem_Learn"><ellipse cx="334.5118" cy="849.9024" fill="#F1F1F1" rx="95.0118" ry="21.4024" style="stroke:#181818;stroke-width:0.5;"/><text fill="#000000" font-family="sans-serif" font-size="14" lengthAdjust="spacing" textLength="153" x="258.0118" y="852.749">&#1055;&#1088;&#1086;&#1093;&#1086;&#1076;&#1080;&#1090;&#1100; &#1086;&#1073;&#1091;&#1095;&#1077;&#1085;&#1080;&#1077;</text></g><g id="elem_EditLearn"><ellipse cx="334.5557" cy="768.9111" fill="#F1F1F1" rx="110.0557" ry="24.4111" style="stroke:#181818;stroke-width:0.5;"/><text fill="#000000" font-family="sans-serif" font-size="14" lengthAdjust="spacing" textLength="186" x="241.5557" y="771.7578">&#1056;&#1077;&#1076;&#1072;&#1082;&#1090;&#1080;&#1088;&#1086;&#1074;&#1072;&#1090;&#1100; &#1086;&#1073;&#1091;&#1095;&#1077;&#1085;&#1080;&#1077;</text></g><g id="elem_ReadContent"><ellipse cx="334.5998" cy="649.22" fill="#FF0000" rx="86.5998" ry="19.72" style="stroke:#181818;stroke-width:0.5;"/><text fill="#000000" font-family="sans-serif" font-size="14" lengthAdjust="spacing" textLength="134" x="267.5998" y="652.0666">&#1055;&#1086;&#1083;&#1091;&#1095;&#1072;&#1090;&#1100; &#1082;&#1086;&#1085;&#1090;&#1077;&#1085;&#1090;</text></g><g id="elem_CreateContent"><ellipse cx="334.4996" cy="498.0999" fill="#F1F1F1" rx="90.9996" ry="20.5999" style="stroke:#181818;stroke-width:0.5;"/><text fill="#000000" font-family="sans-serif" font-size="14" lengthAdjust="spacing" textLength="144" x="262.4996" y="500.9466">&#1057;&#1086;&#1079;&#1076;&#1072;&#1074;&#1072;&#1090;&#1100; &#1082;&#1086;&#1085;&#1090;&#1077;&#1085;&#1090;</text></g><g id="elem_EditContent"><ellipse cx="334.4128" cy="573.9826" fill="#F1F1F1" rx="87.9128" ry="19.9826" style="stroke:#181818;stroke-width:0.5;"/><text fill="#000000" font-family="sans-serif" font-size="14" lengthAdjust="spacing" textLength="137" x="265.9128" y="576.8292">&#1048;&#1079;&#1084;&#1077;&#1085;&#1103;&#1090;&#1100; &#1082;&#1086;&#1085;&#1090;&#1077;&#1085;&#1090;</text></g><g id="elem_DeleteContent"><ellipse cx="334.6379" cy="423.0276" fill="#F1F1F1" rx="83.1379" ry="19.0276" style="stroke:#181818;stroke-width:0.5;"/><text fill="#000000" font-family="sans-serif" font-size="14" lengthAdjust="spacing" textLength="126" x="271.0914" y="426.0594">&#1059;&#1076;&#1072;&#1083;&#1103;&#1090;&#1100; &#1082;&#1086;&#1085;&#1090;&#1077;&#1085;&#1090;</text></g><g id="elem_GetState"><ellipse cx="334.5617" cy="1803.2123" fill="#FF0000" rx="124.0617" ry="27.2123" style="stroke:#181818;stroke-width:0.5;"/><text fill="#000000" font-family="sans-serif" font-size="14" lengthAdjust="spacing" textLength="216" x="226.5617" y="1806.059">&#1055;&#1086;&#1083;&#1091;&#1095;&#1072;&#1090;&#1100; &#1089;&#1086;&#1089;&#1090;&#1086;&#1103;&#1085;&#1080;&#1077; &#1086;&#1073;&#1098;&#1077;&#1082;&#1090;&#1072;</text></g><g id="elem_ChangeState"><ellipse cx="334.4616" cy="1890.9923" fill="#FF0000" rx="117.9616" ry="25.9923" style="stroke:#181818;stroke-width:0.5;"/><text fill="#000000" font-family="sans-serif" font-size="14" lengthAdjust="spacing" textLength="203" x="232.9616" y="1893.839">&#1052;&#1077;&#1085;&#1103;&#1090;&#1100; &#1089;&#1086;&#1089;&#1090;&#1086;&#1103;&#1085;&#1080;&#1077; &#1086;&#1073;&#1098;&#1077;&#1082;&#1090;&#1072;</text></g><g id="elem_Generate"><ellipse cx="334.4476" cy="2067.8895" fill="#FF0000" rx="134.9476" ry="29.3895" style="stroke:#181818;stroke-width:0.5;"/><text fill="#000000" font-family="sans-serif" font-size="14" lengthAdjust="spacing" textLength="239" x="214.9476" y="2070.7362">&#1043;&#1077;&#1085;&#1077;&#1088;&#1080;&#1088;&#1086;&#1074;&#1072;&#1090;&#1100; &#1080;&#1075;&#1088;&#1086;&#1074;&#1099;&#1077; &#1086;&#1073;&#1098;&#1077;&#1082;&#1090;&#1099;</text></g><g id="elem_CreateChar"><ellipse cx="334.4738" cy="1630.8948" fill="#F1F1F1" rx="99.9738" ry="22.3948" style="stroke:#181818;stroke-width:0.5;"/><text fill="#000000" font-family="sans-serif" font-size="14" lengthAdjust="spacing" textLength="164" x="252.4738" y="1633.7414">&#1057;&#1086;&#1079;&#1076;&#1072;&#1074;&#1072;&#1090;&#1100; &#1087;&#1077;&#1088;&#1089;&#1086;&#1085;&#1072;&#1078;&#1072;</text></g><g id="elem_EditChar"><ellipse cx="334.5937" cy="1978.1187" fill="#F1F1F1" rx="116.0937" ry="25.6187" style="stroke:#181818;stroke-width:0.5;"/><text fill="#000000" font-family="sans-serif" font-size="14" lengthAdjust="spacing" textLength="199" x="235.0937" y="1980.9654">&#1056;&#1077;&#1076;&#1072;&#1082;&#1090;&#1080;&#1088;&#1086;&#1074;&#1072;&#1090;&#1100; &#1087;&#1077;&#1088;&#1089;&#1086;&#1085;&#1072;&#1078;&#1072;</text></g><g id="elem_ImportChar"><ellipse cx="334.4942" cy="1714.8988" fill="#F1F1F1" rx="117.4942" ry="25.8988" style="stroke:#181818;stroke-width:0.5;"/><text fill="#000000" font-family="sans-serif" font-size="14" lengthAdjust="spacing" textLength="202" x="233.4942" y="1717.7455">&#1048;&#1084;&#1087;&#1086;&#1088;&#1090;&#1080;&#1088;&#1086;&#1074;&#1072;&#1090;&#1100; &#1087;&#1077;&#1088;&#1089;&#1086;&#1085;&#1072;&#1078;&#1072;</text></g><g id="elem_ExportChar"><ellipse cx="334.3027" cy="1546.9605" fill="#F1F1F1" rx="120.3027" ry="26.4605" style="stroke:#181818;stroke-width:0.5;"/><text fill="#000000" font-family="sans-serif" font-size="14" lengthAdjust="spacing" textLength="208" x="230.3027" y="1549.8072">&#1069;&#1082;&#1089;&#1087;&#1086;&#1088;&#1090;&#1080;&#1088;&#1086;&#1074;&#1072;&#1090;&#1100; &#1087;&#1077;&#1088;&#1089;&#1086;&#1085;&#1072;&#1078;&#1072;</text></g><g id="elem_ExportHistory"><ellipse cx="334.7278" cy="2160.8456" fill="#F1F1F1" rx="129.7278" ry="28.3456" style="stroke:#181818;stroke-width:0.5;"/><text fill="#000000" font-family="sans-serif" font-size="14" lengthAdjust="spacing" textLength="228" x="220.7278" y="2163.6922">&#1069;&#1082;&#1089;&#1087;&#1086;&#1088;&#1090;&#1080;&#1088;&#1086;&#1074;&#1072;&#1090;&#1100; &#1087;&#1088;&#1086;&#1093;&#1086;&#1078;&#1076;&#1077;&#1085;&#1080;&#1077;</text></g><g id="elem_AskHint"><ellipse cx="334.3276" cy="2288.7655" fill="#FF0000" rx="106.8276" ry="23.7655" style="stroke:#181818;stroke-width:0.5;"/><text fill="#000000" font-family="sans-serif" font-size="14" lengthAdjust="spacing" textLength="179" x="244.8276" y="2291.6122">&#1047;&#1072;&#1087;&#1088;&#1072;&#1096;&#1080;&#1074;&#1072;&#1090;&#1100; &#1087;&#1086;&#1076;&#1089;&#1082;&#1072;&#1079;&#1082;&#1080;</text></g><g id="elem_TuneHint"><ellipse cx="334.4911" cy="2371.8982" fill="#F1F1F1" rx="104.9911" ry="23.3982" style="stroke:#181818;stroke-width:0.5;"/><text fill="#000000" font-family="sans-serif" font-size="14" lengthAdjust="spacing" textLength="175" x="246.9911" y="2374.7449">&#1053;&#1072;&#1089;&#1090;&#1088;&#1072;&#1080;&#1074;&#1072;&#1090;&#1100; &#1087;&#1086;&#1076;&#1089;&#1082;&#1072;&#1079;&#1082;&#1080;</text></g><!--entity UO--><g id="elem_UO"><ellipse cx="43" cy="121.5" fill="#0000FF" rx="8" ry="8" style="stroke:#0000FF;stroke-width:2.0;"/><path d="M43,129.5 L43,156.5 M30,137.5 L56,137.5 M43,156.5 L30,171.5 M43,156.5 L56,171.5 " fill="none" style="stroke:#0000FF;stroke-width:2.0;"/><text fill="#0000FF" font-family="sans-serif" font-size="14" lengthAdjust="spacing" textLength="74" x="6" y="187.4951">&#1042;&#1083;&#1072;&#1076;&#1077;&#1083;&#1077;&#1094;</text></g><!--entity UE--><g id="elem_UE"><ellipse cx="43" cy="506.5" fill="#800000" rx="8" ry="8" style="stroke:#800000;stroke-width:2.0;"/><path d="M43,514.5 L43,541.5 M30,522.5 L56,522.5 M43,541.5 L30,556.5 M43,541.5 L56,556.5 " fill="none" style="stroke:#800000;stroke-width:2.0;"/><text fill="#800000" font-family="sans-serif" font-size="14" lengthAdjust="spacing" textLength="71" x="7.5" y="572.4951">&#1056;&#1077;&#1076;&#1072;&#1082;&#1090;&#1086;&#1088;</text></g><!--entity UP--><g id="elem_UP"><ellipse cx="43" cy="1075.5" fill="#FFA500" rx="8" ry="8" style="stroke:#FFA500;stroke-width:2.0;"/><path d="M43,1083.5 L43,1110.5 M30,1091.5 L56,1091.5 M43,1110.5 L30,1125.5 M43,1110.5 L56,1125.5 " fill="none" style="stroke:#FFA500;stroke-width:2.0;"/><text fill="#FFA500" font-family="sans-serif" font-size="14" lengthAdjust="spacing" textLength="43" x="21.5" y="1141.4951">&#1048;&#1075;&#1088;&#1086;&#1082;</text></g><!--entity UD--><g id="elem_UD"><ellipse cx="43" cy="1773.5" fill="#008000" rx="8" ry="8" style="stroke:#008000;stroke-width:2.0;"/><path d="M43,1781.5 L43,1808.5 M30,1789.5 L56,1789.5 M43,1808.5 L30,1823.5 M43,1808.5 L56,1823.5 " fill="none" style="stroke:#008000;stroke-width:2.0;"/><text fill="#008000" font-family="sans-serif" font-size="14" lengthAdjust="spacing" textLength="68" x="9" y="1839.4951">&#1042;&#1077;&#1076;&#1091;&#1097;&#1080;&#1081;</text></g><!--link UP to Register--><g id="link_UP_Register"><path d="M46.78,1065.34 C57.22,918.8 94.51,414.98 115.5,388 C147.28,347.15 202.13,327.41 248.85,317.87 " fill="none" id="UP-to-Register" style="stroke:#FFA500;stroke-width:1.0;"/><polygon fill="#FFA500" points="253.92,316.87,244.3152,314.6912,249.0149,317.8396,245.8665,322.5394,253.92,316.87" style="stroke:#FFA500;stroke-width:1.0;"/></g><!--link UO to Auth--><g id="link_UO_Auth"><path d="M80.08,173.54 C91.12,179.64 103.51,185.72 115.5,190 C154.64,203.96 199.52,213.44 238.34,219.73 " fill="none" id="UO-to-Auth" style="stroke:#0000FF;stroke-width:1.0;"/><polygon fill="#0000FF" points="243.53,220.56,235.2696,215.1967,238.592,219.7751,234.0136,223.0975,243.53,220.56" style="stroke:#0000FF;stroke-width:1.0;"/></g><!--link UE to Auth--><g id="link_UE_Auth"><path d="M49.48,496.26 C59.44,430.04 82.55,301.35 115.5,271 C145.77,243.12 188.79,231.55 228.63,227.53 " fill="none" id="UE-to-Auth" style="stroke:#800000;stroke-width:1.0;"/><polygon fill="#800000" points="233.98,227.04,224.6515,223.8809,229.001,227.4978,225.3841,231.8473,233.98,227.04" style="stroke:#800000;stroke-width:1.0;"/></g><!--link UP to Auth--><g id="link_UP_Auth"><path d="M46.75,1065.29 C58.18,901.45 101.95,285.92 115.5,271 C144.53,239.05 189.98,227.42 231.89,224.44 " fill="none" id="UP-to-Auth" style="stroke:#FFA500;stroke-width:1.0;"/><polygon fill="#FFA500" points="236.98,224.11,227.7468,220.6825,231.9898,224.4237,228.2487,228.6667,236.98,224.11" style="stroke:#FFA500;stroke-width:1.0;"/></g><!--link UD to Auth--><g id="link_UD_Auth"><path d="M46.46,1763.26 C52.63,1662.64 69.07,1389.67 80,1162 C82.38,1112.52 83.04,308.42 115.5,271 C144.15,237.97 190.32,226.38 232.81,223.71 " fill="none" id="UD-to-Auth" style="stroke:#008000;stroke-width:1.0;"/><polygon fill="#008000" points="237.97,223.43,228.7664,219.9237,232.9774,223.701,229.2001,227.912,237.97,223.43" style="stroke:#008000;stroke-width:1.0;"/></g><!--link UO to ManageUsers--><g id="link_UO_ManageUsers"><path d="M80.05,127.93 C91.08,121.67 103.49,115.42 115.5,111 C150.96,97.96 191.19,88.6 227.35,82.02 " fill="none" id="UO-to-ManageUsers" style="stroke:#0000FF;stroke-width:1.0;"/><polygon fill="#0000FF" points="232.66,81.07,223.0944,78.725,227.7388,81.9544,224.5094,86.5988,232.66,81.07" style="stroke:#0000FF;stroke-width:1.0;"/></g><!--link UO to Logout--><g id="link_UO_Logout"><path d="M80.08,151 C117.52,151 177.83,151 230.22,151 " fill="none" id="UO-to-Logout" style="stroke:#0000FF;stroke-width:1.0;"/><polygon fill="#0000FF" points="235.26,151,226.26,147,230.26,151,226.26,155,235.26,151" style="stroke:#0000FF;stroke-width:1.0;"/></g><!--link UE to Logout--><g id="link_UE_Logout"><path d="M46.72,496.36 C53.16,414.78 72.16,232.2 115.5,190 C146.41,159.91 192.09,148.7 233.67,145.61 " fill="none" id="UE-to-Logout" style="stroke:#800000;stroke-width:1.0;"/><polygon fill="#800000" points="238.72,145.27,229.4764,141.8705,233.7308,145.5988,230.0025,149.8532,238.72,145.27" style="stroke:#800000;stroke-width:1.0;"/></g><!--link UP to Logout--><g id="link_UP_Logout"><path d="M46.76,1065.49 C59,891.06 108.02,198.26 115.5,190 C145.51,156.86 193.23,145.78 236.38,143.56 " fill="none" id="UP-to-Logout" style="stroke:#FFA500;stroke-width:1.0;"/><polygon fill="#FFA500" points="241.62,143.33,232.4565,139.7202,236.6246,143.5447,232.8001,147.7128,241.62,143.33" style="stroke:#FFA500;stroke-width:1.0;"/></g><!--link UD to Logout--><g id="link_UD_Logout"><path d="M46.5,1763.26 C52.78,1662.65 69.45,1389.69 80,1162 C82.5,1108.02 80.07,230.8 115.5,190 C145.24,155.76 193.85,144.79 237.64,142.92 " fill="none" id="UD-to-Logout" style="stroke:#008000;stroke-width:1.0;"/><polygon fill="#008000" points="242.68,142.75,233.5482,139.0607,237.6829,142.9213,233.8223,147.056,242.68,142.75" style="stroke:#008000;stroke-width:1.0;"/></g><!--link UD to EditRoom--><g id="link_UD_EditRoom"><path d="M48.96,1763.29 C58.66,1691.25 82.19,1542.84 115.5,1504 C144.21,1470.53 187.43,1449.46 227.83,1436.29 " fill="none" id="UD-to-EditRoom" style="stroke:#008000;stroke-width:1.0;"/><polygon fill="#008000" points="232.74,1434.72,222.9507,1433.6383,227.9756,1436.2366,225.3773,1441.2614,232.74,1434.72" style="stroke:#008000;stroke-width:1.0;"/></g><!--link UD to ArchiveRoom--><g id="link_UD_ArchiveRoom"><path d="M44.97,1763.43 C48.18,1667.15 61.56,1424.43 115.5,1368 C137.45,1345.04 167.74,1332.08 198.77,1325.06 " fill="none" id="UD-to-ArchiveRoom" style="stroke:#008000;stroke-width:1.0;"/><polygon fill="#008000" points="203.75,1323.99,194.1076,1321.9838,198.8631,1325.0474,195.7995,1329.8029,203.75,1323.99" style="stroke:#008000;stroke-width:1.0;"/></g><!--link UP to CreateRoom--><g id="link_UP_CreateRoom"><path d="M64.82,1108.09 C98.99,1113.17 169.19,1123.6 229.27,1132.52 " fill="none" id="UP-to-CreateRoom" style="stroke:#FFA500;stroke-width:1.0;"/><polygon fill="#FFA500" points="234.31,1133.27,226.0044,1127.9768,229.3655,1132.5269,224.8155,1135.888,234.31,1133.27" style="stroke:#FFA500;stroke-width:1.0;"/></g><!--link UP to SearchRoom--><g id="link_UP_SearchRoom"><path d="M64.51,1140.21 C76.96,1158.47 94.5,1179.51 115.5,1192 C147.47,1211.02 186.31,1221.66 222.31,1227.55 " fill="none" id="UP-to-SearchRoom" style="stroke:#FFA500;stroke-width:1.0;"/><polygon fill="#FFA500" points="227.6,1228.38,219.342,1223.013,222.6624,1227.5928,218.0825,1230.9132,227.6,1228.38" style="stroke:#FFA500;stroke-width:1.0;"/></g><!--link UP to JoinRoom--><g id="link_UP_JoinRoom"><path d="M64.55,1069.86 C77.01,1051.62 94.55,1030.59 115.5,1018 C145.07,1000.23 180.56,989.51 214.23,983.07 " fill="none" id="UP-to-JoinRoom" style="stroke:#FFA500;stroke-width:1.0;"/><polygon fill="#FFA500" points="219.19,982.15,209.6102,979.8637,214.2743,983.0645,211.0735,987.7287,219.19,982.15" style="stroke:#FFA500;stroke-width:1.0;"/></g><!--link UP to LeaveRoom--><g id="link_UP_LeaveRoom"><path d="M64.82,1108.83 C105.57,1108.5 197.54,1095.9 262.49,1082.94 " fill="none" id="UP-to-LeaveRoom" style="stroke:#FFA500;stroke-width:1.0;"/><polygon fill="#FFA500" points="267.51,1081.93,257.8919,1079.8104,262.611,1082.9298,259.4916,1087.6489,267.51,1081.93" style="stroke:#FFA500;stroke-width:1.0;"/></g><!--link UP to LeaveRoom--><g id="link_UP_LeaveRoom"><path d="M64.82,1094.43 C96.16,1084.89 157.78,1073.56 214.12,1065.83 " fill="none" id="UP-to-LeaveRoom-1" style="stroke:#FFA500;stroke-width:1.0;"/><polygon fill="#FFA500" points="219.21,1065.14,209.7546,1062.3842,214.2552,1065.8111,210.8283,1070.3118,219.21,1065.14" style="stroke:#FFA500;stroke-width:1.0;"/></g><!--link UE to Learn--><g id="link_UE_Learn"><path d="M49.02,575.6 C58.5,643.82 81.2,779.25 115.5,811 C147.84,840.93 194.9,851.88 237.03,854.84 " fill="none" id="UE-to-Learn" style="stroke:#800000;stroke-width:1.0;"/><polygon fill="#800000" points="242.15,855.16,233.4195,850.6017,237.1599,854.8454,232.9162,858.5859,242.15,855.16" style="stroke:#800000;stroke-width:1.0;"/></g><!--link UE to EditLearn--><g id="link_UE_EditLearn"><path d="M54.15,575.8 C64.51,609.05 83.67,655.61 115.5,685 C151.72,718.45 202.7,739.07 246.26,751.51 " fill="none" id="UE-to-EditLearn" style="stroke:#800000;stroke-width:1.0;"/><polygon fill="#800000" points="251.26,752.91,243.6829,746.6181,246.4476,751.5534,241.5123,754.318,251.26,752.91" style="stroke:#800000;stroke-width:1.0;"/></g><!--link UP to Learn--><g id="link_UP_Learn"><path d="M50.77,1065.27 C59.39,1026.2 77.93,967.31 115.5,931 C152.55,895.2 206.82,874.96 251.95,863.67 " fill="none" id="UP-to-Learn" style="stroke:#FFA500;stroke-width:1.0;"/><polygon fill="#FFA500" points="256.84,862.47,247.1481,860.7185,251.9826,863.6558,249.0454,868.4903,256.84,862.47" style="stroke:#FFA500;stroke-width:1.0;"/></g><!--link UD to Learn--><g id="link_UD_Learn"><path d="M46.07,1763.28 C54.89,1597.1 90.01,964.63 115.5,931 C145.85,890.95 198.22,870.69 244.02,860.46 " fill="none" id="UD-to-Learn" style="stroke:#008000;stroke-width:1.0;"/><polygon fill="#008000" points="249,859.38,239.3533,857.3948,244.1154,860.4481,241.0622,865.2102,249,859.38" style="stroke:#008000;stroke-width:1.0;"/></g><!--link UE to CreateContent--><g id="link_UE_CreateContent"><path d="M78.63,531.45 C120.81,525.92 193.47,516.38 250.44,508.9 " fill="none" id="UE-to-CreateContent" style="stroke:#800000;stroke-width:1.0;"/><polygon fill="#800000" points="255.55,508.23,246.1103,505.4207,250.5915,508.873,247.1392,513.3542,255.55,508.23" style="stroke:#800000;stroke-width:1.0;"/></g><!--link UE to EditContent--><g id="link_UE_EditContent"><path d="M78.63,540.55 C121.39,546.16 195.48,555.88 252.79,563.41 " fill="none" id="UE-to-EditContent" style="stroke:#800000;stroke-width:1.0;"/><polygon fill="#800000" points="257.93,564.08,249.5192,558.9558,252.9715,563.437,248.4903,566.8893,257.93,564.08" style="stroke:#800000;stroke-width:1.0;"/></g><!--link UE to DeleteContent--><g id="link_UE_DeleteContent"><path d="M72.47,496.45 C84.27,482.84 99.05,468.81 115.5,460 C155.41,438.61 204.82,429.08 246.51,425.01 " fill="none" id="UE-to-DeleteContent" style="stroke:#800000;stroke-width:1.0;"/><polygon fill="#800000" points="251.55,424.54,242.2134,421.405,246.5722,425.0107,242.9665,429.3695,251.55,424.54" style="stroke:#800000;stroke-width:1.0;"/></g><!--link UE to ReadContent--><g id="link_UE_ReadContent"><path d="M73.27,575.77 C84.97,588.95 99.48,602.43 115.5,611 C154.41,631.8 202.28,641.59 243.24,646.05 " fill="none" id="UE-to-ReadContent" style="stroke:#800000;stroke-width:1.0;"/><polygon fill="#800000" points="248.45,646.6,239.9094,641.6951,243.4765,646.0855,239.0862,649.6527,248.45,646.6" style="stroke:#800000;stroke-width:1.0;"/></g><!--link UP to ReadContent--><g id="link_UP_ReadContent"><path d="M46.62,1065.41 C53.06,979.29 72.42,778.6 115.5,728 C149.43,688.15 205.12,668.4 251.72,658.61 " fill="none" id="UP-to-ReadContent" style="stroke:#FFA500;stroke-width:1.0;"/><polygon fill="#FFA500" points="256.78,657.58,247.1619,655.4604,251.881,658.5798,248.7616,663.2989,256.78,657.58" style="stroke:#FFA500;stroke-width:1.0;"/></g><!--link UD to ReadContent--><g id="link_UD_ReadContent"><path d="M46.35,1763.25 C57.81,1570.12 107.55,738.57 115.5,728 C146.78,686.4 202.07,666.67 249.14,657.33 " fill="none" id="UD-to-ReadContent" style="stroke:#008000;stroke-width:1.0;"/><polygon fill="#008000" points="254.25,656.35,244.6575,654.1175,249.3396,657.2921,246.1649,661.9742,254.25,656.35" style="stroke:#008000;stroke-width:1.0;"/></g><!--link UP to GetState--><g id="link_UP_GetState"><path d="M45.66,1144.51 C51.65,1278.88 74.06,1712.44 115.5,1758 C138.55,1783.34 171.78,1796.53 205.36,1802.94 " fill="none" id="UP-to-GetState" style="stroke:#FFA500;stroke-width:1.0;"/><polygon fill="#FFA500" points="210.32,1803.84,202.1694,1798.3112,205.3988,1802.9556,200.7544,1806.185,210.32,1803.84" style="stroke:#FFA500;stroke-width:1.0;"/></g><!--link UP to ChangeState--><g id="link_UP_ChangeState"><path d="M45.11,1144.72 C49.54,1291.08 68.15,1794.5 115.5,1847 C139.9,1874.05 175.93,1887.14 211.7,1892.89 " fill="none" id="UP-to-ChangeState" style="stroke:#FFA500;stroke-width:1.0;"/><polygon fill="#FFA500" points="216.98,1893.68,208.6722,1888.3904,212.0352,1892.939,207.4866,1896.302,216.98,1893.68" style="stroke:#FFA500;stroke-width:1.0;"/></g><!--link UP to CreateChar--><g id="link_UP_CreateChar"><path d="M44.12,1144.62 C45.28,1248.93 54.2,1527.49 115.5,1591 C145.54,1622.13 191.25,1633.63 233.06,1636.74 " fill="none" id="UP-to-CreateChar" style="stroke:#FFA500;stroke-width:1.0;"/><polygon fill="#FFA500" points="238.14,1637.08,229.4225,1632.4968,233.1508,1636.7512,228.8964,1640.4795,238.14,1637.08" style="stroke:#FFA500;stroke-width:1.0;"/></g><!--link UP to EditChar--><g id="link_UP_EditChar"><path d="M46.11,1144.76 C54.83,1306.02 88.88,1904.18 115.5,1934 C140.32,1961.79 177.4,1974.89 213.98,1980.41 " fill="none" id="UP-to-EditChar" style="stroke:#FFA500;stroke-width:1.0;"/><polygon fill="#FFA500" points="219.37,1981.17,211.0177,1975.9509,214.4191,1980.4709,209.8991,1983.8723,219.37,1981.17" style="stroke:#FFA500;stroke-width:1.0;"/></g><!--link UP to ImportChar--><g id="link_UP_ImportChar"><path d="M43.25,1144.63 C41.93,1260.38 44.46,1594.54 115.5,1671 C140.24,1697.62 176.25,1710.62 211.91,1716.41 " fill="none" id="UP-to-ImportChar" style="stroke:#FFA500;stroke-width:1.0;"/><polygon fill="#FFA500" points="217.16,1717.21,208.8694,1711.8934,212.2176,1716.4529,207.6581,1719.8012,217.16,1717.21" style="stroke:#FFA500;stroke-width:1.0;"/></g><!--link UP to ExportChar--><g id="link_UP_ExportChar"><path d="M47.24,1144.79 C54.69,1227.29 75.56,1413.25 115.5,1461 C145.1,1496.38 191.24,1517.29 233.47,1529.61 " fill="none" id="UP-to-ExportChar" style="stroke:#FFA500;stroke-width:1.0;"/><polygon fill="#FFA500" points="238.33,1531,230.7702,1524.6873,233.5213,1529.6302,228.5785,1532.3813,238.33,1531" style="stroke:#FFA500;stroke-width:1.0;"/></g><!--link UD to Generate--><g id="link_UD_Generate"><path d="M45.56,1842.77 C49.73,1892.02 64.44,1975.02 115.5,2021 C138.07,2041.33 167.29,2053.61 196.95,2060.87 " fill="none" id="UD-to-Generate" style="stroke:#008000;stroke-width:1.0;"/><polygon fill="#008000" points="202.1,2062.08,194.2515,2056.1301,197.2322,2060.938,192.4243,2063.9186,202.1,2062.08" style="stroke:#008000;stroke-width:1.0;"/></g><!--link UD to GetState--><g id="link_UD_GetState"><path d="M77.21,1803 C108.74,1803 158.17,1803 205.25,1803 " fill="none" id="UD-to-GetState" style="stroke:#008000;stroke-width:1.0;"/><polygon fill="#008000" points="210.38,1803,201.38,1799,205.38,1803,201.38,1807,210.38,1803" style="stroke:#008000;stroke-width:1.0;"/></g><!--link UD to ChangeState--><g id="link_UD_ChangeState"><path d="M77.26,1826.84 C88.9,1834.24 102.35,1841.82 115.5,1847 C150.51,1860.8 190.46,1870.47 226.51,1877.15 " fill="none" id="UD-to-ChangeState" style="stroke:#008000;stroke-width:1.0;"/><polygon fill="#008000" points="231.8,1878.11,223.6678,1872.5541,226.8818,1877.2093,222.2267,1880.4233,231.8,1878.11" style="stroke:#008000;stroke-width:1.0;"/></g><!--link UD to EditChar--><g id="link_UD_EditChar"><path d="M55.5,1842.65 C66.21,1872.37 85.15,1911.63 115.5,1934 C144.09,1955.07 180.27,1966.68 214.91,1972.91 " fill="none" id="UD-to-EditChar" style="stroke:#008000;stroke-width:1.0;"/><polygon fill="#008000" points="220,1973.79,211.8031,1968.3301,215.0715,1972.9472,210.4545,1976.2157,220,1973.79" style="stroke:#008000;stroke-width:1.0;"/></g><!--link UD to ExportHistory--><g id="link_UD_ExportHistory"><path d="M47.82,1842.68 C55.87,1917.93 77.11,2077.26 115.5,2115 C138.35,2137.46 169.23,2150.2 200.55,2157.16 " fill="none" id="UD-to-ExportHistory" style="stroke:#008000;stroke-width:1.0;"/><polygon fill="#008000" points="205.58,2158.23,197.6098,2152.4441,200.6895,2157.1892,195.9445,2160.2689,205.58,2158.23" style="stroke:#008000;stroke-width:1.0;"/></g><!--link UD to AskHint--><g id="link_UD_AskHint"><path d="M46.14,1842.52 C51.77,1932.84 69.86,2150.85 115.5,2206 C146.08,2242.95 195.02,2263.48 238.8,2274.87 " fill="none" id="UD-to-AskHint" style="stroke:#008000;stroke-width:1.0;"/><polygon fill="#008000" points="243.83,2276.14,236.0899,2270.0497,238.9835,2274.9105,234.1227,2277.8041,243.83,2276.14" style="stroke:#008000;stroke-width:1.0;"/></g><!--link UD to TuneHint--><g id="link_UD_TuneHint"><path d="M43.64,1842.68 C43.5,1953.01 49.19,2259.91 115.5,2330 C143.7,2359.81 186.15,2372.09 226.12,2376.26 " fill="none" id="UD-to-TuneHint" style="stroke:#008000;stroke-width:1.0;"/><polygon fill="#008000" points="231.49,2376.78,222.9078,2371.9482,226.5123,2376.308,222.1526,2379.9125,231.49,2376.78" style="stroke:#008000;stroke-width:1.0;"/></g><!--SRC=[dPVhJXD15CU_zoasriGluWD8OYIqGOq6ukK1rdPiDxIxPZeb66C2uXq214qanclyR5AXbTgMzXLctiWpjzsPpgnKIQ3Bd3c_EUVC_ynE6-W12KWIuAXM9q4rmgX2eYGk5C8AIN1mZXxG8UtGBkt1Pu-zE1U4hU3USd0UVelt6sqqtuXYT3bzkdG_QLJd2LedOYp5V0L05q03zfIEsOR4b05J3ehD42T9B476iu6Ieodia1wp3Jgc0ubP0SnAK4nm6DTKFCQpWP6ZHceG4zjYhscV_fQe4g1AGR664L81POy6I0mM2hnOG6mWW7s1U8PiXvx0vn7jG9gyOds9RI7S2XuN0lXfjr0bR25LacFQPvliAMJJ5na9JxO3Otl2ypQgHIs2y9JhFaJD5pY5ltts37vVv00MsgG-vVoTJc1g1wOEsHwV7D29BtYsHqSgWLjX7DQGI6CATi2ssNFmwiBw0jMd9m7Rb6a1PSIs1U5cKalQH3Z3NitDNKbJqnidRSl2ngEMyfAZPMDKQS4WoN6JKZB6vLuPS2CPSmrfb76wQ-jnTtLjSTVN5Xd14rilMiD7R9ls0Zg0nn4z5RidAtOxIPgkQBx1l1FHIMgdUSKrQOljsgGjGLh4A2I8ypmAr4rfoMS6QBaQ4Gzodss07le0-bVW0gxKepLVc8UWfu7BoQdR7HG2oOCv49ss1M9NgACPehgHHB67nRjz0DxTcTExYK8ZEQKGNKHBfKgyMJaignHTjgMsyAGrAu7FgbFosT8eK-EKR3_Jdv3XItxsGCuz9OLs9UHl3KUjNtXDxFDXx070gZYUNPjZRmmHoJ2vsPWTpMVR3LrEDyLZN36zFCqk3TvU_m0Xd-e3cuk3ntryaP-JFKW94eIHOvxYnK0SpdsOCsIxQOw_OIvK4SGxWjmtsAxiwoGcA2PkrSLfpYka2ZOmrrVlbR2gtOiOLSy-PLo6rA2YJBSik8_4tBqyTrvcl_DtiV8mtxM46iXUMMsT5LBUtlx5R85z4wowkUgmpAv6BBDNAUyWyLF8KvnjaxHxVeaB62X1lTKNm-R3CAh5hJFt7YGs5g_YCRpEHRl8_da3FDvQ7S5RGkGEWShvjF3HsCRPQ8jrddWkyAr8fJTzvt6ETWEiZlOb52ESG_L8Ti8NuI7pWnXgs35bMm_nx2UEdoJ4v78EGVaJVicTbNEz-J31Fj8FY6NptrZbzVzYkKhJvwhWNOERMe8VcLBF9EE-HIm1UCpf3lYikge-MrOfh-UwtrfI0MlnEE_QB1V7PANYMBDONPDPk9nkvytQbPSRqEv0NRQlHJ5n6_izp17tTlPANAywsStTHIoqLZd5roUVm5D-u-YSpRdRZX47MHSJpNPIrhEDR2zWr4pMaCmf_Kz-aT3_fTU7T4HSVRFPozbZkQ2UhhPZ-4wsYgf_0000]--></g></svg>