<?xml version="1.0" encoding="us-ascii" standalone="no"?><svg xmlns="http://www.w3.org/2000/svg" xmlns:xlink="http://www.w3.org/1999/xlink" contentStyleType="text/css" height="276px" preserveAspectRatio="none" style="width:397px;height:276px;background:#FFFFFF;" version="1.1" viewBox="0 0 397 276" width="397px" zoomAndPan="magnify"><defs/><g><!--cluster Users--><g id="cluster_Users"><rect fill="none" height="263" rx="2.5" ry="2.5" style="stroke:#181818;stroke-width:1.0;" width="267" x="124" y="7"/><text fill="#000000" font-family="sans-serif" font-size="14" font-weight="bold" lengthAdjust="spacing" textLength="115" x="200" y="21.9951">&#1055;&#1086;&#1083;&#1100;&#1079;&#1086;&#1074;&#1072;&#1090;&#1077;&#1083;&#1080;</text></g><g id="elem_Auth"><ellipse cx="257.7481" cy="64.8496" fill="#F1F1F1" rx="102.2481" ry="22.8496" style="stroke:#181818;stroke-width:0.5;"/><text fill="#000000" font-family="sans-serif" font-size="14" lengthAdjust="spacing" textLength="169" x="173.2481" y="67.6963">&#1040;&#1091;&#1090;&#1077;&#1085;&#1090;&#1080;&#1092;&#1080;&#1094;&#1080;&#1088;&#1086;&#1074;&#1072;&#1090;&#1100;&#1089;&#1103;</text></g><g id="elem_ManageUsers"><ellipse cx="257.4942" cy="148.8988" fill="#F1F1F1" rx="117.4942" ry="25.8988" style="stroke:#181818;stroke-width:0.5;"/><text fill="#000000" font-family="sans-serif" font-size="14" lengthAdjust="spacing" textLength="202" x="156.4942" y="151.7455">&#1059;&#1087;&#1088;&#1072;&#1074;&#1083;&#1103;&#1090;&#1100; &#1087;&#1086;&#1083;&#1100;&#1079;&#1086;&#1074;&#1072;&#1090;&#1077;&#1083;&#1103;&#1084;&#1080;</text></g><g id="elem_Logout"><ellipse cx="257.5673" cy="232.2135" fill="#F1F1F1" rx="99.0673" ry="22.2135" style="stroke:#181818;stroke-width:0.5;"/><text fill="#000000" font-family="sans-serif" font-size="14" lengthAdjust="spacing" textLength="162" x="176.5673" y="235.0601">&#1042;&#1099;&#1093;&#1086;&#1076;&#1080;&#1090;&#1100; &#1080;&#1079; &#1089;&#1080;&#1089;&#1090;&#1077;&#1084;&#1099;</text></g><!--entity UO--><g id="elem_UO"><ellipse cx="43" cy="119.5" fill="#0000FF" rx="8" ry="8" style="stroke:#0000FF;stroke-width:2.0;"/><path d="M43,127.5 L43,154.5 M30,135.5 L56,135.5 M43,154.5 L30,169.5 M43,154.5 L56,169.5 " fill="none" style="stroke:#0000FF;stroke-width:2.0;"/><text fill="#0000FF" font-family="sans-serif" font-size="14" lengthAdjust="spacing" textLength="74" x="6" y="185.4951">&#1042;&#1083;&#1072;&#1076;&#1077;&#1083;&#1077;&#1094;</text></g><!--link UO to Auth--><g id="link_UO_Auth"><path d="M80.33,124.17 C91.44,117.3 103.92,110.29 116,105 C136.22,96.14 158.92,88.68 180.09,82.7 " fill="none" id="UO-to-Auth" style="stroke:#0000FF;stroke-width:1.0;"/><polygon fill="#0000FF" points="185.15,81.29,175.4062,79.8552,180.3338,82.6334,177.5556,87.561,185.15,81.29" style="stroke:#0000FF;stroke-width:1.0;"/></g><!--link UO to ManageUsers--><g id="link_UO_ManageUsers"><path d="M80.05,149 C95.55,149 114.66,149 134.52,149 " fill="none" id="UO-to-ManageUsers" style="stroke:#0000FF;stroke-width:1.0;"/><polygon fill="#0000FF" points="139.58,149,130.58,145,134.58,149,130.58,153,139.58,149" style="stroke:#0000FF;stroke-width:1.0;"/></g><!--link UO to Logout--><g id="link_UO_Logout"><path d="M80.02,173.01 C91.22,179.79 103.84,186.74 116,192 C137.1,201.12 160.88,208.79 182.78,214.91 " fill="none" id="UO-to-Logout" style="stroke:#0000FF;stroke-width:1.0;"/><polygon fill="#0000FF" points="187.72,216.27,180.0865,210.0467,182.8955,214.9568,177.9854,217.7659,187.72,216.27" style="stroke:#0000FF;stroke-width:1.0;"/></g><!--SRC=[KypCIyufJKbLqDClBKvDJYnEBTOhACtDuU8gIitDBqjL27M1irpXh000]--></g></svg>